<svg width="65" height="64" viewBox="0 0 65 64" fill="none" xmlns="http://www.w3.org/2000/svg">
<path d="M8.33301 19C7.78072 19 7.33301 19.4477 7.33301 20C7.33301 20.5523 7.78072 21 8.33301 21H16.333C16.8853 21 17.333 20.5523 17.333 20C17.333 19.4477 16.8853 19 16.333 19H8.33301Z" fill="#76B82A"/>
<path fill-rule="evenodd" clip-rule="evenodd" d="M7.33301 9C5.67615 9 4.33301 10.3431 4.33301 12V28C4.33301 29.6569 5.67615 31 7.33301 31H33.333C34.9899 31 36.333 29.6569 36.333 28V12C36.333 10.3431 34.9899 9 33.333 9H7.33301ZM6.33301 28V17L34.333 17V28C34.333 28.5523 33.8853 29 33.333 29H7.33301C6.78072 29 6.33301 28.5523 6.33301 28ZM6.33301 15L34.333 15V12C34.333 11.4477 33.8853 11 33.333 11H7.33301C6.78072 11 6.33301 11.4477 6.33301 12V15Z" fill="#76B82A"/>
<path d="M31.333 44C31.333 43.4477 31.7807 43 32.333 43H40.333C40.8853 43 41.333 43.4477 41.333 44C41.333 44.5523 40.8853 45 40.333 45H32.333C31.7807 45 31.333 44.5523 31.333 44Z" fill="#76B82A"/>
<path fill-rule="evenodd" clip-rule="evenodd" d="M31.333 33C29.6762 33 28.333 34.3431 28.333 36V52C28.333 53.6569 29.6762 55 31.333 55H57.333C58.9899 55 60.333 53.6569 60.333 52V36C60.333 34.3431 58.9899 33 57.333 33H31.333ZM58.333 39V36C58.333 35.4477 57.8853 35 57.333 35H31.333C30.7807 35 30.333 35.4477 30.333 36V39L58.333 39ZM30.333 41L58.333 41V52C58.333 52.5523 57.8853 53 57.333 53H31.333C30.7807 53 30.333 52.5523 30.333 52V41Z" fill="#76B82A"/>
<path d="M38.333 15C38.333 14.4477 38.7807 14 39.333 14H49.333C49.8853 14 50.333 14.4477 50.333 15V25.5858L52.6259 23.2929C53.0164 22.9024 53.6496 22.9024 54.0401 23.2929C54.4306 23.6834 54.4306 24.3166 54.0401 24.7071L50.0401 28.7071C49.6496 29.0976 49.0164 29.0976 48.6259 28.7071L44.6259 24.7071C44.2354 24.3166 44.2354 23.6834 44.6259 23.2929C45.0164 22.9024 45.6496 22.9024 46.0401 23.2929L48.333 25.5858V16H39.333C38.7807 16 38.333 15.5523 38.333 15Z" fill="#76B82A"/>
<path d="M26.333 49C26.333 49.5523 25.8853 50 25.333 50H15.333C14.7807 50 14.333 49.5523 14.333 49L14.333 38.4142L12.0401 40.7071C11.6496 41.0976 11.0164 41.0976 10.6259 40.7071C10.2354 40.3166 10.2354 39.6834 10.6259 39.2929L14.6259 35.2929C15.0164 34.9024 15.6496 34.9024 16.0401 35.2929L20.0401 39.2929C20.4306 39.6834 20.4306 40.3166 20.0401 40.7071C19.6496 41.0976 19.0164 41.0976 18.6259 40.7071L16.333 38.4142L16.333 48H25.333C25.8853 48 26.333 48.4477 26.333 49Z" fill="#76B82A"/>
</svg>
