<svg width="34" height="54" viewBox="0 0 34 54" fill="none" xmlns="http://www.w3.org/2000/svg">
<path d="M13 5C12.4477 5 12 5.44772 12 6C12 6.55228 12.4477 7 13 7H21C21.5523 7 22 6.55228 22 6C22 5.44772 21.5523 5 21 5H13Z" fill="#76B82A"/>
<path fill-rule="evenodd" clip-rule="evenodd" d="M14 46C14 44.3431 15.3431 43 17 43C18.6569 43 20 44.3431 20 46C20 47.6569 18.6569 49 17 49C15.3431 49 14 47.6569 14 46ZM17 45C16.4477 45 16 45.4477 16 46C16 46.5523 16.4477 47 17 47C17.5523 47 18 46.5523 18 46C18 45.4477 17.5523 45 17 45Z" fill="#76B82A"/>
<path d="M18.7859 13.2912C19.1764 12.9007 19.8118 12.8989 20.1802 13.3104C23.0313 16.4951 24.765 20.7011 24.765 25.312C24.765 29.9229 23.0313 34.1289 20.1802 37.3137C19.8118 37.7252 19.1764 37.7234 18.7859 37.3328C18.3953 36.9423 18.3979 36.3111 18.7635 35.8971C21.2539 33.0764 22.765 29.3707 22.765 25.312C22.765 21.2534 21.2539 17.5477 18.7635 14.7269C18.3979 14.3129 18.3953 13.6817 18.7859 13.2912Z" fill="#76B82A"/>
<path d="M17.346 34.4799C16.9841 34.8971 16.348 34.8949 15.9574 34.5044C15.5669 34.1139 15.5705 33.4832 15.9274 33.0617C17.6976 30.9709 18.765 28.2661 18.765 25.312C18.765 22.3579 17.6976 19.6531 15.9274 17.5623C15.5705 17.1408 15.5669 16.5102 15.9574 16.1196C16.348 15.7291 16.9841 15.7269 17.346 16.1441C19.476 18.6003 20.765 21.8056 20.765 25.312C20.765 28.8184 19.476 32.0237 17.346 34.4799Z" fill="#76B82A"/>
<path d="M14.507 31.642C14.1571 32.0694 13.5195 32.0665 13.129 31.676C12.7385 31.2855 12.7442 30.6556 13.0833 30.2197C14.1373 28.8647 14.765 27.1617 14.765 25.312C14.765 23.4624 14.1373 21.7594 13.0833 20.4043C12.7442 19.9684 12.7385 19.3386 13.129 18.9481C13.5195 18.5575 14.1571 18.5547 14.507 18.982C15.9183 20.7061 16.765 22.9102 16.765 25.312C16.765 27.7139 15.9183 29.918 14.507 31.642Z" fill="#76B82A"/>
<path d="M11.6531 28.7923C11.3324 29.2419 10.6911 29.2381 10.3006 28.8476C9.91006 28.457 9.9236 27.8278 10.2058 27.3531C10.5611 26.7556 10.765 26.0576 10.765 25.312C10.765 24.5664 10.5611 23.8685 10.2058 23.2709C9.9236 22.7962 9.91006 22.167 10.3006 21.7765C10.6911 21.386 11.3324 21.3821 11.6531 21.8317C12.3532 22.8132 12.765 24.0145 12.765 25.312C12.765 26.6095 12.3532 27.8108 11.6531 28.7923Z" fill="#76B82A"/>
<path fill-rule="evenodd" clip-rule="evenodd" d="M5 0C2.23858 0 0 2.23858 0 5V49C0 51.7614 2.23858 54 5 54H29C31.7614 54 34 51.7614 34 49V5C34 2.23858 31.7614 0 29 0H5ZM2 5C2 3.34315 3.34315 2 5 2H29C30.6569 2 32 3.34315 32 5V49C32 50.6569 30.6569 52 29 52H5C3.34315 52 2 50.6569 2 49V5Z" fill="#76B82A"/>
</svg>
