<svg width="50" height="54" viewBox="0 0 50 54" fill="none" xmlns="http://www.w3.org/2000/svg">
<path fill-rule="evenodd" clip-rule="evenodd" d="M13 11.6657C13 5.08946 18.0556 0 24.6657 0C30.9311 0 36 5.07634 36 11.6657C36 17.9124 30.9124 23 24.6657 23C18.1084 23 13 17.9329 13 11.6657ZM24.6657 2C19.1639 2 15 6.19031 15 11.6657C15 16.7873 19.1714 21 24.6657 21C29.8078 21 34 16.8078 34 11.6657C34 6.14317 29.7891 2 24.6657 2Z" fill="#76B82A"/>
<path fill-rule="evenodd" clip-rule="evenodd" d="M5.06768 28.9356C8.57291 25.6641 13.8624 24 21 24C21.323 24 21.626 24.156 21.8137 24.4188L25 28.8795L28.1863 24.4188C28.374 24.156 28.677 24 29 24C36.1376 24 41.4271 25.6641 44.9323 28.9356C48.4505 32.2193 50 36.9608 50 42.7333V49.8421C50 52.1384 48.1384 54 45.8421 54H4.15789C1.86155 54 0 52.1384 0 49.8421V42.7333C0 36.9608 1.54946 32.2193 5.06768 28.9356ZM45.8421 52C47.0339 52 48 51.0339 48 49.8421V42.7333C48 37.3058 46.5495 33.1807 43.5677 30.3977C40.648 27.6727 36.0976 26.0812 29.5125 26.003L26.1175 30.7559L29.9417 41.4637C30.0759 41.8394 29.974 42.2589 29.6823 42.5311L25.6883 46.2588C25.5053 46.4327 25.2713 46.5246 25.0345 46.5327C25.001 46.5339 24.9675 46.5334 24.9341 46.5312C24.8085 46.523 24.684 46.4911 24.5678 46.4354C24.4757 46.3913 24.3892 46.3324 24.3117 46.2588L20.3177 42.5311C20.026 42.2589 19.9241 41.8394 20.0583 41.4637L23.8825 30.7559L20.4875 26.003C13.9024 26.0812 9.35196 27.6727 6.43232 30.3977C3.45054 33.1807 2 37.3058 2 42.7333V49.8421C2 51.0339 2.96612 52 4.15789 52H45.8421ZM25 44.1654L27.8372 41.5174L25 33.5732L22.1628 41.5174L25 44.1654Z" fill="#76B82A"/>
</svg>
