<svg width="138" height="86" viewBox="0 0 138 86" fill="none" xmlns="http://www.w3.org/2000/svg">
<mask id="path-1-outside-1_633_77965" maskUnits="userSpaceOnUse" x="8" y="18" width="86" height="61" fill="black">
<rect fill="white" x="8" y="18" width="86" height="61"/>
<path d="M38.0469 77H25.9766V43.9531C25.9766 43.0417 25.9896 41.9219 26.0156 40.5938C26.0417 39.2396 26.0807 37.8594 26.1328 36.4531C26.1849 35.0208 26.237 33.7318 26.2891 32.5859C26.0026 32.9245 25.4167 33.5104 24.5312 34.3438C23.6719 35.151 22.8646 35.8802 22.1094 36.5312L15.5469 41.8047L9.72656 34.5391L28.125 19.8906H38.0469V77ZM74.7656 40.5156C78.2552 40.5156 81.3542 41.1797 84.0625 42.5078C86.7969 43.8359 88.9453 45.7891 90.5078 48.3672C92.0703 50.9453 92.8516 54.1224 92.8516 57.8984C92.8516 62.013 91.9922 65.5677 90.2734 68.5625C88.5807 71.5312 86.0417 73.8099 82.6562 75.3984C79.2969 76.987 75.1042 77.7812 70.0781 77.7812C67.0833 77.7812 64.2578 77.5208 61.6016 77C58.9714 76.5052 56.6667 75.737 54.6875 74.6953V64.2656C56.6667 65.3073 59.0365 66.1927 61.7969 66.9219C64.5833 67.625 67.2005 67.9766 69.6484 67.9766C72.0443 67.9766 74.0625 67.6641 75.7031 67.0391C77.3438 66.388 78.5807 65.3984 79.4141 64.0703C80.2734 62.7161 80.7031 60.9974 80.7031 58.9141C80.7031 56.1276 79.7656 53.9922 77.8906 52.5078C76.0156 51.0234 73.138 50.2812 69.2578 50.2812C67.7734 50.2812 66.224 50.4245 64.6094 50.7109C63.0208 50.9974 61.6927 51.2839 60.625 51.5703L55.8203 48.9922L57.9688 19.8906H88.9453V30.125H68.5547L67.5 41.3359C68.3854 41.1536 69.349 40.9714 70.3906 40.7891C71.4323 40.6068 72.8906 40.5156 74.7656 40.5156Z"/>
</mask>
<path d="M38.0469 77V77.5H38.5469V77H38.0469ZM25.9766 77H25.4766V77.5H25.9766V77ZM26.0156 40.5938L26.5155 40.6036L26.5155 40.6034L26.0156 40.5938ZM26.1328 36.4531L26.6325 36.4716L26.6325 36.4713L26.1328 36.4531ZM26.2891 32.5859L26.7885 32.6086L26.8552 31.1428L25.9074 32.263L26.2891 32.5859ZM24.5312 34.3438L24.8736 34.7082L24.8739 34.7078L24.5312 34.3438ZM22.1094 36.5312L22.4226 36.921L22.4293 36.9156L22.4358 36.91L22.1094 36.5312ZM15.5469 41.8047L15.1566 42.1173L15.4697 42.5081L15.8601 42.1944L15.5469 41.8047ZM9.72656 34.5391L9.41513 34.1479L9.02279 34.4603L9.33633 34.8517L9.72656 34.5391ZM28.125 19.8906V19.3906H27.9503L27.8136 19.4995L28.125 19.8906ZM38.0469 19.8906H38.5469V19.3906H38.0469V19.8906ZM38.0469 76.5H36.5381V77.5H38.0469V76.5ZM33.5205 76.5H30.5029V77.5H33.5205V76.5ZM27.4854 76.5H25.9766V77.5H27.4854V76.5ZM26.4766 77V74.9346H25.4766V77H26.4766ZM26.4766 70.8037V66.6729H25.4766V70.8037H26.4766ZM26.4766 62.542V58.4111H25.4766V62.542H26.4766ZM26.4766 54.2803V50.1494H25.4766V54.2803H26.4766ZM26.4766 46.0186V43.9531H25.4766V46.0186H26.4766ZM26.4766 43.9531C26.4766 43.6918 26.4776 43.4131 26.4798 43.117L25.4798 43.1097C25.4776 43.408 25.4766 43.6891 25.4766 43.9531H26.4766ZM26.5004 41.4418C26.5048 41.1723 26.5099 40.8929 26.5155 40.6036L25.5157 40.5839C25.51 40.8743 25.505 41.1547 25.5005 41.4253L26.5004 41.4418ZM26.5155 40.6034C26.5221 40.2607 26.5295 39.9164 26.5378 39.5703L25.5381 39.5465C25.5298 39.894 25.5223 40.2399 25.5157 40.5841L26.5155 40.6034ZM26.5964 37.5045C26.6076 37.1618 26.6197 36.8175 26.6325 36.4716L25.6332 36.4346C25.6203 36.7819 25.6082 37.1276 25.5969 37.4717L26.5964 37.5045ZM26.6325 36.4713C26.6445 36.1416 26.6565 35.8196 26.6684 35.5052L25.6692 35.4671C25.6572 35.7821 25.6452 36.1047 25.6331 36.435L26.6325 36.4713ZM26.7461 33.5738C26.7603 33.2414 26.7744 32.9197 26.7885 32.6086L25.7896 32.5632C25.7754 32.8753 25.7612 33.198 25.747 33.5312L26.7461 33.5738ZM25.9074 32.263C25.8156 32.3714 25.684 32.5146 25.5093 32.6945L26.2267 33.3912C26.4089 33.2035 26.5581 33.0421 26.6708 32.9089L25.9074 32.263ZM24.6367 33.5545C24.4972 33.688 24.3479 33.8297 24.1886 33.9797L24.8739 34.7078C25.035 34.5562 25.1864 34.4126 25.3282 34.2769L24.6367 33.5545ZM24.1889 33.9793C23.988 34.168 23.79 34.3524 23.595 34.5325L24.2732 35.2673C24.4705 35.0852 24.6706 34.8988 24.8736 34.7082L24.1889 33.9793ZM22.3925 35.62C22.1855 35.8031 21.9823 35.9806 21.7829 36.1525L22.4358 36.91C22.6387 36.7351 22.8451 36.5548 23.0551 36.369L22.3925 35.62ZM21.7962 36.1415L20.1556 37.4599L20.7819 38.2394L22.4226 36.921L21.7962 36.1415ZM16.8743 40.0966L15.2337 41.4149L15.8601 42.1944L17.5007 40.8761L16.8743 40.0966ZM15.9371 41.4921L14.482 39.6757L13.7016 40.3009L15.1566 42.1173L15.9371 41.4921ZM11.5719 36.0429L10.1168 34.2265L9.33633 34.8517L10.7914 36.6681L11.5719 36.0429ZM10.038 34.9302L11.5712 33.7095L10.9483 32.9272L9.41513 34.1479L10.038 34.9302ZM14.6376 31.2681L17.704 28.8267L17.0811 28.0444L14.0147 30.4858L14.6376 31.2681ZM20.7704 26.3853L23.8368 23.9439L23.214 23.1616L20.1475 25.603L20.7704 26.3853ZM26.9032 21.5025L28.4364 20.2818L27.8136 19.4995L26.2804 20.7202L26.9032 21.5025ZM28.125 20.3906H30.6055V19.3906H28.125V20.3906ZM35.5664 20.3906H38.0469V19.3906H35.5664V20.3906ZM37.5469 19.8906V21.9302H38.5469V19.8906H37.5469ZM37.5469 26.0095V30.0887H38.5469V26.0095H37.5469ZM37.5469 34.168V38.2472H38.5469V34.168H37.5469ZM37.5469 42.3265V46.4057H38.5469V42.3265H37.5469ZM37.5469 50.4849V54.5642H38.5469V50.4849H37.5469ZM37.5469 58.6434V62.7227H38.5469V58.6434H37.5469ZM37.5469 66.8019V70.8811H38.5469V66.8019H37.5469ZM37.5469 74.9604V77H38.5469V74.9604H37.5469ZM38.0469 77V78H39.0469V77H38.0469ZM25.9766 77H24.9766V78H25.9766V77ZM26.0156 40.5938L27.0154 40.6134L27.0154 40.613L26.0156 40.5938ZM26.1328 36.4531L27.1321 36.4901L27.1322 36.4895L26.1328 36.4531ZM26.2891 32.5859L27.288 32.6313L27.4213 29.6997L25.5257 31.94L26.2891 32.5859ZM24.5312 34.3438L25.2159 35.0726L25.2166 35.0719L24.5312 34.3438ZM22.1094 36.5312L22.7358 37.3108L22.7492 37.2999L22.7623 37.2887L22.1094 36.5312ZM15.5469 41.8047L14.7664 42.4299L15.3926 43.2115L16.1733 42.5842L15.5469 41.8047ZM9.72656 34.5391L9.10369 33.7567L8.31902 34.3815L8.9461 35.1643L9.72656 34.5391ZM28.125 19.8906V18.8906H27.7755L27.5021 19.1083L28.125 19.8906ZM38.0469 19.8906H39.0469V18.8906H38.0469V19.8906ZM38.0469 76H36.5381V78H38.0469V76ZM33.5205 76H30.5029V78H33.5205V76ZM27.4854 76H25.9766V78H27.4854V76ZM26.9766 77V74.9346H24.9766V77H26.9766ZM26.9766 70.8037V66.6729H24.9766V70.8037H26.9766ZM26.9766 62.542V58.4111H24.9766V62.542H26.9766ZM26.9766 54.2803V50.1494H24.9766V54.2803H26.9766ZM26.9766 46.0186V43.9531H24.9766V46.0186H26.9766ZM26.9766 43.9531C26.9766 43.6932 26.9776 43.4157 26.9798 43.1206L24.9798 43.1061C24.9777 43.4054 24.9766 43.6878 24.9766 43.9531H26.9766ZM27.0003 41.45C27.0047 41.1811 27.0098 40.9022 27.0154 40.6134L25.0158 40.5741C25.0101 40.865 25.005 41.146 25.0006 41.4171L27.0003 41.45ZM27.0154 40.613C27.022 40.2711 27.0294 39.9275 27.0377 39.5823L25.0382 39.5345C25.0299 39.8829 25.0224 40.2295 25.0158 40.5745L27.0154 40.613ZM27.0961 37.5208C27.1073 37.1789 27.1193 36.8353 27.1321 36.4901L25.1335 36.4161C25.1206 36.7641 25.1085 37.1105 25.0972 37.4553L27.0961 37.5208ZM27.1322 36.4895C27.1441 36.1601 27.1561 35.8383 27.1681 35.5242L25.1695 35.448C25.1575 35.7634 25.1455 36.0863 25.1335 36.4168L27.1322 36.4895ZM27.2457 33.595C27.2598 33.2631 27.2739 32.9419 27.288 32.6313L25.2901 32.5405C25.2759 32.8532 25.2617 33.1763 25.2475 33.51L27.2457 33.595ZM25.5257 31.94C25.4443 32.0361 25.3216 32.1701 25.1506 32.3462L26.5854 33.7395C26.7714 33.548 26.9293 33.3774 27.0524 33.2319L25.5257 31.94ZM24.2909 33.1933C24.1526 33.3257 24.0043 33.4665 23.8459 33.6156L25.2166 35.0719C25.3786 34.9195 25.5311 34.7749 25.6739 34.6381L24.2909 33.1933ZM23.8466 33.6149C23.6467 33.8027 23.4498 33.986 23.2559 34.165L24.6123 35.6347C24.8107 35.4516 25.0119 35.2642 25.2159 35.0726L23.8466 33.6149ZM22.0612 35.2455C21.8558 35.4273 21.6542 35.6034 21.4564 35.7738L22.7623 37.2887C22.9668 37.1124 23.1749 36.9306 23.3864 36.7435L22.0612 35.2455ZM21.483 35.7517L19.8424 37.0701L21.0951 38.6291L22.7358 37.3108L21.483 35.7517ZM16.5611 39.7068L14.9205 41.0252L16.1733 42.5842L17.8139 41.2658L16.5611 39.7068ZM16.3273 41.1795L14.8723 39.3631L13.3113 40.6135L14.7664 42.4299L16.3273 41.1795ZM11.9621 35.7303L10.507 33.9139L8.9461 35.1643L10.4012 36.9807L11.9621 35.7303ZM10.3494 35.3214L11.8826 34.1007L10.6369 32.536L9.10369 33.7567L10.3494 35.3214ZM14.949 31.6593L18.0154 29.2179L16.7697 27.6532L13.7033 30.0946L14.949 31.6593ZM21.0819 26.7765L24.1483 24.3351L22.9025 22.7704L19.8361 25.2118L21.0819 26.7765ZM27.2147 21.8937L28.7479 20.673L27.5021 19.1083L25.9689 20.329L27.2147 21.8937ZM28.125 20.8906H30.6055V18.8906H28.125V20.8906ZM35.5664 20.8906H38.0469V18.8906H35.5664V20.8906ZM37.0469 19.8906V21.9302H39.0469V19.8906H37.0469ZM37.0469 26.0095V30.0887H39.0469V26.0095H37.0469ZM37.0469 34.168V38.2472H39.0469V34.168H37.0469ZM37.0469 42.3265V46.4057H39.0469V42.3265H37.0469ZM37.0469 50.4849V54.5642H39.0469V50.4849H37.0469ZM37.0469 58.6434V62.7227H39.0469V58.6434H37.0469ZM37.0469 66.8019V70.8811H39.0469V66.8019H37.0469ZM37.0469 74.9604V77H39.0469V74.9604H37.0469ZM84.0625 42.5078L83.8424 42.9567L83.844 42.9576L84.0625 42.5078ZM90.2734 68.5625L89.8398 68.3136L89.8391 68.3148L90.2734 68.5625ZM82.6562 75.3984L82.4439 74.9458L82.4425 74.9464L82.6562 75.3984ZM61.6016 77L61.6978 76.5093L61.694 76.5086L61.6016 77ZM54.6875 74.6953H54.1875V74.9972L54.4546 75.1378L54.6875 74.6953ZM54.6875 64.2656L54.9204 63.8232L54.1875 63.4374V64.2656H54.6875ZM61.7969 66.9219L61.6692 67.4053L61.6745 67.4067L61.7969 66.9219ZM75.7031 67.0391L75.8811 67.5064L75.8875 67.5038L75.7031 67.0391ZM79.4141 64.0703L78.9919 63.8024L78.9905 63.8046L79.4141 64.0703ZM64.6094 50.7109L64.522 50.2186L64.5206 50.2189L64.6094 50.7109ZM60.625 51.5703L60.3886 52.0109L60.5632 52.1046L60.7546 52.0532L60.625 51.5703ZM55.8203 48.9922L55.3217 48.9554L55.2978 49.2792L55.5839 49.4328L55.8203 48.9922ZM57.9688 19.8906V19.3906H57.5043L57.4701 19.8538L57.9688 19.8906ZM88.9453 19.8906H89.4453V19.3906H88.9453V19.8906ZM88.9453 30.125V30.625H89.4453V30.125H88.9453ZM68.5547 30.125V29.625H68.0995L68.0569 30.0782L68.5547 30.125ZM67.5 41.3359L67.0022 41.2891L66.9389 41.9619L67.6008 41.8257L67.5 41.3359ZM70.3906 40.7891L70.3044 40.2965L70.3906 40.7891ZM74.7656 40.0156C74.3792 40.0156 74.0097 40.0195 73.6574 40.0272L73.6792 41.0269C74.0236 41.0194 74.3857 41.0156 74.7656 41.0156V40.0156ZM71.4298 40.1483C71.0175 40.1882 70.6421 40.2375 70.3044 40.2965L70.4768 41.2816C70.7842 41.2278 71.1337 41.1816 71.5262 41.1436L71.4298 40.1483ZM70.3044 40.2965C70.0577 40.3397 69.8153 40.3829 69.5772 40.4261L69.7557 41.41C69.9917 41.3672 70.2321 41.3244 70.4768 41.2816L70.3044 40.2965ZM68.1245 40.7003C67.8773 40.7489 67.6355 40.7975 67.3992 40.8462L67.6008 41.8257C67.8342 41.7776 68.073 41.7296 68.3175 41.6815L68.1245 40.7003ZM67.9978 41.3828L68.2615 38.58L67.2659 38.4864L67.0022 41.2891L67.9978 41.3828ZM68.7888 32.9746L69.0525 30.1718L68.0569 30.0782L67.7932 32.8809L68.7888 32.9746ZM68.5547 30.625H70.2539V29.625H68.5547V30.625ZM73.6523 30.625H77.0508V29.625H73.6523V30.625ZM80.4492 30.625H83.8477V29.625H80.4492V30.625ZM87.2461 30.625H88.9453V29.625H87.2461V30.625ZM89.4453 30.125V27.5664H88.4453V30.125H89.4453ZM89.4453 22.4492V19.8906H88.4453V22.4492H89.4453ZM88.9453 19.3906H87.0093V20.3906H88.9453V19.3906ZM83.1372 19.3906H79.2651V20.3906H83.1372V19.3906ZM75.3931 19.3906H71.521V20.3906H75.3931V19.3906ZM67.6489 19.3906H63.7769V20.3906H67.6489V19.3906ZM59.9048 19.3906H57.9688V20.3906H59.9048V19.3906ZM57.4701 19.8538L57.3358 21.6727L58.3331 21.7463L58.4674 19.9274L57.4701 19.8538ZM57.0673 25.3104L56.7987 28.9481L57.796 29.0217L58.0646 25.384L57.0673 25.3104ZM56.5302 32.5857L56.2616 36.2234L57.2589 36.2971L57.5275 32.6594L56.5302 32.5857ZM55.9931 39.8611L55.7245 43.4988L56.7218 43.5725L56.9903 39.9348L55.9931 39.8611ZM55.4559 47.1365L55.3217 48.9554L56.319 49.029L56.4532 47.2102L55.4559 47.1365ZM55.5839 49.4328L56.7851 50.0773L57.2579 49.1961L56.0567 48.5516L55.5839 49.4328ZM59.1874 51.3664L60.3886 52.0109L60.8614 51.1297L59.6602 50.4852L59.1874 51.3664ZM60.7546 52.0532C61.0568 51.9721 61.3813 51.8908 61.728 51.8092L61.499 50.8358C61.1435 50.9194 60.8089 51.0033 60.4954 51.0874L60.7546 52.0532ZM63.7028 51.3891C64.022 51.3271 64.3538 51.2651 64.6981 51.203L64.5206 50.2189C64.1722 50.2817 63.8361 50.3446 63.5121 50.4075L63.7028 51.3891ZM64.6967 51.2032C65.079 51.1354 65.4573 51.0758 65.8317 51.0244L65.6956 50.0337C65.308 50.0869 64.9168 50.1486 64.522 50.2186L64.6967 51.2032ZM68.1142 50.8096C68.5 50.7907 68.8812 50.7812 69.2578 50.7812V49.7812C68.8645 49.7812 68.467 49.7911 68.0653 49.8107L68.1142 50.8096ZM69.2578 50.7812C70.043 50.7812 70.784 50.8121 71.4812 50.8735L71.5689 49.8774C70.8395 49.8132 70.069 49.7812 69.2578 49.7812V50.7812ZM75.7406 51.834C76.446 52.1301 77.0579 52.4863 77.5803 52.8998L78.201 52.1158C77.5992 51.6394 76.9067 51.239 76.1276 50.9119L75.7406 51.834ZM77.5803 52.8998C78.0359 53.2605 78.4299 53.6603 78.764 54.099L79.5595 53.4931C79.1727 52.9851 78.7192 52.5261 78.201 52.1158L77.5803 52.8998ZM80.0638 57.1922C80.1562 57.7298 80.2031 58.3034 80.2031 58.9141H81.2031C81.2031 58.2524 81.1523 57.6216 81.0493 57.0227L80.0638 57.1922ZM80.2031 58.9141C80.2031 59.3652 80.1823 59.7968 80.141 60.2089L81.136 60.3087C81.1809 59.8609 81.2031 59.3959 81.2031 58.9141H80.2031ZM79.5607 62.6861C79.4005 63.0857 79.2107 63.4576 78.9919 63.8024L79.8362 64.3382C80.0894 63.9393 80.3068 63.5125 80.4889 63.0584L79.5607 62.6861ZM78.9905 63.8046C78.7902 64.1238 78.5651 64.4215 78.3151 64.6981L79.0569 65.3687C79.3463 65.0485 79.6066 64.7042 79.8376 64.3361L78.9905 63.8046ZM76.5514 66.0862C76.2301 66.2657 75.886 66.4286 75.5187 66.5743L75.8875 67.5038C76.2932 67.3428 76.6772 67.1614 77.0392 66.9591L76.5514 66.0862ZM75.5251 66.5718C75.0858 66.7392 74.6156 66.884 74.1142 67.0056L74.3501 67.9774C74.8888 67.8467 75.3994 67.6898 75.8811 67.5063L75.5251 66.5718ZM71.1565 67.4314C70.6731 67.4615 70.1705 67.4766 69.6484 67.4766V68.4766C70.1897 68.4766 70.7131 68.4609 71.2187 68.4294L71.1565 67.4314ZM69.6484 67.4766C69.0118 67.4766 68.3629 67.4523 67.7015 67.4037L67.6282 68.401C68.313 68.4513 68.9865 68.4766 69.6484 68.4766V67.4766ZM63.831 66.869C63.2035 66.7443 62.5662 66.6003 61.9192 66.4371L61.6745 67.4067C62.3374 67.5739 62.9912 67.7217 63.6361 67.8498L63.831 66.869ZM61.9246 66.4385C61.3014 66.2738 60.6989 66.1013 60.117 65.9209L59.8209 66.8761C60.417 67.0609 61.0331 67.2373 61.6692 67.4053L61.9246 66.4385ZM56.6017 64.6281C56.0114 64.3708 55.451 64.1024 54.9204 63.8232L54.4546 64.7081C55.0083 64.9995 55.5909 65.2784 56.2021 65.5448L56.6017 64.6281ZM54.1875 64.2656V66.873H55.1875V64.2656H54.1875ZM54.1875 72.0879V74.6953H55.1875V72.0879H54.1875ZM54.4546 75.1378C54.997 75.4232 55.5624 75.6882 56.1506 75.9329L56.5347 75.0096C55.9731 74.776 55.435 74.5237 54.9204 74.2529L54.4546 75.1378ZM59.6933 77.0943C60.2813 77.2419 60.8866 77.3743 61.5091 77.4914L61.694 76.5086C61.0902 76.395 60.5045 76.2669 59.9368 76.1244L59.6933 77.0943ZM61.5054 77.4907C62.2036 77.6276 62.913 77.7466 63.6337 77.8479L63.7729 76.8577C63.0696 76.7588 62.3779 76.6427 61.6978 76.5093L61.5054 77.4907ZM67.9257 78.2356C68.6336 78.266 69.3511 78.2812 70.0781 78.2812V77.2812C69.365 77.2812 68.6619 77.2663 67.9687 77.2365L67.9257 78.2356ZM70.0781 78.2812C70.6316 78.2812 71.1753 78.2717 71.7094 78.2526L71.6737 77.2533C71.1519 77.2719 70.6201 77.2812 70.0781 77.2812V78.2812ZM74.9671 78.0032C76.0942 77.867 77.1709 77.6806 78.1971 77.4435L77.9719 76.4691C76.9832 76.6976 75.9417 76.8782 74.8471 77.0104L74.9671 78.0032ZM81.3491 76.4957C81.8727 76.2974 82.3797 76.0823 82.87 75.8504L82.4425 74.9464C81.977 75.1665 81.4945 75.3713 80.9948 75.5606L81.3491 76.4957ZM82.8686 75.8511C83.6946 75.4635 84.473 75.035 85.2035 74.5653L84.6626 73.7242C83.9713 74.1687 83.2319 74.576 82.4439 74.9458L82.8686 75.8511ZM89.195 71.0223C89.7568 70.3311 90.2611 69.5937 90.7078 68.8102L89.8391 68.3148C89.4191 69.0514 88.9458 69.7435 88.419 70.3915L89.195 71.0223ZM90.7071 68.8114C91.1767 67.9932 91.5835 67.135 91.9278 66.2371L90.9941 65.8791C90.6679 66.7298 90.2831 67.5412 89.8398 68.3136L90.7071 68.8114ZM93.2105 60.7201C93.3046 59.8086 93.3516 58.868 93.3516 57.8984H92.3516C92.3516 58.8358 92.3062 59.742 92.2158 60.6173L93.2105 60.7201ZM93.3516 57.8984C93.3516 57.0249 93.3105 56.181 93.228 55.367L92.2331 55.4678C92.312 56.246 92.3516 57.0561 92.3516 57.8984H93.3516ZM92.0706 50.4103C91.752 49.5988 91.3737 48.8312 90.9354 48.108L90.0802 48.6263C90.488 49.2992 90.8413 50.0155 91.1397 50.7757L92.0706 50.4103ZM90.9354 48.108C90.5359 47.4488 90.0986 46.8283 89.6234 46.2469L88.8491 46.8796C89.2938 47.4238 89.7042 48.0059 90.0802 48.6263L90.9354 48.108ZM86.2562 43.1886C85.6336 42.772 84.9751 42.3952 84.281 42.0581L83.844 42.9576C84.4983 43.2753 85.1168 43.6294 85.7 44.0197L86.2562 43.1886ZM84.2826 42.0589C83.5506 41.6999 82.7914 41.3884 82.005 41.1242L81.6865 42.0721C82.432 42.3226 83.1505 42.6175 83.8424 42.9567L84.2826 42.0589ZM77.2074 40.1278C76.4143 40.0529 75.6003 40.0156 74.7656 40.0156V41.0156C75.5706 41.0156 76.3531 41.0516 77.1134 41.1234L77.2074 40.1278ZM84.0625 42.5078L83.6222 43.4057L83.6256 43.4073L84.0625 42.5078ZM90.2734 68.5625L89.4061 68.0647L89.4047 68.0672L90.2734 68.5625ZM82.6562 75.3984L82.2315 74.4931L82.2288 74.4944L82.6562 75.3984ZM61.6016 77L61.794 76.0187L61.7864 76.0172L61.6016 77ZM54.6875 74.6953H53.6875V75.299L54.2218 75.5802L54.6875 74.6953ZM54.6875 64.2656L55.1532 63.3807L53.6875 62.6093V64.2656H54.6875ZM61.7969 66.9219L61.5415 67.8888L61.5522 67.8915L61.7969 66.9219ZM75.7031 67.0391L76.0592 67.9736L76.072 67.9686L75.7031 67.0391ZM79.4141 64.0703L78.5697 63.5345L78.567 63.5388L79.4141 64.0703ZM64.6094 50.7109L64.4347 49.7263L64.4319 49.7268L64.6094 50.7109ZM60.625 51.5703L60.1522 52.4515L60.5014 52.6388L60.8841 52.5362L60.625 51.5703ZM55.8203 48.9922L54.823 48.9186L54.7752 49.5663L55.3475 49.8733L55.8203 48.9922ZM57.9688 19.8906V18.8906H57.0399L56.9715 19.817L57.9688 19.8906ZM88.9453 19.8906H89.9453V18.8906H88.9453V19.8906ZM88.9453 30.125V31.125H89.9453V30.125H88.9453ZM68.5547 30.125V29.125H67.6443L67.5591 30.0313L68.5547 30.125ZM67.5 41.3359L66.5044 41.2423L66.3778 42.588L67.7017 42.3154L67.5 41.3359ZM70.3906 40.7891L70.2182 39.804L70.3906 40.7891ZM74.7656 39.5156C74.3759 39.5156 74.0028 39.5195 73.6464 39.5273L73.6901 41.5268C74.0306 41.5194 74.389 41.5156 74.7656 41.5156V39.5156ZM71.3816 39.6506C70.9594 39.6915 70.571 39.7423 70.2182 39.804L70.563 41.7741C70.8553 41.7229 71.1918 41.6783 71.5744 41.6413L71.3816 39.6506ZM70.2182 39.804C69.9705 39.8474 69.7271 39.8907 69.488 39.9341L69.845 41.902C70.0799 41.8594 70.3192 41.8168 70.563 41.7741L70.2182 39.804ZM68.028 40.2097C67.7794 40.2586 67.5362 40.3075 67.2983 40.3565L67.7017 42.3154C67.9335 42.2677 68.1709 42.2199 68.414 42.1721L68.028 40.2097ZM68.4956 41.4296L68.7593 38.6269L66.7681 38.4395L66.5044 41.2423L68.4956 41.4296ZM69.2866 33.0214L69.5503 30.2187L67.5591 30.0313L67.2954 32.8341L69.2866 33.0214ZM68.5547 31.125H70.2539V29.125H68.5547V31.125ZM73.6523 31.125H77.0508V29.125H73.6523V31.125ZM80.4492 31.125H83.8477V29.125H80.4492V31.125ZM87.2461 31.125H88.9453V29.125H87.2461V31.125ZM89.9453 30.125V27.5664H87.9453V30.125H89.9453ZM89.9453 22.4492V19.8906H87.9453V22.4492H89.9453ZM88.9453 18.8906H87.0093V20.8906H88.9453V18.8906ZM83.1372 18.8906H79.2651V20.8906H83.1372V18.8906ZM75.3931 18.8906H71.521V20.8906H75.3931V18.8906ZM67.6489 18.8906H63.7769V20.8906H67.6489V18.8906ZM59.9048 18.8906H57.9688V20.8906H59.9048V18.8906ZM56.9715 19.817L56.8372 21.6358L58.8318 21.7831L58.966 19.9643L56.9715 19.817ZM56.5686 25.2735L56.3001 28.9112L58.2946 29.0585L58.5632 25.4208L56.5686 25.2735ZM56.0315 32.5489L55.763 36.1866L57.7575 36.3339L58.0261 32.6962L56.0315 32.5489ZM55.4944 39.8243L55.2259 43.462L57.2204 43.6093L57.489 39.9716L55.4944 39.8243ZM54.9573 47.0997L54.823 48.9186L56.8176 49.0658L56.9519 47.247L54.9573 47.0997ZM55.3475 49.8733L56.5487 50.5179L57.4943 48.7556L56.2931 48.111L55.3475 49.8733ZM58.951 51.8069L60.1522 52.4515L61.0978 50.6892L59.8966 50.0446L58.951 51.8069ZM60.8841 52.5362C61.1808 52.4566 61.5001 52.3765 61.8425 52.296L61.3846 50.3491C61.0246 50.4338 60.6849 50.5189 60.3659 50.6045L60.8841 52.5362ZM63.7981 51.88C64.115 51.8184 64.4446 51.7568 64.7868 51.6951L64.4319 49.7268C64.0815 49.79 63.7431 49.8533 63.4168 49.9167L63.7981 51.88ZM64.7841 51.6956C65.1601 51.6288 65.532 51.5702 65.8998 51.5197L65.6276 49.5383C65.2333 49.5925 64.8357 49.6552 64.4347 49.7263L64.7841 51.6956ZM68.1386 51.309C68.5165 51.2905 68.8895 51.2812 69.2578 51.2812V49.2812C68.8562 49.2812 68.4505 49.2913 68.0409 49.3113L68.1386 51.309ZM69.2578 51.2812C70.03 51.2812 70.7563 51.3116 71.4373 51.3716L71.6128 49.3793C70.8672 49.3137 70.082 49.2812 69.2578 49.2812V51.2812ZM75.547 52.295C76.2156 52.5757 76.7872 52.9097 77.2699 53.2919L78.5113 51.7238C77.8699 51.2159 77.1371 50.7934 76.3211 50.4509L75.547 52.295ZM77.2699 53.2919C77.6942 53.6278 78.0585 53.9979 78.3662 54.4019L79.9573 53.1901C79.544 52.6475 79.0609 52.1588 78.5113 51.7238L77.2699 53.2919ZM79.571 57.2769C79.6582 57.7838 79.7031 58.329 79.7031 58.9141H81.7031C81.7031 58.2269 81.6503 57.5676 81.5421 56.9379L79.571 57.2769ZM79.7031 58.9141C79.7031 59.3499 79.683 59.7647 79.6435 60.1591L81.6335 60.3585C81.6802 59.8929 81.7031 59.4113 81.7031 58.9141H79.7031ZM79.0967 62.5C78.9473 62.8724 78.7714 63.2167 78.5697 63.5345L80.2584 64.6061C80.5287 64.1802 80.7599 63.7258 80.953 63.2445L79.0967 62.5ZM78.567 63.5388C78.382 63.8336 78.1745 64.108 77.9442 64.3628L79.4278 65.704C79.7369 65.362 80.0148 64.9944 80.2611 64.6018L78.567 63.5388ZM76.3075 65.6497C76.0065 65.8179 75.6824 65.9714 75.3343 66.1096L76.072 67.9686C76.4968 67.8 76.9008 67.6092 77.2831 67.3956L76.3075 65.6497ZM75.3471 66.1046C74.929 66.2639 74.4791 66.4026 73.9963 66.5197L74.468 68.4633C75.0254 68.3281 75.5561 68.1652 76.0591 67.9736L75.3471 66.1046ZM71.1255 66.9323C70.6531 66.9617 70.1609 66.9766 69.6484 66.9766V68.9766C70.1993 68.9766 70.7332 68.9606 71.2497 68.9285L71.1255 66.9323ZM69.6484 66.9766C69.0245 66.9766 68.3878 66.9528 67.7381 66.9051L67.5916 68.8997C68.2881 68.9509 68.9738 68.9766 69.6484 68.9766V66.9766ZM63.9285 66.3786C63.3096 66.2556 62.6806 66.1135 62.0415 65.9523L61.5522 67.8915C62.2229 68.0607 62.8851 68.2104 63.5387 68.3402L63.9285 66.3786ZM62.0523 65.955C61.4355 65.7921 60.8398 65.6215 60.265 65.4434L59.6728 67.3537C60.276 67.5407 60.899 67.719 61.5415 67.8887L62.0523 65.955ZM56.8015 64.1698C56.2216 63.917 55.6723 63.6539 55.1532 63.3807L54.2218 65.1505C54.787 65.448 55.3806 65.7322 56.0023 66.0032L56.8015 64.1698ZM53.6875 64.2656V66.873H55.6875V64.2656H53.6875ZM53.6875 72.0879V74.6953H55.6875V72.0879H53.6875ZM54.2218 75.5802C54.778 75.873 55.357 76.1444 55.9586 76.3946L56.7267 74.548C56.1784 74.3199 55.654 74.074 55.1532 73.8104L54.2218 75.5802ZM59.5716 77.5793C60.1697 77.7294 60.7848 77.8639 61.4167 77.9828L61.7864 76.0172C61.192 75.9054 60.6161 75.7794 60.0586 75.6395L59.5716 77.5793ZM61.4091 77.9813C62.1164 78.12 62.8347 78.2406 63.5641 78.3431L63.8425 76.3625C63.1479 76.2649 62.4651 76.1503 61.794 76.0187L61.4091 77.9813ZM67.9043 78.7352C68.6195 78.7659 69.3441 78.7812 70.0781 78.7812V76.7812C69.372 76.7812 68.676 76.7665 67.9902 76.737L67.9043 78.7352ZM70.0781 78.7812C70.6373 78.7812 71.187 78.7716 71.7272 78.7523L71.6558 76.7536C71.1402 76.772 70.6143 76.7812 70.0781 76.7812V78.7812ZM75.0271 78.4996C76.1704 78.3614 77.2648 78.172 78.3096 77.9306L77.8594 75.982C76.8893 76.2061 75.8654 76.3837 74.7871 76.5141L75.0271 78.4996ZM81.5262 76.9633C82.0618 76.7604 82.581 76.5402 83.0837 76.3025L82.2288 74.4944C81.7757 74.7087 81.3054 74.9083 80.8177 75.093L81.5262 76.9633ZM83.081 76.3037C83.926 75.9073 84.7239 75.4682 85.4739 74.9859L84.3921 73.3037C83.7205 73.7356 83.0006 74.1323 82.2315 74.4931L83.081 76.3037ZM89.5829 71.3377C90.1623 70.625 90.682 69.8648 91.1421 69.0578L89.4047 68.0672C88.9982 68.7803 88.5403 69.4497 88.031 70.0761L89.5829 71.3377ZM91.1408 69.0603C91.6234 68.2192 92.0413 67.3376 92.3947 66.4161L90.5272 65.7001C90.2101 66.5272 89.8363 67.3152 89.4061 68.0647L91.1408 69.0603ZM93.7078 60.7715C93.8039 59.8419 93.8516 58.8842 93.8516 57.8984H91.8516C91.8516 58.8197 91.807 59.7087 91.7184 60.5659L93.7078 60.7715ZM93.8516 57.8984C93.8516 57.0092 93.8098 56.1485 93.7255 55.3166L91.7357 55.5182C91.8127 56.2785 91.8516 57.0718 91.8516 57.8984H93.8516ZM92.536 50.2275C92.2074 49.3905 91.8166 48.5973 91.363 47.8489L89.6526 48.8855C90.0451 49.5332 90.3859 50.2238 90.6743 50.9584L92.536 50.2275ZM91.363 47.8489C90.9517 47.1702 90.501 46.5306 90.0106 45.9305L88.4619 47.196C88.8914 47.7216 89.2884 48.2845 89.6526 48.8855L91.363 47.8489ZM86.5342 42.773C85.8919 42.3433 85.2135 41.9551 84.4994 41.6083L83.6256 43.4073C84.2598 43.7154 84.8584 44.0581 85.422 44.4352L86.5342 42.773ZM84.5028 41.61C83.7507 41.2411 82.971 40.9213 82.1643 40.6502L81.5273 42.546C82.2523 42.7897 82.9505 43.0763 83.6222 43.4057L84.5028 41.61ZM77.2544 39.63C76.4449 39.5536 75.6152 39.5156 74.7656 39.5156V41.5156C75.5557 41.5156 76.3225 41.5509 77.0665 41.6212L77.2544 39.63Z" fill="#55246A" mask="url(#path-1-outside-1_633_77965)"/>
<path d="M33.0469 71H20.9766V37.9531C20.9766 37.0417 20.9896 35.9219 21.0156 34.5938C21.0417 33.2396 21.0807 31.8594 21.1328 30.4531C21.1849 29.0208 21.237 27.7318 21.2891 26.5859C21.0026 26.9245 20.4167 27.5104 19.5312 28.3438C18.6719 29.151 17.8646 29.8802 17.1094 30.5312L10.5469 35.8047L4.72656 28.5391L23.125 13.8906H33.0469V71ZM69.7656 34.5156C73.2552 34.5156 76.3542 35.1797 79.0625 36.5078C81.7969 37.8359 83.9453 39.7891 85.5078 42.3672C87.0703 44.9453 87.8516 48.1224 87.8516 51.8984C87.8516 56.013 86.9922 59.5677 85.2734 62.5625C83.5807 65.5312 81.0417 67.8099 77.6562 69.3984C74.2969 70.987 70.1042 71.7812 65.0781 71.7812C62.0833 71.7812 59.2578 71.5208 56.6016 71C53.9714 70.5052 51.6667 69.737 49.6875 68.6953V58.2656C51.6667 59.3073 54.0365 60.1927 56.7969 60.9219C59.5833 61.625 62.2005 61.9766 64.6484 61.9766C67.0443 61.9766 69.0625 61.6641 70.7031 61.0391C72.3438 60.388 73.5807 59.3984 74.4141 58.0703C75.2734 56.7161 75.7031 54.9974 75.7031 52.9141C75.7031 50.1276 74.7656 47.9922 72.8906 46.5078C71.0156 45.0234 68.138 44.2812 64.2578 44.2812C62.7734 44.2812 61.224 44.4245 59.6094 44.7109C58.0208 44.9974 56.6927 45.2839 55.625 45.5703L50.8203 42.9922L52.9688 13.8906H83.9453V24.125H63.5547L62.5 35.3359C63.3854 35.1536 64.349 34.9714 65.3906 34.7891C66.4323 34.6068 67.8906 34.5156 69.7656 34.5156Z" fill="white"/>
</svg>
