<svg width="1600" height="1600" viewBox="0 0 1600 1600" fill="none" xmlns="http://www.w3.org/2000/svg">
<path d="M1331.42 916C1331.42 1164.53 1156.94 1265.26 941.711 1141C726.48 1016.74 552 714.528 552 466C552 217.472 726.48 116.736 941.711 241C1156.94 365.264 1331.42 667.472 1331.42 916Z" stroke="#FDD400" stroke-width="8" stroke-dasharray="24 24"/>
<g filter="url(#filter0_f_2406_333)">
<ellipse cx="728.553" cy="1275.18" rx="386.073" ry="34.8113" transform="rotate(30 728.553 1275.18)" fill="#201F21" fill-opacity="0.2"/>
</g>
<g filter="url(#filter1_f_2406_333)">
<ellipse cx="772.246" cy="1203.52" rx="426.764" ry="57.5755" transform="rotate(30 772.246 1203.52)" fill="#5E48AC" fill-opacity="0.3"/>
</g>
<g filter="url(#filter2_f_2406_333)">
<ellipse cx="440.577" cy="1284.57" rx="225.484" ry="50.6059" transform="rotate(30 440.577 1284.57)" fill="#FDD400" fill-opacity="0.3"/>
</g>
<g filter="url(#filter3_ii_2406_333)">
<path fill-rule="evenodd" clip-rule="evenodd" d="M506.811 327.812C577.889 281.605 678.79 285.383 790.711 350C1005.94 474.264 1180.42 776.472 1180.42 1025C1180.42 1144.29 1140.22 1229.54 1074.61 1272.19L1117.91 1247.19C1183.52 1204.54 1223.72 1119.29 1223.72 1000C1223.72 751.472 1049.24 449.264 834.012 325C722.092 260.383 621.19 256.605 550.112 302.812L506.811 327.812Z" fill="#8D7BCC"/>
</g>
<g filter="url(#filter4_b_2406_333)">
<path d="M1180.42 1025C1180.42 1273.53 1005.94 1374.26 790.711 1250C575.48 1125.74 401 823.528 401 575C401 326.472 575.48 225.736 790.711 350C1005.94 474.264 1180.42 776.472 1180.42 1025Z" fill="url(#paint0_linear_2406_333)"/>
</g>
<mask id="mask0_2406_333" style="mask-type:alpha" maskUnits="userSpaceOnUse" x="401" y="296" width="780" height="1008">
<path d="M1180.42 1025C1180.42 1273.53 1005.94 1374.26 790.711 1250C575.48 1125.74 401 823.528 401 575C401 326.472 575.48 225.736 790.711 350C1005.94 474.264 1180.42 776.472 1180.42 1025Z" fill="url(#paint1_linear_2406_333)"/>
</mask>
<g mask="url(#mask0_2406_333)">
<g filter="url(#filter5_f_2406_333)">
<path d="M441 631L617.669 733V1125L441 1023V631Z" fill="#201F21" fill-opacity="0.2"/>
<path d="M686.951 673L863.62 775V1267L686.951 1165V673Z" fill="#201F21" fill-opacity="0.2"/>
<path d="M932.902 707L1109.57 809V1409L932.902 1307V707Z" fill="#201F21" fill-opacity="0.2"/>
</g>
</g>
<path d="M369 1055L545.669 1157L588.97 1132L412.301 1030L369 1055Z" fill="#CDCDCD" fill-opacity="0.9"/>
<path d="M369 663V1055L412.301 1030V638L369 663Z" fill="#CDCDCD" fill-opacity="0.9"/>
<path d="M614.951 1197L791.62 1299L834.922 1274L658.252 1172L614.951 1197Z" fill="#CDCDCD" fill-opacity="0.9"/>
<g filter="url(#filter6_bii_2406_333)">
<path d="M545.67 1157V765L588.971 740V1132L545.67 1157Z" fill="#FAFAFA" fill-opacity="0.8"/>
</g>
<g filter="url(#filter7_bii_2406_333)">
<path d="M545.669 765L369 663L412.301 638L588.97 740L545.669 765Z" fill="#FAFAFA" fill-opacity="0.8"/>
</g>
<path d="M614.951 705V1197L658.252 1172V680L614.951 705Z" fill="#CDCDCD" fill-opacity="0.9"/>
<g filter="url(#filter8_bii_2406_333)">
<path d="M860.902 1339L1037.57 1441L1080.87 1416L904.204 1314L860.902 1339Z" fill="#CDCDCD" fill-opacity="0.9"/>
</g>
<g filter="url(#filter9_bii_2406_333)">
<path d="M791.621 1299V807L834.922 782V1274L791.621 1299Z" fill="#FAFAFA" fill-opacity="0.8"/>
</g>
<path d="M860.902 739V1339L904.204 1314V714L860.902 739Z" fill="#CDCDCD" fill-opacity="0.9"/>
<g filter="url(#filter10_bii_2406_333)">
<path d="M791.62 807L614.951 705L658.252 680L834.922 782L791.62 807Z" fill="#FAFAFA" fill-opacity="0.8"/>
</g>
<g filter="url(#filter11_bii_2406_333)">
<path d="M1037.57 1441V841L1080.87 816V1416L1037.57 1441Z" fill="#FAFAFA" fill-opacity="0.8"/>
</g>
<g filter="url(#filter12_bii_2406_333)">
<path d="M1037.57 841L860.902 739L904.204 714L1080.87 816L1037.57 841Z" fill="#FAFAFA" fill-opacity="0.8"/>
</g>
<g filter="url(#filter13_b_2406_333)">
<path d="M369 663L545.669 765V1157L369 1055V663Z" fill="white" fill-opacity="0.5"/>
<path d="M614.951 705L791.62 807V1299L614.951 1197V705Z" fill="white" fill-opacity="0.5"/>
<path d="M860.902 739L1037.57 841V1441L860.902 1339V739Z" fill="white" fill-opacity="0.5"/>
</g>
<mask id="mask1_2406_333" style="mask-type:alpha" maskUnits="userSpaceOnUse" x="369" y="663" width="669" height="778">
<path d="M369 663L545.669 765V1157L369 1055V663Z" fill="white" fill-opacity="0.5"/>
<path d="M614.951 705L791.62 807V1299L614.951 1197V705Z" fill="white" fill-opacity="0.5"/>
<path d="M860.902 739L1037.57 841V1441L860.902 1339V739Z" fill="white" fill-opacity="0.5"/>
</mask>
<g mask="url(#mask1_2406_333)">
<g filter="url(#filter14_f_2406_333)">
<path fill-rule="evenodd" clip-rule="evenodd" d="M678.951 935.488C689.096 929.562 705.603 939.075 715.767 956.705L757.411 1028.94C767.532 1046.5 767.53 1065.46 757.407 1071.32L503.135 1218.66C492.983 1224.54 476.502 1215.02 466.353 1197.41L333.305 966.581C323.189 949.029 323.19 930.073 333.308 924.206L374.897 900.089C385.085 894.181 401.639 903.788 411.774 921.49L484.741 1048.93L678.951 935.488Z" fill="#FDD400" fill-opacity="0.3"/>
</g>
</g>
<path d="M793.926 396.307C791.242 391.892 791.527 387.533 793.769 386.239L837.069 361.239C834.828 362.533 834.544 366.892 837.228 371.307L793.926 396.307Z" fill="#E6C30C" fill-opacity="0.7"/>
<path d="M871.014 523.09L793.926 396.307L837.228 371.307L914.315 498.09C915.842 500.6 916.525 503.422 916.12 505.541L895.657 612.585C894.663 617.785 899.989 625.326 904.44 625.02L996.06 618.727L952.759 643.727L861.139 650.02C856.688 650.326 851.361 642.785 852.355 637.585L872.818 530.541C873.223 528.422 872.541 525.6 871.014 523.09Z" fill="#E6C30C" fill-opacity="0.7"/>
<path d="M952.758 643.728C954.572 643.603 956.783 644.88 958.597 647.099L1001.9 622.099C1000.08 619.88 997.873 618.603 996.059 618.728L952.758 643.728Z" fill="#E6C30C" fill-opacity="0.7"/>
<path d="M958.597 647.099L1050.22 759.186C1052.77 762.311 1055.61 763.185 1057.39 762.162L1100.69 737.163C1098.92 738.185 1096.07 737.311 1093.52 734.187L1001.9 622.099L958.597 647.099Z" fill="#E6C30C" fill-opacity="0.7"/>
<g filter="url(#filter15_bii_2406_333)">
<path d="M797.282 386.328C795.847 385.696 794.656 385.728 793.77 386.24L837.071 361.24C837.957 360.728 839.149 360.696 840.583 361.328L944.851 407.258C946.204 407.855 947.44 407.859 948.375 407.319L905.074 432.319C904.138 432.859 902.903 432.855 901.55 432.258L797.282 386.328Z" fill="#FFF27D" fill-opacity="0.7"/>
</g>
<g filter="url(#filter16_bii_2406_333)">
<path d="M1040.34 620.853C1038.82 621.6 1038.13 623.633 1038.54 626.221L1081.84 601.221C1081.47 598.83 1082.02 596.912 1083.31 596.045L1083.64 595.853C1083.53 595.909 1083.42 595.974 1083.31 596.045L1040.34 620.853Z" fill="#FFF27D" fill-opacity="0.7"/>
<path d="M1059 756.893L1038.54 626.221L1081.84 601.221L1102.3 731.893C1102.73 734.598 1102 736.403 1100.69 737.162L1057.39 762.162C1058.7 761.403 1059.43 759.598 1059 756.893Z" fill="#FFF27D" fill-opacity="0.7"/>
</g>
<path d="M1040.34 620.853C1040.34 620.853 1054.7 613.817 1071.03 605.819L1114.33 580.819L1083.65 595.853L1040.34 620.853Z" fill="#E6C30C" fill-opacity="0.7"/>
<path d="M906.274 431.024L950.251 346.375L993.553 321.375L949.575 406.024L949.573 406.025C949.273 406.602 948.865 407.036 948.374 407.319L905.073 432.319C905.564 432.035 905.973 431.601 906.272 431.024L906.274 431.024Z" fill="#E6C30C" fill-opacity="0.7"/>
<g filter="url(#filter17_bii_2406_333)">
<path d="M961.107 352.644C959.286 347.038 954.239 343.45 951.463 345.053L994.764 320.053C997.54 318.45 1002.59 322.038 1004.41 327.644L961.107 352.644Z" fill="#FFF27D" fill-opacity="0.7"/>
<path d="M961.107 352.644L1005.09 488.074L1048.39 463.074L1004.41 327.644L961.107 352.644Z" fill="#FFF27D" fill-opacity="0.7"/>
</g>
<path d="M1130.05 573.118L1114.33 580.819L1071.03 605.819L1086.75 598.116L1086.75 598.114L1117.43 583.083L1160.73 558.083L1130.05 573.116L1130.05 573.118Z" fill="#E6C30C" fill-opacity="0.7"/>
<g filter="url(#filter18_bii_2406_333)">
<path d="M1009.81 494.763C1007.75 493.288 1005.96 490.755 1005.09 488.074L1048.39 463.074C1049.26 465.755 1051.05 468.288 1053.11 469.763L1157.38 544.229C1162.44 547.847 1164.48 556.248 1160.73 558.083L1117.79 582.876C1121.04 580.69 1118.97 572.726 1114.08 569.229L1009.81 494.763Z" fill="#FFF27D" fill-opacity="0.7"/>
<path d="M1117.43 583.083C1117.56 583.021 1117.68 582.952 1117.79 582.876L1117.43 583.083Z" fill="#FFF27D" fill-opacity="0.7"/>
</g>
<g filter="url(#filter19_b_2406_333)">
<path d="M950.251 346.376C952.387 342.263 958.97 346.064 961.107 352.643L1005.08 488.074C1005.96 490.755 1007.74 493.288 1009.81 494.763L1114.08 569.229C1119.14 572.847 1121.18 581.248 1117.43 583.083L1040.34 620.853C1038.82 621.6 1038.13 623.633 1038.54 626.22L1059 756.892C1060 763.241 1054.67 764.632 1050.22 759.186L958.599 647.099C956.785 644.88 954.573 643.603 952.759 643.728L861.139 650.021C856.687 650.326 851.361 642.785 852.356 637.585L872.818 530.542C873.224 528.422 872.54 525.6 871.014 523.09L793.926 396.307C790.181 390.148 792.216 384.096 797.281 386.328L901.548 432.258C903.613 433.168 905.402 432.7 906.273 431.024L950.251 346.376Z" fill="url(#paint2_linear_2406_333)" fill-opacity="0.4"/>
</g>
<path fill-rule="evenodd" clip-rule="evenodd" d="M674.407 1085.32L420.135 1232.66L463.436 1207.66L717.708 1060.32L674.407 1085.32Z" fill="#E6C30C" fill-opacity="0.7"/>
<path fill-rule="evenodd" clip-rule="evenodd" d="M420.136 1232.66C409.983 1238.54 393.503 1229.02 383.354 1211.41L250.305 980.58C240.189 963.03 240.19 944.073 250.308 938.206L293.61 913.206C283.491 919.073 283.49 938.03 293.607 955.58L426.655 1186.41C436.804 1204.02 453.284 1213.54 463.437 1207.66L420.136 1232.66Z" fill="#E6C30C" fill-opacity="0.7"/>
<g filter="url(#filter20_bii_2406_333)">
<path fill-rule="evenodd" clip-rule="evenodd" d="M595.951 949.488C606.097 943.562 622.604 953.075 632.768 970.705L674.411 1042.94C684.533 1060.5 684.531 1079.46 674.408 1085.32L717.709 1060.32C727.832 1054.46 727.834 1035.5 717.713 1017.94L676.069 945.705C665.905 928.075 649.398 918.562 639.252 924.488L595.951 949.488Z" fill="#FFF27D" fill-opacity="0.7"/>
</g>
<g filter="url(#filter21_bii_2406_333)">
<path fill-rule="evenodd" clip-rule="evenodd" d="M291.898 914.089C302.086 908.182 318.64 917.788 328.775 935.489L401.742 1062.93L445.043 1037.93L372.076 910.489C361.941 892.788 345.387 883.182 335.2 889.089L291.898 914.089Z" fill="#FFF27D" fill-opacity="0.7"/>
</g>
<g filter="url(#filter22_b_2406_333)">
<path fill-rule="evenodd" clip-rule="evenodd" d="M595.951 949.488C606.096 943.562 622.603 953.075 632.767 970.705L674.411 1042.94C684.532 1060.5 684.53 1079.46 674.407 1085.32L420.135 1232.66C409.983 1238.54 393.502 1229.02 383.353 1211.41L250.305 980.581C240.189 963.029 240.19 944.073 250.308 938.206L291.897 914.089C302.085 908.181 318.639 917.788 328.774 935.49L401.741 1062.93L595.951 949.488Z" fill="url(#paint3_linear_2406_333)" fill-opacity="0.4"/>
</g>
<defs>
<filter id="filter0_f_2406_333" x="293.742" y="979.779" width="869.621" height="590.81" filterUnits="userSpaceOnUse" color-interpolation-filters="sRGB">
<feFlood flood-opacity="0" result="BackgroundImageFix"/>
<feBlend mode="normal" in="SourceGraphic" in2="BackgroundImageFix" result="shape"/>
<feGaussianBlur stdDeviation="50" result="effect1_foregroundBlur_2406_333"/>
</filter>
<filter id="filter1_f_2406_333" x="301.52" y="884.341" width="941.453" height="638.358" filterUnits="userSpaceOnUse" color-interpolation-filters="sRGB">
<feFlood flood-opacity="0" result="BackgroundImageFix"/>
<feBlend mode="normal" in="SourceGraphic" in2="BackgroundImageFix" result="shape"/>
<feGaussianBlur stdDeviation="50" result="effect1_foregroundBlur_2406_333"/>
</filter>
<filter id="filter2_f_2406_333" x="143.648" y="1063.57" width="593.857" height="441.986" filterUnits="userSpaceOnUse" color-interpolation-filters="sRGB">
<feFlood flood-opacity="0" result="BackgroundImageFix"/>
<feBlend mode="normal" in="SourceGraphic" in2="BackgroundImageFix" result="shape"/>
<feGaussianBlur stdDeviation="50" result="effect1_foregroundBlur_2406_333"/>
</filter>
<filter id="filter3_ii_2406_333" x="506.811" y="261.774" width="716.912" height="1020.41" filterUnits="userSpaceOnUse" color-interpolation-filters="sRGB">
<feFlood flood-opacity="0" result="BackgroundImageFix"/>
<feBlend mode="normal" in="SourceGraphic" in2="BackgroundImageFix" result="shape"/>
<feColorMatrix in="SourceAlpha" type="matrix" values="0 0 0 0 0 0 0 0 0 0 0 0 0 0 0 0 0 0 127 0" result="hardAlpha"/>
<feOffset dy="10"/>
<feGaussianBlur stdDeviation="15"/>
<feComposite in2="hardAlpha" operator="arithmetic" k2="-1" k3="1"/>
<feColorMatrix type="matrix" values="0 0 0 0 0 0 0 0 0 0 0 0 0 0 0 0 0 0 0.2 0"/>
<feBlend mode="normal" in2="shape" result="effect1_innerShadow_2406_333"/>
<feColorMatrix in="SourceAlpha" type="matrix" values="0 0 0 0 0 0 0 0 0 0 0 0 0 0 0 0 0 0 127 0" result="hardAlpha"/>
<feOffset dy="-10"/>
<feGaussianBlur stdDeviation="15"/>
<feComposite in2="hardAlpha" operator="arithmetic" k2="-1" k3="1"/>
<feColorMatrix type="matrix" values="0 0 0 0 1 0 0 0 0 1 0 0 0 0 1 0 0 0 0.1 0"/>
<feBlend mode="normal" in2="effect1_innerShadow_2406_333" result="effect2_innerShadow_2406_333"/>
</filter>
<filter id="filter4_b_2406_333" x="371" y="266.774" width="839.422" height="1066.45" filterUnits="userSpaceOnUse" color-interpolation-filters="sRGB">
<feFlood flood-opacity="0" result="BackgroundImageFix"/>
<feGaussianBlur in="BackgroundImageFix" stdDeviation="15"/>
<feComposite in2="SourceAlpha" operator="in" result="effect1_backgroundBlur_2406_333"/>
<feBlend mode="normal" in="SourceGraphic" in2="effect1_backgroundBlur_2406_333" result="shape"/>
</filter>
<filter id="filter5_f_2406_333" x="421" y="611" width="708.572" height="818" filterUnits="userSpaceOnUse" color-interpolation-filters="sRGB">
<feFlood flood-opacity="0" result="BackgroundImageFix"/>
<feBlend mode="normal" in="SourceGraphic" in2="BackgroundImageFix" result="shape"/>
<feGaussianBlur stdDeviation="10" result="effect1_foregroundBlur_2406_333"/>
</filter>
<filter id="filter6_bii_2406_333" x="525.67" y="720" width="83.3008" height="457" filterUnits="userSpaceOnUse" color-interpolation-filters="sRGB">
<feFlood flood-opacity="0" result="BackgroundImageFix"/>
<feGaussianBlur in="BackgroundImageFix" stdDeviation="10"/>
<feComposite in2="SourceAlpha" operator="in" result="effect1_backgroundBlur_2406_333"/>
<feBlend mode="normal" in="SourceGraphic" in2="effect1_backgroundBlur_2406_333" result="shape"/>
<feColorMatrix in="SourceAlpha" type="matrix" values="0 0 0 0 0 0 0 0 0 0 0 0 0 0 0 0 0 0 127 0" result="hardAlpha"/>
<feOffset dy="10"/>
<feGaussianBlur stdDeviation="10"/>
<feComposite in2="hardAlpha" operator="arithmetic" k2="-1" k3="1"/>
<feColorMatrix type="matrix" values="0 0 0 0 0 0 0 0 0 0 0 0 0 0 0 0 0 0 0.2 0"/>
<feBlend mode="normal" in2="shape" result="effect2_innerShadow_2406_333"/>
<feColorMatrix in="SourceAlpha" type="matrix" values="0 0 0 0 0 0 0 0 0 0 0 0 0 0 0 0 0 0 127 0" result="hardAlpha"/>
<feOffset dy="-10"/>
<feGaussianBlur stdDeviation="10"/>
<feComposite in2="hardAlpha" operator="arithmetic" k2="-1" k3="1"/>
<feColorMatrix type="matrix" values="0 0 0 0 1 0 0 0 0 1 0 0 0 0 1 0 0 0 0.5 0"/>
<feBlend mode="normal" in2="effect2_innerShadow_2406_333" result="effect3_innerShadow_2406_333"/>
</filter>
<filter id="filter7_bii_2406_333" x="349" y="618" width="259.971" height="167" filterUnits="userSpaceOnUse" color-interpolation-filters="sRGB">
<feFlood flood-opacity="0" result="BackgroundImageFix"/>
<feGaussianBlur in="BackgroundImageFix" stdDeviation="10"/>
<feComposite in2="SourceAlpha" operator="in" result="effect1_backgroundBlur_2406_333"/>
<feBlend mode="normal" in="SourceGraphic" in2="effect1_backgroundBlur_2406_333" result="shape"/>
<feColorMatrix in="SourceAlpha" type="matrix" values="0 0 0 0 0 0 0 0 0 0 0 0 0 0 0 0 0 0 127 0" result="hardAlpha"/>
<feOffset dy="10"/>
<feGaussianBlur stdDeviation="10"/>
<feComposite in2="hardAlpha" operator="arithmetic" k2="-1" k3="1"/>
<feColorMatrix type="matrix" values="0 0 0 0 0 0 0 0 0 0 0 0 0 0 0 0 0 0 0.2 0"/>
<feBlend mode="normal" in2="shape" result="effect2_innerShadow_2406_333"/>
<feColorMatrix in="SourceAlpha" type="matrix" values="0 0 0 0 0 0 0 0 0 0 0 0 0 0 0 0 0 0 127 0" result="hardAlpha"/>
<feOffset dy="-10"/>
<feGaussianBlur stdDeviation="10"/>
<feComposite in2="hardAlpha" operator="arithmetic" k2="-1" k3="1"/>
<feColorMatrix type="matrix" values="0 0 0 0 1 0 0 0 0 1 0 0 0 0 1 0 0 0 0.5 0"/>
<feBlend mode="normal" in2="effect2_innerShadow_2406_333" result="effect3_innerShadow_2406_333"/>
</filter>
<filter id="filter8_bii_2406_333" x="840.902" y="1294" width="259.971" height="167" filterUnits="userSpaceOnUse" color-interpolation-filters="sRGB">
<feFlood flood-opacity="0" result="BackgroundImageFix"/>
<feGaussianBlur in="BackgroundImageFix" stdDeviation="10"/>
<feComposite in2="SourceAlpha" operator="in" result="effect1_backgroundBlur_2406_333"/>
<feBlend mode="normal" in="SourceGraphic" in2="effect1_backgroundBlur_2406_333" result="shape"/>
<feColorMatrix in="SourceAlpha" type="matrix" values="0 0 0 0 0 0 0 0 0 0 0 0 0 0 0 0 0 0 127 0" result="hardAlpha"/>
<feOffset dy="10"/>
<feGaussianBlur stdDeviation="10"/>
<feComposite in2="hardAlpha" operator="arithmetic" k2="-1" k3="1"/>
<feColorMatrix type="matrix" values="0 0 0 0 0 0 0 0 0 0 0 0 0 0 0 0 0 0 0.2 0"/>
<feBlend mode="normal" in2="shape" result="effect2_innerShadow_2406_333"/>
<feColorMatrix in="SourceAlpha" type="matrix" values="0 0 0 0 0 0 0 0 0 0 0 0 0 0 0 0 0 0 127 0" result="hardAlpha"/>
<feOffset dy="-10"/>
<feGaussianBlur stdDeviation="10"/>
<feComposite in2="hardAlpha" operator="arithmetic" k2="-1" k3="1"/>
<feColorMatrix type="matrix" values="0 0 0 0 1 0 0 0 0 1 0 0 0 0 1 0 0 0 0.5 0"/>
<feBlend mode="normal" in2="effect2_innerShadow_2406_333" result="effect3_innerShadow_2406_333"/>
</filter>
<filter id="filter9_bii_2406_333" x="771.621" y="762" width="83.3008" height="557" filterUnits="userSpaceOnUse" color-interpolation-filters="sRGB">
<feFlood flood-opacity="0" result="BackgroundImageFix"/>
<feGaussianBlur in="BackgroundImageFix" stdDeviation="10"/>
<feComposite in2="SourceAlpha" operator="in" result="effect1_backgroundBlur_2406_333"/>
<feBlend mode="normal" in="SourceGraphic" in2="effect1_backgroundBlur_2406_333" result="shape"/>
<feColorMatrix in="SourceAlpha" type="matrix" values="0 0 0 0 0 0 0 0 0 0 0 0 0 0 0 0 0 0 127 0" result="hardAlpha"/>
<feOffset dy="10"/>
<feGaussianBlur stdDeviation="10"/>
<feComposite in2="hardAlpha" operator="arithmetic" k2="-1" k3="1"/>
<feColorMatrix type="matrix" values="0 0 0 0 0 0 0 0 0 0 0 0 0 0 0 0 0 0 0.2 0"/>
<feBlend mode="normal" in2="shape" result="effect2_innerShadow_2406_333"/>
<feColorMatrix in="SourceAlpha" type="matrix" values="0 0 0 0 0 0 0 0 0 0 0 0 0 0 0 0 0 0 127 0" result="hardAlpha"/>
<feOffset dy="-10"/>
<feGaussianBlur stdDeviation="10"/>
<feComposite in2="hardAlpha" operator="arithmetic" k2="-1" k3="1"/>
<feColorMatrix type="matrix" values="0 0 0 0 1 0 0 0 0 1 0 0 0 0 1 0 0 0 0.5 0"/>
<feBlend mode="normal" in2="effect2_innerShadow_2406_333" result="effect3_innerShadow_2406_333"/>
</filter>
<filter id="filter10_bii_2406_333" x="594.951" y="660" width="259.971" height="167" filterUnits="userSpaceOnUse" color-interpolation-filters="sRGB">
<feFlood flood-opacity="0" result="BackgroundImageFix"/>
<feGaussianBlur in="BackgroundImageFix" stdDeviation="10"/>
<feComposite in2="SourceAlpha" operator="in" result="effect1_backgroundBlur_2406_333"/>
<feBlend mode="normal" in="SourceGraphic" in2="effect1_backgroundBlur_2406_333" result="shape"/>
<feColorMatrix in="SourceAlpha" type="matrix" values="0 0 0 0 0 0 0 0 0 0 0 0 0 0 0 0 0 0 127 0" result="hardAlpha"/>
<feOffset dy="10"/>
<feGaussianBlur stdDeviation="10"/>
<feComposite in2="hardAlpha" operator="arithmetic" k2="-1" k3="1"/>
<feColorMatrix type="matrix" values="0 0 0 0 0 0 0 0 0 0 0 0 0 0 0 0 0 0 0.2 0"/>
<feBlend mode="normal" in2="shape" result="effect2_innerShadow_2406_333"/>
<feColorMatrix in="SourceAlpha" type="matrix" values="0 0 0 0 0 0 0 0 0 0 0 0 0 0 0 0 0 0 127 0" result="hardAlpha"/>
<feOffset dy="-10"/>
<feGaussianBlur stdDeviation="10"/>
<feComposite in2="hardAlpha" operator="arithmetic" k2="-1" k3="1"/>
<feColorMatrix type="matrix" values="0 0 0 0 1 0 0 0 0 1 0 0 0 0 1 0 0 0 0.5 0"/>
<feBlend mode="normal" in2="effect2_innerShadow_2406_333" result="effect3_innerShadow_2406_333"/>
</filter>
<filter id="filter11_bii_2406_333" x="1017.57" y="796" width="83.3008" height="665" filterUnits="userSpaceOnUse" color-interpolation-filters="sRGB">
<feFlood flood-opacity="0" result="BackgroundImageFix"/>
<feGaussianBlur in="BackgroundImageFix" stdDeviation="10"/>
<feComposite in2="SourceAlpha" operator="in" result="effect1_backgroundBlur_2406_333"/>
<feBlend mode="normal" in="SourceGraphic" in2="effect1_backgroundBlur_2406_333" result="shape"/>
<feColorMatrix in="SourceAlpha" type="matrix" values="0 0 0 0 0 0 0 0 0 0 0 0 0 0 0 0 0 0 127 0" result="hardAlpha"/>
<feOffset dy="10"/>
<feGaussianBlur stdDeviation="10"/>
<feComposite in2="hardAlpha" operator="arithmetic" k2="-1" k3="1"/>
<feColorMatrix type="matrix" values="0 0 0 0 0 0 0 0 0 0 0 0 0 0 0 0 0 0 0.2 0"/>
<feBlend mode="normal" in2="shape" result="effect2_innerShadow_2406_333"/>
<feColorMatrix in="SourceAlpha" type="matrix" values="0 0 0 0 0 0 0 0 0 0 0 0 0 0 0 0 0 0 127 0" result="hardAlpha"/>
<feOffset dy="-10"/>
<feGaussianBlur stdDeviation="10"/>
<feComposite in2="hardAlpha" operator="arithmetic" k2="-1" k3="1"/>
<feColorMatrix type="matrix" values="0 0 0 0 1 0 0 0 0 1 0 0 0 0 1 0 0 0 0.5 0"/>
<feBlend mode="normal" in2="effect2_innerShadow_2406_333" result="effect3_innerShadow_2406_333"/>
</filter>
<filter id="filter12_bii_2406_333" x="840.902" y="694" width="259.971" height="167" filterUnits="userSpaceOnUse" color-interpolation-filters="sRGB">
<feFlood flood-opacity="0" result="BackgroundImageFix"/>
<feGaussianBlur in="BackgroundImageFix" stdDeviation="10"/>
<feComposite in2="SourceAlpha" operator="in" result="effect1_backgroundBlur_2406_333"/>
<feBlend mode="normal" in="SourceGraphic" in2="effect1_backgroundBlur_2406_333" result="shape"/>
<feColorMatrix in="SourceAlpha" type="matrix" values="0 0 0 0 0 0 0 0 0 0 0 0 0 0 0 0 0 0 127 0" result="hardAlpha"/>
<feOffset dy="10"/>
<feGaussianBlur stdDeviation="10"/>
<feComposite in2="hardAlpha" operator="arithmetic" k2="-1" k3="1"/>
<feColorMatrix type="matrix" values="0 0 0 0 0 0 0 0 0 0 0 0 0 0 0 0 0 0 0.2 0"/>
<feBlend mode="normal" in2="shape" result="effect2_innerShadow_2406_333"/>
<feColorMatrix in="SourceAlpha" type="matrix" values="0 0 0 0 0 0 0 0 0 0 0 0 0 0 0 0 0 0 127 0" result="hardAlpha"/>
<feOffset dy="-10"/>
<feGaussianBlur stdDeviation="10"/>
<feComposite in2="hardAlpha" operator="arithmetic" k2="-1" k3="1"/>
<feColorMatrix type="matrix" values="0 0 0 0 1 0 0 0 0 1 0 0 0 0 1 0 0 0 0.5 0"/>
<feBlend mode="normal" in2="effect2_innerShadow_2406_333" result="effect3_innerShadow_2406_333"/>
</filter>
<filter id="filter13_b_2406_333" x="339" y="633" width="728.572" height="838" filterUnits="userSpaceOnUse" color-interpolation-filters="sRGB">
<feFlood flood-opacity="0" result="BackgroundImageFix"/>
<feGaussianBlur in="BackgroundImageFix" stdDeviation="15"/>
<feComposite in2="SourceAlpha" operator="in" result="effect1_backgroundBlur_2406_333"/>
<feBlend mode="normal" in="SourceGraphic" in2="effect1_backgroundBlur_2406_333" result="shape"/>
</filter>
<filter id="filter14_f_2406_333" x="305.719" y="878.347" width="479.281" height="362.049" filterUnits="userSpaceOnUse" color-interpolation-filters="sRGB">
<feFlood flood-opacity="0" result="BackgroundImageFix"/>
<feBlend mode="normal" in="SourceGraphic" in2="BackgroundImageFix" result="shape"/>
<feGaussianBlur stdDeviation="10" result="effect1_foregroundBlur_2406_333"/>
</filter>
<filter id="filter15_bii_2406_333" x="773.77" y="340.854" width="194.605" height="111.861" filterUnits="userSpaceOnUse" color-interpolation-filters="sRGB">
<feFlood flood-opacity="0" result="BackgroundImageFix"/>
<feGaussianBlur in="BackgroundImageFix" stdDeviation="10"/>
<feComposite in2="SourceAlpha" operator="in" result="effect1_backgroundBlur_2406_333"/>
<feBlend mode="normal" in="SourceGraphic" in2="effect1_backgroundBlur_2406_333" result="shape"/>
<feColorMatrix in="SourceAlpha" type="matrix" values="0 0 0 0 0 0 0 0 0 0 0 0 0 0 0 0 0 0 127 0" result="hardAlpha"/>
<feOffset dy="10"/>
<feGaussianBlur stdDeviation="10"/>
<feComposite in2="hardAlpha" operator="arithmetic" k2="-1" k3="1"/>
<feColorMatrix type="matrix" values="0 0 0 0 0 0 0 0 0 0 0 0 0 0 0 0 0 0 0.2 0"/>
<feBlend mode="normal" in2="shape" result="effect2_innerShadow_2406_333"/>
<feColorMatrix in="SourceAlpha" type="matrix" values="0 0 0 0 0 0 0 0 0 0 0 0 0 0 0 0 0 0 127 0" result="hardAlpha"/>
<feOffset dy="-10"/>
<feGaussianBlur stdDeviation="10"/>
<feComposite in2="hardAlpha" operator="arithmetic" k2="-1" k3="1"/>
<feColorMatrix type="matrix" values="0 0 0 0 1 0 0 0 0 1 0 0 0 0 1 0 0 0 0.5 0"/>
<feBlend mode="normal" in2="effect2_innerShadow_2406_333" result="effect3_innerShadow_2406_333"/>
</filter>
<filter id="filter16_bii_2406_333" x="1018.42" y="575.853" width="104" height="206.31" filterUnits="userSpaceOnUse" color-interpolation-filters="sRGB">
<feFlood flood-opacity="0" result="BackgroundImageFix"/>
<feGaussianBlur in="BackgroundImageFix" stdDeviation="10"/>
<feComposite in2="SourceAlpha" operator="in" result="effect1_backgroundBlur_2406_333"/>
<feBlend mode="normal" in="SourceGraphic" in2="effect1_backgroundBlur_2406_333" result="shape"/>
<feColorMatrix in="SourceAlpha" type="matrix" values="0 0 0 0 0 0 0 0 0 0 0 0 0 0 0 0 0 0 127 0" result="hardAlpha"/>
<feOffset dy="10"/>
<feGaussianBlur stdDeviation="10"/>
<feComposite in2="hardAlpha" operator="arithmetic" k2="-1" k3="1"/>
<feColorMatrix type="matrix" values="0 0 0 0 0 0 0 0 0 0 0 0 0 0 0 0 0 0 0.2 0"/>
<feBlend mode="normal" in2="shape" result="effect2_innerShadow_2406_333"/>
<feColorMatrix in="SourceAlpha" type="matrix" values="0 0 0 0 0 0 0 0 0 0 0 0 0 0 0 0 0 0 127 0" result="hardAlpha"/>
<feOffset dy="-10"/>
<feGaussianBlur stdDeviation="10"/>
<feComposite in2="hardAlpha" operator="arithmetic" k2="-1" k3="1"/>
<feColorMatrix type="matrix" values="0 0 0 0 1 0 0 0 0 1 0 0 0 0 1 0 0 0 0.5 0"/>
<feBlend mode="normal" in2="effect2_innerShadow_2406_333" result="effect3_innerShadow_2406_333"/>
</filter>
<filter id="filter17_bii_2406_333" x="931.463" y="299.669" width="136.924" height="208.405" filterUnits="userSpaceOnUse" color-interpolation-filters="sRGB">
<feFlood flood-opacity="0" result="BackgroundImageFix"/>
<feGaussianBlur in="BackgroundImageFix" stdDeviation="10"/>
<feComposite in2="SourceAlpha" operator="in" result="effect1_backgroundBlur_2406_333"/>
<feBlend mode="normal" in="SourceGraphic" in2="effect1_backgroundBlur_2406_333" result="shape"/>
<feColorMatrix in="SourceAlpha" type="matrix" values="0 0 0 0 0 0 0 0 0 0 0 0 0 0 0 0 0 0 127 0" result="hardAlpha"/>
<feOffset dy="10"/>
<feGaussianBlur stdDeviation="10"/>
<feComposite in2="hardAlpha" operator="arithmetic" k2="-1" k3="1"/>
<feColorMatrix type="matrix" values="0 0 0 0 0 0 0 0 0 0 0 0 0 0 0 0 0 0 0.2 0"/>
<feBlend mode="normal" in2="shape" result="effect2_innerShadow_2406_333"/>
<feColorMatrix in="SourceAlpha" type="matrix" values="0 0 0 0 0 0 0 0 0 0 0 0 0 0 0 0 0 0 127 0" result="hardAlpha"/>
<feOffset dy="-10"/>
<feGaussianBlur stdDeviation="10"/>
<feComposite in2="hardAlpha" operator="arithmetic" k2="-1" k3="1"/>
<feColorMatrix type="matrix" values="0 0 0 0 1 0 0 0 0 1 0 0 0 0 1 0 0 0 0.5 0"/>
<feBlend mode="normal" in2="effect2_innerShadow_2406_333" result="effect3_innerShadow_2406_333"/>
</filter>
<filter id="filter18_bii_2406_333" x="985.086" y="443.074" width="197.574" height="160.009" filterUnits="userSpaceOnUse" color-interpolation-filters="sRGB">
<feFlood flood-opacity="0" result="BackgroundImageFix"/>
<feGaussianBlur in="BackgroundImageFix" stdDeviation="10"/>
<feComposite in2="SourceAlpha" operator="in" result="effect1_backgroundBlur_2406_333"/>
<feBlend mode="normal" in="SourceGraphic" in2="effect1_backgroundBlur_2406_333" result="shape"/>
<feColorMatrix in="SourceAlpha" type="matrix" values="0 0 0 0 0 0 0 0 0 0 0 0 0 0 0 0 0 0 127 0" result="hardAlpha"/>
<feOffset dy="10"/>
<feGaussianBlur stdDeviation="10"/>
<feComposite in2="hardAlpha" operator="arithmetic" k2="-1" k3="1"/>
<feColorMatrix type="matrix" values="0 0 0 0 0 0 0 0 0 0 0 0 0 0 0 0 0 0 0.2 0"/>
<feBlend mode="normal" in2="shape" result="effect2_innerShadow_2406_333"/>
<feColorMatrix in="SourceAlpha" type="matrix" values="0 0 0 0 0 0 0 0 0 0 0 0 0 0 0 0 0 0 127 0" result="hardAlpha"/>
<feOffset dy="-10"/>
<feGaussianBlur stdDeviation="10"/>
<feComposite in2="hardAlpha" operator="arithmetic" k2="-1" k3="1"/>
<feColorMatrix type="matrix" values="0 0 0 0 1 0 0 0 0 1 0 0 0 0 1 0 0 0 0.5 0"/>
<feBlend mode="normal" in2="effect2_innerShadow_2406_333" result="effect3_innerShadow_2406_333"/>
</filter>
<filter id="filter19_b_2406_333" x="762" y="314.669" width="387.357" height="477.9" filterUnits="userSpaceOnUse" color-interpolation-filters="sRGB">
<feFlood flood-opacity="0" result="BackgroundImageFix"/>
<feGaussianBlur in="BackgroundImageFix" stdDeviation="15"/>
<feComposite in2="SourceAlpha" operator="in" result="effect1_backgroundBlur_2406_333"/>
<feBlend mode="normal" in="SourceGraphic" in2="effect1_backgroundBlur_2406_333" result="shape"/>
</filter>
<filter id="filter20_bii_2406_333" x="575.951" y="902.727" width="169.352" height="202.596" filterUnits="userSpaceOnUse" color-interpolation-filters="sRGB">
<feFlood flood-opacity="0" result="BackgroundImageFix"/>
<feGaussianBlur in="BackgroundImageFix" stdDeviation="10"/>
<feComposite in2="SourceAlpha" operator="in" result="effect1_backgroundBlur_2406_333"/>
<feBlend mode="normal" in="SourceGraphic" in2="effect1_backgroundBlur_2406_333" result="shape"/>
<feColorMatrix in="SourceAlpha" type="matrix" values="0 0 0 0 0 0 0 0 0 0 0 0 0 0 0 0 0 0 127 0" result="hardAlpha"/>
<feOffset dy="10"/>
<feGaussianBlur stdDeviation="10"/>
<feComposite in2="hardAlpha" operator="arithmetic" k2="-1" k3="1"/>
<feColorMatrix type="matrix" values="0 0 0 0 0 0 0 0 0 0 0 0 0 0 0 0 0 0 0.2 0"/>
<feBlend mode="normal" in2="shape" result="effect2_innerShadow_2406_333"/>
<feColorMatrix in="SourceAlpha" type="matrix" values="0 0 0 0 0 0 0 0 0 0 0 0 0 0 0 0 0 0 127 0" result="hardAlpha"/>
<feOffset dy="-10"/>
<feGaussianBlur stdDeviation="10"/>
<feComposite in2="hardAlpha" operator="arithmetic" k2="-1" k3="1"/>
<feColorMatrix type="matrix" values="0 0 0 0 1 0 0 0 0 1 0 0 0 0 1 0 0 0 0.5 0"/>
<feBlend mode="normal" in2="effect2_innerShadow_2406_333" result="effect3_innerShadow_2406_333"/>
</filter>
<filter id="filter21_bii_2406_333" x="271.898" y="867.347" width="193.145" height="215.585" filterUnits="userSpaceOnUse" color-interpolation-filters="sRGB">
<feFlood flood-opacity="0" result="BackgroundImageFix"/>
<feGaussianBlur in="BackgroundImageFix" stdDeviation="10"/>
<feComposite in2="SourceAlpha" operator="in" result="effect1_backgroundBlur_2406_333"/>
<feBlend mode="normal" in="SourceGraphic" in2="effect1_backgroundBlur_2406_333" result="shape"/>
<feColorMatrix in="SourceAlpha" type="matrix" values="0 0 0 0 0 0 0 0 0 0 0 0 0 0 0 0 0 0 127 0" result="hardAlpha"/>
<feOffset dy="10"/>
<feGaussianBlur stdDeviation="10"/>
<feComposite in2="hardAlpha" operator="arithmetic" k2="-1" k3="1"/>
<feColorMatrix type="matrix" values="0 0 0 0 0 0 0 0 0 0 0 0 0 0 0 0 0 0 0.2 0"/>
<feBlend mode="normal" in2="shape" result="effect2_innerShadow_2406_333"/>
<feColorMatrix in="SourceAlpha" type="matrix" values="0 0 0 0 0 0 0 0 0 0 0 0 0 0 0 0 0 0 127 0" result="hardAlpha"/>
<feOffset dy="-10"/>
<feGaussianBlur stdDeviation="10"/>
<feComposite in2="hardAlpha" operator="arithmetic" k2="-1" k3="1"/>
<feColorMatrix type="matrix" values="0 0 0 0 1 0 0 0 0 1 0 0 0 0 1 0 0 0 0.5 0"/>
<feBlend mode="normal" in2="effect2_innerShadow_2406_333" result="effect3_innerShadow_2406_333"/>
</filter>
<filter id="filter22_b_2406_333" x="212.719" y="882.347" width="499.281" height="382.049" filterUnits="userSpaceOnUse" color-interpolation-filters="sRGB">
<feFlood flood-opacity="0" result="BackgroundImageFix"/>
<feGaussianBlur in="BackgroundImageFix" stdDeviation="15"/>
<feComposite in2="SourceAlpha" operator="in" result="effect1_backgroundBlur_2406_333"/>
<feBlend mode="normal" in="SourceGraphic" in2="effect1_backgroundBlur_2406_333" result="shape"/>
</filter>
<linearGradient id="paint0_linear_2406_333" x1="790.711" y1="350" x2="401" y2="1025" gradientUnits="userSpaceOnUse">
<stop stop-color="#6655A2"/>
<stop offset="1" stop-color="#4D3C86"/>
</linearGradient>
<linearGradient id="paint1_linear_2406_333" x1="790.711" y1="350" x2="401" y2="1025" gradientUnits="userSpaceOnUse">
<stop stop-color="#6655A2"/>
<stop offset="1" stop-color="#4D3C86"/>
</linearGradient>
<linearGradient id="paint2_linear_2406_333" x1="955.679" y1="345.5" x2="799.794" y2="615.5" gradientUnits="userSpaceOnUse">
<stop stop-color="#FFD709"/>
<stop offset="1" stop-color="#E8C40A"/>
</linearGradient>
<linearGradient id="paint3_linear_2406_333" x1="462.363" y1="851" x2="277.33" y2="1171.49" gradientUnits="userSpaceOnUse">
<stop stop-color="#FFD709"/>
<stop offset="1" stop-color="#E8C40A"/>
</linearGradient>
</defs>
</svg>
