<svg width="1600" height="1600" viewBox="0 0 1600 1600" fill="none" xmlns="http://www.w3.org/2000/svg">
<g clip-path="url(#clip0_2332_6209)">
<path d="M1307.42 892C1307.42 1140.53 1132.94 1241.26 917.711 1117C702.48 992.736 528 690.528 528 442C528 193.472 702.48 92.7359 917.711 217C1132.94 341.264 1307.42 643.472 1307.42 892Z" stroke="#76B82A" stroke-width="8" stroke-dasharray="24 24"/>
<g filter="url(#filter0_f_2332_6209)">
<ellipse cx="732.671" cy="1240.94" rx="447.041" ry="48.9482" transform="rotate(30 732.671 1240.94)" fill="#944AB8" fill-opacity="0.3"/>
</g>
<g filter="url(#filter1_f_2332_6209)">
<ellipse cx="446.898" cy="1363.38" rx="243.836" ry="44.7434" transform="rotate(30 446.898 1363.38)" fill="#944AB8" fill-opacity="0.3"/>
</g>
<g filter="url(#filter2_f_2332_6209)">
<ellipse cx="991.155" cy="1427.7" rx="199.828" ry="42.1997" transform="rotate(30 991.155 1427.7)" fill="#71C016" fill-opacity="0.3"/>
</g>
<g filter="url(#filter3_f_2332_6209)">
<ellipse cx="651.665" cy="1287.62" rx="408.041" ry="47.1923" transform="rotate(30 651.665 1287.62)" fill="#201F21" fill-opacity="0.2"/>
</g>
<path fill-rule="evenodd" clip-rule="evenodd" d="M1062.61 1256.19C991.533 1302.39 890.632 1298.62 778.711 1234C563.48 1109.74 389 807.527 389 558.999C389 439.706 429.2 354.464 494.811 311.812L538.112 286.812C472.501 329.464 432.301 414.706 432.301 533.999C432.301 782.527 606.781 1084.74 822.013 1209C933.933 1273.62 1034.83 1277.39 1105.91 1231.19L1062.61 1256.19Z" fill="#6580E1"/>
<g filter="url(#filter4_ii_2332_6209)">
<path fill-rule="evenodd" clip-rule="evenodd" d="M494.811 311.812C565.889 265.605 666.79 269.383 778.711 334C993.942 458.264 1168.42 760.472 1168.42 1009C1168.42 1128.29 1128.22 1213.54 1062.61 1256.19L1105.91 1231.19C1171.52 1188.54 1211.72 1103.29 1211.72 984C1211.72 735.472 1037.24 433.264 822.012 309C710.092 244.383 609.19 240.605 538.112 286.812L494.811 311.812Z" fill="#955FAE"/>
</g>
<g filter="url(#filter5_b_2332_6209)">
<path d="M1168.42 1009C1168.42 1257.53 993.943 1358.26 778.711 1234C563.48 1109.74 389 807.528 389 559C389 310.472 563.48 209.736 778.711 334C993.943 458.264 1168.42 760.472 1168.42 1009Z" fill="url(#paint0_linear_2332_6209)"/>
</g>
<mask id="mask0_2332_6209" style="mask-type:alpha" maskUnits="userSpaceOnUse" x="433" y="256" width="780" height="1008">
<path d="M1212.42 985C1212.42 1233.53 1037.94 1334.26 822.711 1210C607.48 1085.74 433 783.528 433 535C433 286.472 607.48 185.736 822.711 310C1037.94 434.264 1212.42 736.472 1212.42 985Z" fill="url(#paint1_linear_2332_6209)"/>
</mask>
<g mask="url(#mask0_2332_6209)">
<g filter="url(#filter6_f_2332_6209)">
<path fill-rule="evenodd" clip-rule="evenodd" d="M1137.16 856.75C1238.32 915.154 1320.33 867.808 1320.33 751C1320.33 634.192 1238.32 492.154 1137.16 433.75C1036.01 375.346 954 422.692 954 539.5C954 656.308 1036.01 798.346 1137.16 856.75ZM1146.6 498.554C1142.85 487.914 1132.34 481.847 1128.59 488.153L1093.33 547.4C1091.86 549.869 1089.1 550.585 1085.91 549.327L1009.3 519.133C1001.14 515.92 997.897 525.559 1003.73 535.658L1058.55 630.543C1060.83 634.497 1061.89 638.839 1061.38 642.227L1049.3 723.53C1048.01 732.183 1056.51 744.207 1063.87 744.143L1133.01 743.538C1135.89 743.513 1139.3 745.481 1142.18 748.833L1211.32 829.274C1218.68 837.836 1227.18 835.628 1225.9 825.489L1213.81 730.231C1213.31 726.261 1214.36 723.135 1216.64 721.819L1271.46 690.231C1277.29 686.869 1274.05 673.481 1265.89 667.279L1189.28 609.011C1186.09 606.582 1183.33 602.683 1181.86 598.517L1146.6 498.554Z" fill="#71C016" fill-opacity="0.3"/>
</g>
</g>
<mask id="mask1_2332_6209" style="mask-type:alpha" maskUnits="userSpaceOnUse" x="389" y="280" width="780" height="1008">
<path d="M1168.42 1009C1168.42 1257.53 993.943 1358.26 778.711 1234C563.48 1109.74 389 807.528 389 559C389 310.472 563.48 209.736 778.711 334C993.943 458.264 1168.42 760.472 1168.42 1009Z" fill="url(#paint2_linear_2332_6209)"/>
</mask>
<g mask="url(#mask1_2332_6209)">
<g filter="url(#filter7_f_2332_6209)">
<path fill-rule="evenodd" clip-rule="evenodd" d="M900.533 745.841L946.963 621.548C949.274 615.361 945.024 604.724 938.178 599.756C912.872 581.392 871.091 553.936 840.902 564.998C811.027 575.946 806.96 605.391 802.959 634.364C802.661 636.519 802.364 638.67 802.056 640.811C801.101 647.467 794.9 648.348 788.828 642.883C787.241 641.455 785.677 640.046 784.133 638.656C730.223 590.103 682.091 551.722 618.6 530.023C485.007 484.366 383.034 579.827 374.009 676.915C366.393 758.842 403.765 866.743 423.214 922.899C426.814 933.29 429.799 941.91 431.772 948.265C441.09 978.277 453.169 1063.81 459.243 1112.16C460.072 1118.76 464.62 1125.9 469.981 1128.99L568.959 1186.14C574.941 1189.59 579.79 1186.78 579.79 1179.86V1116.64C579.79 1107.86 587.338 1106.32 594.387 1113.65C614.225 1134.29 641.921 1161.45 684.486 1186.03C711.78 1201.79 751.5 1218.68 774.2 1226.84C781.296 1229.39 788.279 1239.69 788.279 1248.04V1300.23C788.279 1307.15 793.128 1315.56 799.109 1319.01L898.6 1376.46C904.129 1379.65 908.758 1377.52 909.521 1371.63C913.795 1338.59 924.994 1283.27 944.42 1263.03C965.005 1241.58 1060.04 1256.71 1111.77 1268.38C1116.38 1269.42 1119.51 1266.35 1119.51 1260.79V1125.73C1119.51 1119.86 1116.03 1112.59 1111.24 1107.86C1101.26 1097.99 1085.39 1081.47 1074.39 1068.75C1040.99 1030.16 1016.69 975.879 1002.18 937.292C980.903 880.707 944.086 816.791 904.801 763.124C900.652 757.457 898.851 750.343 900.533 745.841ZM918.698 1002.87C898.012 990.93 881.242 961.853 881.242 937.928C881.242 914.003 898.012 904.29 918.698 916.233C939.384 928.176 956.154 957.253 956.154 981.178C956.154 1005.1 939.384 1014.82 918.698 1002.87ZM549.127 642.449C572.976 635.752 600.512 635.919 631.011 644.076C664.731 653.094 698.637 670.96 730.98 695.429C743.128 704.62 754.502 701.562 756.385 688.598C758.267 675.634 749.945 657.674 737.796 648.483C699.455 619.476 659.299 598.336 619.489 587.689C583.488 578.061 550.876 577.844 522.6 585.784C512.727 588.556 510.662 603.489 517.987 619.136C525.313 634.784 539.254 645.222 549.127 642.449Z" fill="#201F21" fill-opacity="0.2"/>
</g>
</g>
<path fill-rule="evenodd" clip-rule="evenodd" d="M738.215 543.972C714.377 556.655 710.64 583.709 706.959 610.365C706.661 612.52 706.364 614.671 706.057 616.812C705.713 619.208 704.689 620.856 703.236 621.728L746.538 596.728C747.991 595.856 749.014 594.208 749.358 591.812C749.666 589.671 749.963 587.52 750.26 585.365C753.942 558.709 757.678 531.655 781.516 518.972L738.215 543.972Z" fill="#CDCDCD" fill-opacity="0.9"/>
<path fill-rule="evenodd" clip-rule="evenodd" d="M369.847 515.836C317.266 544.688 283.063 598.547 278.009 652.916C270.393 734.842 307.765 842.744 327.214 898.899C330.814 909.291 333.799 917.911 335.772 924.266C345.09 954.279 357.169 1039.81 363.243 1088.16C364.072 1094.76 368.619 1101.9 373.981 1104.99L472.96 1162.14C475.831 1163.8 478.441 1164.01 480.379 1163.02L523.68 1138.02C521.742 1139.01 519.132 1138.8 516.261 1137.14L417.282 1079.99C411.921 1076.9 407.373 1069.76 406.544 1063.16C400.47 1014.81 388.391 929.279 379.073 899.266C377.1 892.911 374.115 884.291 370.516 873.899C351.066 817.744 313.694 709.842 321.31 627.916C326.365 573.547 360.567 519.688 413.148 490.836L369.847 515.836Z" fill="#CDCDCD" fill-opacity="0.9"/>
<path fill-rule="evenodd" clip-rule="evenodd" d="M486.35 1086.05C489.16 1083.9 493.875 1084.96 498.387 1089.66C518.225 1110.29 545.921 1137.46 588.486 1162.03C615.78 1177.79 655.5 1194.68 678.2 1202.84C685.296 1205.39 692.278 1215.69 692.278 1224.04V1276.24C692.278 1283.15 697.128 1291.56 703.11 1295.02L802.601 1352.46C805.475 1354.12 808.107 1354.34 810.078 1353.34L853.38 1328.34C851.408 1329.34 848.777 1329.12 845.902 1327.46L746.411 1270.02C740.429 1266.56 735.58 1258.15 735.58 1251.24V1199.04C735.58 1190.69 728.597 1180.39 721.502 1177.84C698.801 1169.68 659.081 1152.79 631.787 1137.03C589.222 1112.46 561.527 1085.29 541.688 1064.66C537.177 1059.96 532.461 1058.9 529.651 1061.05L486.35 1086.05Z" fill="#CDCDCD" fill-opacity="0.9"/>
<path fill-rule="evenodd" clip-rule="evenodd" d="M851.238 1236.63C876.537 1218.79 966.106 1233.18 1015.77 1244.38C1017.43 1244.75 1018.9 1244.59 1020.1 1243.98L1063.4 1218.98C1062.2 1219.59 1060.73 1219.75 1059.07 1219.38C1009.41 1208.18 919.838 1193.79 894.54 1211.63L851.238 1236.63Z" fill="#CDCDCD" fill-opacity="0.9"/>
<path fill-rule="evenodd" clip-rule="evenodd" d="M795.412 890.123C802.244 885.668 811.941 886.023 822.698 892.233C843.384 904.176 860.154 933.253 860.154 957.178C860.154 968.662 856.29 976.872 849.984 980.984L893.285 955.984C899.591 951.872 903.455 943.662 903.455 932.178C903.455 908.253 886.685 879.176 865.999 867.233C855.243 861.023 845.545 860.668 838.713 865.123L795.412 890.123Z" fill="#CDCDCD" fill-opacity="0.9"/>
<path fill-rule="evenodd" clip-rule="evenodd" d="M654.127 675.25C657.36 673.384 659.631 669.783 660.384 664.597C662.267 651.634 653.944 633.674 641.796 624.483C603.455 595.476 563.299 574.337 523.489 563.69C487.487 554.061 454.875 553.845 426.6 561.785C425.81 562.006 425.07 562.306 424.381 562.678L467.682 537.678C468.371 537.306 469.111 537.006 469.901 536.785C498.177 528.845 530.788 529.061 566.79 538.69C606.6 549.337 646.756 570.476 685.097 599.483C697.245 608.674 705.568 626.634 703.685 639.597C702.933 644.783 700.661 648.384 697.429 650.25L654.127 675.25Z" fill="#CDCDCD" fill-opacity="0.9"/>
<g filter="url(#filter8_bii_2332_6209)">
<path fill-rule="evenodd" clip-rule="evenodd" d="M703.235 621.728C700.652 623.279 696.713 622.381 692.826 618.883C691.24 617.455 689.676 616.046 688.133 614.656C634.223 566.103 586.091 527.722 522.599 506.023C463.818 485.935 411.159 493.166 369.846 515.835L413.147 490.835C454.46 468.166 507.119 460.935 565.9 481.023C629.392 502.722 677.524 541.103 731.434 589.656C732.977 591.046 734.541 592.455 736.128 593.883C740.014 597.381 743.953 598.279 746.536 596.728L703.235 621.728Z" fill="#FAFAFA" fill-opacity="0.8"/>
</g>
<g filter="url(#filter9_bii_2332_6209)">
<path fill-rule="evenodd" clip-rule="evenodd" d="M480.379 1163.02C482.479 1161.95 483.79 1159.46 483.79 1155.87V1092.64C483.79 1089.48 484.768 1087.26 486.349 1086.05L529.65 1061.05C528.07 1062.26 527.091 1064.48 527.091 1067.64V1130.87C527.091 1134.46 525.78 1136.95 523.68 1138.02L480.379 1163.02Z" fill="#FAFAFA" fill-opacity="0.8"/>
</g>
<g filter="url(#filter10_bii_2332_6209)">
<path fill-rule="evenodd" clip-rule="evenodd" d="M810.078 1353.34C811.898 1352.42 813.155 1350.46 813.521 1347.63C817.796 1314.59 828.994 1259.27 848.419 1239.03C849.243 1238.17 850.185 1237.37 851.239 1236.63L894.54 1211.63C893.486 1212.37 892.544 1213.17 891.72 1214.03C872.295 1234.27 861.097 1289.59 856.822 1322.63C856.456 1325.46 855.199 1327.42 853.379 1328.34L810.078 1353.34Z" fill="#FAFAFA" fill-opacity="0.8"/>
</g>
<g filter="url(#filter11_bii_2332_6209)">
<path fill-rule="evenodd" clip-rule="evenodd" d="M1020.1 1243.98C1022.23 1242.89 1023.51 1240.35 1023.51 1236.79V1101.73C1023.51 1095.86 1020.03 1088.59 1015.24 1083.86C1005.26 1073.99 989.395 1057.47 978.386 1044.75C944.993 1006.16 920.694 951.88 906.183 913.293C884.903 856.707 848.086 792.791 808.801 739.125C804.652 733.458 802.852 726.344 804.534 721.842L850.963 597.549C853.274 591.361 849.024 580.725 842.178 575.757C816.872 557.393 775.091 529.936 744.903 540.999C742.513 541.875 740.288 542.869 738.215 543.972L781.516 518.972C783.589 517.869 785.814 516.875 788.204 515.999C818.393 504.936 860.173 532.393 885.479 550.757C892.325 555.725 896.576 566.361 894.264 572.549L847.835 696.842C846.153 701.344 847.954 708.458 852.103 714.125C891.387 767.791 928.205 831.707 949.485 888.293C963.995 926.88 988.294 981.16 1021.69 1019.75C1032.7 1032.47 1048.56 1048.99 1058.55 1058.86C1063.33 1063.59 1066.82 1070.86 1066.82 1076.73V1211.79C1066.82 1215.35 1065.53 1217.89 1063.4 1218.98L1020.1 1243.98Z" fill="#FAFAFA" fill-opacity="0.8"/>
</g>
<g filter="url(#filter12_bii_2332_6209)">
<path fill-rule="evenodd" clip-rule="evenodd" d="M849.984 980.984C843.152 985.439 833.454 985.085 822.698 978.874C802.012 966.931 785.242 937.853 785.242 913.928C785.242 902.444 789.106 894.235 795.412 890.123L838.713 865.123C832.407 869.235 828.543 877.444 828.543 888.928C828.543 912.853 845.313 941.931 865.999 953.874C876.756 960.085 886.453 960.439 893.285 955.984L849.984 980.984Z" fill="#FAFAFA" fill-opacity="0.8"/>
</g>
<g filter="url(#filter13_bii_2332_6209)">
<path fill-rule="evenodd" clip-rule="evenodd" d="M424.382 562.678C416.457 566.951 415.249 580.741 421.988 595.137C429.314 610.784 443.255 621.222 453.128 618.449C476.976 611.752 504.512 611.919 535.012 620.076C568.731 629.095 602.637 646.961 634.98 671.429C642.269 676.943 649.28 678.048 654.128 675.25L697.429 650.25C692.581 653.048 685.57 651.943 678.281 646.429C645.939 621.961 612.032 604.095 578.313 595.076C547.814 586.919 520.278 586.752 496.429 593.449C486.556 596.222 472.615 585.784 465.289 570.137C458.55 555.741 459.759 541.951 467.683 537.678L424.382 562.678Z" fill="#FAFAFA" fill-opacity="0.8"/>
</g>
<g filter="url(#filter14_b_2332_6209)">
<path fill-rule="evenodd" clip-rule="evenodd" d="M804.533 721.841L850.963 597.548C853.274 591.361 849.024 580.724 842.178 575.756C816.872 557.392 775.091 529.936 744.902 540.998C715.027 551.946 710.96 581.391 706.959 610.364C706.661 612.519 706.364 614.67 706.056 616.811C705.101 623.467 698.9 624.348 692.828 618.883C691.241 617.455 689.677 616.046 688.133 614.656C634.223 566.103 586.091 527.722 522.6 506.023C389.007 460.366 287.034 555.827 278.009 652.915C270.393 734.842 307.765 842.743 327.214 898.899C330.814 909.29 333.799 917.91 335.772 924.265C345.09 954.277 357.169 1039.81 363.243 1088.16C364.072 1094.76 368.62 1101.9 373.981 1104.99L472.959 1162.14C478.941 1165.59 483.79 1162.78 483.79 1155.86V1092.64C483.79 1083.86 491.338 1082.32 498.387 1089.65C518.225 1110.29 545.921 1137.45 588.486 1162.03C615.78 1177.79 655.5 1194.68 678.2 1202.84C685.296 1205.39 692.279 1215.69 692.279 1224.04V1276.23C692.279 1283.15 697.128 1291.56 703.109 1295.01L802.6 1352.46C808.129 1355.65 812.758 1353.52 813.521 1347.63C817.795 1314.59 828.994 1259.27 848.42 1239.03C869.005 1217.58 964.038 1232.71 1015.77 1244.38C1020.38 1245.42 1023.51 1242.35 1023.51 1236.79V1101.73C1023.51 1095.86 1020.03 1088.59 1015.24 1083.86C1005.26 1073.99 989.395 1057.47 978.386 1044.75C944.992 1006.16 920.694 951.879 906.183 913.292C884.903 856.707 848.086 792.791 808.801 739.124C804.652 733.457 802.851 726.343 804.533 721.841ZM822.698 978.874C802.012 966.93 785.242 937.853 785.242 913.928C785.242 890.003 802.012 880.29 822.698 892.233C843.384 904.176 860.154 933.253 860.154 957.178C860.154 981.103 843.384 990.817 822.698 978.874ZM453.127 618.449C476.976 611.752 504.512 611.919 535.011 620.076C568.731 629.094 602.637 646.96 634.98 671.429C647.128 680.62 658.502 677.562 660.385 664.598C662.267 651.634 653.945 633.674 641.796 624.483C603.455 595.476 563.299 574.336 523.489 563.689C487.488 554.061 454.876 553.844 426.6 561.784C416.727 564.556 414.662 579.489 421.987 595.136C429.313 610.784 443.254 621.222 453.127 618.449Z" fill="white" fill-opacity="0.5"/>
</g>
<mask id="mask2_2332_6209" style="mask-type:alpha" maskUnits="userSpaceOnUse" x="277" y="494" width="747" height="860">
<path fill-rule="evenodd" clip-rule="evenodd" d="M804.533 721.841L850.963 597.548C853.274 591.361 849.024 580.724 842.178 575.756C816.872 557.392 775.091 529.936 744.902 540.998C715.027 551.946 710.96 581.391 706.959 610.364C706.661 612.519 706.364 614.67 706.056 616.811C705.101 623.467 698.9 624.348 692.828 618.883C691.241 617.455 689.677 616.046 688.133 614.656C634.223 566.103 586.091 527.722 522.6 506.023C389.007 460.366 287.034 555.827 278.009 652.915C270.393 734.842 307.765 842.743 327.214 898.899C330.814 909.29 333.799 917.91 335.772 924.265C345.09 954.277 357.169 1039.81 363.243 1088.16C364.072 1094.76 368.62 1101.9 373.981 1104.99L472.959 1162.14C478.941 1165.59 483.79 1162.78 483.79 1155.86V1092.64C483.79 1083.86 491.338 1082.32 498.387 1089.65C518.225 1110.29 545.921 1137.45 588.486 1162.03C615.78 1177.79 655.5 1194.68 678.2 1202.84C685.296 1205.39 692.279 1215.69 692.279 1224.04V1276.23C692.279 1283.15 697.128 1291.56 703.109 1295.01L802.6 1352.46C808.129 1355.65 812.758 1353.52 813.521 1347.63C817.795 1314.59 828.994 1259.27 848.42 1239.03C869.005 1217.58 964.038 1232.71 1015.77 1244.38C1020.38 1245.42 1023.51 1242.35 1023.51 1236.79V1101.73C1023.51 1095.86 1020.03 1088.59 1015.24 1083.86C1005.26 1073.99 989.395 1057.47 978.386 1044.75C944.992 1006.16 920.694 951.879 906.183 913.292C884.903 856.707 848.086 792.791 808.801 739.124C804.652 733.457 802.851 726.343 804.533 721.841ZM822.698 978.874C802.012 966.93 785.242 937.853 785.242 913.928C785.242 890.003 802.012 880.29 822.698 892.233C843.384 904.176 860.154 933.253 860.154 957.178C860.154 981.103 843.384 990.817 822.698 978.874ZM453.127 618.449C476.976 611.752 504.512 611.919 535.011 620.076C568.731 629.094 602.637 646.96 634.98 671.429C647.128 680.62 658.502 677.562 660.385 664.598C662.267 651.634 653.945 633.674 641.796 624.483C603.455 595.476 563.299 574.336 523.489 563.689C487.488 554.061 454.876 553.844 426.6 561.784C416.727 564.556 414.662 579.489 421.987 595.136C429.313 610.784 443.254 621.222 453.127 618.449Z" fill="white" fill-opacity="0.5"/>
</mask>
<g mask="url(#mask2_2332_6209)">
<g filter="url(#filter15_f_2332_6209)">
<path d="M604.947 870.064C616.952 862.154 616.257 838.492 603.394 817.214C590.531 795.935 570.371 785.098 558.366 793.008L469.162 851.782C457.737 859.309 457.737 881.225 469.162 901.944L558.366 1063.72C570.371 1085.49 590.531 1097.94 603.394 1091.51C616.257 1085.08 616.952 1062.23 604.947 1040.45L564.941 967.899C565.726 968.419 566.52 968.912 567.32 969.374C641.659 1012.29 701.922 1116.62 701.922 1202.39C701.922 1288.16 641.659 1322.9 567.32 1279.98C492.981 1237.06 432.717 1132.74 432.717 1046.97C432.717 1026.66 418.454 1001.97 400.859 991.813C383.264 981.655 369 989.877 369 1010.18C369 1136.55 457.791 1290.26 567.32 1353.5C676.849 1416.74 765.64 1365.55 765.64 1239.18C765.64 1112.8 676.849 959.093 567.32 895.857C567.046 895.698 566.772 895.544 566.5 895.395L604.947 870.064Z" fill="#944AB8" fill-opacity="0.3"/>
</g>
</g>
<path fill-rule="evenodd" clip-rule="evenodd" d="M471.844 776.148C471.339 776.405 470.845 776.692 470.365 777.008L513.667 752.008C514.147 751.692 514.64 751.405 515.145 751.148L471.844 776.148Z" fill="#8637AC" fill-opacity="0.7"/>
<path fill-rule="evenodd" clip-rule="evenodd" d="M470.366 777.008L381.162 835.781L424.463 810.781L513.667 752.008L470.366 777.008Z" fill="#8637AC" fill-opacity="0.7"/>
<path fill-rule="evenodd" clip-rule="evenodd" d="M381.162 835.781C369.738 843.308 369.738 865.224 381.162 885.943L470.366 1047.72C482.371 1069.49 502.531 1081.93 515.394 1075.51L558.696 1050.51C545.833 1056.93 525.672 1044.49 513.668 1022.72L424.463 860.943C413.039 840.224 413.039 818.308 424.463 810.781L381.162 835.781Z" fill="#8637AC" fill-opacity="0.7"/>
<path fill-rule="evenodd" clip-rule="evenodd" d="M515.395 1075.51L558.696 1050.51L515.395 1075.51Z" fill="#8637AC" fill-opacity="0.7"/>
<path fill-rule="evenodd" clip-rule="evenodd" d="M476.941 951.899C477.727 952.42 478.52 952.912 479.32 953.374C553.659 996.293 613.923 1100.62 613.923 1186.39C613.923 1227.56 600.038 1256.97 577.377 1271.68L620.678 1246.68C643.34 1231.97 657.225 1202.56 657.225 1161.39C657.225 1075.62 596.96 971.293 522.622 928.374C521.821 927.912 521.028 927.42 520.243 926.899L476.941 951.899Z" fill="#8637AC" fill-opacity="0.7"/>
<path fill-rule="evenodd" clip-rule="evenodd" d="M291.033 973.193C284.857 976.331 281 983.622 281 994.178C281 1120.55 369.791 1274.26 479.32 1337.5C531.894 1367.85 579.69 1371.85 615.181 1353.81L658.482 1328.81C622.991 1346.85 575.195 1342.85 522.621 1312.5C413.092 1249.26 324.301 1095.55 324.301 969.178C324.301 958.622 328.158 951.331 334.335 948.193L291.033 973.193Z" fill="#8637AC" fill-opacity="0.7"/>
<path fill-rule="evenodd" clip-rule="evenodd" d="M478.5 879.395L516.947 854.063L560.248 829.063L521.801 854.395L478.5 879.395Z" fill="#8637AC" fill-opacity="0.7"/>
<g filter="url(#filter16_bii_2332_6209)">
<path fill-rule="evenodd" clip-rule="evenodd" d="M516.946 854.064C528.951 846.153 528.256 822.492 515.393 801.214C503.045 780.786 483.971 769.982 471.844 776.148L515.145 751.148C527.272 744.982 546.346 755.786 558.694 776.214C571.557 797.492 572.252 821.153 560.247 829.064L516.946 854.064Z" fill="#B988D1" fill-opacity="0.5"/>
</g>
<g filter="url(#filter17_bii_2332_6209)">
<path fill-rule="evenodd" clip-rule="evenodd" d="M515.395 1075.51C528.258 1069.08 528.952 1046.22 516.947 1024.45L476.941 951.899L520.243 926.899L560.249 999.453C572.254 1021.22 571.559 1044.08 558.696 1050.51L515.395 1075.51Z" fill="#B988D1" fill-opacity="0.5"/>
</g>
<g filter="url(#filter18_bii_2332_6209)">
<path fill-rule="evenodd" clip-rule="evenodd" d="M577.376 1271.68C552.826 1287.62 517.976 1286.3 479.32 1263.98C404.981 1221.06 344.717 1116.74 344.717 1030.96C344.717 1010.66 330.453 985.972 312.858 975.813C304.413 970.937 296.735 970.296 291.033 973.193L334.334 948.193C340.036 945.296 347.714 945.937 356.16 950.813C373.755 960.972 388.018 985.664 388.018 1005.96C388.018 1091.74 448.282 1196.06 522.621 1238.98C561.277 1261.3 596.127 1262.62 620.677 1246.68L577.376 1271.68Z" fill="#B988D1" fill-opacity="0.5"/>
</g>
<g filter="url(#filter19_bii_2332_6209)">
<path fill-rule="evenodd" clip-rule="evenodd" d="M615.182 1353.81C653.631 1334.28 677.64 1288.89 677.64 1223.18C677.64 1096.8 588.849 943.094 479.32 879.857C479.046 879.699 478.773 879.545 478.5 879.396L521.801 854.396C522.074 854.545 522.347 854.699 522.621 854.857C632.15 918.094 720.941 1071.8 720.941 1198.18C720.941 1263.89 696.932 1309.28 658.483 1328.81L615.182 1353.81Z" fill="#B988D1" fill-opacity="0.5"/>
</g>
<g filter="url(#filter20_b_2332_6209)">
<path d="M516.947 854.064C528.952 846.154 528.257 822.492 515.394 801.214C502.531 779.935 482.371 769.098 470.366 777.008L381.162 835.782C369.737 843.309 369.737 865.225 381.162 885.944L470.366 1047.72C482.371 1069.49 502.531 1081.94 515.394 1075.51C528.257 1069.08 528.952 1046.23 516.947 1024.45L476.941 951.899C477.726 952.419 478.52 952.912 479.32 953.374C553.659 996.293 613.922 1100.62 613.922 1186.39C613.922 1272.16 553.659 1306.9 479.32 1263.98C404.981 1221.06 344.717 1116.74 344.717 1030.97C344.717 1010.66 330.454 985.972 312.859 975.813C295.264 965.655 281 973.877 281 994.178C281 1120.55 369.791 1274.26 479.32 1337.5C588.849 1400.74 677.64 1349.55 677.64 1223.18C677.64 1096.8 588.849 943.093 479.32 879.857C479.046 879.698 478.772 879.544 478.5 879.395L516.947 854.064Z" fill="url(#paint3_linear_2332_6209)" fill-opacity="0.5"/>
</g>
<path fill-rule="evenodd" clip-rule="evenodd" d="M971.685 338.729C936.174 356.802 914 398.76 914 459.5C914 576.308 996.006 718.346 1097.16 776.75C1145.72 804.784 1189.86 808.453 1222.64 791.771L1265.94 766.771C1233.17 783.453 1189.02 779.784 1140.47 751.75C1039.31 693.346 957.301 551.308 957.301 434.5C957.301 373.76 979.476 331.802 1014.99 313.729L971.685 338.729Z" fill="#5FA312" fill-opacity="0.7"/>
<path fill-rule="evenodd" clip-rule="evenodd" d="M1051.55 469.225C1050.05 470.125 1048.08 470.182 1045.91 469.327L969.297 439.133C967.34 438.362 965.666 438.331 964.332 438.869L1007.63 413.869C1008.97 413.331 1010.64 413.362 1012.6 414.133L1089.21 444.327C1091.38 445.182 1093.35 445.125 1094.85 444.225L1051.55 469.225Z" fill="#5FA312" fill-opacity="0.7"/>
<path fill-rule="evenodd" clip-rule="evenodd" d="M1182.84 754.025C1185.13 752.876 1186.46 749.95 1185.89 745.489L1173.81 650.231C1173.31 646.261 1174.36 643.135 1176.64 641.819L1219.94 616.819C1217.66 618.135 1216.61 621.261 1217.11 625.231L1229.2 720.489C1229.76 724.95 1228.43 727.876 1226.14 729.025L1182.84 754.025Z" fill="#5FA312" fill-opacity="0.7"/>
<path fill-rule="evenodd" clip-rule="evenodd" d="M1176.64 641.819L1231.46 610.231L1274.76 585.231L1219.94 616.819L1176.64 641.819Z" fill="#5FA312" fill-opacity="0.7"/>
<path fill-rule="evenodd" clip-rule="evenodd" d="M1231.46 610.232C1237.29 606.87 1234.05 593.481 1225.89 587.279L1149.28 529.012C1146.09 526.584 1143.33 522.684 1141.86 518.518L1106.6 418.555C1103.45 409.617 1095.53 403.906 1090.85 406.045L1134.15 381.045C1138.83 378.906 1146.75 384.617 1149.9 393.555L1185.17 493.518C1186.64 497.684 1189.39 501.584 1192.59 504.012L1269.19 562.279C1277.35 568.481 1280.6 581.87 1274.76 585.232L1231.46 610.232Z" fill="#5FA312" fill-opacity="0.7"/>
<g filter="url(#filter21_bii_2332_6209)">
<path fill-rule="evenodd" clip-rule="evenodd" d="M1222.64 791.771C1258.15 773.698 1280.33 731.741 1280.33 671C1280.33 554.192 1198.32 412.154 1097.16 353.75C1048.61 325.716 1004.46 322.047 971.686 338.73L1014.99 313.73C1047.77 297.047 1091.91 300.716 1140.47 328.75C1241.62 387.154 1323.63 529.192 1323.63 646C1323.63 706.741 1301.46 748.698 1265.94 766.771L1222.64 791.771Z" fill="#B4FF5E" fill-opacity="0.7"/>
</g>
<g filter="url(#filter22_bii_2332_6209)">
<path fill-rule="evenodd" clip-rule="evenodd" d="M1090.85 406.045C1089.96 406.452 1089.19 407.144 1088.59 408.153L1053.33 467.401C1052.86 468.191 1052.25 468.801 1051.55 469.225L1094.85 444.225C1095.56 443.801 1096.16 443.191 1096.63 442.401L1131.89 383.153C1132.49 382.144 1133.26 381.452 1134.15 381.045L1090.85 406.045Z" fill="#B4FF5E" fill-opacity="0.7"/>
</g>
<g filter="url(#filter23_bii_2332_6209)">
<path fill-rule="evenodd" clip-rule="evenodd" d="M964.333 438.869C960.109 440.573 959.297 447.983 963.731 455.658L1018.55 550.543C1020.83 554.497 1021.89 558.839 1021.38 562.227L1009.3 643.529C1008.01 652.183 1016.51 664.208 1023.87 664.143L1093.01 663.539C1095.89 663.513 1099.3 665.481 1102.18 668.833L1171.32 749.274C1175.44 754.069 1179.92 755.486 1182.84 754.024L1226.14 729.024C1223.22 730.486 1218.74 729.069 1214.62 724.274L1145.48 643.833C1142.6 640.481 1139.19 638.513 1136.31 638.539L1067.17 639.143C1059.81 639.208 1051.31 627.183 1052.6 618.529L1064.68 537.227C1065.19 533.839 1064.13 529.497 1061.85 525.543L1007.03 430.658C1002.6 422.983 1003.41 415.573 1007.63 413.869L964.333 438.869Z" fill="#B4FF5E" fill-opacity="0.7"/>
</g>
<g filter="url(#filter24_b_2332_6209)">
<path fill-rule="evenodd" clip-rule="evenodd" d="M1097.16 776.75C1198.32 835.154 1280.33 787.808 1280.33 671C1280.33 554.192 1198.32 412.154 1097.16 353.75C996.005 295.346 914 342.692 914 459.5C914 576.308 996.005 718.346 1097.16 776.75ZM1106.6 418.554C1102.85 407.914 1092.34 401.847 1088.59 408.153L1053.33 467.4C1051.86 469.869 1049.1 470.585 1045.91 469.327L969.298 439.133C961.144 435.92 957.897 445.559 963.731 455.658L1018.55 550.543C1020.83 554.497 1021.89 558.839 1021.38 562.227L1009.3 643.53C1008.01 652.183 1016.51 664.207 1023.87 664.143L1093.01 663.538C1095.89 663.513 1099.3 665.481 1102.18 668.833L1171.32 749.274C1178.68 757.836 1187.18 755.628 1185.9 745.489L1173.81 650.231C1173.31 646.261 1174.36 643.135 1176.64 641.819L1231.46 610.231C1237.29 606.869 1234.05 593.481 1225.89 587.279L1149.28 529.011C1146.09 526.582 1143.33 522.683 1141.86 518.517L1106.6 418.554Z" fill="url(#paint4_linear_2332_6209)" fill-opacity="0.5"/>
</g>
</g>
<defs>
<filter id="filter0_f_2332_6209" x="244.736" y="913.395" width="975.871" height="655.092" filterUnits="userSpaceOnUse" color-interpolation-filters="sRGB">
<feFlood flood-opacity="0" result="BackgroundImageFix"/>
<feBlend mode="normal" in="SourceGraphic" in2="BackgroundImageFix" result="shape"/>
<feGaussianBlur stdDeviation="50" result="effect1_foregroundBlur_2332_6209"/>
</filter>
<filter id="filter1_f_2332_6209" x="134.531" y="1135.42" width="624.734" height="455.924" filterUnits="userSpaceOnUse" color-interpolation-filters="sRGB">
<feFlood flood-opacity="0" result="BackgroundImageFix"/>
<feBlend mode="normal" in="SourceGraphic" in2="BackgroundImageFix" result="shape"/>
<feGaussianBlur stdDeviation="50" result="effect1_foregroundBlur_2332_6209"/>
</filter>
<filter id="filter2_f_2332_6209" x="716.801" y="1221.28" width="548.709" height="412.834" filterUnits="userSpaceOnUse" color-interpolation-filters="sRGB">
<feFlood flood-opacity="0" result="BackgroundImageFix"/>
<feBlend mode="normal" in="SourceGraphic" in2="BackgroundImageFix" result="shape"/>
<feGaussianBlur stdDeviation="50" result="effect1_foregroundBlur_2332_6209"/>
</filter>
<filter id="filter3_f_2332_6209" x="197.49" y="979.509" width="908.35" height="616.229" filterUnits="userSpaceOnUse" color-interpolation-filters="sRGB">
<feFlood flood-opacity="0" result="BackgroundImageFix"/>
<feBlend mode="normal" in="SourceGraphic" in2="BackgroundImageFix" result="shape"/>
<feGaussianBlur stdDeviation="50" result="effect1_foregroundBlur_2332_6209"/>
</filter>
<filter id="filter4_ii_2332_6209" x="494.811" y="245.774" width="716.912" height="1020.41" filterUnits="userSpaceOnUse" color-interpolation-filters="sRGB">
<feFlood flood-opacity="0" result="BackgroundImageFix"/>
<feBlend mode="normal" in="SourceGraphic" in2="BackgroundImageFix" result="shape"/>
<feColorMatrix in="SourceAlpha" type="matrix" values="0 0 0 0 0 0 0 0 0 0 0 0 0 0 0 0 0 0 127 0" result="hardAlpha"/>
<feOffset dy="10"/>
<feGaussianBlur stdDeviation="15"/>
<feComposite in2="hardAlpha" operator="arithmetic" k2="-1" k3="1"/>
<feColorMatrix type="matrix" values="0 0 0 0 0 0 0 0 0 0 0 0 0 0 0 0 0 0 0.2 0"/>
<feBlend mode="normal" in2="shape" result="effect1_innerShadow_2332_6209"/>
<feColorMatrix in="SourceAlpha" type="matrix" values="0 0 0 0 0 0 0 0 0 0 0 0 0 0 0 0 0 0 127 0" result="hardAlpha"/>
<feOffset dy="-10"/>
<feGaussianBlur stdDeviation="15"/>
<feComposite in2="hardAlpha" operator="arithmetic" k2="-1" k3="1"/>
<feColorMatrix type="matrix" values="0 0 0 0 1 0 0 0 0 1 0 0 0 0 1 0 0 0 0.1 0"/>
<feBlend mode="normal" in2="effect1_innerShadow_2332_6209" result="effect2_innerShadow_2332_6209"/>
</filter>
<filter id="filter5_b_2332_6209" x="359" y="250.774" width="839.422" height="1066.45" filterUnits="userSpaceOnUse" color-interpolation-filters="sRGB">
<feFlood flood-opacity="0" result="BackgroundImageFix"/>
<feGaussianBlur in="BackgroundImageFix" stdDeviation="15"/>
<feComposite in2="SourceAlpha" operator="in" result="effect1_backgroundBlur_2332_6209"/>
<feBlend mode="normal" in="SourceGraphic" in2="effect1_backgroundBlur_2332_6209" result="shape"/>
</filter>
<filter id="filter6_f_2332_6209" x="934" y="388.734" width="406.328" height="513.031" filterUnits="userSpaceOnUse" color-interpolation-filters="sRGB">
<feFlood flood-opacity="0" result="BackgroundImageFix"/>
<feBlend mode="normal" in="SourceGraphic" in2="BackgroundImageFix" result="shape"/>
<feGaussianBlur stdDeviation="10" result="effect1_foregroundBlur_2332_6209"/>
</filter>
<filter id="filter7_f_2332_6209" x="353" y="498.269" width="786.514" height="899.669" filterUnits="userSpaceOnUse" color-interpolation-filters="sRGB">
<feFlood flood-opacity="0" result="BackgroundImageFix"/>
<feBlend mode="normal" in="SourceGraphic" in2="BackgroundImageFix" result="shape"/>
<feGaussianBlur stdDeviation="10" result="effect1_foregroundBlur_2332_6209"/>
</filter>
<filter id="filter8_bii_2332_6209" x="349.846" y="449.27" width="416.691" height="193.19" filterUnits="userSpaceOnUse" color-interpolation-filters="sRGB">
<feFlood flood-opacity="0" result="BackgroundImageFix"/>
<feGaussianBlur in="BackgroundImageFix" stdDeviation="10"/>
<feComposite in2="SourceAlpha" operator="in" result="effect1_backgroundBlur_2332_6209"/>
<feBlend mode="normal" in="SourceGraphic" in2="effect1_backgroundBlur_2332_6209" result="shape"/>
<feColorMatrix in="SourceAlpha" type="matrix" values="0 0 0 0 0 0 0 0 0 0 0 0 0 0 0 0 0 0 127 0" result="hardAlpha"/>
<feOffset dy="10"/>
<feGaussianBlur stdDeviation="10"/>
<feComposite in2="hardAlpha" operator="arithmetic" k2="-1" k3="1"/>
<feColorMatrix type="matrix" values="0 0 0 0 0 0 0 0 0 0 0 0 0 0 0 0 0 0 0.2 0"/>
<feBlend mode="normal" in2="shape" result="effect2_innerShadow_2332_6209"/>
<feColorMatrix in="SourceAlpha" type="matrix" values="0 0 0 0 0 0 0 0 0 0 0 0 0 0 0 0 0 0 127 0" result="hardAlpha"/>
<feOffset dy="-10"/>
<feGaussianBlur stdDeviation="10"/>
<feComposite in2="hardAlpha" operator="arithmetic" k2="-1" k3="1"/>
<feColorMatrix type="matrix" values="0 0 0 0 1 0 0 0 0 1 0 0 0 0 1 0 0 0 0.5 0"/>
<feBlend mode="normal" in2="effect2_innerShadow_2332_6209" result="effect3_innerShadow_2332_6209"/>
</filter>
<filter id="filter9_bii_2332_6209" x="460.379" y="1041.05" width="89.2715" height="141.969" filterUnits="userSpaceOnUse" color-interpolation-filters="sRGB">
<feFlood flood-opacity="0" result="BackgroundImageFix"/>
<feGaussianBlur in="BackgroundImageFix" stdDeviation="10"/>
<feComposite in2="SourceAlpha" operator="in" result="effect1_backgroundBlur_2332_6209"/>
<feBlend mode="normal" in="SourceGraphic" in2="effect1_backgroundBlur_2332_6209" result="shape"/>
<feColorMatrix in="SourceAlpha" type="matrix" values="0 0 0 0 0 0 0 0 0 0 0 0 0 0 0 0 0 0 127 0" result="hardAlpha"/>
<feOffset dy="10"/>
<feGaussianBlur stdDeviation="10"/>
<feComposite in2="hardAlpha" operator="arithmetic" k2="-1" k3="1"/>
<feColorMatrix type="matrix" values="0 0 0 0 0 0 0 0 0 0 0 0 0 0 0 0 0 0 0.2 0"/>
<feBlend mode="normal" in2="shape" result="effect2_innerShadow_2332_6209"/>
<feColorMatrix in="SourceAlpha" type="matrix" values="0 0 0 0 0 0 0 0 0 0 0 0 0 0 0 0 0 0 127 0" result="hardAlpha"/>
<feOffset dy="-10"/>
<feGaussianBlur stdDeviation="10"/>
<feComposite in2="hardAlpha" operator="arithmetic" k2="-1" k3="1"/>
<feColorMatrix type="matrix" values="0 0 0 0 1 0 0 0 0 1 0 0 0 0 1 0 0 0 0.5 0"/>
<feBlend mode="normal" in2="effect2_innerShadow_2332_6209" result="effect3_innerShadow_2332_6209"/>
</filter>
<filter id="filter10_bii_2332_6209" x="790.078" y="1191.63" width="124.463" height="181.709" filterUnits="userSpaceOnUse" color-interpolation-filters="sRGB">
<feFlood flood-opacity="0" result="BackgroundImageFix"/>
<feGaussianBlur in="BackgroundImageFix" stdDeviation="10"/>
<feComposite in2="SourceAlpha" operator="in" result="effect1_backgroundBlur_2332_6209"/>
<feBlend mode="normal" in="SourceGraphic" in2="effect1_backgroundBlur_2332_6209" result="shape"/>
<feColorMatrix in="SourceAlpha" type="matrix" values="0 0 0 0 0 0 0 0 0 0 0 0 0 0 0 0 0 0 127 0" result="hardAlpha"/>
<feOffset dy="10"/>
<feGaussianBlur stdDeviation="10"/>
<feComposite in2="hardAlpha" operator="arithmetic" k2="-1" k3="1"/>
<feColorMatrix type="matrix" values="0 0 0 0 0 0 0 0 0 0 0 0 0 0 0 0 0 0 0.2 0"/>
<feBlend mode="normal" in2="shape" result="effect2_innerShadow_2332_6209"/>
<feColorMatrix in="SourceAlpha" type="matrix" values="0 0 0 0 0 0 0 0 0 0 0 0 0 0 0 0 0 0 127 0" result="hardAlpha"/>
<feOffset dy="-10"/>
<feGaussianBlur stdDeviation="10"/>
<feComposite in2="hardAlpha" operator="arithmetic" k2="-1" k3="1"/>
<feColorMatrix type="matrix" values="0 0 0 0 1 0 0 0 0 1 0 0 0 0 1 0 0 0 0.5 0"/>
<feBlend mode="normal" in2="effect2_innerShadow_2332_6209" result="effect3_innerShadow_2332_6209"/>
</filter>
<filter id="filter11_bii_2332_6209" x="718.215" y="493.452" width="368.602" height="770.528" filterUnits="userSpaceOnUse" color-interpolation-filters="sRGB">
<feFlood flood-opacity="0" result="BackgroundImageFix"/>
<feGaussianBlur in="BackgroundImageFix" stdDeviation="10"/>
<feComposite in2="SourceAlpha" operator="in" result="effect1_backgroundBlur_2332_6209"/>
<feBlend mode="normal" in="SourceGraphic" in2="effect1_backgroundBlur_2332_6209" result="shape"/>
<feColorMatrix in="SourceAlpha" type="matrix" values="0 0 0 0 0 0 0 0 0 0 0 0 0 0 0 0 0 0 127 0" result="hardAlpha"/>
<feOffset dy="10"/>
<feGaussianBlur stdDeviation="10"/>
<feComposite in2="hardAlpha" operator="arithmetic" k2="-1" k3="1"/>
<feColorMatrix type="matrix" values="0 0 0 0 0 0 0 0 0 0 0 0 0 0 0 0 0 0 0.2 0"/>
<feBlend mode="normal" in2="shape" result="effect2_innerShadow_2332_6209"/>
<feColorMatrix in="SourceAlpha" type="matrix" values="0 0 0 0 0 0 0 0 0 0 0 0 0 0 0 0 0 0 127 0" result="hardAlpha"/>
<feOffset dy="-10"/>
<feGaussianBlur stdDeviation="10"/>
<feComposite in2="hardAlpha" operator="arithmetic" k2="-1" k3="1"/>
<feColorMatrix type="matrix" values="0 0 0 0 1 0 0 0 0 1 0 0 0 0 1 0 0 0 0.5 0"/>
<feBlend mode="normal" in2="effect2_innerShadow_2332_6209" result="effect3_innerShadow_2332_6209"/>
</filter>
<filter id="filter12_bii_2332_6209" x="765.242" y="845.123" width="148.043" height="158.859" filterUnits="userSpaceOnUse" color-interpolation-filters="sRGB">
<feFlood flood-opacity="0" result="BackgroundImageFix"/>
<feGaussianBlur in="BackgroundImageFix" stdDeviation="10"/>
<feComposite in2="SourceAlpha" operator="in" result="effect1_backgroundBlur_2332_6209"/>
<feBlend mode="normal" in="SourceGraphic" in2="effect1_backgroundBlur_2332_6209" result="shape"/>
<feColorMatrix in="SourceAlpha" type="matrix" values="0 0 0 0 0 0 0 0 0 0 0 0 0 0 0 0 0 0 127 0" result="hardAlpha"/>
<feOffset dy="10"/>
<feGaussianBlur stdDeviation="10"/>
<feComposite in2="hardAlpha" operator="arithmetic" k2="-1" k3="1"/>
<feColorMatrix type="matrix" values="0 0 0 0 0 0 0 0 0 0 0 0 0 0 0 0 0 0 0.2 0"/>
<feBlend mode="normal" in2="shape" result="effect2_innerShadow_2332_6209"/>
<feColorMatrix in="SourceAlpha" type="matrix" values="0 0 0 0 0 0 0 0 0 0 0 0 0 0 0 0 0 0 127 0" result="hardAlpha"/>
<feOffset dy="-10"/>
<feGaussianBlur stdDeviation="10"/>
<feComposite in2="hardAlpha" operator="arithmetic" k2="-1" k3="1"/>
<feColorMatrix type="matrix" values="0 0 0 0 1 0 0 0 0 1 0 0 0 0 1 0 0 0 0.5 0"/>
<feBlend mode="normal" in2="effect2_innerShadow_2332_6209" result="effect3_innerShadow_2332_6209"/>
</filter>
<filter id="filter13_bii_2332_6209" x="397.604" y="517.678" width="319.826" height="179.055" filterUnits="userSpaceOnUse" color-interpolation-filters="sRGB">
<feFlood flood-opacity="0" result="BackgroundImageFix"/>
<feGaussianBlur in="BackgroundImageFix" stdDeviation="10"/>
<feComposite in2="SourceAlpha" operator="in" result="effect1_backgroundBlur_2332_6209"/>
<feBlend mode="normal" in="SourceGraphic" in2="effect1_backgroundBlur_2332_6209" result="shape"/>
<feColorMatrix in="SourceAlpha" type="matrix" values="0 0 0 0 0 0 0 0 0 0 0 0 0 0 0 0 0 0 127 0" result="hardAlpha"/>
<feOffset dy="10"/>
<feGaussianBlur stdDeviation="10"/>
<feComposite in2="hardAlpha" operator="arithmetic" k2="-1" k3="1"/>
<feColorMatrix type="matrix" values="0 0 0 0 0 0 0 0 0 0 0 0 0 0 0 0 0 0 0.2 0"/>
<feBlend mode="normal" in2="shape" result="effect2_innerShadow_2332_6209"/>
<feColorMatrix in="SourceAlpha" type="matrix" values="0 0 0 0 0 0 0 0 0 0 0 0 0 0 0 0 0 0 127 0" result="hardAlpha"/>
<feOffset dy="-10"/>
<feGaussianBlur stdDeviation="10"/>
<feComposite in2="hardAlpha" operator="arithmetic" k2="-1" k3="1"/>
<feColorMatrix type="matrix" values="0 0 0 0 1 0 0 0 0 1 0 0 0 0 1 0 0 0 0.5 0"/>
<feBlend mode="normal" in2="effect2_innerShadow_2332_6209" result="effect3_innerShadow_2332_6209"/>
</filter>
<filter id="filter14_b_2332_6209" x="247" y="464.269" width="806.514" height="919.669" filterUnits="userSpaceOnUse" color-interpolation-filters="sRGB">
<feFlood flood-opacity="0" result="BackgroundImageFix"/>
<feGaussianBlur in="BackgroundImageFix" stdDeviation="15"/>
<feComposite in2="SourceAlpha" operator="in" result="effect1_backgroundBlur_2332_6209"/>
<feBlend mode="normal" in="SourceGraphic" in2="effect1_backgroundBlur_2332_6209" result="shape"/>
</filter>
<filter id="filter15_f_2332_6209" x="349" y="770.421" width="436.639" height="630.184" filterUnits="userSpaceOnUse" color-interpolation-filters="sRGB">
<feFlood flood-opacity="0" result="BackgroundImageFix"/>
<feBlend mode="normal" in="SourceGraphic" in2="BackgroundImageFix" result="shape"/>
<feGaussianBlur stdDeviation="10" result="effect1_foregroundBlur_2332_6209"/>
</filter>
<filter id="filter16_bii_2332_6209" x="451.844" y="729.421" width="136.971" height="144.643" filterUnits="userSpaceOnUse" color-interpolation-filters="sRGB">
<feFlood flood-opacity="0" result="BackgroundImageFix"/>
<feGaussianBlur in="BackgroundImageFix" stdDeviation="10"/>
<feComposite in2="SourceAlpha" operator="in" result="effect1_backgroundBlur_2332_6209"/>
<feBlend mode="normal" in="SourceGraphic" in2="effect1_backgroundBlur_2332_6209" result="shape"/>
<feColorMatrix in="SourceAlpha" type="matrix" values="0 0 0 0 0 0 0 0 0 0 0 0 0 0 0 0 0 0 127 0" result="hardAlpha"/>
<feOffset dy="10"/>
<feGaussianBlur stdDeviation="10"/>
<feComposite in2="hardAlpha" operator="arithmetic" k2="-1" k3="1"/>
<feColorMatrix type="matrix" values="0 0 0 0 0 0 0 0 0 0 0 0 0 0 0 0 0 0 0.2 0"/>
<feBlend mode="normal" in2="shape" result="effect2_innerShadow_2332_6209"/>
<feColorMatrix in="SourceAlpha" type="matrix" values="0 0 0 0 0 0 0 0 0 0 0 0 0 0 0 0 0 0 127 0" result="hardAlpha"/>
<feOffset dy="-10"/>
<feGaussianBlur stdDeviation="10"/>
<feComposite in2="hardAlpha" operator="arithmetic" k2="-1" k3="1"/>
<feColorMatrix type="matrix" values="0 0 0 0 1 0 0 0 0 1 0 0 0 0 1 0 0 0 0.5 0"/>
<feBlend mode="normal" in2="effect2_innerShadow_2332_6209" result="effect3_innerShadow_2332_6209"/>
</filter>
<filter id="filter17_bii_2332_6209" x="456.941" y="906.899" width="131.875" height="188.61" filterUnits="userSpaceOnUse" color-interpolation-filters="sRGB">
<feFlood flood-opacity="0" result="BackgroundImageFix"/>
<feGaussianBlur in="BackgroundImageFix" stdDeviation="10"/>
<feComposite in2="SourceAlpha" operator="in" result="effect1_backgroundBlur_2332_6209"/>
<feBlend mode="normal" in="SourceGraphic" in2="effect1_backgroundBlur_2332_6209" result="shape"/>
<feColorMatrix in="SourceAlpha" type="matrix" values="0 0 0 0 0 0 0 0 0 0 0 0 0 0 0 0 0 0 127 0" result="hardAlpha"/>
<feOffset dy="10"/>
<feGaussianBlur stdDeviation="10"/>
<feComposite in2="hardAlpha" operator="arithmetic" k2="-1" k3="1"/>
<feColorMatrix type="matrix" values="0 0 0 0 0 0 0 0 0 0 0 0 0 0 0 0 0 0 0.2 0"/>
<feBlend mode="normal" in2="shape" result="effect2_innerShadow_2332_6209"/>
<feColorMatrix in="SourceAlpha" type="matrix" values="0 0 0 0 0 0 0 0 0 0 0 0 0 0 0 0 0 0 127 0" result="hardAlpha"/>
<feOffset dy="-10"/>
<feGaussianBlur stdDeviation="10"/>
<feComposite in2="hardAlpha" operator="arithmetic" k2="-1" k3="1"/>
<feColorMatrix type="matrix" values="0 0 0 0 1 0 0 0 0 1 0 0 0 0 1 0 0 0 0.5 0"/>
<feBlend mode="normal" in2="effect2_innerShadow_2332_6209" result="effect3_innerShadow_2332_6209"/>
</filter>
<filter id="filter18_bii_2332_6209" x="271.033" y="926.459" width="369.645" height="375.92" filterUnits="userSpaceOnUse" color-interpolation-filters="sRGB">
<feFlood flood-opacity="0" result="BackgroundImageFix"/>
<feGaussianBlur in="BackgroundImageFix" stdDeviation="10"/>
<feComposite in2="SourceAlpha" operator="in" result="effect1_backgroundBlur_2332_6209"/>
<feBlend mode="normal" in="SourceGraphic" in2="effect1_backgroundBlur_2332_6209" result="shape"/>
<feColorMatrix in="SourceAlpha" type="matrix" values="0 0 0 0 0 0 0 0 0 0 0 0 0 0 0 0 0 0 127 0" result="hardAlpha"/>
<feOffset dy="10"/>
<feGaussianBlur stdDeviation="10"/>
<feComposite in2="hardAlpha" operator="arithmetic" k2="-1" k3="1"/>
<feColorMatrix type="matrix" values="0 0 0 0 0 0 0 0 0 0 0 0 0 0 0 0 0 0 0.2 0"/>
<feBlend mode="normal" in2="shape" result="effect2_innerShadow_2332_6209"/>
<feColorMatrix in="SourceAlpha" type="matrix" values="0 0 0 0 0 0 0 0 0 0 0 0 0 0 0 0 0 0 127 0" result="hardAlpha"/>
<feOffset dy="-10"/>
<feGaussianBlur stdDeviation="10"/>
<feComposite in2="hardAlpha" operator="arithmetic" k2="-1" k3="1"/>
<feColorMatrix type="matrix" values="0 0 0 0 1 0 0 0 0 1 0 0 0 0 1 0 0 0 0.5 0"/>
<feBlend mode="normal" in2="effect2_innerShadow_2332_6209" result="effect3_innerShadow_2332_6209"/>
</filter>
<filter id="filter19_bii_2332_6209" x="458.5" y="834.396" width="282.441" height="539.416" filterUnits="userSpaceOnUse" color-interpolation-filters="sRGB">
<feFlood flood-opacity="0" result="BackgroundImageFix"/>
<feGaussianBlur in="BackgroundImageFix" stdDeviation="10"/>
<feComposite in2="SourceAlpha" operator="in" result="effect1_backgroundBlur_2332_6209"/>
<feBlend mode="normal" in="SourceGraphic" in2="effect1_backgroundBlur_2332_6209" result="shape"/>
<feColorMatrix in="SourceAlpha" type="matrix" values="0 0 0 0 0 0 0 0 0 0 0 0 0 0 0 0 0 0 127 0" result="hardAlpha"/>
<feOffset dy="10"/>
<feGaussianBlur stdDeviation="10"/>
<feComposite in2="hardAlpha" operator="arithmetic" k2="-1" k3="1"/>
<feColorMatrix type="matrix" values="0 0 0 0 0 0 0 0 0 0 0 0 0 0 0 0 0 0 0.2 0"/>
<feBlend mode="normal" in2="shape" result="effect2_innerShadow_2332_6209"/>
<feColorMatrix in="SourceAlpha" type="matrix" values="0 0 0 0 0 0 0 0 0 0 0 0 0 0 0 0 0 0 127 0" result="hardAlpha"/>
<feOffset dy="-10"/>
<feGaussianBlur stdDeviation="10"/>
<feComposite in2="hardAlpha" operator="arithmetic" k2="-1" k3="1"/>
<feColorMatrix type="matrix" values="0 0 0 0 1 0 0 0 0 1 0 0 0 0 1 0 0 0 0.5 0"/>
<feBlend mode="normal" in2="effect2_innerShadow_2332_6209" result="effect3_innerShadow_2332_6209"/>
</filter>
<filter id="filter20_b_2332_6209" x="251" y="744.421" width="456.639" height="650.184" filterUnits="userSpaceOnUse" color-interpolation-filters="sRGB">
<feFlood flood-opacity="0" result="BackgroundImageFix"/>
<feGaussianBlur in="BackgroundImageFix" stdDeviation="15"/>
<feComposite in2="SourceAlpha" operator="in" result="effect1_backgroundBlur_2332_6209"/>
<feBlend mode="normal" in="SourceGraphic" in2="effect1_backgroundBlur_2332_6209" result="shape"/>
</filter>
<filter id="filter21_bii_2332_6209" x="951.686" y="283.734" width="391.945" height="528.036" filterUnits="userSpaceOnUse" color-interpolation-filters="sRGB">
<feFlood flood-opacity="0" result="BackgroundImageFix"/>
<feGaussianBlur in="BackgroundImageFix" stdDeviation="10"/>
<feComposite in2="SourceAlpha" operator="in" result="effect1_backgroundBlur_2332_6209"/>
<feBlend mode="normal" in="SourceGraphic" in2="effect1_backgroundBlur_2332_6209" result="shape"/>
<feColorMatrix in="SourceAlpha" type="matrix" values="0 0 0 0 0 0 0 0 0 0 0 0 0 0 0 0 0 0 127 0" result="hardAlpha"/>
<feOffset dy="10"/>
<feGaussianBlur stdDeviation="10"/>
<feComposite in2="hardAlpha" operator="arithmetic" k2="-1" k3="1"/>
<feColorMatrix type="matrix" values="0 0 0 0 0 0 0 0 0 0 0 0 0 0 0 0 0 0 0.2 0"/>
<feBlend mode="normal" in2="shape" result="effect2_innerShadow_2332_6209"/>
<feColorMatrix in="SourceAlpha" type="matrix" values="0 0 0 0 0 0 0 0 0 0 0 0 0 0 0 0 0 0 127 0" result="hardAlpha"/>
<feOffset dy="-10"/>
<feGaussianBlur stdDeviation="10"/>
<feComposite in2="hardAlpha" operator="arithmetic" k2="-1" k3="1"/>
<feColorMatrix type="matrix" values="0 0 0 0 1 0 0 0 0 1 0 0 0 0 1 0 0 0 0.5 0"/>
<feBlend mode="normal" in2="effect2_innerShadow_2332_6209" result="effect3_innerShadow_2332_6209"/>
</filter>
<filter id="filter22_bii_2332_6209" x="1031.55" y="361.045" width="122.605" height="128.18" filterUnits="userSpaceOnUse" color-interpolation-filters="sRGB">
<feFlood flood-opacity="0" result="BackgroundImageFix"/>
<feGaussianBlur in="BackgroundImageFix" stdDeviation="10"/>
<feComposite in2="SourceAlpha" operator="in" result="effect1_backgroundBlur_2332_6209"/>
<feBlend mode="normal" in="SourceGraphic" in2="effect1_backgroundBlur_2332_6209" result="shape"/>
<feColorMatrix in="SourceAlpha" type="matrix" values="0 0 0 0 0 0 0 0 0 0 0 0 0 0 0 0 0 0 127 0" result="hardAlpha"/>
<feOffset dy="10"/>
<feGaussianBlur stdDeviation="10"/>
<feComposite in2="hardAlpha" operator="arithmetic" k2="-1" k3="1"/>
<feColorMatrix type="matrix" values="0 0 0 0 0 0 0 0 0 0 0 0 0 0 0 0 0 0 0.2 0"/>
<feBlend mode="normal" in2="shape" result="effect2_innerShadow_2332_6209"/>
<feColorMatrix in="SourceAlpha" type="matrix" values="0 0 0 0 0 0 0 0 0 0 0 0 0 0 0 0 0 0 127 0" result="hardAlpha"/>
<feOffset dy="-10"/>
<feGaussianBlur stdDeviation="10"/>
<feComposite in2="hardAlpha" operator="arithmetic" k2="-1" k3="1"/>
<feColorMatrix type="matrix" values="0 0 0 0 1 0 0 0 0 1 0 0 0 0 1 0 0 0 0.5 0"/>
<feBlend mode="normal" in2="effect2_innerShadow_2332_6209" result="effect3_innerShadow_2332_6209"/>
</filter>
<filter id="filter23_bii_2332_6209" x="940.764" y="393.869" width="305.377" height="380.704" filterUnits="userSpaceOnUse" color-interpolation-filters="sRGB">
<feFlood flood-opacity="0" result="BackgroundImageFix"/>
<feGaussianBlur in="BackgroundImageFix" stdDeviation="10"/>
<feComposite in2="SourceAlpha" operator="in" result="effect1_backgroundBlur_2332_6209"/>
<feBlend mode="normal" in="SourceGraphic" in2="effect1_backgroundBlur_2332_6209" result="shape"/>
<feColorMatrix in="SourceAlpha" type="matrix" values="0 0 0 0 0 0 0 0 0 0 0 0 0 0 0 0 0 0 127 0" result="hardAlpha"/>
<feOffset dy="10"/>
<feGaussianBlur stdDeviation="10"/>
<feComposite in2="hardAlpha" operator="arithmetic" k2="-1" k3="1"/>
<feColorMatrix type="matrix" values="0 0 0 0 0 0 0 0 0 0 0 0 0 0 0 0 0 0 0.2 0"/>
<feBlend mode="normal" in2="shape" result="effect2_innerShadow_2332_6209"/>
<feColorMatrix in="SourceAlpha" type="matrix" values="0 0 0 0 0 0 0 0 0 0 0 0 0 0 0 0 0 0 127 0" result="hardAlpha"/>
<feOffset dy="-10"/>
<feGaussianBlur stdDeviation="10"/>
<feComposite in2="hardAlpha" operator="arithmetic" k2="-1" k3="1"/>
<feColorMatrix type="matrix" values="0 0 0 0 1 0 0 0 0 1 0 0 0 0 1 0 0 0 0.5 0"/>
<feBlend mode="normal" in2="effect2_innerShadow_2332_6209" result="effect3_innerShadow_2332_6209"/>
</filter>
<filter id="filter24_b_2332_6209" x="884" y="298.734" width="426.328" height="533.031" filterUnits="userSpaceOnUse" color-interpolation-filters="sRGB">
<feFlood flood-opacity="0" result="BackgroundImageFix"/>
<feGaussianBlur in="BackgroundImageFix" stdDeviation="15"/>
<feComposite in2="SourceAlpha" operator="in" result="effect1_backgroundBlur_2332_6209"/>
<feBlend mode="normal" in="SourceGraphic" in2="effect1_backgroundBlur_2332_6209" result="shape"/>
</filter>
<linearGradient id="paint0_linear_2332_6209" x1="778.711" y1="292.201" x2="314.877" y2="1095.59" gradientUnits="userSpaceOnUse">
<stop stop-color="#6D2F8B"/>
<stop offset="1" stop-color="#5A2375"/>
</linearGradient>
<linearGradient id="paint1_linear_2332_6209" x1="822.711" y1="268.201" x2="358.877" y2="1071.59" gradientUnits="userSpaceOnUse">
<stop stop-color="#6D2F8B"/>
<stop offset="1" stop-color="#5A2375"/>
</linearGradient>
<linearGradient id="paint2_linear_2332_6209" x1="778.711" y1="292.201" x2="314.877" y2="1095.59" gradientUnits="userSpaceOnUse">
<stop stop-color="#6D2F8B"/>
<stop offset="1" stop-color="#5A2375"/>
</linearGradient>
<linearGradient id="paint3_linear_2332_6209" x1="479.32" y1="744.166" x2="187.104" y2="1250.3" gradientUnits="userSpaceOnUse">
<stop stop-color="#6D2F8B"/>
<stop offset="1" stop-color="#5A2375"/>
</linearGradient>
<linearGradient id="paint4_linear_2332_6209" x1="1097.16" y1="353.75" x2="914" y2="671" gradientUnits="userSpaceOnUse">
<stop stop-color="#83DE1B"/>
<stop offset="1" stop-color="#76B82A"/>
</linearGradient>
<clipPath id="clip0_2332_6209">
<rect width="1600" height="1600" fill="white"/>
</clipPath>
</defs>
</svg>
