<svg width="1600" height="1600" viewBox="0 0 1600 1600" fill="none" xmlns="http://www.w3.org/2000/svg">
<g filter="url(#filter0_f_2412_2)">
<ellipse cx="497.995" cy="1322.04" rx="241.634" ry="54.5311" transform="rotate(30 497.995 1322.04)" fill="#201F21" fill-opacity="0.2"/>
</g>
<g filter="url(#filter1_f_2412_2)">
<ellipse cx="774.268" cy="1186.22" rx="378.557" ry="60.8437" transform="rotate(30 774.268 1186.22)" fill="#201F21" fill-opacity="0.2"/>
</g>
<g filter="url(#filter2_f_2412_2)">
<ellipse cx="1114.39" cy="1360.93" rx="206.388" ry="26.6118" transform="rotate(30 1114.39 1360.93)" fill="#944AB8" fill-opacity="0.3"/>
</g>
<g filter="url(#filter3_f_2412_2)">
<ellipse cx="664.932" cy="1228.22" rx="325.103" ry="54.5311" transform="rotate(30 664.932 1228.22)" fill="#201F21" fill-opacity="0.2"/>
</g>
<path d="M832.516 208.5C832.516 197.454 840.271 192.977 849.836 198.5L927.779 243.5C937.345 249.023 945.099 262.454 945.099 273.5V303.5L966.75 316C971.533 318.761 975.41 325.477 975.41 331V357L1131.29 447C1140.86 452.523 1148.62 465.954 1148.62 477V1237C1148.62 1248.05 1140.86 1252.52 1131.29 1247L646.321 967C636.755 961.477 629 948.046 629 937V177C629 165.954 636.755 161.477 646.321 167L802.205 257V231C802.205 225.477 806.082 223.238 810.865 226L832.516 238.5V208.5Z" stroke="#55246A" stroke-width="8" stroke-dasharray="24 24"/>
<g filter="url(#filter4_ii_2412_2)">
<path fill-rule="evenodd" clip-rule="evenodd" d="M703.219 285.514C706.378 283.46 710.862 283.628 715.837 286.5L793.779 331.5C803.345 337.023 811.099 350.454 811.099 361.5V391.5L854.401 366.5V336.5C854.401 325.454 846.646 312.023 837.08 306.5L759.138 261.5C754.164 258.628 749.679 258.46 746.52 260.514L703.219 285.514Z" fill="#7E7B82"/>
</g>
<g filter="url(#filter5_ii_2412_2)">
<path fill-rule="evenodd" clip-rule="evenodd" d="M811.1 391.5L832.75 404C837.533 406.762 841.41 413.477 841.41 419V445L884.712 420V394C884.712 388.477 880.835 381.761 876.052 379L854.401 366.5L811.1 391.5Z" fill="#7E7B82"/>
</g>
<g filter="url(#filter6_ii_2412_2)">
<path fill-rule="evenodd" clip-rule="evenodd" d="M841.41 445L997.295 535C1006.86 540.523 1014.62 553.954 1014.62 565V1325C1014.62 1330.3 1012.83 1334.09 1009.91 1335.99L1053.21 1310.99C1056.13 1309.09 1057.92 1305.3 1057.92 1300V540C1057.92 528.954 1050.16 515.523 1040.6 510L884.711 420L841.41 445Z" fill="#7E7B82"/>
</g>
<g filter="url(#filter7_ii_2412_2)">
<path fill-rule="evenodd" clip-rule="evenodd" d="M499.703 254.014C502.862 251.96 507.347 252.128 512.321 255L668.205 345L711.507 320L555.622 230C550.648 227.128 546.163 226.96 543.004 229.014L499.703 254.014Z" fill="#7E7B82"/>
</g>
<g filter="url(#filter8_ii_2412_2)">
<path fill-rule="evenodd" clip-rule="evenodd" d="M670.557 313.507C672.136 312.48 674.378 312.564 676.866 314L698.516 326.5L741.817 301.5L720.167 289C717.68 287.564 715.437 287.48 713.858 288.507L670.557 313.507Z" fill="#7E7B82"/>
</g>
<path d="M698.516 296.5C698.516 285.454 706.271 280.977 715.836 286.5L793.779 331.5C803.345 337.023 811.099 350.454 811.099 361.5V391.5L832.75 404C837.533 406.761 841.41 413.477 841.41 419V445L997.295 535C1006.86 540.523 1014.62 553.954 1014.62 565V1325C1014.62 1336.05 1006.86 1340.52 997.295 1335L512.321 1055C502.755 1049.48 495 1036.05 495 1025V265C495 253.954 502.755 249.477 512.321 255L668.205 345V319C668.205 313.477 672.082 311.239 676.865 314L698.516 326.5V296.5Z" fill="url(#paint0_linear_2412_2)"/>
<path fill-rule="evenodd" clip-rule="evenodd" d="M1024.66 551.721L991.363 532.5L1034.66 507.5L1067.96 526.721L1024.66 551.721Z" fill="#8637AC" fill-opacity="0.7"/>
<path fill-rule="evenodd" clip-rule="evenodd" d="M1013.39 615.219L991.363 602.5L1034.66 577.5L1056.7 590.219L1013.39 615.219Z" fill="#8637AC" fill-opacity="0.7"/>
<path fill-rule="evenodd" clip-rule="evenodd" d="M1136.86 662.5V616.5L1071.96 579.035C1073.11 578.177 1074.3 577.388 1075.53 576.671L1118.83 551.671C1117.6 552.388 1116.41 553.177 1115.27 554.035L1180.16 591.5V637.5L1136.86 662.5Z" fill="#8637AC" fill-opacity="0.7"/>
<path fill-rule="evenodd" clip-rule="evenodd" d="M999.685 439.729C964.174 457.802 942 499.76 942 560.5C942 677.308 1024.01 819.346 1125.16 877.75C1173.72 905.784 1217.86 909.453 1250.64 892.771L1293.94 867.771C1261.17 884.453 1217.02 880.784 1168.47 852.75C1067.31 794.346 985.301 652.308 985.301 535.5C985.301 474.76 1007.48 432.802 1042.99 414.729L999.685 439.729Z" fill="#8637AC" fill-opacity="0.7"/>
<g filter="url(#filter9_bii_2412_2)">
<path fill-rule="evenodd" clip-rule="evenodd" d="M991.363 602.5V648.5L1023.84 667.249C1042.53 724.69 1083.46 780.672 1130.92 808.072C1163.31 826.773 1192.67 828.632 1213.96 816.556L1257.26 791.556C1235.97 803.632 1206.61 801.773 1174.22 783.072C1126.76 755.672 1085.83 699.69 1067.14 642.249L1034.66 623.5V577.5L991.363 602.5Z" fill="#B988D1" fill-opacity="0.5"/>
</g>
<g filter="url(#filter10_bii_2412_2)">
<path fill-rule="evenodd" clip-rule="evenodd" d="M1075.53 576.671C1089.67 568.422 1109.26 569.565 1130.92 582.072C1154.24 595.537 1175.15 619.37 1189.48 646.369L1202.67 671.219L1232.52 657.992L1275.82 632.992L1245.97 646.219L1232.78 621.369C1218.45 594.37 1197.54 570.537 1174.22 557.072C1152.56 544.565 1132.97 543.422 1118.83 551.671L1075.53 576.671Z" fill="#B988D1" fill-opacity="0.5"/>
</g>
<path fill-rule="evenodd" clip-rule="evenodd" d="M1232.52 657.992L1219.33 633.142C1197.75 592.49 1166.13 556.399 1130.92 536.072C1099.11 517.707 1070.23 515.569 1049.02 526.951L1092.32 501.951C1113.54 490.569 1142.41 492.707 1174.22 511.072C1209.43 531.399 1241.05 567.49 1262.63 608.142L1275.82 632.992L1232.52 657.992Z" fill="#8637AC" fill-opacity="0.7"/>
<g filter="url(#filter11_bii_2412_2)">
<path fill-rule="evenodd" clip-rule="evenodd" d="M991.363 532.5V578.5L1013.55 591.307C1013.19 595.383 1013.01 599.615 1013.01 604C1013.01 607.703 1013.14 611.446 1013.39 615.219L1056.7 590.219C1056.44 586.446 1056.32 582.703 1056.32 579C1056.32 574.615 1056.5 570.383 1056.85 566.307L1034.66 553.5V507.5L991.363 532.5Z" fill="#B988D1" fill-opacity="0.5"/>
</g>
<g filter="url(#filter12_bii_2412_2)">
<path fill-rule="evenodd" clip-rule="evenodd" d="M1049.02 526.951C1039.04 532.308 1030.75 540.658 1024.66 551.721L1067.96 526.721C1074.05 515.658 1082.34 507.308 1092.32 501.951L1049.02 526.951Z" fill="#B988D1" fill-opacity="0.5"/>
</g>
<path fill-rule="evenodd" clip-rule="evenodd" d="M1213.96 816.556C1215.81 815.506 1217.6 814.351 1219.33 813.092L1232.52 803.473L1202.67 755.777L1245.97 730.777L1275.82 778.473L1262.63 788.092C1260.91 789.351 1259.12 790.506 1257.26 791.556L1213.96 816.556Z" fill="#8637AC" fill-opacity="0.7"/>
<path fill-rule="evenodd" clip-rule="evenodd" d="M1202.67 755.777L1189.48 765.397C1188.91 765.815 1188.32 766.216 1187.73 766.599L1231.03 741.599C1231.63 741.216 1232.21 740.815 1232.78 740.397L1245.97 730.777L1202.67 755.777Z" fill="#8637AC" fill-opacity="0.7"/>
<path fill-rule="evenodd" clip-rule="evenodd" d="M1187.73 766.599C1173.47 775.802 1153.31 774.998 1130.92 762.071C1106.56 748.006 1084.81 722.594 1070.5 694.19L1113.8 669.19C1128.11 697.594 1149.86 723.006 1174.22 737.071C1196.61 749.998 1216.77 750.802 1231.03 741.599L1187.73 766.599Z" fill="#8637AC" fill-opacity="0.7"/>
<g filter="url(#filter13_bii_2412_2)">
<path fill-rule="evenodd" clip-rule="evenodd" d="M1070.5 694.19L1136.85 732.5L1180.16 707.5L1113.8 669.19L1070.5 694.19Z" fill="#B988D1" fill-opacity="0.5"/>
</g>
<path fill-rule="evenodd" clip-rule="evenodd" d="M1136.86 732.5V686.5L1053.43 638.333C1053.05 634.508 1052.85 630.724 1052.85 627C1052.85 622.586 1053.13 618.404 1053.66 614.467L1096.96 589.467C1096.43 593.404 1096.15 597.586 1096.15 602C1096.15 605.724 1096.35 609.508 1096.73 613.333L1180.16 661.5V707.5L1136.86 732.5Z" fill="#8637AC" fill-opacity="0.7"/>
<g filter="url(#filter14_bii_2412_2)">
<path fill-rule="evenodd" clip-rule="evenodd" d="M1053.66 614.467L1136.86 662.5L1180.16 637.5L1096.96 589.467L1053.66 614.467Z" fill="#B988D1" fill-opacity="0.5"/>
</g>
<g filter="url(#filter15_bii_2412_2)">
<path fill-rule="evenodd" clip-rule="evenodd" d="M1250.64 892.77C1286.15 874.698 1308.33 832.74 1308.33 772C1308.33 655.192 1226.32 513.154 1125.16 454.75C1076.61 426.716 1032.46 423.047 999.686 439.729L1042.99 414.729C1075.77 398.047 1119.91 401.716 1168.47 429.75C1269.62 488.154 1351.63 630.192 1351.63 747C1351.63 807.74 1329.46 849.698 1293.94 867.77L1250.64 892.77Z" fill="#B988D1" fill-opacity="0.5"/>
</g>
<g filter="url(#filter16_b_2412_2)">
<path fill-rule="evenodd" clip-rule="evenodd" d="M1125.16 877.75C1226.32 936.154 1308.33 888.808 1308.33 772C1308.33 655.192 1226.32 513.154 1125.16 454.75C1024.01 396.346 942 443.692 942 560.5C942 677.308 1024.01 819.346 1125.16 877.75ZM1071.96 579.035C1086.27 568.308 1107.37 568.478 1130.92 582.071C1154.24 595.537 1175.15 619.37 1189.48 646.369L1202.67 671.219L1232.52 657.992L1219.33 633.142C1197.75 592.49 1166.13 556.399 1130.92 536.071C1084.14 509.065 1043.71 517.15 1024.66 551.721L991.363 532.5V578.5L1013.55 591.307C1013.19 595.382 1013.01 599.615 1013.01 604C1013.01 607.703 1013.14 611.446 1013.39 615.219L991.363 602.5V648.5L1023.84 667.249C1042.53 724.69 1083.46 780.672 1130.92 808.071C1166.13 828.399 1197.75 828.829 1219.33 813.092L1232.52 803.473L1202.67 755.778L1189.48 765.397C1175.15 775.848 1154.24 775.537 1130.92 762.071C1106.56 748.007 1084.81 722.595 1070.5 694.19L1136.86 732.5V686.5L1053.43 638.333C1053.05 634.508 1052.85 630.724 1052.85 627C1052.85 622.586 1053.13 618.404 1053.66 614.467L1136.86 662.5V616.5L1071.96 579.035Z" fill="url(#paint1_linear_2412_2)" fill-opacity="0.5"/>
</g>
<mask id="mask0_2412_2" style="mask-type:alpha" maskUnits="userSpaceOnUse" x="495" y="252" width="520" height="1086">
<path d="M698.516 296.5C698.516 285.454 706.271 280.977 715.836 286.5L793.779 331.5C803.345 337.023 811.099 350.454 811.099 361.5V391.5L832.75 404C837.533 406.761 841.41 413.477 841.41 419V445L997.295 535C1006.86 540.523 1014.62 553.954 1014.62 565V1325C1014.62 1336.05 1006.86 1340.52 997.295 1335L512.321 1055C502.755 1049.48 495 1036.05 495 1025V265C495 253.954 502.755 249.477 512.321 255L668.205 345V319C668.205 313.477 672.082 311.239 676.865 314L698.516 326.5V296.5Z" fill="url(#paint2_linear_2412_2)"/>
</mask>
<g mask="url(#mask0_2412_2)">
<g filter="url(#filter17_f_2412_2)">
<path fill-rule="evenodd" clip-rule="evenodd" d="M535.321 1150C525.755 1144.48 518 1131.05 518 1120L518 428C518 416.954 525.755 412.477 535.321 418L880.837 617.484C885.531 620.194 890.023 624.987 893.286 630.767L972.122 770.396C975.247 775.93 976.993 781.924 976.993 787.113V1385C976.993 1396.05 969.239 1400.52 959.673 1395L535.321 1150ZM573.426 589.8C573.426 573.342 584.972 566.666 599.214 574.889L805.52 694C819.763 702.223 831.309 722.231 831.309 738.689C831.309 755.147 819.763 761.823 805.52 753.6L599.214 634.489C584.972 626.266 573.426 606.258 573.426 589.8ZM573.426 709C573.426 692.542 584.972 685.866 599.214 694.089L895.779 865.311C910.022 873.534 921.568 893.542 921.568 910C921.568 926.458 910.022 933.134 895.779 924.911L599.214 753.689C584.972 745.466 573.426 725.458 573.426 709ZM805.52 932.4C819.763 940.623 831.309 960.631 831.309 977.089C831.309 993.547 819.763 1000.22 805.52 992L599.214 872.889C584.972 864.666 573.426 844.658 573.426 828.2C573.426 811.742 584.972 805.066 599.214 813.289L805.52 932.4Z" fill="#201F21" fill-opacity="0.2"/>
</g>
</g>
<path fill-rule="evenodd" clip-rule="evenodd" d="M886.291 1342.35C883.131 1344.41 878.647 1344.24 873.673 1341.37L449.321 1096.37C439.755 1090.84 432 1077.41 432 1066.37L432 374.366C432 369.064 433.787 365.275 436.703 363.379L480.004 338.379C477.088 340.275 475.301 344.064 475.301 349.366L475.301 1041.37C475.301 1052.41 483.056 1065.84 492.622 1071.37L916.974 1316.37C921.948 1319.24 926.433 1319.41 929.592 1317.35L886.291 1342.35Z" fill="#CDCDCD" fill-opacity="0.9"/>
<path fill-rule="evenodd" clip-rule="evenodd" d="M494.428 519.793C499.131 516.731 505.808 516.979 513.214 521.255L719.521 640.366C733.763 648.589 745.309 668.597 745.309 685.055C745.309 692.955 742.649 698.601 738.307 701.427L781.609 676.427C785.95 673.601 788.61 667.955 788.61 660.055C788.61 643.597 777.065 623.589 762.822 615.366L556.515 496.255C549.109 491.979 542.432 491.731 537.729 494.793L494.428 519.793Z" fill="#CDCDCD" fill-opacity="0.9"/>
<path fill-rule="evenodd" clip-rule="evenodd" d="M494.428 638.993C499.131 635.931 505.808 636.178 513.214 640.454L809.78 811.676C824.022 819.899 835.568 839.907 835.568 856.365C835.568 864.265 832.908 869.911 828.566 872.738L871.868 847.738C876.209 844.911 878.869 839.265 878.869 831.365C878.869 814.907 867.324 794.899 853.081 786.676L556.515 615.454C549.109 611.178 542.432 610.931 537.729 613.993L494.428 638.993Z" fill="#CDCDCD" fill-opacity="0.9"/>
<path fill-rule="evenodd" clip-rule="evenodd" d="M494.428 758.193C499.131 755.131 505.808 755.379 513.214 759.655L719.521 878.766C733.763 886.989 745.309 906.997 745.309 923.455C745.309 931.354 742.649 937.001 738.307 939.827L781.609 914.827C785.95 912.001 788.61 906.354 788.61 898.455C788.61 881.997 777.065 861.989 762.822 853.766L556.515 734.655C549.109 730.379 542.432 730.131 537.729 733.193L494.428 758.193Z" fill="#CDCDCD" fill-opacity="0.9"/>
<g filter="url(#filter18_bii_2412_2)">
<path fill-rule="evenodd" clip-rule="evenodd" d="M436.703 363.379C439.862 361.326 444.347 361.494 449.321 364.366L794.837 563.85C799.531 566.56 804.023 571.353 807.287 577.133L886.122 716.761C889.247 722.295 890.994 728.29 890.994 733.479V1331.37C890.994 1336.67 889.207 1340.46 886.291 1342.35L929.592 1317.35C932.508 1315.46 934.295 1311.67 934.295 1306.37V708.479C934.295 703.29 932.548 697.295 929.424 691.761L850.588 552.133C847.324 546.353 842.832 541.56 838.138 538.85L492.622 339.366C487.648 336.494 483.163 336.326 480.004 338.379L436.703 363.379Z" fill="#FAFAFA" fill-opacity="0.8"/>
</g>
<g filter="url(#filter19_bii_2412_2)">
<path fill-rule="evenodd" clip-rule="evenodd" d="M738.307 701.427C733.604 704.489 726.927 704.241 719.521 699.965L513.214 580.854C498.972 572.631 487.426 552.623 487.426 536.165C487.426 528.265 490.086 522.619 494.428 519.793L537.729 494.793C533.387 497.619 530.727 503.265 530.727 511.165C530.727 527.623 542.273 547.631 556.515 555.854L762.822 674.965C770.228 679.241 776.905 679.489 781.609 676.427L738.307 701.427Z" fill="#FAFAFA" fill-opacity="0.8"/>
</g>
<g filter="url(#filter20_bii_2412_2)">
<path fill-rule="evenodd" clip-rule="evenodd" d="M828.566 872.738C823.863 875.8 817.186 875.552 809.779 871.276L513.214 700.054C498.972 691.831 487.426 671.823 487.426 655.365C487.426 647.466 490.086 641.82 494.428 638.993L537.729 613.993C533.387 616.82 530.727 622.466 530.727 630.365C530.727 646.823 542.273 666.831 556.515 675.054L853.081 846.276C860.487 850.552 867.164 850.8 871.867 847.738L828.566 872.738Z" fill="#FAFAFA" fill-opacity="0.8"/>
</g>
<g filter="url(#filter21_bii_2412_2)">
<path fill-rule="evenodd" clip-rule="evenodd" d="M738.307 939.827C733.604 942.889 726.927 942.642 719.521 938.366L513.214 819.255C498.972 811.032 487.426 791.024 487.426 774.566C487.426 766.666 490.086 761.02 494.428 758.193L537.729 733.193C533.387 736.02 530.727 741.666 530.727 749.566C530.727 766.024 542.273 786.032 556.515 794.255L762.822 913.366C770.228 917.642 776.905 917.889 781.609 914.827L738.307 939.827Z" fill="#FAFAFA" fill-opacity="0.8"/>
</g>
<g filter="url(#filter22_b_2412_2)">
<path fill-rule="evenodd" clip-rule="evenodd" d="M449.321 1096.37C439.755 1090.84 432 1077.41 432 1066.37L432 374.366C432 363.32 439.755 358.843 449.321 364.366L794.837 563.85C799.531 566.56 804.023 571.353 807.286 577.133L886.122 716.761C889.247 722.295 890.993 728.29 890.993 733.479V1331.37C890.993 1342.41 883.239 1346.89 873.673 1341.37L449.321 1096.37ZM487.426 536.166C487.426 519.708 498.972 513.032 513.214 521.255L719.52 640.366C733.763 648.589 745.309 668.596 745.309 685.054C745.309 701.513 733.763 708.189 719.52 699.966L513.214 580.855C498.972 572.632 487.426 552.624 487.426 536.166ZM487.426 655.366C487.426 638.908 498.972 632.232 513.214 640.455L809.779 811.677C824.022 819.9 835.568 839.908 835.568 856.366C835.568 872.824 824.022 879.5 809.779 871.277L513.214 700.054C498.972 691.832 487.426 671.824 487.426 655.366ZM719.52 878.766C733.763 886.989 745.309 906.996 745.309 923.455C745.309 939.913 733.763 946.589 719.52 938.366L513.214 819.255C498.972 811.032 487.426 791.024 487.426 774.566C487.426 758.107 498.972 751.432 513.214 759.655L719.52 878.766Z" fill="white" fill-opacity="0.5"/>
</g>
<mask id="mask1_2412_2" style="mask-type:alpha" maskUnits="userSpaceOnUse" x="432" y="361" width="459" height="983">
<path fill-rule="evenodd" clip-rule="evenodd" d="M449.321 1096C439.755 1090.48 432 1077.05 432 1066L432 374C432 362.954 439.755 358.477 449.321 364L794.837 563.484C799.531 566.194 804.023 570.987 807.286 576.767L886.122 716.396C889.247 721.93 890.993 727.924 890.993 733.113V1331C890.993 1342.05 883.239 1346.52 873.673 1341L449.321 1096ZM487.426 535.8C487.426 519.342 498.972 512.666 513.214 520.889L719.52 640C733.763 648.223 745.309 668.231 745.309 684.689C745.309 701.147 733.763 707.823 719.52 699.6L513.214 580.489C498.972 572.266 487.426 552.258 487.426 535.8ZM487.426 655C487.426 638.542 498.972 631.866 513.214 640.089L809.779 811.311C824.022 819.534 835.568 839.542 835.568 856C835.568 872.458 824.022 879.134 809.779 870.911L513.214 699.689C498.972 691.466 487.426 671.458 487.426 655ZM719.52 878.4C733.763 886.623 745.309 906.631 745.309 923.089C745.309 939.547 733.763 946.223 719.52 938L513.214 818.889C498.972 810.666 487.426 790.658 487.426 774.2C487.426 757.742 498.972 751.066 513.214 759.289L719.52 878.4Z" fill="white" fill-opacity="0.5"/>
</mask>
<g mask="url(#mask1_2412_2)">
<g filter="url(#filter23_f_2412_2)">
<path fill-rule="evenodd" clip-rule="evenodd" d="M579.537 1273.75C700.785 1343.75 799.075 1287 799.075 1147C799.075 1007 700.785 836.752 579.537 766.75C458.29 696.748 360 753.496 360 893.5C360 1033.5 458.29 1203.75 579.537 1273.75ZM541.357 832.88C541.357 814.619 554.177 807.217 569.992 816.348C585.807 825.479 598.628 847.684 598.628 865.946V984.667L645.326 1065.55C656.509 1084.92 656.509 1105.86 645.326 1112.31C634.143 1118.77 616.012 1108.3 604.83 1088.93L550.834 995.409C550.235 994.37 549.667 993.327 549.132 992.282C544.311 983.581 541.357 973.907 541.357 965.141V832.88Z" fill="#201F21" fill-opacity="0.2"/>
</g>
</g>
<path fill-rule="evenodd" clip-rule="evenodd" d="M328.141 795.747C285.578 817.409 259 867.698 259 940.5C259 1080.5 357.29 1250.75 478.537 1320.75C536.736 1354.35 589.645 1358.75 628.934 1338.75L672.236 1313.75C632.947 1333.75 580.037 1329.35 521.839 1295.75C400.592 1225.75 302.301 1055.5 302.301 915.5C302.301 842.698 328.879 792.409 371.442 770.747L328.141 795.747Z" fill="#322F36" fill-opacity="0.7"/>
<path fill-rule="evenodd" clip-rule="evenodd" d="M448.132 861.718C453.355 858.322 460.769 858.6 468.992 863.348C484.807 872.479 497.627 894.684 497.627 912.946V1031.67L540.929 1006.67V887.946C540.929 869.684 528.109 847.479 512.293 838.348C504.07 833.6 496.656 833.322 491.433 836.718L448.132 861.718Z" fill="#322F36" fill-opacity="0.7"/>
<path fill-rule="evenodd" clip-rule="evenodd" d="M497.627 1031.67L544.326 1112.55C555.509 1131.92 555.509 1152.86 544.326 1159.31L587.627 1134.31C598.81 1127.86 598.81 1106.92 587.627 1087.55L540.928 1006.67L497.627 1031.67Z" fill="#322F36" fill-opacity="0.7"/>
<g filter="url(#filter24_bii_2412_2)">
<path fill-rule="evenodd" clip-rule="evenodd" d="M628.934 1338.75C671.497 1317.09 698.075 1266.8 698.075 1194C698.075 1054 599.784 883.752 478.537 813.75C420.339 780.149 367.429 775.752 328.141 795.747L371.442 770.747C410.731 750.752 463.64 755.149 521.839 788.75C643.086 858.752 741.376 1029 741.376 1169C741.376 1241.8 714.798 1292.09 672.235 1313.75L628.934 1338.75Z" fill="#615C66" fill-opacity="0.5"/>
</g>
<g filter="url(#filter25_bii_2412_2)">
<path fill-rule="evenodd" clip-rule="evenodd" d="M544.326 1159.31C533.143 1165.77 515.013 1155.3 503.83 1135.93L449.835 1042.41C449.235 1041.37 448.668 1040.33 448.133 1039.28C443.311 1030.58 440.357 1020.91 440.357 1012.14V879.881C440.357 871.115 443.311 864.852 448.132 861.718L491.434 836.718C486.613 839.852 483.659 846.115 483.659 854.881V987.142C483.659 995.907 486.613 1005.58 491.434 1014.28C491.969 1015.33 492.536 1016.37 493.136 1017.41L547.131 1110.93C558.314 1130.3 576.445 1140.77 587.628 1134.31L544.326 1159.31Z" fill="#615C66" fill-opacity="0.5"/>
</g>
<g filter="url(#filter26_b_2412_2)">
<path fill-rule="evenodd" clip-rule="evenodd" d="M478.537 1320.75C599.785 1390.75 698.075 1334 698.075 1194C698.075 1054 599.785 883.752 478.537 813.75C357.29 743.748 259 800.496 259 940.5C259 1080.5 357.29 1250.75 478.537 1320.75ZM440.357 879.88C440.357 861.619 453.177 854.217 468.992 863.348C484.807 872.479 497.628 894.684 497.628 912.946V1031.67L544.326 1112.55C555.509 1131.92 555.509 1152.86 544.326 1159.31C533.143 1165.77 515.012 1155.3 503.83 1135.93L449.834 1042.41C449.235 1041.37 448.667 1040.33 448.132 1039.28C443.311 1030.58 440.357 1020.91 440.357 1012.14V879.88Z" fill="url(#paint3_linear_2412_2)" fill-opacity="0.5"/>
</g>
<defs>
<filter id="filter0_f_2412_2" x="186.942" y="1092.29" width="622.106" height="459.507" filterUnits="userSpaceOnUse" color-interpolation-filters="sRGB">
<feFlood flood-opacity="0" result="BackgroundImageFix"/>
<feBlend mode="normal" in="SourceGraphic" in2="BackgroundImageFix" result="shape"/>
<feGaussianBlur stdDeviation="50" result="effect1_foregroundBlur_2412_2"/>
</filter>
<filter id="filter1_f_2412_2" x="344.997" y="889.691" width="858.54" height="593.052" filterUnits="userSpaceOnUse" color-interpolation-filters="sRGB">
<feFlood flood-opacity="0" result="BackgroundImageFix"/>
<feBlend mode="normal" in="SourceGraphic" in2="BackgroundImageFix" result="shape"/>
<feGaussianBlur stdDeviation="50" result="effect1_foregroundBlur_2412_2"/>
</filter>
<filter id="filter2_f_2412_2" x="835.148" y="1155.17" width="558.479" height="411.518" filterUnits="userSpaceOnUse" color-interpolation-filters="sRGB">
<feFlood flood-opacity="0" result="BackgroundImageFix"/>
<feBlend mode="normal" in="SourceGraphic" in2="BackgroundImageFix" result="shape"/>
<feGaussianBlur stdDeviation="50" result="effect1_foregroundBlur_2412_2"/>
</filter>
<filter id="filter3_f_2412_2" x="282.048" y="958.901" width="765.769" height="538.633" filterUnits="userSpaceOnUse" color-interpolation-filters="sRGB">
<feFlood flood-opacity="0" result="BackgroundImageFix"/>
<feBlend mode="normal" in="SourceGraphic" in2="BackgroundImageFix" result="shape"/>
<feGaussianBlur stdDeviation="50" result="effect1_foregroundBlur_2412_2"/>
</filter>
<filter id="filter4_ii_2412_2" x="703.219" y="249.134" width="151.182" height="152.366" filterUnits="userSpaceOnUse" color-interpolation-filters="sRGB">
<feFlood flood-opacity="0" result="BackgroundImageFix"/>
<feBlend mode="normal" in="SourceGraphic" in2="BackgroundImageFix" result="shape"/>
<feColorMatrix in="SourceAlpha" type="matrix" values="0 0 0 0 0 0 0 0 0 0 0 0 0 0 0 0 0 0 127 0" result="hardAlpha"/>
<feOffset dy="10"/>
<feGaussianBlur stdDeviation="15"/>
<feComposite in2="hardAlpha" operator="arithmetic" k2="-1" k3="1"/>
<feColorMatrix type="matrix" values="0 0 0 0 0 0 0 0 0 0 0 0 0 0 0 0 0 0 0.2 0"/>
<feBlend mode="normal" in2="shape" result="effect1_innerShadow_2412_2"/>
<feColorMatrix in="SourceAlpha" type="matrix" values="0 0 0 0 0 0 0 0 0 0 0 0 0 0 0 0 0 0 127 0" result="hardAlpha"/>
<feOffset dy="-10"/>
<feGaussianBlur stdDeviation="15"/>
<feComposite in2="hardAlpha" operator="arithmetic" k2="-1" k3="1"/>
<feColorMatrix type="matrix" values="0 0 0 0 1 0 0 0 0 1 0 0 0 0 1 0 0 0 0.1 0"/>
<feBlend mode="normal" in2="effect1_innerShadow_2412_2" result="effect2_innerShadow_2412_2"/>
</filter>
<filter id="filter5_ii_2412_2" x="811.1" y="356.5" width="73.6123" height="98.5" filterUnits="userSpaceOnUse" color-interpolation-filters="sRGB">
<feFlood flood-opacity="0" result="BackgroundImageFix"/>
<feBlend mode="normal" in="SourceGraphic" in2="BackgroundImageFix" result="shape"/>
<feColorMatrix in="SourceAlpha" type="matrix" values="0 0 0 0 0 0 0 0 0 0 0 0 0 0 0 0 0 0 127 0" result="hardAlpha"/>
<feOffset dy="10"/>
<feGaussianBlur stdDeviation="15"/>
<feComposite in2="hardAlpha" operator="arithmetic" k2="-1" k3="1"/>
<feColorMatrix type="matrix" values="0 0 0 0 0 0 0 0 0 0 0 0 0 0 0 0 0 0 0.2 0"/>
<feBlend mode="normal" in2="shape" result="effect1_innerShadow_2412_2"/>
<feColorMatrix in="SourceAlpha" type="matrix" values="0 0 0 0 0 0 0 0 0 0 0 0 0 0 0 0 0 0 127 0" result="hardAlpha"/>
<feOffset dy="-10"/>
<feGaussianBlur stdDeviation="15"/>
<feComposite in2="hardAlpha" operator="arithmetic" k2="-1" k3="1"/>
<feColorMatrix type="matrix" values="0 0 0 0 1 0 0 0 0 1 0 0 0 0 1 0 0 0 0.1 0"/>
<feBlend mode="normal" in2="effect1_innerShadow_2412_2" result="effect2_innerShadow_2412_2"/>
</filter>
<filter id="filter6_ii_2412_2" x="841.41" y="410" width="216.506" height="935.986" filterUnits="userSpaceOnUse" color-interpolation-filters="sRGB">
<feFlood flood-opacity="0" result="BackgroundImageFix"/>
<feBlend mode="normal" in="SourceGraphic" in2="BackgroundImageFix" result="shape"/>
<feColorMatrix in="SourceAlpha" type="matrix" values="0 0 0 0 0 0 0 0 0 0 0 0 0 0 0 0 0 0 127 0" result="hardAlpha"/>
<feOffset dy="10"/>
<feGaussianBlur stdDeviation="15"/>
<feComposite in2="hardAlpha" operator="arithmetic" k2="-1" k3="1"/>
<feColorMatrix type="matrix" values="0 0 0 0 0 0 0 0 0 0 0 0 0 0 0 0 0 0 0.2 0"/>
<feBlend mode="normal" in2="shape" result="effect1_innerShadow_2412_2"/>
<feColorMatrix in="SourceAlpha" type="matrix" values="0 0 0 0 0 0 0 0 0 0 0 0 0 0 0 0 0 0 127 0" result="hardAlpha"/>
<feOffset dy="-10"/>
<feGaussianBlur stdDeviation="15"/>
<feComposite in2="hardAlpha" operator="arithmetic" k2="-1" k3="1"/>
<feColorMatrix type="matrix" values="0 0 0 0 1 0 0 0 0 1 0 0 0 0 1 0 0 0 0.1 0"/>
<feBlend mode="normal" in2="effect1_innerShadow_2412_2" result="effect2_innerShadow_2412_2"/>
</filter>
<filter id="filter7_ii_2412_2" x="499.703" y="217.634" width="211.804" height="137.366" filterUnits="userSpaceOnUse" color-interpolation-filters="sRGB">
<feFlood flood-opacity="0" result="BackgroundImageFix"/>
<feBlend mode="normal" in="SourceGraphic" in2="BackgroundImageFix" result="shape"/>
<feColorMatrix in="SourceAlpha" type="matrix" values="0 0 0 0 0 0 0 0 0 0 0 0 0 0 0 0 0 0 127 0" result="hardAlpha"/>
<feOffset dy="10"/>
<feGaussianBlur stdDeviation="15"/>
<feComposite in2="hardAlpha" operator="arithmetic" k2="-1" k3="1"/>
<feColorMatrix type="matrix" values="0 0 0 0 0 0 0 0 0 0 0 0 0 0 0 0 0 0 0.2 0"/>
<feBlend mode="normal" in2="shape" result="effect1_innerShadow_2412_2"/>
<feColorMatrix in="SourceAlpha" type="matrix" values="0 0 0 0 0 0 0 0 0 0 0 0 0 0 0 0 0 0 127 0" result="hardAlpha"/>
<feOffset dy="-10"/>
<feGaussianBlur stdDeviation="15"/>
<feComposite in2="hardAlpha" operator="arithmetic" k2="-1" k3="1"/>
<feColorMatrix type="matrix" values="0 0 0 0 1 0 0 0 0 1 0 0 0 0 1 0 0 0 0.1 0"/>
<feBlend mode="normal" in2="effect1_innerShadow_2412_2" result="effect2_innerShadow_2412_2"/>
</filter>
<filter id="filter8_ii_2412_2" x="670.557" y="277.817" width="71.2607" height="58.6826" filterUnits="userSpaceOnUse" color-interpolation-filters="sRGB">
<feFlood flood-opacity="0" result="BackgroundImageFix"/>
<feBlend mode="normal" in="SourceGraphic" in2="BackgroundImageFix" result="shape"/>
<feColorMatrix in="SourceAlpha" type="matrix" values="0 0 0 0 0 0 0 0 0 0 0 0 0 0 0 0 0 0 127 0" result="hardAlpha"/>
<feOffset dy="10"/>
<feGaussianBlur stdDeviation="15"/>
<feComposite in2="hardAlpha" operator="arithmetic" k2="-1" k3="1"/>
<feColorMatrix type="matrix" values="0 0 0 0 0 0 0 0 0 0 0 0 0 0 0 0 0 0 0.2 0"/>
<feBlend mode="normal" in2="shape" result="effect1_innerShadow_2412_2"/>
<feColorMatrix in="SourceAlpha" type="matrix" values="0 0 0 0 0 0 0 0 0 0 0 0 0 0 0 0 0 0 127 0" result="hardAlpha"/>
<feOffset dy="-10"/>
<feGaussianBlur stdDeviation="15"/>
<feComposite in2="hardAlpha" operator="arithmetic" k2="-1" k3="1"/>
<feColorMatrix type="matrix" values="0 0 0 0 1 0 0 0 0 1 0 0 0 0 1 0 0 0 0.1 0"/>
<feBlend mode="normal" in2="effect1_innerShadow_2412_2" result="effect2_innerShadow_2412_2"/>
</filter>
<filter id="filter9_bii_2412_2" x="971.363" y="557.5" width="305.9" height="286.683" filterUnits="userSpaceOnUse" color-interpolation-filters="sRGB">
<feFlood flood-opacity="0" result="BackgroundImageFix"/>
<feGaussianBlur in="BackgroundImageFix" stdDeviation="10"/>
<feComposite in2="SourceAlpha" operator="in" result="effect1_backgroundBlur_2412_2"/>
<feBlend mode="normal" in="SourceGraphic" in2="effect1_backgroundBlur_2412_2" result="shape"/>
<feColorMatrix in="SourceAlpha" type="matrix" values="0 0 0 0 0 0 0 0 0 0 0 0 0 0 0 0 0 0 127 0" result="hardAlpha"/>
<feOffset dy="10"/>
<feGaussianBlur stdDeviation="10"/>
<feComposite in2="hardAlpha" operator="arithmetic" k2="-1" k3="1"/>
<feColorMatrix type="matrix" values="0 0 0 0 0 0 0 0 0 0 0 0 0 0 0 0 0 0 0.2 0"/>
<feBlend mode="normal" in2="shape" result="effect2_innerShadow_2412_2"/>
<feColorMatrix in="SourceAlpha" type="matrix" values="0 0 0 0 0 0 0 0 0 0 0 0 0 0 0 0 0 0 127 0" result="hardAlpha"/>
<feOffset dy="-10"/>
<feGaussianBlur stdDeviation="10"/>
<feComposite in2="hardAlpha" operator="arithmetic" k2="-1" k3="1"/>
<feColorMatrix type="matrix" values="0 0 0 0 1 0 0 0 0 1 0 0 0 0 1 0 0 0 0.5 0"/>
<feBlend mode="normal" in2="effect2_innerShadow_2412_2" result="effect3_innerShadow_2412_2"/>
</filter>
<filter id="filter10_bii_2412_2" x="1055.53" y="526.394" width="240.295" height="164.826" filterUnits="userSpaceOnUse" color-interpolation-filters="sRGB">
<feFlood flood-opacity="0" result="BackgroundImageFix"/>
<feGaussianBlur in="BackgroundImageFix" stdDeviation="10"/>
<feComposite in2="SourceAlpha" operator="in" result="effect1_backgroundBlur_2412_2"/>
<feBlend mode="normal" in="SourceGraphic" in2="effect1_backgroundBlur_2412_2" result="shape"/>
<feColorMatrix in="SourceAlpha" type="matrix" values="0 0 0 0 0 0 0 0 0 0 0 0 0 0 0 0 0 0 127 0" result="hardAlpha"/>
<feOffset dy="10"/>
<feGaussianBlur stdDeviation="10"/>
<feComposite in2="hardAlpha" operator="arithmetic" k2="-1" k3="1"/>
<feColorMatrix type="matrix" values="0 0 0 0 0 0 0 0 0 0 0 0 0 0 0 0 0 0 0.2 0"/>
<feBlend mode="normal" in2="shape" result="effect2_innerShadow_2412_2"/>
<feColorMatrix in="SourceAlpha" type="matrix" values="0 0 0 0 0 0 0 0 0 0 0 0 0 0 0 0 0 0 127 0" result="hardAlpha"/>
<feOffset dy="-10"/>
<feGaussianBlur stdDeviation="10"/>
<feComposite in2="hardAlpha" operator="arithmetic" k2="-1" k3="1"/>
<feColorMatrix type="matrix" values="0 0 0 0 1 0 0 0 0 1 0 0 0 0 1 0 0 0 0.5 0"/>
<feBlend mode="normal" in2="effect2_innerShadow_2412_2" result="effect3_innerShadow_2412_2"/>
</filter>
<filter id="filter11_bii_2412_2" x="971.363" y="487.5" width="105.483" height="147.719" filterUnits="userSpaceOnUse" color-interpolation-filters="sRGB">
<feFlood flood-opacity="0" result="BackgroundImageFix"/>
<feGaussianBlur in="BackgroundImageFix" stdDeviation="10"/>
<feComposite in2="SourceAlpha" operator="in" result="effect1_backgroundBlur_2412_2"/>
<feBlend mode="normal" in="SourceGraphic" in2="effect1_backgroundBlur_2412_2" result="shape"/>
<feColorMatrix in="SourceAlpha" type="matrix" values="0 0 0 0 0 0 0 0 0 0 0 0 0 0 0 0 0 0 127 0" result="hardAlpha"/>
<feOffset dy="10"/>
<feGaussianBlur stdDeviation="10"/>
<feComposite in2="hardAlpha" operator="arithmetic" k2="-1" k3="1"/>
<feColorMatrix type="matrix" values="0 0 0 0 0 0 0 0 0 0 0 0 0 0 0 0 0 0 0.2 0"/>
<feBlend mode="normal" in2="shape" result="effect2_innerShadow_2412_2"/>
<feColorMatrix in="SourceAlpha" type="matrix" values="0 0 0 0 0 0 0 0 0 0 0 0 0 0 0 0 0 0 127 0" result="hardAlpha"/>
<feOffset dy="-10"/>
<feGaussianBlur stdDeviation="10"/>
<feComposite in2="hardAlpha" operator="arithmetic" k2="-1" k3="1"/>
<feColorMatrix type="matrix" values="0 0 0 0 1 0 0 0 0 1 0 0 0 0 1 0 0 0 0.5 0"/>
<feBlend mode="normal" in2="effect2_innerShadow_2412_2" result="effect3_innerShadow_2412_2"/>
</filter>
<filter id="filter12_bii_2412_2" x="1004.66" y="481.951" width="107.666" height="89.77" filterUnits="userSpaceOnUse" color-interpolation-filters="sRGB">
<feFlood flood-opacity="0" result="BackgroundImageFix"/>
<feGaussianBlur in="BackgroundImageFix" stdDeviation="10"/>
<feComposite in2="SourceAlpha" operator="in" result="effect1_backgroundBlur_2412_2"/>
<feBlend mode="normal" in="SourceGraphic" in2="effect1_backgroundBlur_2412_2" result="shape"/>
<feColorMatrix in="SourceAlpha" type="matrix" values="0 0 0 0 0 0 0 0 0 0 0 0 0 0 0 0 0 0 127 0" result="hardAlpha"/>
<feOffset dy="10"/>
<feGaussianBlur stdDeviation="10"/>
<feComposite in2="hardAlpha" operator="arithmetic" k2="-1" k3="1"/>
<feColorMatrix type="matrix" values="0 0 0 0 0 0 0 0 0 0 0 0 0 0 0 0 0 0 0.2 0"/>
<feBlend mode="normal" in2="shape" result="effect2_innerShadow_2412_2"/>
<feColorMatrix in="SourceAlpha" type="matrix" values="0 0 0 0 0 0 0 0 0 0 0 0 0 0 0 0 0 0 127 0" result="hardAlpha"/>
<feOffset dy="-10"/>
<feGaussianBlur stdDeviation="10"/>
<feComposite in2="hardAlpha" operator="arithmetic" k2="-1" k3="1"/>
<feColorMatrix type="matrix" values="0 0 0 0 1 0 0 0 0 1 0 0 0 0 1 0 0 0 0.5 0"/>
<feBlend mode="normal" in2="effect2_innerShadow_2412_2" result="effect3_innerShadow_2412_2"/>
</filter>
<filter id="filter13_bii_2412_2" x="1050.5" y="649.19" width="149.656" height="103.31" filterUnits="userSpaceOnUse" color-interpolation-filters="sRGB">
<feFlood flood-opacity="0" result="BackgroundImageFix"/>
<feGaussianBlur in="BackgroundImageFix" stdDeviation="10"/>
<feComposite in2="SourceAlpha" operator="in" result="effect1_backgroundBlur_2412_2"/>
<feBlend mode="normal" in="SourceGraphic" in2="effect1_backgroundBlur_2412_2" result="shape"/>
<feColorMatrix in="SourceAlpha" type="matrix" values="0 0 0 0 0 0 0 0 0 0 0 0 0 0 0 0 0 0 127 0" result="hardAlpha"/>
<feOffset dy="10"/>
<feGaussianBlur stdDeviation="10"/>
<feComposite in2="hardAlpha" operator="arithmetic" k2="-1" k3="1"/>
<feColorMatrix type="matrix" values="0 0 0 0 0 0 0 0 0 0 0 0 0 0 0 0 0 0 0.2 0"/>
<feBlend mode="normal" in2="shape" result="effect2_innerShadow_2412_2"/>
<feColorMatrix in="SourceAlpha" type="matrix" values="0 0 0 0 0 0 0 0 0 0 0 0 0 0 0 0 0 0 127 0" result="hardAlpha"/>
<feOffset dy="-10"/>
<feGaussianBlur stdDeviation="10"/>
<feComposite in2="hardAlpha" operator="arithmetic" k2="-1" k3="1"/>
<feColorMatrix type="matrix" values="0 0 0 0 1 0 0 0 0 1 0 0 0 0 1 0 0 0 0.5 0"/>
<feBlend mode="normal" in2="effect2_innerShadow_2412_2" result="effect3_innerShadow_2412_2"/>
</filter>
<filter id="filter14_bii_2412_2" x="1033.66" y="569.467" width="166.496" height="113.033" filterUnits="userSpaceOnUse" color-interpolation-filters="sRGB">
<feFlood flood-opacity="0" result="BackgroundImageFix"/>
<feGaussianBlur in="BackgroundImageFix" stdDeviation="10"/>
<feComposite in2="SourceAlpha" operator="in" result="effect1_backgroundBlur_2412_2"/>
<feBlend mode="normal" in="SourceGraphic" in2="effect1_backgroundBlur_2412_2" result="shape"/>
<feColorMatrix in="SourceAlpha" type="matrix" values="0 0 0 0 0 0 0 0 0 0 0 0 0 0 0 0 0 0 127 0" result="hardAlpha"/>
<feOffset dy="10"/>
<feGaussianBlur stdDeviation="10"/>
<feComposite in2="hardAlpha" operator="arithmetic" k2="-1" k3="1"/>
<feColorMatrix type="matrix" values="0 0 0 0 0 0 0 0 0 0 0 0 0 0 0 0 0 0 0.2 0"/>
<feBlend mode="normal" in2="shape" result="effect2_innerShadow_2412_2"/>
<feColorMatrix in="SourceAlpha" type="matrix" values="0 0 0 0 0 0 0 0 0 0 0 0 0 0 0 0 0 0 127 0" result="hardAlpha"/>
<feOffset dy="-10"/>
<feGaussianBlur stdDeviation="10"/>
<feComposite in2="hardAlpha" operator="arithmetic" k2="-1" k3="1"/>
<feColorMatrix type="matrix" values="0 0 0 0 1 0 0 0 0 1 0 0 0 0 1 0 0 0 0.5 0"/>
<feBlend mode="normal" in2="effect2_innerShadow_2412_2" result="effect3_innerShadow_2412_2"/>
</filter>
<filter id="filter15_bii_2412_2" x="979.686" y="384.734" width="391.945" height="528.037" filterUnits="userSpaceOnUse" color-interpolation-filters="sRGB">
<feFlood flood-opacity="0" result="BackgroundImageFix"/>
<feGaussianBlur in="BackgroundImageFix" stdDeviation="10"/>
<feComposite in2="SourceAlpha" operator="in" result="effect1_backgroundBlur_2412_2"/>
<feBlend mode="normal" in="SourceGraphic" in2="effect1_backgroundBlur_2412_2" result="shape"/>
<feColorMatrix in="SourceAlpha" type="matrix" values="0 0 0 0 0 0 0 0 0 0 0 0 0 0 0 0 0 0 127 0" result="hardAlpha"/>
<feOffset dy="10"/>
<feGaussianBlur stdDeviation="10"/>
<feComposite in2="hardAlpha" operator="arithmetic" k2="-1" k3="1"/>
<feColorMatrix type="matrix" values="0 0 0 0 0 0 0 0 0 0 0 0 0 0 0 0 0 0 0.2 0"/>
<feBlend mode="normal" in2="shape" result="effect2_innerShadow_2412_2"/>
<feColorMatrix in="SourceAlpha" type="matrix" values="0 0 0 0 0 0 0 0 0 0 0 0 0 0 0 0 0 0 127 0" result="hardAlpha"/>
<feOffset dy="-10"/>
<feGaussianBlur stdDeviation="10"/>
<feComposite in2="hardAlpha" operator="arithmetic" k2="-1" k3="1"/>
<feColorMatrix type="matrix" values="0 0 0 0 1 0 0 0 0 1 0 0 0 0 1 0 0 0 0.5 0"/>
<feBlend mode="normal" in2="effect2_innerShadow_2412_2" result="effect3_innerShadow_2412_2"/>
</filter>
<filter id="filter16_b_2412_2" x="912" y="399.734" width="426.328" height="533.032" filterUnits="userSpaceOnUse" color-interpolation-filters="sRGB">
<feFlood flood-opacity="0" result="BackgroundImageFix"/>
<feGaussianBlur in="BackgroundImageFix" stdDeviation="15"/>
<feComposite in2="SourceAlpha" operator="in" result="effect1_backgroundBlur_2412_2"/>
<feBlend mode="normal" in="SourceGraphic" in2="effect1_backgroundBlur_2412_2" result="shape"/>
</filter>
<filter id="filter17_f_2412_2" x="498" y="395.634" width="498.993" height="1021.73" filterUnits="userSpaceOnUse" color-interpolation-filters="sRGB">
<feFlood flood-opacity="0" result="BackgroundImageFix"/>
<feBlend mode="normal" in="SourceGraphic" in2="BackgroundImageFix" result="shape"/>
<feGaussianBlur stdDeviation="10" result="effect1_foregroundBlur_2412_2"/>
</filter>
<filter id="filter18_bii_2412_2" x="416.703" y="317" width="537.592" height="1045.35" filterUnits="userSpaceOnUse" color-interpolation-filters="sRGB">
<feFlood flood-opacity="0" result="BackgroundImageFix"/>
<feGaussianBlur in="BackgroundImageFix" stdDeviation="10"/>
<feComposite in2="SourceAlpha" operator="in" result="effect1_backgroundBlur_2412_2"/>
<feBlend mode="normal" in="SourceGraphic" in2="effect1_backgroundBlur_2412_2" result="shape"/>
<feColorMatrix in="SourceAlpha" type="matrix" values="0 0 0 0 0 0 0 0 0 0 0 0 0 0 0 0 0 0 127 0" result="hardAlpha"/>
<feOffset dy="10"/>
<feGaussianBlur stdDeviation="10"/>
<feComposite in2="hardAlpha" operator="arithmetic" k2="-1" k3="1"/>
<feColorMatrix type="matrix" values="0 0 0 0 0 0 0 0 0 0 0 0 0 0 0 0 0 0 0.2 0"/>
<feBlend mode="normal" in2="shape" result="effect2_innerShadow_2412_2"/>
<feColorMatrix in="SourceAlpha" type="matrix" values="0 0 0 0 0 0 0 0 0 0 0 0 0 0 0 0 0 0 127 0" result="hardAlpha"/>
<feOffset dy="-10"/>
<feGaussianBlur stdDeviation="10"/>
<feComposite in2="hardAlpha" operator="arithmetic" k2="-1" k3="1"/>
<feColorMatrix type="matrix" values="0 0 0 0 1 0 0 0 0 1 0 0 0 0 1 0 0 0 0.5 0"/>
<feBlend mode="normal" in2="effect2_innerShadow_2412_2" result="effect3_innerShadow_2412_2"/>
</filter>
<filter id="filter19_bii_2412_2" x="467.426" y="474.793" width="334.183" height="248.692" filterUnits="userSpaceOnUse" color-interpolation-filters="sRGB">
<feFlood flood-opacity="0" result="BackgroundImageFix"/>
<feGaussianBlur in="BackgroundImageFix" stdDeviation="10"/>
<feComposite in2="SourceAlpha" operator="in" result="effect1_backgroundBlur_2412_2"/>
<feBlend mode="normal" in="SourceGraphic" in2="effect1_backgroundBlur_2412_2" result="shape"/>
<feColorMatrix in="SourceAlpha" type="matrix" values="0 0 0 0 0 0 0 0 0 0 0 0 0 0 0 0 0 0 127 0" result="hardAlpha"/>
<feOffset dy="10"/>
<feGaussianBlur stdDeviation="10"/>
<feComposite in2="hardAlpha" operator="arithmetic" k2="-1" k3="1"/>
<feColorMatrix type="matrix" values="0 0 0 0 0 0 0 0 0 0 0 0 0 0 0 0 0 0 0.2 0"/>
<feBlend mode="normal" in2="shape" result="effect2_innerShadow_2412_2"/>
<feColorMatrix in="SourceAlpha" type="matrix" values="0 0 0 0 0 0 0 0 0 0 0 0 0 0 0 0 0 0 127 0" result="hardAlpha"/>
<feOffset dy="-10"/>
<feGaussianBlur stdDeviation="10"/>
<feComposite in2="hardAlpha" operator="arithmetic" k2="-1" k3="1"/>
<feColorMatrix type="matrix" values="0 0 0 0 1 0 0 0 0 1 0 0 0 0 1 0 0 0 0.5 0"/>
<feBlend mode="normal" in2="effect2_innerShadow_2412_2" result="effect3_innerShadow_2412_2"/>
</filter>
<filter id="filter20_bii_2412_2" x="467.426" y="593.993" width="424.441" height="300.803" filterUnits="userSpaceOnUse" color-interpolation-filters="sRGB">
<feFlood flood-opacity="0" result="BackgroundImageFix"/>
<feGaussianBlur in="BackgroundImageFix" stdDeviation="10"/>
<feComposite in2="SourceAlpha" operator="in" result="effect1_backgroundBlur_2412_2"/>
<feBlend mode="normal" in="SourceGraphic" in2="effect1_backgroundBlur_2412_2" result="shape"/>
<feColorMatrix in="SourceAlpha" type="matrix" values="0 0 0 0 0 0 0 0 0 0 0 0 0 0 0 0 0 0 127 0" result="hardAlpha"/>
<feOffset dy="10"/>
<feGaussianBlur stdDeviation="10"/>
<feComposite in2="hardAlpha" operator="arithmetic" k2="-1" k3="1"/>
<feColorMatrix type="matrix" values="0 0 0 0 0 0 0 0 0 0 0 0 0 0 0 0 0 0 0.2 0"/>
<feBlend mode="normal" in2="shape" result="effect2_innerShadow_2412_2"/>
<feColorMatrix in="SourceAlpha" type="matrix" values="0 0 0 0 0 0 0 0 0 0 0 0 0 0 0 0 0 0 127 0" result="hardAlpha"/>
<feOffset dy="-10"/>
<feGaussianBlur stdDeviation="10"/>
<feComposite in2="hardAlpha" operator="arithmetic" k2="-1" k3="1"/>
<feColorMatrix type="matrix" values="0 0 0 0 1 0 0 0 0 1 0 0 0 0 1 0 0 0 0.5 0"/>
<feBlend mode="normal" in2="effect2_innerShadow_2412_2" result="effect3_innerShadow_2412_2"/>
</filter>
<filter id="filter21_bii_2412_2" x="467.426" y="713.193" width="334.183" height="248.692" filterUnits="userSpaceOnUse" color-interpolation-filters="sRGB">
<feFlood flood-opacity="0" result="BackgroundImageFix"/>
<feGaussianBlur in="BackgroundImageFix" stdDeviation="10"/>
<feComposite in2="SourceAlpha" operator="in" result="effect1_backgroundBlur_2412_2"/>
<feBlend mode="normal" in="SourceGraphic" in2="effect1_backgroundBlur_2412_2" result="shape"/>
<feColorMatrix in="SourceAlpha" type="matrix" values="0 0 0 0 0 0 0 0 0 0 0 0 0 0 0 0 0 0 127 0" result="hardAlpha"/>
<feOffset dy="10"/>
<feGaussianBlur stdDeviation="10"/>
<feComposite in2="hardAlpha" operator="arithmetic" k2="-1" k3="1"/>
<feColorMatrix type="matrix" values="0 0 0 0 0 0 0 0 0 0 0 0 0 0 0 0 0 0 0.2 0"/>
<feBlend mode="normal" in2="shape" result="effect2_innerShadow_2412_2"/>
<feColorMatrix in="SourceAlpha" type="matrix" values="0 0 0 0 0 0 0 0 0 0 0 0 0 0 0 0 0 0 127 0" result="hardAlpha"/>
<feOffset dy="-10"/>
<feGaussianBlur stdDeviation="10"/>
<feComposite in2="hardAlpha" operator="arithmetic" k2="-1" k3="1"/>
<feColorMatrix type="matrix" values="0 0 0 0 1 0 0 0 0 1 0 0 0 0 1 0 0 0 0.5 0"/>
<feBlend mode="normal" in2="effect2_innerShadow_2412_2" result="effect3_innerShadow_2412_2"/>
</filter>
<filter id="filter22_b_2412_2" x="402" y="332" width="518.993" height="1041.73" filterUnits="userSpaceOnUse" color-interpolation-filters="sRGB">
<feFlood flood-opacity="0" result="BackgroundImageFix"/>
<feGaussianBlur in="BackgroundImageFix" stdDeviation="15"/>
<feComposite in2="SourceAlpha" operator="in" result="effect1_backgroundBlur_2412_2"/>
<feBlend mode="normal" in="SourceGraphic" in2="effect1_backgroundBlur_2412_2" result="shape"/>
</filter>
<filter id="filter23_f_2412_2" x="340" y="716.766" width="479.075" height="606.968" filterUnits="userSpaceOnUse" color-interpolation-filters="sRGB">
<feFlood flood-opacity="0" result="BackgroundImageFix"/>
<feBlend mode="normal" in="SourceGraphic" in2="BackgroundImageFix" result="shape"/>
<feGaussianBlur stdDeviation="10" result="effect1_foregroundBlur_2412_2"/>
</filter>
<filter id="filter24_bii_2412_2" x="308.141" y="738.767" width="453.235" height="619.987" filterUnits="userSpaceOnUse" color-interpolation-filters="sRGB">
<feFlood flood-opacity="0" result="BackgroundImageFix"/>
<feGaussianBlur in="BackgroundImageFix" stdDeviation="10"/>
<feComposite in2="SourceAlpha" operator="in" result="effect1_backgroundBlur_2412_2"/>
<feBlend mode="normal" in="SourceGraphic" in2="effect1_backgroundBlur_2412_2" result="shape"/>
<feColorMatrix in="SourceAlpha" type="matrix" values="0 0 0 0 0 0 0 0 0 0 0 0 0 0 0 0 0 0 127 0" result="hardAlpha"/>
<feOffset dy="10"/>
<feGaussianBlur stdDeviation="10"/>
<feComposite in2="hardAlpha" operator="arithmetic" k2="-1" k3="1"/>
<feColorMatrix type="matrix" values="0 0 0 0 0 0 0 0 0 0 0 0 0 0 0 0 0 0 0.2 0"/>
<feBlend mode="normal" in2="shape" result="effect2_innerShadow_2412_2"/>
<feColorMatrix in="SourceAlpha" type="matrix" values="0 0 0 0 0 0 0 0 0 0 0 0 0 0 0 0 0 0 127 0" result="hardAlpha"/>
<feOffset dy="-10"/>
<feGaussianBlur stdDeviation="10"/>
<feComposite in2="hardAlpha" operator="arithmetic" k2="-1" k3="1"/>
<feColorMatrix type="matrix" values="0 0 0 0 1 0 0 0 0 1 0 0 0 0 1 0 0 0 0.5 0"/>
<feBlend mode="normal" in2="effect2_innerShadow_2412_2" result="effect3_innerShadow_2412_2"/>
</filter>
<filter id="filter25_bii_2412_2" x="420.357" y="816.718" width="187.271" height="364.502" filterUnits="userSpaceOnUse" color-interpolation-filters="sRGB">
<feFlood flood-opacity="0" result="BackgroundImageFix"/>
<feGaussianBlur in="BackgroundImageFix" stdDeviation="10"/>
<feComposite in2="SourceAlpha" operator="in" result="effect1_backgroundBlur_2412_2"/>
<feBlend mode="normal" in="SourceGraphic" in2="effect1_backgroundBlur_2412_2" result="shape"/>
<feColorMatrix in="SourceAlpha" type="matrix" values="0 0 0 0 0 0 0 0 0 0 0 0 0 0 0 0 0 0 127 0" result="hardAlpha"/>
<feOffset dy="10"/>
<feGaussianBlur stdDeviation="10"/>
<feComposite in2="hardAlpha" operator="arithmetic" k2="-1" k3="1"/>
<feColorMatrix type="matrix" values="0 0 0 0 0 0 0 0 0 0 0 0 0 0 0 0 0 0 0.2 0"/>
<feBlend mode="normal" in2="shape" result="effect2_innerShadow_2412_2"/>
<feColorMatrix in="SourceAlpha" type="matrix" values="0 0 0 0 0 0 0 0 0 0 0 0 0 0 0 0 0 0 127 0" result="hardAlpha"/>
<feOffset dy="-10"/>
<feGaussianBlur stdDeviation="10"/>
<feComposite in2="hardAlpha" operator="arithmetic" k2="-1" k3="1"/>
<feColorMatrix type="matrix" values="0 0 0 0 1 0 0 0 0 1 0 0 0 0 1 0 0 0 0.5 0"/>
<feBlend mode="normal" in2="effect2_innerShadow_2412_2" result="effect3_innerShadow_2412_2"/>
</filter>
<filter id="filter26_b_2412_2" x="229" y="753.766" width="499.075" height="626.968" filterUnits="userSpaceOnUse" color-interpolation-filters="sRGB">
<feFlood flood-opacity="0" result="BackgroundImageFix"/>
<feGaussianBlur in="BackgroundImageFix" stdDeviation="15"/>
<feComposite in2="SourceAlpha" operator="in" result="effect1_backgroundBlur_2412_2"/>
<feBlend mode="normal" in="SourceGraphic" in2="effect1_backgroundBlur_2412_2" result="shape"/>
</filter>
<linearGradient id="paint0_linear_2412_2" x1="754.808" y1="309" x2="371.158" y2="973.5" gradientUnits="userSpaceOnUse">
<stop stop-color="#414042"/>
<stop offset="1" stop-color="#4A4450"/>
</linearGradient>
<linearGradient id="paint1_linear_2412_2" x1="1125.16" y1="435.104" x2="907.162" y2="812.695" gradientUnits="userSpaceOnUse">
<stop stop-color="#6D2F8B"/>
<stop offset="1" stop-color="#5A2375"/>
</linearGradient>
<linearGradient id="paint2_linear_2412_2" x1="754.808" y1="309" x2="371.158" y2="973.5" gradientUnits="userSpaceOnUse">
<stop stop-color="#6655A2"/>
<stop offset="1" stop-color="#4D3C86"/>
</linearGradient>
<linearGradient id="paint3_linear_2412_2" x1="478.537" y1="790.203" x2="217.244" y2="1242.78" gradientUnits="userSpaceOnUse">
<stop stop-color="#424043"/>
<stop offset="1" stop-color="#48434D"/>
</linearGradient>
</defs>
</svg>
