<svg width="64" height="64" viewBox="0 0 64 64" fill="none" xmlns="http://www.w3.org/2000/svg">
<path fill-rule="evenodd" clip-rule="evenodd" d="M60 56.0597C60 56.3441 59.8789 56.6151 59.6669 56.8048C59.455 56.9945 59.1723 57.085 58.8895 57.0536L49.8939 56.0536C49.3875 55.9973 49.0044 55.5692 49.0044 55.0597V51.6212C48.2243 51.1569 47.1955 50.5995 46.1514 50.1704C45.5165 49.9094 44.8994 49.7058 44.345 49.5949C43.7795 49.4818 43.3493 49.4796 43.0525 49.5539C42.5008 49.6918 41.3982 50.0937 39.9154 50.6574C39.483 50.8218 39.0226 50.9982 38.5416 51.1825L38.5413 51.1826L38.5406 51.1829C37.4096 51.6163 36.1653 52.0931 34.9057 52.5588C33.1087 53.2232 31.2549 53.8748 29.6075 54.3612C27.9924 54.8382 26.4672 55.1907 25.374 55.1907C24.8066 55.1907 24.1699 55.0037 23.548 54.7556C22.9042 54.4986 22.1798 54.1359 21.4077 53.7022C19.8623 52.8343 18.0538 51.6418 16.1963 50.3267C12.4776 47.6939 8.49006 44.5181 5.8807 42.3252L5.88067 42.3252C5.30203 41.8389 4.64106 41.0016 4.2783 40.0523C3.91295 39.0962 3.78566 37.8156 4.67379 36.7349C5.48728 35.7451 6.59521 35.5371 7.52983 35.6525C8.41667 35.7619 9.23147 36.162 9.75972 36.5522L9.80214 36.5805L9.84333 36.5378L9.84345 36.5377C10.2306 36.1363 10.8996 35.4425 12.0542 35.1538C13.6173 34.7628 15.1117 35.1741 16.4341 35.7529C17.1001 36.0444 17.7558 36.3937 18.3812 36.7359C18.5108 36.8068 18.6386 36.8772 18.7652 36.9468L18.7653 36.9469C19.2142 37.1938 19.6467 37.4318 20.0797 37.6523C20.1393 37.642 20.1994 37.6328 20.26 37.6247C21.622 37.443 23.126 37.2245 24.671 37.0001L24.6713 37.0001C26.7589 36.6968 28.921 36.3828 30.9082 36.134C32.6539 35.9155 34.3082 35.7411 35.7265 35.6606C37.1211 35.5814 38.3724 35.5868 39.2697 35.7664C42.0445 36.3216 45.7218 37.3508 49.0044 38.5907V37.0597C49.0044 36.5074 49.4521 36.0597 50.0044 36.0597H59C59.5523 36.0597 60 36.5074 60 37.0597V56.0597ZM17.8865 38.7461C17.2715 39.3575 16.9013 40.1739 16.9013 41.1079C16.9013 41.1773 16.9029 41.2477 16.9061 41.3187L11.4989 37.7122C11.7938 37.426 12.074 37.2104 12.5395 37.094C13.4671 36.862 14.4636 37.0736 15.6321 37.5851C16.2115 37.8387 16.8012 38.1513 17.4212 38.4905C17.5409 38.556 17.6622 38.6227 17.7846 38.6901L17.8865 38.7461ZM49.0042 49.3221V40.7345C45.6654 39.4157 41.7527 38.3028 38.8773 37.7275C38.2481 37.6016 37.2158 37.5792 35.8399 37.6574C34.4878 37.7341 32.8848 37.9021 31.1566 38.1185C29.1641 38.368 27.0619 38.6736 25.0077 38.9723L25.0075 38.9724L25.007 38.9724L25.0069 38.9724L25.0068 38.9725C23.4633 39.1969 21.9469 39.4174 20.5244 39.6071C19.3986 39.7573 18.9013 40.4584 18.9013 41.1079C18.9013 41.5824 19.0219 41.9497 19.2146 42.1811C19.3805 42.3803 19.6987 42.5998 20.392 42.5998H27.8545H27.875H33.4689C34.0212 42.5998 34.4689 43.0476 34.4689 43.5998C34.4689 44.1521 34.0212 44.5998 33.4689 44.5998H28.2812C27.1611 45.7314 25.7766 47.0918 23.5058 47.0918C21.8923 47.0918 20.4039 46.2588 17.9462 44.4164L8.62856 38.2018C8.61316 38.1915 8.59805 38.1808 8.58325 38.1697C8.28037 37.9425 7.77628 37.6981 7.28482 37.6374C6.82766 37.581 6.48219 37.6845 6.21894 38.0048C5.96632 38.3122 5.91788 38.7399 6.14656 39.3384C6.37782 39.9436 6.82605 40.5072 7.16743 40.7941C9.74732 42.9622 13.6902 46.1019 17.3519 48.6944C19.1846 49.9919 20.9288 51.1395 22.3871 51.9584C23.1169 52.3683 23.7572 52.6857 24.2893 52.898C24.8434 53.1192 25.194 53.1907 25.374 53.1907C26.1488 53.1907 27.4258 52.9201 29.041 52.4431C30.624 51.9757 32.4286 51.3423 34.2121 50.6829C35.4607 50.2213 36.6863 49.7516 37.8131 49.3198C38.2972 49.1343 38.7631 48.9558 39.2047 48.7879C40.6409 48.2419 41.8734 47.7871 42.5672 47.6136C43.2667 47.4387 44.0264 47.4916 44.7372 47.6338C45.4591 47.7781 46.2047 48.03 46.9117 48.3205C47.6459 48.6222 48.3638 48.9764 49.0042 49.3221ZM23.5058 45.0918C24.1782 45.0918 24.7171 44.9144 25.226 44.5998H21.8268C22.5549 44.9793 23.0477 45.0918 23.5058 45.0918ZM51.0044 40.0321V38.0597H58V54.9424L51.0044 54.1647V40.088C51.0049 40.0693 51.0049 40.0507 51.0044 40.0321ZM35.6529 14.2929C35.8404 14.1054 36.0948 14 36.36 14C38.0624 14 40.37 14.128 42.2832 14.827C43.2476 15.1794 44.1767 15.6997 44.8707 16.4822C45.5831 17.2855 46 18.3132 46 19.5641C46 20.8164 45.5816 21.8328 44.8522 22.6111C44.1453 23.3654 43.2038 23.836 42.2401 24.1391C40.6914 24.6263 38.878 24.7414 37.36 24.7674V26.1431H44.52C45.0723 26.1431 45.52 26.5908 45.52 27.1431C45.52 27.6954 45.0723 28.1431 44.52 28.1431H37.36V31C37.36 31.5523 36.9123 32 36.36 32C35.8077 32 35.36 31.5523 35.36 31V28.1431H33C32.4477 28.1431 32 27.6954 32 27.1431C32 26.5908 32.4477 26.1431 33 26.1431H35.36V23.7747V15C35.36 14.7348 35.4653 14.4804 35.6529 14.2929ZM37.36 22.7666C38.8075 22.7399 40.3672 22.6317 41.6399 22.2313C42.4162 21.9871 43.0047 21.6576 43.3928 21.2435C43.7584 20.8534 44 20.3329 44 19.5641C44 18.7941 43.7569 18.2406 43.3743 17.8092C42.9733 17.3571 42.3724 16.9889 41.5968 16.7055C40.3342 16.2442 38.7823 16.0682 37.36 16.0173V22.7666ZM23 7C18.5817 7 15 10.5817 15 15V25C15 29.4183 18.5817 33 23 33C27.4183 33 31 29.4183 31 25V15C31 10.5817 27.4183 7 23 7ZM17 15C17 11.6863 19.6863 9 23 9C26.3137 9 29 11.6863 29 15V25C29 28.3137 26.3137 31 23 31C19.6863 31 17 28.3137 17 25V15Z" fill="currentColor"/>
</svg>
