<svg width="64" height="64" viewBox="0 0 64 64" fill="none" xmlns="http://www.w3.org/2000/svg">
<path fill-rule="evenodd" clip-rule="evenodd" d="M13 25C13 14.5066 21.5066 6 32 6C42.4934 6 51 14.5066 51 25C51 35.4934 42.4934 44 32 44C21.5066 44 13 35.4934 13 25ZM32 4C20.402 4 11 13.402 11 25C11 31.3116 13.7844 36.9729 18.1919 40.8224L13.0567 55.4197C12.9364 55.7615 13.0105 56.1416 13.2502 56.4133C13.49 56.685 13.858 56.8057 14.2121 56.7289L22.2917 54.9756L26.9372 59.701C27.1849 59.9529 27.547 60.0555 27.8899 59.9709C28.2328 59.8863 28.5057 59.627 28.6077 59.2888L32 48.045L35.3923 59.2888C35.4943 59.627 35.7672 59.8863 36.1101 59.9709C36.453 60.0555 36.8151 59.9529 37.0628 59.701L41.7083 54.9756L49.7879 56.7289C50.1456 56.8064 50.517 56.6825 50.7564 56.4057C50.9958 56.129 51.0648 55.7435 50.9365 55.4008L45.7469 41.5457C45.6837 41.377 45.5798 41.2353 45.4504 41.1279C50.0644 37.2757 53 31.4807 53 25C53 13.402 43.598 4 32 4ZM43.8966 42.3076C40.8898 44.3783 37.3168 45.6857 33.457 45.9502L36.8196 57.0955L40.6685 53.1804C40.9091 52.9357 41.2583 52.8314 41.5937 52.9042L48.4205 54.3856L43.8966 42.3076ZM30.543 45.9502C26.5749 45.6783 22.9098 44.3041 19.8516 42.1314L15.5374 54.3947L22.4063 52.9042C22.7417 52.8314 23.0909 52.9357 23.3315 53.1804L27.1804 57.0955L30.543 45.9502ZM18 25C18 17.268 24.268 11 32 11C39.732 11 46 17.268 46 25C46 32.732 39.732 39 32 39C24.268 39 18 32.732 18 25ZM32 9C23.1634 9 16 16.1634 16 25C16 33.8366 23.1634 41 32 41C40.8366 41 48 33.8366 48 25C48 16.1634 40.8366 9 32 9ZM32 15C32.3806 15 32.7283 15.2161 32.8967 15.5574L35.3091 20.4454L40.7033 21.2292C41.08 21.284 41.3929 21.5478 41.5106 21.9098C41.6282 22.2718 41.5301 22.6692 41.2575 22.9349L37.3542 26.7397L38.2757 32.1121C38.34 32.4873 38.1858 32.8664 37.8779 33.0902C37.5699 33.3139 37.1616 33.3434 36.8247 33.1663L32 30.6298L27.1753 33.1663C26.8384 33.3434 26.4301 33.3139 26.1221 33.0902C25.8142 32.8664 25.66 32.4873 25.7243 32.1121L26.6458 26.7397L22.7425 22.9349C22.4699 22.6692 22.3718 22.2718 22.4894 21.9098C22.6071 21.5478 22.92 21.284 23.2967 21.2292L28.6909 20.4454L31.1033 15.5574C31.2717 15.2161 31.6194 15 32 15ZM32 18.2596L30.2517 21.802C30.106 22.0971 29.8245 22.3017 29.4988 22.349L25.5895 22.9171L28.4183 25.6745C28.6539 25.9042 28.7615 26.2352 28.7059 26.5596L28.0381 30.4531L31.5347 28.6149C31.826 28.4617 32.174 28.4617 32.4653 28.6149L35.9619 30.4531L35.2941 26.5596C35.2385 26.2352 35.3461 25.9042 35.5817 25.6745L38.4105 22.9171L34.5012 22.349C34.1755 22.3017 33.894 22.0971 33.7483 21.802L32 18.2596Z" fill="currentColor"/>
</svg>
