<svg width="64" height="64" viewBox="0 0 64 64" fill="none" xmlns="http://www.w3.org/2000/svg">
<path fill-rule="evenodd" clip-rule="evenodd" d="M32.4167 5.09094C32.1521 4.96969 31.8479 4.96969 31.5833 5.09094L4.58335 17.4659C4.22789 17.6289 4 17.984 4 18.375V23C4 23.5523 4.44772 24 5 24H6V29C6 29.5523 6.44772 30 7 30H10V49H7C6.44772 49 6 49.4477 6 50V53H5C4.44772 53 4 53.4477 4 54V58C4 58.5523 4.44772 59 5 59H59C59.5523 59 60 58.5523 60 58V54C60 53.4477 59.5523 53 59 53H58V50C58 49.4477 57.5523 49 57 49H54V30H57C57.5523 30 58 29.5523 58 29V24H59C59.5523 24 60 23.5523 60 23V18.375C60 17.984 59.7721 17.6289 59.4167 17.4659L32.4167 5.09094ZM56 24H8V28H11H19H28H36H45H53H56V24ZM57 22H58V19.0167L32 7.10003L6 19.0167V22H7H57ZM52 30H46V49H52V30ZM44 49V30H37V49H44ZM29 30H35V49H29V30ZM27 30V49H20V30H27ZM19 51H28H36H45H53H56V53H8V51H11H19ZM12 49V30H18V49H12ZM6 55H7H57H58V57H6V55Z" fill="currentColor"/>
</svg>
