<svg width="24" height="24" viewBox="0 0 24 24" fill="none" xmlns="http://www.w3.org/2000/svg">
    <path fill-rule="evenodd" clip-rule="evenodd" d="M6.16638 5.10571C5.87348 4.81282 5.39861 4.81282 5.10572 5.10571C4.81282 5.3986 4.81282 5.87348 5.10572 6.16637L10.9393 12L5.10572 17.8336C4.81282 18.1265 4.81282 18.6014 5.10572 18.8943C5.39861 19.1872 5.87348 19.1872 6.16638 18.8943L12 13.0607L17.8336 18.8943C18.1265 19.1872 18.6014 19.1872 18.8943 18.8943C19.1872 18.6014 19.1872 18.1265 18.8943 17.8336L13.0607 12L18.8943 6.16637C19.1872 5.87348 19.1872 5.3986 18.8943 5.10571C18.6014 4.81282 18.1265 4.81282 17.8336 5.10571L12 10.9393L6.16638 5.10571Z" fill="currentColor"/>
</svg>
