<svg width="64" height="64" viewBox="0 0 64 64" fill="none" xmlns="http://www.w3.org/2000/svg">
<path fill-rule="evenodd" clip-rule="evenodd" d="M15 5C12.2386 5 10 7.23858 10 10V54C10 56.7614 12.2386 59 15 59H39C41.7614 59 44 56.7614 44 54V51C44 50.4477 43.5523 50 43 50C42.4477 50 42 50.4477 42 51V54C42 55.6569 40.6569 57 39 57H15C13.3431 57 12 55.6569 12 54V10C12 8.34315 13.3431 7 15 7H39C40.6569 7 42 8.34315 42 10V22.5C42 23.0523 42.4477 23.5 43 23.5C43.5523 23.5 44 23.0523 44 22.5V10C44 7.23858 41.7614 5 39 5H15ZM18 15C18 13.8954 18.8954 13 20 13C21.1046 13 22 13.8954 22 15C22 16.1046 21.1046 17 20 17C18.8954 17 18 16.1046 18 15ZM20 11C17.7909 11 16 12.7909 16 15C16 17.2091 17.7909 19 20 19C22.2091 19 24 17.2091 24 15C24 12.7909 22.2091 11 20 11ZM20 23C19.4477 23 19 23.4477 19 24C19 24.5523 19.4477 25 20 25C20.5523 25 21 24.5523 21 24C21 23.4477 20.5523 23 20 23ZM17 24C17 22.3431 18.3431 21 20 21C21.6569 21 23 22.3431 23 24C23 25.6569 21.6569 27 20 27C18.3431 27 17 25.6569 17 24ZM36.5 31.634C36.0217 31.9101 35.8578 32.5217 36.134 33L45.134 48.5885C45.4101 49.0667 46.0217 49.2306 46.5 48.9545L57.7583 42.4545C58.2366 42.1783 58.4005 41.5667 58.1244 41.0885L49.1244 25.5C48.8482 25.0217 48.2366 24.8578 47.7583 25.134L36.5 31.634ZM46.366 46.7224L38.366 32.866L47.8923 27.366L55.8923 41.2224L46.366 46.7224ZM30.5909 44.8911L36.4303 41.5196C36.9086 41.2435 37.5202 41.4074 37.7963 41.8857C38.0725 42.3639 37.9086 42.9755 37.4303 43.2517L31.5911 46.6231L34.7231 47.4623C35.2566 47.6052 35.5732 48.1536 35.4302 48.687C35.2873 49.2205 34.739 49.5371 34.2055 49.3941L28.7414 47.93C28.2079 47.7871 27.8913 47.2387 28.0343 46.7053L29.4984 41.2412C29.6413 40.7077 30.1897 40.3911 30.7231 40.5341C31.2566 40.677 31.5732 41.2254 31.4302 41.7588L30.5909 44.8911Z" fill="currentColor"/>
</svg>
