<svg width="64" height="64" viewBox="0 0 64 64" fill="none" xmlns="http://www.w3.org/2000/svg">
<path fill-rule="evenodd" clip-rule="evenodd" d="M4 5C4 4.44772 4.44772 4 5 4H59C59.5523 4 60 4.44772 60 5V19C60 19.5523 59.5523 20 59 20H5C4.44772 20 4 19.5523 4 19V5ZM6 6V18H58V6H6ZM5 24C4.44772 24 4 24.4477 4 25V39C4 39.5523 4.44772 40 5 40H59C59.5523 40 60 39.5523 60 39V25C60 24.4477 59.5523 24 59 24H5ZM6 38V26H58V38H6ZM5 44C4.44772 44 4 44.4477 4 45V59C4 59.5523 4.44772 60 5 60H59C59.5523 60 60 59.5523 60 59V45C60 44.4477 59.5523 44 59 44H5ZM6 58V46H58V58H6ZM10 32C10 31.4477 10.4477 31 11 31C11.5523 31 12 31.4477 12 32C12 32.5523 11.5523 33 11 33C10.4477 33 10 32.5523 10 32ZM11 29C9.34315 29 8 30.3431 8 32C8 33.6569 9.34315 35 11 35C12.6569 35 14 33.6569 14 32C14 30.3431 12.6569 29 11 29ZM11 51C10.4477 51 10 51.4477 10 52C10 52.5523 10.4477 53 11 53C11.5523 53 12 52.5523 12 52C12 51.4477 11.5523 51 11 51ZM8 52C8 50.3431 9.34315 49 11 49C12.6569 49 14 50.3431 14 52C14 53.6569 12.6569 55 11 55C9.34315 55 8 53.6569 8 52ZM10 12C10 11.4477 10.4477 11 11 11C11.5523 11 12 11.4477 12 12C12 12.5523 11.5523 13 11 13C10.4477 13 10 12.5523 10 12ZM11 9C9.34315 9 8 10.3431 8 12C8 13.6569 9.34315 15 11 15C12.6569 15 14 13.6569 14 12C14 10.3431 12.6569 9 11 9ZM19 31C18.4477 31 18 31.4477 18 32C18 32.5523 18.4477 33 19 33C19.5523 33 20 32.5523 20 32C20 31.4477 19.5523 31 19 31ZM16 32C16 30.3431 17.3431 29 19 29C20.6569 29 22 30.3431 22 32C22 33.6569 20.6569 35 19 35C17.3431 35 16 33.6569 16 32ZM18 52C18 51.4477 18.4477 51 19 51C19.5523 51 20 51.4477 20 52C20 52.5523 19.5523 53 19 53C18.4477 53 18 52.5523 18 52ZM19 49C17.3431 49 16 50.3431 16 52C16 53.6569 17.3431 55 19 55C20.6569 55 22 53.6569 22 52C22 50.3431 20.6569 49 19 49ZM19 11C18.4477 11 18 11.4477 18 12C18 12.5523 18.4477 13 19 13C19.5523 13 20 12.5523 20 12C20 11.4477 19.5523 11 19 11ZM16 12C16 10.3431 17.3431 9 19 9C20.6569 9 22 10.3431 22 12C22 13.6569 20.6569 15 19 15C17.3431 15 16 13.6569 16 12ZM27 51C26.4477 51 26 51.4477 26 52C26 52.5523 26.4477 53 27 53H55C55.5523 53 56 52.5523 56 52C56 51.4477 55.5523 51 55 51H27ZM26 32C26 31.4477 26.4477 31 27 31H55C55.5523 31 56 31.4477 56 32C56 32.5523 55.5523 33 55 33H27C26.4477 33 26 32.5523 26 32ZM27 11C26.4477 11 26 11.4477 26 12C26 12.5523 26.4477 13 27 13H55C55.5523 13 56 12.5523 56 12C56 11.4477 55.5523 11 55 11H27Z" fill="currentColor"/>
</svg>
