<svg width="64" height="64" viewBox="0 0 64 64" fill="none" xmlns="http://www.w3.org/2000/svg">
<path fill-rule="evenodd" clip-rule="evenodd" d="M38 16C38 10.4772 42.4772 6 48 6C53.5229 6 58 10.4772 58 16C58 21.5228 53.5229 26 48 26C42.4772 26 38 21.5228 38 16ZM48 4C41.3726 4 36 9.37258 36 16C36 22.6274 41.3726 28 48 28C54.6274 28 60 22.6274 60 16C60 9.37258 54.6274 4 48 4ZM46.02 9C45.7548 9 45.5004 9.10536 45.3129 9.29289C45.1253 9.48043 45.02 9.73478 45.02 10V16.581V18.1073H43.5C42.9477 18.1073 42.5 18.555 42.5 19.1073C42.5 19.6596 42.9477 20.1073 43.5 20.1073H45.02V22C45.02 22.5523 45.4677 23 46.02 23C46.5723 23 47.02 22.5523 47.02 22V20.1073H52.14C52.6923 20.1073 53.14 19.6596 53.14 19.1073C53.14 18.555 52.6923 18.1073 52.14 18.1073H47.02V17.5704C48.1154 17.5423 49.3946 17.4422 50.5051 17.0928C51.2513 16.8581 52.0015 16.4875 52.5715 15.8793C53.1641 15.247 53.5 14.4227 53.5 13.4231C53.5 12.4248 53.1656 11.5948 52.59 10.9458C52.0329 10.3176 51.2951 9.90835 50.5482 9.63545C49.07 9.09536 47.3024 9 46.02 9ZM49.9049 15.185C49.0557 15.4521 48.0208 15.5411 47.02 15.5691V11.024C47.9982 11.0731 49.0234 11.2076 49.8618 11.514C50.4199 11.7179 50.8296 11.975 51.0937 12.2728C51.3394 12.5499 51.5 12.9057 51.5 13.4231C51.5 13.9393 51.3409 14.2676 51.1122 14.5117C50.861 14.7798 50.4637 15.0092 49.9049 15.185ZM6.0863 33C6.11091 32.9021 6.14229 32.8094 6.18219 32.7219C6.30579 32.4509 6.54965 32.1433 7.24241 31.9701C7.40517 31.9295 7.85946 31.8671 8.6398 31.7934C9.38918 31.7227 10.3695 31.6472 11.529 31.568C13.8469 31.4097 16.8564 31.2381 20.1167 31.061C21.7104 30.9745 23.3642 30.8866 25.0253 30.7983L25.0255 30.7983L25.0301 30.7981L25.0353 30.7978L25.0397 30.7976L25.0438 30.7973L25.0462 30.7972C29.6918 30.5504 34.3933 30.3005 37.9999 30.0682V33H6.0863ZM39.9999 33V29C39.9999 28.723 39.885 28.4585 39.6826 28.2694C39.4803 28.0803 39.2085 27.9836 38.9322 28.0023C35.2334 28.2531 30.0697 28.5274 24.9549 28.7992L24.954 28.7993L24.9524 28.7994C23.2815 28.8881 21.6158 28.9767 20.0082 29.064C16.7476 29.2411 13.7258 29.4133 11.3927 29.5726C10.2267 29.6523 9.22655 29.7291 8.45183 29.8023C7.70807 29.8725 7.09463 29.9455 6.75736 30.0299C5.50994 30.3417 4.75386 31.0341 4.36257 31.8919C4.00505 32.6756 4 33.5065 4 34V59C4 59.5523 4.44772 60 5 60H43C43.5523 60 44 59.5523 44 59V53V52V40V39V34C44 33.4477 43.5523 33 43 33H39.9999ZM31 41H42V51H31C28.2386 51 26 48.7614 26 46C26 43.2386 28.2386 41 31 41ZM31 39H42V35H38.9999H6V58H42V53H31C27.134 53 24 49.866 24 46C24 42.134 27.134 39 31 39ZM32 46C32 46.5523 31.5523 47 31 47C30.4477 47 30 46.5523 30 46C30 45.4477 30.4477 45 31 45C31.5523 45 32 45.4477 32 46ZM34 46C34 47.6569 32.6569 49 31 49C29.3431 49 28 47.6569 28 46C28 44.3431 29.3431 43 31 43C32.6569 43 34 44.3431 34 46ZM52 45H47C46.4477 45 46 45.4477 46 46C46 46.5523 46.4477 47 47 47H53C53.2652 47 53.5196 46.8946 53.7071 46.7071C53.8946 46.5196 54 46.2652 54 46V35.4142L56.2929 37.7071C56.6834 38.0976 57.3166 38.0976 57.7071 37.7071C58.0976 37.3166 58.0976 36.6834 57.7071 36.2929L53.7071 32.2929C53.3166 31.9024 52.6834 31.9024 52.2929 32.2929L48.2929 36.2929C47.9024 36.6834 47.9024 37.3166 48.2929 37.7071C48.6834 38.0976 49.3166 38.0976 49.7071 37.7071L52 35.4142V45ZM24.7071 18.2929C24.3166 17.9024 23.6834 17.9024 23.2929 18.2929L21 20.5858V15L32 15C32.5523 15 33 14.5523 33 14C33 13.4477 32.5523 13 32 13L20 13C19.4477 13 19 13.4477 19 14L19 20.5858L16.7071 18.2929C16.3166 17.9024 15.6834 17.9024 15.2929 18.2929C14.9024 18.6834 14.9024 19.3166 15.2929 19.7071L19.2929 23.7071C19.6834 24.0976 20.3166 24.0976 20.7071 23.7071L24.7071 19.7071C25.0976 19.3166 25.0976 18.6834 24.7071 18.2929Z" fill="currentColor"/>
</svg>
