<svg width="24" height="24" viewBox="0 0 24 24" fill="none" xmlns="http://www.w3.org/2000/svg">
<path fill-rule="evenodd" clip-rule="evenodd" d="M14.9052 4.83392C14.4588 4.38757 13.6882 4.3751 13.1834 4.87993L10.1782 7.88509L10.2401 7.94693L15.8969 13.6038L15.9586 13.6655L18.9638 10.6603C19.4686 10.1555 19.4562 9.38491 19.0098 8.93856L14.9052 4.83392ZM15.1383 14.9665L14.8363 14.6644L9.17943 9.00759L8.87725 8.70541L4.65818 8.95483C4.58566 8.98906 4.53603 9.05096 4.51416 9.12582C4.48802 9.21528 4.50967 9.28766 4.56118 9.33917L9.51931 14.2973L9.53317 14.3108L9.54669 14.3247L14.5046 19.2826C14.5561 19.3341 14.6285 19.3557 14.7179 19.3296C14.7928 19.3077 14.8547 19.2581 14.8889 19.1856L15.1383 14.9665ZM3.50052 10.3998L7.94201 14.8413L4.22987 18.5535C3.93698 18.8464 3.93698 19.3212 4.22987 19.6141C4.52277 19.907 4.99764 19.907 5.29053 19.6141L9.00267 15.902L13.4439 20.3432C14.4144 21.3138 16.0216 20.7832 16.3567 19.521L16.376 19.4481L16.3805 19.3729L16.6309 15.1361C16.6441 15.1089 16.6622 15.0832 16.6848 15.0607L20.0245 11.721C21.0817 10.6637 21.1354 8.94283 20.0705 7.8779L15.9658 3.77326C14.9009 2.70833 13.18 2.76199 12.1228 3.81927L8.78307 7.15894C8.7605 7.18151 8.73483 7.19959 8.70762 7.21282L4.47088 7.46328L4.39561 7.46773L4.32273 7.48708C3.06056 7.8221 2.52998 9.42929 3.50052 10.3998Z" fill="currentColor"/>
</svg>
