<svg width="64" height="64" viewBox="0 0 64 64" fill="none" xmlns="http://www.w3.org/2000/svg">
<path fill-rule="evenodd" clip-rule="evenodd" d="M7 9C5.34315 9 4 10.3431 4 12V16V28C4 29.6569 5.34315 31 7 31H33C34.6569 31 36 29.6569 36 28V16V12C36 10.3431 34.6569 9 33 9H7ZM6 28V17L34 17V28C34 28.5523 33.5523 29 33 29H7C6.44772 29 6 28.5523 6 28ZM6 15L34 15V12C34 11.4477 33.5523 11 33 11H7C6.44772 11 6 11.4477 6 12V15ZM8 19C7.44772 19 7 19.4477 7 20C7 20.5523 7.44772 21 8 21H16C16.5523 21 17 20.5523 17 20C17 19.4477 16.5523 19 16 19H8ZM31 33C29.3431 33 28 34.3431 28 36V40V52C28 53.6569 29.3431 55 31 55H57C58.6569 55 60 53.6569 60 52V40V36C60 34.3431 58.6569 33 57 33H31ZM58 39V36C58 35.4477 57.5523 35 57 35H31C30.4477 35 30 35.4477 30 36V39L58 39ZM30 41L58 41V52C58 52.5523 57.5523 53 57 53H31C30.4477 53 30 52.5523 30 52V41ZM31 44C31 43.4477 31.4477 43 32 43H40C40.5523 43 41 43.4477 41 44C41 44.5523 40.5523 45 40 45H32C31.4477 45 31 44.5523 31 44ZM38 15C38 14.4477 38.4477 14 39 14H49C49.5523 14 50 14.4477 50 15V25.5858L52.2929 23.2929C52.6834 22.9024 53.3166 22.9024 53.7071 23.2929C54.0976 23.6834 54.0976 24.3166 53.7071 24.7071L49.7071 28.7071C49.3166 29.0976 48.6834 29.0976 48.2929 28.7071L44.2929 24.7071C43.9024 24.3166 43.9024 23.6834 44.2929 23.2929C44.6834 22.9024 45.3166 22.9024 45.7071 23.2929L48 25.5858V16H39C38.4477 16 38 15.5523 38 15ZM26 49C26 49.5523 25.5523 50 25 50H15C14.4477 50 14 49.5523 14 49L14 38.4142L11.7071 40.7071C11.3166 41.0976 10.6834 41.0976 10.2929 40.7071C9.90237 40.3166 9.90237 39.6834 10.2929 39.2929L14.2929 35.2929C14.6834 34.9024 15.3166 34.9024 15.7071 35.2929L19.7071 39.2929C20.0976 39.6834 20.0976 40.3166 19.7071 40.7071C19.3166 41.0976 18.6834 41.0976 18.2929 40.7071L16 38.4142L16 48H25C25.5523 48 26 48.4477 26 49Z" fill="currentColor"/>
</svg>
