<svg width="64" height="64" viewBox="0 0 64 64" fill="none" xmlns="http://www.w3.org/2000/svg">
<path fill-rule="evenodd" clip-rule="evenodd" d="M10 5C10 4.44772 10.4477 4 11 4H48C48.5523 4 49 4.44772 49 5V38C49 38.0894 48.9883 38.176 48.9663 38.2584C52.0277 40.4542 54 44.0319 54 48C54 54.5285 48.6614 60 41.9173 60C37.121 60 32.9924 57.0952 31.1011 53L11 53C10.4477 53 10 52.5523 10 52V5ZM47 6V37.1119C45.4602 36.3997 43.7401 36 41.9173 36C35.1535 36 30 41.4914 30 48C30 49.0319 30.1335 50.0377 30.3844 51L12 51V6H47ZM41.9173 38C36.3026 38 32 42.5509 32 48C32 53.4391 36.4582 58 41.9173 58C47.5516 58 52 53.4292 52 48C52 42.5708 47.5516 38 41.9173 38ZM16.8979 16.1827C16.3457 16.1827 15.8979 16.6305 15.8979 17.1827C15.8979 17.735 16.3457 18.1827 16.8979 18.1827H41.5775C42.1298 18.1827 42.5775 17.735 42.5775 17.1827C42.5775 16.6305 42.1298 16.1827 41.5775 16.1827H16.8979ZM15.8979 22.4385C15.8979 21.8862 16.3457 21.4385 16.8979 21.4385H41.5775C42.1298 21.4385 42.5775 21.8862 42.5775 22.4385C42.5775 22.9908 42.1298 23.4385 41.5775 23.4385H16.8979C16.3457 23.4385 15.8979 22.9908 15.8979 22.4385ZM16.8979 26.856C16.3457 26.856 15.8979 27.3037 15.8979 27.856C15.8979 28.4082 16.3457 28.856 16.8979 28.856H33.2915C33.8437 28.856 34.2915 28.4082 34.2915 27.856C34.2915 27.3037 33.8437 26.856 33.2915 26.856H16.8979ZM15.8979 33.2736C15.8979 32.7213 16.3457 32.2736 16.8979 32.2736H27.9323C28.4846 32.2736 28.9323 32.7213 28.9323 33.2736C28.9323 33.8258 28.4846 34.2736 27.9323 34.2736H16.8979C16.3457 34.2736 15.8979 33.8258 15.8979 33.2736ZM47.1507 44.7027C47.5388 44.3097 47.5348 43.6765 47.1419 43.2885C46.7489 42.9004 46.1157 42.9044 45.7277 43.2973L37.2885 51.843C36.9004 52.236 36.9044 52.8692 37.2973 53.2572C37.6903 53.6453 38.3235 53.6413 38.7115 53.2484L47.1507 44.7027ZM36 45C36 43.1481 37.4401 42 38.8905 42C39.6826 42 40.461 42.2495 41.0541 42.7826C41.66 43.3272 42 44.1046 42 45C42 45.8954 41.66 46.6728 41.0541 47.2174C40.461 47.7505 39.6826 48 38.8905 48C37.4135 48 36 46.8454 36 45ZM38.8905 44C38.4704 44 38 44.3256 38 45C38 45.6809 38.4572 46 38.8905 46C39.2726 46 39.5489 45.8811 39.7171 45.73C39.8724 45.5904 40 45.3677 40 45C40 44.6323 39.8724 44.4096 39.7171 44.27C39.5489 44.1189 39.2726 44 38.8905 44ZM46 48C45.1045 48 44.3272 48.34 43.7826 48.9459C43.2495 49.539 43 50.3174 43 51.1095C43 52.5599 44.1481 54 46 54C47.8172 54 49 52.5939 49 51.1095C49 50.3174 48.7505 49.539 48.2174 48.9459C47.6728 48.34 46.8954 48 46 48ZM45 51.1095C45 50.7274 45.1189 50.4511 45.27 50.2829C45.4096 50.1276 45.6323 50 46 50C46.3677 50 46.5904 50.1276 46.73 50.2829C46.8811 50.4511 47 50.7274 47 51.1095C47 51.5355 46.667 52 46 52C45.3256 52 45 51.5296 45 51.1095Z" fill="currentColor"/>
</svg>
