<svg width="16" height="16" viewBox="0 0 16 16" fill="none" xmlns="http://www.w3.org/2000/svg">
    <path fill-rule="evenodd" clip-rule="evenodd" d="M8 2.25C8.41421 2.25 8.75 2.58579 8.75 3L8.75 8.89872L10.5199 7.42384C10.8381 7.15866 11.311 7.20165 11.5762 7.51986C11.8413 7.83807 11.7983 8.31099 11.4801 8.57617L8.48014 11.0762C8.202 11.308 7.798 11.308 7.51986 11.0762L4.51986 8.57617C4.20165 8.31099 4.15866 7.83807 4.42383 7.51986C4.68901 7.20165 5.16193 7.15866 5.48014 7.42383L7.25 8.89872L7.25 3C7.25 2.58579 7.58579 2.25 8 2.25ZM13 13.75C13.4142 13.75 13.75 13.4142 13.75 13C13.75 12.5858 13.4142 12.25 13 12.25H8H3C2.58579 12.25 2.25 12.5858 2.25 13C2.25 13.4142 2.58579 13.75 3 13.75H8H13Z" fill="currentColor"/>
</svg>
