<svg width="64" height="64" viewBox="0 0 64 64" fill="none" xmlns="http://www.w3.org/2000/svg">
<path fill-rule="evenodd" clip-rule="evenodd" d="M6.00002 13.5C6.00002 10.4624 8.46245 8 11.5 8C14.5376 8 17 10.4624 17 13.5C17 16.5376 14.5376 19 11.5 19C8.46245 19 6.00002 16.5376 6.00002 13.5ZM11.5 6C7.35788 6 4.00002 9.35786 4.00002 13.5C4.00002 17.6421 7.35788 21 11.5 21C15.6422 21 19 17.6421 19 13.5C19 9.35786 15.6422 6 11.5 6ZM32.6485 14.2388C32.2748 13.9204 31.7253 13.9204 31.3516 14.2388L4.35155 37.2388C3.93113 37.5969 3.88064 38.228 4.23878 38.6485C4.59691 39.0689 5.22806 39.1194 5.64849 38.7612L10 35.0544L10 56H5.00002C4.44773 56 4.00002 56.4477 4.00002 57C4.00002 57.5523 4.44773 58 5.00002 58H11H53H59C59.5523 58 60 57.5523 60 57C60 56.4477 59.5523 56 59 56H54V35.0544L58.3516 38.7612C58.772 39.1194 59.4031 39.0689 59.7613 38.6485C60.1194 38.228 60.0689 37.5969 59.6485 37.2388L51 29.8715V17C51 16.4477 50.5523 16 50 16H43C42.4477 16 42 16.4477 42 17V22.2049L32.6485 14.2388ZM43.9356 23.8537L49 28.1678V18H44V23.5C44 23.6245 43.9773 23.7438 43.9356 23.8537ZM52 56V33.3507L32 16.3136L12 33.3507L12 56H52ZM34 38C34 37.4477 34.4477 37 35 37H41H47C47.5523 37 48 37.4477 48 38V44V50C48 50.5523 47.5523 51 47 51H41H35C34.4477 51 34 50.5523 34 50V44V38ZM42 45H46V49H42V45ZM46 43H42V39H46V43ZM36 43H40V39H36V43ZM36 45H40V49H36V45ZM16 38C16 37.4477 16.4477 37 17 37H23H29C29.5523 37 30 37.4477 30 38V44V50C30 50.5523 29.5523 51 29 51H23H17C16.4477 51 16 50.5523 16 50V44V38ZM24 45H28V49H24V45ZM28 43H24V39H28V43ZM18 43H22V39H18V43ZM18 45H22V49H18V45Z" fill="currentColor"/>
</svg>
