<svg width="24" height="24" viewBox="0 0 24 24" fill="none" xmlns="http://www.w3.org/2000/svg">
<path fill-rule="evenodd" clip-rule="evenodd" d="M20 6H4C3.72386 6 3.5 6.22386 3.5 6.5V8H20.5V6.5C20.5 6.22386 20.2761 6 20 6ZM3.5 17.5V9.5H20.5V17.5C20.5 17.7761 20.2761 18 20 18H4C3.72386 18 3.5 17.7761 3.5 17.5ZM4 4.5C2.89543 4.5 2 5.39543 2 6.5V17.5C2 18.6046 2.89543 19.5 4 19.5H20C21.1046 19.5 22 18.6046 22 17.5V6.5C22 5.39543 21.1046 4.5 20 4.5H4ZM14 14.75C13.5858 14.75 13.25 15.0858 13.25 15.5C13.25 15.9142 13.5858 16.25 14 16.25H18C18.4142 16.25 18.75 15.9142 18.75 15.5C18.75 15.0858 18.4142 14.75 18 14.75H14Z" fill="currentColor"/>
</svg>
