<svg width="64" height="64" viewBox="0 0 64 64" fill="none" xmlns="http://www.w3.org/2000/svg">
<path fill-rule="evenodd" clip-rule="evenodd" d="M59.6669 7.25486C59.8789 7.44456 60 7.71555 60 8V27C60 27.5523 59.5523 28 59 28H50.0044C49.4521 28 49.0044 27.5523 49.0044 27V25.469C45.7218 26.7089 42.0445 27.7381 39.2697 28.2933C38.3724 28.4729 37.1211 28.4783 35.7265 28.3991C34.3082 28.3186 32.6539 28.1442 30.9082 27.9257C28.921 27.6769 26.7589 27.3628 24.6713 27.0596L24.671 27.0596C23.126 26.8352 21.622 26.6167 20.26 26.435C20.1994 26.4269 20.1393 26.4177 20.0797 26.4074C19.6467 26.6279 19.2142 26.8659 18.7653 27.1128L18.7652 27.1129C18.6386 27.1825 18.5108 27.2529 18.3812 27.3238C17.7558 27.666 17.1001 28.0153 16.4341 28.3068C15.1117 28.8856 13.6173 29.2969 12.0542 28.9059C10.8996 28.6172 10.2306 27.9234 9.84345 27.522L9.84333 27.5218C9.82923 27.5072 9.8155 27.493 9.80214 27.4792L9.75972 27.5075C9.23147 27.8976 8.41667 28.2978 7.52983 28.4072C6.59521 28.5226 5.48728 28.3146 4.67379 27.3247C3.78566 26.2441 3.91295 24.9635 4.2783 24.0074C4.64106 23.0581 5.30203 22.2208 5.88067 21.7345L5.8807 21.7344C8.49006 19.5416 12.4776 16.3658 16.1963 13.733C18.0538 12.4179 19.8623 11.2254 21.4077 10.3574C22.1798 9.92384 22.9042 9.56106 23.548 9.30412C24.1699 9.05596 24.8066 8.86902 25.374 8.86902C26.4672 8.86902 27.9924 9.22148 29.6075 9.69844C31.2549 10.1849 33.1087 10.8365 34.9057 11.5009C36.1653 11.9666 37.4096 12.4434 38.5406 12.8768L38.5413 12.8771L38.5416 12.8772C39.0226 13.0615 39.483 13.2379 39.9154 13.4023C41.3982 13.966 42.5008 14.3679 43.0525 14.5058C43.3493 14.5801 43.7795 14.5779 44.345 14.4648C44.8994 14.3539 45.5165 14.1503 46.1514 13.8893C47.1955 13.4602 48.2243 12.9028 49.0044 12.4385V9C49.0044 8.49048 49.3875 8.06242 49.8939 8.00613L58.8895 7.00613C59.1723 6.9747 59.455 7.06516 59.6669 7.25486ZM11.4989 26.3475C11.7938 26.6337 12.074 26.8493 12.5395 26.9657C13.4671 27.1977 14.4636 26.9861 15.6321 26.4746C16.2115 26.221 16.8012 25.9084 17.4212 25.5692C17.5409 25.5037 17.6622 25.437 17.7846 25.3696C17.8185 25.351 17.8524 25.3323 17.8865 25.3136C17.2715 24.7022 16.9013 23.8858 16.9013 22.9518C16.9013 22.8824 16.9029 22.812 16.9061 22.741L11.4989 26.3475ZM25.226 19.4598H21.8268C22.5549 19.0804 23.0477 18.9679 23.5058 18.9679C24.1782 18.9679 24.7171 19.1453 25.226 19.4598ZM33.4689 21.4598H27.875H27.8545H20.392C19.6987 21.4598 19.3805 21.6794 19.2146 21.8786C19.0219 22.1099 18.9013 22.4773 18.9013 22.9518C18.9013 23.6013 19.3986 24.3024 20.5244 24.4526C21.947 24.6423 23.4634 24.8628 25.0069 25.0873L25.007 25.0873L25.0075 25.0873L25.0077 25.0874C27.0619 25.3861 29.1641 25.6917 31.1566 25.9412C32.8848 26.1575 34.4878 26.3256 35.8399 26.4023C37.2158 26.4805 38.2481 26.4581 38.8773 26.3322C41.7527 25.7569 45.6654 24.644 49.0042 23.3252V14.7376C48.3638 15.0833 47.6459 15.4375 46.9117 15.7392C46.2047 16.0297 45.4591 16.2816 44.7372 16.4259C44.0264 16.5681 43.2667 16.621 42.5672 16.4461C41.8734 16.2726 40.6409 15.8178 39.2047 15.2718C38.7631 15.1039 38.2972 14.9254 37.8131 14.7399C36.6863 14.3081 35.4607 13.8384 34.2121 13.3768C32.4286 12.7174 30.624 12.084 29.041 11.6166C27.4258 11.1396 26.1488 10.869 25.374 10.869C25.194 10.869 24.8434 10.9405 24.2893 11.1617C23.7572 11.374 23.1169 11.6914 22.3871 12.1013C20.9288 12.9202 19.1846 14.0678 17.3519 15.3653C13.6902 17.9578 9.74732 21.0975 7.16743 23.2656C6.82605 23.5525 6.37782 24.1161 6.14656 24.7213C5.91788 25.3198 5.96632 25.7475 6.21894 26.0549C6.48219 26.3752 6.82766 26.4787 7.28482 26.4223C7.77628 26.3616 8.28037 26.1172 8.58325 25.89C8.59805 25.8788 8.61316 25.8682 8.62856 25.8579L17.9462 19.6433C20.4039 17.8009 21.8923 16.9679 23.5058 16.9679C25.7766 16.9679 27.1611 18.3283 28.2812 19.4598H33.4689C34.0212 19.4598 34.4689 19.9076 34.4689 20.4598C34.4689 21.0121 34.0212 21.4598 33.4689 21.4598ZM51.0044 24.0276C51.0049 24.009 51.0049 23.9904 51.0044 23.9717V9.895L58 9.11733V26H51.0044V24.0276ZM26 31C26 30.4477 26.4477 30 27 30H31H35C35.5523 30 36 30.4477 36 31C36 31.5523 35.5523 32 35 32H32V35.0293C35.859 35.2557 39.5219 36.787 42.2889 39.3695C45.2963 42.1763 47 45.9986 47 50C47 50.5523 46.5523 51 46 51L42 51V53H46C46.5523 53 47 53.4477 47 54V59C47 59.5523 46.5523 60 46 60H16C15.4477 60 15 59.5523 15 59V54C15 53.4477 15.4477 53 16 53H20V51H16C15.7348 51 15.4804 50.8946 15.2929 50.7071C15.1053 50.5196 15 50.2652 15 50C15 45.9986 16.7037 42.1763 19.7111 39.3695C22.478 36.787 26.141 35.2557 30 35.0293V32H27C26.4477 32 26 31.5523 26 31ZM31 37C27.2655 37 23.6967 38.3852 21.0757 40.8316C18.7129 43.0368 17.2959 45.9384 17.0415 49L31 49H44.9585C44.704 45.9384 43.287 43.0368 40.9243 40.8316C38.3032 38.3852 34.7344 37 31 37ZM40 51L31 51L22 51V53H40V51ZM17 58V55H45V58H17Z" fill="currentColor"/>
</svg>
