<svg xmlns="http://www.w3.org/2000/svg" width="24" height="24" viewBox="0 0 24 24" fill="none">
    <path fill-rule="evenodd" clip-rule="evenodd" d="M4.4648 11.4746C4.39531 11.5453 4.34268 11.6265 4.30691 11.7129L4.4648 11.4746ZM4.47027 11.4691L10.4697 5.46967C10.7626 5.17678 11.2374 5.17678 11.5303 5.46967C11.8232 5.76256 11.8232 6.23744 11.5303 6.53033L6.81066 11.25L19 11.25C19.4142 11.25 19.75 11.5858 19.75 12C19.75 12.4142 19.4142 12.75 19 12.75L6.81066 12.75L11.5303 17.4697C11.8232 17.7626 11.8232 18.2374 11.5303 18.5303C11.2374 18.8232 10.7626 18.8232 10.4697 18.5303L4.46967 12.5303C4.39776 12.4584 4.34351 12.3755 4.30691 12.2871C4.27024 12.1987 4.25 12.1017 4.25 12C4.25 11.8983 4.27024 11.8013 4.30691 11.7129" fill="currentColor"/>
</svg>