<svg width="64" height="64" viewBox="0 0 64 64" fill="none" xmlns="http://www.w3.org/2000/svg">
<path fill-rule="evenodd" clip-rule="evenodd" d="M32 6C17.6406 6 6 17.6406 6 32C6 46.3594 17.6406 58 32 58C46.3594 58 58 46.3594 58 32C58 17.6406 46.3594 6 32 6ZM4 32C4 16.536 16.536 4 32 4C47.464 4 60 16.536 60 32C60 47.464 47.464 60 32 60C16.536 60 4 47.464 4 32ZM32 13C21.5066 13 13 21.5066 13 32C13 42.4934 21.5066 51 32 51C42.4934 51 51 42.4934 51 32C51 21.5066 42.4934 13 32 13ZM11 32C11 20.402 20.402 11 32 11C43.598 11 53 20.402 53 32C53 43.598 43.598 53 32 53C20.402 53 11 43.598 11 32ZM24 32C24 31.3118 24.0745 30.6426 24.2154 30H33C33.5523 30 34 29.5523 34 29C34 28.4477 33.5523 28 33 28H24.9048C26.3349 25.0281 29.3074 23 32.7143 23C35.3061 23 37.639 24.1681 39.2408 26.0363C39.6003 26.4556 40.2316 26.5041 40.6509 26.1446C41.0702 25.7851 41.1186 25.1538 40.7592 24.7345C38.801 22.4507 35.9252 21 32.7143 21C28.1548 21 24.2864 23.9135 22.7313 28H20C19.4477 28 19 28.4477 19 29C19 29.5523 19.4477 30 20 30H22.1771C22.0607 30.649 22 31.3175 22 32C22 33.0388 22.1407 34.0454 22.404 35H20C19.4477 35 19 35.4477 19 36C19 36.5523 19.4477 37 20 37H23.1693C24.9385 40.5536 28.5363 43 32.7143 43C35.9252 43 38.801 41.5493 40.7592 39.2655C41.1186 38.8462 41.0702 38.2149 40.6509 37.8554C40.2316 37.4959 39.6003 37.5444 39.2408 37.9637C37.639 39.8319 35.3061 41 32.7143 41C29.7049 41 27.0345 39.4175 25.4666 37H33C33.5523 37 34 36.5523 34 36C34 35.4477 33.5523 35 33 35H24.495C24.1746 34.063 24 33.0537 24 32Z" fill="currentColor"/>
</svg>
