<svg width="64" height="64" viewBox="0 0 64 64" fill="none" xmlns="http://www.w3.org/2000/svg">
<path fill-rule="evenodd" clip-rule="evenodd" d="M31 10L31.0002 10.0196C27.8308 10.1443 24.813 10.859 22.0536 12.0569L20.616 9.56696C20.3399 9.08867 19.7283 8.9248 19.25 9.20094C18.7717 9.47708 18.6078 10.0887 18.884 10.567L20.2477 12.929C18.064 14.0942 16.0736 15.5739 14.3369 17.3078L14.3222 17.3222L14.3078 17.3369C9.79222 21.8598 7 28.1038 7 35C7 41.8979 9.79367 48.1434 14.3113 52.6666L14.3222 52.6777L14.3332 52.6886C18.8565 57.2063 25.102 60 32 60C38.9001 60 45.1473 57.2046 49.6708 52.6845L49.6777 52.6777L49.6845 52.6708C54.2046 48.1473 57 41.9001 57 35C57 28.0999 54.2046 21.8526 49.6844 17.3291L49.6777 17.3223L49.6709 17.3156C47.9324 15.5784 45.9393 14.0959 43.7523 12.929L45.116 10.567C45.3922 10.0887 45.2283 9.47708 44.75 9.20094C44.2717 8.92479 43.6601 9.08867 43.384 9.56696L41.9464 12.0569C39.187 10.859 36.1692 10.1443 32.9998 10.0196L33 10V6H36C36.5523 6 37 5.55228 37 5C37 4.44772 36.5523 4 36 4H32H28C27.4477 4 27 4.44772 27 5C27 5.55228 27.4477 6 28 6H31V10ZM15.0447 19.4589C11.5009 23.3232 9.2608 28.4025 9.02135 34H13C13.5523 34 14 34.4477 14 35C14 35.5523 13.5523 36 13 36H9.02135C9.2608 41.5975 11.5009 46.6768 15.0447 50.541L17.8577 47.7279C18.2482 47.3374 18.8814 47.3374 19.2719 47.7279C19.6625 48.1185 19.6625 48.7516 19.2719 49.1422L16.4589 51.9552C20.3231 55.4991 25.4025 57.7392 31 57.9787V54C31 53.4477 31.4477 53 32 53C32.5523 53 33 53.4477 33 54V57.9787C38.5975 57.7392 43.6768 55.4991 47.5411 51.9553L44.728 49.1422C44.3374 48.7516 44.3374 48.1185 44.728 47.728C45.1185 47.3374 45.7516 47.3374 46.1422 47.728L48.9553 50.5411C52.4991 46.6768 54.7392 41.5975 54.9787 36H51C50.4477 36 50 35.5523 50 35C50 34.4477 50.4477 34 51 34H54.9787C54.7392 28.4025 52.4991 23.3232 48.9553 19.4589L46.1422 22.272C45.7516 22.6626 45.1185 22.6626 44.728 22.272C44.3374 21.8815 44.3374 21.2484 44.728 20.8578L47.5411 18.0447C43.6768 14.5009 38.5975 12.2608 33 12.0213V16C33 16.5523 32.5523 17 32 17C31.4477 17 31 16.5523 31 16V12.0213C25.4025 12.2608 20.3232 14.5009 16.4589 18.0447L19.2719 20.8577C19.6625 21.2482 19.6625 21.8814 19.2719 22.2719C18.8814 22.6625 18.2482 22.6625 17.8577 22.2719L15.0447 19.4589ZM33 31.126V22C33 21.4477 32.5523 21 32 21C31.4477 21 31 21.4477 31 22V31.126C29.2748 31.5701 28 33.1362 28 35C28 37.2091 29.7909 39 32 39C34.2091 39 36 37.2091 36 35C36 33.1362 34.7252 31.5701 33 31.126ZM32 33C30.8954 33 30 33.8954 30 35C30 36.1046 30.8954 37 32 37C33.1046 37 34 36.1046 34 35C34 33.8954 33.1046 33 32 33Z" fill="currentColor"/>
</svg>
