<svg width="24" height="24" viewBox="0 0 24 24" fill="none" xmlns="http://www.w3.org/2000/svg">
    <path fill-rule="evenodd" clip-rule="evenodd" d="M18.5 10C18.5 10.8026 18.2166 11.8821 17.6612 13.1283C17.1163 14.3508 16.3585 15.6254 15.5298 16.7845C14.6993 17.9461 13.8277 18.9497 13.0756 19.6448C12.6978 19.994 12.3804 20.2371 12.1392 20.3836C12.0826 20.418 12.0363 20.4433 12 20.4617C11.9637 20.4433 11.9174 20.418 11.8608 20.3836C11.6196 20.2371 11.3022 19.994 10.9244 19.6448C10.1723 18.9497 9.30072 17.9461 8.47022 16.7845C7.64151 15.6254 6.88373 14.3508 6.33882 13.1283C5.78336 11.8821 5.5 10.8026 5.5 10C5.5 6.41015 8.41015 3.5 12 3.5C15.5899 3.5 18.5 6.41015 18.5 10ZM20 10C20 14.4183 14 22 12 22C10 22 4 14.4183 4 10C4 5.58172 7.58172 2 12 2C16.4183 2 20 5.58172 20 10ZM12 11C12.5523 11 13 10.5523 13 10C13 9.44772 12.5523 9 12 9C11.4477 9 11 9.44772 11 10C11 10.5523 11.4477 11 12 11Z" fill="currentColor"/>
</svg>
