<svg width="64" height="64" viewBox="0 0 64 64" fill="none" xmlns="http://www.w3.org/2000/svg">
<path fill-rule="evenodd" clip-rule="evenodd" d="M4 32C4 16.8171 16.4465 4.2319 31.5806 4.00317C31.6558 4.00106 31.7312 4 31.8068 4L31.875 4.00028L32 4C47.4855 4 60 16.681 60 32C60 47.4779 47.6444 60 32 60L31.8743 59.9997L31.8068 60C31.7263 60 31.646 59.9989 31.5659 59.9967C16.4459 59.7659 4 47.5001 4 32ZM17.0114 31H6.01947C6.46582 19.549 14.5395 9.85048 25.2331 6.91197C24.171 7.89892 23.173 9.10289 22.2372 10.4706C21.9253 10.9264 22.042 11.5488 22.4978 11.8606C22.9536 12.1725 23.576 12.0558 23.8878 11.6C26.1818 8.24704 28.5626 6.39053 31 6.05535V20.0849C29.8358 20.0352 28.6401 19.9218 27.5992 19.8062C27.0503 19.7452 26.5559 20.1407 26.4949 20.6896C26.4339 21.2385 26.8294 21.7329 27.3783 21.7939C28.4561 21.9137 29.7363 22.0358 31 22.0866V31H19.0119C19.0466 29.5155 19.1527 28.0976 19.2679 26.5586L19.3041 26.0741C19.345 25.5233 18.9317 25.0437 18.3809 25.0027C17.8301 24.9618 17.3505 25.3751 17.3096 25.9259L17.2726 26.4205L17.2726 26.4205L17.2726 26.4206C17.1571 27.9632 17.0465 29.4402 17.0114 31ZM33 22.0981V31H38.3779C38.9302 31 39.3779 31.4477 39.3779 32C39.3779 32.5523 38.9302 33 38.3779 33H33V42.0575C36.4709 42.165 39.8887 42.9327 43.0589 44.2904C43.4375 42.9111 43.7584 41.4548 44.0138 39.9343C44.1053 39.3897 44.621 39.0223 45.1657 39.1138C45.7103 39.2053 46.0777 39.721 45.9862 40.2657C45.7002 41.9679 45.3335 43.6045 44.8936 45.1565C47.1748 46.3369 49.2979 47.8364 51.1827 49.6259C55.2215 45.2235 57.7431 39.4124 57.9815 33H53.7779C53.2256 33 52.7779 32.5523 52.7779 32C52.7779 31.4477 53.2256 31 53.7779 31H57.9808C57.7383 24.6942 55.2127 18.921 51.1982 14.515C49.3148 16.3059 47.193 17.807 44.9129 18.9891C45.3708 20.6998 45.7339 22.5118 45.9909 24.4005C46.0653 24.9477 45.682 25.4517 45.1348 25.5262C44.5876 25.6006 44.0836 25.2173 44.0091 24.6701C43.7801 22.9864 43.4644 21.3769 43.0736 19.8589C39.8992 21.2205 36.4763 21.9905 33 22.0981ZM27.2718 42.3794C28.4295 42.1221 29.7601 42.0624 31 42.0486V33H19.0102C19.0465 34.8044 19.174 36.5043 19.3036 38.1139C19.3479 38.6644 18.9376 39.1466 18.3871 39.1909C17.8365 39.2352 17.3544 38.8249 17.31 38.2743C17.1793 36.6501 17.0465 34.8871 17.0099 33H6.01867C6.45308 44.6134 14.4236 54.1075 25.023 57.0523C23.9828 56.0648 23.038 54.8591 22.2064 53.4815C21.921 53.0087 22.0729 52.394 22.5457 52.1086C23.0185 51.8232 23.6332 51.9751 23.9186 52.4479C25.9156 55.7558 28.3998 57.6293 31 57.9503V44.0492C29.8126 44.0632 28.6674 44.118 27.7057 44.3317C27.1666 44.4515 26.6324 44.1116 26.5126 43.5725C26.3928 43.0333 26.7327 42.4992 27.2718 42.3794ZM42.4762 46.2176C39.4963 44.9109 36.2739 44.1679 33 44.0585V57.8817C35.1884 57.4471 37.3195 55.8206 39.1895 53.094C40.4683 51.2295 41.5866 48.8999 42.4762 46.2176ZM40.8389 54.2252C42.1966 52.2456 43.363 49.8306 44.2901 47.0989C46.2736 48.1604 48.1227 49.4839 49.7743 51.0466C46.5885 54.0207 42.6413 56.1975 38.2297 57.2638C39.1709 56.4101 40.044 55.3841 40.8389 54.2252ZM44.334 17.0331C46.3095 15.971 48.1509 14.6486 49.7958 13.0886C46.615 10.0898 42.6814 7.87642 38.3079 6.77734C39.2914 7.67347 40.1992 8.75697 41.0184 9.98358C42.3354 11.9556 43.4579 14.3427 44.334 17.0331ZM42.5181 17.9196C39.5265 19.2377 36.2893 19.9872 33 20.097V6.11683C35.2599 6.55983 37.4596 8.2561 39.3552 11.0944C40.6008 12.9594 41.6791 15.2708 42.5181 17.9196ZM47 30.7556C47 30.2033 46.5523 29.7556 46 29.7556C45.4477 29.7556 45 30.2033 45 30.7556V33.8667C45 34.419 45.4477 34.8667 46 34.8667C46.5523 34.8667 47 34.419 47 33.8667V30.7556ZM16.689 18.3111C16.689 16.4268 18.3174 15.1333 20.0223 15.1333C21.7272 15.1333 23.3556 16.4268 23.3556 18.3111C23.3556 20.1078 21.819 21.6444 20.0223 21.6444C18.2256 21.6444 16.689 20.1078 16.689 18.3111ZM20.0223 17.1333C19.2383 17.1333 18.689 17.7065 18.689 18.3111C18.689 19.0032 19.3301 19.6444 20.0223 19.6444C20.7145 19.6444 21.3556 19.0032 21.3556 18.3111C21.3556 17.7065 20.8063 17.1333 20.0223 17.1333ZM20.0223 42.1333C18.3174 42.1333 16.689 43.4268 16.689 45.3111C16.689 47.1078 18.2256 48.6444 20.0223 48.6444C21.819 48.6444 23.3556 47.1078 23.3556 45.3111C23.3556 43.4268 21.7272 42.1333 20.0223 42.1333ZM18.689 45.3111C18.689 44.7065 19.2383 44.1333 20.0223 44.1333C20.8063 44.1333 21.3556 44.7065 21.3556 45.3111C21.3556 46.0032 20.7145 46.6444 20.0223 46.6444C19.3301 46.6444 18.689 46.0032 18.689 45.3111Z" fill="currentColor"/>
</svg>
