<svg width="64" height="64" viewBox="0 0 64 64" fill="none" xmlns="http://www.w3.org/2000/svg">
<path d="M11 36C11.5523 36 12 35.5523 12 35L12 7.41421L15.2929 10.7071C15.6834 11.0976 16.3166 11.0976 16.7071 10.7071C17.0976 10.3166 17.0976 9.68342 16.7071 9.29289L11.7079 4.29369L11.7006 4.2864C11.5201 4.10925 11.2728 4 11 4C10.8644 4 10.7351 4.02699 10.6172 4.07588C10.4993 4.12468 10.3888 4.19702 10.2929 4.29289L5.29289 9.29289C4.90237 9.68342 4.90237 10.3166 5.29289 10.7071C5.68342 11.0976 6.31658 11.0976 6.70711 10.7071L10 7.41421L10 35C10 35.5523 10.4477 36 11 36Z" fill="currentColor"/>
<path fill-rule="evenodd" clip-rule="evenodd" d="M22.97 44.5742C22.4054 41.9124 22.0707 39.0218 22.01 36H15C14.4477 36 14 35.5523 14 35C14 34.4477 14.4477 34 15 34H22.01C22.0707 30.9783 22.4054 28.0876 22.97 25.4259C19.8713 24.5535 17.1658 23.3498 15.0406 21.8948C14.9941 21.8715 14.9489 21.8443 14.9053 21.8131C14.4562 21.4916 14.3528 20.8669 14.6744 20.4179C15.4514 19.3325 16.3251 18.2968 17.2952 17.3232C22.1636 12.4371 28.5784 9.99605 34.9918 10L35 10L35.0252 10C41.4172 10.0124 47.8053 12.4535 52.6574 17.3232C62.374 27.075 62.5225 43.0348 52.6526 52.6816C47.8019 57.5473 41.4173 59.9867 35.0285 59.9999L35 60L34.9907 60C28.5786 60.0036 22.1654 57.5634 17.2976 52.6792C13.7444 49.1603 11.4892 44.7972 10.5311 40.2042C10.4183 39.6635 10.7652 39.1338 11.3058 39.0211C11.8465 38.9083 12.3762 39.2551 12.4889 39.7958C13.0651 42.5581 14.1502 45.2266 15.7441 47.6461C17.7505 46.396 20.2036 45.3531 22.97 44.5742ZM28.9519 57.2035C25.1943 56.1904 21.6472 54.211 18.712 51.2651L18.7072 51.2603C18.0658 50.6254 17.4705 49.9605 16.9211 49.2698C18.7105 48.1738 20.9184 47.2362 23.4347 46.5213C24.0126 48.6919 24.7503 50.6777 25.6203 52.4178C26.5573 54.2918 27.6777 55.9323 28.9519 57.2035ZM25.3733 46.0289C25.9177 48.0682 26.6067 49.9185 27.4091 51.5233C29.2688 55.2427 31.6087 57.423 34 57.9002V45.0105C30.9205 45.0749 28.0093 45.435 25.3733 46.0289ZM34 43.0101C30.786 43.0747 27.716 43.4495 24.9104 44.0831C24.3867 41.5897 24.0704 38.866 24.0104 36H34V43.0101ZM36 45.0104V57.9002C38.3913 57.423 40.7312 55.2427 42.5909 51.5233C43.3933 49.9185 44.0824 48.068 44.6268 46.0286C41.9907 45.4349 39.0795 45.0748 36 45.0104ZM45.0896 44.0828C42.284 43.4493 39.214 43.0746 36 43.0101V36H45.9896C45.9296 38.8658 45.6134 41.5895 45.0896 44.0828ZM46.5654 46.521C45.9875 48.6917 45.2498 50.6776 44.3797 52.4178C43.447 54.2832 42.3326 55.9171 41.0657 57.1859C44.7992 56.1675 48.3224 54.194 51.2406 51.2652L51.2501 51.2556C51.9018 50.619 52.5061 49.9522 53.063 49.2593C51.2764 48.1676 49.0742 47.2337 46.5654 46.521ZM54.2482 47.6405C52.2431 46.3927 49.7928 45.3516 47.03 44.5739C47.5946 41.9122 47.9293 39.0216 47.99 36H57.9828C57.8251 40.0863 56.5845 44.1265 54.2482 47.6405ZM18.712 18.7348C18.0738 19.3753 17.4813 20.0446 16.9344 20.7385C18.7214 21.831 20.9246 22.7656 23.4347 23.4788C24.0126 21.3082 24.7502 19.3223 25.6203 17.5822C26.5573 15.7082 27.6777 14.0677 28.9519 12.7965C25.1943 13.8096 21.6472 15.789 18.712 18.7348ZM47.99 34H57.9736C57.7799 29.9396 56.5201 25.9111 54.2068 22.385C52.2095 23.6214 49.7739 24.6536 47.03 25.4261C47.5946 28.0877 47.9293 30.9783 47.99 34ZM46.5654 23.479C49.0611 22.77 51.2534 21.842 53.035 20.7576C52.4827 20.0568 51.8845 19.3811 51.2406 18.7348C48.3224 15.806 44.7992 13.8325 41.0657 12.8141C42.3326 14.0829 43.447 15.7168 44.3797 17.5822C45.2498 19.3224 45.9875 21.3083 46.5654 23.479ZM36 12.0998C38.3913 12.577 40.7312 14.7573 42.5909 18.4767C43.3933 20.0815 44.0824 21.932 44.6268 23.9713C41.9907 24.5651 39.0795 24.9252 36 24.9895V12.0998ZM36 26.9899C39.214 26.9254 42.284 26.5506 45.0896 25.9171C45.6133 28.4104 45.9296 31.1341 45.9896 34H36V26.9899ZM34 12.0998V24.9895C30.9205 24.9251 28.0093 24.565 25.3733 23.9712C25.9177 21.9319 26.6067 20.0815 27.4091 18.4767C29.2688 14.7573 31.6087 12.577 34 12.0998ZM34 26.9899C30.786 26.9253 27.716 26.5505 24.9104 25.917C24.3867 28.4103 24.0704 31.1341 24.0104 34H34V26.9899Z" fill="currentColor"/>
</svg>
