<svg width="24" height="24" viewBox="0 0 24 24" fill="none" xmlns="http://www.w3.org/2000/svg">
<path fill-rule="evenodd" clip-rule="evenodd" d="M11.25 10L11.25 4.32464L9.88587 5.14312C9.53069 5.35623 9.06999 5.24106 8.85688 4.88587C8.64377 4.53069 8.75894 4.06999 9.11413 3.85688L11.6141 2.35688C11.8458 2.21786 12.1344 2.21422 12.3695 2.34735C12.6047 2.48048 12.75 2.7298 12.75 3L12.75 10C12.75 10.4142 12.4142 10.75 12 10.75C11.5858 10.75 11.25 10.4142 11.25 10ZM17.2139 4.95465C16.8168 4.83653 16.3993 5.06263 16.2811 5.45965C16.163 5.85666 16.3891 6.27426 16.7861 6.39237C17.9333 6.73366 18.8337 7.1812 19.431 7.66741C20.0319 8.1565 20.25 8.61586 20.25 8.99993C20.25 9.30818 20.1126 9.65831 19.7494 10.0399C19.6348 10.1604 19.5006 10.2804 19.3472 10.3989L19.3315 10.411C18.9966 10.6671 18.5717 10.9153 18.0594 11.143C16.5471 11.8151 14.4055 12.2499 12 12.2499C9.59454 12.2499 7.45286 11.8151 5.94064 11.143C5.4283 10.9153 5.00336 10.6671 4.66848 10.411L4.6528 10.3989C4.49941 10.2805 4.36524 10.1604 4.25056 10.0399C3.88743 9.65831 3.75 9.30818 3.75 8.99993C3.75 8.67029 3.90809 8.29008 4.33252 7.87718C4.75948 7.46181 5.41413 7.05867 6.27721 6.71534C6.66209 6.56224 6.84999 6.12612 6.69689 5.74124C6.54379 5.35636 6.10767 5.16847 5.72279 5.32157C4.74462 5.71067 3.89928 6.20593 3.28655 6.80203C2.67128 7.40059 2.25 8.14491 2.25 8.99993C2.25 9.76258 2.58592 10.4389 3.09546 11.0003C2.58352 11.5643 2.25 12.236 2.25 12.9999C2.25 13.7626 2.58592 14.4389 3.09546 15.0003C2.58352 15.5643 2.25 16.236 2.25 16.9999C2.25 17.7963 2.61625 18.4984 3.16397 19.074C3.70801 19.6456 4.45981 20.1263 5.33143 20.5137C7.07658 21.2893 9.4349 21.7499 12 21.7499C14.5651 21.7499 16.9234 21.2893 18.6686 20.5137C19.5402 20.1263 20.292 19.6456 20.836 19.074C21.3838 18.4984 21.75 17.7963 21.75 16.9999C21.75 16.236 21.4165 15.5644 20.9045 15.0003C21.4141 14.4389 21.75 13.7626 21.75 12.9999C21.75 12.236 21.4165 11.5644 20.9045 11.0003C21.4141 10.4389 21.75 9.76258 21.75 8.99993C21.75 7.99716 21.1741 7.15208 20.3779 6.50407C19.5783 5.85317 18.4786 5.33092 17.2139 4.95465ZM4.6528 14.3989L4.66849 14.411C5.00337 14.6671 5.42831 14.9153 5.94064 15.143C7.45286 15.8151 9.59454 16.2499 12 16.2499C14.4055 16.2499 16.5471 15.8151 18.0594 15.143C18.5717 14.9153 18.9966 14.6671 19.3315 14.411L19.3473 14.3989C19.5006 14.2804 19.6348 14.1604 19.7494 14.0399C20.1126 13.6583 20.25 13.3082 20.25 12.9999C20.25 12.6908 20.1079 12.3319 19.7401 11.9496C19.411 12.1555 19.0513 12.3436 18.6686 12.5137C16.9234 13.2893 14.5651 13.7499 12 13.7499C9.4349 13.7499 7.07658 13.2893 5.33144 12.5137C4.94868 12.3436 4.58904 12.1555 4.25994 11.9496C3.8921 12.3319 3.75 12.6908 3.75 12.9999C3.75 13.3082 3.88743 13.6583 4.25056 14.0399C4.36524 14.1604 4.4994 14.2805 4.6528 14.3989ZM3.75 16.9999C3.75 16.6908 3.8921 16.3319 4.25994 15.9496C4.58904 16.1555 4.94868 16.3436 5.33143 16.5137C7.07658 17.2893 9.4349 17.7499 12 17.7499C14.5651 17.7499 16.9234 17.2893 18.6686 16.5137C19.0513 16.3436 19.411 16.1555 19.7401 15.9496C20.1079 16.3319 20.25 16.6908 20.25 16.9999C20.25 17.3082 20.1126 17.6583 19.7494 18.0399C19.3826 18.4253 18.8164 18.8065 18.0594 19.143C16.5471 19.8151 14.4055 20.2499 12 20.2499C9.59454 20.2499 7.45286 19.8151 5.94064 19.143C5.18359 18.8065 4.61737 18.4253 4.25056 18.0399C3.88743 17.6583 3.75 17.3082 3.75 16.9999Z" fill="currentColor"/>
</svg>
