<svg width="21" height="40" viewBox="0 0 21 40" fill="none" xmlns="http://www.w3.org/2000/svg">
    <path d="M12.2836 21.4238H0V17.1216H12.2029C13.236 17.1216 14.0699 16.9224 14.7048 16.524C15.3397 16.1124 15.8025 15.5481 16.093 14.831C16.3836 14.1007 16.5288 13.2642 16.5288 12.3214C16.5288 11.4451 16.3782 10.6284 16.0769 9.87157C15.7756 9.1147 15.3128 8.50389 14.6887 8.03915C14.0753 7.57441 13.279 7.34203 12.2998 7.34203H7.7156V32H3.27671V3H12.2836C14.1238 3 15.6895 3.39835 16.9808 4.19506C18.2721 4.99176 19.2621 6.08723 19.9508 7.48146C20.6503 8.87569 21 10.4757 21 12.2816C21 14.1937 20.6449 15.8336 19.9347 17.2012C19.2352 18.5689 18.2344 19.6179 16.9324 20.3482C15.641 21.0652 14.0915 21.4238 12.2836 21.4238ZM12.9293 23.296V27.6181H0V23.296H12.9293Z" fill="currentColor"/>
</svg>
