<svg width="64" height="64" viewBox="0 0 64 64" fill="none" xmlns="http://www.w3.org/2000/svg">
<path fill-rule="evenodd" clip-rule="evenodd" d="M32 17.1175C30.8284 13.9605 29.1494 10.3902 27.1266 7.79325C25.8028 6.09357 24.2262 4.67268 22.4239 4.18193C20.515 3.66217 18.5886 4.24267 16.7931 6.03814C14.9994 7.83188 14.4395 9.74143 15.0623 11.6126C15.6424 13.3555 17.1811 14.8278 18.9796 16.0375C21.397 17.6636 24.5794 19.0088 27.5557 19.9999H5C4.44772 19.9999 4 20.4477 4 20.9999V29.9999C4 30.5522 4.44772 30.9999 5 30.9999H7V58.9999C7 59.5522 7.44772 59.9999 8 59.9999H32H56C56.5523 59.9999 57 59.5522 57 58.9999V30.9999H59C59.5523 30.9999 60 30.5522 60 29.9999V20.9999C60 20.4477 59.5523 19.9999 59 19.9999H36.4443C39.4206 19.0088 42.603 17.6636 45.0204 16.0375C46.8189 14.8278 48.3576 13.3555 48.9377 11.6126C49.5605 9.74143 49.0006 7.83188 47.2069 6.03814C45.4114 4.24267 43.485 3.66217 41.5761 4.18193C39.7738 4.67268 38.1972 6.09357 36.8734 7.79325C34.8506 10.3902 33.1716 13.9605 32 17.1175ZM21.8984 6.11168C20.8271 5.81998 19.6119 6.04781 18.2073 7.45235C16.8011 8.85861 16.6359 10.0074 16.96 10.981C17.3268 12.0829 18.4068 13.2419 20.0959 14.378C22.9363 16.2886 27.0389 17.8326 30.4825 18.8097C29.3491 15.5403 27.6138 11.6734 25.5488 9.02224C24.3185 7.44275 23.0763 6.43239 21.8984 6.11168ZM31 21.9999H6V28.9999H8H31V21.9999ZM33 28.9999V21.9999H58V28.9999H56H33ZM31 30.9999H9V57.9999H31L31 30.9999ZM33 57.9999L33 30.9999H55V57.9999H33ZM45.7927 7.45235C44.3881 6.04781 43.1729 5.81998 42.1016 6.11168C40.9237 6.43239 39.6815 7.44275 38.4512 9.02224C36.3862 11.6734 34.6509 15.5403 33.5175 18.8097C36.9611 17.8326 41.0637 16.2886 43.9041 14.378C45.5932 13.2419 46.6732 12.0829 47.04 10.981C47.3641 10.0074 47.1989 8.85861 45.7927 7.45235Z" fill="currentColor"/>
</svg>
