<svg width="24" height="24" viewBox="0 0 24 24" fill="none" xmlns="http://www.w3.org/2000/svg">
<path fill-rule="evenodd" clip-rule="evenodd" d="M6 20.5V3.5H13.25V7.5C13.25 8.19036 13.8096 8.75 14.5 8.75H18V20.5H6ZM17.6287 7.25L14.75 4.37132V7.25H17.6287ZM4.5 3C4.5 2.44772 4.94772 2 5.5 2H14.0858C14.351 2 14.6054 2.10536 14.7929 2.29289L19.2071 6.70711C19.3946 6.89464 19.5 7.149 19.5 7.41421V21C19.5 21.5523 19.0523 22 18.5 22H5.5C4.94772 22 4.5 21.5523 4.5 21V3ZM7.75 13.5C7.75 13.0858 8.08579 12.75 8.5 12.75H12.5C12.9142 12.75 13.25 13.0858 13.25 13.5C13.25 13.9142 12.9142 14.25 12.5 14.25H8.5C8.08579 14.25 7.75 13.9142 7.75 13.5ZM8.5 16.25C8.08579 16.25 7.75 16.5858 7.75 17C7.75 17.4142 8.08579 17.75 8.5 17.75H15.5C15.9142 17.75 16.25 17.4142 16.25 17C16.25 16.5858 15.9142 16.25 15.5 16.25H8.5Z" fill="currentColor"/>
</svg>
