<svg width="64" height="64" viewBox="0 0 64 64" fill="none" xmlns="http://www.w3.org/2000/svg">
<path fill-rule="evenodd" clip-rule="evenodd" d="M11 5C11 4.44772 11.4477 4 12 4H52C52.5523 4 53 4.44772 53 5V55C53 55.5523 52.5523 56 52 56H50C49.4477 56 49 55.5523 49 55C49 54.4477 49.4477 54 50 54H51V6H13V54H32H34C34.5523 54 35 54.4477 35 55C35 55.5523 34.5523 56 34 56H32H12C11.4477 56 11 55.5523 11 55V5ZM42 40C39.2386 40 37 42.2386 37 45C37 47.7614 39.2386 50 42 50C44.7614 50 47 47.7614 47 45C47 42.2386 44.7614 40 42 40ZM35 45C35 41.134 38.134 38 42 38C45.866 38 49 41.134 49 45C49 47.391 47.8012 49.502 45.972 50.7648L47.9701 58.7575C48.0595 59.115 47.945 59.4927 47.6721 59.7404C47.3992 59.9881 47.0122 60.0657 46.665 59.9422L42 58.2836L37.335 59.9422C36.9878 60.0657 36.6008 59.9881 36.3279 59.7404C36.055 59.4927 35.9405 59.115 36.0299 58.7575L38.028 50.7648C36.1988 49.502 35 47.391 35 45ZM39.8638 51.668L38.4226 57.4329L41.665 56.28C41.8817 56.203 42.1183 56.203 42.335 56.28L45.5774 57.4329L44.1362 51.668C43.4628 51.8836 42.745 52 42 52C41.255 52 40.5372 51.8836 39.8638 51.668ZM17 15C17 14.4477 17.4477 14 18 14H46C46.5523 14 47 14.4477 47 15C47 15.5523 46.5523 16 46 16H18C17.4477 16 17 15.5523 17 15ZM18 20C17.4477 20 17 20.4477 17 21C17 21.5523 17.4477 22 18 22H46C46.5523 22 47 21.5523 47 21C47 20.4477 46.5523 20 46 20H18ZM17 27C17 26.4477 17.4477 26 18 26H46C46.5523 26 47 26.4477 47 27C47 27.5523 46.5523 28 46 28H18C17.4477 28 17 27.5523 17 27ZM18 32C17.4477 32 17 32.4477 17 33C17 33.5523 17.4477 34 18 34H46C46.5523 34 47 33.5523 47 33C47 32.4477 46.5523 32 46 32H18ZM17 39C17 38.4477 17.4477 38 18 38H32C32.5523 38 33 38.4477 33 39C33 39.5523 32.5523 40 32 40H18C17.4477 40 17 39.5523 17 39ZM18 44C17.4477 44 17 44.4477 17 45C17 45.5523 17.4477 46 18 46H32C32.5523 46 33 45.5523 33 45C33 44.4477 32.5523 44 32 44H18Z" fill="currentColor"/>
</svg>
