<svg width="65" height="64" viewBox="0 0 65 64" fill="none" xmlns="http://www.w3.org/2000/svg">
    <path fill-rule="evenodd" clip-rule="evenodd" d="M7.33337 48C5.67652 48 4.33337 46.6569 4.33337 45V11C4.33337 9.34315 5.67652 8 7.33337 8H57.3334C58.9902 8 60.3334 9.34314 60.3334 11V45C60.3334 46.6569 58.9902 48 57.3334 48H38.3334V50H39.3334C41.5425 50 43.3334 51.7909 43.3334 54V55C43.3334 55.5523 42.8857 56 42.3334 56H22.3334C21.7811 56 21.3334 55.5523 21.3334 55V54C21.3334 51.7909 23.1242 50 25.3334 50H26.3334V48H7.33337ZM27.3334 46H37.3334H57.3334C57.8857 46 58.3334 45.5523 58.3334 45V11C58.3334 10.4477 57.8857 10 57.3334 10H7.33337C6.78109 10 6.33337 10.4477 6.33337 11V45C6.33337 45.5523 6.78109 46 7.33337 46H27.3334ZM28.3334 48V50H36.3334V48H28.3334ZM31.9167 16.5909C32.1813 16.4697 32.4855 16.4697 32.75 16.5909L44.75 22.0909C45.1055 22.2539 45.3334 22.609 45.3334 23V27C45.3334 27.5523 44.8857 28 44.3334 28H43.3334V33H44.3334C44.8857 33 45.3334 33.4477 45.3334 34V38C45.3334 38.5523 44.8857 39 44.3334 39H20.3334C19.7811 39 19.3334 38.5523 19.3334 38V34C19.3334 33.4477 19.7811 33 20.3334 33H21.3334V28H20.3334C19.7811 28 19.3334 27.5523 19.3334 27V23C19.3334 22.609 19.5613 22.2539 19.9167 22.0909L31.9167 16.5909ZM39.3334 28H41.3334V33H39.3334V28ZM42.3334 26H38.3334H34.3334H30.3334H26.3334H22.3334H21.3334V23.6417L32.3334 18.6L43.3334 23.6417V26H42.3334ZM37.3334 28H35.3334V33H37.3334V28ZM31.3334 33V28H33.3334V33H31.3334ZM27.3334 28H29.3334V33H27.3334V28ZM23.3334 28H25.3334V33H23.3334V28ZM30.3334 35H26.3334H22.3334H21.3334V37H43.3334V35H42.3334H38.3334H34.3334H30.3334ZM25.3334 52C24.2288 52 23.3334 52.8954 23.3334 54H41.3334C41.3334 52.8954 40.4379 52 39.3334 52H37.3334H27.3334H25.3334Z" fill="currentColor"/>
</svg>