<svg width="64" height="64" viewBox="0 0 64 64" fill="none" xmlns="http://www.w3.org/2000/svg">
<path fill-rule="evenodd" clip-rule="evenodd" d="M5 5C5 4.44772 5.44772 4 6 4H9.87146C12.4447 4 14.5978 5.95312 14.8478 8.51422L15.3833 14L55.9795 14C55.9924 13.9998 56.0054 13.9997 56.0184 14H59C59.5523 14 60 14.4477 60 15C60 15.5523 59.5523 16 59 16H56.8243L53.0064 35.6415C52.576 37.8556 50.7166 39.5074 48.4673 39.6738L17.3359 41.9779L13.369 46.411C15.767 47.2733 17.5583 49.4075 17.9291 52H37.0709C37.5561 48.6077 40.4735 46 44 46C47.866 46 51 49.134 51 53C51 56.866 47.866 60 44 60C40.4735 60 37.5561 57.3923 37.0709 54H17.9291C17.4439 57.3923 14.5265 60 11 60C7.13401 60 4 56.866 4 53C4 49.134 7.13401 46 11 46L11.0527 46.0002L15.9621 40.5139L12.8573 8.70853C12.7073 7.17187 11.4154 6 9.87146 6H6C5.44772 6 5 5.55228 5 5ZM15.5786 16L54.7869 16L51.0431 35.2599C50.7849 36.5883 49.6693 37.5794 48.3197 37.6793L17.9145 39.9296L15.5786 16ZM11 48C8.23858 48 6 50.2386 6 53C6 55.7614 8.23858 58 11 58C13.7614 58 16 55.7614 16 53C16 50.2386 13.7614 48 11 48ZM44 48C41.2386 48 39 50.2386 39 53C39 55.7614 41.2386 58 44 58C46.7614 58 49 55.7614 49 53C49 50.2386 46.7614 48 44 48ZM27 21C27 20.4477 26.5523 20 26 20C25.4477 20 25 20.4477 25 21V34C25 34.5523 25.4477 35 26 35C26.5523 35 27 34.5523 27 34V21ZM35 20C35.5523 20 36 20.4477 36 21V34C36 34.5523 35.5523 35 35 35C34.4477 35 34 34.5523 34 34V21C34 20.4477 34.4477 20 35 20ZM44 21C44 20.4477 43.5523 20 43 20C42.4477 20 42 20.4477 42 21V34C42 34.5523 42.4477 35 43 35C43.5523 35 44 34.5523 44 34V21Z" fill="currentColor"/>
</svg>
