<svg width="64" height="64" viewBox="0 0 64 64" fill="none" xmlns="http://www.w3.org/2000/svg">
<path fill-rule="evenodd" clip-rule="evenodd" d="M11 16C11 14.3431 12.3431 13 14 13H57C58.6569 13 60 14.3431 60 16V43C60 44.6569 58.6569 46 57 46H53V48C53 49.6569 51.6569 51 50 51H7C5.34315 51 4 49.6569 4 48V28V21C4 19.3431 5.34315 18 7 18H11V16ZM57 44H53V28V24H58V43C58 43.5523 57.5523 44 57 44ZM58 22H53V21C53 19.3431 51.6569 18 50 18H13V16C13 15.4477 13.4477 15 14 15H57C57.5523 15 58 15.4477 58 16V22ZM51 27V21C51 20.4477 50.5523 20 50 20H7C6.44772 20 6 20.4477 6 21V27H51ZM6 29H51V48C51 48.5523 50.5523 49 50 49H7C6.44772 49 6 48.5523 6 48V29ZM8 33C8 32.4477 8.44772 32 9 32H21C21.5523 32 22 32.4477 22 33C22 33.5523 21.5523 34 21 34H9C8.44772 34 8 33.5523 8 33Z" fill="currentColor"/>
</svg>
