<svg width="64" height="64" viewBox="0 0 64 64" fill="none" xmlns="http://www.w3.org/2000/svg">
<path fill-rule="evenodd" clip-rule="evenodd" d="M15 4C12.7909 4 11 5.79086 11 8V56C11 58.2091 12.7909 60 15 60H49C51.2091 60 53 58.2091 53 56V8C53 5.79086 51.2091 4 49 4H15ZM13 8C13 6.89543 13.8954 6 15 6H49C50.1046 6 51 6.89543 51 8V56C51 57.1046 50.1046 58 49 58H15C13.8954 58 13 57.1046 13 56V8ZM17 54C17 54.5523 17.4477 55 18 55C18.5523 55 19 54.5523 19 54V49C19 48.4477 18.5523 48 18 48C17.4477 48 17 48.4477 17 49V54ZM22 55C21.4477 55 21 54.5523 21 54V40C21 39.4477 21.4477 39 22 39C22.5523 39 23 39.4477 23 40V54C23 54.5523 22.5523 55 22 55ZM25 54C25 54.5523 25.4477 55 26 55C26.5523 55 27 54.5523 27 54V44C27 43.4477 26.5523 43 26 43C25.4477 43 25 43.4477 25 44V54ZM47 54C47 54.5523 46.5523 55 46 55H42C41.4477 55 41 54.5523 41 54C41 53.4477 41.4477 53 42 53H46C46.5523 53 47 53.4477 47 54ZM46 51C46.5523 51 47 50.5523 47 50C47 49.4477 46.5523 49 46 49H34C33.4477 49 33 49.4477 33 50C33 50.5523 33.4477 51 34 51H46ZM47 46C47 46.5523 46.5523 47 46 47H38C37.4477 47 37 46.5523 37 46C37 45.4477 37.4477 45 38 45H46C46.5523 45 47 45.4477 47 46ZM46 43C46.5523 43 47 42.5523 47 42C47 41.4477 46.5523 41 46 41H36C35.4477 41 35 41.4477 35 42C35 42.5523 35.4477 43 36 43H46ZM29.5 16.0528C27.9746 16.2142 26.5057 16.7433 25.2221 17.601C23.6598 18.6449 22.4422 20.1286 21.7231 21.8645C21.0041 23.6004 20.816 25.5105 21.1825 27.3534C21.5491 29.1962 22.4539 30.8889 23.7825 32.2175C25.1111 33.5461 26.8038 34.4509 28.6466 34.8175C30.4895 35.184 32.3996 34.9959 34.1355 34.2769C35.8714 33.5578 37.3551 32.3402 38.399 30.7779C39.2567 29.4943 39.7858 28.0254 39.9472 26.5H30.5C30.2348 26.5 29.9804 26.3946 29.7929 26.2071C29.6054 26.0196 29.5 25.7652 29.5 25.5V16.0528ZM24.1109 15.9381C26.0021 14.6745 28.2255 14 30.5 14C31.0523 14 31.5 14.4477 31.5 15V24.5H41C41.5523 24.5 42 24.9477 42 25.5C42 27.7745 41.3255 29.9979 40.0619 31.8891C38.7983 33.7802 37.0022 35.2542 34.9009 36.1246C32.7995 36.995 30.4872 37.2228 28.2565 36.779C26.0257 36.3353 23.9766 35.24 22.3683 33.6317C20.76 32.0234 19.6647 29.9743 19.221 27.7435C18.7772 25.5128 19.005 23.2005 19.8754 21.0991C20.7458 18.9978 22.2198 17.2017 24.1109 15.9381ZM34.5 10C33.9477 10 33.5 10.4477 33.5 11V21.5C33.5 22.0523 33.9477 22.5 34.5 22.5H45C45.5523 22.5 46 22.0523 46 21.5C46 19.9898 45.7025 18.4944 45.1246 17.0991C44.5467 15.7039 43.6996 14.4361 42.6317 13.3683C41.5639 12.3004 40.2961 11.4533 38.9009 10.8754C37.5056 10.2975 36.0102 10 34.5 10ZM35.5 20.5V12.0528C36.4044 12.1485 37.2921 12.3738 38.1355 12.7231C39.2881 13.2006 40.3354 13.9003 41.2175 14.7825C42.0997 15.6646 42.7994 16.7119 43.2769 17.8645C43.6262 18.7079 43.8515 19.5956 43.9472 20.5H35.5Z" fill="currentColor"/>
</svg>
