<svg width="64" height="64" viewBox="0 0 64 64" fill="none" xmlns="http://www.w3.org/2000/svg">
<path fill-rule="evenodd" clip-rule="evenodd" d="M32.753 7.75837C32.5929 6.96547 33.0806 6.28601 33.81 6.06676C34.1607 5.96136 34.5366 5.97864 34.8817 6.14618C35.2217 6.31127 35.6084 6.66039 35.9079 7.3526C36.3605 8.39861 37.2801 11.3198 38.3522 14.9757C38.3547 15.1643 38.4094 15.3402 38.5025 15.4898C38.8265 16.6007 39.1628 17.7723 39.503 18.9743C40.534 22.6167 41.5868 26.4869 42.4192 29.688C41.6857 28.929 40.9007 28.1733 40.0965 27.4442C38.8502 26.3141 37.5451 25.2364 36.2949 24.2971C36.2921 24.2807 36.2887 24.2643 36.285 24.2479C35.1085 19.0876 33.2573 10.2554 32.753 7.75837ZM37.7434 6.55833C37.9453 7.02495 38.2206 7.7958 38.5477 8.79037C39.0226 7.43828 40.291 6.55872 41.5677 6.40267C42.4028 6.3006 43.3016 6.49383 44.0372 7.09834C44.7748 7.70452 45.2464 8.6392 45.397 9.83265C45.4956 10.6133 45.5956 12.0193 45.693 13.7976C45.7778 13.7775 45.8624 13.7604 45.9455 13.746C46.3527 13.6755 46.8513 13.6495 47.3651 13.7361C47.8815 13.8231 48.4476 14.0306 48.9334 14.456C49.429 14.8901 49.7776 15.4962 49.9329 16.2654C50.0095 16.6448 50.0093 17.1671 49.9835 17.7107C49.9562 18.2843 49.8937 18.9843 49.8058 19.7716C49.6299 21.3478 49.3464 23.3208 49.0155 25.4241C48.3565 29.6125 47.5027 34.361 46.9136 37.612C46.8684 40.2565 46.6418 49.6495 46.4829 56.2399L46.4158 59.0232C46.4025 59.5754 45.9442 60.0122 45.3921 59.9989C44.8399 59.9856 44.4031 59.5273 44.4164 58.9752L44.4831 56.2067L44.4831 56.2065L44.4832 56.2031C44.6607 48.8407 44.9216 38.0242 44.9216 36.9807C44.9216 36.6857 44.8071 36.236 44.5001 35.6221C44.2003 35.0225 43.7537 34.3384 43.1823 33.596C42.0401 32.1119 40.4617 30.475 38.7531 28.9258C37.0471 27.379 35.2362 25.9422 33.6433 24.8545C32.8466 24.3104 32.1154 23.8612 31.4873 23.5306C30.8436 23.1919 30.3663 23.009 30.0634 22.949C29.6351 22.8642 28.7332 22.9204 27.4629 23.1341C26.2459 23.3387 24.8386 23.6598 23.4925 24.0008C22.1494 24.3411 20.8824 24.6974 19.9502 24.969C19.4844 25.1046 19.1031 25.2189 18.8387 25.2991C18.7066 25.3392 18.6037 25.3708 18.5341 25.3922L18.4553 25.4166L18.4376 25.4221C17.9623 25.5813 17.5412 25.9619 17.2756 26.4426C17.0001 26.9412 16.9707 27.3962 17.0575 27.6542C17.1864 28.0371 17.5372 28.3721 18.0992 28.6251C18.6563 28.8759 19.2731 28.9748 19.6467 28.9748C19.8812 28.9748 20.3603 28.8853 21.1012 28.6998C21.4918 28.602 21.8897 28.4954 22.3123 28.3822L22.313 28.382L22.3139 28.3818L22.314 28.3817C22.6872 28.2818 23.0796 28.1767 23.5032 28.0679C24.3638 27.8469 25.2724 27.6331 26.1063 27.508C26.9116 27.3872 27.7706 27.328 28.4767 27.5028C30.0369 27.8891 31.7085 28.8605 32.9957 30.1362C34.2756 31.4047 35.2999 33.1024 35.2998 34.9791C35.2997 38.7709 32.7381 41.0861 29.838 41.5639C26.9658 42.0369 23.7119 40.7193 22.266 37.3779C21.87 36.4628 21.5751 35.6179 21.327 34.8728C21.2675 34.6942 21.2115 34.5238 21.1579 34.3608L21.1577 34.3601L21.1576 34.3599L21.1575 34.3597C20.9824 33.8272 20.8332 33.3734 20.6738 32.9675C20.261 31.9164 19.9232 31.5739 19.4062 31.4459C18.5273 31.2283 17.7854 31.235 17.2343 31.3343C16.6504 31.4394 16.3643 31.6306 16.3082 31.6862C16.0589 31.933 15.9715 32.1936 16.0079 32.6338C16.0506 33.1502 16.2537 33.7734 16.5522 34.66C16.7555 35.2641 16.9586 36.2319 17.1711 37.2448L17.1711 37.2449C17.2469 37.6057 17.3238 37.9723 17.4023 38.3301C17.7212 39.7831 18.0783 41.1633 18.5183 42.0347C18.8167 42.6258 19.9101 44.3199 21.2114 46.0864C21.8542 46.9591 22.5323 47.8282 23.1681 48.5659C23.8157 49.3173 24.3777 49.8831 24.7906 50.1898C25.4819 50.7032 26.2172 51.1433 26.9722 51.5952C27.2717 51.7745 27.5744 51.9556 27.8787 52.1439C28.8812 52.7645 29.9427 53.4877 30.582 54.4375C31.5581 55.8876 31.7628 57.7664 31.7628 58.9992C31.7628 59.5515 31.3151 59.9992 30.7628 59.9992C30.2105 59.9992 29.7628 59.5515 29.7628 58.9992C29.7628 57.8966 29.5637 56.5062 28.9229 55.5543C28.5517 55.0028 27.8446 54.475 26.826 53.8445C26.5757 53.6895 26.3065 53.5284 26.0264 53.3608C25.2433 52.8922 24.3755 52.3728 23.598 51.7953C23.0003 51.3513 22.3207 50.6462 21.6531 49.8716C20.9737 49.0833 20.2631 48.1713 19.6011 47.2726C18.2928 45.4965 17.1124 43.6877 16.7329 42.936C16.1623 41.8058 15.7615 40.1833 15.4488 38.7589C15.3523 38.319 15.2644 37.9003 15.1826 37.5109L15.1826 37.5108C14.9827 36.559 14.8196 35.782 14.6567 35.2981L14.6323 35.2257C14.3661 34.4355 14.0798 33.5854 14.0147 32.7987C13.9413 31.9117 14.1395 31.0191 14.9007 30.2652C15.178 29.9906 15.5601 29.7677 16.0014 29.6031C15.6443 29.2579 15.3419 28.8267 15.162 28.2921C14.8446 27.3491 15.0679 26.3028 15.5251 25.4753C15.9909 24.6322 16.7798 23.8632 17.8175 23.5206L17.825 23.5181L17.8325 23.5158L18.131 24.4702C17.8325 23.5158 17.8326 23.5158 17.8327 23.5157L17.8332 23.5156L17.8347 23.5151L17.8404 23.5133L17.862 23.5066L17.9448 23.481C18.0171 23.4587 18.1229 23.4262 18.2582 23.3852C18.5287 23.3032 18.9171 23.1868 19.3908 23.0488C20.3376 22.773 21.6285 22.4099 23.0013 22.0621C24.371 21.7151 25.8375 21.3793 27.1312 21.1618C28.3715 20.9532 29.617 20.8217 30.452 20.9872C31.0392 21.1035 31.719 21.3925 32.4187 21.7608C32.8716 21.9991 33.3578 22.2841 33.8665 22.6065C32.7128 17.4061 31.2358 10.3492 30.7926 8.15424C30.3963 6.19183 31.6772 4.61945 33.2343 4.15141C34.027 3.91315 34.9238 3.94335 35.7553 4.34706C36.5917 4.75322 37.2851 5.49912 37.7434 6.55833ZM46.2967 29.6234C46.5553 28.1093 46.8096 26.5764 47.0398 25.1133C47.369 23.0207 47.6471 21.0818 47.8182 19.5496C47.9038 18.7827 47.9613 18.1295 47.9857 17.6157C48.0116 17.0718 47.995 16.7726 47.9725 16.6613C47.8948 16.2766 47.7479 16.0764 47.6156 15.9605C47.4735 15.836 47.2792 15.7498 47.0327 15.7083C46.7837 15.6663 46.5171 15.6768 46.2865 15.7167C46.1097 15.7473 46.0072 15.7853 45.972 15.7983C45.9553 15.8045 45.9538 15.8051 45.9667 15.7965C45.9126 15.8322 45.8564 15.862 45.7987 15.886C45.9933 20.015 46.1708 25.3172 46.2967 29.6234ZM41.4274 18.4296C41.0641 17.146 40.702 15.885 40.3521 14.688V14.687V14.6781V14.6693V14.6604V14.6515V14.6425V14.6335V14.6245V14.6155V14.6064V14.5973V14.5882V14.5791V14.5699V14.5607V14.5515V14.5423V14.533V14.5237V14.5144V14.5051V14.4957V14.4863V14.4769V14.4674V14.458V14.4485V14.4389V14.4294V14.4198V14.4102V14.4006V14.391V14.3813V14.3717V14.3619V14.3522V14.3425V14.3327V14.3229V14.3131V14.3032V14.2934V14.2835V14.2736V14.2637V14.2537V14.2437V14.2337V14.2237V14.2137V14.2036V14.1936V14.1835V14.1734V14.1632V14.1531V14.1429V14.1327V14.1225V14.1123V14.102V14.0917V14.0814V14.0711V14.0608V14.0505V14.0401V14.0297V14.0193V14.0089V13.9985V13.988V13.9775V13.967V13.9565V13.946V13.9355V13.9249V13.9144V13.9038V13.8932V13.8825V13.8719V13.8613V13.8506V13.8399V13.8292V13.8185V13.8078V13.797V13.7863V13.7755V13.7647V13.7539V13.7431V13.7323V13.7214V13.7106V13.6997V13.6888V13.6779V13.667V13.6561V13.6451V13.6342V13.6232V13.6123V13.6013V13.5903V13.5793V13.5682V13.5572V13.5462V13.5351V13.524V13.513V13.5019V13.4908V13.4797V13.4685V13.4574V13.4463V13.4351V13.424V13.4128V13.4016V13.3904V13.3792V13.368V13.3568V13.3456V13.3344V13.3231V13.3119V13.3006V13.2893V13.2781V13.2668V13.2555V13.2442V13.2329V13.2216V13.2103V13.1989V13.1876V13.1763V13.1649V13.1536V13.1422V13.1308V13.1195V13.1081V13.0967V13.0853V13.0739V13.0626V13.0511V13.0397V13.0283V13.0169V13.0055V12.9941V12.9826V12.9712V12.9598V12.9483V12.9369V12.9255V12.914V12.9026V12.8911V12.8796V12.8682V12.8567V12.8453V12.8338V12.8223V12.8109V12.7994V12.7879V12.7764V12.765V12.7535V12.742V12.7305V12.7191V12.7076V12.6961V12.6846V12.6731V12.6617V12.6502V12.6387V12.6272V12.6157V12.6043V12.5928V12.5813V12.5698V12.5584V12.5469V12.5354V12.524V12.5125V12.501V12.4896V12.4781V12.4667V12.4552V12.4438V12.4323V12.4209V12.4094V12.398V12.3866V12.3751V12.3637V12.3523V12.3409V12.3295V12.3181V12.3067V12.2953V12.2839V12.2725V12.2611V12.2497V12.2384V12.227V12.2156V12.2043V12.1929V12.1816V12.1703V12.1589V12.1476V12.1363V12.125V12.1137V12.1024V12.0911V12.0799V12.0686V12.0573V12.0461V12.0348V12.0236V12.0124V12.0011V11.9899V11.9787V11.9675V11.9564V11.9452V11.934V11.9229V11.9117V11.9006V11.8895V11.8784V11.8673V11.8562V11.8451V11.834V11.823V11.8119V11.8009V11.7899V11.7788V11.7678V11.7569V11.7459V11.7349V11.724V11.713V11.7021V11.6912V11.6803V11.6694V11.6585V11.6477V11.6368V11.626V11.6152V11.6044V11.5936V11.5828V11.572V11.5613V11.5506V11.5398V11.5291V11.5185V11.5078V11.4971V11.4865V11.4759V11.4653V11.4547V11.4441V11.4335V11.423V11.4125V11.4019V11.3915V11.381V11.3705V11.3601V11.3497V11.3393V11.3289V11.3185V11.3082V11.2978V11.2875V11.2772V11.2669V11.2567V11.2464V11.2362V11.226V11.2158V11.2057V11.1955V11.1854V11.1753V11.1652V11.1552V11.1451V11.1351V11.1251V11.1152V11.1052V11.0953V11.0854V11.0755V11.0656V11.0558V11.0459V11.0361V11.0264V11.0166V11.0069V10.9971V10.9875V10.9778V10.9682V10.9585V10.9489V10.9394V10.9298V10.9203V10.9108V10.9013V10.8919V10.8824V10.873V10.8637V10.8543V10.845V10.8357V10.8264V10.8172V10.8079V10.7987V10.7896V10.7804V10.7713V10.7622V10.7532V10.7441V10.7351V10.7261V10.7172V10.7082V10.6993V10.6905V10.6816V10.6728V10.664V10.6552V10.6465V10.6378V10.6291V10.6205V10.6119V10.6033V10.5947V10.5862V10.5777V10.5692V10.5608V10.5523V10.544V10.5356V10.5273V10.519V10.5108V10.5025V10.4943V10.4862V10.478V10.4699V10.4619V10.4538V10.4458V10.4378V10.4299V10.422V10.4141V10.4063V10.3985V10.3907V10.3829V10.3752V10.3676V10.3599V10.3523V10.3447V10.3372V10.3297V10.3222V10.3148V10.3074V10.3V10.2927V10.2854V10.2781V10.2709V10.2637V10.2565V10.2494V10.2423V10.2353V10.2282V10.2213V10.2143V10.2074V10.2006V10.1937V10.1869V10.1802V10.1735V10.1668V10.1602V10.1535V10.147V10.1405V10.134V10.1275V10.1211V10.1147V10.1084V10.1021V10.0959V10.0896V10.0835V10.0773V10.0712V10.0652V10.0592V10.0532V10.0473V10.0414V10.0355V10.0297V10.0239V10.0182V10.0125V10.0069V10.0013V9.99569V9.99017V9.98469V9.97925V9.97385V9.9685V9.96319V9.95793C40.3521 9.13145 41.0247 8.48393 41.8103 8.3879C42.1753 8.34329 42.5081 8.43048 42.7673 8.6435C43.0245 8.85484 43.3108 9.27479 43.4128 10.0831C43.7242 12.5508 44.0614 21.7799 44.2735 28.8726C43.4494 25.7143 42.4271 21.9617 41.4274 18.4296ZM22.5354 32.2365C22.3099 31.6621 22.0382 31.0973 21.6516 30.6236C22.0166 30.5315 22.4343 30.4199 22.8616 30.3057L22.862 30.3055L22.8627 30.3053L22.8632 30.3052C23.2449 30.2032 23.6343 30.0991 24.0006 30.005C24.8454 29.7881 25.6737 29.5953 26.403 29.4859C27.1609 29.3721 27.6915 29.3688 27.996 29.4442C29.1655 29.7338 30.5258 30.5042 31.5879 31.5568C32.6572 32.6166 33.2999 33.8337 33.2998 34.979C33.2997 37.6926 31.5482 39.2552 29.5129 39.5904C27.4495 39.9303 25.1455 38.9961 24.1015 36.5836C23.7395 35.7472 23.4659 34.9657 23.2245 34.2409C23.1724 34.0842 23.121 33.9278 23.0701 33.7729L23.07 33.7728C22.891 33.228 22.7175 32.7002 22.5354 32.2365Z" fill="currentColor"/>
</svg>
