<svg width="64" height="64" viewBox="0 0 64 64" fill="none" xmlns="http://www.w3.org/2000/svg">
<path fill-rule="evenodd" clip-rule="evenodd" d="M8 4C6.34315 4 5 5.34314 5 7V57C5 58.6569 6.34315 60 8 60H56C57.6569 60 59 58.6569 59 57V7C59 5.34314 57.6569 4 56 4H52H12H8ZM11 6H8C7.44771 6 7 6.44771 7 7V57C7 57.5523 7.44772 58 8 58H56C56.5523 58 57 57.5523 57 57V7C57 6.44772 56.5523 6 56 6H53V25C53 25.5523 52.5523 26 52 26H12C11.4477 26 11 25.5523 11 25V6ZM51 6H13V24H51V6ZM17 9C17 8.44772 17.4477 8 18 8H46C46.5523 8 47 8.44772 47 9V21C47 21.5523 46.5523 22 46 22H18C17.4477 22 17 21.5523 17 21V9ZM19 10V20H45V10H19ZM32 30C31.4477 30 31 30.4477 31 31V42C31 42.5523 31.4477 43 32 43H35V54C35 54.5523 35.4477 55 36 55H48C48.5523 55 49 54.5523 49 54V43H52C52.5523 43 53 42.5523 53 42V31C53 30.4477 52.5523 30 52 30H32ZM37 53V42V36H43V53H37ZM45 53H47V42V36H45V53ZM44 34H48C48.5523 34 49 34.4477 49 35V41H51V32H33V41H35V35C35 34.4477 35.4477 34 36 34H44ZM12 48C11.4477 48 11 48.4477 11 49V54C11 54.5523 11.4477 55 12 55H17C17.5523 55 18 54.5523 18 54V49C18 48.4477 17.5523 48 17 48H12ZM13 53V50H16V53H13ZM11 40C11 39.4477 11.4477 39 12 39H17C17.5523 39 18 39.4477 18 40V45C18 45.5523 17.5523 46 17 46H12C11.4477 46 11 45.5523 11 45V40ZM13 41V44H16V41H13ZM12 30C11.4477 30 11 30.4477 11 31V36C11 36.5523 11.4477 37 12 37H17C17.5523 37 18 36.5523 18 36V31C18 30.4477 17.5523 30 17 30H12ZM13 35V32H16V35H13ZM20 49C20 48.4477 20.4477 48 21 48H26C26.5523 48 27 48.4477 27 49V54C27 54.5523 26.5523 55 26 55H21C20.4477 55 20 54.5523 20 54V49ZM22 50V53H25V50H22ZM21 39C20.4477 39 20 39.4477 20 40V45C20 45.5523 20.4477 46 21 46H26C26.5523 46 27 45.5523 27 45V40C27 39.4477 26.5523 39 26 39H21ZM22 44V41H25V44H22ZM20 31C20 30.4477 20.4477 30 21 30H26C26.5523 30 27 30.4477 27 31V36C27 36.5523 26.5523 37 26 37H21C20.4477 37 20 36.5523 20 36V31ZM22 32V35H25V32H22Z" fill="currentColor"/>
</svg>
