<svg width="64" height="64" viewBox="0 0 64 64" fill="none" xmlns="http://www.w3.org/2000/svg">
<path fill-rule="evenodd" clip-rule="evenodd" d="M7.84869 12C6.74594 12 6 12.8507 6 13.7841V44.2159C6 44.7852 6.20025 45.2165 6.49617 45.5057C6.79369 45.7965 7.24628 46 7.84869 46H10.9108C11.2091 43.048 13.7776 40.5739 16.9576 40.5739C20.0258 40.5739 22.557 43.0651 22.8529 46H38V25V13.7841C38 12.8897 37.123 12 36.1513 12H7.84869ZM40 24V13.7841C40 11.7421 38.1842 10 36.1513 10H7.84869C5.60671 10 4 11.7811 4 13.7841V44.2159C4 45.281 4.38791 46.2418 5.09825 46.936C5.80698 47.6287 6.77873 48 7.84869 48H11.0502C11.4806 49.7827 12.7033 51.2392 14.3371 52H5C4.44772 52 4 52.4477 4 53C4 53.5523 4.44772 54 5 54H59C59.5523 54 60 53.5523 60 53C60 52.4477 59.5523 52 59 52H52.5266C54.1279 51.241 55.383 49.7883 55.8266 48H59C59.5523 48 60 47.5523 60 47V36.0759C60 36.0683 59.9999 36.0607 59.9997 36.0532C59.9996 36.0481 59.9995 36.043 59.9993 36.0379C60.006 35.8608 59.9657 35.682 59.8779 35.5211L59.1605 34.206L54.1744 24.5415C54.0028 24.2089 53.6599 24 53.2857 24H53H45H40ZM47.4111 52C45.7956 51.2379 44.5912 49.7786 44.1666 48H39H22.7145C22.2879 49.7811 21.0796 51.2387 19.4894 52H47.4111ZM46 26H52.4064L57.3155 35H47C46.4477 35 46 34.5523 46 34V26ZM44 34V26H40V46H44.0287C44.3229 43.0593 46.8473 40.5739 50 40.5739C53.0086 40.5739 55.6613 43.0452 55.97 46H58V37H47C45.3431 37 44 35.6569 44 34ZM12.8818 46.5739C12.8818 44.4733 14.6851 42.5739 16.9576 42.5739C19.07 42.5739 20.8818 44.4518 20.8818 46.5739C20.8818 48.8256 19.0891 50.5739 16.9576 50.5739C14.6564 50.5739 12.8818 48.7951 12.8818 46.5739ZM46 46.5739C46 44.4591 47.7838 42.5739 50 42.5739C52.097 42.5739 54 44.4769 54 46.5739C54 48.8008 52.1164 50.5739 50 50.5739C47.7554 50.5739 46 48.8093 46 46.5739Z" fill="currentColor"/>
</svg>
