<svg width="24" height="26" viewBox="0 0 24 26" fill="none" xmlns="http://www.w3.org/2000/svg">
<path fill-rule="evenodd" clip-rule="evenodd" d="M12 25C18.0751 25 23 20.0751 23 14C23 7.92487 18.0751 3 12 3C5.92487 3 1 7.92487 1 14C1 20.0751 5.92487 25 12 25ZM17.4647 9.50121L15.5972 18.836C15.4562 19.4947 15.0889 19.6587 14.5669 19.3486L11.7212 17.126L10.3484 18.5259C10.1963 18.687 10.0694 18.8215 9.77639 18.8215L9.97759 15.8018L12.1879 13.672C12.3625 13.5037 12.3754 13.2172 12.2166 13.0321C12.0578 12.8469 11.7875 12.8333 11.6128 13.0016L8.70483 15.2433L5.57198 13.9992C4.96156 13.7973 4.95051 13.3523 5.69928 13.0416L16.6775 8.55859C17.1858 8.35667 17.6305 8.67806 17.4647 9.50121Z" fill="currentColor"/>
</svg>
