<svg width="64" height="64" viewBox="0 0 64 64" fill="none" xmlns="http://www.w3.org/2000/svg">
<path fill-rule="evenodd" clip-rule="evenodd" d="M12 4C10.3431 4 9 5.34314 9 7V25V57C9 58.6569 10.3431 60 12 60H52C53.6569 60 55 58.6569 55 57V25V7C55 5.34315 53.6569 4 52 4H12ZM53 24V7C53 6.44772 52.5523 6 52 6H12C11.4477 6 11 6.44771 11 7V24H53ZM11 57V26H53V57C53 57.5523 52.5523 58 52 58H12C11.4477 58 11 57.5523 11 57ZM37.1419 10.2885C37.5348 10.6765 37.5388 11.3097 37.1507 11.7027L28.7115 20.2484C28.3235 20.6413 27.6903 20.6453 27.2973 20.2572C26.9044 19.8692 26.9004 19.236 27.2885 18.843L35.7277 10.2973C36.1157 9.90438 36.7489 9.90041 37.1419 10.2885ZM28.8905 9C27.4401 9 26 10.1481 26 12C26 13.8454 27.4135 15 28.8905 15C29.6826 15 30.461 14.7505 31.0541 14.2174C31.66 13.6728 32 12.8954 32 12C32 11.1046 31.66 10.3272 31.0541 9.7826C30.461 9.24954 29.6826 9 28.8905 9ZM28 12C28 11.3256 28.4704 11 28.8905 11C29.2726 11 29.5489 11.1189 29.7171 11.27C29.8724 11.4096 30 11.6323 30 12C30 12.3677 29.8724 12.5904 29.7171 12.73C29.5489 12.8811 29.2726 13 28.8905 13C28.4572 13 28 12.6809 28 12ZM33.7826 15.9459C34.3272 15.34 35.1045 15 36 15C36.8954 15 37.6728 15.34 38.2174 15.9459C38.7505 16.539 39 17.3174 39 18.1095C39 19.5939 37.8172 21 36 21C34.1481 21 33 19.5599 33 18.1095C33 17.3174 33.2495 16.539 33.7826 15.9459ZM35.27 17.2829C35.1189 17.4511 35 17.7274 35 18.1095C35 18.5296 35.3256 19 36 19C36.667 19 37 18.5355 37 18.1095C37 17.7274 36.8811 17.4511 36.73 17.2829C36.5904 17.1276 36.3677 17 36 17C35.6323 17 35.4096 17.1276 35.27 17.2829ZM14 48C13.4477 48 13 48.4477 13 49V55C13 55.5523 13.4477 56 14 56H20C20.5523 56 21 55.5523 21 55V49C21 48.4477 20.5523 48 20 48H14ZM15 54V50H19V54H15ZM13 39C13 38.4477 13.4477 38 14 38H20C20.5523 38 21 38.4477 21 39V45C21 45.5523 20.5523 46 20 46H14C13.4477 46 13 45.5523 13 45V39ZM15 40V44H19V40H15ZM14 28C13.4477 28 13 28.4477 13 29V35C13 35.5523 13.4477 36 14 36H20C20.5523 36 21 35.5523 21 35V29C21 28.4477 20.5523 28 20 28H14ZM15 34V30H19V34H15ZM23 49C23 48.4477 23.4477 48 24 48H30C30.5523 48 31 48.4477 31 49V55C31 55.5523 30.5523 56 30 56H24C23.4477 56 23 55.5523 23 55V49ZM25 50V54H29V50H25ZM24 38C23.4477 38 23 38.4477 23 39V45C23 45.5523 23.4477 46 24 46H30C30.5523 46 31 45.5523 31 45V39C31 38.4477 30.5523 38 30 38H24ZM25 44V40H29V44H25ZM23 29C23 28.4477 23.4477 28 24 28H30C30.5523 28 31 28.4477 31 29V35C31 35.5523 30.5523 36 30 36H24C23.4477 36 23 35.5523 23 35V29ZM25 30V34H29V30H25ZM34 48C33.4477 48 33 48.4477 33 49V55C33 55.5523 33.4477 56 34 56H40C40.5523 56 41 55.5523 41 55V49C41 48.4477 40.5523 48 40 48H34ZM35 54V50H39V54H35ZM33 39C33 38.4477 33.4477 38 34 38H40C40.5523 38 41 38.4477 41 39V45C41 45.5523 40.5523 46 40 46H34C33.4477 46 33 45.5523 33 45V39ZM35 40V44H39V40H35ZM44 28C43.4477 28 43 28.4477 43 29V35C43 35.5523 43.4477 36 44 36H50C50.5523 36 51 35.5523 51 35V29C51 28.4477 50.5523 28 50 28H44ZM45 34V30H49V34H45ZM44 56C43.4477 56 43 55.5523 43 55V39C43 38.4477 43.4477 38 44 38H50C50.5523 38 51 38.4477 51 39V55C51 55.5523 50.5523 56 50 56H44ZM45 54H49V40H45V54ZM34 28C33.4477 28 33 28.4477 33 29V35C33 35.5523 33.4477 36 34 36H40C40.5523 36 41 35.5523 41 35V29C41 28.4477 40.5523 28 40 28H34ZM35 34V30H39V34H35Z" fill="currentColor"/>
</svg>
