<svg width="64" height="64" viewBox="0 0 64 64" fill="none" xmlns="http://www.w3.org/2000/svg">
<path fill-rule="evenodd" clip-rule="evenodd" d="M28.4975 4.76653C28.107 5.15705 28.107 5.79022 28.4975 6.18074L50.0133 27.6965H45.2818C44.7295 27.6965 44.2818 28.1442 44.2818 28.6965C44.2818 29.2488 44.7295 29.6965 45.2818 29.6965H52.4273C52.536 29.6965 52.6407 29.6792 52.7387 29.6471C52.8834 29.5998 53.0195 29.5187 53.1346 29.4036C53.3352 29.203 53.4328 28.9383 53.4273 28.6754L53.4273 21.551C53.4273 20.9987 52.9795 20.551 52.4273 20.551C51.875 20.551 51.4273 20.9987 51.4273 21.551L51.4273 26.2821L29.9117 4.76653C29.5212 4.376 28.888 4.376 28.4975 4.76653ZM25 13.5C25 13.3911 24.9472 13.1784 24.6159 12.8738C24.2838 12.5684 23.7479 12.2474 23.0015 11.9571C21.515 11.3791 19.3935 11 17 11C14.6065 11 12.485 11.3791 10.9985 11.9571C10.2521 12.2474 9.71625 12.5684 9.38409 12.8738C9.0528 13.1784 9 13.3911 9 13.5C9 13.6089 9.0528 13.8216 9.38409 14.1262C9.71625 14.4316 10.2521 14.7526 10.9985 15.0429C12.485 15.6209 14.6065 16 17 16C19.3935 16 21.515 15.6209 23.0015 15.0429C23.7479 14.7526 24.2838 14.4316 24.6159 14.1262C24.9472 13.8216 25 13.6089 25 13.5ZM17 9C19.577 9 21.9555 9.40444 23.7264 10.0931C24.6087 10.4362 25.3909 10.8694 25.9696 11.4015C26.5491 11.9344 27 12.6424 27 13.5C27 13.6036 26.9934 13.705 26.9808 13.8042C26.9934 13.8675 27 13.933 27 14V19.4395C27 19.5564 26.9918 19.6705 26.9761 19.7819C26.9918 19.8521 27 19.9251 27 20V25.4395C27 25.5564 26.9918 25.6705 26.9761 25.7819C26.9918 25.8521 27 25.9251 27 26V31.4395C27 31.5564 26.9918 31.6705 26.9761 31.7819C26.9918 31.8521 27 31.9251 27 32V37.4395C27 37.5564 26.9918 37.6705 26.9761 37.7819C26.9918 37.8521 27 37.9251 27 38V43.4395C27 43.5564 26.9918 43.6705 26.9761 43.7819C26.9918 43.8521 27 43.9251 27 44V49.4395C27 49.5564 26.9918 49.6705 26.9761 49.7819C26.9918 49.8521 27 49.9251 27 50V55.4395C27 56.2989 26.5557 57.0134 25.9758 57.5558C25.3976 58.0966 24.6152 58.5376 23.7318 58.887C21.9592 59.5883 19.5788 60 17 60C14.4212 60 12.0408 59.5883 10.2682 58.887C9.38482 58.5376 8.60239 58.0966 8.02418 57.5558C7.44431 57.0134 7 56.2989 7 55.4395V50C7 49.9251 7.00824 49.8521 7.02385 49.7819C7.00821 49.6705 7 49.5564 7 49.4395V44C7 43.9251 7.00824 43.8521 7.02385 43.7819C7.00821 43.6705 7 43.5564 7 43.4395V38C7 37.9251 7.00824 37.8521 7.02385 37.7819C7.00821 37.6705 7 37.5564 7 37.4395V32C7 31.9251 7.00824 31.8521 7.02385 31.7819C7.00821 31.6705 7 31.5564 7 31.4395V26C7 25.9251 7.00824 25.8521 7.02385 25.7819C7.00821 25.6705 7 25.5564 7 25.4395V20C7 19.9251 7.00824 19.8521 7.02385 19.7819C7.00821 19.6705 7 19.5564 7 19.4395V14C7 13.933 7.00659 13.8675 7.01917 13.8042C7.00658 13.705 7 13.6036 7 13.5C7 12.6424 7.45088 11.9344 8.03043 11.4015C8.60913 10.8694 9.39133 10.4362 10.2736 10.0931C12.0445 9.40444 14.423 9 17 9ZM9 52.2745C9.3867 52.5036 9.8141 52.7074 10.2682 52.887C12.0408 53.5883 14.4212 54 17 54C19.5788 54 21.9592 53.5883 23.7318 52.887C24.1859 52.7074 24.6133 52.5036 25 52.2745V55.4395C25 55.5634 24.9406 55.7855 24.6096 56.0951C24.277 56.4062 23.7414 56.7324 22.9961 57.0273C21.5113 57.6147 19.3918 58 17 58C14.6082 58 12.4887 57.6147 11.0039 57.0273C10.2586 56.7324 9.72298 56.4062 9.39036 56.0951C9.05938 55.7855 9 55.5634 9 55.4395V52.2745ZM25 49.4395V46.2745C24.6133 46.5036 24.1859 46.7074 23.7318 46.887C21.9592 47.5883 19.5788 48 17 48C14.4212 48 12.0408 47.5883 10.2682 46.887C9.8141 46.7074 9.3867 46.5036 9 46.2745V49.4395C9 49.5634 9.05937 49.7855 9.39036 50.0951C9.72298 50.4062 10.2586 50.7324 11.0039 51.0273C12.4887 51.6147 14.6082 52 17 52C19.3918 52 21.5113 51.6147 22.9961 51.0273C23.7414 50.7324 24.277 50.4062 24.6096 50.0951C24.9406 49.7855 25 49.5634 25 49.4395ZM9 40.2745C9.3867 40.5036 9.8141 40.7074 10.2682 40.887C12.0408 41.5883 14.4212 42 17 42C19.5788 42 21.9592 41.5883 23.7318 40.887C24.1859 40.7074 24.6133 40.5036 25 40.2745V43.4395C25 43.5634 24.9406 43.7855 24.6096 44.0951C24.277 44.4062 23.7414 44.7324 22.9961 45.0273C21.5113 45.6147 19.3918 46 17 46C14.6082 46 12.4887 45.6147 11.0039 45.0273C10.2586 44.7324 9.72298 44.4062 9.39036 44.0951C9.05937 43.7855 9 43.5634 9 43.4395V40.2745ZM25 37.4395V34.2745C24.6133 34.5036 24.1859 34.7074 23.7318 34.887C21.9592 35.5883 19.5788 36 17 36C14.4212 36 12.0408 35.5883 10.2682 34.887C9.8141 34.7074 9.3867 34.5036 9 34.2745V37.4395C9 37.5634 9.05937 37.7855 9.39036 38.0951C9.72298 38.4062 10.2586 38.7324 11.0039 39.0273C12.4887 39.6147 14.6082 40 17 40C19.3918 40 21.5113 39.6147 22.9961 39.0273C23.7414 38.7324 24.277 38.4062 24.6096 38.0951C24.9406 37.7855 25 37.5634 25 37.4395ZM9 28.2745C9.3867 28.5036 9.8141 28.7074 10.2682 28.887C12.0408 29.5883 14.4212 30 17 30C19.5788 30 21.9592 29.5883 23.7318 28.887C24.1859 28.7074 24.6133 28.5036 25 28.2745V31.4395C25 31.5634 24.9406 31.7855 24.6096 32.0951C24.277 32.4062 23.7414 32.7324 22.9961 33.0273C21.5113 33.6147 19.3918 34 17 34C14.6082 34 12.4887 33.6147 11.0039 33.0273C10.2586 32.7324 9.72298 32.4062 9.39036 32.0951C9.05937 31.7855 9 31.5634 9 31.4395V28.2745ZM9 22.2745C9.38671 22.5036 9.81411 22.7074 10.2682 22.887C12.0408 23.5883 14.4212 24 17 24C19.5788 24 21.9592 23.5883 23.7318 22.887C24.1859 22.7074 24.6133 22.5036 25 22.2745V25.4395C25 25.5634 24.9406 25.7855 24.6096 26.0951C24.277 26.4062 23.7414 26.7324 22.9961 27.0273C21.5113 27.6147 19.3918 28 17 28C14.6082 28 12.4887 27.6147 11.0039 27.0273C10.2586 26.7324 9.72298 26.4062 9.39036 26.0951C9.05937 25.7855 9 25.5634 9 25.4395V22.2745ZM9 16.3014C9.38828 16.5281 9.81757 16.7295 10.2736 16.9069C12.0445 17.5956 14.423 18 17 18C19.577 18 21.9555 17.5956 23.7264 16.9069C24.1824 16.7295 24.6117 16.5281 25 16.3014V19.4395C25 19.5634 24.9406 19.7855 24.6096 20.0951C24.277 20.4062 23.7414 20.7324 22.9961 21.0273C21.5113 21.6147 19.3918 22 17 22C14.6082 22 12.4887 21.6147 11.0039 21.0273C10.2586 20.7324 9.72298 20.4062 9.39036 20.0951C9.05938 19.7855 9 19.5634 9 19.4395V16.3014ZM55 37.5C55 37.3911 54.9472 37.1784 54.6159 36.8738C54.2838 36.5684 53.7479 36.2474 53.0015 35.9571C51.515 35.379 49.3935 35 47 35C44.6065 35 42.485 35.379 40.9985 35.9571C40.2521 36.2474 39.7162 36.5684 39.3841 36.8738C39.0528 37.1784 39 37.3911 39 37.5C39 37.6089 39.0528 37.8216 39.3841 38.1262C39.7162 38.4316 40.2521 38.7526 40.9985 39.0429C42.485 39.6209 44.6065 40 47 40C49.3935 40 51.515 39.6209 53.0015 39.0429C53.7479 38.7526 54.2838 38.4316 54.6159 38.1262C54.9472 37.8216 55 37.6089 55 37.5ZM47 33C49.577 33 51.9555 33.4044 53.7264 34.0931C54.6087 34.4362 55.3909 34.8694 55.9696 35.4015C56.5491 35.9344 57 36.6424 57 37.5C57 37.6036 56.9934 37.705 56.9808 37.8042C56.9934 37.8675 57 37.933 57 38V43.4395C57 43.5564 56.9918 43.6705 56.9761 43.7819C56.9918 43.8521 57 43.9251 57 44V49.4395C57 49.5564 56.9918 49.6705 56.9761 49.7819C56.9918 49.8521 57 49.9251 57 50V55.4395C57 56.2989 56.5557 57.0134 55.9758 57.5558C55.3976 58.0966 54.6152 58.5376 53.7318 58.887C51.9592 59.5883 49.5788 60 47 60C44.4212 60 42.0408 59.5883 40.2682 58.887C39.3848 58.5376 38.6024 58.0966 38.0242 57.5558C37.4443 57.0134 37 56.2989 37 55.4395V50C37 49.9251 37.0082 49.8521 37.0239 49.7819C37.0082 49.6705 37 49.5564 37 49.4395V44C37 43.9251 37.0082 43.8521 37.0239 43.7819C37.0082 43.6705 37 43.5564 37 43.4395V38C37 37.933 37.0066 37.8675 37.0192 37.8042C37.0066 37.705 37 37.6036 37 37.5C37 36.6424 37.4509 35.9344 38.0304 35.4015C38.6091 34.8694 39.3913 34.4362 40.2736 34.0931C42.0445 33.4044 44.423 33 47 33ZM55 55.4395V52.2745C54.6133 52.5036 54.1859 52.7074 53.7318 52.887C51.9592 53.5883 49.5788 54 47 54C44.4212 54 42.0408 53.5883 40.2682 52.887C39.8141 52.7074 39.3867 52.5036 39 52.2745V55.4395C39 55.5634 39.0594 55.7855 39.3904 56.0951C39.723 56.4062 40.2586 56.7324 41.0039 57.0273C42.4887 57.6147 44.6082 58 47 58C49.3918 58 51.5113 57.6147 52.9961 57.0273C53.7414 56.7324 54.277 56.4062 54.6096 56.0951C54.9406 55.7855 55 55.5634 55 55.4395ZM55 49.4395V46.2745C54.6133 46.5036 54.1859 46.7074 53.7318 46.887C51.9592 47.5883 49.5788 48 47 48C44.4212 48 42.0408 47.5883 40.2682 46.887C39.8141 46.7074 39.3867 46.5036 39 46.2745V49.4395C39 49.5634 39.0594 49.7855 39.3904 50.0951C39.723 50.4062 40.2586 50.7324 41.0039 51.0273C42.4887 51.6147 44.6082 52 47 52C49.3918 52 51.5113 51.6147 52.9961 51.0273C53.7414 50.7324 54.277 50.4062 54.6096 50.0951C54.9406 49.7855 55 49.5634 55 49.4395ZM39 40.3014C39.3883 40.5281 39.8176 40.7295 40.2736 40.9069C42.0445 41.5955 44.423 42 47 42C49.577 42 51.9555 41.5955 53.7264 40.9069C54.1824 40.7295 54.6117 40.5281 55 40.3014V43.4395C55 43.5634 54.9406 43.7855 54.6096 44.0951C54.277 44.4062 53.7414 44.7324 52.9961 45.0273C51.5113 45.6147 49.3918 46 47 46C44.6082 46 42.4887 45.6147 41.0039 45.0273C40.2586 44.7324 39.723 44.4062 39.3904 44.0951C39.0594 43.7855 39 43.5634 39 43.4395V40.3014Z" fill="currentColor"/>
</svg>
