<svg width="24" height="24" viewBox="0 0 24 24" fill="none" xmlns="http://www.w3.org/2000/svg">
<path fill-rule="evenodd" clip-rule="evenodd" d="M12.75 4C12.75 3.58579 12.4142 3.25 12 3.25C11.5858 3.25 11.25 3.58579 11.25 4L11.25 11.25L4 11.25C3.58579 11.25 3.25 11.5858 3.25 12C3.25 12.4142 3.58579 12.75 4 12.75L11.25 12.75L11.25 20C11.25 20.4142 11.5858 20.75 12 20.75C12.4142 20.75 12.75 20.4142 12.75 20V12.75L20 12.75C20.4142 12.75 20.75 12.4142 20.75 12C20.75 11.5858 20.4142 11.25 20 11.25L12.75 11.25V4Z" fill="currentColor"/>
</svg>
