<svg width="64" height="64" viewBox="0 0 64 64" fill="none" xmlns="http://www.w3.org/2000/svg">
<path fill-rule="evenodd" clip-rule="evenodd" d="M20 4C18.3431 4 17 5.34315 17 7V17.8284C17 19.4852 18.3431 20.8284 20 20.8284H20.7973C21.3876 20.8284 21.8495 21.337 21.7927 21.9246L21.5046 24.9038C21.4646 25.3183 21.6856 25.7142 22.0594 25.8977C22.4332 26.0812 22.8816 26.0138 23.185 25.7285L28.1076 21.0999C28.2931 20.9255 28.538 20.8284 28.7926 20.8284H32H35.2074C35.462 20.8284 35.7069 20.9255 35.8924 21.0999L40.815 25.7285C41.1184 26.0138 41.5668 26.0812 41.9406 25.8977C42.3144 25.7142 42.5354 25.3183 42.4954 24.9038L42.2073 21.9246C42.1505 21.337 42.6124 20.8284 43.2027 20.8284H44C45.6569 20.8284 47 19.4852 47 17.8284V7C47 5.34315 45.6569 4 44 4H20ZM19 7C19 6.44772 19.4477 6 20 6H44C44.5523 6 45 6.44772 45 7V17.8284C45 18.3807 44.5523 18.8284 44 18.8284H43.2027C41.4318 18.8284 40.0462 20.3544 40.2166 22.1171L40.2489 22.4509L37.2625 19.6428C36.7061 19.1196 35.9711 18.8284 35.2074 18.8284H32H28.7926C28.0289 18.8284 27.2939 19.1196 26.7375 19.6428L23.7511 22.4509L23.7834 22.1171C23.9538 20.3544 22.5682 18.8284 20.7973 18.8284H20C19.4477 18.8284 19 18.3807 19 17.8284V7ZM28 9C27.4477 9 27 9.44772 27 10C27 10.5523 27.4477 11 28 11L36 11C36.5523 11 37 10.5523 37 10C37 9.44772 36.5523 9 36 9L28 9ZM4 49C4 48.4477 4.44772 48 5 48H10.6738C7.8469 46.0093 6 42.7203 6 39C6 32.9249 10.9249 28 17 28C23.0751 28 28 32.9249 28 39C28 42.7203 26.1531 46.0093 23.3262 48H32H40.6738C37.8469 46.0093 36 42.7203 36 39C36 32.9249 40.9249 28 47 28C53.0751 28 58 32.9249 58 39C58 42.7203 56.1531 46.0093 53.3262 48H59C59.5523 48 60 48.4477 60 49C60 49.5523 59.5523 50 59 50H47H34.2454L41.7433 58.331C42.0075 58.6246 42.0742 59.0461 41.9135 59.4068C41.7528 59.7676 41.3949 60 41 60H23C22.6051 60 22.2472 59.7676 22.0865 59.4068C21.9258 59.0461 21.9925 58.6246 22.2567 58.331L29.7546 50H17H5C4.44772 50 4 49.5523 4 49ZM56 39C56 43.9706 51.9706 48 47 48C42.0294 48 38 43.9706 38 39C38 34.0294 42.0294 30 47 30C51.9706 30 56 34.0294 56 39ZM17 48C21.9706 48 26 43.9706 26 39C26 34.0294 21.9706 30 17 30C12.0294 30 8 34.0294 8 39C8 43.9706 12.0294 48 17 48ZM38.7546 58L32 50.4948L25.2454 58H38.7546ZM27 14C27 13.4477 27.4477 13 28 13L36 13C36.5523 13 37 13.4477 37 14C37 14.5523 36.5523 15 36 15L28 15C27.4477 15 27 14.5523 27 14Z" fill="currentColor"/>
</svg>
