<svg width="64" height="64" viewBox="0 0 64 64" fill="none" xmlns="http://www.w3.org/2000/svg">
<path fill-rule="evenodd" clip-rule="evenodd" d="M7 16C6.44772 16 6 16.4477 6 17V23H51V17C51 16.4477 50.5523 16 50 16H7ZM4 17V24V44C4 45.6569 5.34315 47 7 47H40.9894C41.6753 48.3353 42.6521 49.4822 43.7061 50.4308C45.6971 52.2227 48.0722 53.4115 49.6838 53.9487C49.8891 54.0171 50.111 54.0171 50.3163 53.9487C51.9208 53.4138 54.2969 52.2524 56.2913 50.4708C58.2879 48.6871 60.0001 46.1872 60.0001 43V42.9672V42.9344V42.9017V42.869V42.8364V42.8038V42.7712V42.7386V42.7061V42.6736V42.6412V42.6088V42.5764V42.5441V42.5118V42.4795V42.4473V42.4151V42.383V42.3508V42.3188V42.2867V42.2547V42.2227V42.1908V42.1589V42.127V42.0952V42.0634V42.0317V41.9999V41.9683V41.9366V41.905V41.8734V41.8419V41.8104V41.779V41.7475V41.7161V41.6848V41.6535V41.6222V41.591V41.5598V41.5286V41.4975V41.4664V41.4354V41.4044V41.3734V41.3425V41.3116V41.2807V41.2499V41.2191V41.1884V41.1576V41.127V41.0964V41.0658V41.0352V41.0047V40.9742V40.9438V40.9134V40.883V40.8527V40.8224V40.7922V40.762V40.7318V40.7017V40.6716V40.6415V40.6115V40.5816V40.5516V40.5217V40.4919V40.4621V40.4323V40.4026V40.3729V40.3432V40.3136V40.284V40.2545V40.225V40.1955V40.1661V40.1367V40.1074V40.0781V40.0488V40.0196V39.9905V39.9613V39.9322V39.9032V39.8742V39.8452V39.8162V39.7874V39.7585V39.7297V39.7009V39.6722V39.6435V39.6149V39.5862V39.5577V39.5292V39.5007V39.4722V39.4438V39.4155V39.3871V39.3589V39.3306V39.3024V39.2743V39.2462V39.2181V39.1901V39.1621V39.1342V39.1063V39.0784V39.0506V39.0228V38.9951V38.9674V38.9397V38.9121V38.8846V38.857V38.8295V38.8021V38.7747V38.7474V38.7201V38.6928V38.6656V38.6384V38.6112V38.5841V38.5571V38.5301V38.5031V38.4762V38.4493V38.4225V38.3957V38.3689V38.3422V38.3156V38.2889V38.2624V38.2358V38.2094V38.1829V38.1565V38.1301V38.1038V38.0776V38.0513V38.0252V37.999V37.9729V37.9469V37.9209V37.8949V37.869V37.8431V37.8173V37.7915V37.7658V37.7401V37.7144V37.6888V37.6633V37.6378V37.6123V37.5869V37.5615V37.5361V37.5109V37.4856V37.4604V37.4353V37.4102V37.3851V37.3601V37.3351V37.3102V37.2853V37.2605V37.2357V37.2109V37.1862V37.1616V37.137V37.1124V37.0879V37.0634V37.039V37.0146V36.9903V36.966V36.9418V36.9176V36.8935V36.8694V36.8453V36.8213V36.7973V36.7734V36.7496V36.7258V36.702V36.6783V36.6546V36.631V36.6074V36.5838V36.5604V36.5369V36.5135V36.4902V36.4669V36.4436V36.4204V36.3973V36.3742V36.3511V36.3281V36.3051V36.2822V36.2593V36.2365V36.2137V36.191V36.1683V36.1457V36.1231V36.1006V36.0781V36.0557V36.0333V36.011V35.9887V35.9664V35.9442V35.9221V35.9V35.878V35.856V35.834V35.8121V35.7903V35.7685V35.7467V35.725V35.7034V35.6817V35.6602V35.6387V35.6172V35.5958V35.5745V35.5532V35.5319V35.5107V35.4895V35.4684V35.4474V35.4264V35.4054V35.3845V35.3636V35.3428V35.3221V35.3014V35.2807V35.2601V35.2395V35.219V35.1986V35.1782V35.1578V35.1375V35.1173V35.0971V35.0769V35.0568V35.0368V35.0168V34.9968V34.9769V34.9571V34.9373V34.9176V34.8979V34.8782V34.8586V34.8391V34.8196V34.8002V34.7808V34.7615V34.7422V34.723V34.7038V34.6847V34.6656V34.6466V34.6276V34.6087V34.5898V34.571V34.5523V34.5336V34.5149V34.4963V34.4778V34.4593V34.4408V34.4224V34.4041V34.3858V34.3676V34.3494V34.3313V34.3132V34.2952V34.2772V34.2593V34.2415V34.2237V34.2059V34.1882V34.1706V34.153V34.1354V34.1179V34.1005V34.0831V34.0658V34.0485V34.0313V34.0142V33.9971V33.98V33.963V33.9461V33.9292V33.9123V33.8955V33.8788V33.8621V33.8455V33.8289V33.8124V33.796V33.7796V33.7632V33.7469V33.7307V33.7145V33.6984V33.6823V33.6663V33.6503V33.6344V33.6186V33.6028V33.587V33.5714V33.5557V33.5401V33.5246V33.5092V33.4937V33.4784V33.4631V33.4479V33.4327V33.4175V33.4025V33.3875V33.3725V33.3576V33.3427V33.3279V33.3132V33.2985V33.2839V33.2693V33.2548V33.2404V33.226V33.2116V33.1973V33.1831V33.1689V33.1548V33.1408V33.1268V33.1128V33.0989V33.0851V33.0713V33.0576V33.044V33.0304V33.0168V33.0033V32.9899V32.9765V32.9632V32.95V32.9368V32.9236V32.9106V32.8975V32.8846V32.8717V32.8588V32.846V32.8333V32.8206V32.808V32.7954V32.7829V32.7705V32.7581V32.7458V32.7335V32.7213V32.7092V32.6971V32.6851V32.6731V32.6612V32.6493V32.6375V32.6258V32.6141V32.6025V32.5909V32.5794V32.568V32.5566V32.5453V32.534V32.5228V32.5117V32.5006V32.4896V32.4786V32.4677V32.4569V32.4461V32.4354V32.4247V32.4141V32.4035V32.3931V32.3826V32.3723V32.362V32.3517V32.3416V32.3314V32.3214V32.3114V32.3014V32.2916V32.2817V32.272V32.2623V32.2527V32.2431V32.2336V32.2241V32.2147V32.2054V32.1961V32.1869V32.1778V32.1687V32.1597V32.1507V32.1418V32.133V32.1242V32.1155V32.1068V32.0982V32.0897V32.0812V32.0728V32.0645V32.0562V32.048V32.0398V32.0317V32.0237V32.0158V32.0078V32C60.0001 31.4477 59.5523 31 59.0001 31H53V24V17C53 15.3431 51.6569 14 50 14H7C5.34315 14 4 15.3431 4 17ZM51 31V25H6V44C6 44.5523 6.44772 45 7 45H40.2389C40.085 44.3656 40.0001 43.6986 40.0001 43V42.9678V42.9355V42.9033V42.8711V42.8389V42.8066V42.7744V42.7422V42.71V42.6778V42.6456V42.6134V42.5811V42.5489V42.5167V42.4845V42.4524V42.4202V42.388V42.3558V42.3236V42.2915V42.2593V42.2271V42.195V42.1628V42.1307V42.0986V42.0664V42.0343V42.0022V41.9701V41.938V41.9059V41.8738V41.8418V41.8097V41.7776V41.7456V41.7136V41.6815V41.6495V41.6175V41.5855V41.5535V41.5216V41.4896V41.4577V41.4257V41.3938V41.3619V41.33V41.2981V41.2662V41.2344V41.2025V41.1707V41.1389V41.107V41.0753V41.0435V41.0117V40.98V40.9482V40.9165V40.8848V40.8531V40.8215V40.7898V40.7582V40.7266V40.695V40.6634V40.6318V40.6003V40.5688V40.5373V40.5058V40.4743V40.4429V40.4114V40.38V40.3486V40.3173V40.2859V40.2546V40.2233V40.192V40.1607V40.1295V40.0983V40.0671V40.0359V40.0047V39.9736V39.9425V39.9114V39.8804V39.8493V39.8183V39.7873V39.7564V39.7254V39.6945V39.6636V39.6328V39.602V39.5712V39.5404V39.5096V39.4789V39.4482V39.4175V39.3869V39.3563V39.3257V39.2951V39.2646V39.2341V39.2036V39.1732V39.1428V39.1124V39.082V39.0517V39.0214V38.9912V38.9609V38.9307V38.9006V38.8704V38.8403V38.8103V38.7802V38.7502V38.7203V38.6903V38.6604V38.6306V38.6007V38.5709V38.5412V38.5114V38.4817V38.4521V38.4225V38.3929V38.3633V38.3338V38.3043V38.2749V38.2455V38.2161V38.1868V38.1575V38.1282V38.099V38.0698V38.0407V38.0116V37.9825V37.9535V37.9245V37.8956V37.8667V37.8378V37.809V37.7802V37.7515V37.7228V37.6942V37.6655V37.637V37.6085V37.58V37.5515V37.5231V37.4948V37.4665V37.4382V37.41V37.3818V37.3537V37.3256V37.2975V37.2695V37.2416V37.2137V37.1858V37.158V37.1303V37.1025V37.0749V37.0472V37.0197V36.9921V36.9647V36.9372V36.9098V36.8825V36.8552V36.828V36.8008V36.7737V36.7466V36.7196V36.6926V36.6656V36.6388V36.6119V36.5851V36.5584V36.5317V36.5051V36.4785V36.452V36.4256V36.3992V36.3728V36.3465V36.3202V36.294V36.2679V36.2418V36.2158V36.1898V36.1639V36.138V36.1122V36.0865V36.0608V36.0351V36.0096V35.984V35.9586V35.9332V35.9078V35.8825V35.8573V35.8321V35.807V35.7819V35.7569V35.732V35.7071V35.6823V35.6575V35.6329V35.6082V35.5836V35.5591V35.5347V35.5103V35.486V35.4617V35.4375V35.4134V35.3893V35.3653V35.3413V35.3174V35.2936V35.2699V35.2462V35.2225V35.199V35.1755V35.1521V35.1287V35.1054V35.0822V35.059V35.0359V35.0129V34.9899V34.967V34.9442V34.9214V34.8987V34.8761V34.8536V34.8311V34.8087V34.7863V34.764V34.7418V34.7197V34.6976V34.6756V34.6537V34.6319V34.6101V34.5884V34.5667V34.5452V34.5237V34.5023V34.4809V34.4596V34.4384V34.4173V34.3963V34.3753V34.3544V34.3336V34.3128V34.2921V34.2715V34.251V34.2305V34.2102V34.1899V34.1697V34.1495V34.1294V34.1095V34.0895V34.0697V34.05V34.0303V34.0107V33.9912V33.9717V33.9524V33.9331V33.9139V33.8947V33.8757V33.8567V33.8379V33.8191V33.8004V33.7817V33.7632V33.7447V33.7263V33.708V33.6898V33.6716V33.6536V33.6356V33.6177V33.5999V33.5822V33.5645V33.547V33.5295V33.5121V33.4949V33.4776V33.4605V33.4435V33.4265V33.4097V33.3929V33.3762V33.3596V33.3431V33.3267V33.3103V33.2941V33.2779V33.2618V33.2458V33.23V33.2142V33.1984V33.1828V33.1673V33.1518V33.1365V33.1212V33.1061V33.091V33.076V33.0611V33.0463V33.0316V33.017V33.0025V32.988V32.9737V32.9595V32.9453V32.9313V32.9173V32.9034V32.8897V32.876V32.8624V32.8489V32.8356V32.8223V32.8091V32.796V32.783V32.7701V32.7573V32.7446V32.732V32.7195V32.7071V32.6948V32.6825V32.6704V32.6584V32.6465V32.6347V32.623V32.6114V32.5999V32.5884V32.5771V32.5659V32.5548V32.5438V32.5329V32.5221V32.5114V32.5008V32.4903V32.48V32.4697V32.4595V32.4494V32.4395V32.4296V32.4198V32.4102V32.4006V32.3912V32.3819V32.3726V32.3635V32.3545V32.3456V32.3368V32.3281V32.3195V32.311V32.3026V32.2944V32.2862V32.2782V32.2702V32.2624V32.2547V32.2471V32.2396V32.2322V32.2249V32.2177V32.2107V32.2037V32.1969V32.1902V32.1836V32.1771V32.1707V32.1644V32.1583V32.1522V32.1463V32.1405V32.1348V32.1292V32.1237V32.1184V32.1131V32.108V32.103V32.0981V32.0933V32.0886V32.0841V32.0797V32.0753V32.0712V32.0671V32.0631V32.0593V32.0555V32.0519V32.0484V32.0451V32.0418V32.0387V32.0357V32.0328V32.03V32.0274V32.0248V32.0224V32.0202V32.018V32.0159V32.014V32.0122V32.0105V32.009V32.0076V32.0063V32.0051V32.004V32.0031V32.0023V32.0016V32.001V32.0006V32.0003V32.0001L41.0001 32H40.0001C40.0001 31.4477 40.4478 31 41.0001 31H51ZM8 29C8 28.4477 8.44772 28 9 28H21C21.5523 28 22 28.4477 22 29C22 29.5523 21.5523 30 21 30H9C8.44772 30 8 29.5523 8 29ZM54.8321 38.5547C55.1384 38.0952 55.0142 37.4743 54.5547 37.1679C54.0952 36.8616 53.4743 36.9858 53.1679 37.4453L49.8446 42.4304L47.7071 40.2929C47.3166 39.9024 46.6834 39.9024 46.2929 40.2929C45.9024 40.6834 45.9024 41.3166 46.2929 41.7071L49.2929 44.7071C49.5047 44.919 49.8004 45.0247 50.0985 44.9951C50.3967 44.9656 50.6659 44.804 50.8321 44.5547L54.8321 38.5547ZM42.0001 33.0025V33H52H58.0001V33.0033V33.0168V33.0304V33.044V33.0576V33.0713V33.0851V33.0989V33.1128V33.1268V33.1408V33.1548V33.1689V33.1831V33.1973V33.2116V33.226V33.2404V33.2548V33.2693V33.2839V33.2985V33.3132V33.3279V33.3427V33.3576V33.3725V33.3875V33.4025V33.4175V33.4327V33.4479V33.4631V33.4784V33.4937V33.5092V33.5246V33.5401V33.5557V33.5714V33.587V33.6028V33.6186V33.6344V33.6503V33.6663V33.6823V33.6984V33.7145V33.7307V33.7469V33.7632V33.7796V33.796V33.8124V33.8289V33.8455V33.8621V33.8788V33.8955V33.9123V33.9292V33.9461V33.963V33.98V33.9971V34.0142V34.0313V34.0485V34.0658V34.0831V34.1005V34.1179V34.1354V34.153V34.1706V34.1882V34.2059V34.2237V34.2415V34.2593V34.2772V34.2952V34.3132V34.3313V34.3494V34.3676V34.3858V34.4041V34.4224V34.4408V34.4593V34.4778V34.4963V34.5149V34.5336V34.5523V34.571V34.5898V34.6087V34.6276V34.6466V34.6656V34.6847V34.7038V34.723V34.7422V34.7615V34.7808V34.8002V34.8196V34.8391V34.8586V34.8782V34.8979V34.9176V34.9373V34.9571V34.9769V34.9968V35.0168V35.0368V35.0568V35.0769V35.0971V35.1173V35.1375V35.1578V35.1782V35.1986V35.219V35.2395V35.2601V35.2807V35.3014V35.3221V35.3428V35.3636V35.3845V35.4054V35.4264V35.4474V35.4684V35.4895V35.5107V35.5319V35.5532V35.5745V35.5958V35.6172V35.6387V35.6602V35.6817V35.7034V35.725V35.7467V35.7685V35.7903V35.8121V35.834V35.856V35.878V35.9V35.9221V35.9442V35.9664V35.9887V36.011V36.0333V36.0557V36.0781V36.1006V36.1231V36.1457V36.1683V36.191V36.2137V36.2365V36.2593V36.2822V36.3051V36.3281V36.3511V36.3742V36.3973V36.4204V36.4436V36.4669V36.4902V36.5135V36.5369V36.5604V36.5838V36.6074V36.631V36.6546V36.6783V36.702V36.7258V36.7496V36.7734V36.7973V36.8213V36.8453V36.8694V36.8935V36.9176V36.9418V36.966V36.9903V37.0146V37.039V37.0634V37.0879V37.1124V37.137V37.1616V37.1862V37.2109V37.2357V37.2605V37.2853V37.3102V37.3351V37.3601V37.3851V37.4102V37.4353V37.4604V37.4856V37.5109V37.5361V37.5615V37.5869V37.6123V37.6378V37.6633V37.6888V37.7144V37.7401V37.7658V37.7915V37.8173V37.8431V37.869V37.8949V37.9209V37.9469V37.9729V37.999V38.0252V38.0513V38.0776V38.1038V38.1301V38.1565V38.1829V38.2094V38.2358V38.2624V38.2889V38.3156V38.3422V38.3689V38.3957V38.4225V38.4493V38.4762V38.5031V38.5301V38.5571V38.5841V38.6112V38.6384V38.6656V38.6928V38.7201V38.7474V38.7747V38.8021V38.8295V38.857V38.8846V38.9121V38.9397V38.9674V38.9951V39.0228V39.0506V39.0784V39.1063V39.1342V39.1621V39.1901V39.2181V39.2462V39.2743V39.3024V39.3306V39.3589V39.3871V39.4155V39.4438V39.4722V39.5007V39.5292V39.5577V39.5862V39.6149V39.6435V39.6722V39.7009V39.7297V39.7585V39.7874V39.8162V39.8452V39.8742V39.9032V39.9322V39.9613V39.9905V40.0196V40.0488V40.0781V40.1074V40.1367V40.1661V40.1955V40.225V40.2545V40.284V40.3136V40.3432V40.3729V40.4026V40.4323V40.4621V40.4919V40.5217V40.5516V40.5816V40.6115V40.6415V40.6716V40.7017V40.7318V40.762V40.7922V40.8224V40.8527V40.883V40.9134V40.9438V40.9742V41.0047V41.0352V41.0658V41.0964V41.127V41.1576V41.1884V41.2191V41.2499V41.2807V41.3116V41.3425V41.3734V41.4044V41.4354V41.4664V41.4975V41.5286V41.5598V41.591V41.6222V41.6535V41.6848V41.7161V41.7475V41.779V41.8104V41.8419V41.8734V41.905V41.9366V41.9683V41.9999V42.0317V42.0634V42.0952V42.127V42.1589V42.1908V42.2227V42.2547V42.2867V42.3188V42.3508V42.383V42.4151V42.4473V42.4795V42.5118V42.5441V42.5764V42.6088V42.6412V42.6736V42.7061V42.7386V42.7712V42.8038V42.8364V42.869V42.9017V42.9344V42.9672V43C58.0001 45.4128 56.7122 47.4129 54.9588 48.9792C53.3314 50.4331 51.3874 51.4317 50.0006 51.9403C48.6193 51.4306 46.6744 50.4116 45.044 48.9442C43.2848 47.3609 42.0001 45.3599 42.0001 43V42.9678V42.9355V42.9033V42.8711V42.8389V42.8066V42.7744V42.7422V42.71V42.6778V42.6456V42.6134V42.5811V42.5489V42.5167V42.4845V42.4524V42.4202V42.388V42.3558V42.3236V42.2915V42.2593V42.2271V42.195V42.1628V42.1307V42.0986V42.0664V42.0343V42.0022V41.9701V41.938V41.9059V41.8738V41.8418V41.8097V41.7776V41.7456V41.7136V41.6815V41.6495V41.6175V41.5855V41.5535V41.5216V41.4896V41.4577V41.4257V41.3938V41.3619V41.33V41.2981V41.2662V41.2344V41.2025V41.1707V41.1389V41.107V41.0753V41.0435V41.0117V40.98V40.9482V40.9165V40.8848V40.8531V40.8215V40.7898V40.7582V40.7266V40.695V40.6634V40.6318V40.6003V40.5688V40.5373V40.5058V40.4743V40.4429V40.4114V40.38V40.3486V40.3173V40.2859V40.2546V40.2233V40.192V40.1607V40.1295V40.0983V40.0671V40.0359V40.0047V39.9736V39.9425V39.9114V39.8804V39.8493V39.8183V39.7873V39.7564V39.7254V39.6945V39.6636V39.6328V39.602V39.5712V39.5404V39.5096V39.4789V39.4482V39.4175V39.3869V39.3563V39.3257V39.2951V39.2646V39.2341V39.2036V39.1732V39.1428V39.1124V39.082V39.0517V39.0214V38.9912V38.9609V38.9307V38.9006V38.8704V38.8403V38.8103V38.7802V38.7502V38.7203V38.6903V38.6604V38.6306V38.6007V38.5709V38.5412V38.5114V38.4817V38.4521V38.4225V38.3929V38.3633V38.3338V38.3043V38.2749V38.2455V38.2161V38.1868V38.1575V38.1282V38.099V38.0698V38.0407V38.0116V37.9825V37.9535V37.9245V37.8956V37.8667V37.8378V37.809V37.7802V37.7515V37.7228V37.6942V37.6655V37.637V37.6085V37.58V37.5515V37.5231V37.4948V37.4665V37.4382V37.41V37.3818V37.3537V37.3256V37.2975V37.2695V37.2416V37.2137V37.1858V37.158V37.1303V37.1025V37.0749V37.0472V37.0197V36.9921V36.9647V36.9372V36.9098V36.8825V36.8552V36.828V36.8008V36.7737V36.7466V36.7196V36.6926V36.6656V36.6388V36.6119V36.5851V36.5584V36.5317V36.5051V36.4785V36.452V36.4256V36.3992V36.3728V36.3465V36.3202V36.294V36.2679V36.2418V36.2158V36.1898V36.1639V36.138V36.1122V36.0865V36.0608V36.0351V36.0096V35.984V35.9586V35.9332V35.9078V35.8825V35.8573V35.8321V35.807V35.7819V35.7569V35.732V35.7071V35.6823V35.6575V35.6329V35.6082V35.5836V35.5591V35.5347V35.5103V35.486V35.4617V35.4375V35.4134V35.3893V35.3653V35.3413V35.3174V35.2936V35.2699V35.2462V35.2225V35.199V35.1755V35.1521V35.1287V35.1054V35.0822V35.059V35.0359V35.0129V34.9899V34.967V34.9442V34.9214V34.8987V34.8761V34.8536V34.8311V34.8087V34.7863V34.764V34.7418V34.7197V34.6976V34.6756V34.6537V34.6319V34.6101V34.5884V34.5667V34.5452V34.5237V34.5023V34.4809V34.4596V34.4384V34.4173V34.3963V34.3753V34.3544V34.3336V34.3128V34.2921V34.2715V34.251V34.2305V34.2102V34.1899V34.1697V34.1495V34.1294V34.1095V34.0895V34.0697V34.05V34.0303V34.0107V33.9912V33.9717V33.9524V33.9331V33.9139V33.8947V33.8757V33.8567V33.8379V33.8191V33.8004V33.7817V33.7632V33.7447V33.7263V33.708V33.6898V33.6716V33.6536V33.6356V33.6177V33.5999V33.5822V33.5645V33.547V33.5295V33.5121V33.4949V33.4776V33.4605V33.4435V33.4265V33.4097V33.3929V33.3762V33.3596V33.3431V33.3267V33.3103V33.2941V33.2779V33.2618V33.2458V33.23V33.2142V33.1984V33.1828V33.1673V33.1518V33.1365V33.1212V33.1061V33.091V33.076V33.0611V33.0463V33.0316V33.017V33.0025Z" fill="currentColor"/>
</svg>
