<svg width="24" height="24" viewBox="0 0 24 24" fill="none" xmlns="http://www.w3.org/2000/svg">
<path fill-rule="evenodd" clip-rule="evenodd" d="M12.9238 2.40058C12.428 1.85638 11.5716 1.85638 11.0758 2.40058L9.80218 3.79845L8.00027 3.22466C7.29878 3.00128 6.55714 3.42947 6.39985 4.14866L5.99581 5.99606L4.14842 6.40009C3.42922 6.55738 3.00103 7.29903 3.22441 8.00051L3.79821 9.80242L2.40033 11.076C1.85614 11.5718 1.85614 12.4282 2.40033 12.924L3.79821 14.1976L3.22441 15.9995C3.00103 16.701 3.42922 17.4427 4.14842 17.6L5.99581 18.004L6.39985 19.8514C6.55714 20.5706 7.29878 20.9988 8.00027 20.7754L9.80218 20.2016L11.0758 21.5995C11.5716 22.1437 12.428 22.1437 12.9238 21.5995L14.1974 20.2016L15.9993 20.7754C16.7008 20.9988 17.4424 20.5706 17.5997 19.8514L18.0037 18.004L19.8511 17.6C20.5703 17.4427 20.9985 16.701 20.7751 15.9995L20.2013 14.1976L21.5992 12.924C22.1434 12.4282 22.1434 11.5718 21.5992 11.076L20.2013 9.80242L20.7751 8.00051C20.9985 7.29903 20.5703 6.55738 19.8511 6.40009L18.0037 5.99606L17.5997 4.14866C17.4424 3.42947 16.7008 3.00128 15.9993 3.22466L14.1974 3.79845L12.9238 2.40058ZM10.803 4.92715L11.9998 3.61364L13.1965 4.92715C13.5254 5.28816 14.0345 5.42455 14.4998 5.27637L16.193 4.7372L16.5726 6.47311C16.677 6.9502 17.0496 7.32284 17.5267 7.42718L19.2626 7.80683L18.7234 9.5C18.5753 9.96534 18.7116 10.4744 19.0726 10.8033L20.3862 12L19.0726 13.1968C18.7116 13.5257 18.5753 14.0347 18.7234 14.5L19.2626 16.1932L17.5267 16.5729C17.0496 16.6772 16.677 17.0498 16.5726 17.5269L16.193 19.2628L14.4998 18.7237C14.0345 18.5755 13.5254 18.7119 13.1965 19.0729L11.9998 20.3864L10.803 19.0729C10.4741 18.7119 9.9651 18.5755 9.49975 18.7237L7.80659 19.2628L7.42694 17.5269C7.32259 17.0498 6.94996 16.6772 6.47287 16.5729L4.73695 16.1932L5.27612 14.5C5.42431 14.0347 5.28791 13.5257 4.92691 13.1968L3.61339 12L4.92691 10.8033C5.28791 10.4744 5.42431 9.96534 5.27612 9.5L4.73695 7.80683L6.47287 7.42718C6.94996 7.32284 7.32259 6.9502 7.42694 6.47311L7.80659 4.7372L9.49975 5.27637C9.9651 5.42455 10.4741 5.28816 10.803 4.92715ZM8.64084 14.2981C8.34794 14.591 8.34794 15.0658 8.64084 15.3587C8.93373 15.6516 9.4086 15.6516 9.7015 15.3587L15.3584 9.70187C15.6512 9.40898 15.6512 8.9341 15.3584 8.64121C15.0655 8.34831 14.5906 8.34832 14.2977 8.64121L8.64084 14.2981ZM9.99978 9.00002C9.99978 9.55231 9.55206 10 8.99978 10C8.44749 10 7.99978 9.55231 7.99978 9.00002C7.99978 8.44774 8.44749 8.00002 8.99978 8.00002C9.55206 8.00002 9.99978 8.44774 9.99978 9.00002ZM14.9998 16C15.5521 16 15.9998 15.5523 15.9998 15C15.9998 14.4477 15.5521 14 14.9998 14C14.4475 14 13.9998 14.4477 13.9998 15C13.9998 15.5523 14.4475 16 14.9998 16Z" fill="currentColor"/>
</svg>
