<svg width="24" height="24" viewBox="0 0 24 24" fill="none" xmlns="http://www.w3.org/2000/svg">
<path fill-rule="evenodd" clip-rule="evenodd" d="M14.5303 3.46969C14.3158 3.25519 13.9932 3.19103 13.713 3.30711C13.4327 3.4232 13.25 3.69668 13.25 4.00002V8.25002H6C5.58579 8.25002 5.25 8.58581 5.25 9.00002C5.25 9.41424 5.58579 9.75002 6 9.75002H14C14.4142 9.75002 14.75 9.41424 14.75 9.00002V5.81068L20.9393 12L14.75 18.1894V15C14.75 14.5858 14.4142 14.25 14 14.25H2C1.58579 14.25 1.25 14.5858 1.25 15C1.25 15.4142 1.58579 15.75 2 15.75H13.25V20C13.25 20.3034 13.4327 20.5768 13.713 20.6929C13.9932 20.809 14.3158 20.7449 14.5303 20.5304L22.5303 12.5304C22.8232 12.2375 22.8232 11.7626 22.5303 11.4697L14.5303 3.46969ZM13 12.75C13.4142 12.75 13.75 12.4142 13.75 12C13.75 11.5858 13.4142 11.25 13 11.25L4 11.25C3.58579 11.25 3.25 11.5858 3.25 12C3.25 12.4142 3.58579 12.75 4 12.75L13 12.75Z" fill="currentColor"/>
</svg>
