<svg width="64" height="64" viewBox="0 0 64 64" fill="none" xmlns="http://www.w3.org/2000/svg">
<path fill-rule="evenodd" clip-rule="evenodd" d="M6 32C6 17.6406 17.6406 6 32 6C46.3594 6 58 17.6406 58 32C58 46.3594 46.3594 58 32 58C17.6406 58 6 46.3594 6 32ZM32 4C16.536 4 4 16.536 4 32C4 47.464 16.536 60 32 60C47.464 60 60 47.464 60 32C60 16.536 47.464 4 32 4ZM16 32C16 23.1634 23.1634 16 32 16C40.8366 16 48 23.1634 48 32C48 40.8366 40.8366 48 32 48C23.1634 48 16 40.8366 16 32ZM32 14C22.0589 14 14 22.0589 14 32C14 41.9411 22.0589 50 32 50C41.9411 50 50 41.9411 50 32C50 22.0589 41.9411 14 32 14ZM29 32C29 30.3431 30.3431 29 32 29C33.6569 29 35 30.3431 35 32C35 33.6569 33.6569 35 32 35C30.3431 35 29 33.6569 29 32ZM32 27C29.2386 27 27 29.2386 27 32C27 34.7614 29.2386 37 32 37C34.7614 37 37 34.7614 37 32C37 29.2386 34.7614 27 32 27ZM32 17C32.5523 17 33 17.4477 33 18V25C33 25.5523 32.5523 26 32 26C31.4477 26 31 25.5523 31 25V18C31 17.4477 31.4477 17 32 17ZM33 39C33 38.4477 32.5523 38 32 38C31.4477 38 31 38.4477 31 39V46C31 46.5523 31.4477 47 32 47C32.5523 47 33 46.5523 33 46V39ZM17 32C17 31.4477 17.4477 31 18 31H25C25.5523 31 26 31.4477 26 32C26 32.5523 25.5523 33 25 33H18C17.4477 33 17 32.5523 17 32ZM39 31C38.4477 31 38 31.4477 38 32C38 32.5523 38.4477 33 39 33H46C46.5523 33 47 32.5523 47 32C47 31.4477 46.5523 31 46 31H39ZM21.3935 21.3934C21.784 21.0028 22.4172 21.0028 22.8077 21.3934L27.7574 26.3431C28.148 26.7336 28.148 27.3668 27.7574 27.7573C27.3669 28.1478 26.7338 28.1478 26.3432 27.7573L21.3935 22.8076C21.003 22.417 21.003 21.7839 21.3935 21.3934ZM37.6568 36.2426C37.2663 35.8521 36.6331 35.8521 36.2426 36.2426C35.8521 36.6331 35.8521 37.2663 36.2426 37.6568L41.1923 42.6066C41.5829 42.9971 42.216 42.9971 42.6066 42.6066C42.9971 42.216 42.9971 41.5829 42.6066 41.1923L37.6568 36.2426ZM21.3935 42.6065C21.003 42.216 21.003 41.5828 21.3935 41.1923L26.3432 36.2426C26.7337 35.852 27.3669 35.852 27.7574 36.2426C28.148 36.6331 28.148 37.2662 27.7574 37.6568L22.8077 42.6065C22.4172 42.997 21.784 42.997 21.3935 42.6065ZM36.2426 26.3432C35.8521 26.7337 35.8521 27.3669 36.2426 27.7574C36.6331 28.1479 37.2663 28.1479 37.6568 27.7574L42.6066 22.8077C42.9971 22.4171 42.9971 21.784 42.6066 21.3934C42.216 21.0029 41.5829 21.0029 41.1923 21.3934L36.2426 26.3432Z" fill="currentColor"/>
</svg>
