<svg width="64" height="64" viewBox="0 0 64 64" fill="none" xmlns="http://www.w3.org/2000/svg">
<path fill-rule="evenodd" clip-rule="evenodd" d="M31.5833 5.09094C31.8479 4.96969 32.1521 4.96969 32.4167 5.09094L59.4167 17.4659C59.7721 17.6289 60 17.984 60 18.375V23C60 23.5523 59.5523 24 59 24C58.4477 24 58 23.5523 58 23V19.0167L32 7.10003L6 19.0167V22H7H37C37.5523 22 38 22.4477 38 23C38 23.5523 37.5523 24 37 24H8V28H11H19H28H32C32.5523 28 33 28.4477 33 29C33 29.5523 32.5523 30 32 30H29V49H36C36.5523 49 37 49.4477 37 50C37 50.5523 36.5523 51 36 51H28H19H11H8V53H57H59C59.5523 53 60 53.4477 60 54V58C60 58.5523 59.5523 59 59 59H5C4.44772 59 4 58.5523 4 58V54C4 53.4477 4.44772 53 5 53H6V50C6 49.4477 6.44772 49 7 49H10V30H7C6.44772 30 6 29.5523 6 29V24H5C4.44772 24 4 23.5523 4 23V18.375C4 17.984 4.22789 17.6289 4.58335 17.4659L31.5833 5.09094ZM27 30H20V49H27V30ZM12 49V30H18V49H12ZM6 55H7H57H58V57H6V55ZM34 37C34 29.3943 40.1208 23 48 23C55.8792 23 62 29.3943 62 37C62 40.2323 60.8947 43.2452 59.0204 45.6404C58.9989 45.6679 58.9913 45.702 58.9955 45.7305C58.9972 45.7419 59.0002 45.7479 59.0011 45.7496L59.0023 45.7503L61.5152 47.2967C63.2326 48.3536 62.4836 51 60.467 51H48C40.326 51 34 44.6156 34 37ZM48 25C41.2502 25 36 30.4739 36 37C36 43.5163 41.4359 49 48 49H60.467L57.9541 47.4536C56.852 46.7754 56.7262 45.327 57.4454 44.4079C59.0533 42.353 60 39.7711 60 37C60 30.4739 54.7498 25 48 25ZM48 29C48.5523 29 49 29.4477 49 30V39C49 39.5523 48.5523 40 48 40C47.4477 40 47 39.5523 47 39V30C47 29.4477 47.4477 29 48 29ZM48 42C48.5523 42 49 42.4477 49 43V43.5C49 44.0523 48.5523 44.5 48 44.5C47.4477 44.5 47 44.0523 47 43.5V43C47 42.4477 47.4477 42 48 42Z" fill="currentColor"/>
</svg>
