<svg width="64" height="64" viewBox="0 0 64 64" fill="none" xmlns="http://www.w3.org/2000/svg">
<path fill-rule="evenodd" clip-rule="evenodd" d="M19 4C18.4477 4 18 4.44772 18 5V34C18 34.5523 18.4477 35 19 35C19.5523 35 20 34.5523 20 34V6H58V54H41.5C40.9477 54 40.5 54.4477 40.5 55C40.5 55.5523 40.9477 56 41.5 56H59C59.5523 56 60 55.5523 60 55V5C60 4.44772 59.5523 4 59 4H19ZM25 11C24.4477 11 24 11.4477 24 12C24 12.5523 24.4477 13 25 13H53C53.5523 13 54 12.5523 54 12C54 11.4477 53.5523 11 53 11H25ZM24 19C24 18.4477 24.4477 18 25 18H53C53.5523 18 54 18.4477 54 19C54 19.5523 53.5523 20 53 20H25C24.4477 20 24 19.5523 24 19ZM25 25C24.4477 25 24 25.4477 24 26C24 26.5523 24.4477 27 25 27H53C53.5523 27 54 26.5523 54 26C54 25.4477 53.5523 25 53 25H25ZM24 33C24 32.4477 24.4477 32 25 32H53C53.5523 32 54 32.4477 54 33C54 33.5523 53.5523 34 53 34H25C24.4477 34 24 33.5523 24 33ZM52.7214 43.6925C53.1039 43.2941 53.0909 42.6611 52.6925 42.2786C52.2941 41.8961 51.6611 41.9091 51.2786 42.3075L46.24 47.556L43.7214 44.9325C43.3389 44.5341 42.7059 44.5211 42.3075 44.9036C41.9091 45.2861 41.8961 45.9191 42.2786 46.3175L45.5186 49.6925C45.7072 49.889 45.9677 50 46.24 50C46.5123 50 46.7728 49.889 46.9614 49.6925L52.7214 43.6925ZM5 39C5 38.4477 5.44772 38 6 38H38C38.5523 38 39 38.4477 39 39V59C39 59.5523 38.5523 60 38 60H6C5.44772 60 5 59.5523 5 59V39ZM7 40V58H37V40H7ZM19.52 42C19.2548 42 19.0004 42.1054 18.8129 42.2929C18.6253 42.4804 18.52 42.7348 18.52 43V49.581V51.1073H17C16.4477 51.1073 16 51.555 16 52.1073C16 52.6596 16.4477 53.1073 17 53.1073H18.52V55C18.52 55.5523 18.9677 56 19.52 56C20.0723 56 20.52 55.5523 20.52 55V53.1073H25.64C26.1923 53.1073 26.64 52.6596 26.64 52.1073C26.64 51.555 26.1923 51.1073 25.64 51.1073H20.52V50.5704C21.6154 50.5423 22.8946 50.4422 24.0051 50.0928C24.7513 49.8581 25.5015 49.4875 26.0715 48.8793C26.6641 48.247 27 47.4227 27 46.4231C27 45.4248 26.6656 44.5948 26.09 43.9458C25.5329 43.3176 24.7951 42.9084 24.0482 42.6354C22.57 42.0954 20.8024 42 19.52 42ZM23.4049 48.185C22.5557 48.4521 21.5208 48.5411 20.52 48.5691V44.024C21.4982 44.0731 22.5234 44.2076 23.3618 44.514C23.9199 44.7179 24.3296 44.975 24.5937 45.2728C24.8394 45.5499 25 45.9057 25 46.4231C25 46.9393 24.8409 47.2676 24.6122 47.5117C24.361 47.7798 23.9637 48.0092 23.4049 48.185Z" fill="currentColor"/>
</svg>
