<svg width="64" height="64" viewBox="0 0 64 64" fill="none" xmlns="http://www.w3.org/2000/svg">
<path fill-rule="evenodd" clip-rule="evenodd" d="M53.1773 9.27611C49.9967 8.54511 47.6204 9.32095 45.7133 10.9579C43.8909 12.5221 42.5228 14.8575 41.2072 17.1289L41.1468 17.2332C38.4475 21.8941 35.8015 26.4631 29.8985 27.1794C29.5269 27.2245 29.2115 27.4734 29.0814 27.8244C28.3798 29.7162 27.756 31.9007 27.2778 33.7808L26.2845 30.5165C26.1843 30.1869 25.9213 29.9321 25.5887 29.8422C25.2561 29.7524 24.9007 29.84 24.648 30.0742C23.5621 31.0809 21.8782 32.8664 20.302 34.9961C18.7345 37.1142 17.2168 39.6479 16.5438 42.1434C16.4 42.6766 16.7157 43.2255 17.2489 43.3693C17.7822 43.5131 18.331 43.1974 18.4748 42.6642C19.0528 40.5212 20.4019 38.2231 21.9096 36.1859C22.9165 34.8254 23.9689 33.6148 24.8541 32.6859L26.4561 37.951C26.5896 38.3898 27.0047 38.6816 27.4628 38.6586C27.921 38.6357 28.3048 38.3039 28.3938 37.8539C28.7178 36.2159 29.6241 32.2893 30.7555 29.0765C37.2303 28.0023 40.2333 22.8088 42.7362 18.48L42.9379 18.1313C44.2937 15.7905 45.4991 13.7774 47.0159 12.4755C48.448 11.2463 50.1764 10.6386 52.7294 11.2253C54.7742 11.6953 56.0544 12.7147 56.8468 14.0286C57.659 15.3753 58.0079 17.1165 57.9997 19.0754C57.9841 22.794 56.6835 26.9904 55.3935 29.9025L49.151 30.8737C48.7392 30.9378 48.4103 31.2505 48.3256 31.6586C48.2409 32.0667 48.4181 32.4845 48.7704 32.7071C49.4721 33.1506 50.5521 33.8166 51.5135 34.3741C51.91 34.604 52.2943 34.8201 52.6275 34.9958C48.5949 42.7395 42.7262 46.5816 36.9717 48.2564C30.9512 50.0086 25.0271 49.3933 21.4503 48.2998C20.9222 48.1383 20.3631 48.4356 20.2017 48.9637C20.0402 49.4919 20.3374 50.0509 20.8656 50.2124C24.7599 51.403 31.0848 52.0527 37.5306 50.1767C44.0157 48.2893 50.5946 43.85 54.8965 34.9318C55.046 34.6219 55.0257 34.2569 54.8427 33.9656C54.6867 33.717 54.431 33.5518 54.1456 33.5086C54.136 33.5049 54.1244 33.5004 54.1106 33.4947C54.0254 33.4598 53.9006 33.4016 53.7358 33.3178C53.4092 33.1516 52.9845 32.9151 52.5168 32.6439C52.397 32.5745 52.2752 32.5032 52.1524 32.4308L56.2345 31.7957C56.5642 31.7444 56.8466 31.532 56.9874 31.2295C58.4098 28.173 59.9815 23.4121 59.9997 19.0838C60.0088 16.9138 59.628 14.7676 58.5595 12.9957C57.471 11.1909 55.7194 9.86034 53.1773 9.27611ZM50.2441 20.6095C50.434 20.0909 50.1676 19.5165 49.649 19.3266C49.1304 19.1367 48.556 19.4031 48.3661 19.9217C44.3097 30.9972 36.2886 37.5849 27.8542 41.3318C22.7694 43.5906 17.5502 44.8084 12.9991 45.3457C14.1582 43.9947 15.3435 42.155 15.8743 40.0078C16.0069 39.4717 15.6797 38.9296 15.1436 38.797C14.6074 38.6645 14.0653 38.9917 13.9328 39.5278C13.2289 42.3749 11.0669 44.6685 9.87743 45.6185C8.09647 45.7181 6.4708 45.7102 5.06214 45.6225C4.51093 45.5882 4.03627 46.0073 4.00196 46.5585C3.96766 47.1097 4.3867 47.5844 4.93792 47.6187C6.44352 47.7124 8.17743 47.7197 10.0738 47.6104C10.2057 47.6289 10.3414 47.6213 10.4725 47.586C10.4987 47.5931 10.5254 47.5991 10.5526 47.6041C12.2008 47.9072 16.2185 49.6965 18.1486 54.381C18.359 54.8916 18.9435 55.135 19.4542 54.9246C19.9648 54.7142 20.2082 54.1297 19.9978 53.619C18.6909 50.4472 16.5567 48.3954 14.5737 47.157C18.9767 46.5275 23.8759 45.2876 28.6662 43.1596C37.476 39.2459 45.9607 32.3047 50.2441 20.6095Z" fill="currentColor"/>
</svg>
