<svg width="64" height="64" viewBox="0 0 64 64" fill="none" xmlns="http://www.w3.org/2000/svg">
<path fill-rule="evenodd" clip-rule="evenodd" d="M12 5C12 4.44772 12.4477 4 13 4H51C51.5523 4 52 4.44772 52 5V26H58C58.5523 26 59 26.4477 59 27C59 27.5523 58.5523 28 58 28H51H46.9817C46.9776 28.0295 46.973 28.0587 46.9679 28.0875C46.8779 28.591 46.5999 29.1271 46.2208 29.6924C45.4251 30.8791 44.7088 32.496 44.0074 34.1588C43.9234 34.3578 43.8394 34.5582 43.7554 34.7587L43.7554 34.7588L43.7552 34.759L43.7552 34.7593L43.7551 34.7593C43.1611 36.1762 42.5647 37.5989 41.9594 38.6016C40.6245 40.8134 37.5111 44.8094 33.4414 47.0569C30.5949 48.6289 26.6951 51.8821 24.8657 53.5249C25.1401 54.3003 24.9935 55.2042 24.4257 55.8423L21.347 59.3026C20.5226 60.2291 19.1506 60.2305 18.3238 59.3187L18.3233 59.3182C17.1659 58.0403 15.7787 56.4753 14.0159 54.4866L14.0159 54.4865L14.0154 54.4859L14.0151 54.4856L14.0091 54.4789L14.0068 54.4762C12.9726 53.3095 11.8092 51.997 10.4872 50.5112C10.0683 50.0404 9.96246 49.4519 10.0108 48.9588C10.0568 48.4903 10.2461 48.0237 10.555 47.6541L13.2326 43.7913C13.2538 43.7607 13.2767 43.7314 13.3012 43.7034C14.0409 42.856 15.259 42.7743 16.091 43.4582C16.3728 41.6727 17.2635 40.2022 18.1449 38.907C18.3303 38.6345 18.5122 38.374 18.6893 38.1205C19.1332 37.4849 19.5463 36.8933 19.9069 36.2672C20.3971 35.416 20.7289 34.5963 20.8167 33.723C20.9197 32.6998 20.946 31.7741 20.9592 30.944C20.9614 30.8051 20.9633 30.6672 20.9651 30.5308V30.5307C20.9738 29.8735 20.9821 29.2506 21.0302 28.7248C21.0516 28.4906 21.0827 28.2447 21.1353 28H13H6C5.44772 28 5 27.5523 5 27C5 26.4477 5.44772 26 6 26H12V5ZM50 6V26H14V6H50ZM43.8678 28H43.8867C43.9461 28.0001 44.0048 28.0014 44.0625 28.0038C44.1381 28.007 44.2097 28.0097 44.2779 28.0123C44.5109 28.0212 44.704 28.0286 44.8779 28.0457C44.8073 28.1865 44.7046 28.3624 44.5596 28.5786C43.6407 29.9491 42.8565 31.7415 42.1647 33.3814C42.0791 33.5843 41.9951 33.7844 41.9125 33.9811L41.9116 33.9832L41.9103 33.9863L41.9103 33.9864C41.3027 35.4335 40.7705 36.7011 40.2472 37.5681C39.01 39.6179 36.1213 43.2922 32.4745 45.3062C29.4915 46.9536 25.5703 50.2161 23.6607 51.9193L18.0922 45.667C18.0899 45.6415 18.0866 45.6158 18.0823 45.59C17.7218 43.4404 18.5898 41.8081 19.7983 40.0322C19.9521 39.8062 20.1146 39.5736 20.2806 39.3359L20.2813 39.3349L20.2816 39.3345L20.2816 39.3344C20.7435 38.6731 21.2327 37.9725 21.64 37.2653C22.2082 36.2787 22.6802 35.1808 22.8067 33.9232C22.9181 32.8157 22.9454 31.8237 22.959 30.9759C22.9614 30.8201 22.9635 30.671 22.9654 30.5281C22.9744 29.8727 22.9816 29.3478 23.0219 28.9069C23.073 28.3488 23.1648 28.1377 23.2171 28.0675C23.2283 28.0523 23.2328 28.0489 23.249 28.042C23.2753 28.0307 23.3547 28.0047 23.5265 28.0047C23.9273 28.0047 24.1821 28.0833 24.3546 28.1789C24.5256 28.2737 24.6771 28.4193 24.8198 28.6497C25.1369 29.162 25.3251 29.9338 25.5471 31.0373C25.6183 31.3914 25.5899 31.9041 25.5008 32.6607C25.4846 32.7981 25.4666 32.9424 25.4479 33.0924L25.4479 33.0925L25.4479 33.0925C25.3713 33.7061 25.283 34.414 25.26 35.1224C25.2012 36.936 25.5583 39.0356 27.6445 40.591C29.162 41.7223 30.7108 41.9742 32.1952 41.4582C33.5953 40.9715 34.7999 39.8477 35.8339 38.5417C37.5913 36.3224 39.1387 33.1949 40.463 30.5184L40.4646 30.5152L40.465 30.5144L40.4656 30.5132C40.697 30.0456 40.9216 29.5917 41.1393 29.159C41.3132 28.8132 41.6841 28.505 42.2566 28.2855C42.7602 28.0925 43.3409 28.0011 43.8678 28ZM26.7408 28H35.8734C35.6862 28.1483 35.5096 28.3111 35.3437 28.4871C34.2635 29.6326 33.7216 31.2429 33.5098 32.7329C33.3591 33.7927 32.9876 35.5299 32.2272 36.9247C31.4685 38.3163 30.4813 39.1229 29.0998 38.9841C29.0127 38.9753 28.9271 38.978 28.8445 38.991L28.8399 38.9875C27.4965 37.986 27.2106 36.6764 27.259 35.1873C27.2787 34.5798 27.3522 33.9885 27.4274 33.3834L27.4275 33.3828C27.4475 33.2213 27.4677 33.0588 27.4871 32.8947C27.5721 32.1732 27.6509 31.3541 27.5078 30.6428C27.3316 29.7672 27.1308 28.8054 26.7408 28ZM38.6472 29.6767L38.6473 29.6766L38.6473 29.6765C38.7594 29.4503 38.8708 29.2256 38.9815 29.0029C37.9883 28.9611 37.3031 29.3243 36.7988 29.8591C36.1111 30.5885 35.6709 31.7414 35.4899 33.0145C35.3455 34.0298 35.0061 35.7163 34.2902 37.2695C35.8934 35.234 37.3207 32.3536 38.6472 29.6767ZM14.8241 45.0061L12.1693 48.8359C12.1463 48.8691 12.1214 48.9008 12.0946 48.931C12.0757 48.9521 12.0534 48.9852 12.0345 49.0289C12.0158 49.0725 12.005 49.1163 12.0013 49.154C11.999 49.1775 11.9995 49.1935 12.0005 49.2033C13.3276 50.6948 14.4914 52.0078 15.5237 53.1725L15.5239 53.1727L15.5244 53.1732C17.2797 55.1535 18.6547 56.7048 19.8053 57.9752C19.8149 57.9858 19.8228 57.9923 19.8281 57.9961C19.8338 57.992 19.8423 57.985 19.8528 57.9731L22.9315 54.5129C23.0226 54.4106 23.0226 54.21 22.9315 54.1077L14.8431 45.0261L14.8365 45.0187L14.8365 45.0186C14.8316 45.013 14.8274 45.009 14.8241 45.0061ZM12.0031 49.2159C12.003 49.216 12.0025 49.2148 12.0019 49.2122C12.0029 49.2146 12.0032 49.2159 12.0031 49.2159ZM29.36 8C29.0948 8 28.8404 8.10536 28.6529 8.29289C28.4653 8.48043 28.36 8.73478 28.36 9V17.7747V20.1431H27C26.4477 20.1431 26 20.5908 26 21.1431C26 21.6954 26.4477 22.1431 27 22.1431H28.36V23C28.36 23.5523 28.8077 24 29.36 24C29.9123 24 30.36 23.5523 30.36 23V22.1431H35.52C36.0723 22.1431 36.52 21.6954 36.52 21.1431C36.52 20.5908 36.0723 20.1431 35.52 20.1431H30.36V18.7674C31.878 18.7414 33.6914 18.6263 35.2401 18.1391C36.2038 17.836 37.1453 17.3654 37.8522 16.6111C38.5816 15.8328 39 14.8164 39 13.5641C39 12.3132 38.5831 11.2855 37.8707 10.4822C37.1767 9.69968 36.2476 9.17939 35.2832 8.82702C33.37 8.12799 31.0624 8 29.36 8ZM34.6399 16.2313C33.3672 16.6317 31.8075 16.7399 30.36 16.7666V10.0173C31.7824 10.0682 33.3342 10.2442 34.5968 10.7055C35.3724 10.9889 35.9733 11.3571 36.3743 11.8092C36.7569 12.2406 37 12.7941 37 13.5641C37 14.3329 36.7584 14.8534 36.3928 15.2435C36.0047 15.6576 35.4162 15.9871 34.6399 16.2313Z" fill="currentColor"/>
</svg>
