<svg width="64" height="64" viewBox="0 0 64 64" fill="none" xmlns="http://www.w3.org/2000/svg">
<path fill-rule="evenodd" clip-rule="evenodd" d="M5 15C4.44772 15 4 15.4477 4 16V32V36C4 36.5523 4.44772 37 5 37H10V39.5C10 40.0523 10.4477 40.5 11 40.5H16V42H11C10.4477 42 10 42.4477 10 43V48C10 48.5523 10.4477 49 11 49H18.5H32H59C59.5523 49 60 48.5523 60 48V32V25C60 24.7605 59.914 24.529 59.7578 24.3475L52.0078 15.3475C51.8178 15.1269 51.5411 15 51.25 15H45.5H32H5ZM6 32V17H32H45.5H50.25V25C50.25 25.5523 50.6977 26 51.25 26H58V32V47H32H18.5H12V44H17C17.5523 44 18 43.5523 18 43V39.5C18 38.9477 17.5523 38.5 17 38.5H12V36C12 35.4477 11.5523 35 11 35H6V32ZM56.8192 24L52.25 18.6938V24H56.8192ZM28.4327 21C28.1675 21 27.9131 21.1054 27.7256 21.2929C27.538 21.4804 27.4327 21.7348 27.4327 22V34.5353V38.3473H25C24.4477 38.3473 24 38.795 24 39.3473C24 39.8996 24.4477 40.3473 25 40.3473H27.4327V42C27.4327 42.5523 27.8804 43 28.4327 43C28.985 43 29.4327 42.5523 29.4327 42V40.3473H37.3928C37.9451 40.3473 38.3928 39.8996 38.3928 39.3473C38.3928 38.795 37.9451 38.3473 37.3928 38.3473H29.4327V35.5309C31.7158 35.5076 34.5034 35.3718 36.8443 34.6486C38.2014 34.2293 39.4903 33.5892 40.4471 32.5865C41.4277 31.5588 42 30.211 42 28.5202C42 26.8309 41.4294 25.4623 40.4658 24.3951C39.5218 23.3496 38.2449 22.6408 36.8868 22.1535C34.1852 21.184 30.8982 21 28.4327 21ZM36.2539 32.7377C34.2002 33.3722 31.6725 33.5061 29.4327 33.5304V23.0113C31.6449 23.0623 34.1669 23.3023 36.2113 24.0359C37.3842 24.4568 38.3328 25.0171 38.9814 25.7355C39.6106 26.4323 40 27.3223 40 28.5202C40 29.7167 39.6123 30.5643 39.0002 31.2058C38.3642 31.8723 37.4277 32.3751 36.2539 32.7377Z" fill="currentColor"/>
</svg>
