<svg width="64" height="64" viewBox="0 0 64 64" fill="none" xmlns="http://www.w3.org/2000/svg">
<path fill-rule="evenodd" clip-rule="evenodd" d="M14.02 9C13.7548 9 13.5004 9.10536 13.3129 9.29289C13.1253 9.48043 13.02 9.73478 13.02 10V18.1073H11.5C10.9477 18.1073 10.5 18.555 10.5 19.1073C10.5 19.6596 10.9477 20.1073 11.5 20.1073H13.02V22C13.02 22.5523 13.4677 23 14.02 23C14.5723 23 15.02 22.5523 15.02 22V20.1073H20.14C20.6923 20.1073 21.14 19.6596 21.14 19.1073C21.14 18.555 20.6923 18.1073 20.14 18.1073H15.02V17.5704C16.1154 17.5423 17.3946 17.4422 18.5051 17.0928C19.2513 16.8581 20.0015 16.4875 20.5715 15.8793C21.1641 15.247 21.5 14.4227 21.5 13.4231C21.5 12.4248 21.1656 11.5948 20.59 10.9458C20.0329 10.3176 19.2951 9.90835 18.5482 9.63545C17.07 9.09536 15.3024 9 14.02 9ZM17.9049 15.185C17.0557 15.4521 16.0208 15.5411 15.02 15.5691V11.024C15.9982 11.0731 17.0234 11.2076 17.8618 11.514C18.4199 11.7179 18.8296 11.975 19.0937 12.2728C19.3394 12.5499 19.5 12.9057 19.5 13.4231C19.5 13.9393 19.3409 14.2676 19.1122 14.5117C18.861 14.7798 18.4637 15.0092 17.9049 15.185Z" fill="currentColor"/>
<path fill-rule="evenodd" clip-rule="evenodd" d="M4 16C4 9.37258 9.37258 4 16 4C22.6274 4 28 9.37258 28 16C28 22.6274 22.6274 28 16 28C9.37258 28 4 22.6274 4 16ZM16 6C10.4772 6 6 10.4772 6 16C6 21.5228 10.4772 26 16 26C21.5228 26 26 21.5228 26 16C26 10.4772 21.5228 6 16 6Z" fill="currentColor"/>
<path d="M32 14C31.4477 14 31 14.4477 31 15C31 15.5523 31.4477 16 32 16H48V25.5858L45.7071 23.2929C45.3166 22.9024 44.6834 22.9024 44.2929 23.2929C43.9024 23.6834 43.9024 24.3166 44.2929 24.7071L48.2929 28.7071C48.6834 29.0976 49.3166 29.0976 49.7071 28.7071L53.7071 24.7071C54.0976 24.3166 54.0976 23.6834 53.7071 23.2929C53.3166 22.9024 52.6834 22.9024 52.2929 23.2929L50 25.5858V15C50 14.4477 49.5523 14 49 14H32Z" fill="currentColor"/>
<path d="M26 49C26 49.5523 25.5523 50 25 50H15C14.4477 50 14 49.5523 14 49L14 35.4142L11.7071 37.7071C11.3166 38.0976 10.6834 38.0976 10.2929 37.7071C9.90237 37.3166 9.90237 36.6834 10.2929 36.2929L14.2929 32.2929C14.6834 31.9024 15.3166 31.9024 15.7071 32.2929L19.7071 36.2929C20.0976 36.6834 20.0976 37.3166 19.7071 37.7071C19.3166 38.0976 18.6834 38.0976 18.2929 37.7071L16 35.4142L16 48H25C25.5523 48 26 48.4477 26 49Z" fill="currentColor"/>
<path d="M42 47C41.4477 47 41 46.5523 41 46C41 45.4477 41.4477 45 42 45H42.3194C43.0743 42.7063 45.0928 41 47.5714 41C49.2698 41 50.7709 41.8164 51.7782 43.0647C52.125 43.4945 52.0578 44.1241 51.628 44.4709C51.1982 44.8178 50.5686 44.7505 50.2218 44.3207C49.5538 43.493 48.6038 43 47.5714 43C46.2913 43 45.1068 43.782 44.4757 45H48C48.5523 45 49 45.4477 49 46C49 46.5523 48.5523 47 48 47H44C44 47.3482 44.0387 47.6829 44.111 48H48C48.5523 48 49 48.4477 49 49C49 49.5523 48.5523 50 48 50H45.2119C45.8533 50.629 46.6897 51 47.5714 51C48.6038 51 49.5538 50.507 50.2218 49.6793C50.5686 49.2495 51.1982 49.1822 51.628 49.5291C52.0578 49.8759 52.125 50.5055 51.7782 50.9353C50.7709 52.1836 49.2698 53 47.5714 53C45.4691 53 43.6977 51.7724 42.7477 50H42C41.4477 50 41 49.5523 41 49C41 48.4477 41.4477 48 42 48H42.078C42.0266 47.6735 42 47.3393 42 47Z" fill="currentColor"/>
<path fill-rule="evenodd" clip-rule="evenodd" d="M48 35C41.3726 35 36 40.3726 36 47C36 53.6274 41.3726 59 48 59C54.6274 59 60 53.6274 60 47C60 40.3726 54.6274 35 48 35ZM38 47C38 41.4772 42.4772 37 48 37C53.5229 37 58 41.4772 58 47C58 52.5229 53.5229 57 48 57C42.4772 57 38 52.5229 38 47Z" fill="currentColor"/>
</svg>
