<svg width="64" height="64" viewBox="0 0 64 64" fill="none" xmlns="http://www.w3.org/2000/svg">
<path d="M48.2 53.6C48.2 49.3035 46.4932 45.183 43.4551 42.1449C40.417 39.1068 36.2965 37.4 32 37.4M32 37.4C27.7035 37.4 23.583 39.1068 20.5449 42.1449C17.5068 45.183 15.8 49.3035 15.8 53.6M32 37.4C37.9647 37.4 42.8 32.5647 42.8 26.6C42.8 20.6353 37.9647 15.8 32 15.8C26.0353 15.8 21.2 20.6353 21.2 26.6C21.2 32.5647 26.0353 37.4 32 37.4ZM59 32C59 46.9117 46.9117 59 32 59C17.0883 59 5 46.9117 5 32C5 17.0883 17.0883 5 32 5C46.9117 5 59 17.0883 59 32Z" stroke="currentColor" stroke-width="2" stroke-linecap="round" stroke-linejoin="round"/>
</svg>
