<svg width="139" height="86" viewBox="0 0 139 86" fill="none" xmlns="http://www.w3.org/2000/svg">
<mask id="path-1-outside-1_633_87501" maskUnits="userSpaceOnUse" x="6.66797" y="17" width="89" height="62" fill="black">
<rect fill="white" x="6.66797" y="17" width="89" height="62"/>
<path d="M46.5664 32.6641C46.5664 35.2943 46.0195 37.5729 44.9258 39.5C43.832 41.4271 42.3477 43.0026 40.4727 44.2266C38.6237 45.4505 36.5404 46.349 34.2227 46.9219V47.1562C38.806 47.7292 42.2826 49.1354 44.6523 51.375C47.0482 53.6146 48.2461 56.6094 48.2461 60.3594C48.2461 63.6927 47.4258 66.6745 45.7852 69.3047C44.1706 71.9349 41.6706 74.0052 38.2852 75.5156C34.8997 77.026 30.5378 77.7812 25.1992 77.7812C22.0482 77.7812 19.1055 77.5208 16.3711 77C13.6628 76.5052 11.1107 75.737 8.71484 74.6953V64.4219C11.1628 65.6719 13.7279 66.6224 16.4102 67.2734C19.0924 67.8984 21.5924 68.2109 23.9102 68.2109C28.2331 68.2109 31.2539 67.4688 32.9727 65.9844C34.7174 64.474 35.5898 62.3646 35.5898 59.6562C35.5898 58.0677 35.1862 56.7266 34.3789 55.6328C33.5716 54.5391 32.1654 53.7057 30.1602 53.1328C28.181 52.5599 25.4076 52.2734 21.8398 52.2734H17.5039V43.0156H21.918C25.4336 43.0156 28.1029 42.6901 29.9258 42.0391C31.7747 41.362 33.0247 40.4505 33.6758 39.3047C34.3529 38.1328 34.6914 36.8047 34.6914 35.3203C34.6914 33.2891 34.0664 31.7005 32.8164 30.5547C31.5664 29.4089 29.4831 28.8359 26.5664 28.8359C24.7435 28.8359 23.0768 29.0703 21.5664 29.5391C20.082 29.9818 18.7409 30.5286 17.543 31.1797C16.3451 31.8047 15.2904 32.4167 14.3789 33.0156L8.79297 24.6953C11.0326 23.0807 13.6497 21.7396 16.6445 20.6719C19.6654 19.6042 23.2591 19.0703 27.4258 19.0703C33.3112 19.0703 37.9727 20.2552 41.4102 22.625C44.8477 24.9948 46.5664 28.3411 46.5664 32.6641ZM94.2617 48.4453C94.2617 53.0547 93.8971 57.1693 93.168 60.7891C92.4648 64.4089 91.319 67.4818 89.7305 70.0078C88.168 72.5339 86.1107 74.4609 83.5586 75.7891C81.0065 77.1172 77.9076 77.7812 74.2617 77.7812C69.6784 77.7812 65.9154 76.6224 62.9727 74.3047C60.0299 71.9609 57.8555 68.6016 56.4492 64.2266C55.043 59.8255 54.3398 54.5651 54.3398 48.4453C54.3398 42.2734 54.9779 37 56.2539 32.625C57.556 28.224 59.6654 24.8516 62.582 22.5078C65.4987 20.1641 69.3919 18.9922 74.2617 18.9922C78.819 18.9922 82.569 20.1641 85.5117 22.5078C88.4805 24.8255 90.681 28.1849 92.1133 32.5859C93.5456 36.9609 94.2617 42.2474 94.2617 48.4453ZM66.332 48.4453C66.332 52.7943 66.5664 56.4271 67.0352 59.3438C67.5299 62.2344 68.3503 64.4089 69.4961 65.8672C70.6419 67.3255 72.2305 68.0547 74.2617 68.0547C76.2669 68.0547 77.8424 67.3385 78.9883 65.9062C80.1602 64.4479 80.9935 62.2734 81.4883 59.3828C81.9831 56.4661 82.2305 52.8203 82.2305 48.4453C82.2305 44.0964 81.9831 40.4635 81.4883 37.5469C80.9935 34.6302 80.1602 32.4427 78.9883 30.9844C77.8424 29.5 76.2669 28.7578 74.2617 28.7578C72.2305 28.7578 70.6419 29.5 69.4961 30.9844C68.3503 32.4427 67.5299 34.6302 67.0352 37.5469C66.5664 40.4635 66.332 44.0964 66.332 48.4453Z"/>
</mask>
<path d="M44.9258 39.5L45.3606 39.7468L44.9258 39.5ZM40.4727 44.2266L40.1993 43.8079L40.1967 43.8096L40.4727 44.2266ZM34.2227 46.9219L34.1027 46.4365L33.7227 46.5304V46.9219H34.2227ZM34.2227 47.1562H33.7227V47.5976L34.1606 47.6524L34.2227 47.1562ZM44.6523 51.375L44.3089 51.7384L44.3109 51.7403L44.6523 51.375ZM45.7852 69.3047L45.3609 69.0401L45.359 69.0431L45.7852 69.3047ZM38.2852 75.5156L38.0814 75.059L38.2852 75.5156ZM16.3711 77L16.4647 76.5088L16.461 76.5081L16.3711 77ZM8.71484 74.6953H8.21484V75.0231L8.51548 75.1538L8.71484 74.6953ZM8.71484 64.4219L8.94223 63.9766L8.21484 63.6051V64.4219H8.71484ZM16.4102 67.2734L16.2922 67.7594L16.2967 67.7604L16.4102 67.2734ZM32.9727 65.9844L33.2995 66.3628L33.2999 66.3624L32.9727 65.9844ZM34.3789 55.6328L33.9766 55.9297L34.3789 55.6328ZM30.1602 53.1328L30.0211 53.6131L30.0228 53.6136L30.1602 53.1328ZM17.5039 52.2734H17.0039V52.7734H17.5039V52.2734ZM17.5039 43.0156V42.5156H17.0039V43.0156H17.5039ZM29.9258 42.0391L30.094 42.5099L30.0977 42.5086L29.9258 42.0391ZM33.6758 39.3047L33.2428 39.0545L33.2411 39.0577L33.6758 39.3047ZM32.8164 30.5547L33.1543 30.1861L32.8164 30.5547ZM21.5664 29.5391L21.7093 30.0182L21.7146 30.0166L21.5664 29.5391ZM17.543 31.1797L17.7743 31.623L17.7817 31.619L17.543 31.1797ZM14.3789 33.0156L13.9638 33.2943L14.2397 33.7054L14.6535 33.4335L14.3789 33.0156ZM8.79297 24.6953L8.50057 24.2897L8.1083 24.5725L8.37785 24.974L8.79297 24.6953ZM16.6445 20.6719L16.4779 20.2005L16.4766 20.2009L16.6445 20.6719ZM47.0664 32.6641C47.0664 31.6014 46.9656 30.5908 46.7621 29.6336L45.784 29.8415C45.9716 30.7242 46.0664 31.6646 46.0664 32.6641H47.0664ZM44.0029 24.2125C43.3379 23.4817 42.5676 22.8156 41.6939 22.2133L41.1264 23.0367C41.9423 23.5991 42.6538 24.2157 43.2632 24.8855L44.0029 24.2125ZM41.6939 22.2133C41.1825 21.8607 40.6454 21.534 40.0829 21.233L39.6111 22.1147C40.1416 22.3986 40.6466 22.7059 41.1264 23.0367L41.6939 22.2133ZM36.6156 19.7997C35.4773 19.4472 34.2642 19.1712 32.9771 18.9708L32.8232 19.9588C34.0669 20.1525 35.2322 20.4182 36.3197 20.755L36.6156 19.7997ZM29.2794 18.6108C28.675 18.5838 28.0571 18.5703 27.4258 18.5703V19.5703C28.0429 19.5703 28.6459 19.5835 29.2348 19.6098L29.2794 18.6108ZM27.4258 18.5703C26.4747 18.5703 25.5523 18.5978 24.6585 18.653L24.7201 19.6511C25.5921 19.5973 26.494 19.5703 27.4258 19.5703V18.5703ZM19.1599 19.4236C18.2233 19.6407 17.3292 19.8996 16.4779 20.2005L16.8112 21.1433C17.625 20.8557 18.483 20.607 19.3857 20.3978L19.1599 19.4236ZM16.4766 20.2009C15.7593 20.4567 15.0628 20.7281 14.3872 21.0153L14.7784 21.9356C15.435 21.6565 16.113 21.3922 16.8124 21.1428L16.4766 20.2009ZM10.3815 23.0492C9.7284 23.4431 9.1014 23.8566 8.50057 24.2897L9.08537 25.1009C9.66337 24.6842 10.2675 24.2857 10.8979 23.9055L10.3815 23.0492ZM8.37785 24.974L9.77433 27.0541L10.6046 26.4967L9.20809 24.4166L8.37785 24.974ZM12.5673 31.2142L13.9638 33.2943L14.794 32.7369L13.3975 30.6568L12.5673 31.2142ZM14.6535 33.4335C14.8958 33.2742 15.1489 33.1138 15.4127 32.9521L14.8903 32.0994C14.618 32.2663 14.356 32.4324 14.1043 32.5978L14.6535 33.4335ZM16.9758 32.0494C17.2342 31.908 17.5003 31.7659 17.7743 31.623L17.3117 30.7364C17.0322 30.8822 16.7603 31.0274 16.4959 31.172L16.9758 32.0494ZM17.7817 31.619C18.0866 31.4533 18.4015 31.2943 18.7264 31.1421L18.3021 30.2366C17.9598 30.397 17.6271 30.5649 17.3042 30.7404L17.7817 31.619ZM20.6949 30.3452C21.0247 30.2305 21.3629 30.1215 21.7093 30.0182L21.4235 29.0599C21.0632 29.1674 20.7109 29.2809 20.3665 29.4007L20.6949 30.3452ZM21.7146 30.0166C22.0978 29.8977 22.4921 29.7942 22.8975 29.7063L22.6856 28.729C22.2526 28.8229 21.8301 28.9337 21.4182 29.0615L21.7146 30.0166ZM25.3316 29.3742C25.7341 29.3487 26.1457 29.3359 26.5664 29.3359V28.3359C26.1254 28.3359 25.6928 28.3493 25.2684 28.3762L25.3316 29.3742ZM26.5664 29.3359C27.1385 29.3359 27.6752 29.3585 28.1768 29.4031L28.2655 28.4071C27.731 28.3595 27.1645 28.3359 26.5664 28.3359V29.3359ZM31.2246 30.1175C31.7234 30.3423 32.1392 30.6122 32.4785 30.9233L33.1543 30.1861C32.7264 29.7939 32.218 29.4684 31.6357 29.2058L31.2246 30.1175ZM32.4785 30.9233C32.7792 31.1989 33.0389 31.5013 33.2588 31.8308L34.0906 31.2757C33.8252 30.878 33.5127 30.5147 33.1543 30.1861L32.4785 30.9233ZM34.1006 34.0817C34.1608 34.4696 34.1914 34.8823 34.1914 35.3203H35.1914C35.1914 34.8358 35.1576 34.3716 35.0888 33.9284L34.1006 34.0817ZM34.1914 35.3203C34.1914 35.657 34.173 35.984 34.1366 36.3012L35.1301 36.4153C35.1711 36.0585 35.1914 35.6934 35.1914 35.3203H34.1914ZM33.6667 38.1839C33.5463 38.4837 33.405 38.7738 33.2428 39.0545L34.1087 39.5548C34.2945 39.2333 34.4565 38.9005 34.5946 38.5567L33.6667 38.1839ZM33.2411 39.0577C33.0756 39.349 32.8638 39.6268 32.6027 39.8909L33.3139 40.5939C33.6319 40.2722 33.8984 39.925 34.1105 39.5517L33.2411 39.0577ZM30.798 41.1293C30.4779 41.2849 30.13 41.4318 29.7538 41.5696L30.0977 42.5086C30.5022 42.3604 30.8816 42.2006 31.2353 42.0286L30.798 41.1293ZM29.7576 41.5682C29.2172 41.7612 28.5906 41.9268 27.8753 42.0629L28.0622 43.0452C28.8169 42.9016 29.495 42.7238 30.0939 42.5099L29.7576 41.5682ZM23.923 42.4763C23.2898 42.5025 22.6215 42.5156 21.918 42.5156V43.5156C22.6339 43.5156 23.316 43.5022 23.9644 43.4754L23.923 42.4763ZM21.918 42.5156H20.8145V43.5156H21.918V42.5156ZM18.6074 42.5156H17.5039V43.5156H18.6074V42.5156ZM17.0039 43.0156V45.3301H18.0039V43.0156H17.0039ZM17.0039 49.959V52.2734H18.0039V49.959H17.0039ZM17.5039 52.7734H18.5879V51.7734H17.5039V52.7734ZM20.7559 52.7734H21.8398V51.7734H20.7559V52.7734ZM21.8398 52.7734C22.5671 52.7734 23.2602 52.7854 23.9193 52.8094L23.9555 51.81C23.2832 51.7856 22.578 51.7734 21.8398 51.7734V52.7734ZM28.033 53.1798C28.7744 53.2991 29.4366 53.4439 30.0211 53.6131L30.2992 52.6525C29.6683 52.4699 28.9654 52.3169 28.1919 52.1925L28.033 53.1798ZM30.0228 53.6136C30.4303 53.73 30.81 53.8569 31.1622 53.9939L31.5247 53.0619C31.1408 52.9126 30.7316 52.7761 30.2975 52.6521L30.0228 53.6136ZM33.1992 55.1261C33.5092 55.3779 33.7673 55.6461 33.9766 55.9297L34.7812 55.3359C34.5172 54.9782 34.1989 54.6498 33.8297 54.3499L33.1992 55.1261ZM33.9766 55.9297C34.1705 56.1925 34.3389 56.4707 34.4819 56.7647L35.3812 56.3273C35.2115 55.9784 35.0114 55.6478 34.7812 55.3359L33.9766 55.9297ZM35.0286 58.653C35.0692 58.9728 35.0898 59.3071 35.0898 59.6562H36.0898C36.0898 59.2678 36.0669 58.8912 36.0206 58.5268L35.0286 58.653ZM35.0898 59.6562C35.0898 60.2505 35.0461 60.8107 34.9598 61.3378L35.9467 61.4993C36.0425 60.914 36.0898 60.2994 36.0898 59.6562H35.0898ZM33.7524 64.3904C33.4399 64.8323 33.0714 65.2376 32.6454 65.6063L33.2999 66.3624C33.7848 65.9426 34.2083 65.4778 34.5689 64.9678L33.7524 64.3904ZM32.6458 65.606C32.1475 66.0364 31.5173 66.4078 30.7453 66.7139L31.1137 67.6435C31.9689 67.3045 32.7009 66.8797 33.2995 66.3628L32.6458 65.606ZM26.249 67.628C25.5202 67.6832 24.7407 67.7109 23.9102 67.7109V68.7109C24.7627 68.7109 25.5676 68.6824 26.3246 68.6251L26.249 67.628ZM23.9102 67.7109C23.3044 67.7109 22.6852 67.6892 22.0526 67.6455L21.9837 68.6432C22.6383 68.6883 23.2805 68.7109 23.9102 68.7109V67.7109ZM18.3544 67.1692C17.7545 67.0587 17.1442 66.9311 16.5236 66.7865L16.2967 67.7604C16.9318 67.9084 17.5573 68.0392 18.1731 68.1527L18.3544 67.1692ZM16.5281 66.7875C15.8691 66.6276 15.2173 66.4493 14.5728 66.2527L14.281 67.2092C14.9441 67.4115 15.6145 67.5948 16.2922 67.7593L16.5281 66.7875ZM10.7735 64.8453C10.1559 64.5742 9.54549 64.2846 8.94223 63.9766L8.48746 64.8672C9.108 65.1841 9.73603 65.482 10.3715 65.7609L10.7735 64.8453ZM8.21484 64.4219V66.9902H9.21484V64.4219H8.21484ZM8.21484 72.127V74.6953H9.21484V72.127H8.21484ZM8.51548 75.1538C9.13479 75.4231 9.76426 75.6743 10.4039 75.9075L10.7464 74.968C10.1256 74.7417 9.51485 74.4979 8.91421 74.2368L8.51548 75.1538ZM14.2947 77.074C14.9476 77.2299 15.6098 77.3692 16.2812 77.4919L16.461 76.5081C15.8069 76.3886 15.1622 76.253 14.527 76.1013L14.2947 77.074ZM16.2775 77.4912C17.0023 77.6292 17.7411 77.7491 18.494 77.8509L18.628 76.86C17.8924 76.7605 17.1713 76.6434 16.4646 76.5088L16.2775 77.4912ZM22.9604 78.2364C23.6951 78.2663 24.4413 78.2812 25.1992 78.2812V77.2812C24.4545 77.2812 23.7217 77.2666 23.0011 77.2372L22.9604 78.2364ZM25.1992 78.2812C25.7728 78.2812 26.3354 78.2726 26.8872 78.2553L26.8559 77.2558C26.315 77.2728 25.7627 77.2812 25.1992 77.2812V78.2812ZM30.2603 78.0272C31.436 77.9011 32.5534 77.7278 33.6121 77.507L33.4079 76.5281C32.3844 76.7416 31.2997 76.91 30.1537 77.0329L30.2603 78.0272ZM36.8974 76.6035C37.4485 76.4101 37.979 76.1997 38.4889 75.9722L38.0814 75.059C37.5978 75.2748 37.0927 75.4752 36.5662 75.66L36.8974 76.6035ZM38.4889 75.9722C39.2845 75.6173 40.0341 75.2312 40.7373 74.8137L40.2267 73.9538C39.5591 74.3502 38.8442 74.7187 38.0814 75.059L38.4889 75.9722ZM44.6822 71.6173C45.2563 70.9751 45.7661 70.2914 46.2113 69.5663L45.359 69.0431C44.9456 69.7167 44.4716 70.3525 43.9367 70.9508L44.6822 71.6173ZM46.2094 69.5693C46.6401 68.8788 47.0162 68.1643 47.3376 67.426L46.4207 67.027C46.1191 67.7197 45.766 68.3907 45.3609 69.0401L46.2094 69.5693ZM48.5998 62.7662C48.6974 61.9835 48.7461 61.1811 48.7461 60.3594H47.7461C47.7461 61.1416 47.6998 61.9026 47.6075 62.6425L48.5998 62.7662ZM48.7461 60.3594C48.7461 59.4667 48.6801 58.6121 48.547 57.7961L47.5601 57.9571C47.6837 58.7154 47.7461 59.5159 47.7461 60.3594H48.7461ZM46.685 52.984C46.2039 52.2718 45.6398 51.6137 44.9938 51.0097L44.3109 51.7403C44.9039 52.2946 45.4187 52.8957 45.8563 53.5437L46.685 52.984ZM44.9958 51.0116C44.2936 50.348 43.5008 49.7569 42.6189 49.2375L42.1114 50.0991C42.9329 50.583 43.6648 51.1297 44.3089 51.7384L44.9958 51.0116ZM37.1504 47.157C36.2456 46.9513 35.2902 46.7858 34.2847 46.6601L34.1606 47.6524C35.1365 47.7744 36.0591 47.9344 36.9287 48.1321L37.1504 47.157ZM34.7227 47.1562V47.0977H33.7227V47.1562H34.7227ZM34.7227 46.9805V46.9219H33.7227V46.9805H34.7227ZM34.3426 47.4073C34.9162 47.2655 35.4763 47.1041 36.0227 46.9229L35.7081 45.9737C35.1869 46.1465 34.6518 46.3007 34.1027 46.4365L34.3426 47.4073ZM39.2417 45.5438C39.7597 45.2657 40.262 44.9656 40.7486 44.6435L40.1967 43.8096C39.7358 44.1147 39.2598 44.3991 38.7687 44.6628L39.2417 45.5438ZM40.746 44.6453C41.2251 44.3325 41.6802 43.9971 42.1111 43.639L41.4719 42.8699C41.0713 43.2029 40.6471 43.5156 40.1993 43.8079L40.746 44.6453ZM44.4381 41.1714C44.771 40.7187 45.0785 40.2438 45.3606 39.7468L44.4909 39.2532C44.2279 39.7167 43.9417 40.1585 43.6325 40.579L44.4381 41.1714ZM45.3606 39.7468C45.6635 39.2132 45.9259 38.6543 46.1479 38.0704L45.2132 37.715C45.0089 38.2521 44.7682 38.7648 44.4909 39.2532L45.3606 39.7468ZM46.9754 34.49C47.0362 33.8994 47.0664 33.2907 47.0664 32.6641H46.0664C46.0664 33.2585 46.0377 33.833 45.9806 34.3876L46.9754 34.49ZM44.9258 39.5L45.7955 39.9936L44.9258 39.5ZM40.4727 44.2266L39.926 43.3892L39.9207 43.3927L40.4727 44.2266ZM34.2227 46.9219L33.9827 45.9511L33.2227 46.139V46.9219H34.2227ZM34.2227 47.1562H33.2227V48.039L34.0986 48.1485L34.2227 47.1562ZM44.6523 51.375L43.9655 52.1018L43.9695 52.1055L44.6523 51.375ZM45.7852 69.3047L44.9367 68.7754L44.9329 68.7815L45.7852 69.3047ZM38.2852 75.5156L37.8777 74.6024L38.2852 75.5156ZM16.3711 77L16.5582 76.0176L16.5508 76.0163L16.3711 77ZM8.71484 74.6953H7.71484V75.351L8.31612 75.6124L8.71484 74.6953ZM8.71484 64.4219L9.16962 63.5313L7.71484 62.7884V64.4219H8.71484ZM16.4102 67.2734L16.1743 68.2453L16.1832 68.2473L16.4102 67.2734ZM32.9727 65.9844L33.6263 66.7412L33.6272 66.7404L32.9727 65.9844ZM34.3789 55.6328L33.5743 56.2267L34.3789 55.6328ZM30.1602 53.1328L29.8821 54.0934L29.8854 54.0943L30.1602 53.1328ZM17.5039 52.2734H16.5039V53.2734H17.5039V52.2734ZM17.5039 43.0156V42.0156H16.5039V43.0156H17.5039ZM29.9258 42.0391L30.2621 42.9808L30.2696 42.9781L29.9258 42.0391ZM33.6758 39.3047L32.8099 38.8044L32.8063 38.8107L33.6758 39.3047ZM32.8164 30.5547L33.4921 29.8175L32.8164 30.5547ZM21.5664 29.5391L21.8522 30.4974L21.8628 30.4941L21.5664 29.5391ZM17.543 31.1797L18.0055 32.0663L18.013 32.0624L18.0205 32.0583L17.543 31.1797ZM14.3789 33.0156L13.5487 33.573L14.1006 34.3951L14.9281 33.8513L14.3789 33.0156ZM8.79297 24.6953L8.20817 23.8841L7.42363 24.4497L7.96272 25.2527L8.79297 24.6953ZM16.6445 20.6719L16.3113 19.729L16.3087 19.7299L16.6445 20.6719ZM47.5664 32.6641C47.5664 31.5697 47.4626 30.5241 47.2512 29.5296L45.2949 29.9454C45.4746 30.7909 45.5664 31.6963 45.5664 32.6641H47.5664ZM44.3727 23.8761C43.68 23.1147 42.8802 22.4238 41.9777 21.8017L40.8426 23.4483C41.6296 23.9909 42.3117 24.5827 42.8933 25.222L44.3727 23.8761ZM41.9777 21.8017C41.4504 21.4381 40.8973 21.1017 40.3187 20.7921L39.3752 22.5556C39.8897 22.8309 40.3787 23.1285 40.8426 23.4483L41.9777 21.8017ZM36.7635 19.3221C35.5998 18.9617 34.3628 18.6805 33.054 18.4767L32.7463 20.4529C33.9683 20.6432 35.1097 20.9037 36.1718 21.2326L36.7635 19.3221ZM29.3017 18.1113C28.6896 18.0839 28.0642 18.0703 27.4258 18.0703V20.0703C28.0358 20.0703 28.6313 20.0833 29.2125 20.1093L29.3017 18.1113ZM27.4258 18.0703C26.4651 18.0703 25.5324 18.0981 24.6277 18.154L24.7509 20.1502C25.6121 20.097 26.5036 20.0703 27.4258 20.0703V18.0703ZM19.047 18.9366C18.0935 19.1576 17.1814 19.4215 16.3113 19.729L16.9778 21.6147C17.7728 21.3337 18.6129 21.0902 19.4986 20.8849L19.047 18.9366ZM16.3087 19.7299C15.5824 19.9889 14.8767 20.2639 14.1916 20.5551L14.974 22.3957C15.6212 22.1206 16.2899 21.86 16.9803 21.6138L16.3087 19.7299ZM10.1232 22.621C9.45884 23.0218 8.82042 23.4427 8.20817 23.8841L9.37777 25.5065C9.94436 25.098 10.5371 24.707 11.1562 24.3336L10.1232 22.621ZM7.96272 25.2527L9.35921 27.3328L11.0197 26.218L9.62322 24.1379L7.96272 25.2527ZM12.1522 31.4929L13.5487 33.573L15.2092 32.4582L13.8127 30.3782L12.1522 31.4929ZM14.9281 33.8513C15.1657 33.6952 15.4143 33.5375 15.6739 33.3785L14.6291 31.6731C14.3526 31.8425 14.0861 32.0114 13.8297 32.1799L14.9281 33.8513ZM17.2157 32.488C17.4711 32.3483 17.7344 32.2077 18.0055 32.0663L17.0804 30.2931C16.7982 30.4403 16.5234 30.5871 16.256 30.7333L17.2157 32.488ZM18.0205 32.0583C18.3164 31.8975 18.6224 31.743 18.9385 31.5949L18.0899 29.7838C17.7389 29.9483 17.3974 30.1207 17.0655 30.3011L18.0205 32.0583ZM20.859 30.8175C21.1816 30.7053 21.5127 30.5986 21.8522 30.4974L21.2806 28.5808C20.9134 28.6903 20.554 28.8061 20.2023 28.9284L20.859 30.8175ZM21.8628 30.4941C22.2317 30.3796 22.6119 30.2798 23.0035 30.1949L22.5796 28.2403C22.1328 28.3372 21.6962 28.4517 21.27 28.584L21.8628 30.4941ZM25.3633 29.8732C25.7548 29.8484 26.1558 29.8359 26.5664 29.8359V27.8359C26.1153 27.8359 25.6721 27.8496 25.2368 27.8772L25.3633 29.8732ZM26.5664 29.8359C27.1255 29.8359 27.6473 29.858 28.1325 29.9012L28.3098 27.909C27.7589 27.86 27.1775 27.8359 26.5664 27.8359V29.8359ZM31.0191 30.5733C31.476 30.7793 31.8455 31.0213 32.1407 31.2918L33.4921 29.8175C33.0201 29.3848 32.4654 29.0315 31.8412 28.75L31.0191 30.5733ZM32.1407 31.2918C32.4124 31.541 32.6458 31.8129 32.8429 32.1083L34.5065 30.9982C34.2183 30.5663 33.8795 30.1726 33.4921 29.8175L32.1407 31.2918ZM33.6065 34.1583C33.6624 34.5186 33.6914 34.9055 33.6914 35.3203H35.6914C35.6914 34.8126 35.6559 34.3227 35.5829 33.8518L33.6065 34.1583ZM33.6914 35.3203C33.6914 35.6389 33.674 35.9467 33.6399 36.2442L35.6268 36.4724C35.6701 36.0958 35.6914 35.7116 35.6914 35.3203H33.6914ZM33.2028 37.9975C33.0912 38.2753 32.9603 38.5441 32.8099 38.8044L34.5416 39.805C34.7392 39.463 34.9116 39.1089 35.0586 38.7431L33.2028 37.9975ZM32.8063 38.8107C32.6641 39.061 32.4797 39.3041 32.2472 39.5393L33.6695 40.9454C34.0159 40.595 34.3099 40.213 34.5452 39.7987L32.8063 38.8107ZM30.5794 40.6796C30.276 40.8271 29.9438 40.9675 29.5819 41.1L30.2696 42.9781C30.6884 42.8247 31.0835 42.6584 31.4539 42.4783L30.5794 40.6796ZM29.5894 41.0973C29.0782 41.2799 28.4774 41.4393 27.7818 41.5717L28.1557 43.5364C28.9301 43.3891 29.634 43.2051 30.2621 42.9808L29.5894 41.0973ZM23.9023 41.9767C23.2767 42.0026 22.6153 42.0156 21.918 42.0156V44.0156C22.6401 44.0156 23.3292 44.0021 23.985 43.975L23.9023 41.9767ZM21.918 42.0156H20.8145V44.0156H21.918V42.0156ZM18.6074 42.0156H17.5039V44.0156H18.6074V42.0156ZM16.5039 43.0156V45.3301H18.5039V43.0156H16.5039ZM16.5039 49.959V52.2734H18.5039V49.959H16.5039ZM17.5039 53.2734H18.5879V51.2734H17.5039V53.2734ZM20.7559 53.2734H21.8398V51.2734H20.7559V53.2734ZM21.8398 53.2734C22.5616 53.2734 23.2487 53.2853 23.9011 53.309L23.9737 51.3103C23.2948 51.2857 22.5834 51.2734 21.8398 51.2734V53.2734ZM27.9536 53.6734C28.6789 53.7901 29.3207 53.9309 29.8821 54.0934L30.4382 52.1722C29.7842 51.9829 29.0609 51.8259 28.2714 51.6988L27.9536 53.6734ZM29.8854 54.0943C30.2797 54.207 30.6446 54.329 30.9809 54.4599L31.706 52.596C31.3063 52.4405 30.8823 52.2991 30.4349 52.1713L29.8854 54.0943ZM32.8839 55.5142C33.1644 55.742 33.3924 55.9801 33.5743 56.2267L35.1835 55.039C34.8921 54.6442 34.5437 54.2857 34.1449 53.9618L32.8839 55.5142ZM33.5743 56.2267C33.7501 56.4648 33.9026 56.7168 34.0323 56.9834L35.8308 56.1086C35.6478 55.7323 35.4319 55.3755 35.1835 55.039L33.5743 56.2267ZM34.5326 58.7161C34.5704 59.0136 34.5898 59.3268 34.5898 59.6562H36.5898C36.5898 59.2482 36.5658 58.8505 36.5166 58.4637L34.5326 58.7161ZM34.5898 59.6562C34.5898 60.226 34.5479 60.7591 34.4664 61.257L36.4401 61.5801C36.5407 60.9656 36.5898 60.3239 36.5898 59.6562H34.5898ZM33.3442 64.1017C33.0558 64.5096 32.7147 64.8851 32.3182 65.2283L33.6272 66.7404C34.1415 66.2951 34.5924 65.8005 34.9771 65.2566L33.3442 64.1017ZM32.319 65.2276C31.8708 65.6147 31.2915 65.9595 30.561 66.249L31.298 68.1083C32.1947 67.7528 32.9776 67.3014 33.6263 66.7412L32.319 65.2276ZM26.2113 67.1294C25.4965 67.1835 24.7297 67.2109 23.9102 67.2109V69.2109C24.7737 69.2109 25.5913 69.1821 26.3623 69.1237L26.2113 67.1294ZM23.9102 67.2109C23.3164 67.2109 22.7087 67.1896 22.087 67.1467L21.9493 69.142C22.6148 69.1879 23.2685 69.2109 23.9102 69.2109V67.2109ZM18.4451 66.6775C17.8531 66.5684 17.2505 66.4424 16.6371 66.2995L16.1832 68.2473C16.8256 68.397 17.4587 68.5294 18.0825 68.6444L18.4451 66.6775ZM16.646 66.3017C15.9963 66.144 15.3539 65.9682 14.7186 65.7745L14.1352 67.6875C14.8076 67.8926 15.4873 68.0785 16.1743 68.2452L16.646 66.3017ZM10.9745 64.3875C10.3658 64.1203 9.76423 63.8349 9.16962 63.5313L8.26007 65.3125C8.88926 65.6338 9.52609 65.9359 10.1706 66.2188L10.9745 64.3875ZM7.71484 64.4219V66.9902H9.71484V64.4219H7.71484ZM7.71484 72.127V74.6953H9.71484V72.127H7.71484ZM8.31612 75.6124C8.94476 75.8857 9.58361 76.1407 10.2326 76.3773L10.9177 74.4982C10.3062 74.2753 9.70488 74.0353 9.11357 73.7782L8.31612 75.6124ZM14.1786 77.5603C14.8404 77.7183 15.5113 77.8595 16.1914 77.9837L16.5508 76.0163C15.9054 75.8984 15.2695 75.7646 14.6432 75.615L14.1786 77.5603ZM16.184 77.9823C16.9178 78.1221 17.6655 78.2435 18.427 78.3464L18.695 76.3645C17.968 76.2662 17.2557 76.1505 16.5582 76.0177L16.184 77.9823ZM22.9401 78.736C23.6817 78.7662 24.4348 78.7812 25.1992 78.7812V76.7812C24.461 76.7812 23.7351 76.7667 23.0214 76.7377L22.9401 78.736ZM25.1992 78.7812C25.7778 78.7812 26.3457 78.7725 26.9029 78.7551L26.8402 76.756C26.3047 76.7728 25.7577 76.7812 25.1992 76.7812V78.7812ZM30.3137 78.5244C31.5041 78.3967 32.6379 78.221 33.7142 77.9965L33.3058 76.0386C32.2999 76.2484 31.2316 76.4144 30.1003 76.5358L30.3137 78.5244ZM37.063 77.0753C37.6263 76.8776 38.1696 76.6622 38.6926 76.4289L37.8777 74.6024C37.4072 74.8123 36.9149 75.0077 36.4006 75.1882L37.063 77.0753ZM38.6926 76.4289C39.5047 76.0665 40.2716 75.6717 40.9925 75.2436L39.9714 73.5239C39.3216 73.9097 38.624 74.2694 37.8777 74.6024L38.6926 76.4289ZM45.0549 71.9506C45.6487 71.2865 46.1764 70.5788 46.6374 69.8278L44.9329 68.7815C44.5353 69.4293 44.0792 70.0412 43.5639 70.6175L45.0549 71.9506ZM46.6336 69.8339C47.0772 69.1229 47.4648 68.3867 47.796 67.6256L45.9622 66.8274C45.6706 67.4974 45.3289 68.1467 44.9367 68.7754L46.6336 69.8339ZM49.0959 62.8281C49.1963 62.024 49.2461 61.2009 49.2461 60.3594H47.2461C47.2461 61.1219 47.2009 61.8621 47.1113 62.5806L49.0959 62.8281ZM49.2461 60.3594C49.2461 59.4421 49.1783 58.5604 49.0405 57.7157L47.0666 58.0376C47.1855 58.7671 47.2461 59.5406 47.2461 60.3594H49.2461ZM47.0993 52.7042C46.5966 51.9598 46.0078 51.2732 45.3352 50.6445L43.9695 52.1055C44.5359 52.6351 45.026 53.2077 45.4419 53.8235L47.0993 52.7042ZM45.3392 50.6482C44.608 49.9572 43.7847 49.3439 42.8727 48.8067L41.8576 50.53C42.649 50.9961 43.3504 51.5205 43.9655 52.1018L45.3392 50.6482ZM37.2612 46.6694C36.3388 46.4597 35.3671 46.2915 34.3467 46.164L34.0986 48.1485C35.0596 48.2687 35.9658 48.426 36.8179 48.6197L37.2612 46.6694ZM35.2227 47.1562V47.0977H33.2227V47.1562H35.2227ZM35.2227 46.9805V46.9219H33.2227V46.9805H35.2227ZM34.4626 47.8927C35.0484 47.7479 35.6209 47.5829 36.1801 47.3975L35.5508 45.4991C35.0422 45.6677 34.5196 45.8184 33.9827 45.9511L34.4626 47.8927ZM39.4782 45.9843C40.0096 45.6991 40.5251 45.3911 41.0246 45.0604L39.9207 43.3927C39.4727 43.6893 39.0099 43.9658 38.5322 44.2222L39.4782 45.9843ZM41.0193 45.0639C41.5141 44.7409 41.9847 44.3942 42.4307 44.0235L41.1523 42.4854C40.7668 42.8058 40.3582 43.1071 39.926 43.3892L41.0193 45.0639ZM44.8409 41.4677C45.1857 40.9989 45.5039 40.5074 45.7955 39.9936L44.0561 39.0064C43.8026 39.4531 43.5271 39.8784 43.2297 40.2827L44.8409 41.4677ZM45.7955 39.9936C46.1112 39.4373 46.3844 38.8553 46.6153 38.2482L44.7458 37.5373C44.5505 38.0511 44.3205 38.5406 44.0561 39.0064L45.7955 39.9936ZM47.4728 34.5412C47.5354 33.9325 47.5664 33.3067 47.5664 32.6641H45.5664C45.5664 33.2424 45.5385 33.7998 45.4833 34.3364L47.4728 34.5412ZM93.168 60.7891L92.6778 60.6903L92.6771 60.6937L93.168 60.7891ZM89.7305 70.0078L89.3072 69.7416L89.3052 69.7448L89.7305 70.0078ZM83.5586 75.7891L83.7894 76.2326L83.5586 75.7891ZM62.9727 74.3047L62.6611 74.6958L62.6633 74.6975L62.9727 74.3047ZM56.4492 64.2266L55.9729 64.3787L55.9732 64.3796L56.4492 64.2266ZM56.2539 32.625L55.7744 32.4831L55.7739 32.485L56.2539 32.625ZM62.582 22.5078L62.8952 22.8976L62.582 22.5078ZM85.5117 22.5078L85.2002 22.8989L85.204 22.9019L85.5117 22.5078ZM92.1133 32.5859L91.6378 32.7407L91.6381 32.7415L92.1133 32.5859ZM67.0352 59.3438L66.5415 59.4231L66.5423 59.4281L67.0352 59.3438ZM69.4961 65.8672L69.8893 65.5583L69.4961 65.8672ZM78.9883 65.9062L78.5985 65.5931L78.5978 65.5939L78.9883 65.9062ZM81.4883 59.3828L81.9811 59.4672L81.9812 59.4664L81.4883 59.3828ZM81.4883 37.5469L80.9953 37.6305L81.4883 37.5469ZM78.9883 30.9844L78.5924 31.29L78.5985 31.2976L78.9883 30.9844ZM69.4961 30.9844L69.8893 31.2933L69.8919 31.2899L69.4961 30.9844ZM67.0352 37.5469L66.5422 37.4632L66.5415 37.4675L67.0352 37.5469ZM94.7617 48.4453C94.7617 47.7604 94.753 47.0863 94.7356 46.4231L93.736 46.4493C93.7531 47.1035 93.7617 47.7688 93.7617 48.4453H94.7617ZM94.5103 42.3824C94.388 40.986 94.2212 39.6448 94.0094 38.359L93.0227 38.5215C93.23 39.7805 93.3939 41.0965 93.5141 42.4696L94.5103 42.3824ZM93.1653 34.3836C92.9879 33.7143 92.7956 33.0632 92.5885 32.4304L91.6381 32.7415C91.8391 33.3555 92.026 33.9882 92.1986 34.6398L93.1653 34.3836ZM92.5887 32.4312C92.4255 31.9296 92.2523 31.4409 92.0691 30.9651L91.1359 31.3244C91.3125 31.7832 91.4798 32.2553 91.6378 32.7407L92.5887 32.4312ZM90.7768 28.1283C90.2697 27.1812 89.7115 26.2997 89.102 25.4844L88.3011 26.0832C88.8789 26.856 89.4103 27.6948 89.8952 28.6004L90.7768 28.1283ZM87.0141 23.1388C86.6304 22.7776 86.2322 22.4359 85.8194 22.1137L85.204 22.9019C85.5924 23.2051 85.9673 23.5268 86.3288 23.867L87.0141 23.1388ZM85.8232 22.1167C85.4176 21.7937 84.9972 21.4921 84.5618 21.2121L84.0209 22.0532C84.4278 22.3149 84.8209 22.5968 85.2002 22.8989L85.8232 22.1167ZM81.803 19.8031C80.8668 19.4343 79.8794 19.1439 78.8413 18.9311L78.6405 19.9108C79.6253 20.1126 80.557 20.3871 81.4365 20.7335L81.803 19.8031ZM75.7937 18.5373C75.2928 18.5072 74.7821 18.4922 74.2617 18.4922V19.4922C74.7629 19.4922 75.2536 19.5066 75.7338 19.5355L75.7937 18.5373ZM74.2617 18.4922C73.7232 18.4922 73.1959 18.5063 72.6797 18.5345L72.7344 19.533C73.2315 19.5058 73.7407 19.4922 74.2617 19.4922V18.4922ZM69.5287 18.9095C68.4431 19.1158 67.4177 19.3991 66.4533 19.7602L66.804 20.6967C67.7111 20.357 68.6813 20.0885 69.7154 19.8919L69.5287 18.9095ZM63.5783 21.1817C63.1227 21.4706 62.6862 21.7827 62.2688 22.1181L62.8952 22.8976C63.2833 22.5857 63.6894 22.2953 64.1137 22.0263L63.5783 21.1817ZM62.2688 22.1181C61.8637 22.4436 61.4737 22.7884 61.0989 23.1523L61.7956 23.8697C62.148 23.5275 62.5146 23.2034 62.8952 22.8976L62.2688 22.1181ZM59.0688 25.5149C58.4798 26.3353 57.9449 27.2213 57.4636 28.1721L58.3558 28.6238C58.8152 27.7161 59.3238 26.8744 59.8811 26.0981L59.0688 25.5149ZM56.2512 31.0161C56.0818 31.4924 55.9229 31.9814 55.7744 32.4831L56.7334 32.7669C56.8769 32.2818 57.0302 31.8099 57.1934 31.3512L56.2512 31.0161ZM55.7739 32.485C55.5889 33.1193 55.4173 33.7717 55.259 34.4421L56.2322 34.6719C56.3867 34.0176 56.554 33.382 56.7339 32.765L55.7739 32.485ZM54.5079 38.4107C54.3199 39.6914 54.1717 41.0266 54.0631 42.4163L55.0601 42.4941C55.167 41.1253 55.3128 39.8126 55.4973 38.5559L54.5079 38.4107ZM53.863 46.4346C53.8476 47.0942 53.8398 47.7644 53.8398 48.4453H54.8398C54.8398 47.772 54.8475 47.1095 54.8627 46.4581L53.863 46.4346ZM53.8398 48.4453C53.8398 49.1262 53.8485 49.7967 53.8658 50.4568L54.8655 50.4306C54.8484 49.7795 54.8398 49.1177 54.8398 48.4453H53.8398ZM54.0893 54.4758C54.21 55.8621 54.3747 57.1961 54.5835 58.4779L55.5705 58.3171C55.366 57.0616 55.2043 55.7523 55.0855 54.389L54.0893 54.4758ZM55.4109 62.4336C55.5838 63.0989 55.7712 63.7473 55.9729 64.3787L56.9255 64.0744C56.7295 63.461 56.5472 62.8302 56.3787 62.182L55.4109 62.4336ZM55.9732 64.3796C56.134 64.8797 56.3047 65.3672 56.4855 65.842L57.4201 65.4861C57.2457 65.0283 57.0808 64.5575 56.9252 64.0736L55.9732 64.3796ZM57.7619 68.6728C58.2626 69.6176 58.8143 70.4983 59.4172 71.3143L60.2215 70.72C59.6497 69.9462 59.1242 69.1079 58.6454 68.2045L57.7619 68.6728ZM61.4806 73.6645C61.8597 74.0271 62.2532 74.3709 62.6612 74.6958L63.2842 73.9136C62.9 73.6076 62.5292 73.2837 62.1719 72.9419L61.4806 73.6645ZM62.6633 74.6975C63.0711 75.0187 63.4941 75.3183 63.9324 75.5965L64.4682 74.7521C64.0586 74.4922 63.6632 74.2121 63.282 73.9119L62.6633 74.6975ZM66.7045 76.9911C67.6428 77.3545 68.6332 77.6407 69.6747 77.8501L69.8719 76.8697C68.8829 76.6709 67.9477 76.4002 67.0657 76.0586L66.7045 76.9911ZM72.7275 78.237C73.2291 78.2665 73.7405 78.2812 74.2617 78.2812V77.2812C73.7593 77.2812 73.2675 77.2671 72.7863 77.2388L72.7275 78.237ZM74.2617 78.2812C75.1027 78.2812 75.9166 78.2465 76.7032 78.1767L76.6148 77.1806C75.8596 77.2476 75.0752 77.2812 74.2617 77.2812V78.2812ZM81.5125 77.1999C82.3116 76.9289 83.0708 76.6066 83.7894 76.2326L83.3278 75.3455C82.6564 75.6949 81.9444 75.9975 81.1913 76.2529L81.5125 77.1999ZM83.7894 76.2326C84.4491 75.8893 85.0775 75.5068 85.6741 75.085L85.0969 74.2684C84.5378 74.6636 83.9482 75.0226 83.3278 75.3455L83.7894 76.2326ZM88.8838 72.0684C89.3389 71.5053 89.7628 70.906 90.1557 70.2708L89.3052 69.7448C88.9337 70.3455 88.5339 70.9104 88.1061 71.4398L88.8838 72.0684ZM90.1537 70.274C90.5935 69.5746 90.9995 68.8355 91.3719 68.0569L90.4698 67.6254C90.1132 68.371 89.7256 69.0763 89.3072 69.7416L90.1537 70.274ZM93.0955 63.3294C93.3073 62.5428 93.495 61.7277 93.6588 60.8844L92.6771 60.6937C92.5176 61.5151 92.3351 62.307 92.1299 63.0694L93.0955 63.3294ZM93.6581 60.8878C93.7598 60.3831 93.8544 59.8692 93.9419 59.3461L92.9556 59.181C92.8699 59.6937 92.7772 60.1968 92.6778 60.6903L93.6581 60.8878ZM94.367 56.2435C94.4766 55.235 94.5633 54.1963 94.6272 53.1273L93.629 53.0677C93.566 54.1214 93.4806 55.144 93.3729 56.1355L94.367 56.2435ZM94.7475 50.0063C94.757 49.4923 94.7617 48.972 94.7617 48.4453H93.7617C93.7617 48.966 93.757 49.4802 93.7477 49.9879L94.7475 50.0063ZM66.832 48.4453C66.832 47.5045 66.843 46.5977 66.8651 45.7251L65.8654 45.6999C65.8431 46.5815 65.832 47.4967 65.832 48.4453H66.832ZM67.1848 40.3066C67.2803 39.352 67.395 38.4587 67.5288 37.6262L66.5415 37.4675C66.4042 38.322 66.287 39.2353 66.1898 40.2071L67.1848 40.3066ZM67.5281 37.6305C67.6298 37.0309 67.7453 36.4642 67.8742 35.9304L66.9022 35.6956C66.7673 36.2539 66.6474 36.8432 66.5422 37.4632L67.5281 37.6305ZM69.0056 32.7061C69.2762 32.1681 69.5713 31.698 69.8893 31.2933L69.1029 30.6755C68.7384 31.1394 68.4087 31.6674 68.1123 32.2567L69.0056 32.7061ZM69.8919 31.2899C70.1579 30.9453 70.4473 30.6471 70.7596 30.3936L70.1293 29.6172C69.7533 29.9225 69.4105 30.277 69.1003 30.6788L69.8919 31.2899ZM72.997 29.3719C73.3917 29.2963 73.813 29.2578 74.2617 29.2578V28.2578C73.7558 28.2578 73.2713 28.3013 72.8091 28.3897L72.997 29.3719ZM74.2617 29.2578C74.7063 29.2578 75.1239 29.2967 75.5155 29.3729L75.7065 28.3913C75.2465 28.3018 74.7646 28.2578 74.2617 28.2578V29.2578ZM77.7315 30.3971C78.0405 30.6498 78.3276 30.9468 78.5925 31.2899L79.3841 30.6788C79.0759 30.2796 78.7363 29.927 78.3647 29.6231L77.7315 30.3971ZM78.5985 31.2976C78.9226 31.7008 79.2227 32.1688 79.4975 32.7041L80.3871 32.2474C80.0856 31.6599 79.7497 31.1337 79.378 30.6712L78.5985 31.2976ZM80.6468 35.9276C80.7772 36.4622 80.8934 37.0298 80.9953 37.6305L81.9812 37.4632C81.8758 36.8414 81.7549 36.2505 81.6183 35.6907L80.6468 35.9276ZM80.9953 37.6305C81.1364 38.4619 81.2574 39.3543 81.3581 40.3078L82.3525 40.2028C82.2499 39.2311 82.1262 38.3178 81.9812 37.4632L80.9953 37.6305ZM81.6956 45.7249C81.7188 46.5975 81.7305 47.5043 81.7305 48.4453H82.7305C82.7305 47.4961 82.7187 46.5804 82.6952 45.6982L81.6956 45.7249ZM81.7305 48.4453C81.7305 49.3901 81.7189 50.3002 81.6957 51.1756L82.6954 51.2021C82.7188 50.3171 82.7305 49.3982 82.7305 48.4453H81.7305ZM81.3587 56.6124C81.2579 57.5705 81.1367 58.466 80.9953 59.2992L81.9812 59.4664C82.1265 58.6099 82.2505 57.6934 82.3532 56.717L81.3587 56.6124ZM80.9954 59.2985C80.8933 59.8955 80.7767 60.4597 80.6458 60.9914L81.6169 61.2303C81.7539 60.6732 81.8753 60.0855 81.9811 59.4672L80.9954 59.2985ZM79.4952 64.1946C79.2211 64.7255 78.9217 65.1908 78.5985 65.5931L79.378 66.2194C79.7482 65.7588 80.083 65.236 80.3837 64.6533L79.4952 64.1946ZM78.5978 65.5939C78.3309 65.9276 78.041 66.2162 77.7285 66.4616L78.3461 67.2481C78.7225 66.9526 79.0665 66.6088 79.3787 66.2186L78.5978 65.5939ZM75.5095 67.4451C75.1195 67.5177 74.7039 67.5547 74.2617 67.5547V68.5547C74.7597 68.5547 75.2369 68.513 75.6925 68.4282L75.5095 67.4451ZM74.2617 67.5547C73.8142 67.5547 73.394 67.5171 73 67.4434L72.8161 68.4263C73.2761 68.5124 73.7583 68.5547 74.2617 68.5547V67.5547ZM70.7612 66.442C70.4471 66.1922 70.1563 65.8982 69.8893 65.5583L69.1029 66.1761C69.4151 66.5735 69.7602 66.9236 70.1386 67.2246L70.7612 66.442ZM69.8893 65.5583C69.5721 65.1546 69.2778 64.6872 69.008 64.1536L68.1156 64.6049C68.4112 65.1895 68.7399 65.714 69.1029 66.1761L69.8893 65.5583ZM67.8752 60.9495C67.7458 60.4186 67.63 59.8553 67.528 59.2594L66.5423 59.4281C66.6479 60.0446 66.7682 60.6308 66.9036 61.1863L67.8752 60.9495ZM67.5288 59.2644C67.395 58.432 67.2803 57.5386 67.1848 56.584L66.1898 56.6835C66.287 57.6554 66.4042 58.5686 66.5415 59.4231L67.5288 59.2644ZM66.8651 51.1656C66.843 50.2929 66.832 49.3862 66.832 48.4453H65.832C65.832 49.3939 65.8431 50.3091 65.8654 51.1908L66.8651 51.1656ZM93.168 60.7891L92.1876 60.5916L92.1863 60.5984L93.168 60.7891ZM89.7305 70.0078L88.8839 69.4754L88.88 69.4818L89.7305 70.0078ZM83.5586 75.7891L84.0202 76.6761L83.5586 75.7891ZM62.9727 74.3047L62.3496 75.0869L62.3539 75.0903L62.9727 74.3047ZM56.4492 64.2266L55.4967 64.5309L55.4972 64.5326L56.4492 64.2266ZM56.2539 32.625L55.295 32.3413L55.2939 32.345L56.2539 32.625ZM62.582 22.5078L63.2084 23.2873L62.582 22.5078ZM85.5117 22.5078L84.8887 23.2901L84.8963 23.296L85.5117 22.5078ZM92.1133 32.5859L91.1624 32.8954L91.1629 32.8971L92.1133 32.5859ZM67.0352 59.3438L66.0478 59.5024L66.0495 59.5125L67.0352 59.3438ZM69.4961 65.8672L70.2824 65.2494L69.4961 65.8672ZM78.9883 65.9062L78.2088 65.2799L78.2074 65.2816L78.9883 65.9062ZM81.4883 59.3828L82.4739 59.5515L82.4742 59.5501L81.4883 59.3828ZM81.4883 37.5469L80.5024 37.7141L81.4883 37.5469ZM78.9883 30.9844L78.1967 31.5954L78.2027 31.6032L78.2088 31.6108L78.9883 30.9844ZM69.4961 30.9844L70.2824 31.6022L70.2877 31.5954L69.4961 30.9844ZM67.0352 37.5469L66.0492 37.3796L66.0478 37.3882L67.0352 37.5469ZM95.2617 48.4453C95.2617 47.7561 95.253 47.0777 95.2355 46.4099L93.2361 46.4624C93.2532 47.1121 93.2617 47.7731 93.2617 48.4453H95.2617ZM95.0084 42.3388C94.8851 40.9307 94.7167 39.5769 94.5028 38.2777L92.5293 38.6027C92.7345 39.8483 92.8968 41.1517 93.016 42.5132L95.0084 42.3388ZM93.6486 34.2555C93.4689 33.5774 93.2739 32.9171 93.0636 32.2748L91.1629 32.8971C91.3608 33.5016 91.545 34.1251 91.7153 34.7678L93.6486 34.2555ZM93.0642 32.2765C92.8983 31.7668 92.7222 31.2698 92.5357 30.7854L90.6693 31.504C90.8426 31.9543 91.007 32.4181 91.1624 32.8954L93.0642 32.2765ZM91.2176 27.8923C90.6993 26.9244 90.1279 26.0215 89.5025 25.185L87.9007 26.3826C88.4625 27.1341 88.9807 27.9516 89.4544 28.8364L91.2176 27.8923ZM87.3568 22.7746C86.962 22.4031 86.5521 22.0513 86.1271 21.7196L84.8963 23.296C85.2725 23.5897 85.6358 23.9014 85.9861 24.2311L87.3568 22.7746ZM86.1347 21.7256C85.716 21.3921 85.2818 21.0807 84.8323 20.7916L83.7504 22.4737C84.1432 22.7263 84.5226 22.9984 84.8887 23.29L86.1347 21.7256ZM81.9863 19.3379C81.0217 18.958 80.0064 18.6595 78.9417 18.4413L78.5401 20.4006C79.4982 20.597 80.4021 20.8635 81.2533 21.1988L81.9863 19.3379ZM75.8237 18.0382C75.3124 18.0075 74.7917 17.9922 74.2617 17.9922V19.9922C74.7533 19.9922 75.234 20.0064 75.7038 20.0346L75.8237 18.0382ZM74.2617 17.9922C73.7145 17.9922 73.178 18.0065 72.6524 18.0353L72.7617 20.0323C73.2494 20.0056 73.7494 19.9922 74.2617 19.9922V17.9922ZM69.4353 18.4183C68.324 18.6295 67.271 18.9201 66.278 19.2919L66.9794 21.1649C67.8578 20.836 68.8003 20.5748 69.8087 20.3831L69.4353 18.4183ZM63.3105 20.7595C62.8394 21.0582 62.3877 21.3811 61.9556 21.7283L63.2084 23.2873C63.5818 22.9873 63.9728 22.7077 64.3814 22.4486L63.3105 20.7595ZM61.9556 21.7283C61.5382 22.0637 61.1365 22.4188 60.7506 22.7936L62.1439 24.2284C62.4852 23.897 62.84 23.5834 63.2084 23.2873L61.9556 21.7283ZM58.6626 25.2233C58.0578 26.0658 57.5097 26.9739 57.0175 27.9463L58.8019 28.8496C59.2504 27.9634 59.7458 27.1439 60.2873 26.3897L58.6626 25.2233ZM55.7801 30.8486C55.6076 31.3337 55.4459 31.8313 55.295 32.3413L57.2128 32.9087C57.3539 32.432 57.5044 31.9686 57.6645 31.5187L55.7801 30.8486ZM55.2939 32.345C55.1064 32.988 54.9326 33.6487 54.7724 34.3272L56.7189 34.7868C56.8714 34.1405 57.0365 33.5133 57.2139 32.905L55.2939 32.345ZM54.0132 38.338C53.8234 39.6308 53.674 40.9773 53.5646 42.3773L55.5586 42.5331C55.6647 41.1746 55.8093 39.8732 55.992 38.6285L54.0132 38.338ZM53.3632 46.4229C53.3476 47.0865 53.3398 47.7606 53.3398 48.4453H55.3398C55.3398 47.7757 55.3474 47.1172 55.3626 46.4698L53.3632 46.4229ZM53.3398 48.4453C53.3398 49.1304 53.3485 49.8053 53.366 50.4699L55.3653 50.4175C55.3483 49.7709 55.3398 49.1135 55.3398 48.4453H53.3398ZM53.5912 54.5192C53.7129 55.9169 53.8791 57.2634 54.09 58.5582L56.064 58.2367C55.8616 56.9944 55.7014 55.6974 55.5836 54.3456L53.5912 54.5192ZM54.927 62.5594C55.1021 63.2332 55.292 63.8904 55.4967 64.5309L57.4018 63.9222C57.2087 63.3179 57.0289 62.6959 56.8626 62.0562L54.927 62.5594ZM55.4972 64.5326C55.6605 65.0408 55.8342 65.5366 56.0183 66.0199L57.8873 65.3082C57.7163 64.8589 57.5542 64.3964 57.4012 63.9206L55.4972 64.5326ZM57.3201 68.907C57.8318 69.8724 58.3965 70.7743 59.0151 71.6114L60.6236 70.4229C60.0674 69.6701 59.5551 68.853 59.0872 67.9704L57.3201 68.907ZM61.135 74.0258C61.5249 74.3988 61.9298 74.7525 62.3497 75.0869L63.5957 73.5225C63.2234 73.226 62.864 72.912 62.5175 72.5806L61.135 74.0258ZM62.3539 75.0903C62.775 75.4219 63.2119 75.7314 63.6645 76.0186L64.7361 74.33C64.3408 74.0791 63.9592 73.8088 63.5914 73.5191L62.3539 75.0903ZM66.5239 77.4573C67.4904 77.8317 68.5083 78.1256 69.5761 78.3403L69.9704 76.3796C69.0078 76.186 68.1001 75.9231 67.2463 75.5923L66.5239 77.4573ZM72.6982 78.7362C73.2099 78.7663 73.7311 78.7812 74.2617 78.7812V76.7812C73.7687 76.7812 73.2867 76.7673 72.8156 76.7396L72.6982 78.7362ZM74.2617 78.7812C75.1165 78.7812 75.9451 78.7459 76.7474 78.6748L76.5707 76.6826C75.831 76.7482 75.0615 76.7812 74.2617 76.7812V78.7812ZM81.6731 77.6734C82.4953 77.3946 83.278 77.0624 84.0202 76.6761L83.097 74.902C82.4492 75.2391 81.7608 75.5318 81.0308 75.7793L81.6731 77.6734ZM84.0202 76.6761C84.6996 76.3226 85.3473 75.9283 85.9627 75.4933L84.8083 73.8601C84.268 74.242 83.6978 74.5893 83.097 74.902L84.0202 76.6761ZM89.2727 72.3827C89.7414 71.8027 90.1774 71.1862 90.5809 70.5339L88.88 69.4818C88.5191 70.0653 88.1314 70.613 87.7172 71.1256L89.2727 72.3827ZM90.577 70.5402C91.0275 69.8238 91.4427 69.0677 91.823 68.2726L90.0187 67.4097C89.67 68.1388 89.2916 68.8272 88.8839 69.4755L90.577 70.5402ZM93.5783 63.4593C93.7933 62.6607 93.9837 61.8341 94.1496 60.9797L92.1863 60.5984C92.0289 61.4088 91.8491 62.1891 91.6471 62.9395L93.5783 63.4593ZM94.1483 60.9865C94.2511 60.4763 94.3466 59.957 94.4351 59.4286L92.4625 59.0985C92.3776 59.6059 92.286 60.1036 92.1877 60.5916L94.1483 60.9865ZM94.8641 56.2975C94.9746 55.2805 95.0619 54.2337 95.1263 53.1572L93.1299 53.0378C93.0673 54.0839 92.9826 55.0984 92.8758 56.0815L94.8641 56.2975ZM95.2474 50.0155C95.257 49.4983 95.2617 48.9749 95.2617 48.4453H93.2617C93.2617 48.963 93.2571 49.4741 93.2478 49.9787L95.2474 50.0155ZM67.332 48.4453C67.332 47.5083 67.343 46.6058 67.3649 45.7377L65.3655 45.6873C65.3432 46.5734 65.332 47.4928 65.332 48.4453H67.332ZM67.6823 40.3564C67.777 39.4104 67.8905 38.527 68.0225 37.7056L66.0478 37.3882C65.9087 38.2537 65.7903 39.1769 65.6923 40.1573L67.6823 40.3564ZM68.0211 37.7141C68.1211 37.1247 68.2342 36.5694 68.3603 36.0478L66.4162 35.5781C66.2784 36.1487 66.1562 36.7493 66.0492 37.3796L68.0211 37.7141ZM69.4523 32.9307C69.71 32.4184 69.9877 31.9773 70.2824 31.6022L68.7098 30.3666C68.322 30.8601 67.9749 31.417 67.6656 32.0321L69.4523 32.9307ZM70.2877 31.5954C70.5316 31.2794 70.7943 31.0095 71.0748 30.7817L69.8141 29.2291C69.4064 29.5601 69.0368 29.9428 68.7045 30.3733L70.2877 31.5954ZM73.091 29.863C73.452 29.7939 73.8416 29.7578 74.2617 29.7578V27.7578C73.7272 27.7578 73.211 27.8037 72.7151 27.8986L73.091 29.863ZM74.2617 29.7578C74.6772 29.7578 75.0626 29.7941 75.42 29.8637L75.802 27.9005C75.3078 27.8043 74.7938 27.7578 74.2617 27.7578V29.7578ZM77.4149 30.7841C77.6926 31.0112 77.9535 31.2804 78.1967 31.5954L79.7799 30.3733C79.45 29.946 79.0842 29.5656 78.6813 29.2361L77.4149 30.7841ZM78.2088 31.6108C78.509 31.9844 78.7913 32.4232 79.0527 32.9324L80.832 32.019C80.517 31.4055 80.1633 30.8501 79.7678 30.358L78.2088 31.6108ZM80.161 36.046C80.2883 36.568 80.4022 37.1239 80.5024 37.7141L82.4742 37.3796C82.3669 36.7473 82.2437 36.1446 82.1041 35.5722L80.161 36.046ZM80.5024 37.7141C80.6414 38.534 80.7611 39.4159 80.8608 40.3603L82.8498 40.1502C82.7462 39.1695 82.6211 38.2457 82.4742 37.3796L80.5024 37.7141ZM81.1958 45.7382C81.2189 46.6061 81.2305 47.5084 81.2305 48.4453H83.2305C83.2305 47.492 83.2187 46.5719 83.1951 45.6849L81.1958 45.7382ZM81.2305 48.4453C81.2305 49.386 81.2189 50.2917 81.1959 51.1624L83.1952 51.2153C83.2187 50.3256 83.2305 49.4023 83.2305 48.4453H81.2305ZM80.8615 56.56C80.7616 57.509 80.6417 58.394 80.5024 59.2156L82.4742 59.5501C82.6215 58.6819 82.7468 57.7548 82.8505 56.7694L80.8615 56.56ZM80.5026 59.2141C80.4022 59.8005 80.288 60.3529 80.1603 60.8719L82.1024 61.3497C82.2426 60.78 82.3663 60.1805 82.4739 59.5515L80.5026 59.2141ZM79.0509 63.9652C78.7901 64.4703 78.5085 64.9068 78.2088 65.2799L79.7678 66.5326C80.1614 66.0428 80.5139 65.4912 80.828 64.8827L79.0509 63.9652ZM78.2074 65.2816C77.9631 65.587 77.7002 65.8481 77.4197 66.0684L78.6549 67.6414C79.0632 67.3207 79.4344 66.9494 79.7692 66.5309L78.2074 65.2816ZM75.418 66.9535C75.0608 67.02 74.676 67.0547 74.2617 67.0547V69.0547C74.7875 69.0547 75.2956 69.0107 75.784 68.9197L75.418 66.9535ZM74.2617 67.0547C73.8422 67.0547 73.4529 67.0194 73.092 66.9519L72.7241 68.9178C73.2171 69.01 73.7303 69.0547 74.2617 69.0547V67.0547ZM71.0725 66.0508C70.7906 65.8265 70.5269 65.5605 70.2824 65.2494L68.7098 66.485C69.0446 66.9111 69.4168 67.2893 69.8273 67.6159L71.0725 66.0508ZM70.2824 65.2494C69.9882 64.8749 69.7111 64.436 69.4541 63.9279L67.6694 64.8306C67.9779 65.4406 68.3238 65.9937 68.7098 66.485L70.2824 65.2494ZM68.361 60.8311C68.2346 60.3125 68.1211 59.7606 68.0208 59.175L66.0495 59.5125C66.1568 60.1393 66.2794 60.7369 66.4179 61.3047L68.361 60.8311ZM68.0225 59.1851C67.8905 58.3636 67.777 57.4802 67.6823 56.5342L65.6923 56.7333C65.7903 57.7137 65.9087 58.637 66.0478 59.5024L68.0225 59.1851ZM67.3649 51.1529C67.343 50.2848 67.332 49.3823 67.332 48.4453H65.332C65.332 49.3978 65.3432 50.3172 65.3655 51.2034L67.3649 51.1529Z" fill="#55246A" mask="url(#path-1-outside-1_633_87501)"/>
<path d="M41.5664 26.6641C41.5664 29.2943 41.0195 31.5729 39.9258 33.5C38.832 35.4271 37.3477 37.0026 35.4727 38.2266C33.6237 39.4505 31.5404 40.349 29.2227 40.9219V41.1562C33.806 41.7292 37.2826 43.1354 39.6523 45.375C42.0482 47.6146 43.2461 50.6094 43.2461 54.3594C43.2461 57.6927 42.4258 60.6745 40.7852 63.3047C39.1706 65.9349 36.6706 68.0052 33.2852 69.5156C29.8997 71.026 25.5378 71.7812 20.1992 71.7812C17.0482 71.7812 14.1055 71.5208 11.3711 71C8.66276 70.5052 6.11068 69.737 3.71484 68.6953V58.4219C6.16276 59.6719 8.72786 60.6224 11.4102 61.2734C14.0924 61.8984 16.5924 62.2109 18.9102 62.2109C23.2331 62.2109 26.2539 61.4688 27.9727 59.9844C29.7174 58.474 30.5898 56.3646 30.5898 53.6562C30.5898 52.0677 30.1862 50.7266 29.3789 49.6328C28.5716 48.5391 27.1654 47.7057 25.1602 47.1328C23.181 46.5599 20.4076 46.2734 16.8398 46.2734H12.5039V37.0156H16.918C20.4336 37.0156 23.1029 36.6901 24.9258 36.0391C26.7747 35.362 28.0247 34.4505 28.6758 33.3047C29.3529 32.1328 29.6914 30.8047 29.6914 29.3203C29.6914 27.2891 29.0664 25.7005 27.8164 24.5547C26.5664 23.4089 24.4831 22.8359 21.5664 22.8359C19.7435 22.8359 18.0768 23.0703 16.5664 23.5391C15.082 23.9818 13.7409 24.5286 12.543 25.1797C11.3451 25.8047 10.2904 26.4167 9.37891 27.0156L3.79297 18.6953C6.03255 17.0807 8.64974 15.7396 11.6445 14.6719C14.6654 13.6042 18.2591 13.0703 22.4258 13.0703C28.3112 13.0703 32.9727 14.2552 36.4102 16.625C39.8477 18.9948 41.5664 22.3411 41.5664 26.6641ZM89.2617 42.4453C89.2617 47.0547 88.8971 51.1693 88.168 54.7891C87.4648 58.4089 86.319 61.4818 84.7305 64.0078C83.168 66.5339 81.1107 68.4609 78.5586 69.7891C76.0065 71.1172 72.9076 71.7812 69.2617 71.7812C64.6784 71.7812 60.9154 70.6224 57.9727 68.3047C55.0299 65.9609 52.8555 62.6016 51.4492 58.2266C50.043 53.8255 49.3398 48.5651 49.3398 42.4453C49.3398 36.2734 49.9779 31 51.2539 26.625C52.556 22.224 54.6654 18.8516 57.582 16.5078C60.4987 14.1641 64.3919 12.9922 69.2617 12.9922C73.819 12.9922 77.569 14.1641 80.5117 16.5078C83.4805 18.8255 85.681 22.1849 87.1133 26.5859C88.5456 30.9609 89.2617 36.2474 89.2617 42.4453ZM61.332 42.4453C61.332 46.7943 61.5664 50.4271 62.0352 53.3438C62.5299 56.2344 63.3503 58.4089 64.4961 59.8672C65.6419 61.3255 67.2305 62.0547 69.2617 62.0547C71.2669 62.0547 72.8424 61.3385 73.9883 59.9062C75.1602 58.4479 75.9935 56.2734 76.4883 53.3828C76.9831 50.4661 77.2305 46.8203 77.2305 42.4453C77.2305 38.0964 76.9831 34.4635 76.4883 31.5469C75.9935 28.6302 75.1602 26.4427 73.9883 24.9844C72.8424 23.5 71.2669 22.7578 69.2617 22.7578C67.2305 22.7578 65.6419 23.5 64.4961 24.9844C63.3503 26.4427 62.5299 28.6302 62.0352 31.5469C61.5664 34.4635 61.332 38.0964 61.332 42.4453Z" fill="white"/>
</svg>
