<svg width="64" height="64" viewBox="0 0 64 64" fill="none" xmlns="http://www.w3.org/2000/svg">
<path fill-rule="evenodd" clip-rule="evenodd" d="M32 6C17.6406 6 6 17.6406 6 32C6 37.9347 7.98842 43.4051 11.3354 47.7811C15.3558 48.3617 20.3071 47.7663 25.2033 46.245C25.7307 46.0811 26.2911 46.3758 26.455 46.9032C26.6188 47.4306 26.3241 47.991 25.7967 48.1549C21.5205 49.4836 17.1172 50.1629 13.2064 49.9667C17.9401 54.9169 24.61 58 32 58C39.39 58 46.0599 54.9168 50.7936 49.9667C44.3626 50.2894 36.5653 48.2468 30.1275 44.7702C26.4903 42.8061 23.2297 40.3545 20.8671 37.548C18.5037 34.7405 16.9999 31.5275 17 28.0746C17.0001 25.1195 17.7965 22.8622 19.1215 21.2517C20.4444 19.6437 22.2253 18.7649 24.0418 18.4426C25.8493 18.122 27.7213 18.3453 29.298 18.9673C30.4389 19.4174 31.4851 20.1023 32.225 21.0008C32.9061 20.3308 33.7594 19.7919 34.6757 19.4C36.2437 18.7293 38.1114 18.4356 39.921 18.6868C41.7398 18.9392 43.5331 19.7493 44.8677 21.3169C46.2038 22.8865 46.9999 25.1208 47 28.0746C47.0001 33.5726 43.2038 38.4546 38.0846 42.1435C37.6366 42.4664 37.0116 42.3649 36.6887 41.9168C36.3658 41.4687 36.4673 40.8438 36.9154 40.5209C41.8299 36.9794 45.0001 32.6192 45 28.0746C45 25.4835 44.3072 23.7439 43.3448 22.6134C42.3808 21.481 41.0659 20.8649 39.646 20.6678C38.2168 20.4694 36.7152 20.7029 35.4623 21.2388C34.1941 21.7813 33.2938 22.5814 32.9083 23.4183C32.6772 23.92 32.0833 24.1393 31.5817 23.9083C31.1455 23.7074 30.9227 23.2321 31.0239 22.7817C30.6117 22.0079 29.7534 21.297 28.564 20.8278C27.3199 20.3369 25.8225 20.158 24.3912 20.4119C22.969 20.6642 21.6416 21.3366 20.666 22.5224C19.6924 23.7057 19.0001 25.4848 19 28.0746C18.9999 30.9228 20.2386 33.6958 22.3972 36.26C24.5566 38.8252 27.5973 41.1309 31.0778 43.0104C37.9966 46.7467 46.4273 48.6818 52.6646 47.7811C56.0116 43.4051 58 37.9347 58 32C58 17.6406 46.3594 6 32 6ZM4 32C4 16.536 16.536 4 32 4C47.464 4 60 16.536 60 32C60 47.464 47.464 60 32 60C16.536 60 4 47.464 4 32Z" fill="currentColor"/>
</svg>
