<svg width="24" height="24" viewBox="0 0 24 24" fill="none" xmlns="http://www.w3.org/2000/svg">
<path fill-rule="evenodd" clip-rule="evenodd" d="M3.75 12C3.75 7.44365 7.44365 3.75 12 3.75C16.5563 3.75 20.25 7.44365 20.25 12C20.25 16.5563 16.5563 20.25 12 20.25C7.44365 20.25 3.75 16.5563 3.75 12ZM12 2.25C6.61522 2.25 2.25 6.61522 2.25 12C2.25 17.3848 6.61522 21.75 12 21.75C17.3848 21.75 21.75 17.3848 21.75 12C21.75 6.61522 17.3848 2.25 12 2.25ZM13 16C13 16.5523 12.5523 17 12 17C11.4477 17 11 16.5523 11 16C11 15.4477 11.4477 15 12 15C12.5523 15 13 15.4477 13 16ZM11.9414 8.75C11.3593 8.75 10.8792 9.11036 10.7048 9.58974C10.5632 9.979 10.1328 10.1798 9.74359 10.0381C9.35434 9.89653 9.15358 9.46618 9.29519 9.07692C9.68599 8.00272 10.7309 7.25 11.9414 7.25C13.472 7.25 14.75 8.46096 14.75 10C14.75 11.2572 13.9253 12.3264 12.75 12.6499V13C12.75 13.4142 12.4142 13.75 12 13.75C11.5858 13.75 11.25 13.4142 11.25 13V12C11.25 11.5858 11.5858 11.25 12 11.25C12.7148 11.25 13.25 10.6983 13.25 10C13.25 9.3299 12.6847 8.75 11.9414 8.75Z" fill="currentColor"/>
</svg>
