<svg width="24" height="24" viewBox="0 0 24 24" fill="none" xmlns="http://www.w3.org/2000/svg">
    <path fill-rule="evenodd" clip-rule="evenodd" d="M12 3.75C12.4142 3.75 12.75 4.08579 12.75 4.5L12.75 13.816L16.4983 10.4425C16.8062 10.1654 17.2804 10.1904 17.5575 10.4983C17.8346 10.8062 17.8096 11.2804 17.5017 11.5575L12.5035 16.0558C12.3704 16.1765 12.1938 16.25 12 16.25C11.8058 16.25 11.6288 16.1762 11.4956 16.055L6.49828 11.5575C6.19039 11.2804 6.16544 10.8062 6.44253 10.4983C6.71962 10.1904 7.19384 10.1654 7.50172 10.4425L11.25 13.816L11.25 4.5C11.25 4.08579 11.5858 3.75 12 3.75ZM20 20.25C20.4142 20.25 20.75 19.9142 20.75 19.5C20.75 19.0858 20.4142 18.75 20 18.75H4C3.58579 18.75 3.25 19.0858 3.25 19.5C3.25 19.9142 3.58579 20.25 4 20.25H20Z" fill="currentColor"/>
</svg>
