<svg width="64" height="64" viewBox="0 0 64 64" fill="none" xmlns="http://www.w3.org/2000/svg">
<path fill-rule="evenodd" clip-rule="evenodd" d="M26 6C25.4477 6 25 6.44772 25 7V28.266V57C25 57.5523 25.4477 58 26 58H57C57.5523 58 58 57.5523 58 57V28.266V7C58 6.44772 57.5523 6 57 6H26ZM23 7C23 5.34315 24.3431 4 26 4H57C58.6569 4 60 5.34315 60 7V28.266V57C60 58.6569 58.6569 60 57 60H26C24.3431 60 23 58.6569 23 57V28.266V7ZM52 12H31V26H52V12ZM31 10C29.8954 10 29 10.8954 29 12V26C29 27.1046 29.8954 28 31 28H52C53.1046 28 54 27.1046 54 26V12C54 10.8954 53.1046 10 52 10H31ZM30 30C29.4477 30 29 30.4477 29 31V36C29 36.5523 29.4477 37 30 37H35C35.5523 37 36 36.5523 36 36V31C36 30.4477 35.5523 30 35 30H30ZM31 35V32H34V35H31ZM29 40C29 39.4477 29.4477 39 30 39H35C35.5523 39 36 39.4477 36 40V45C36 45.5523 35.5523 46 35 46H30C29.4477 46 29 45.5523 29 45V40ZM31 41V44H34V41H31ZM39 30C38.4477 30 38 30.4477 38 31V36C38 36.5523 38.4477 37 39 37H44C44.5523 37 45 36.5523 45 36V31C45 30.4477 44.5523 30 44 30H39ZM40 35V32H43V35H40ZM38 40C38 39.4477 38.4477 39 39 39H44C44.5523 39 45 39.4477 45 40V45C45 45.5523 44.5523 46 44 46H39C38.4477 46 38 45.5523 38 45V40ZM40 41V44H43V41H40ZM30 48C29.4477 48 29 48.4477 29 49V54C29 54.5523 29.4477 55 30 55H41C41.5523 55 42 54.5523 42 54V49C42 48.4477 41.5523 48 41 48H30ZM31 53V50H40V53H31ZM47 31C47 30.4477 47.4477 30 48 30H53C53.5523 30 54 30.4477 54 31V36C54 36.5523 53.5523 37 53 37H48C47.4477 37 47 36.5523 47 36V31ZM49 32V35H52V32H49ZM48 39C47.4477 39 47 39.4477 47 40V45C47 45.5523 47.4477 46 48 46H53C53.5523 46 54 45.5523 54 45V40C54 39.4477 53.5523 39 53 39H48ZM49 44V41H52V44H49ZM44 49C44 48.4477 44.4477 48 45 48H53C53.5523 48 54 48.4477 54 49V54C54 54.5523 53.5523 55 53 55H45C44.4477 55 44 54.5523 44 54V49ZM46 50V53H52V50H46ZM12.7859 19.2912C13.1764 18.9007 13.8118 18.8989 14.1802 19.3104C17.0313 22.4951 18.765 26.7011 18.765 31.312C18.765 35.9229 17.0313 40.1289 14.1802 43.3137C13.8118 43.7252 13.1764 43.7234 12.7859 43.3328C12.3953 42.9423 12.3979 42.3111 12.7635 41.8971C15.2539 39.0764 16.765 35.3707 16.765 31.312C16.765 27.2534 15.2539 23.5477 12.7635 20.7269C12.3979 20.3129 12.3953 19.6817 12.7859 19.2912ZM11.346 40.4799C10.9841 40.8971 10.348 40.8949 9.95744 40.5044C9.56691 40.1139 9.5705 39.4832 9.92737 39.0617C11.6976 36.9709 12.765 34.2661 12.765 31.312C12.765 28.3579 11.6976 25.6531 9.92737 23.5623C9.5705 23.1408 9.56691 22.5102 9.95744 22.1196C10.348 21.7291 10.9841 21.7269 11.346 22.1441C13.476 24.6003 14.765 27.8056 14.765 31.312C14.765 34.8184 13.476 38.0237 11.346 40.4799ZM8.50696 37.642C8.15712 38.0694 7.51953 38.0665 7.12901 37.676C6.73849 37.2855 6.74423 36.6556 7.08332 36.2197C8.13734 34.8647 8.76505 33.1617 8.76505 31.312C8.76505 29.4624 8.13734 27.7594 7.08332 26.4043C6.74423 25.9684 6.73849 25.3386 7.12901 24.9481C7.51953 24.5575 8.15712 24.5547 8.50696 24.982C9.91827 26.7061 10.765 28.9102 10.765 31.312C10.765 33.7139 9.91827 35.918 8.50696 37.642ZM5.65312 34.7923C5.33241 35.2419 4.69111 35.2381 4.30058 34.8476C3.91006 34.457 3.9236 33.8278 4.20582 33.3531C4.56105 32.7556 4.76505 32.0576 4.76505 31.312C4.76505 30.5664 4.56105 29.8685 4.20582 29.2709C3.9236 28.7962 3.91006 28.167 4.30058 27.7765C4.69111 27.386 5.33241 27.3821 5.65312 27.8317C6.35321 28.8132 6.76505 30.0145 6.76505 31.312C6.76505 32.6095 6.35321 33.8108 5.65312 34.7923Z" fill="currentColor"/>
</svg>
