<svg width="25" height="24" viewBox="0 0 25 24" fill="none" xmlns="http://www.w3.org/2000/svg">
<path fill-rule="evenodd" clip-rule="evenodd" d="M21.1667 12C21.1667 16.6944 17.3612 20.5 12.6667 20.5C7.97233 20.5 4.16675 16.6944 4.16675 12C4.16675 7.30558 7.97233 3.5 12.6667 3.5C17.3612 3.5 21.1667 7.30558 21.1667 12ZM22.6667 12C22.6667 17.5228 18.1896 22 12.6667 22C7.1439 22 2.66675 17.5228 2.66675 12C2.66675 6.47715 7.1439 2 12.6667 2C18.1896 2 22.6667 6.47715 22.6667 12ZM11.9167 12C11.9167 12.2508 12.0421 12.4849 12.2507 12.624L15.2507 14.624C15.5954 14.8538 16.061 14.7607 16.2908 14.416C16.5205 14.0714 16.4274 13.6057 16.0828 13.376L13.4167 11.5986V6C13.4167 5.58579 13.081 5.25 12.6667 5.25C12.2525 5.25 11.9167 5.58579 11.9167 6V12Z" fill="currentColor"/>
</svg>
