<svg width="24" height="24" viewBox="0 0 24 24" fill="none" xmlns="http://www.w3.org/2000/svg">
<path fill-rule="evenodd" clip-rule="evenodd" d="M5.75 4C4.63182 4 3.70415 4.81568 3.52954 5.88448C3.96406 5.63967 4.46572 5.5 5 5.5H19C19.0842 5.5 19.1676 5.50347 19.25 5.51027V5.25C19.25 4.55964 18.6904 4 18 4H5.75ZM3.5 18.5V8.5C3.5 7.67157 4.17157 7 5 7H19C19.8284 7 20.5 7.67157 20.5 8.5V18.5C20.5 19.3284 19.8284 20 19 20H5C4.17157 20 3.5 19.3284 3.5 18.5ZM2 6.25V8.5V18.5C2 20.1569 3.34315 21.5 5 21.5H19C20.6569 21.5 22 20.1569 22 18.5V8.5C22 7.49515 21.506 6.60569 20.7475 6.06126C20.7492 6.04105 20.75 6.02062 20.75 6V5.25C20.75 3.73122 19.5188 2.5 18 2.5H5.75C3.67893 2.5 2 4.17893 2 6.25ZM17 14.5C17.5523 14.5 18 14.0523 18 13.5C18 12.9477 17.5523 12.5 17 12.5C16.4477 12.5 16 12.9477 16 13.5C16 14.0523 16.4477 14.5 17 14.5Z" fill="currentColor"/>
</svg>
