<svg width="64" height="64" viewBox="0 0 64 64" fill="none" xmlns="http://www.w3.org/2000/svg">
    <path fill-rule="evenodd" clip-rule="evenodd" d="M14.02 12C13.7548 12 13.5004 12.1054 13.3129 12.2929C13.1253 12.4804 13.02 12.7348 13.02 13V21.1073H11.5C10.9477 21.1073 10.5 21.555 10.5 22.1073C10.5 22.6596 10.9477 23.1073 11.5 23.1073H13.02V25C13.02 25.5523 13.4677 26 14.02 26C14.5723 26 15.02 25.5523 15.02 25V23.1073H20.14C20.6923 23.1073 21.14 22.6596 21.14 22.1073C21.14 21.555 20.6923 21.1073 20.14 21.1073H15.02V20.5704C16.1154 20.5423 17.3946 20.4422 18.5051 20.0928C19.2513 19.8581 20.0015 19.4875 20.5715 18.8793C21.1641 18.247 21.5 17.4227 21.5 16.4231C21.5 15.4248 21.1656 14.5948 20.59 13.9458C20.0329 13.3176 19.2951 12.9083 18.5482 12.6354C17.07 12.0954 15.3024 12 14.02 12ZM17.9049 18.185C17.0557 18.4521 16.0208 18.5411 15.02 18.5691V14.024C15.9982 14.0731 17.0234 14.2076 17.8618 14.514C18.4199 14.7179 18.8296 14.975 19.0937 15.2728C19.3394 15.5499 19.5 15.9057 19.5 16.4231C19.5 16.9393 19.3409 17.2676 19.1122 17.5117C18.861 17.7798 18.4637 18.0092 17.9049 18.185Z" fill="currentColor"/>
    <path fill-rule="evenodd" clip-rule="evenodd" d="M4 19C4 12.3726 9.37258 7 16 7C22.6274 7 28 12.3726 28 19C28 25.6274 22.6274 31 16 31C9.37258 31 4 25.6274 4 19ZM16 9C10.4772 9 6 13.4772 6 19C6 24.5228 10.4772 29 16 29C21.5228 29 26 24.5228 26 19C26 13.4772 21.5228 9 16 9Z" fill="currentColor"/>
    <path d="M31 17C31 16.4477 31.4477 16 32 16H49C49.5523 16 50 16.4477 50 17V27.5858L52.2929 25.2929C52.6834 24.9024 53.3166 24.9024 53.7071 25.2929C54.0976 25.6834 54.0976 26.3166 53.7071 26.7071L49.7071 30.7071C49.3166 31.0976 48.6834 31.0976 48.2929 30.7071L44.2929 26.7071C43.9024 26.3166 43.9024 25.6834 44.2929 25.2929C44.6834 24.9024 45.3166 24.9024 45.7071 25.2929L48 27.5858V18H32C31.4477 18 31 17.5523 31 17Z" fill="currentColor"/>
    <path d="M31 46C31 45.4477 31.4477 45 32 45H40C40.5523 45 41 45.4477 41 46C41 46.5523 40.5523 47 40 47H32C31.4477 47 31 46.5523 31 46Z" fill="currentColor"/>
    <path fill-rule="evenodd" clip-rule="evenodd" d="M28 38C28 36.3431 29.3431 35 31 35H57C58.6569 35 60 36.3431 60 38V54C60 55.6569 58.6569 57 57 57H31C29.3431 57 28 55.6569 28 54V38ZM30 43V54C30 54.5523 30.4477 55 31 55H57C57.5523 55 58 54.5523 58 54V43H30ZM58 41H30V38C30 37.4477 30.4477 37 31 37H57C57.5523 37 58 37.4477 58 38V41Z" fill="currentColor"/>
    <path d="M26 51C26 51.5523 25.5523 52 25 52H15C14.4477 52 14 51.5523 14 51L14 37.4142L11.7071 39.7071C11.3166 40.0976 10.6834 40.0976 10.2929 39.7071C9.90237 39.3166 9.90237 38.6834 10.2929 38.2929L14.2929 34.2929C14.6834 33.9024 15.3166 33.9024 15.7071 34.2929L19.7071 38.2929C20.0976 38.6834 20.0976 39.3166 19.7071 39.7071C19.3166 40.0976 18.6834 40.0976 18.2929 39.7071L16 37.4142L16 50H25C25.5523 50 26 50.4477 26 51Z" fill="currentColor"/>
</svg>
