<svg width="64" height="64" viewBox="0 0 64 64" fill="none" xmlns="http://www.w3.org/2000/svg">
<path fill-rule="evenodd" clip-rule="evenodd" d="M14 4C14.5523 4 15 4.44772 15 5V11H22V5C22 4.44772 22.4477 4 23 4C23.5523 4 24 4.44772 24 5V11H31V5C31 4.44772 31.4477 4 32 4C32.5523 4 33 4.44772 33 5V11H40V5C40 4.44772 40.4477 4 41 4C41.5523 4 42 4.44772 42 5V11H49V5C49 4.44772 49.4477 4 50 4C50.5523 4 51 4.44772 51 5V11H55C57.7614 11 60 13.2386 60 16V23.25V32.5C60 33.0523 59.5523 33.5 59 33.5C58.4477 33.5 58 33.0523 58 32.5V23.25V16C58 14.3431 56.6569 13 55 13H51V15C51 15.5523 50.5523 16 50 16C49.4477 16 49 15.5523 49 15V13H42V15C42 15.5523 41.5523 16 41 16C40.4477 16 40 15.5523 40 15V13H33V15C33 15.5523 32.5523 16 32 16C31.4477 16 31 15.5523 31 15V13H24V15C24 15.5523 23.5523 16 23 16C22.4477 16 22 15.5523 22 15V13H15V15C15 15.5523 14.5523 16 14 16C13.4477 16 13 15.5523 13 15V13H9C7.34315 13 6 14.3431 6 16V53C6 54.6569 7.34315 56 9 56H18.5H25.25H30C30.5523 56 31 56.4477 31 57C31 57.5523 30.5523 58 30 58H25.25H18.5H9C6.23858 58 4 55.7614 4 53V16C4 13.2386 6.23858 11 9 11H13V5C13 4.44772 13.4477 4 14 4ZM13 24C12.4477 24 12 24.4477 12 25C12 25.5523 12.4477 26 13 26H17C17.5523 26 18 25.5523 18 25C18 24.4477 17.5523 24 17 24H13ZM24 25C24 24.4477 24.4477 24 25 24H29C29.5523 24 30 24.4477 30 25C30 25.5523 29.5523 26 29 26H25C24.4477 26 24 25.5523 24 25ZM37 24C36.4477 24 36 24.4477 36 25C36 25.5523 36.4477 26 37 26H41C41.5523 26 42 25.5523 42 25C42 24.4477 41.5523 24 41 24H37ZM12 33C12 32.4477 12.4477 32 13 32H17C17.5523 32 18 32.4477 18 33C18 33.5523 17.5523 34 17 34H13C12.4477 34 12 33.5523 12 33ZM25 32C24.4477 32 24 32.4477 24 33C24 33.5523 24.4477 34 25 34H29C29.5523 34 30 33.5523 30 33C30 32.4477 29.5523 32 29 32H25ZM47 24C46.4477 24 46 24.4477 46 25C46 25.5523 46.4477 26 47 26H51C51.5523 26 52 25.5523 52 25C52 24.4477 51.5523 24 51 24H47ZM12 41C12 40.4477 12.4477 40 13 40H17C17.5523 40 18 40.4477 18 41C18 41.5523 17.5523 42 17 42H13C12.4477 42 12 41.5523 12 41ZM13 48C12.4477 48 12 48.4477 12 49C12 49.5523 12.4477 50 13 50H17C17.5523 50 18 49.5523 18 49C18 48.4477 17.5523 48 17 48H13ZM44 30C36.268 30 30 36.268 30 44C30 51.732 36.268 58 44 58C51.732 58 58 51.732 58 44C58 36.268 51.732 30 44 30ZM28 44C28 35.1634 35.1634 28 44 28C52.8366 28 60 35.1634 60 44C60 52.8366 52.8366 60 44 60C35.1634 60 28 52.8366 28 44ZM45 35C45 34.4477 44.5523 34 44 34C43.4477 34 43 34.4477 43 35V44C43 44.4045 43.2436 44.7691 43.6173 44.9239C43.991 45.0787 44.4211 44.9931 44.7071 44.7071L49.2071 40.2071C49.5976 39.8166 49.5976 39.1834 49.2071 38.7929C48.8166 38.4024 48.1834 38.4024 47.7929 38.7929L45 41.5858V35Z" fill="currentColor"/>
</svg>
