<svg width="64" height="64" viewBox="0 0 64 64" fill="none" xmlns="http://www.w3.org/2000/svg">
<path fill-rule="evenodd" clip-rule="evenodd" d="M32 6C17.6406 6 6 17.6406 6 32C6 46.3594 17.6406 58 32 58C46.3594 58 58 46.3594 58 32C58 17.6406 46.3594 6 32 6ZM4 32C4 16.536 16.536 4 32 4C47.464 4 60 16.536 60 32C60 47.464 47.464 60 32 60C16.536 60 4 47.464 4 32ZM27.7256 21.2929C27.9131 21.1054 28.1675 21 28.4327 21C30.8982 21 34.1852 21.184 36.8868 22.1535C38.2449 22.6408 39.5218 23.3496 40.4658 24.3951C41.4294 25.4623 42 26.8309 42 28.5202C42 30.211 41.4277 31.5588 40.4471 32.5865C39.4903 33.5892 38.2014 34.2293 36.8443 34.6486C34.5034 35.3718 31.7158 35.5076 29.4327 35.5309V38.3473H37.3928C37.9451 38.3473 38.3928 38.795 38.3928 39.3473C38.3928 39.8996 37.9451 40.3473 37.3928 40.3473H29.4327V42C29.4327 42.5523 28.985 43 28.4327 43C27.8804 43 27.4327 42.5523 27.4327 42V40.3473H25C24.4477 40.3473 24 39.8996 24 39.3473C24 38.795 24.4477 38.3473 25 38.3473H27.4327V34.5353V22C27.4327 21.7348 27.538 21.4804 27.7256 21.2929ZM29.4327 33.5304C31.6725 33.5061 34.2002 33.3722 36.2539 32.7377C37.4277 32.3751 38.3642 31.8723 39.0002 31.2058C39.6123 30.5643 40 29.7167 40 28.5202C40 27.3223 39.6106 26.4323 38.9814 25.7355C38.3328 25.0171 37.3842 24.4568 36.2113 24.0359C34.1669 23.3023 31.6449 23.0623 29.4327 23.0113V33.5304ZM13 32C13 21.5066 21.5066 13 32 13C42.4934 13 51 21.5066 51 32C51 42.4934 42.4934 51 32 51C21.5066 51 13 42.4934 13 32ZM32 11C20.402 11 11 20.402 11 32C11 43.598 20.402 53 32 53C43.598 53 53 43.598 53 32C53 20.402 43.598 11 32 11Z" fill="currentColor"/>
</svg>
