<svg width="24" height="24" viewBox="0 0 24 24" fill="none" xmlns="http://www.w3.org/2000/svg">
    <path d="M7 10C7.55228 10 8 9.55229 8 9C8 8.44771 7.55228 8 7 8C6.44772 8 6 8.44771 6 9C6 9.55229 6.44772 10 7 10Z" fill="currentColor"/>
    <path d="M13 9C13 9.55229 12.5523 10 12 10C11.4477 10 11 9.55229 11 9C11 8.44771 11.4477 8 12 8C12.5523 8 13 8.44771 13 9Z" fill="currentColor"/>
    <path d="M17 10C17.5523 10 18 9.55229 18 9C18 8.44771 17.5523 8 17 8C16.4477 8 16 8.44771 16 9C16 9.55229 16.4477 10 17 10Z" fill="currentColor"/>
    <path d="M8 13C8 13.5523 7.55228 14 7 14C6.44772 14 6 13.5523 6 13C6 12.4477 6.44772 12 7 12C7.55228 12 8 12.4477 8 13Z" fill="currentColor"/>
    <path d="M12 14C12.5523 14 13 13.5523 13 13C13 12.4477 12.5523 12 12 12C11.4477 12 11 12.4477 11 13C11 13.5523 11.4477 14 12 14Z" fill="currentColor"/>
    <path d="M18 13C18 13.5523 17.5523 14 17 14C16.4477 14 16 13.5523 16 13C16 12.4477 16.4477 12 17 12C17.5523 12 18 12.4477 18 13Z" fill="currentColor"/>
    <path d="M7 18C7.55228 18 8 17.5523 8 17C8 16.4477 7.55228 16 7 16C6.44772 16 6 16.4477 6 17C6 17.5523 6.44772 18 7 18Z" fill="currentColor"/>
    <path fill-rule="evenodd" clip-rule="evenodd" d="M4 3C4 2.44772 4.44772 2 5 2C5.55228 2 6 2.44772 6 3V4H11V3C11 2.44772 11.4477 2 12 2C12.5523 2 13 2.44772 13 3V4H18V3C18 2.44772 18.4477 2 19 2C19.5523 2 20 2.44772 20 3V4.17071C21.1652 4.58254 22 5.69378 22 7V19C22 20.6569 20.6569 22 19 22H5C3.34315 22 2 20.6569 2 19V7C2 5.69378 2.83481 4.58254 4 4.17071V3ZM19 6C19.5523 6 20 6.44772 20 7V19C20 19.5523 19.5523 20 19 20H5C4.44772 20 4 19.5523 4 19V7C4 6.44772 4.44772 6 5 6H19Z" fill="currentColor"/>
</svg>
