<svg width="64" height="64" viewBox="0 0 64 64" fill="none" xmlns="http://www.w3.org/2000/svg">
<path fill-rule="evenodd" clip-rule="evenodd" d="M33 5C33 4.44772 32.5523 4 32 4C31.4477 4 31 4.44772 31 5V15.0858L28.7071 12.7929C28.3166 12.4024 27.6834 12.4024 27.2929 12.7929C26.9024 13.1834 26.9024 13.8166 27.2929 14.2071L31.2929 18.2071C31.6834 18.5976 32.3166 18.5976 32.7071 18.2071L36.7071 14.2071C37.0976 13.8166 37.0976 13.1834 36.7071 12.7929C36.3166 12.4024 35.6834 12.4024 35.2929 12.7929L33 15.0858V5ZM12.7929 36.7071C12.4024 36.3166 12.4024 35.6834 12.7929 35.2929L15.0858 33H5C4.44772 33 4 32.5523 4 32C4 31.4477 4.44772 31 5 31H15.0858L12.7929 28.7071C12.4024 28.3166 12.4024 27.6834 12.7929 27.2929C13.1834 26.9024 13.8166 26.9024 14.2071 27.2929L18.2071 31.2929C18.5976 31.6834 18.5976 32.3166 18.2071 32.7071L14.2071 36.7071C13.8166 37.0976 13.1834 37.0976 12.7929 36.7071ZM59 33C59.5523 33 60 32.5523 60 32C60 31.4477 59.5523 31 59 31H48.9142L51.2071 28.7071C51.5976 28.3166 51.5976 27.6834 51.2071 27.2929C50.8166 26.9024 50.1834 26.9024 49.7929 27.2929L45.7929 31.2929C45.4024 31.6834 45.4024 32.3166 45.7929 32.7071L49.7929 36.7071C50.1834 37.0976 50.8166 37.0976 51.2071 36.7071C51.5976 36.3166 51.5976 35.6834 51.2071 35.2929L48.9142 33H59ZM31 59C31 59.5523 31.4477 60 32 60C32.5523 60 33 59.5523 33 59V48.9142L35.2929 51.2071C35.6834 51.5976 36.3166 51.5976 36.7071 51.2071C37.0976 50.8166 37.0976 50.1834 36.7071 49.7929L32.7071 45.7929C32.3166 45.4024 31.6834 45.4024 31.2929 45.7929L27.2929 49.7929C26.9024 50.1834 26.9024 50.8166 27.2929 51.2071C27.6834 51.5976 28.3166 51.5976 28.7071 51.2071L31 48.9142V59ZM24 32C24 27.5817 27.5817 24 32 24C36.4183 24 40 27.5817 40 32C40 36.4183 36.4183 40 32 40C27.5817 40 24 36.4183 24 32ZM32 22C26.4772 22 22 26.4772 22 32C22 37.5228 26.4772 42 32 42C37.5228 42 42 37.5228 42 32C42 26.4772 37.5228 22 32 22Z" fill="currentColor"/>
</svg>
