<svg width="24" height="24" viewBox="0 0 24 24" fill="none" xmlns="http://www.w3.org/2000/svg">
<path fill-rule="evenodd" clip-rule="evenodd" d="M14.1818 6.12143L15.5962 4.70711L19.1317 8.24264L17.7174 9.65696L14.1818 6.12143ZM13.1212 7.18209L5.00806 15.2952L4.56612 19.2727L8.54359 18.8307L16.6567 10.7176L13.1212 7.18209ZM14.889 3.29289C15.2796 2.90237 15.9127 2.90237 16.3033 3.29289L20.5459 7.53553C20.9364 7.92606 20.9364 8.55922 20.5459 8.94975L9.48023 20.0154C9.31967 20.176 9.10924 20.2771 8.88356 20.3022L4.11059 20.8325C3.47367 20.9033 2.9355 20.3651 3.00627 19.7282L3.5366 14.9552C3.56168 14.7296 3.66282 14.5191 3.82338 14.3586L14.889 3.29289Z" fill="currentColor"/>
</svg>
