<svg width="64" height="64" viewBox="0 0 64 64" fill="none" xmlns="http://www.w3.org/2000/svg">
<path fill-rule="evenodd" clip-rule="evenodd" d="M4 5C4 4.44772 4.44772 4 5 4H29C29.5523 4 30 4.44772 30 5V29C30 29.5523 29.5523 30 29 30H5C4.44772 30 4 29.5523 4 29V5ZM6 6V28H28V6H6ZM4 35C4 34.4477 4.44772 34 5 34H29C29.5523 34 30 34.4477 30 35V59C30 59.5523 29.5523 60 29 60H5C4.44772 60 4 59.5523 4 59V35ZM6 36V58H28V36H6ZM35 34C34.4477 34 34 34.4477 34 35V59C34 59.5523 34.4477 60 35 60H59C59.5523 60 60 59.5523 60 59V35C60 34.4477 59.5523 34 59 34H35ZM36 58V36H58V58H36ZM47 4C47.5523 4 48 4.44772 48 5V16H59C59.5523 16 60 16.4477 60 17C60 17.5523 59.5523 18 59 18H48V29C48 29.5523 47.5523 30 47 30C46.4477 30 46 29.5523 46 29V18H35C34.4477 18 34 17.5523 34 17C34 16.4477 34.4477 16 35 16H46V5C46 4.44772 46.4477 4 47 4Z" fill="currentColor"/>
</svg>
