<svg width="64" height="64" viewBox="0 0 64 64" fill="none" xmlns="http://www.w3.org/2000/svg">
<path fill-rule="evenodd" clip-rule="evenodd" d="M10 10C10 7.23858 12.2386 5 15 5H39C41.7614 5 44 7.23858 44 10V14.5C44 15.0523 43.5523 15.5 43 15.5C42.4477 15.5 42 15.0523 42 14.5V10C42 8.34315 40.6569 7 39 7H15C13.3431 7 12 8.34315 12 10V54C12 55.6569 13.3431 57 15 57H39C40.6569 57 42 55.6569 42 54V50C42 49.4477 42.4477 49 43 49C43.5523 49 44 49.4477 44 50V54C44 56.7614 41.7614 59 39 59H15C12.2386 59 10 56.7614 10 54V10ZM22 11C22 10.4477 22.4477 10 23 10H27H31C31.5523 10 32 10.4477 32 11C32 11.5523 31.5523 12 31 12H27H23C22.4477 12 22 11.5523 22 11ZM26 51C26 50.4477 26.4477 50 27 50C27.5523 50 28 50.4477 28 51C28 51.5523 27.5523 52 27 52C26.4477 52 26 51.5523 26 51ZM27 48C25.3431 48 24 49.3431 24 51C24 52.6569 25.3431 54 27 54C28.6569 54 30 52.6569 30 51C30 49.3431 28.6569 48 27 48Z" fill="currentColor"/>
<path d="M42.9023 45C50.2168 45 56 39.0659 56 32C56 24.9341 50.2168 19 42.9023 19C35.5877 19 30 24.9341 30 32C30 39.0659 35.7832 45 42.9023 45Z" stroke="currentColor" stroke-width="2" stroke-linecap="round" stroke-linejoin="round"/>
<path d="M36 31.5L41.04 36L50 28" stroke="currentColor" stroke-width="2" stroke-linecap="round" stroke-linejoin="round"/>
</svg>
