<svg width="16" height="16" viewBox="0 0 16 16" fill="none" xmlns="http://www.w3.org/2000/svg">
    <path fill-rule="evenodd" clip-rule="evenodd" d="M12.5 7C12.5 7.4786 12.3093 8.13897 11.8805 8.94035C11.4627 9.72135 10.8782 10.5259 10.2417 11.26C9.60623 11.9929 8.95093 12.6187 8.41811 13.0481C8.25783 13.1772 8.11763 13.2814 8 13.3621C7.88238 13.2814 7.74217 13.1772 7.58189 13.0481C7.04907 12.6187 6.39377 11.9929 5.7583 11.26C5.12181 10.5259 4.53733 9.72135 4.11947 8.94035C3.69071 8.13897 3.5 7.4786 3.5 7C3.5 4.51472 5.51472 2.5 8 2.5C10.4853 2.5 12.5 4.51472 12.5 7ZM14 7C14 10.3137 9 15 8 15C7 15 2 10.3137 2 7C2 3.68629 4.68629 1 8 1C11.3137 1 14 3.68629 14 7ZM8 8C8.55229 8 9 7.55228 9 7C9 6.44772 8.55229 6 8 6C7.44772 6 7 6.44772 7 7C7 7.55228 7.44772 8 8 8Z" fill="currentColor"/>
</svg>
