<svg width="64" height="64" viewBox="0 0 64 64" fill="none" xmlns="http://www.w3.org/2000/svg">
<path fill-rule="evenodd" clip-rule="evenodd" d="M57.6159 7.87378C57.9472 8.17839 58 8.39112 58 8.5C58 8.60888 57.9472 8.82161 57.6159 9.12622C57.2838 9.43161 56.7479 9.7526 56.0015 10.0429C54.515 10.6209 52.3935 11 50 11C47.6065 11 45.485 10.6209 43.9985 10.0429C43.2521 9.7526 42.7162 9.43161 42.3841 9.12622C42.0528 8.82161 42 8.60888 42 8.5C42 8.39112 42.0528 8.17839 42.3841 7.87378C42.7162 7.56839 43.2521 7.2474 43.9985 6.95713C45.485 6.37906 47.6065 6 50 6C52.3935 6 54.515 6.37906 56.0015 6.95713C56.7479 7.2474 57.2838 7.56839 57.6159 7.87378ZM56.7264 5.09312C54.9555 4.40444 52.577 4 50 4C47.423 4 45.0445 4.40444 43.2736 5.09312C42.3913 5.43622 41.6091 5.86943 41.0304 6.4015C40.4509 6.93437 40 7.64238 40 8.5C40 8.60359 40.0066 8.705 40.0192 8.80417C40.0066 8.8675 40 8.93298 40 9V14.4396C40 14.5564 40.0082 14.6705 40.0239 14.7819C40.0082 14.8521 40 14.9251 40 15V20.4396C40 21.2989 40.4443 22.0134 41.0242 22.5558C41.6024 23.0966 42.3848 23.5376 43.2682 23.8871C45.0408 24.5883 47.4212 25 50 25C52.5788 25 54.9592 24.5883 56.7318 23.8871C57.6152 23.5376 58.3976 23.0966 58.9758 22.5558C59.5557 22.0134 60 21.2989 60 20.4396V15C60 14.9251 59.9918 14.8521 59.9761 14.7819C59.9918 14.6705 60 14.5564 60 14.4396V9C60 8.93298 59.9934 8.8675 59.9808 8.80418C59.9934 8.705 60 8.60359 60 8.5C60 7.64238 59.5491 6.93437 58.9696 6.4015C58.3909 5.86943 57.6087 5.43622 56.7264 5.09312ZM42 20.4396V17.2745C42.3867 17.5036 42.8141 17.7074 43.2682 17.8871C45.0408 18.5883 47.4212 19 50 19C52.5788 19 54.9592 18.5883 56.7318 17.8871C57.1859 17.7074 57.6133 17.5036 58 17.2745V20.4396C58 20.5634 57.9406 20.7855 57.6096 21.0951C57.277 21.4062 56.7414 21.7324 55.9961 22.0273C54.5113 22.6147 52.3918 23 50 23C47.6082 23 45.4887 22.6147 44.0039 22.0273C43.2586 21.7324 42.723 21.4062 42.3904 21.0951C42.0594 20.7855 42 20.5634 42 20.4396ZM42 14.4396V11.3014C42.3883 11.5281 42.8176 11.7295 43.2736 11.9069C45.0445 12.5956 47.423 13 50 13C52.577 13 54.9555 12.5956 56.7264 11.9069C57.1824 11.7295 57.6117 11.5281 58 11.3014V14.4396C58 14.5634 57.9406 14.7855 57.6096 15.0951C57.277 15.4062 56.7414 15.7324 55.9961 16.0273C54.5113 16.6147 52.3918 17 50 17C47.6082 17 45.4887 16.6147 44.0039 16.0273C43.2586 15.7324 42.723 15.4062 42.3904 15.0951C42.0594 14.7855 42 14.5634 42 14.4396ZM25.7617 4.13435C26.0631 4.30868 26.2521 4.62723 26.2607 4.97531L26.7292 23.9377C26.7382 24.3036 26.5466 24.6453 26.2296 24.8283C25.9126 25.0114 25.5209 25.0067 25.2084 24.8159L22.2592 23.0156L11.4207 42.864C11.2896 43.1041 11.0658 43.28 10.8016 43.3508C10.5373 43.4215 10.2555 43.3808 10.022 43.2383L7.35739 41.6117L8.09114 57.3601L21.3574 50.1578L18.5665 48.4541C18.1111 48.1761 17.9542 47.5896 18.2099 47.1213L25.6658 33.4673L22.2069 31.3559C21.7355 31.0681 21.5866 30.4527 21.8744 29.9813C22.1621 29.5099 22.7775 29.361 23.2489 29.6488L27.5212 32.2567C27.9766 32.5347 28.1335 33.1212 27.8778 33.5895L20.4219 47.2435L23.8808 49.355C24.186 49.5413 24.3685 49.8764 24.3595 50.2338C24.3504 50.5913 24.1512 50.9167 23.8369 51.0873L7.64359 59.8788C7.34101 60.0431 6.9752 60.0402 6.6753 59.8711C6.37539 59.702 6.18357 59.3905 6.16755 59.0465L5.2719 39.8234C5.25468 39.4538 5.44293 39.1049 5.76128 38.9164C6.07963 38.7279 6.47605 38.7305 6.79185 38.9233L10.1683 40.9844L21.0068 21.136C21.1379 20.8959 21.3617 20.72 21.626 20.6492C21.8902 20.5785 22.172 20.6192 22.4055 20.7617L24.6845 22.1529L24.3017 6.6587L11.0701 13.8422L13.4338 15.2851C13.8892 15.5631 14.0461 16.1496 13.7904 16.6179L6.3345 30.2719L10.2206 32.6441C10.692 32.9319 10.8409 33.5473 10.5532 34.0187C10.2654 34.4901 9.64998 34.639 9.17858 34.3512L4.47912 31.4825C4.02372 31.2045 3.86677 30.618 4.12247 30.1497L11.5784 16.4957L8.54669 14.645C8.24148 14.4587 8.05898 14.1236 8.06804 13.7662C8.0771 13.4087 8.27634 13.0833 8.59059 12.9127L24.7839 4.12117C25.0899 3.95504 25.4603 3.96003 25.7617 4.13435ZM58 43.5C58 43.3911 57.9472 43.1784 57.6159 42.8738C57.2838 42.5684 56.7479 42.2474 56.0015 41.9571C54.515 41.3791 52.3935 41 50 41C47.6065 41 45.485 41.3791 43.9985 41.9571C43.2521 42.2474 42.7162 42.5684 42.3841 42.8738C42.0528 43.1784 42 43.3911 42 43.5C42 43.6089 42.0528 43.8216 42.3841 44.1262C42.7162 44.4316 43.2521 44.7526 43.9985 45.0429C45.485 45.6209 47.6065 46 50 46C52.3935 46 54.515 45.6209 56.0015 45.0429C56.7479 44.7526 57.2838 44.4316 57.6159 44.1262C57.9472 43.8216 58 43.6089 58 43.5ZM50 39C52.577 39 54.9555 39.4044 56.7264 40.0931C57.6087 40.4362 58.3909 40.8694 58.9696 41.4015C59.5491 41.9344 60 42.6424 60 43.5C60 43.6036 59.9934 43.705 59.9808 43.8042C59.9934 43.8675 60 43.933 60 44V49.4396C60 49.5564 59.9918 49.6705 59.9761 49.7819C59.9918 49.8521 60 49.9251 60 50V55.4396C60 56.2989 59.5557 57.0134 58.9758 57.5558C58.3976 58.0966 57.6152 58.5376 56.7318 58.8871C54.9592 59.5883 52.5788 60 50 60C47.4212 60 45.0408 59.5883 43.2682 58.8871C42.3848 58.5376 41.6024 58.0966 41.0242 57.5558C40.4443 57.0134 40 56.2989 40 55.4396V50C40 49.9251 40.0082 49.8521 40.0239 49.7819C40.0082 49.6705 40 49.5564 40 49.4396V44C40 43.933 40.0066 43.8675 40.0192 43.8042C40.0066 43.705 40 43.6036 40 43.5C40 42.6424 40.4509 41.9344 41.0304 41.4015C41.6091 40.8694 42.3913 40.4362 43.2736 40.0931C45.0445 39.4044 47.423 39 50 39ZM42 52.2745V55.4396C42 55.5634 42.0594 55.7855 42.3904 56.0951C42.723 56.4062 43.2586 56.7324 44.0039 57.0273C45.4887 57.6147 47.6082 58 50 58C52.3918 58 54.5113 57.6147 55.9961 57.0273C56.7414 56.7324 57.277 56.4062 57.6096 56.0951C57.9406 55.7855 58 55.5634 58 55.4396V52.2745C57.6133 52.5036 57.1859 52.7074 56.7318 52.8871C54.9592 53.5883 52.5788 54 50 54C47.4212 54 45.0408 53.5883 43.2682 52.8871C42.8141 52.7074 42.3867 52.5036 42 52.2745ZM42 46.3014V49.4396C42 49.5634 42.0594 49.7855 42.3904 50.0951C42.723 50.4062 43.2586 50.7324 44.0039 51.0273C45.4887 51.6147 47.6082 52 50 52C52.3918 52 54.5113 51.6147 55.9961 51.0273C56.7414 50.7324 57.277 50.4062 57.6096 50.0951C57.9406 49.7855 58 49.5634 58 49.4396V46.3014C57.6117 46.5281 57.1824 46.7295 56.7264 46.9069C54.9555 47.5956 52.577 48 50 48C47.423 48 45.0445 47.5956 43.2736 46.9069C42.8176 46.7295 42.3883 46.5281 42 46.3014Z" fill="currentColor"/>
</svg>
