<svg width="64" height="64" viewBox="0 0 64 64" fill="none" xmlns="http://www.w3.org/2000/svg">
    <path fill-rule="evenodd" clip-rule="evenodd" d="M16 14C16 13.4477 16.4477 13 17 13H59C59.5523 13 60 13.4477 60 14V39C60 39.5523 59.5523 40 59 40H56.1364V38H58V15H18V16.8846H16V14ZM11 19C10.4477 19 10 19.4477 10 20V22.7692H12V21H52V43H50.1364V45H53C53.5523 45 54 44.5523 54 44V20C54 19.4477 53.5523 19 53 19H11ZM5 24C4.44772 24 4 24.4477 4 25V50C4 50.5523 4.44772 51 5 51H47C47.5523 51 48 50.5523 48 50V25C48 24.4477 47.5523 24 47 24H5ZM6 49V26H46V49H6ZM23.36 28C23.0948 28 22.8404 28.1054 22.6529 28.2929C22.4653 28.4804 22.36 28.7348 22.36 29V38.3231V40.902H20C19.4477 40.902 19 41.3498 19 41.902C19 42.4543 19.4477 42.902 20 42.902H22.36V46C22.36 46.5523 22.8077 47 23.36 47C23.9123 47 24.36 46.5523 24.36 46V42.902H31.52C32.0723 42.902 32.52 42.4543 32.52 41.902C32.52 41.3498 32.0723 40.902 31.52 40.902H24.36V39.3154C25.8803 39.2877 27.7011 39.1653 29.257 38.6452C30.2278 38.3207 31.1696 37.8186 31.8725 37.0217C32.5934 36.2044 33 35.1474 33 33.8494C33 32.5521 32.5944 31.4828 31.8902 30.639C31.2008 29.8131 30.2725 29.2588 29.3019 28.882C27.3805 28.1361 25.0646 28 23.36 28ZM28.623 36.7484C27.3575 37.1713 25.8051 37.2861 24.36 37.3145V30.0184C25.7783 30.0725 27.3227 30.259 28.5781 30.7464C29.3475 31.0451 29.9492 31.4347 30.3548 31.9206C30.7456 32.3888 31 32.9993 31 33.8494C31 34.6987 30.7466 35.2747 30.3725 35.6988C29.9804 36.1433 29.3922 36.4913 28.623 36.7484Z" fill="currentColor"/>
</svg>