<svg width="64" height="64" viewBox="0 0 64 64" fill="none" xmlns="http://www.w3.org/2000/svg">
<path fill-rule="evenodd" clip-rule="evenodd" d="M56 5C56 4.44772 55.5523 4 55 4C54.4477 4 54 4.44772 54 5V56.6168L51.7006 54.3592C51.3065 53.9722 50.6734 53.978 50.2864 54.3721C49.8995 54.7662 49.9053 55.3994 50.2994 55.7863L54.2994 59.7136C54.6884 60.0955 55.3116 60.0955 55.7006 59.7136L59.7006 55.7863C60.0947 55.3994 60.1005 54.7662 59.7136 54.3721C59.3266 53.978 58.6935 53.9722 58.2994 54.3592L56 56.6168V5ZM44.6159 36.8738C44.9472 37.1784 45 37.3911 45 37.5C45 37.6089 44.9472 37.8216 44.6159 38.1262C44.2838 38.4316 43.7479 38.7526 43.0015 39.0429C41.515 39.6209 39.3935 40 37 40C34.6065 40 32.485 39.6209 30.9985 39.0429C30.2521 38.7526 29.7162 38.4316 29.3841 38.1262C29.0528 37.8216 29 37.6089 29 37.5C29 37.3911 29.0528 37.1784 29.3841 36.8738C29.7162 36.5684 30.2521 36.2474 30.9985 35.9571C32.485 35.3791 34.6065 35 37 35C39.3935 35 41.515 35.3791 43.0015 35.9571C43.7479 36.2474 44.2838 36.5684 44.6159 36.8738ZM43.7264 34.0931C41.9555 33.4044 39.577 33 37 33C34.423 33 32.0445 33.4044 30.2736 34.0931C29.3913 34.4362 28.6091 34.8694 28.0304 35.4015C27.4509 35.9344 27 36.6424 27 37.5C27 37.6036 27.0066 37.705 27.0192 37.8042C27.0066 37.8675 27 37.933 27 38V43.4396C27 43.5564 27.0082 43.6705 27.0239 43.7819C27.0082 43.8521 27 43.9251 27 44V49.4396C27 49.5564 27.0082 49.6705 27.0239 49.7819C27.0082 49.8521 27 49.9251 27 50V55.4396C27 56.2989 27.4443 57.0134 28.0242 57.5558C28.6024 58.0966 29.3848 58.5376 30.2682 58.8871C32.0408 59.5883 34.4212 60 37 60C39.5788 60 41.9592 59.5883 43.7318 58.8871C44.6152 58.5376 45.3976 58.0966 45.9758 57.5558C46.5557 57.0134 47 56.2989 47 55.4396V50C47 49.9251 46.9918 49.8521 46.9761 49.7819C46.9918 49.6705 47 49.5564 47 49.4396V44C47 43.9251 46.9918 43.8521 46.9761 43.7819C46.9918 43.6705 47 43.5564 47 43.4396V38C47 37.933 46.9934 37.8675 46.9808 37.8042C46.9934 37.705 47 37.6036 47 37.5C47 36.6424 46.5491 35.9344 45.9696 35.4015C45.3909 34.8694 44.6087 34.4362 43.7264 34.0931ZM45 52.2745C44.6133 52.5036 44.1859 52.7074 43.7318 52.8871C41.9592 53.5883 39.5788 54 37 54C34.4212 54 32.0408 53.5883 30.2682 52.8871C29.8141 52.7074 29.3867 52.5036 29 52.2745V55.4396C29 55.5634 29.0594 55.7855 29.3904 56.0951C29.723 56.4062 30.2586 56.7324 31.0039 57.0273C32.4887 57.6147 34.6082 58 37 58C39.3918 58 41.5113 57.6147 42.9961 57.0273C43.7414 56.7324 44.277 56.4062 44.6096 56.0951C44.9406 55.7855 45 55.5634 45 55.4396V52.2745ZM29 49.4396V46.2745C29.3867 46.5036 29.8141 46.7074 30.2682 46.8871C32.0408 47.5883 34.4212 48 37 48C39.5788 48 41.9592 47.5883 43.7318 46.8871C44.1859 46.7074 44.6133 46.5036 45 46.2745V49.4396C45 49.5634 44.9406 49.7855 44.6096 50.0951C44.277 50.4062 43.7414 50.7324 42.9961 51.0273C41.5113 51.6147 39.3918 52 37 52C34.6082 52 32.4887 51.6147 31.0039 51.0273C30.2586 50.7324 29.723 50.4062 29.3904 50.0951C29.0594 49.7855 29 49.5634 29 49.4396ZM45 40.3014C44.6117 40.5281 44.1824 40.7295 43.7264 40.9069C41.9555 41.5956 39.577 42 37 42C34.423 42 32.0445 41.5956 30.2736 40.9069C29.8176 40.7295 29.3883 40.5281 29 40.3014V43.4396C29 43.5634 29.0594 43.7855 29.3904 44.0951C29.723 44.4062 30.2586 44.7324 31.0039 45.0273C32.4887 45.6147 34.6082 46 37 46C39.3918 46 41.5113 45.6147 42.9961 45.0273C43.7414 44.7324 44.277 44.4062 44.6096 44.0951C44.9406 43.7855 45 43.5634 45 43.4396V40.3014ZM21.6159 12.8738C21.9472 13.1784 22 13.3911 22 13.5C22 13.6089 21.9472 13.8216 21.6159 14.1262C21.2838 14.4316 20.7479 14.7526 20.0015 15.0429C18.515 15.6209 16.3935 16 14 16C11.6065 16 9.48496 15.6209 7.99849 15.0429C7.25207 14.7526 6.71625 14.4316 6.3841 14.1262C6.0528 13.8216 6 13.6089 6 13.5C6 13.3911 6.0528 13.1784 6.3841 12.8738C6.71625 12.5684 7.25207 12.2474 7.99849 11.9571C9.48496 11.3791 11.6065 11 14 11C16.3935 11 18.515 11.3791 20.0015 11.9571C20.7479 12.2474 21.2838 12.5684 21.6159 12.8738ZM20.7264 10.0931C18.9555 9.40444 16.577 9 14 9C11.423 9 9.04448 9.40444 7.27359 10.0931C6.39133 10.4362 5.60913 10.8694 5.03043 11.4015C4.45088 11.9344 4 12.6424 4 13.5C4 13.6036 4.00658 13.705 4.01917 13.8042C4.00659 13.8675 4 13.933 4 14V19.4396C4 19.5564 4.00821 19.6705 4.02385 19.7819C4.00824 19.8521 4 19.9251 4 20V25.4396C4 25.5564 4.00821 25.6705 4.02385 25.7819C4.00824 25.8521 4 25.9251 4 26V31.4396C4 31.5564 4.00821 31.6705 4.02385 31.7819C4.00824 31.8521 4 31.9251 4 32V37.4396C4 37.5564 4.00821 37.6705 4.02385 37.7819C4.00824 37.8521 4 37.9251 4 38V43.4396C4 43.5564 4.00821 43.6705 4.02385 43.7819C4.00824 43.8521 4 43.9251 4 44V49.4396C4 49.5564 4.00821 49.6705 4.02385 49.7819C4.00824 49.8521 4 49.9251 4 50V55.4396C4 56.2989 4.44431 57.0134 5.02417 57.5558C5.60239 58.0966 6.38482 58.5376 7.26817 58.8871C9.04076 59.5883 11.4212 60 14 60C16.5788 60 18.9592 59.5883 20.7318 58.8871C21.6152 58.5376 22.3976 58.0966 22.9758 57.5558C23.5557 57.0134 24 56.2989 24 55.4396V50C24 49.9251 23.9918 49.8521 23.9761 49.7819C23.9918 49.6705 24 49.5564 24 49.4396V44C24 43.9251 23.9918 43.8521 23.9761 43.7819C23.9918 43.6705 24 43.5564 24 43.4396V38C24 37.9251 23.9918 37.8521 23.9761 37.7819C23.9918 37.6705 24 37.5564 24 37.4396V32C24 31.9251 23.9918 31.8521 23.9761 31.7819C23.9918 31.6705 24 31.5564 24 31.4396V26C24 25.9251 23.9918 25.8521 23.9761 25.7819C23.9918 25.6705 24 25.5564 24 25.4396V20C24 19.9251 23.9918 19.8521 23.9761 19.7819C23.9918 19.6705 24 19.5564 24 19.4396V14C24 13.933 23.9934 13.8675 23.9808 13.8042C23.9934 13.705 24 13.6036 24 13.5C24 12.6424 23.5491 11.9344 22.9696 11.4015C22.3909 10.8694 21.6087 10.4362 20.7264 10.0931ZM22 52.2745C21.6133 52.5036 21.1859 52.7074 20.7318 52.8871C18.9592 53.5883 16.5788 54 14 54C11.4212 54 9.04076 53.5883 7.26817 52.8871C6.8141 52.7074 6.3867 52.5036 6 52.2745V55.4396C6 55.5634 6.05937 55.7855 6.39036 56.0951C6.72298 56.4062 7.25858 56.7324 8.0039 57.0273C9.48868 57.6147 11.6082 58 14 58C16.3918 58 18.5113 57.6147 19.9961 57.0273C20.7414 56.7324 21.277 56.4062 21.6096 56.0951C21.9406 55.7855 22 55.5634 22 55.4396V52.2745ZM6 49.4396V46.2745C6.3867 46.5036 6.8141 46.7074 7.26818 46.8871C9.04076 47.5883 11.4212 48 14 48C16.5788 48 18.9592 47.5883 20.7318 46.8871C21.1859 46.7074 21.6133 46.5036 22 46.2745V49.4396C22 49.5634 21.9406 49.7855 21.6096 50.0951C21.277 50.4062 20.7414 50.7324 19.9961 51.0273C18.5113 51.6147 16.3918 52 14 52C11.6082 52 9.48868 51.6147 8.0039 51.0273C7.25858 50.7324 6.72298 50.4062 6.39036 50.0951C6.05937 49.7855 6 49.5634 6 49.4396ZM22 40.2745C21.6133 40.5036 21.1859 40.7074 20.7318 40.8871C18.9592 41.5883 16.5788 42 14 42C11.4212 42 9.04076 41.5883 7.26818 40.8871C6.8141 40.7074 6.3867 40.5036 6 40.2745V43.4396C6 43.5634 6.05937 43.7855 6.39036 44.0951C6.72298 44.4062 7.25858 44.7324 8.0039 45.0273C9.48868 45.6147 11.6082 46 14 46C16.3918 46 18.5113 45.6147 19.9961 45.0273C20.7414 44.7324 21.277 44.4062 21.6096 44.0951C21.9406 43.7855 22 43.5634 22 43.4396V40.2745ZM6 31.4396V28.2745C6.3867 28.5036 6.8141 28.7074 7.26818 28.8871C9.04076 29.5883 11.4212 30 14 30C16.5788 30 18.9592 29.5883 20.7318 28.8871C21.1859 28.7074 21.6133 28.5036 22 28.2745V31.4396C22 31.5634 21.9406 31.7855 21.6096 32.0951C21.277 32.4062 20.7414 32.7324 19.9961 33.0273C18.5113 33.6147 16.3918 34 14 34C11.6082 34 9.48868 33.6147 8.0039 33.0273C7.25858 32.7324 6.72298 32.4062 6.39036 32.0951C6.05937 31.7855 6 31.5634 6 31.4396ZM6 37.4396V34.2745C6.3867 34.5036 6.8141 34.7074 7.26818 34.8871C9.04076 35.5883 11.4212 36 14 36C16.5788 36 18.9592 35.5883 20.7318 34.8871C21.1859 34.7074 21.6133 34.5036 22 34.2745V37.4396C22 37.5634 21.9406 37.7855 21.6096 38.0951C21.277 38.4062 20.7414 38.7324 19.9961 39.0273C18.5113 39.6147 16.3918 40 14 40C11.6082 40 9.48868 39.6147 8.0039 39.0273C7.25858 38.7324 6.72298 38.4062 6.39036 38.0951C6.05937 37.7855 6 37.5634 6 37.4396ZM6 25.4396V22.2745C6.3867 22.5036 6.8141 22.7074 7.26818 22.8871C9.04076 23.5883 11.4212 24 14 24C16.5788 24 18.9592 23.5883 20.7318 22.8871C21.1859 22.7074 21.6133 22.5036 22 22.2745V25.4396C22 25.5634 21.9406 25.7855 21.6096 26.0951C21.277 26.4062 20.7414 26.7324 19.9961 27.0273C18.5113 27.6147 16.3918 28 14 28C11.6082 28 9.48868 27.6147 8.0039 27.0273C7.25858 26.7324 6.72298 26.4062 6.39036 26.0951C6.05937 25.7855 6 25.5634 6 25.4396ZM22 16.3014C21.6117 16.5281 21.1824 16.7295 20.7264 16.9069C18.9555 17.5956 16.577 18 14 18C11.423 18 9.04448 17.5956 7.27359 16.9069C6.81756 16.7295 6.38827 16.5281 6 16.3014V19.4396C6 19.5634 6.05937 19.7855 6.39036 20.0951C6.72298 20.4062 7.25858 20.7324 8.0039 21.0273C9.48868 21.6147 11.6082 22 14 22C16.3918 22 18.5113 21.6147 19.9961 21.0273C20.7414 20.7324 21.277 20.4062 21.6096 20.0951C21.9406 19.7855 22 19.5634 22 19.4396V16.3014Z" fill="currentColor"/>
</svg>
