<svg width="24" height="24" viewBox="0 0 24 24" fill="none" xmlns="http://www.w3.org/2000/svg">
<path d="M13 7.83185C14.4232 8.43624 15.5638 9.57677 16.1682 11M13.654 3C17.1912 4.02076 19.9791 6.80852 21 10.3456M3.08625 8.01409C3.33466 9.24553 3.74664 10.4604 4.59986 11.9481C6.32686 14.9594 9.03705 17.6711 12.0519 19.4001C13.5396 20.2534 14.7545 20.6653 15.9859 20.9137C17.8072 21.2811 19.5863 20.4404 20.7215 19.0476C21.2013 18.4589 21.0373 17.7841 20.4128 17.436L19.003 16.6501C17.8855 16.0272 16.3267 14.7158 15.7344 14.7776C15.142 14.8393 14 16 14 16C10.9852 14.271 9.72699 13.0113 8 10C8 10 9.16066 8.85801 9.22243 8.26563C9.28421 7.67325 7.97276 6.11451 7.34987 4.99702L6.564 3.58716C6.21591 2.96267 5.5411 2.79874 4.95244 3.27853C3.55963 4.41373 2.71886 6.19282 3.08625 8.01409Z" stroke="currentColor" stroke-width="1.5" stroke-linecap="round" stroke-linejoin="round"/>
</svg>
