<svg width="64" height="64" viewBox="0 0 64 64" fill="none" xmlns="http://www.w3.org/2000/svg">
<path fill-rule="evenodd" clip-rule="evenodd" d="M40.1508 4.12679C40.633 3.85757 41.2422 4.03025 41.5114 4.51247C45.0188 10.795 42.7707 18.7351 36.4877 22.2428C36.0054 22.512 35.3963 22.3393 35.127 21.8571C34.8578 21.3749 35.0305 20.7657 35.5127 20.4965C40.8308 17.5275 42.7344 10.806 39.7651 5.4874C39.4959 5.00517 39.6686 4.39601 40.1508 4.12679ZM31.0002 8.55857C31.0002 7.14547 32.1457 5.99994 33.5588 5.99994C34.9719 5.99994 36.1175 7.14547 36.1175 8.55857C36.1175 9.97166 34.9719 11.1172 33.5588 11.1172C32.1457 11.1172 31.0002 9.97166 31.0002 8.55857ZM33.5588 3.99994C31.0412 3.99994 29.0002 6.0409 29.0002 8.55857C29.0002 11.0762 31.0412 13.1172 33.5588 13.1172C36.0765 13.1172 38.1175 11.0762 38.1175 8.55857C38.1175 6.0409 36.0765 3.99994 33.5588 3.99994ZM48.1232 11.1999C47.8246 10.976 47.4262 10.937 47.0898 11.0987C46.7535 11.2605 46.5352 11.5961 46.5237 11.9692L46.3962 16.1123L43.4033 18.3386C43.1126 18.5549 42.9616 18.9115 43.0087 19.2709C43.0558 19.6302 43.2936 19.9359 43.6302 20.07L47.2213 21.4999L48.8215 24.9689C48.972 25.2951 49.2859 25.5155 49.6438 25.5463C50.0016 25.5772 50.3486 25.4137 50.5526 25.118L52.604 22.1456L56.7498 21.8585C57.1215 21.8328 57.4481 21.6026 57.5972 21.2612C57.7463 20.9197 57.6933 20.5237 57.4595 20.2336L55.0351 17.224L56.0985 13.5853C56.2025 13.2297 56.1013 12.8458 55.8356 12.5876C55.5699 12.3294 55.1832 12.2393 54.8307 12.3534L51.2197 13.5223L48.1232 11.1999ZM48.3804 16.6569L48.4635 13.9552L50.4344 15.4333C50.6945 15.6284 51.0331 15.6848 51.3424 15.5847L53.6487 14.8382L52.9689 17.1641C52.8771 17.4781 52.9448 17.8172 53.15 18.072L54.6997 19.9957L51.9855 20.1836C51.6819 20.2046 51.4044 20.3627 51.2315 20.6132L49.9029 22.5384L48.8702 20.2997C48.7628 20.067 48.5702 19.8843 48.3321 19.7895L46.034 18.8744L47.9777 17.4285C48.2227 17.2463 48.371 16.9621 48.3804 16.6569ZM20.3334 24.0767C20.3379 24.0722 20.5362 23.9023 21.3206 24.0801C22.0474 24.2448 23.0187 24.6575 24.1815 25.3308C24.4465 25.4841 24.7188 25.6495 24.9975 25.8264C24.7995 26.3521 24.5958 26.8452 24.3947 27.2944C24.1691 27.7985 24.3948 28.3901 24.8989 28.6157C25.403 28.8414 25.9945 28.6157 26.2202 28.1116C26.3767 27.762 26.5355 27.3858 26.6931 26.9874C28.4313 28.2593 30.3296 29.8861 32.2218 31.7783C33.6814 33.2379 34.9831 34.7011 36.0857 36.0917C35.7957 36.3858 35.5216 36.6734 35.2649 36.9517C34.8905 37.3577 34.916 37.9904 35.322 38.3648C35.728 38.7392 36.3606 38.7137 36.7351 38.3077C36.9156 38.112 37.1048 37.9119 37.3021 37.7084C37.8279 38.4486 38.286 39.1565 38.6694 39.8186C39.3426 40.9814 39.7553 41.9527 39.92 42.6795C40.0978 43.464 39.928 43.6622 39.9234 43.6668C39.9188 43.6713 39.7206 43.8412 38.9361 43.6634C38.2093 43.4987 37.2381 43.086 36.0752 42.4128C33.7627 41.0739 30.8918 38.8221 28.0349 35.9652C25.1781 33.1084 22.9262 30.2374 21.5874 27.9249C20.9142 26.7621 20.5014 25.7908 20.3367 25.064C20.1589 24.2795 20.3288 24.0813 20.3334 24.0767ZM27.392 25.0265C29.3649 26.422 31.517 28.245 33.636 30.3641C35.0879 31.8159 36.4008 33.2833 37.5324 34.6979C39.8315 32.5907 42.7639 30.3871 45.822 29.0123C47.9211 28.0686 50.1483 27.4841 52.3069 27.649C54.5002 27.8165 56.5599 28.755 58.2638 30.7337C59.7548 32.4651 60.2517 34.2226 59.8851 35.7933C59.5253 37.3353 58.3846 38.4679 57.0716 39.0771C55.7603 39.6856 54.1616 39.8296 52.7424 39.2737C51.2791 38.7005 50.1189 37.4256 49.6862 35.4415C49.5685 34.9019 49.9106 34.369 50.4502 34.2514C50.9898 34.1337 51.5226 34.4757 51.6403 35.0153C51.9407 36.393 52.6745 37.0992 53.4718 37.4115C54.3132 37.7411 55.3417 37.675 56.2298 37.2629C57.1163 36.8516 57.7474 36.1531 57.9375 35.3388C58.1208 34.5532 57.9456 33.4292 56.7483 32.0388C55.3951 30.4674 53.8286 29.771 52.1546 29.6431C50.4458 29.5126 48.5646 29.9721 46.642 30.8365C43.7668 32.1291 40.9535 34.2569 38.75 36.2954C39.3858 37.1746 39.9397 38.0211 40.4002 38.8165C41.1207 40.061 41.6425 41.2312 41.8706 42.2374C42.0855 43.1859 42.1064 44.3122 41.3376 45.081C41.2664 45.1522 41.1921 45.2166 41.1152 45.2748C41.012 45.4315 40.8635 45.561 40.6785 45.6413L8.17311 59.7474C5.69303 60.8237 3.17644 58.3071 4.25271 55.827L10.2981 41.8964C10.3037 41.8825 10.3097 41.8688 10.316 41.8552L18.3588 23.3216C18.4391 23.1366 18.5686 22.9881 18.7254 22.8849C18.7835 22.808 18.8479 22.7337 18.9191 22.6625C19.6879 21.8937 20.8142 21.9146 21.7627 22.1296C22.7689 22.3576 23.9391 22.8794 25.1836 23.5999C25.3381 23.6894 25.4946 23.7824 25.6529 23.8788C26.1781 22.1103 26.5665 20.165 26.5945 18.3534C26.6185 16.8028 26.3769 15.4283 25.8032 14.356C25.2466 13.3156 24.3499 12.5033 22.916 12.0776C21.6446 11.7001 20.8913 11.9257 20.4723 12.237C20.0315 12.5646 19.7623 13.1323 19.7439 13.7991C19.7255 14.4688 19.9666 15.1156 20.3879 15.5306C20.776 15.9129 21.4005 16.1833 22.3807 15.982C22.9217 15.8709 23.4504 16.2194 23.5615 16.7604C23.6726 17.3014 23.3241 17.83 22.7831 17.9411C21.2081 18.2646 19.8889 17.8463 18.9845 16.9555C18.1133 16.0974 17.7132 14.8869 17.7447 13.744C17.7762 12.5981 18.2481 11.3981 19.2794 10.6317C20.3326 9.84914 21.7825 9.65476 23.4853 10.1603C25.4336 10.7388 26.7592 11.9032 27.5667 13.4126C28.3571 14.89 28.6212 16.6384 28.5943 18.3843C28.5597 20.6175 28.0463 22.9742 27.392 25.0265ZM17.8218 29.583L18.9122 27.0704C19.1652 27.6612 19.4844 28.2842 19.8565 28.927C20.4643 29.9767 21.2346 31.1153 22.1415 32.3008C22.1329 32.351 22.128 32.4026 22.1271 32.4551L22.0059 39.8487C22.0057 39.8575 22.0057 39.8663 22.0058 39.875L22.1213 51.5142L18.4951 53.0878L17.8253 29.6423C17.8247 29.6224 17.8236 29.6026 17.8218 29.583ZM24.0058 39.8684L24.0909 34.6778C24.8741 35.5734 25.7207 36.4794 26.6207 37.3794C27.2222 37.9809 27.8263 38.5585 28.4282 39.1093V48.5747C28.4282 48.6412 28.4347 48.7062 28.4471 48.7691L24.1129 50.65L24.0058 39.8684ZM30.4282 47.9093V40.8484C32.0699 42.2014 33.6529 43.3213 35.0732 44.1436C35.716 44.5158 36.3389 44.8349 36.9297 45.0879L30.4282 47.9093ZM15.9462 33.905L16.5188 53.9455L12.2245 55.809V42.4811L15.9462 33.905ZM10.2245 47.0898V56.677L7.37692 57.9127C6.56115 58.2667 5.73338 57.439 6.0874 56.6232L10.2245 47.0898Z" fill="currentColor"/>
</svg>
