<svg width="24" height="24" viewBox="0 0 24 24" fill="none" xmlns="http://www.w3.org/2000/svg">
<path fill-rule="evenodd" clip-rule="evenodd" d="M3.5 16.25V6.75H5C5.41421 6.75 5.75 6.41421 5.75 6C5.75 5.58579 5.41421 5.25 5 5.25H3.5V3.5H20.5V19.5H3.5V17.75H5C5.41421 17.75 5.75 17.4142 5.75 17C5.75 16.5858 5.41421 16.25 5 16.25H3.5ZM2 3C2 2.44771 2.44772 2 3 2H21C21.5523 2 22 2.44772 22 3V20C22 20.5523 21.5523 21 21 21H19.75V22H18.25V21H5.75V22H4.25V21H3C2.44772 21 2 20.5523 2 20V3ZM13.8875 14.4479C13.3429 14.7974 12.6951 15 12 15C11.305 15 10.6573 14.7974 10.1128 14.4481L10.1163 14.4446C10.4092 14.1517 10.4092 13.6769 10.1163 13.384C9.82337 13.0911 9.3485 13.0911 9.05561 13.384L9.05207 13.3875C8.70264 12.8429 8.5 12.1951 8.5 11.5C8.5 10.8049 8.70264 10.1571 9.05207 9.61248L9.05561 9.61602C9.3485 9.90892 9.82337 9.90892 10.1163 9.61602C10.4092 9.32313 10.4092 8.84826 10.1163 8.55536L10.1128 8.55188C10.6573 8.20257 11.305 8 12 8C12.6951 8 13.3429 8.20264 13.8875 8.55207L13.8841 8.55551C13.5912 8.84841 13.5912 9.32328 13.8841 9.61617C14.177 9.90907 14.6518 9.90907 14.9447 9.61617L14.9481 9.61278C15.2974 10.1573 15.5 10.805 15.5 11.5C15.5 12.195 15.2974 12.8427 14.9481 13.3872L14.9447 13.3838C14.6518 13.0909 14.177 13.0909 13.8841 13.3838C13.5912 13.6767 13.5912 14.1516 13.8841 14.4445L13.8875 14.4479ZM9.0347 7.4738C9.86434 6.86175 10.8899 6.5 12 6.5C13.1102 6.5 14.1359 6.86183 14.9656 7.47401L15.2983 7.1413C15.5912 6.84841 16.0661 6.84841 16.3589 7.1413C16.6518 7.43419 16.6518 7.90907 16.3589 8.20196L16.0262 8.5347C16.6382 9.36434 17 10.3899 17 11.5C17 12.6101 16.6382 13.6357 16.0262 14.4653L16.3589 14.798C16.6518 15.0909 16.6518 15.5658 16.3589 15.8587C16.0661 16.1516 15.5912 16.1516 15.2983 15.8587L14.9656 15.526C14.1359 16.1382 13.1102 16.5 12 16.5C10.8899 16.5 9.86434 16.1382 9.0347 15.5262L8.70205 15.8589C8.40916 16.1517 7.93429 16.1517 7.64139 15.8589C7.3485 15.566 7.3485 15.0911 7.64139 14.7982L7.97401 14.4656C7.36183 13.6359 7 12.6102 7 11.5C7 10.3898 7.36183 9.36411 7.97401 8.53442L7.64139 8.20181C7.3485 7.90892 7.3485 7.43404 7.64139 7.14115C7.93429 6.84826 8.40916 6.84826 8.70205 7.14115L9.0347 7.4738Z" fill="currentColor"/>
<circle cx="12" cy="11.5" r="1" fill="#121112"/>
</svg>
