<svg width="64" height="64" viewBox="0 0 64 64" fill="none" xmlns="http://www.w3.org/2000/svg">
<path fill-rule="evenodd" clip-rule="evenodd" d="M19.2 25C18.9347 25 18.6804 25.1054 18.4929 25.2929C18.3053 25.4804 18.2 25.7348 18.2 26V40.1789H15C14.4477 40.1789 14 40.6266 14 41.1789C14 41.7311 14.4477 42.1789 15 42.1789H18.2V46C18.2 46.5523 18.6477 47 19.2 47C19.7522 47 20.2 46.5523 20.2 46V42.1789H29.4001C29.9523 42.1789 30.4001 41.7311 30.4001 41.1789C30.4001 40.6266 29.9523 40.1789 29.4001 40.1789H20.2V37.9629C22.1392 37.9384 24.4892 37.8102 26.4751 37.1854C27.6563 36.8138 28.789 36.2433 29.6328 35.3429C30.4991 34.4186 31 33.2101 31 31.7052C31 30.2016 30.5006 28.9763 29.6513 28.0187C28.8204 27.0818 27.7001 26.4504 26.5182 26.0186C24.17 25.1606 21.3224 25 19.2 25ZM25.8749 35.2776C24.1748 35.8124 22.0851 35.9368 20.2 35.9624V27.0135C22.0582 27.0652 24.1413 27.2794 25.8318 27.8971C26.8249 28.26 27.6171 28.7391 28.155 29.3457C28.6744 29.9314 29 30.6825 29 31.7052C29 32.7266 28.6759 33.4391 28.1735 33.9753C27.6485 34.5355 26.8687 34.965 25.8749 35.2776Z" fill="currentColor"/>
<path d="M21 16C21 15.4477 21.4477 15 22 15H42C42.5523 15 43 15.4477 43 16C43 16.5523 42.5523 17 42 17H22C21.4477 17 21 16.5523 21 16Z" fill="currentColor"/>
<path d="M36 28C35.4477 28 35 28.4477 35 29C35 29.5523 35.4477 30 36 30H48C48.5523 30 49 29.5523 49 29C49 28.4477 48.5523 28 48 28H36Z" fill="currentColor"/>
<path d="M35 37C35 36.4477 35.4477 36 36 36H48C48.5523 36 49 36.4477 49 37C49 37.5523 48.5523 38 48 38H36C35.4477 38 35 37.5523 35 37Z" fill="currentColor"/>
<path d="M36 44C35.4477 44 35 44.4477 35 45C35 45.5523 35.4477 46 36 46H48C48.5523 46 49 45.5523 49 45C49 44.4477 48.5523 44 48 44H36Z" fill="currentColor"/>
<path fill-rule="evenodd" clip-rule="evenodd" d="M11.4961 4.13176C11.1866 3.9549 10.8064 3.95617 10.4981 4.13509C10.1898 4.31401 10 4.64353 10 5V59C10 59.3565 10.1898 59.686 10.4981 59.8649C10.8064 60.0438 11.1866 60.0451 11.4961 59.8682L16.25 57.1518L21.0039 59.8682C21.3113 60.0439 21.6887 60.0439 21.9961 59.8682L26.75 57.1518L31.5039 59.8682C31.8113 60.0439 32.1887 60.0439 32.4961 59.8682L37.25 57.1518L42.0039 59.8682C42.3113 60.0439 42.6887 60.0439 42.9961 59.8682L47.75 57.1518L52.5039 59.8682C52.8134 60.0451 53.1936 60.0438 53.5019 59.8649C53.8102 59.686 54 59.3565 54 59V5C54 4.64353 53.8102 4.31401 53.5019 4.13509C53.1936 3.95617 52.8134 3.9549 52.5039 4.13176L47.75 6.84825L42.9961 4.13176C42.6887 3.95608 42.3113 3.95608 42.0039 4.13176L37.25 6.84825L32.4961 4.13176C32.1887 3.95608 31.8113 3.95608 31.5039 4.13176L26.75 6.84825L21.9961 4.13176C21.6887 3.95608 21.3113 3.95608 21.0039 4.13176L16.25 6.84825L11.4961 4.13176ZM12 57.2768V6.72318L15.7539 8.86824C16.0613 9.04392 16.4387 9.04392 16.7461 8.86824L21.5 6.15175L26.2539 8.86824C26.5613 9.04392 26.9387 9.04392 27.2461 8.86824L32 6.15175L36.7539 8.86824C37.0613 9.04392 37.4387 9.04392 37.7461 8.86824L42.5 6.15175L47.2539 8.86824C47.5613 9.04392 47.9387 9.04392 48.2461 8.86824L52 6.72318V57.2768L48.2461 55.1318C47.9387 54.9561 47.5613 54.9561 47.2539 55.1318L42.5 57.8482L37.7461 55.1318C37.4387 54.9561 37.0613 54.9561 36.7539 55.1318L32 57.8482L27.2461 55.1318C26.9387 54.9561 26.5613 54.9561 26.2539 55.1318L21.5 57.8482L16.7461 55.1318C16.4387 54.9561 16.0613 54.9561 15.7539 55.1318L12 57.2768Z" fill="currentColor"/>
</svg>
