<svg width="64" height="64" viewBox="0 0 64 64" fill="none" xmlns="http://www.w3.org/2000/svg">
<path fill-rule="evenodd" clip-rule="evenodd" d="M6.00003 11.5C6.00003 8.46243 8.46246 6 11.5 6C14.5376 6 17 8.46243 17 11.5C17 14.5376 14.5376 17 11.5 17C8.46246 17 6.00003 14.5376 6.00003 11.5ZM11.5 4C7.35789 4 4.00003 7.35786 4.00003 11.5C4.00003 15.6421 7.35789 19 11.5 19C15.6422 19 19 15.6421 19 11.5C19 7.35786 15.6422 4 11.5 4ZM32.6193 45.4247C19.3892 39.977 9.0413 44.4855 5.63327 47.2739C5.20582 47.6237 4.5758 47.5607 4.22607 47.1332C3.87635 46.7058 3.93935 46.0757 4.36679 45.726C8.29209 42.5144 19.4109 37.823 33.3808 43.5753C34.342 43.9711 35.2465 44.3441 36.0991 44.6958L36.0994 44.696L36.0996 44.696L36.0996 44.696C39.6248 46.15 42.2652 47.2391 44.379 48.0636L39.0651 28.2318L31.7256 26.544L26.1677 31.9675C25.9136 32.2155 25.547 32.3102 25.2046 32.2162C24.8622 32.1222 24.5953 31.8536 24.5034 31.5107C22.3156 23.3456 26.8925 14.9615 34.7986 12.3091L33.7133 8.25882C33.5704 7.72535 33.8869 7.17702 34.4204 7.03407C34.9539 6.89113 35.5022 7.20771 35.6452 7.74118L36.7304 11.7915C44.9032 10.1362 53.0583 15.1084 55.2461 23.2732C55.3362 23.6098 55.2447 23.969 55.0045 24.2214C54.7643 24.4738 54.41 24.583 54.0694 24.5096L45.8955 22.7475L40.9899 27.6881L46.6311 48.7412C46.6474 48.8022 46.6577 48.8634 46.6624 48.9241C47.5577 49.2463 48.3525 49.5098 49.0947 49.7281C52.1538 50.6279 54.2909 50.7508 59.0526 51.0014C59.6041 51.0304 60.0277 51.501 59.9986 52.0526C59.9696 52.6041 59.499 53.0276 58.9475 52.9986C54.2092 52.7492 51.8463 52.6221 48.5304 51.6469C45.6515 50.8001 42.0342 49.3079 35.3736 46.5602L35.3692 46.5583L35.3488 46.5499C34.491 46.196 33.5828 45.8214 32.6193 45.4247ZM36.2601 13.9561C36.2648 13.9549 36.2695 13.9537 36.2742 13.9524C36.2788 13.9512 36.2835 13.9499 36.2881 13.9486C43.1536 12.1167 50.1929 15.7528 52.779 22.1854L45.7821 20.6771C45.4489 20.6053 45.102 20.7082 44.8618 20.9501L39.5569 26.2927L31.642 24.4726C31.3104 24.3963 30.9629 24.4938 30.7194 24.7314L26.0848 29.254C25.153 22.4185 29.4249 15.7948 36.2601 13.9561ZM4.00003 59C4.00003 58.4477 4.44775 58 5.00003 58H59C59.5523 58 60 58.4477 60 59C60 59.5523 59.5523 60 59 60H5.00003C4.44775 60 4.00003 59.5523 4.00003 59Z" fill="currentColor"/>
</svg>
