<svg width="64" height="64" viewBox="0 0 64 64" fill="none" xmlns="http://www.w3.org/2000/svg">
<path fill-rule="evenodd" clip-rule="evenodd" d="M29.7987 4.03408C29.2652 3.89113 28.7169 4.2077 28.5739 4.74117C28.4309 5.27463 28.7475 5.82297 29.281 5.96592L33.8511 7.19057L7.49968 22.4046C7.02139 22.6807 6.85751 23.2923 7.13365 23.7706C7.4098 24.2489 8.02139 24.4128 8.49968 24.1366L34.851 8.92265L33.6265 13.4926C33.4836 14.0261 33.8002 14.5744 34.3336 14.7173C34.8671 14.8603 35.4154 14.5437 35.5584 14.0102L37.4077 7.10834C37.5506 6.57488 37.2341 6.02656 36.7006 5.88361L29.7987 4.03408ZM28.9307 41C28.6655 41 28.4112 41.1053 28.2236 41.2929C28.0361 41.4804 27.9307 41.7347 27.9307 42V49.5211V51.4083H26.9998C26.4476 51.4083 25.9998 51.856 25.9998 52.4083C25.9998 52.9606 26.4476 53.4083 26.9998 53.4083H27.9307V54C27.9307 54.5522 28.3784 55 28.9307 55C29.483 55 29.9307 54.5522 29.9307 54V53.4083H33.9708C34.5231 53.4083 34.9708 52.9606 34.9708 52.4083C34.9708 51.856 34.5231 51.4083 33.9708 51.4083H29.9307V50.5112C31.1437 50.4824 32.5737 50.3728 33.8092 49.9656C34.6201 49.6983 35.4228 49.28 36.0272 48.6044C36.6506 47.9075 36.9998 47.0065 36.9998 45.9121C36.9998 44.8185 36.6518 43.9097 36.0451 43.193C35.4541 42.4949 34.6647 42.0333 33.8537 41.7229C32.2506 41.1092 30.3294 41 28.9307 41ZM33.1832 48.0661C32.2244 48.3821 31.0525 48.4811 29.9307 48.51V43.0227C31.028 43.0749 32.1905 43.2277 33.1387 43.5907C33.7514 43.8252 34.2137 44.1251 34.5186 44.4853C34.8079 44.827 34.9998 45.2733 34.9998 45.9121C34.9998 46.55 34.8091 46.9663 34.5366 47.2709C34.245 47.5969 33.7959 47.8642 33.1832 48.0661ZM31.9998 38C26.477 38 21.9998 42.4771 21.9998 48C21.9998 53.5228 26.477 58 31.9998 58C37.5227 58 41.9998 53.5228 41.9998 48C41.9998 42.4771 37.5227 38 31.9998 38ZM26.9998 37.088C28.522 36.3894 30.2154 36 31.9998 36C33.7843 36 35.4777 36.3894 36.9998 37.088V20.7258L26.9998 26.4582V37.088ZM24.9998 38.2521V25.8787C24.9998 25.5204 25.1916 25.1894 25.5025 25.0112L37.5025 18.1324C37.812 17.955 38.1925 17.9559 38.5012 18.1347C38.8098 18.3135 38.9998 18.6432 38.9998 19V38.2521C40.7398 39.5037 42.1311 41.2098 42.9998 43.1965V17.5C42.9998 17.1443 43.1888 16.8154 43.496 16.6362L55.496 9.63618C55.8053 9.45576 56.1874 9.45448 56.4979 9.63281C56.8084 9.81115 56.9998 10.1419 56.9998 10.5V57C56.9998 57.5522 56.5521 58 55.9998 58H43.9998C43.4476 58 42.9998 57.5522 42.9998 57V52.8034C41.1473 57.0397 36.9193 60 31.9998 60C27.0804 60 22.8524 57.0397 20.9998 52.8034V57C20.9998 57.5522 20.5521 58 19.9998 58H7.99985C7.44756 58 6.99985 57.5522 6.99985 57V35C6.99985 34.6443 7.18876 34.3154 7.49597 34.1362L19.496 27.1362C19.8053 26.9558 20.1874 26.9545 20.4979 27.1328C20.8084 27.3112 20.9998 27.6419 20.9998 28V43.1965C21.8686 41.2098 23.2599 39.5037 24.9998 38.2521ZM8.99985 56V35.5743L18.9998 29.741V56H8.99985ZM44.9998 18.0743V56H54.9998V12.241L44.9998 18.0743Z" fill="currentColor"/>
</svg>
