<svg width="65" height="64" viewBox="0 0 65 64" fill="none" xmlns="http://www.w3.org/2000/svg">
<path fill-rule="evenodd" clip-rule="evenodd" d="M60.6665 56.0597C60.6665 56.3441 60.5454 56.6151 60.3334 56.8048C60.1215 56.9945 59.8388 57.085 59.556 57.0536L50.5604 56.0536C50.054 55.9973 49.6709 55.5692 49.6709 55.0597V51.6212C48.8908 51.1569 47.862 50.5995 46.8179 50.1704C46.183 49.9094 45.5659 49.7058 45.0115 49.5949C44.4461 49.4818 44.0158 49.4796 43.719 49.5539C43.1673 49.6918 42.0647 50.0937 40.5819 50.6574C40.1495 50.8218 39.6891 50.9982 39.2081 51.1825L39.2071 51.1829C38.0761 51.6163 36.8318 52.0931 35.5722 52.5588C33.7752 53.2232 31.9214 53.8748 30.274 54.3612C28.6589 54.8382 27.1337 55.1907 26.0405 55.1907C25.4731 55.1907 24.8364 55.0037 24.2145 54.7556C23.5707 54.4986 22.8463 54.1359 22.0742 53.7022C20.5288 52.8343 18.7203 51.6418 16.8628 50.3267C13.1441 47.6939 9.15657 44.5181 6.54721 42.3252C5.96857 41.8389 5.30756 41.0016 4.94481 40.0523C4.57946 39.0962 4.45217 37.8156 5.34029 36.7349C6.15378 35.7451 7.26172 35.5371 8.19634 35.6525C9.08318 35.7619 9.89797 36.162 10.4262 36.5522L10.4686 36.5805L10.5098 36.5378C10.897 36.1364 11.5661 35.4425 12.7207 35.1538C14.2839 34.7628 15.7782 35.1741 17.1006 35.7529C17.7666 36.0444 18.4223 36.3937 19.0477 36.7359C19.1773 36.8068 19.3051 36.8772 19.4317 36.9468C19.8806 37.1938 20.3132 37.4318 20.7462 37.6523C20.8058 37.642 20.8659 37.6328 20.9265 37.6247C22.2885 37.443 23.7925 37.2245 25.3375 37.0001C27.425 36.6969 29.5875 36.3828 31.5747 36.134C33.3204 35.9155 34.9747 35.7411 36.393 35.6606C37.7876 35.5814 39.0389 35.5868 39.9362 35.7664C42.711 36.3216 46.3883 37.3508 49.6709 38.5907V37.0597C49.6709 36.5074 50.1186 36.0597 50.6709 36.0597H59.6665C60.2188 36.0597 60.6665 36.5074 60.6665 37.0597V56.0597ZM18.553 38.7461C17.938 39.3575 17.5678 40.1739 17.5678 41.1079C17.5678 41.1773 17.5694 41.2477 17.5726 41.3186L12.1654 37.7122C12.4603 37.426 12.7405 37.2104 13.206 37.094C14.1336 36.862 15.1301 37.0736 16.2986 37.5851C16.878 37.8387 17.4678 38.1513 18.0877 38.4905C18.2074 38.556 18.3287 38.6227 18.4511 38.6901L18.553 38.7461ZM49.6707 49.3221V40.7345C46.3319 39.4157 42.4192 38.3028 39.5438 37.7275C38.9146 37.6016 37.8823 37.5792 36.5064 37.6574C35.1543 37.7341 33.5513 37.9021 31.8231 38.1185C29.8306 38.368 27.7284 38.6736 25.6742 38.9723C24.1307 39.1968 22.6134 39.4174 21.1909 39.6071C20.0651 39.7573 19.5678 40.4584 19.5678 41.1079C19.5678 41.5824 19.6884 41.9497 19.8811 42.1811C20.047 42.3803 20.3652 42.5998 21.0585 42.5998H34.1355C34.6877 42.5998 35.1355 43.0476 35.1355 43.5998C35.1355 44.1521 34.6877 44.5998 34.1355 44.5998H28.9478C27.8276 45.7314 26.4431 47.0918 24.1723 47.0918C22.5588 47.0918 21.0704 46.2588 18.6127 44.4164L9.29506 38.2018C9.27966 38.1915 9.26456 38.1808 9.24975 38.1697C8.94687 37.9425 8.44278 37.6981 7.95132 37.6374C7.49416 37.581 7.1487 37.6845 6.88544 38.0048C6.63283 38.3122 6.58438 38.7399 6.81306 39.3384C7.04433 39.9436 7.49255 40.5072 7.83393 40.7941C10.4138 42.9622 14.3567 46.1019 18.0184 48.6944C19.8511 49.9919 21.5953 51.1395 23.0536 51.9584C23.7834 52.3683 24.4237 52.6857 24.9558 52.898C25.51 53.1192 25.8606 53.1907 26.0405 53.1907C26.8153 53.1907 28.0924 52.9201 29.7076 52.4431C31.2905 51.9757 33.0951 51.3423 34.8786 50.6829C36.1272 50.2213 37.3528 49.7516 38.4796 49.3198C38.9637 49.1343 39.4296 48.9558 39.8712 48.7879C41.3074 48.2419 42.5399 47.7871 43.2337 47.6136C43.9332 47.4387 44.6929 47.4916 45.4037 47.6338C46.1256 47.7781 46.8712 48.03 47.5782 48.3205C48.3124 48.6222 49.0303 48.9764 49.6707 49.3221ZM24.1723 45.0918C24.8447 45.0918 25.3836 44.9144 25.8925 44.5998H22.4933C23.2214 44.9793 23.7142 45.0918 24.1723 45.0918ZM51.6709 40.0321V38.0597H58.6665V54.9424L51.6709 54.1647V40.088C51.6714 40.0693 51.6714 40.0507 51.6709 40.0321Z" fill="currentColor"/>
<path fill-rule="evenodd" clip-rule="evenodd" d="M36.3194 14.2929C36.5069 14.1054 36.7613 14 37.0265 14C38.7289 14 41.0365 14.128 42.9497 14.827C43.9141 15.1794 44.8432 15.6997 45.5372 16.4822C46.2496 17.2855 46.6665 18.3132 46.6665 19.5641C46.6665 20.8164 46.2481 21.8328 45.5187 22.6111C44.8118 23.3654 43.8703 23.836 42.9066 24.1391C41.3579 24.6263 39.5445 24.7414 38.0265 24.7674V26.1431H45.1865C45.7388 26.1431 46.1865 26.5908 46.1865 27.1431C46.1865 27.6954 45.7388 28.1431 45.1865 28.1431H38.0265V31C38.0265 31.5523 37.5788 32 37.0265 32C36.4742 32 36.0265 31.5523 36.0265 31V28.1431H33.6665C33.1142 28.1431 32.6665 27.6954 32.6665 27.1431C32.6665 26.5908 33.1142 26.1431 33.6665 26.1431H36.0265V15C36.0265 14.7348 36.1318 14.4804 36.3194 14.2929ZM38.0265 22.7666C39.474 22.7399 41.0337 22.6317 42.3064 22.2313C43.0827 21.9871 43.6712 21.6576 44.0593 21.2435C44.4249 20.8534 44.6665 20.3329 44.6665 19.5641C44.6665 18.7941 44.4234 18.2406 44.0408 17.8092C43.6398 17.3571 43.0389 16.9889 42.2633 16.7055C41.0007 16.2442 39.4489 16.0682 38.0265 16.0173V22.7666Z" fill="currentColor"/>
<path fill-rule="evenodd" clip-rule="evenodd" d="M23.6665 7C19.2482 7 15.6665 10.5817 15.6665 15V25C15.6665 29.4183 19.2482 33 23.6665 33C28.0848 33 31.6665 29.4183 31.6665 25V15C31.6665 10.5817 28.0848 7 23.6665 7ZM17.6665 15C17.6665 11.6863 20.3528 9 23.6665 9C26.9802 9 29.6665 11.6863 29.6665 15V25C29.6665 28.3137 26.9802 31 23.6665 31C20.3528 31 17.6665 28.3137 17.6665 25V15Z" fill="currentColor"/>
</svg>
