<svg width="64" height="64" viewBox="0 0 64 64" fill="none" xmlns="http://www.w3.org/2000/svg">
<path fill-rule="evenodd" clip-rule="evenodd" d="M4 10C4 7.23858 6.23858 5 9 5H33C35.7614 5 38 7.23858 38 10V12.5C38 13.0523 37.5523 13.5 37 13.5C36.4477 13.5 36 13.0523 36 12.5V10C36 8.34315 34.6569 7 33 7H9C7.34315 7 6 8.34315 6 10V54C6 55.6569 7.34315 57 9 57H33C34.6569 57 36 55.6569 36 54V53C36 52.4477 36.4477 52 37 52C37.5523 52 38 52.4477 38 53V54C38 56.7614 35.7614 59 33 59H9C6.23858 59 4 56.7614 4 54V10ZM16 11C16 10.4477 16.4477 10 17 10H21H25C25.5523 10 26 10.4477 26 11C26 11.5523 25.5523 12 25 12H21H17C16.4477 12 16 11.5523 16 11ZM20 51C20 50.4477 20.4477 50 21 50C21.5523 50 22 50.4477 22 51C22 51.5523 21.5523 52 21 52C20.4477 52 20 51.5523 20 51ZM21 48C19.3431 48 18 49.3431 18 51C18 52.6569 19.3431 54 21 54C22.6569 54 24 52.6569 24 51C24 49.3431 22.6569 48 21 48ZM29 43.7858C29 44.338 29.4477 44.7858 30 44.7858H37.0462C37.4669 48.3393 40.7094 51 44.5 51C48.2906 51 51.5331 48.3393 51.9538 44.7858H59C59.5523 44.7858 60 44.338 60 43.7858V39.0081C60 38.5305 59.6622 38.1195 59.1936 38.027C57.9755 37.7866 56.4197 37.0883 55.1338 34.9284C53.8181 32.7183 52.75 28.9172 52.75 22.4033C52.75 20.5295 51.591 18.2485 48.9994 16.9335C48.959 14.6207 46.813 13 44.5 13C42.187 13 40.041 14.6207 40.0006 16.9335C37.409 18.2485 36.25 20.5295 36.25 22.4033C36.25 28.9172 35.1819 32.7183 33.8662 34.9284C32.5803 37.0883 31.0245 37.7866 29.8064 38.027C29.3378 38.1195 29 38.5305 29 39.0081V43.7858ZM46.7495 16.1424C46.3682 15.507 45.5717 15 44.5 15C43.4283 15 42.6318 15.507 42.2505 16.1424C42.6812 16.0472 43.1369 15.9739 43.6183 15.9255C43.731 15.8814 43.8538 15.8572 43.9821 15.8572C44.1576 15.8572 44.3302 15.8602 44.5 15.8662C44.6698 15.8602 44.8424 15.8572 45.0179 15.8572C45.1462 15.8572 45.269 15.8814 45.3818 15.9255C45.8631 15.9739 46.3188 16.0472 46.7495 16.1424ZM44.5 17.8673C39.6777 18.0591 38.25 20.9255 38.25 22.4033C38.25 29.093 37.1604 33.3047 35.5847 35.9514C34.2239 38.2373 32.5299 39.3056 31 39.7844V42.7858H58V39.7844C56.4701 39.3056 54.7761 38.2373 53.4153 35.9514C51.8396 33.3047 50.75 29.093 50.75 22.4033C50.75 20.9255 49.3223 18.0591 44.5 17.8673ZM49.9314 44.7858H39.0686C39.4798 47.123 41.6941 49 44.5 49C47.3059 49 49.5202 47.123 49.9314 44.7858Z" fill="currentColor"/>
</svg>
