<svg width="64" height="64" viewBox="0 0 64 64" fill="none" xmlns="http://www.w3.org/2000/svg">
<path fill-rule="evenodd" clip-rule="evenodd" d="M15 10C15 7.23858 17.2386 5 20 5H44C46.7614 5 49 7.23858 49 10V54C49 56.7614 46.7614 59 44 59H20C17.2386 59 15 56.7614 15 54V10ZM20 7C18.3431 7 17 8.34315 17 10V54C17 55.6569 18.3431 57 20 57H44C45.6569 57 47 55.6569 47 54V10C47 8.34315 45.6569 7 44 7H20ZM27 11C27 10.4477 27.4477 10 28 10H32H36C36.5523 10 37 10.4477 37 11C37 11.5523 36.5523 12 36 12H32H28C27.4477 12 27 11.5523 27 11ZM31 51C31 50.4477 31.4477 50 32 50C32.5523 50 33 50.4477 33 51C33 51.5523 32.5523 52 32 52C31.4477 52 31 51.5523 31 51ZM32 48C30.3431 48 29 49.3431 29 51C29 52.6569 30.3431 54 32 54C33.6569 54 35 52.6569 35 51C35 49.3431 33.6569 48 32 48Z" fill="currentColor"/>
<path fill-rule="evenodd" clip-rule="evenodd" d="M35.1802 18.3104C34.8118 17.8989 34.1764 17.9007 33.7859 18.2912C33.3953 18.6817 33.3979 19.3129 33.7635 19.7269C36.2539 22.5477 37.765 26.2534 37.765 30.312C37.765 34.3707 36.2539 38.0764 33.7635 40.8971C33.3979 41.3111 33.3953 41.9423 33.7859 42.3328C34.1764 42.7234 34.8118 42.7252 35.1802 42.3137C38.0313 39.1289 39.765 34.9229 39.765 30.312C39.765 25.7011 38.0313 21.4951 35.1802 18.3104ZM30.9574 39.5044C31.348 39.8949 31.9841 39.8971 32.346 39.4799C34.476 37.0237 35.765 33.8184 35.765 30.312C35.765 26.8056 34.476 23.6003 32.346 21.1441C31.9841 20.7269 31.348 20.7291 30.9574 21.1196C30.5669 21.5102 30.5705 22.1408 30.9274 22.5623C32.6976 24.6531 33.765 27.3579 33.765 30.312C33.765 33.2661 32.6976 35.9709 30.9274 38.0617C30.5705 38.4832 30.5669 39.1139 30.9574 39.5044ZM28.129 36.676C28.5195 37.0665 29.1571 37.0694 29.507 36.642C30.9183 34.918 31.765 32.7139 31.765 30.312C31.765 27.9102 30.9183 25.7061 29.507 23.982C29.1571 23.5547 28.5195 23.5575 28.129 23.9481C27.7385 24.3386 27.7442 24.9684 28.0833 25.4043C29.1373 26.7594 29.765 28.4624 29.765 30.312C29.765 32.1617 29.1373 33.8647 28.0833 35.2197C27.7442 35.6556 27.7385 36.2855 28.129 36.676ZM25.3006 33.8476C25.6911 34.2381 26.3324 34.2419 26.6531 33.7923C27.3532 32.8108 27.765 31.6095 27.765 30.312C27.765 29.0145 27.3532 27.8132 26.6531 26.8317C26.3324 26.3821 25.6911 26.386 25.3006 26.7765C24.9101 27.167 24.9236 27.7962 25.2058 28.2709C25.5611 28.8685 25.765 29.5664 25.765 30.312C25.765 31.0576 25.5611 31.7556 25.2058 32.3531C24.9236 32.8278 24.9101 33.457 25.3006 33.8476Z" fill="currentColor"/>
</svg>
