<svg width="64" height="64" viewBox="0 0 64 64" fill="none" xmlns="http://www.w3.org/2000/svg">
<path fill-rule="evenodd" clip-rule="evenodd" d="M4 35C4 35.5523 4.44772 36 5 36H16C16.5523 36 17 35.5523 17 35C17 26.1319 23.9458 19 32.4444 19C40.9431 19 47.8889 26.1319 47.8889 35C47.8889 35.5523 48.3366 36 48.8889 36H59C59.5523 36 60 35.5523 60 35C60 19.536 47.464 7 32 7C16.536 7 4 19.536 4 35ZM31 9.01888C24.1183 9.27912 17.9213 12.214 13.4186 16.814L20.3589 22.0193C23.1654 19.235 26.8752 17.4089 31 17.0607L31 9.01888ZM6.01888 34C6.24452 28.0333 8.48079 22.5814 12.0697 18.3023L19.0151 23.5114C16.6987 26.3926 15.2377 30.0288 15.0265 34H6.01888ZM33 17.0089L33 9.01888C40.1659 9.28987 46.5893 12.4609 51.1304 17.3922L44.5811 22.0703C41.5693 19.0579 37.5053 17.154 33 17.0089ZM45.9213 23.5708C48.2101 26.4425 49.6527 30.0561 49.8624 34H57.9811C57.7662 28.3168 55.7271 23.1005 52.4325 18.9199L45.9213 23.5708ZM37.0589 31.3252C36.855 31.4014 36.4393 31.53 35.9965 31.3716C34.7475 30.9247 33.4029 30.6812 32 30.6812C25.384 30.6812 20 36.1137 20 42.8406C20 49.5676 25.384 55 32 55C38.616 55 44 49.5676 44 42.8406C44 39.7526 42.8653 36.937 40.9963 34.7935C40.6078 34.3479 40.1876 33.9315 39.7394 33.5478C39.3598 33.2228 39.2871 32.7702 39.2655 32.556C39.2392 32.296 39.2575 32.0196 39.286 31.7736C39.3402 31.3055 39.4576 30.7485 39.5626 30.25L39.5806 30.1648C39.6262 29.948 39.6688 29.7432 39.7058 29.5527C39.5266 29.683 39.334 29.8278 39.1298 29.9821L39.0568 30.0372C38.6382 30.3538 38.1742 30.7046 37.7641 30.9614C37.5476 31.0969 37.3041 31.2335 37.0589 31.3252ZM40.6086 28.9909C40.6273 28.9852 40.625 28.9878 40.6063 28.9917L40.6086 28.9909ZM40.021 27.0792C40.2423 27.0112 40.7133 26.9048 41.172 27.1733C41.6509 27.4538 41.7725 27.94 41.8102 28.1727C41.8538 28.4418 41.842 28.726 41.8189 28.9684C41.772 29.4603 41.6476 30.0542 41.5377 30.5766L41.53 30.6133C41.416 31.1546 41.3159 31.6302 41.2727 32.0037C41.2627 32.0905 41.2571 32.1606 41.2546 32.2159C41.6967 32.6101 42.114 33.0321 42.5037 33.4791C44.68 35.9751 46 39.2539 46 42.8406C46 50.6491 39.7434 57 32 57C24.2566 57 18 50.6491 18 42.8406C18 35.0321 24.2566 28.6812 32 28.6812C33.5537 28.6812 35.0501 28.9376 36.4489 29.4114C36.5115 29.3802 36.5954 29.3334 36.7027 29.2663C37.0358 29.0577 37.436 28.7552 37.8867 28.4146L37.924 28.3864C38.3637 28.0542 38.8588 27.681 39.2938 27.4209C39.5089 27.2922 39.7614 27.159 40.021 27.0792ZM36.3275 29.4614C36.3278 29.4609 36.3348 29.4585 36.3475 29.4558C36.3336 29.4606 36.3272 29.4619 36.3275 29.4614ZM41.2589 32.3776C41.2585 32.3781 41.2571 32.3717 41.2555 32.357C41.2585 32.3698 41.2592 32.3772 41.2589 32.3776ZM30.08 35C29.8148 35 29.5604 35.1054 29.3729 35.2929C29.1853 35.4804 29.08 35.7348 29.08 36V43.6779V45.6252H27C26.4477 45.6252 26 46.0729 26 46.6252C26 47.1775 26.4477 47.6252 27 47.6252H29.08V50C29.08 50.5523 29.5277 51 30.08 51C30.6323 51 31.08 50.5523 31.08 50V47.6252H37.56C38.1123 47.6252 38.56 47.1775 38.56 46.6252C38.56 46.0729 38.1123 45.6252 37.56 45.6252H31.08V44.6701C32.4555 44.6446 34.0852 44.5394 35.4826 44.1198C36.3685 43.8538 37.2454 43.438 37.9092 42.762C38.5989 42.0595 39 41.1338 39 39.9936C39 38.8552 38.6008 37.9208 37.9282 37.1969C37.2769 36.4958 36.4115 36.0357 35.5243 35.7263C33.7624 35.1118 31.6409 35 30.08 35ZM34.9074 42.2043C33.7712 42.5455 32.3818 42.6433 31.08 42.6692V37.0182C32.3585 37.0664 33.7397 37.222 34.8657 37.6147C35.5735 37.8616 36.1106 38.1789 36.463 38.5582C36.7942 38.9146 37 39.3636 37 39.9936C37 40.6219 36.7961 41.0409 36.482 41.3608C36.1421 41.7071 35.6165 41.9914 34.9074 42.2043Z" fill="currentColor"/>
</svg>
