<svg width="24" height="24" viewBox="0 0 24 24" fill="none" xmlns="http://www.w3.org/2000/svg">
<path fill-rule="evenodd" clip-rule="evenodd" d="M7 3.5H17C17.2761 3.5 17.5 3.72386 17.5 4V20C17.5 20.2761 17.2761 20.5 17 20.5H7C6.72386 20.5 6.5 20.2761 6.5 20V4C6.5 3.72386 6.72386 3.5 7 3.5ZM5 4C5 2.89543 5.89543 2 7 2H17C18.1046 2 19 2.89543 19 4V20C19 21.1046 18.1046 22 17 22H7C5.89543 22 5 21.1046 5 20V4ZM12 19C12.5523 19 13 18.5523 13 18C13 17.4477 12.5523 17 12 17C11.4477 17 11 17.4477 11 18C11 18.5523 11.4477 19 12 19Z" fill="currentColor"/>
</svg>
