<svg width="64" height="64" viewBox="0 0 64 64" fill="none" xmlns="http://www.w3.org/2000/svg">
<path fill-rule="evenodd" clip-rule="evenodd" d="M5 4C4.44772 4 4 4.44772 4 5V22C4 22.5523 4.44772 23 5 23H22C22.5523 23 23 22.5523 23 22V5C23 4.44772 22.5523 4 22 4H5ZM6 21V6H21V21H6ZM5 41C4.44772 41 4 41.4477 4 42V59C4 59.5523 4.44772 60 5 60H22C22.5523 60 23 59.5523 23 59V42C23 41.4477 22.5523 41 22 41H5ZM6 58V43H21V58H6ZM41 5C41 4.44772 41.4477 4 42 4H59C59.5523 4 60 4.44772 60 5V22C60 22.5523 59.5523 23 59 23H42C41.4477 23 41 22.5523 41 22V5ZM43 6V21H58V6H43ZM46 8C45.4477 8 45 8.44772 45 9V18C45 18.5523 45.4477 19 46 19H55C55.5523 19 56 18.5523 56 18V9C56 8.44772 55.5523 8 55 8H46ZM47 17V10H54V17H47ZM8 9C8 8.44772 8.44772 8 9 8H18C18.5523 8 19 8.44772 19 9V18C19 18.5523 18.5523 19 18 19H9C8.44772 19 8 18.5523 8 18V9ZM10 10V17H17V10H10ZM9 45C8.44772 45 8 45.4477 8 46V55C8 55.5523 8.44772 56 9 56H18C18.5523 56 19 55.5523 19 55V46C19 45.4477 18.5523 45 18 45H9ZM10 54V47H17V54H10ZM26 11C26 10.4477 26.4477 10 27 10H32C32.5523 10 33 10.4477 33 11V15H37C37.5523 15 38 15.4477 38 16V21C38 21.5523 37.5523 22 37 22H33V25V28H36V26C36 25.4477 36.4477 25 37 25H46C46.5523 25 47 25.4477 47 26V29H50C50.5523 29 51 29.4477 51 30V32H56C56.5523 32 57 32.4477 57 33V42C57 42.5523 56.5523 43 56 43H51C50.4477 43 50 42.5523 50 42V38H47V45H59C59.5523 45 60 45.4477 60 46V59C60 59.5523 59.5523 60 59 60H46C45.4477 60 45 59.5523 45 59V47H38V52C38 52.5523 37.5523 53 37 53H31C30.4477 53 30 52.5523 30 52V46C30 45.4477 30.4477 45 31 45H36V41C36 40.4477 36.4477 40 37 40H40V37C40 36.4477 40.4477 36 41 36H45V31H42V33C42 33.5523 41.5523 34 41 34H38V37C38 37.5523 37.5523 38 37 38H33V40C33 40.5523 32.5523 41 32 41H27C26.4477 41 26 40.5523 26 40V38H21C20.4477 38 20 37.5523 20 37V33H14V37C14 37.5523 13.5523 38 13 38H8C7.44772 38 7 37.5523 7 37V32C7 31.4477 7.44772 31 8 31H12V26C12 25.4477 12.4477 25 13 25H25C25.5523 25 26 25.4477 26 26V30H31V29V26H28C27.4477 26 27 25.5523 27 25V21C27 20.4477 27.4477 20 28 20H31V17H27C26.4477 17 26 16.5523 26 16V11ZM33 36H36V33C36 32.4477 36.4477 32 37 32H40V30C40 29.4477 40.4477 29 41 29H45V27H38V29C38 29.5523 37.5523 30 37 30H33V31V36ZM47 31V36H51C51.5523 36 52 36.4477 52 37V41H55V34H50C49.4477 34 49 33.5523 49 33V31H47ZM45 38H42V41C42 41.5523 41.5523 42 41 42H38V45H45V38ZM47 47V58H58V47H47ZM31 15V12H28V15H31ZM33 17V20H36V17H33ZM31 22H29V24H31V22ZM25 32C24.4477 32 24 31.5523 24 31V27H14V31H21C21.5523 31 22 31.4477 22 32V36H27C27.5523 36 28 36.4477 28 37V39H31V37V32H25ZM12 33H9V36H12V33ZM32 47H36V51H32V47Z" fill="currentColor"/>
</svg>
