<svg xmlns="http://www.w3.org/2000/svg" width="24" height="24" viewBox="0 0 24 24" fill="none">
    <path fill-rule="evenodd" clip-rule="evenodd" d="M18.5 11C18.5 15.1421 15.1421 18.5 11 18.5C6.85786 18.5 3.5 15.1421 3.5 11C3.5 6.85786 6.85786 3.5 11 3.5C15.1421 3.5 18.5 6.85786 18.5 11ZM16.8444 17.8444C15.2719 19.1884 13.2307 20 11 20C6.02944 20 2 15.9706 2 11C2 6.02944 6.02944 2 11 2C15.9706 2 20 6.02944 20 11C20 13.1998 19.2108 15.2153 17.9 16.7787L21.5303 20.409C21.8232 20.7019 21.8232 21.1768 21.5303 21.4697C21.2374 21.7626 20.7626 21.7626 20.4697 21.4697L16.8444 17.8444Z" fill="currentColor"/>
</svg>