<svg xmlns="http://www.w3.org/2000/svg" width="24" height="24" viewBox="0 0 24 24" fill="none">
    <path fill-rule="evenodd" clip-rule="evenodd" d="M19.5352 11.4746C19.6047 11.5453 19.6573 11.6265 19.6931 11.7129L19.5352 11.4746ZM19.5297 11.4691L13.5303 5.46967C13.2374 5.17678 12.7626 5.17678 12.4697 5.46967C12.1768 5.76256 12.1768 6.23744 12.4697 6.53033L17.1893 11.25L5 11.25C4.58579 11.25 4.25 11.5858 4.25 12C4.25 12.4142 4.58579 12.75 5 12.75L17.1893 12.75L12.4697 17.4697C12.1768 17.7626 12.1768 18.2374 12.4697 18.5303C12.7626 18.8232 13.2374 18.8232 13.5303 18.5303L19.5303 12.5303C19.6022 12.4584 19.6565 12.3755 19.6931 12.2871C19.7298 12.1987 19.75 12.1017 19.75 12C19.75 11.8983 19.7298 11.8013 19.6931 11.7129" fill="currentColor"/>
</svg>