<svg width="24" height="24" viewBox="0 0 24 24" fill="none" xmlns="http://www.w3.org/2000/svg">
<path fill-rule="evenodd" clip-rule="evenodd" d="M7 2.25C6.0335 2.25 5.25 3.0335 5.25 4V6.683L3.06199 8.07222C2.55633 8.39327 2.25 8.95063 2.25 9.54959V19.25C2.25 20.7688 3.48122 22 5 22H19C20.5188 22 21.75 20.7688 21.75 19.25V9.54959C21.75 8.95063 21.4437 8.39327 20.938 8.07222L18.75 6.683V4C18.75 3.0335 17.9665 2.25 17 2.25H7ZM18.75 8.45981V10.0499L19.8755 9.17444L18.75 8.45981ZM17.25 11.2165L17.25 4C17.25 3.86193 17.1381 3.75 17 3.75H7C6.86193 3.75 6.75 3.86193 6.75 4V11.2165L11.8465 15.1805C11.9368 15.2507 12.0632 15.2507 12.1535 15.1805L17.25 11.2165ZM5.25 10.0499V8.45981L4.12446 9.17443L5.25 10.0499ZM3.75 19.25V10.7835L10.9256 16.3645C11.5575 16.856 12.4425 16.856 13.0744 16.3645L20.25 10.7835V19.25C20.25 19.9403 19.6904 20.5 19 20.5H5C4.30964 20.5 3.75 19.9403 3.75 19.25Z" fill="currentColor"/>
<path d="M11 6.5H13" stroke="currentColor" stroke-width="1.5" stroke-linecap="round"/>
<path d="M9 10H15" stroke="currentColor" stroke-width="1.5" stroke-linecap="round"/>
</svg>
