<svg width="64" height="64" viewBox="0 0 64 64" fill="none" xmlns="http://www.w3.org/2000/svg">
<path fill-rule="evenodd" clip-rule="evenodd" d="M18.7071 9.70711C18.3166 10.0976 17.6834 10.0976 17.2929 9.70711L15 7.41421V20.5C15 21.0523 14.5523 21.5 14 21.5C13.4477 21.5 13 21.0523 13 20.5V7.41422L10.7071 9.70711C10.3166 10.0976 9.68342 10.0976 9.29289 9.70711C8.90237 9.31658 8.90237 8.68342 9.29289 8.29289L13.2929 4.29289C13.6834 3.90237 14.3166 3.90237 14.7071 4.29289L18.7071 8.29289C19.0976 8.68342 19.0976 9.31658 18.7071 9.70711ZM32.8573 33.015C32.9479 32.8646 33 32.6884 33 32.5L33 7.41421L35.2929 9.70711C35.6834 10.0976 36.3166 10.0976 36.7071 9.70711C37.0976 9.31658 37.0976 8.68342 36.7071 8.29289L32.7071 4.29289C32.3166 3.90237 31.6834 3.90237 31.2929 4.29289L27.2929 8.29289C26.9024 8.68342 26.9024 9.31658 27.2929 9.70711C27.6834 10.0976 28.3166 10.0976 28.7071 9.70711L31 7.41422L31 32.5C31 32.6884 31.0521 32.8646 31.1427 33.015C28.8981 33.0941 26.8463 33.4815 25.2736 34.0931C24.8176 34.2705 24.3883 34.4719 24 34.6986V32C24 31.933 23.9934 31.8675 23.9808 31.8042C23.9934 31.705 24 31.6036 24 31.5C24 30.6424 23.5491 29.9344 22.9696 29.4015C22.3909 28.8694 21.6087 28.4362 20.7264 28.0931C18.9555 27.4044 16.577 27 14 27C11.423 27 9.04448 27.4044 7.27359 28.0931C6.39133 28.4362 5.60913 28.8694 5.03043 29.4015C4.45088 29.9344 4 30.6424 4 31.5C4 31.6036 4.00658 31.705 4.01917 31.8042C4.00659 31.8675 4 31.933 4 32V37.4396C4 37.5564 4.00821 37.6705 4.02385 37.7819C4.00824 37.8521 4 37.9251 4 38V43.4396C4 43.5564 4.00821 43.6705 4.02385 43.7819C4.00824 43.8521 4 43.9251 4 44V49.4396C4 49.5564 4.00821 49.6705 4.02385 49.7819C4.00824 49.8521 4 49.9251 4 50V55.4396C4 56.2989 4.44431 57.0134 5.02417 57.5558C5.60239 58.0966 6.38482 58.5376 7.26818 58.8871C9.04076 59.5883 11.4212 60 14 60C16.5788 60 18.9592 59.5883 20.7318 58.8871C21.6152 58.5376 22.3976 58.0966 22.9758 57.5558L23 57.533L23.0242 57.5558C23.6024 58.0966 24.3848 58.5376 25.2682 58.8871C27.0408 59.5883 29.4212 60 32 60C34.5788 60 36.9592 59.5883 38.7318 58.8871C39.6152 58.5376 40.3976 58.0966 40.9758 57.5558C40.9839 57.5482 40.992 57.5406 41 57.533C41.008 57.5406 41.0161 57.5482 41.0242 57.5558C41.6024 58.0966 42.3848 58.5376 43.2682 58.8871C45.0408 59.5883 47.4212 60 50 60C52.5788 60 54.9592 59.5883 56.7318 58.8871C57.6152 58.5376 58.3976 58.0966 58.9758 57.5558C59.5557 57.0134 60 56.2989 60 55.4396V50C60 49.9251 59.9918 49.8521 59.9761 49.7819C59.9918 49.6705 60 49.5564 60 49.4396V44C60 43.9251 59.9918 43.8521 59.9761 43.7819C59.9918 43.6705 60 43.5564 60 43.4396V38C60 37.933 59.9934 37.8675 59.9808 37.8042C59.9934 37.705 60 37.6036 60 37.5C60 36.6424 59.5491 35.9344 58.9696 35.4015C58.3909 34.8694 57.6087 34.4362 56.7264 34.0931C54.9555 33.4044 52.577 33 50 33C47.423 33 45.0445 33.4044 43.2736 34.0931C42.3913 34.4362 41.6091 34.8694 41.0304 35.4015L41 35.4298L40.9696 35.4015C40.3909 34.8694 39.6087 34.4362 38.7264 34.0931C37.1537 33.4815 35.1019 33.0941 32.8573 33.015ZM58 52.2745C57.6133 52.5036 57.1859 52.7074 56.7318 52.8871C54.9592 53.5883 52.5788 54 50 54C47.4212 54 45.0408 53.5883 43.2682 52.8871C42.8141 52.7074 42.3867 52.5036 42 52.2745V55.4396C42 55.5634 42.0594 55.7855 42.3904 56.0951C42.723 56.4062 43.2586 56.7324 44.0039 57.0273C45.4887 57.6147 47.6082 58 50 58C52.3918 58 54.5113 57.6147 55.9961 57.0273C56.7414 56.7324 57.277 56.4062 57.6096 56.0951C57.9406 55.7855 58 55.5634 58 55.4396V52.2745ZM40 52.2745C39.6133 52.5036 39.1859 52.7074 38.7318 52.8871C36.9592 53.5883 34.5788 54 32 54C29.4212 54 27.0408 53.5883 25.2682 52.8871C24.8141 52.7074 24.3867 52.5036 24 52.2745V55.4396C24 55.5634 24.0594 55.7855 24.3904 56.0951C24.723 56.4062 25.2586 56.7324 26.0039 57.0273C27.4887 57.6147 29.6082 58 32 58C34.3918 58 36.5113 57.6147 37.9961 57.0273C38.7414 56.7324 39.277 56.4062 39.6096 56.0951C39.9406 55.7855 40 55.5634 40 55.4396V52.2745ZM56.7318 46.8871C57.1859 46.7074 57.6133 46.5036 58 46.2745V49.4396C58 49.5634 57.9406 49.7855 57.6096 50.0951C57.277 50.4062 56.7414 50.7324 55.9961 51.0273C54.5113 51.6147 52.3918 52 50 52C47.6082 52 45.4887 51.6147 44.0039 51.0273C43.2586 50.7324 42.723 50.4062 42.3904 50.0951C42.0594 49.7855 42 49.5634 42 49.4396V46.2745C42.3867 46.5036 42.8141 46.7074 43.2682 46.8871C45.0408 47.5883 47.4212 48 50 48C52.5788 48 54.9592 47.5883 56.7318 46.8871ZM38.7318 46.8871C39.1859 46.7074 39.6133 46.5036 40 46.2745V49.4396C40 49.5634 39.9406 49.7855 39.6096 50.0951C39.277 50.4062 38.7414 50.7324 37.9961 51.0273C36.5113 51.6147 34.3918 52 32 52C29.6082 52 27.4887 51.6147 26.0039 51.0273C25.2586 50.7324 24.723 50.4062 24.3904 50.0951C24.0594 49.7855 24 49.5634 24 49.4396V46.2745C24.3867 46.5036 24.8141 46.7074 25.2682 46.8871C27.0408 47.5883 29.4212 48 32 48C34.5788 48 36.9592 47.5883 38.7318 46.8871ZM58 40.3014C57.6117 40.5281 57.1824 40.7295 56.7264 40.9069C54.9555 41.5956 52.577 42 50 42C47.423 42 45.0445 41.5956 43.2736 40.9069C42.8176 40.7295 42.3883 40.5281 42 40.3014V43.4396C42 43.5634 42.0594 43.7855 42.3904 44.0951C42.723 44.4062 43.2586 44.7324 44.0039 45.0273C45.4887 45.6147 47.6082 46 50 46C52.3918 46 54.5113 45.6147 55.9961 45.0273C56.7414 44.7324 57.277 44.4062 57.6096 44.0951C57.9406 43.7855 58 43.5634 58 43.4396V40.3014ZM40 40.3014C39.6117 40.5281 39.1824 40.7295 38.7264 40.9069C36.9555 41.5956 34.577 42 32 42C29.423 42 27.0445 41.5956 25.2736 40.9069C24.8176 40.7295 24.3883 40.5281 24 40.3014V43.4396C24 43.5634 24.0594 43.7855 24.3904 44.0951C24.723 44.4062 25.2586 44.7324 26.0039 45.0273C27.4887 45.6147 29.6082 46 32 46C34.3918 46 36.5113 45.6147 37.9961 45.0273C38.7414 44.7324 39.277 44.4062 39.6096 44.0951C39.9406 43.7855 40 43.5634 40 43.4396V40.3014ZM39.6159 36.8738C39.9472 37.1784 40 37.3911 40 37.5C40 37.6089 39.9472 37.8216 39.6159 38.1262C39.2838 38.4316 38.7479 38.7526 38.0015 39.0429C36.515 39.6209 34.3935 40 32 40C29.6065 40 27.485 39.6209 25.9985 39.0429C25.2521 38.7526 24.7162 38.4316 24.3841 38.1262C24.0528 37.8216 24 37.6089 24 37.5C24 37.3911 24.0528 37.1784 24.3841 36.8738C24.7162 36.5684 25.2521 36.2474 25.9985 35.9571C27.485 35.3791 29.6065 35 32 35C34.3935 35 36.515 35.3791 38.0015 35.9571C38.7479 36.2474 39.2838 36.5684 39.6159 36.8738ZM42.3841 38.1262C42.0528 37.8216 42 37.6089 42 37.5C42 37.3911 42.0528 37.1784 42.3841 36.8738C42.7162 36.5684 43.2521 36.2474 43.9985 35.9571C45.485 35.3791 47.6065 35 50 35C52.3935 35 54.515 35.3791 56.0015 35.9571C56.7479 36.2474 57.2838 36.5684 57.6159 36.8738C57.9472 37.1784 58 37.3911 58 37.5C58 37.6089 57.9472 37.8216 57.6159 38.1262C57.2838 38.4316 56.7479 38.7526 56.0015 39.0429C54.515 39.6209 52.3935 40 50 40C47.6065 40 45.485 39.6209 43.9985 39.0429C43.2521 38.7526 42.7162 38.4316 42.3841 38.1262ZM22 52.2745C21.6133 52.5036 21.1859 52.7074 20.7318 52.8871C18.9592 53.5883 16.5788 54 14 54C11.4212 54 9.04076 53.5883 7.26818 52.8871C6.8141 52.7074 6.3867 52.5036 6 52.2745V55.4396C6 55.5634 6.05937 55.7855 6.39036 56.0951C6.72298 56.4062 7.25858 56.7324 8.0039 57.0273C9.48868 57.6147 11.6082 58 14 58C16.3918 58 18.5113 57.6147 19.9961 57.0273C20.7414 56.7324 21.277 56.4062 21.6096 56.0951C21.9406 55.7855 22 55.5634 22 55.4396V52.2745ZM6 49.4396V46.2745C6.3867 46.5036 6.8141 46.7074 7.26818 46.8871C9.04076 47.5883 11.4212 48 14 48C16.5788 48 18.9592 47.5883 20.7318 46.8871C21.1859 46.7074 21.6133 46.5036 22 46.2745V49.4396C22 49.5634 21.9406 49.7855 21.6096 50.0951C21.277 50.4062 20.7414 50.7324 19.9961 51.0273C18.5113 51.6147 16.3918 52 14 52C11.6082 52 9.48868 51.6147 8.0039 51.0273C7.25858 50.7324 6.72298 50.4062 6.39036 50.0951C6.05937 49.7855 6 49.5634 6 49.4396ZM22 40.2745C21.6133 40.5036 21.1859 40.7074 20.7318 40.8871C18.9592 41.5883 16.5788 42 14 42C11.4212 42 9.04076 41.5883 7.26818 40.8871C6.8141 40.7074 6.3867 40.5036 6 40.2745V43.4396C6 43.5634 6.05937 43.7855 6.39036 44.0951C6.72298 44.4062 7.25858 44.7324 8.0039 45.0273C9.48868 45.6147 11.6082 46 14 46C16.3918 46 18.5113 45.6147 19.9961 45.0273C20.7414 44.7324 21.277 44.4062 21.6096 44.0951C21.9406 43.7855 22 43.5634 22 43.4396V40.2745ZM49 27.5C49 28.0523 49.4477 28.5 50 28.5C50.5523 28.5 51 28.0523 51 27.5L51 7.41421L53.2929 9.70711C53.6834 10.0976 54.3166 10.0976 54.7071 9.70711C55.0976 9.31658 55.0976 8.68342 54.7071 8.29289L50.7071 4.29289C50.3166 3.90237 49.6834 3.90237 49.2929 4.29289L45.2929 8.29289C44.9024 8.68342 44.9024 9.31658 45.2929 9.70711C45.6834 10.0976 46.3166 10.0976 46.7071 9.70711L49 7.41422L49 27.5ZM22 31.5C22 31.3911 21.9472 31.1784 21.6159 30.8738C21.2838 30.5684 20.7479 30.2474 20.0015 29.9571C18.515 29.3791 16.3935 29 14 29C11.6065 29 9.48496 29.3791 7.99849 29.9571C7.25207 30.2474 6.71625 30.5684 6.3841 30.8738C6.0528 31.1784 6 31.3911 6 31.5C6 31.6089 6.0528 31.8216 6.3841 32.1262C6.71625 32.4316 7.25207 32.7526 7.99849 33.0429C9.48496 33.6209 11.6065 34 14 34C16.3935 34 18.515 33.6209 20.0015 33.0429C20.7479 32.7526 21.2838 32.4316 21.6159 32.1262C21.9472 31.8216 22 31.6089 22 31.5ZM22 34.3014C21.6117 34.5281 21.1824 34.7295 20.7264 34.9069C18.9555 35.5956 16.577 36 14 36C11.423 36 9.04448 35.5956 7.27359 34.9069C6.81756 34.7295 6.38827 34.5281 6 34.3014V37.4396C6 37.5634 6.05937 37.7855 6.39036 38.0951C6.72298 38.4062 7.25858 38.7324 8.0039 39.0273C9.48868 39.6147 11.6082 40 14 40C16.3918 40 18.5113 39.6147 19.9961 39.0273C20.7414 38.7324 21.277 38.4062 21.6096 38.0951C21.9406 37.7855 22 37.5634 22 37.4396V34.3014Z" fill="currentColor"/>
</svg>
