<svg width="64" height="64" viewBox="0 0 64 64" fill="none" xmlns="http://www.w3.org/2000/svg">
<path fill-rule="evenodd" clip-rule="evenodd" d="M58 8.5C58 8.39112 57.9472 8.17839 57.6159 7.87378C57.2838 7.56839 56.748 7.2474 56.0015 6.95713C54.5151 6.37906 52.3935 6 50 6C47.6065 6 45.485 6.37906 43.9985 6.95713C43.2521 7.2474 42.7163 7.56839 42.3841 7.87378C42.0528 8.17839 42 8.39112 42 8.5C42 8.60888 42.0528 8.82161 42.3841 9.12622C42.7163 9.43161 43.2521 9.7526 43.9985 10.0429C45.485 10.6209 47.6065 11 50 11C52.3935 11 54.5151 10.6209 56.0015 10.0429C56.748 9.7526 57.2838 9.43161 57.6159 9.12622C57.9472 8.82161 58 8.60888 58 8.5ZM50 4C52.5771 4 54.9555 4.40444 56.7264 5.09312C57.6087 5.43622 58.3909 5.86943 58.9696 6.4015C59.5491 6.93437 60 7.64238 60 8.5C60 8.60359 59.9934 8.705 59.9809 8.80418C59.9934 8.8675 60 8.93298 60 9V14.4396C60 14.5564 59.9918 14.6705 59.9762 14.7819C59.9918 14.8521 60 14.9251 60 15V20.4396C60 21.2989 59.5557 22.0134 58.9758 22.5558C58.3976 23.0966 57.6152 23.5376 56.7318 23.8871C54.9593 24.5883 52.5788 25 50 25C47.4212 25 45.0408 24.5883 43.2682 23.8871C42.3848 23.5376 41.6024 23.0966 41.0242 22.5558C41.0161 22.5482 41.0081 22.5406 41 22.533C40.992 22.5406 40.9839 22.5482 40.9758 22.5558C40.3976 23.0966 39.6152 23.5376 38.7318 23.8871C36.9593 24.5883 34.5788 25 32 25C29.4212 25 27.0408 24.5883 25.2682 23.8871C24.3848 23.5376 23.6024 23.0966 23.0242 22.5558C22.4443 22.0134 22 21.2989 22 20.4396V15C22 14.933 22.0066 14.8675 22.0192 14.8042C22.0066 14.705 22 14.6036 22 14.5C22 13.6424 22.4509 12.9344 23.0305 12.4015C23.6092 11.8694 24.3913 11.4362 25.2736 11.0931C27.0445 10.4044 29.423 10 32 10C34.5771 10 36.9555 10.4044 38.7264 11.0931C39.1825 11.2705 39.6117 11.4719 40 11.6986V9C40 8.93298 40.0066 8.8675 40.0192 8.80418C40.0066 8.705 40 8.60359 40 8.5C40 7.64238 40.4509 6.93437 41.0305 6.4015C41.6092 5.86943 42.3913 5.43622 43.2736 5.09312C45.0445 4.40444 47.423 4 50 4ZM42 20.4396C42 20.5634 42.0594 20.7855 42.3904 21.0951C42.723 21.4062 43.2586 21.7324 44.0039 22.0273C45.4887 22.6147 47.6082 23 50 23C52.3918 23 54.5113 22.6147 55.9961 22.0273C56.7414 21.7324 57.277 21.4062 57.6097 21.0951C57.9407 20.7855 58 20.5634 58 20.4396V17.2745C57.6133 17.5036 57.1859 17.7074 56.7318 17.8871C54.9593 18.5883 52.5788 19 50 19C47.4212 19 45.0408 18.5883 43.2682 17.8871C42.8141 17.7074 42.3867 17.5036 42 17.2745V20.4396ZM40 17.3014C39.6117 17.5281 39.1825 17.7295 38.7264 17.9069C36.9555 18.5956 34.5771 19 32 19C29.423 19 27.0445 18.5956 25.2736 17.9069C24.8176 17.7295 24.3883 17.5281 24 17.3014V20.4396C24 20.5634 24.0594 20.7855 24.3904 21.0951C24.723 21.4062 25.2586 21.7324 26.0039 22.0273C27.4887 22.6147 29.6082 23 32 23C34.3918 23 36.5113 22.6147 37.9961 22.0273C38.7414 21.7324 39.277 21.4062 39.6097 21.0951C39.9406 20.7855 40 20.5634 40 20.4396V17.3014ZM42 11.3014V14.4396C42 14.5634 42.0594 14.7855 42.3904 15.0951C42.723 15.4062 43.2586 15.7324 44.0039 16.0273C45.4887 16.6147 47.6082 17 50 17C52.3918 17 54.5113 16.6147 55.9961 16.0273C56.7414 15.7324 57.277 15.4062 57.6097 15.0951C57.9407 14.7855 58 14.5634 58 14.4396V11.3014C57.6117 11.5281 57.1825 11.7295 56.7264 11.9069C54.9555 12.5956 52.5771 13 50 13C47.423 13 45.0445 12.5956 43.2736 11.9069C42.8176 11.7295 42.3883 11.5281 42 11.3014ZM40 14.5C40 14.3911 39.9472 14.1784 39.6159 13.8738C39.2838 13.5684 38.748 13.2474 38.0015 12.9571C36.5151 12.3791 34.3935 12 32 12C29.6065 12 27.485 12.3791 25.9985 12.9571C25.2521 13.2474 24.7163 13.5684 24.3841 13.8738C24.0528 14.1784 24 14.3911 24 14.5C24 14.6089 24.0528 14.8216 24.3841 15.1262C24.7163 15.4316 25.2521 15.7526 25.9985 16.0429C27.485 16.6209 29.6065 17 32 17C34.3935 17 36.5151 16.6209 38.0015 16.0429C38.748 15.7526 39.2838 15.4316 39.6159 15.1262C39.9472 14.8216 40 14.6089 40 14.5ZM19.7459 11.334C20.1138 11.746 20.078 12.3781 19.666 12.7459L10.706 20.7459C10.3266 21.0847 9.75339 21.0847 9.37399 20.7459L4.33399 16.2459C3.92202 15.8781 3.88624 15.246 4.25407 14.834C4.6219 14.422 5.25406 14.3862 5.66603 14.7541L10.04 18.6594L18.334 11.2541C18.746 10.8862 19.3781 10.922 19.7459 11.334ZM4.00002 32C4.00002 31.4477 4.44774 31 5.00002 31L59 31C59.5523 31 60 31.4477 60 32C60 32.5523 59.5523 33 59 33L5.00002 33C4.44773 33 4.00002 32.5523 4.00002 32ZM22 43.5C22 43.3911 21.9472 43.1784 21.6159 42.8738C21.2838 42.5684 20.7479 42.2474 20.0015 41.9571C18.5151 41.3791 16.3935 41 14 41C11.6065 41 9.48498 41.3791 7.99851 41.9571C7.25209 42.2474 6.71627 42.5684 6.38412 42.8738C6.05282 43.1784 6.00002 43.3911 6.00002 43.5C6.00002 43.6089 6.05282 43.8216 6.38412 44.1262C6.71627 44.4316 7.25209 44.7526 7.99851 45.0429C9.48498 45.6209 11.6065 46 14 46C16.3935 46 18.5151 45.6209 20.0015 45.0429C20.7479 44.7526 21.2838 44.4316 21.6159 44.1262C21.9472 43.8216 22 43.6089 22 43.5ZM14 39C16.5771 39 18.9555 39.4044 20.7264 40.0931C21.6087 40.4362 22.3909 40.8694 22.9696 41.4015C23.5491 41.9344 24 42.6424 24 43.5C24 43.6036 23.9934 43.705 23.9809 43.8042C23.9934 43.8675 24 43.933 24 44V46.6986C24.3883 46.4719 24.8176 46.2705 25.2736 46.0931C27.0445 45.4044 29.423 45 32 45C34.5771 45 36.9555 45.4044 38.7264 46.0931C39.1825 46.2705 39.6117 46.4719 40 46.6986V44C40 43.933 40.0066 43.8675 40.0192 43.8042C40.0066 43.705 40 43.6036 40 43.5C40 42.6424 40.4509 41.9344 41.0305 41.4015C41.6092 40.8694 42.3913 40.4362 43.2736 40.0931C45.0445 39.4044 47.423 39 50 39C52.5771 39 54.9555 39.4044 56.7264 40.0931C57.6087 40.4362 58.3909 40.8694 58.9696 41.4015C59.5491 41.9344 60 42.6424 60 43.5C60 43.6036 59.9934 43.705 59.9809 43.8042C59.9934 43.8675 60 43.933 60 44V49.4396C60 49.5564 59.9918 49.6705 59.9762 49.7819C59.9918 49.8521 60 49.9251 60 50V55.4396C60 56.2989 59.5557 57.0134 58.9758 57.5558C58.3976 58.0966 57.6152 58.5376 56.7318 58.8871C54.9593 59.5883 52.5788 60 50 60C47.4212 60 45.0408 59.5883 43.2682 58.8871C42.3848 58.5376 41.6024 58.0966 41.0242 57.5558L41 57.533L40.9758 57.5558C40.3976 58.0966 39.6152 58.5376 38.7318 58.8871C36.9593 59.5883 34.5788 60 32 60C29.4212 60 27.0408 59.5883 25.2682 58.8871C24.3848 58.5376 23.6024 58.0966 23.0242 57.5558L23 57.533L22.9758 57.5558C22.3976 58.0966 21.6152 58.5376 20.7318 58.8871C18.9593 59.5883 16.5788 60 14 60C11.4212 60 9.04078 59.5883 7.2682 58.8871C6.38484 58.5376 5.60241 58.0966 5.02419 57.5558C4.44433 57.0134 4.00002 56.2989 4.00002 55.4396V50C4.00002 49.9251 4.00826 49.8521 4.02387 49.7819C4.00823 49.6705 4.00002 49.5564 4.00002 49.4396V44C4.00002 43.933 4.00661 43.8675 4.01919 43.8042C4.0066 43.705 4.00002 43.6036 4.00002 43.5C4.00002 42.6424 4.4509 41.9344 5.03045 41.4015C5.60915 40.8694 6.39135 40.4362 7.27361 40.0931C9.0445 39.4044 11.423 39 14 39ZM56.7318 52.8871C57.1859 52.7074 57.6133 52.5036 58 52.2745V55.4396C58 55.5634 57.9407 55.7855 57.6097 56.0951C57.277 56.4062 56.7414 56.7324 55.9961 57.0273C54.5113 57.6147 52.3918 58 50 58C47.6082 58 45.4887 57.6147 44.0039 57.0273C43.2586 56.7324 42.723 56.4062 42.3904 56.0951C42.0594 55.7855 42 55.5634 42 55.4396V52.2745C42.3867 52.5036 42.8141 52.7074 43.2682 52.8871C45.0408 53.5883 47.4212 54 50 54C52.5788 54 54.9593 53.5883 56.7318 52.8871ZM38.7264 52.9069C39.1825 52.7295 39.6117 52.5281 40 52.3014V55.4396C40 55.5634 39.9406 55.7855 39.6097 56.0951C39.277 56.4062 38.7414 56.7324 37.9961 57.0273C36.5113 57.6147 34.3918 58 32 58C29.6082 58 27.4887 57.6147 26.0039 57.0273C25.2586 56.7324 24.723 56.4062 24.3904 56.0951C24.0594 55.7855 24 55.5634 24 55.4396V52.3014C24.3883 52.5281 24.8176 52.7295 25.2736 52.9069C27.0445 53.5956 29.423 54 32 54C34.5771 54 36.9555 53.5956 38.7264 52.9069ZM42 49.4396V46.3014C42.3883 46.5281 42.8176 46.7295 43.2736 46.9069C45.0445 47.5956 47.423 48 50 48C52.5771 48 54.9555 47.5956 56.7264 46.9069C57.1825 46.7295 57.6117 46.5281 58 46.3014V49.4396C58 49.5634 57.9407 49.7855 57.6097 50.0951C57.277 50.4062 56.7414 50.7324 55.9961 51.0273C54.5113 51.6147 52.3918 52 50 52C47.6082 52 45.4887 51.6147 44.0039 51.0273C43.2586 50.7324 42.723 50.4062 42.3904 50.0951C42.0594 49.7855 42 49.5634 42 49.4396ZM20.7318 52.8871C21.1859 52.7074 21.6133 52.5036 22 52.2745V55.4396C22 55.5634 21.9406 55.7855 21.6097 56.0951C21.277 56.4062 20.7414 56.7324 19.9961 57.0273C18.5113 57.6147 16.3918 58 14 58C11.6082 58 9.4887 57.6147 8.00392 57.0273C7.2586 56.7324 6.723 56.4062 6.39038 56.0951C6.05939 55.7855 6.00002 55.5634 6.00002 55.4396V52.2745C6.38672 52.5036 6.81412 52.7074 7.2682 52.8871C9.04078 53.5883 11.4212 54 14 54C16.5788 54 18.9593 53.5883 20.7318 52.8871ZM20.7264 46.9069C21.1825 46.7295 21.6117 46.5281 22 46.3014V49.4396C22 49.5634 21.9406 49.7855 21.6097 50.0951C21.277 50.4062 20.7414 50.7324 19.9961 51.0273C18.5113 51.6147 16.3918 52 14 52C11.6082 52 9.4887 51.6147 8.00392 51.0273C7.2586 50.7324 6.723 50.4062 6.39038 50.0951C6.05939 49.7855 6.00002 49.5634 6.00002 49.4396V46.3014C6.38829 46.5281 6.81758 46.7295 7.27361 46.9069C9.0445 47.5956 11.423 48 14 48C16.5771 48 18.9555 47.5956 20.7264 46.9069ZM39.6159 48.8738C39.9472 49.1784 40 49.3911 40 49.5C40 49.6089 39.9472 49.8216 39.6159 50.1262C39.2838 50.4316 38.748 50.7526 38.0015 51.0429C36.5151 51.6209 34.3935 52 32 52C29.6065 52 27.485 51.6209 25.9985 51.0429C25.2521 50.7526 24.7163 50.4316 24.3841 50.1262C24.0528 49.8216 24 49.6089 24 49.5C24 49.3911 24.0528 49.1784 24.3841 48.8738C24.7163 48.5684 25.2521 48.2474 25.9985 47.9571C27.485 47.3791 29.6065 47 32 47C34.3935 47 36.5151 47.3791 38.0015 47.9571C38.748 48.2474 39.2838 48.5684 39.6159 48.8738ZM57.6159 42.8738C57.9472 43.1784 58 43.3911 58 43.5C58 43.6089 57.9472 43.8216 57.6159 44.1262C57.2838 44.4316 56.748 44.7526 56.0015 45.0429C54.5151 45.6209 52.3935 46 50 46C47.6065 46 45.485 45.6209 43.9985 45.0429C43.2521 44.7526 42.7163 44.4316 42.3841 44.1262C42.0528 43.8216 42 43.6089 42 43.5C42 43.3911 42.0528 43.1784 42.3841 42.8738C42.7163 42.5684 43.2521 42.2474 43.9985 41.9571C45.485 41.3791 47.6065 41 50 41C52.3935 41 54.5151 41.3791 56.0015 41.9571C56.748 42.2474 57.2838 42.5684 57.6159 42.8738Z" fill="currentColor"/>
</svg>
