<svg width="64" height="64" viewBox="0 0 64 64" fill="none" xmlns="http://www.w3.org/2000/svg">
<path fill-rule="evenodd" clip-rule="evenodd" d="M9 5C9 4.44772 9.44772 4 10 4H24H40H54C54.5523 4 55 4.44772 55 5V59C55 59.5523 54.5523 60 54 60H10C9.44772 60 9 59.5523 9 59V5ZM39 6H25V8H39V6ZM23 6V9C23 9.55228 23.4477 10 24 10H40C40.5523 10 41 9.55228 41 9V6H53V58H11V6H23ZM39 19C38.4477 19 38 19.4477 38 20C38 20.5523 38.4477 21 39 21H49C49.5523 21 50 20.5523 50 20C50 19.4477 49.5523 19 49 19H39ZM38 24C38 23.4477 38.4477 23 39 23H49C49.5523 23 50 23.4477 50 24C50 24.5523 49.5523 25 49 25H39C38.4477 25 38 24.5523 38 24ZM38 28C38 27.4477 38.4477 27 39 27H45C45.5523 27 46 27.4477 46 28C46 28.5523 45.5523 29 45 29H39C38.4477 29 38 28.5523 38 28ZM23 15.0549C18.5 15.5524 15 19.3674 15 24C15 28.9706 19.0294 33 24 33C28.6326 33 32.4476 29.5 32.9451 25H24C23.4477 25 23 24.5523 23 24V15.0549ZM25 15.0549V23H32.9451C32.4839 18.8284 29.1716 15.5161 25 15.0549ZM13 24C13 17.9249 17.9249 13 24 13C30.0751 13 35 17.9249 35 24C35 30.0751 30.0751 35 24 35C17.9249 35 13 30.0751 13 24ZM50.8187 34.5742C51.1358 34.122 51.0263 33.4984 50.5742 33.1813C50.122 32.8642 49.4984 32.9737 49.1813 33.4258L38.6287 48.473L33.1908 43.277C32.9979 43.0926 32.7393 42.993 32.4725 43.0004C32.2057 43.0077 31.953 43.1214 31.7705 43.3161L24.8742 50.672L20.0882 47.1913C19.7375 46.9362 19.2625 46.9362 18.9118 47.1913L13.4118 51.1913C12.9652 51.5161 12.8664 52.1415 13.1913 52.5882C13.5161 53.0348 14.1415 53.1336 14.5882 52.8087L19.5 49.2365L24.4118 52.8087C24.8197 53.1054 25.3846 53.0519 25.7295 52.6839L32.5391 45.4205L38.0884 50.723C38.2991 50.9244 38.5872 51.0238 38.8773 50.9952C39.1674 50.9666 39.4306 50.8128 39.5979 50.5742L50.8187 34.5742Z" fill="currentColor"/>
</svg>
