<svg width="24" height="24" viewBox="0 0 24 24" fill="none" xmlns="http://www.w3.org/2000/svg">
<path fill-rule="evenodd" clip-rule="evenodd" d="M13.0606 8.93934C12.4748 8.35355 11.5251 8.35355 10.9393 8.93934L9.37865 10.5H3.81985L6.96985 3.5H17.0301L20.1801 10.5H14.6213L13.0606 8.93934ZM5.74997 12H9.99997L10.9393 11.0607L12 10L13.0606 11.0607L14 12H18.25V20.5H15.25V14.25C15.25 13.8358 14.9142 13.5 14.5 13.5H9.49997C9.08575 13.5 8.74997 13.8358 8.74997 14.25V20.5H5.74997V12ZM4.24997 12H3.04655C2.3209 12 1.83685 11.2514 2.13463 10.5896L5.73463 2.58964C5.89611 2.23078 6.25304 2 6.64655 2H17.3534C17.7469 2 18.1038 2.23078 18.2653 2.58964L21.8653 10.5896C22.1631 11.2514 21.679 12 20.9534 12H19.75V21.25C19.75 21.6642 19.4142 22 19 22H14.5C14.0858 22 13.75 21.6642 13.75 21.25V15H10.25V21.25C10.25 21.6642 9.91418 22 9.49997 22H4.99997C4.58575 22 4.24997 21.6642 4.24997 21.25V12Z" fill="currentColor"/>
</svg>
