<svg width="24" height="24" viewBox="0 0 24 24" fill="none" xmlns="http://www.w3.org/2000/svg">
<path fill-rule="evenodd" clip-rule="evenodd" d="M8 3.75C7.86193 3.75 7.75 3.86193 7.75 4V10.7991C7.91079 11.1668 8 11.573 8 12V12.25H17.25V6.04622C17.25 5.97352 17.2184 5.90442 17.1633 5.85693L14.7916 3.81071C14.7462 3.77155 14.6882 3.75 14.6282 3.75H8ZM6.25 4V9.27202C5.86947 9.09737 5.44611 9 5 9C3.34315 9 2 10.3431 2 12V19C2 20.6569 3.34315 22 5 22C6.39788 22 7.57245 21.0439 7.90549 19.75H19C20.5188 19.75 21.75 18.5188 21.75 17V15C21.75 13.4812 20.5188 12.25 19 12.25H18.75V6.04622C18.75 5.53732 18.5285 5.05363 18.1432 4.7212L15.7714 2.67498C15.4536 2.40082 15.0479 2.25 14.6282 2.25H8C7.0335 2.25 6.25 3.0335 6.25 4ZM19 18.25H8V13.75H19C19.6904 13.75 20.25 14.3096 20.25 15V17C20.25 17.6904 19.6904 18.25 19 18.25ZM10.5 6.25C10.0858 6.25 9.75 6.58579 9.75 7C9.75 7.41421 10.0858 7.75 10.5 7.75H12C12.4142 7.75 12.75 7.41421 12.75 7C12.75 6.58579 12.4142 6.25 12 6.25H10.5ZM6.5 19V12C6.5 11.1716 5.82843 10.5 5 10.5C4.17157 10.5 3.5 11.1716 3.5 12V19C3.5 19.8284 4.17157 20.5 5 20.5C5.82843 20.5 6.5 19.8284 6.5 19ZM10.5 9.25C10.0858 9.25 9.75 9.58579 9.75 10C9.75 10.4142 10.0858 10.75 10.5 10.75H14.5C14.9142 10.75 15.25 10.4142 15.25 10C15.25 9.58579 14.9142 9.25 14.5 9.25H10.5Z" fill="currentColor"/>
</svg>
