<svg width="24" height="24" viewBox="0 0 24 24" fill="none" xmlns="http://www.w3.org/2000/svg">
<path fill-rule="evenodd" clip-rule="evenodd" d="M3 3.25C2.58579 3.25 2.25 3.58579 2.25 4C2.25 4.41421 2.58579 4.75 3 4.75H16C16.6904 4.75 17.25 5.30964 17.25 6V11.1893L15.5303 9.46967C15.2374 9.17678 14.7626 9.17678 14.4697 9.46967C14.1768 9.76257 14.1768 10.2374 14.4697 10.5303L17.4697 13.5303C17.6103 13.671 17.8011 13.75 18 13.75C18.1989 13.75 18.3897 13.671 18.5303 13.5303L21.5303 10.5303C21.8232 10.2374 21.8232 9.76256 21.5303 9.46967C21.2374 9.17678 20.7626 9.17678 20.4697 9.46967L18.75 11.1893V6C18.75 4.48122 17.5188 3.25 16 3.25H3ZM8 19.25H21C21.4142 19.25 21.75 19.5858 21.75 20C21.75 20.4142 21.4142 20.75 21 20.75H8C6.48122 20.75 5.25 19.5188 5.25 18L5.25 12.8107L3.53033 14.5303C3.23744 14.8232 2.76256 14.8232 2.46967 14.5303C2.17678 14.2374 2.17678 13.7626 2.46967 13.4697L5.46967 10.4697C5.61032 10.329 5.80109 10.25 6 10.25C6.19891 10.25 6.38968 10.329 6.53033 10.4697L9.53033 13.4697C9.82322 13.7626 9.82322 14.2374 9.53033 14.5303C9.23744 14.8232 8.76256 14.8232 8.46967 14.5303L6.75 12.8107L6.75 18C6.75 18.6904 7.30964 19.25 8 19.25Z" fill="currentColor"/>
</svg>
