<svg width="64" height="64" viewBox="0 0 64 64" fill="none" xmlns="http://www.w3.org/2000/svg">
<path fill-rule="evenodd" clip-rule="evenodd" d="M12.7594 12.7348C21.7067 3.75505 36.3407 3.75505 45.288 12.7348L45.2928 12.7397C48.5565 15.9709 50.6295 19.9778 51.5111 24.2042C51.6238 24.7448 52.1535 25.0917 52.6942 24.9789C53.2348 24.8662 53.5817 24.3364 53.4689 23.7958C52.5108 19.2028 50.2556 14.8397 46.7024 11.3208C36.9748 1.56053 21.076 1.55973 11.3474 11.3184C1.47754 20.9652 1.62605 36.925 11.3426 46.6768C21.0716 56.4411 36.9758 56.4411 46.7048 46.6768C47.6749 45.7032 48.5486 44.6675 49.3256 43.5821C49.6472 43.1331 49.5438 42.5084 49.0947 42.1869C48.6457 41.8654 48.021 41.9688 47.6995 42.4179C46.985 43.4158 46.1812 44.3687 45.288 45.2652C36.3407 54.2449 21.7067 54.2449 12.7594 45.2652C3.80129 36.2745 3.69587 21.5888 12.7498 12.7444L12.7499 12.7444L12.7594 12.7348ZM25.6073 18.4689C23.6244 16.5104 20.4752 16.5104 18.4923 18.4689C16.5026 20.4341 16.5026 23.5659 18.4923 25.5311C20.4752 27.4896 23.6244 27.4896 25.6073 25.5311C25.6176 25.521 25.6277 25.5105 25.6375 25.4999C27.4542 23.5425 27.4542 20.4575 25.6375 18.5001C25.6277 18.4894 25.6176 18.479 25.6073 18.4689ZM19.8977 19.8918C21.0964 18.7078 22.9817 18.7028 24.1863 19.8765C25.2712 21.0623 25.2712 22.9377 24.1863 24.1235C22.9817 25.2972 21.0964 25.2922 19.8977 24.1082C18.7008 22.9259 18.7008 21.0741 19.8977 19.8918ZM32.3927 32.4689C34.3904 30.4957 37.3869 30.5342 39.4787 32.4414L39.4905 32.4523L39.5077 32.4689C41.4974 34.4341 41.4974 37.5659 39.5077 39.5311C37.5248 41.4896 34.3756 41.4896 32.3927 39.5311C32.3824 39.521 32.3723 39.5106 32.3625 39.4999C30.5459 37.5425 30.5459 34.4575 32.3625 32.5001C32.3723 32.4895 32.3824 32.479 32.3927 32.4689ZM33.8138 33.8765C32.7288 35.0622 32.7288 36.9377 33.8137 38.1235C35.0183 39.2972 36.9036 39.2922 38.1023 38.1082C39.2946 36.9306 39.2992 35.0885 38.1162 33.9057C36.7637 32.6846 34.9984 32.7213 33.8138 33.8765ZM40.7071 18.7071C41.0976 18.3166 41.0976 17.6834 40.7071 17.2929C40.3166 16.9024 39.6834 16.9024 39.2929 17.2929L17.2929 39.2929C16.9024 39.6834 16.9024 40.3166 17.2929 40.7071C17.6834 41.0976 18.3166 41.0976 18.7071 40.7071L40.7071 18.7071ZM53 28C53.5523 28 54 28.4477 54 29V56.5858L57.2929 53.2929C57.6834 52.9024 58.3166 52.9024 58.7071 53.2929C59.0976 53.6834 59.0976 54.3166 58.7071 54.7071L53.7071 59.7071C53.6108 59.8034 53.4998 59.8759 53.3813 59.9247C53.2789 59.967 53.1678 59.9928 53.0515 59.9987C53.0344 59.9996 53.0173 60 53 60C52.8644 60 52.7351 59.973 52.6172 59.9241C52.4993 59.8753 52.3888 59.803 52.2929 59.7071L47.2929 54.7071C46.9024 54.3166 46.9024 53.6834 47.2929 53.2929C47.6834 52.9024 48.3166 52.9024 48.7071 53.2929L52 56.5858V29C52 28.4477 52.4477 28 53 28Z" fill="currentColor"/>
</svg>
