<svg width="64" height="64" viewBox="0 0 64 64" fill="none" xmlns="http://www.w3.org/2000/svg">
<path fill-rule="evenodd" clip-rule="evenodd" d="M5 4C4.44772 4 4 4.44772 4 5V23C4 23.5523 4.44772 24 5 24H26V40H5C4.44772 40 4 40.4477 4 41V59C4 59.5523 4.44772 60 5 60H37C37.5523 60 38 59.5523 38 59V42H59C59.5523 42 60 41.5523 60 41V23C60 22.4477 59.5523 22 59 22H38V5C38 4.44772 37.5523 4 37 4H5ZM36 22H27H6V6H36V22ZM28 40V24H37H58V40H37H28ZM6 42H27H36V58H6V42ZM18.52 7C18.2548 7 18.0004 7.10536 17.8129 7.29289C17.6253 7.48043 17.52 7.73478 17.52 8V14.581V16.1073H16C15.4477 16.1073 15 16.555 15 17.1073C15 17.6596 15.4477 18.1073 16 18.1073H17.52V20C17.52 20.5523 17.9677 21 18.52 21C19.0723 21 19.52 20.5523 19.52 20V18.1073H24.64C25.1923 18.1073 25.64 17.6596 25.64 17.1073C25.64 16.555 25.1923 16.1073 24.64 16.1073H19.52V15.5704C20.6154 15.5423 21.8946 15.4422 23.0051 15.0928C23.7513 14.8581 24.5015 14.4875 25.0715 13.8793C25.6641 13.247 26 12.4227 26 11.4231C26 10.4248 25.6656 9.59478 25.09 8.94579C24.5329 8.31759 23.7951 7.90835 23.0482 7.63545C21.57 7.09536 19.8024 7 18.52 7ZM22.4049 13.185C21.5557 13.4521 20.5208 13.5411 19.52 13.5691V9.02396C20.4982 9.07313 21.5234 9.20764 22.3618 9.51398C22.9199 9.7179 23.3296 9.97496 23.5937 10.2728C23.8394 10.5499 24 10.9057 24 11.4231C24 11.9393 23.8409 12.2676 23.6122 12.5117C23.361 12.7798 22.9637 13.0092 22.4049 13.185ZM21.25 43C21.8023 43 22.25 43.4477 22.25 44V44.7056C23.1544 44.9081 23.8224 45.386 24.2733 45.9969C24.8388 46.763 25 47.6496 25 48.242C25 48.7943 24.5523 49.242 24 49.242C23.4477 49.242 23 48.7943 23 48.242C23 47.9538 22.9112 47.5193 22.6642 47.1846C22.4551 46.9014 22.0725 46.6 21.25 46.6C20.2968 46.6 19.8437 46.8514 19.6219 47.0787C19.3945 47.3116 19.25 47.683 19.25 48.242C19.25 48.3583 19.2771 48.3996 19.2956 48.4242C19.3267 48.4654 19.4036 48.5395 19.5867 48.6287C19.9645 48.813 20.4873 48.9273 21.1904 49.0811L21.3393 49.1137C22.0317 49.2656 22.9143 49.4658 23.6169 49.8882C23.9866 50.1105 24.3429 50.4139 24.6038 50.8363C24.8686 51.2651 25 51.7603 25 52.3067C25 53.3878 24.4755 54.2132 23.7145 54.7275C23.2751 55.0243 22.7695 55.212 22.25 55.3115V56C22.25 56.5523 21.8023 57 21.25 57C20.6977 57 20.25 56.5523 20.25 56V55.2979C19.6172 55.1737 18.9975 54.9347 18.4678 54.5717C17.641 54.0052 17 53.1017 17 51.9003C17 51.348 17.4477 50.9003 18 50.9003C18.5523 50.9003 19 51.348 19 51.9003C19 52.3078 19.1947 52.6454 19.5983 52.9219C20.0231 53.213 20.6342 53.3929 21.2611 53.3998C21.8244 53.406 22.2962 53.272 22.5947 53.0703C22.8556 52.894 23 52.6651 23 52.3067C23 52.0911 22.9517 51.9675 22.9021 51.8872C22.8485 51.8004 22.7556 51.7041 22.5863 51.6022C22.2107 51.3765 21.6558 51.2306 20.9107 51.0672C20.8461 51.053 20.7795 51.0386 20.7113 51.0239C20.0837 50.8883 19.3181 50.7228 18.7102 50.4265C18.3542 50.2529 17.9819 50.004 17.6985 49.628C17.4026 49.2353 17.25 48.7653 17.25 48.242C17.25 47.359 17.4805 46.4094 18.1906 45.6818C18.7118 45.1478 19.4088 44.8178 20.25 44.6779V44C20.25 43.4477 20.6977 43 21.25 43ZM38 32C38 31.6575 38.0344 31.3231 38.1 31H43C43.5523 31 44 30.5523 44 30C44 29.4477 43.5523 29 43 29H38.9996C39.9118 27.7856 41.3642 27 43 27C44.4932 27 45.8326 27.6533 46.7503 28.693C47.1157 29.1071 47.7477 29.1465 48.1617 28.781C48.5758 28.4155 48.6152 27.7836 48.2497 27.3695C46.9686 25.918 45.0909 25 43 25C40.2076 25 37.7971 26.6351 36.6736 29H35C34.4477 29 34 29.4477 34 30C34 30.5523 34.4477 31 35 31H36.0709C36.0242 31.3266 36 31.6605 36 32C36 32.3395 36.0242 32.6734 36.0709 33H35C34.4477 33 34 33.4477 34 34C34 34.5523 34.4477 35 35 35H36.6736C37.7971 37.3649 40.2076 39 43 39C45.0909 39 46.9686 38.082 48.2497 36.6305C48.6152 36.2164 48.5758 35.5845 48.1617 35.219C47.7477 34.8535 47.1157 34.8929 46.7503 35.307C45.8326 36.3467 44.4932 37 43 37C41.3642 37 39.9118 36.2144 38.9996 35H43C43.5523 35 44 34.5523 44 34C44 33.4477 43.5523 33 43 33H38.1C38.0344 32.6769 38 32.3425 38 32Z" fill="currentColor"/>
</svg>
