<svg width="64" height="64" viewBox="0 0 64 64" fill="none" xmlns="http://www.w3.org/2000/svg">
<path fill-rule="evenodd" clip-rule="evenodd" d="M20 15.6657C20 9.08946 25.0556 4 31.6657 4C37.9311 4 43 9.07634 43 15.6657C43 21.9124 37.9124 27 31.6657 27C25.1084 27 20 21.9329 20 15.6657ZM31.6657 6C26.1639 6 22 10.1903 22 15.6657C22 20.7873 26.1714 25 31.6657 25C36.8078 25 41 20.8078 41 15.6657C41 10.1432 36.7891 6 31.6657 6ZM12.0429 33.2929C15.5466 29.7892 20.8459 28 28 28C28.3344 28 28.6466 28.1671 28.8321 28.4453L32 33.1972L35.1679 28.4453C35.3534 28.1671 35.6656 28 36 28C43.1541 28 48.4534 29.7892 51.9571 33.2929C55.4608 36.7966 57 41.8459 57 48V55.8421C57 58.1384 55.1384 60 52.8421 60H49.1124H32H14.8875H11.1579C8.86155 60 7 58.1384 7 55.8421V48C7 41.8459 8.53921 36.7966 12.0429 33.2929ZM32 58H49.1124H52.8421C54.0339 58 55 57.0339 55 55.8421V48C55 42.1541 53.5392 37.7034 50.5429 34.7071C47.625 31.7892 43.0906 30.0904 36.5328 30.0035L33.1033 35.1478L36.9487 46.6838C37.0685 47.0431 36.9749 47.4393 36.7071 47.7071L32.7071 51.7071C32.3166 52.0976 31.6834 52.0976 31.2929 51.7071L27.2929 47.7071C27.0251 47.4393 26.9315 47.0431 27.0513 46.6838L30.8967 35.1478L27.4672 30.0035C20.9094 30.0904 16.375 31.7892 13.4571 34.7071C10.4608 37.7034 9 42.1541 9 48V55.8421C9 57.0339 9.96612 58 11.1579 58H14.8875H32ZM32 49.5858L34.8559 46.7299L32 38.1623L29.1441 46.7299L32 49.5858Z" fill="currentColor"/>
</svg>
