<svg width="24" height="24" viewBox="0 0 24 24" fill="none" xmlns="http://www.w3.org/2000/svg">
<path fill-rule="evenodd" clip-rule="evenodd" d="M12 23C18.0751 23 23 18.0751 23 12C23 5.92487 18.0751 1 12 1C5.92487 1 1 5.92487 1 12C1 18.0751 5.92487 23 12 23ZM17.4647 7.50121L15.5972 16.836C15.4562 17.4947 15.0889 17.6587 14.5669 17.3486L11.7212 15.126L10.3484 16.5259C10.1963 16.687 10.0694 16.8215 9.77639 16.8215L9.97759 13.8018L12.1879 11.672C12.3625 11.5037 12.3754 11.2172 12.2166 11.0321C12.0578 10.8469 11.7875 10.8333 11.6128 11.0016L8.70483 13.2433L5.57198 11.9992C4.96156 11.7973 4.95051 11.3523 5.69928 11.0416L16.6775 6.55859C17.1858 6.35667 17.6305 6.67806 17.4647 7.50121Z" fill="#8D6C9B"/>
</svg>
