<svg xmlns="http://www.w3.org/2000/svg" width="116" height="30" viewBox="0 0 116 30" fill="none">
    <path d="M23.3056 29H8.36729C4.76031 29 1.83643 26.076 1.83643 22.4691V7.53087C1.83643 3.92388 4.76048 1 8.36729 1H23.3056C26.9125 1 29.8364 3.92405 29.8364 7.53087V22.4691C29.8364 26.076 26.9124 29 23.3056 29Z" fill="#CC2222"/>
    <path opacity="0.8" d="M21.8547 9.04747C23.1818 9.04762 24.5091 9.04778 25.8364 9.04794V17.6951C25.8364 17.6951 25.7461 19.1956 25.0848 20.0897C24.9058 20.3317 24.6927 20.5466 24.6461 20.5928L24.6377 20.6012L24.6369 20.6019C24.5536 20.6831 24.2975 20.9254 23.9155 21.1659C23.4543 21.4562 22.9756 21.639 22.4809 21.7695C22.2059 21.8418 21.5568 21.9954 19.6279 21.9999C18.9556 22.0013 18.4656 21.9839 18.1033 21.9581C18.1022 21.7172 18.1004 21.325 18.0986 20.9255L18.0981 20.8015C18.0963 20.4021 18.0946 20.0104 18.0936 19.7707C18.0927 19.5692 18.0912 19.2069 18.0898 18.8369L18.0894 18.7258C18.0879 18.3558 18.0866 17.9935 18.0859 17.7919C18.0936 17.6701 18.091 17.45 17.9886 17.2035C17.9689 17.1565 17.8891 16.9716 17.7096 16.7832C17.5124 16.5756 17.3033 16.4801 17.0798 16.3763C16.9474 16.3149 16.7903 16.2542 16.5562 16.1915C16.2713 16.115 15.8363 16.0258 15.2671 16.0104C15.5261 15.9618 16.7097 15.7118 17.4563 14.6278C17.8282 14.0878 17.9561 13.5379 17.9934 13.1024C17.9948 14.385 17.9962 15.6675 17.9977 16.9499C18.0017 17.1076 18.0362 17.7677 18.558 18.2755C18.8903 18.5985 19.2738 18.7185 19.392 18.7512C19.6395 18.8197 19.8373 18.8243 19.9059 18.8245L19.9416 18.8245C20.9982 18.8245 21.8547 17.9852 21.8547 16.95V9.04747ZM14.8364 9C15.2403 9.00768 15.6486 9.01285 16.0617 9.0152C16.7156 9.01896 17.358 9.01567 17.9887 9.00627C17.99 10.1436 17.9913 11.2807 17.9926 12.418C17.9694 12.0831 17.8613 10.9856 16.9452 10.0627C16.1413 9.25331 15.189 9.05483 14.8364 9Z" fill="white"/>
    <path d="M13.6332 9V17.8477C13.6365 18.1471 13.6714 18.6659 13.877 19.2446C13.8557 19.1995 13.83 19.1516 13.7989 19.1026C13.7606 19.0422 13.6893 18.9406 13.5502 18.812C13.2658 18.5493 12.9558 18.4125 12.8741 18.3773L12.8619 18.3722L12.8376 18.362C12.5817 18.2568 12.3086 18.1934 11.6707 18.1299C11.3041 18.0933 10.8259 18.0575 10.2602 18.0471C10.2709 19.3649 10.2818 20.6824 10.2926 22L6.83643 21.9951V9H13.6332ZM14.2984 9C14.3579 9.00126 14.4176 9.00236 14.4774 9.00345C14.8399 9.05826 15.8192 9.25737 16.6456 10.0687C17.5445 10.9514 17.6868 11.9936 17.7187 12.3788V13.1646C17.675 13.593 17.5395 14.1234 17.1713 14.6446C16.4036 15.7312 15.1867 15.9818 14.9203 16.0305C15.5055 16.0459 15.953 16.1354 16.2458 16.212C16.4864 16.2749 16.648 16.3358 16.7841 16.3973C17.014 16.5011 17.229 16.5971 17.4317 16.8052C17.6161 16.9941 17.6983 17.1794 17.7186 17.2265C17.8239 17.4738 17.8266 17.6943 17.8187 17.8163C17.8203 18.2407 17.8248 19.3756 17.8266 19.7999C17.8275 20.032 17.8291 20.406 17.8308 20.7918L17.8312 20.8746L17.8316 20.9575C17.8334 21.3579 17.8353 21.751 17.8364 21.9925C17.2139 21.9488 16.9576 21.8813 16.806 21.8372C15.9632 21.5928 15.4596 21.2419 15.2872 21.1148C15.0552 20.944 14.7223 20.6629 14.4246 20.267C14.2155 19.9888 14.0612 19.7036 13.9476 19.428C13.9319 19.3759 13.9094 19.3132 13.877 19.2446C13.6714 18.6659 13.6365 18.1471 13.6332 17.8477V9H14.2984ZM13.877 19.2446C13.9186 19.3132 13.9475 19.376 13.9673 19.4282C13.9346 19.3665 13.9047 19.3051 13.877 19.2446ZM15.11 12.7964L10.6935 10.7131C10.4435 10.5959 10.1482 10.7695 10.1482 11.0386V15.2009C10.1482 15.4699 10.4435 15.6436 10.6935 15.5264L15.11 13.4431C15.3917 13.3129 15.3917 12.9266 15.11 12.7964Z" fill="white"/>
    <path d="M111.804 21.0816C110.833 21.0816 110.134 20.8736 109.708 20.4576C109.292 20.0416 109.084 19.3696 109.084 18.4416V14.0256H107.884V12.5216H109.084V10.6016H110.844V12.5216H113.004V14.0256H110.844V18.2016C110.844 18.7029 110.934 19.0549 111.116 19.2576C111.308 19.4496 111.67 19.5456 112.204 19.5456C112.524 19.5456 112.844 19.5296 113.164 19.4976V21.0016C112.961 21.0229 112.753 21.0389 112.54 21.0496C112.326 21.0709 112.081 21.0816 111.804 21.0816Z" fill="black"/>
    <path d="M103.083 21.1777C102.518 21.1777 101.984 21.0924 101.483 20.9217C100.982 20.7404 100.539 20.4737 100.155 20.1217C99.7815 19.759 99.4829 19.3057 99.2589 18.7617C99.0349 18.2177 98.9229 17.5777 98.9229 16.8417V16.5217C98.9229 15.8177 99.0295 15.2044 99.2429 14.6817C99.4562 14.159 99.7442 13.727 100.107 13.3857C100.48 13.0337 100.907 12.7724 101.387 12.6017C101.867 12.431 102.379 12.3457 102.923 12.3457C104.214 12.3457 105.2 12.6924 105.883 13.3857C106.576 14.079 106.923 15.071 106.923 16.3617V17.2577H100.715C100.726 17.695 100.795 18.0684 100.923 18.3777C101.062 18.6764 101.238 18.9217 101.451 19.1137C101.675 19.295 101.926 19.4284 102.203 19.5137C102.491 19.599 102.784 19.6417 103.083 19.6417C103.691 19.6417 104.134 19.5457 104.411 19.3537C104.699 19.1617 104.896 18.911 105.003 18.6017H106.763C106.592 19.4444 106.171 20.0844 105.499 20.5217C104.838 20.959 104.032 21.1777 103.083 21.1777ZM103.003 13.8817C102.704 13.8817 102.416 13.919 102.139 13.9937C101.872 14.0684 101.632 14.191 101.419 14.3617C101.216 14.5217 101.051 14.735 100.923 15.0017C100.795 15.2577 100.726 15.5724 100.715 15.9457H105.163C105.152 15.551 105.088 15.2204 104.971 14.9537C104.864 14.687 104.715 14.4737 104.523 14.3137C104.331 14.1537 104.102 14.0417 103.835 13.9777C103.579 13.9137 103.302 13.8817 103.003 13.8817Z" fill="black"/>
    <path d="M90.75 9.80078H92.51V16.2168L96.03 12.5208H98.11L94.686 16.1208L98.43 21.0008H96.318L93.518 17.2408L92.51 18.2648V21.0008H90.75V9.80078Z" fill="black"/>
    <path d="M84.6758 12.5217H86.3078V13.9617C86.4784 13.5244 86.7558 13.1457 87.1398 12.8257C87.5344 12.5057 88.0198 12.3457 88.5958 12.3457C88.8624 12.3457 89.0598 12.3564 89.1878 12.3777C89.3264 12.399 89.4224 12.4204 89.4758 12.4417V14.0417C89.2944 13.9884 89.1291 13.951 88.9798 13.9297C88.8304 13.8977 88.6491 13.8817 88.4358 13.8817C88.0838 13.8817 87.7798 13.9457 87.5238 14.0737C87.2784 14.191 87.0758 14.351 86.9158 14.5537C86.7558 14.7457 86.6331 14.975 86.5478 15.2417C86.4731 15.4977 86.4358 15.7644 86.4358 16.0417V21.0017H84.6758V12.5217Z" fill="black"/>
    <path d="M78.191 21.1777C77.7324 21.1777 77.3217 21.1137 76.959 20.9857C76.607 20.847 76.3084 20.6604 76.063 20.4257C75.8177 20.1804 75.631 19.8977 75.503 19.5777C75.375 19.2577 75.311 18.9057 75.311 18.5217C75.311 17.679 75.5617 17.055 76.063 16.6497C76.5644 16.2337 77.3004 16.0257 78.271 16.0257H80.911V15.5617C80.911 14.9217 80.767 14.4844 80.479 14.2497C80.2017 14.0044 79.759 13.8817 79.151 13.8817C78.607 13.8817 78.207 13.967 77.951 14.1377C77.695 14.3084 77.5457 14.543 77.503 14.8417H75.791C75.8124 14.479 75.903 14.1484 76.063 13.8497C76.2337 13.5404 76.463 13.2737 76.751 13.0497C77.0497 12.8257 77.407 12.655 77.823 12.5377C78.239 12.4097 78.7084 12.3457 79.231 12.3457C79.7537 12.3457 80.223 12.4044 80.639 12.5217C81.0657 12.639 81.4284 12.8257 81.727 13.0817C82.0257 13.327 82.255 13.647 82.415 14.0417C82.5857 14.4364 82.671 14.911 82.671 15.4657V18.8417C82.671 19.2897 82.6764 19.6844 82.687 20.0257C82.6977 20.3564 82.7244 20.6817 82.767 21.0017H81.167C81.135 20.7564 81.1084 20.5484 81.087 20.3777C81.0764 20.207 81.071 19.9937 81.071 19.7377C80.8684 20.1324 80.5164 20.4737 80.015 20.7617C79.5244 21.039 78.9164 21.1777 78.191 21.1777ZM78.671 19.6417C78.9697 19.6417 79.2524 19.6044 79.519 19.5297C79.7964 19.4444 80.0364 19.327 80.239 19.1777C80.4417 19.0177 80.6017 18.8257 80.719 18.6017C80.847 18.367 80.911 18.1004 80.911 17.8017V17.3377H78.591C78.143 17.3377 77.7804 17.4337 77.503 17.6257C77.2364 17.8177 77.103 18.1004 77.103 18.4737C77.103 18.8257 77.2257 19.1084 77.471 19.3217C77.727 19.535 78.127 19.6417 78.671 19.6417Z" fill="black"/>
    <path d="M62.269 9.80078H64.253L67.821 16.4408L71.389 9.80078H73.309V21.0008H71.389V13.1608L68.429 18.6808H67.149L64.189 13.1608V21.0008H62.269V9.80078Z" fill="black"/>
    <path d="M55.5532 21.1775C54.5505 21.1775 53.7932 20.8895 53.2812 20.3135C52.7692 19.7268 52.5132 18.8362 52.5132 17.6415V12.5215H54.2732V17.4815C54.2732 18.1962 54.4172 18.7348 54.7052 19.0975C55.0039 19.4602 55.4732 19.6415 56.1132 19.6415C56.4652 19.6415 56.7638 19.5828 57.0092 19.4655C57.2652 19.3482 57.4732 19.1882 57.6332 18.9855C57.7932 18.7828 57.9105 18.5535 57.9852 18.2975C58.0705 18.0308 58.1132 17.7588 58.1132 17.4815V12.5215H59.8732V21.0015H58.2412V19.5615C58.0385 19.9988 57.7079 20.3775 57.2492 20.6975C56.8012 21.0175 56.2359 21.1775 55.5532 21.1775Z" fill="black"/>
    <path d="M42.2764 9.80078H46.5164C47.2204 9.80078 47.8337 9.88611 48.3564 10.0568C48.8897 10.2274 49.3324 10.4674 49.6844 10.7768C50.0364 11.0861 50.303 11.4541 50.4844 11.8808C50.6657 12.3074 50.7564 12.7768 50.7564 13.2888C50.7564 14.0568 50.5484 14.7234 50.1324 15.2888C49.7164 15.8434 49.0924 16.2434 48.2604 16.4888L51.0764 21.0008H48.9644L46.4844 16.7128H44.1964V21.0008H42.2764V9.80078ZM46.1964 15.1128C47.1777 15.1128 47.8604 14.9528 48.2444 14.6328C48.639 14.3128 48.8364 13.8648 48.8364 13.2888C48.8364 12.7128 48.639 12.2648 48.2444 11.9448C47.8604 11.6248 47.1777 11.4648 46.1964 11.4648H44.1964V15.1128H46.1964Z" fill="black"/>
</svg>