<svg width="47" height="54" viewBox="0 0 47 54" fill="none" xmlns="http://www.w3.org/2000/svg">
<path d="M0 5C0 2.23858 2.23858 0 5 0H29C31.7614 0 34 2.23858 34 5V9.5C34 10.0523 33.5523 10.5 33 10.5C32.4477 10.5 32 10.0523 32 9.5V5C32 3.34315 30.6569 2 29 2H5C3.34315 2 2 3.34315 2 5V49C2 50.6569 3.34315 52 5 52H29C30.6569 52 32 50.6569 32 49V45C32 44.4477 32.4477 44 33 44C33.5523 44 34 44.4477 34 45V49C34 51.7614 31.7614 54 29 54H5C2.23858 54 0 51.7614 0 49V5Z" fill="#76B82A"/>
<path d="M12 6C12 5.44772 12.4477 5 13 5H21C21.5523 5 22 5.44772 22 6C22 6.55228 21.5523 7 21 7H13C12.4477 7 12 6.55228 12 6Z" fill="#76B82A"/>
<path fill-rule="evenodd" clip-rule="evenodd" d="M17 43C15.3431 43 14 44.3431 14 46C14 47.6569 15.3431 49 17 49C18.6569 49 20 47.6569 20 46C20 44.3431 18.6569 43 17 43ZM16 46C16 45.4477 16.4477 45 17 45C17.5523 45 18 45.4477 18 46C18 46.5523 17.5523 47 17 47C16.4477 47 16 46.5523 16 46Z" fill="#76B82A"/>
<path d="M40.666 23.7459C41.078 23.3781 41.1138 22.746 40.7459 22.334C40.3781 21.922 39.746 21.8862 39.334 22.2541L31.04 29.6594L26.666 25.7541C26.254 25.3862 25.6219 25.422 25.2541 25.834C24.8862 26.246 24.922 26.8781 25.334 27.2459L30.374 31.7459C30.7534 32.0847 31.3266 32.0847 31.706 31.7459L40.666 23.7459Z" fill="#76B82A"/>
<path fill-rule="evenodd" clip-rule="evenodd" d="M19 27C19 19.4043 25.0132 13 32.9023 13C40.7717 13 47 19.3844 47 27C47 34.6156 40.7717 41 32.9023 41C25.2185 41 19 34.6057 19 27ZM32.9023 15C26.1622 15 21 20.4639 21 27C21 33.5261 26.3479 39 32.9023 39C39.6619 39 45 33.5163 45 27C45 20.4837 39.6619 15 32.9023 15Z" fill="#76B82A"/>
</svg>
