<svg width="57" height="54" viewBox="0 0 57 54" fill="none" xmlns="http://www.w3.org/2000/svg">
<path d="M0.664062 5C0.664062 2.23858 2.90264 0 5.66406 0H29.6641C32.4255 0 34.6641 2.23858 34.6641 5V7.5C34.6641 8.05228 34.2163 8.5 33.6641 8.5C33.1118 8.5 32.6641 8.05228 32.6641 7.5V5C32.6641 3.34315 31.3209 2 29.6641 2H5.66406C4.00721 2 2.66406 3.34315 2.66406 5V49C2.66406 50.6569 4.00721 52 5.66406 52H29.6641C31.3209 52 32.6641 50.6569 32.6641 49V48C32.6641 47.4477 33.1118 47 33.6641 47C34.2163 47 34.6641 47.4477 34.6641 48V49C34.6641 51.7614 32.4255 54 29.6641 54H5.66406C2.90264 54 0.664062 51.7614 0.664062 49V5Z" fill="#76B82A"/>
<path d="M12.6641 6C12.6641 5.44772 13.1118 5 13.6641 5H21.6641C22.2163 5 22.6641 5.44772 22.6641 6C22.6641 6.55228 22.2163 7 21.6641 7H13.6641C13.1118 7 12.6641 6.55228 12.6641 6Z" fill="#76B82A"/>
<path fill-rule="evenodd" clip-rule="evenodd" d="M17.6641 43C16.0072 43 14.6641 44.3431 14.6641 46C14.6641 47.6569 16.0072 49 17.6641 49C19.3209 49 20.6641 47.6569 20.6641 46C20.6641 44.3431 19.3209 43 17.6641 43ZM16.6641 46C16.6641 45.4477 17.1118 45 17.6641 45C18.2163 45 18.6641 45.4477 18.6641 46C18.6641 46.5523 18.2163 47 17.6641 47C17.1118 47 16.6641 46.5523 16.6641 46Z" fill="#76B82A"/>
<path fill-rule="evenodd" clip-rule="evenodd" d="M25.6641 38.7858C25.6641 39.338 26.1118 39.7858 26.6641 39.7858H33.7102C34.131 43.3393 37.3734 46 41.1641 46C44.9547 46 48.1971 43.3393 48.6179 39.7858H55.6641C56.2163 39.7858 56.6641 39.338 56.6641 38.7858V34.0081C56.6641 33.5305 56.3263 33.1195 55.8577 33.027C54.6396 32.7866 53.0838 32.0883 51.7979 29.9284C50.4822 27.7183 49.4141 23.9172 49.4141 17.4033C49.4141 15.5295 48.2551 13.2485 45.6635 11.9335C45.6231 9.62068 43.4771 8 41.1641 8C38.8511 8 36.7051 9.62068 36.6646 11.9335C34.073 13.2485 32.9141 15.5295 32.9141 17.4033C32.9141 23.9172 31.846 27.7183 30.5303 29.9284C29.2444 32.0883 27.6886 32.7866 26.4705 33.027C26.0018 33.1195 25.6641 33.5305 25.6641 34.0081V38.7858ZM43.4135 11.1424C43.0322 10.507 42.2358 10 41.1641 10C40.0923 10 39.2959 10.507 38.9146 11.1424C39.3453 11.0472 39.801 10.9739 40.2823 10.9255C40.3951 10.8814 40.5178 10.8572 40.6462 10.8572C40.8217 10.8572 40.9943 10.8602 41.1641 10.8662C41.3338 10.8602 41.5064 10.8572 41.6819 10.8572C41.8103 10.8572 41.9331 10.8814 42.0458 10.9255C42.5272 10.9739 42.9829 11.0472 43.4135 11.1424ZM41.1641 12.8673C36.3418 13.0591 34.9141 15.9255 34.9141 17.4033C34.9141 24.093 33.8244 28.3047 32.2488 30.9514C30.8879 33.2373 29.194 34.3056 27.6641 34.7844V37.7858H54.6641V34.7844C53.1342 34.3056 51.4402 33.2373 50.0794 30.9514C48.5037 28.3047 47.4141 24.093 47.4141 17.4033C47.4141 15.9255 45.9863 13.0591 41.1641 12.8673ZM46.5954 39.7858H35.7327C36.1438 42.123 38.3581 44 41.1641 44C43.97 44 46.1843 42.123 46.5954 39.7858Z" fill="#76B82A"/>
</svg>
