<svg width="1200" height="152" viewBox="0 0 1200 152" fill="none" xmlns="http://www.w3.org/2000/svg">
<g clip-path="url(#clip0_4306_611348)">
<g opacity="0.7">
<g opacity="0.5">
<path opacity="0.1" d="M292 1L190 76V151L292 113.5V1Z" fill="#ECE9F1"/>
<path opacity="0.3" d="M291 1L392 38.5V151L291 113.5V1Z" fill="#2E1B52"/>
<path opacity="0.2" d="M291.5 39L392 75.5V113L291.5 39Z" fill="#806EA2"/>
<path opacity="0.2" d="M291 76V113.5L190 151L291 76Z" fill="#2E1B52"/>
<path opacity="0.2" fill-rule="evenodd" clip-rule="evenodd" d="M291.174 0.531194L290.92 0.436768L290.702 0.598502L240.335 37.9999H190H189.5V38.4999V75.4999V75.7484V75.9999V76.4999V113.5V114V151H189.92L190.174 151.468L291 114.033L391.826 151.468L392.499 151H392.5V38.4999V38.1522L392.5 37.9999H392.09L291.174 0.531194ZM389.217 37.9999L291.08 1.56309L242.012 37.9999H290.5H291H291.5H389.217ZM238.988 38.9999H190.5V75.0059L238.988 38.9999ZM191.512 75.4999L240.665 38.9999H290.5V75.4999H191.512ZM190.5 76.4999V113H240.334L289.488 76.4999H190.5ZM190.5 114V150.005L238.988 114H190.5ZM291.5 112.999L390.487 113L341.335 76.4999H291.5V112.999ZM391.5 150.281L293.785 114H391.5V150.281ZM290.5 113V76.994L242.012 113H290.5ZM240.665 114H288.216L193.114 149.31L240.665 114ZM291.5 75.0059V75.4999H339.988L291.5 39.494V75.0059ZM391.5 76.4999V112.506L343.012 76.4999H391.5ZM389.217 75.4999H341.665L294.114 40.1894L389.217 75.4999ZM391.5 38.9999V75.2809L293.783 38.9999H391.5Z" fill="#C4BCD4"/>
</g>
<g opacity="0.7">
<path opacity="0.1" d="M494 1L392 76V151L494 113.5V1Z" fill="#ECE9F1"/>
<path opacity="0.3" d="M493 1L594 38.5V151L493 113.5V1Z" fill="#2E1B52"/>
<path opacity="0.2" d="M493.5 39L594 75.5V113L493.5 39Z" fill="#806EA2"/>
<path opacity="0.2" d="M493 76V113.5L392 151L493 76Z" fill="#2E1B52"/>
<path opacity="0.2" fill-rule="evenodd" clip-rule="evenodd" d="M493.174 0.531194L492.92 0.436768L492.702 0.598502L442.335 37.9999H392H391.5V38.4999V75.4999V75.7484V75.9999V76.4999V113.5V114V151H391.92L392.174 151.468L493 114.033L593.826 151.468L594.499 151H594.5V38.4999V38.1522L594.5 37.9999H594.09L493.174 0.531194ZM591.217 37.9999L493.08 1.56309L444.012 37.9999H492.5H493H493.5H591.217ZM440.988 38.9999H392.5V75.0059L440.988 38.9999ZM393.512 75.4999L442.665 38.9999H492.5V75.4999H393.512ZM392.5 76.4999V113H442.334L491.488 76.4999H392.5ZM392.5 114V150.005L440.988 114H392.5ZM493.5 112.999L592.487 113L543.335 76.4999H493.5V112.999ZM593.5 150.281L495.785 114H593.5V150.281ZM492.5 113V76.994L444.012 113H492.5ZM442.665 114H490.216L395.114 149.31L442.665 114ZM493.5 75.0059V75.4999H541.988L493.5 39.494V75.0059ZM593.5 76.4999V112.506L545.012 76.4999H593.5ZM591.217 75.4999H543.665L496.114 40.1894L591.217 75.4999ZM593.5 38.9999V75.2809L495.783 38.9999H593.5Z" fill="#C4BCD4"/>
</g>
<g opacity="0.8">
<path opacity="0.1" d="M696 1L594 76V151L696 113.5V1Z" fill="#ECE9F1"/>
<path opacity="0.3" d="M695 1L796 38.5V151L695 113.5V1Z" fill="#2E1B52"/>
<path opacity="0.2" d="M695.5 39L796 75.5V113L695.5 39Z" fill="#806EA2"/>
<path opacity="0.2" d="M695 76V113.5L594 151L695 76Z" fill="#2E1B52"/>
<path opacity="0.2" fill-rule="evenodd" clip-rule="evenodd" d="M695.174 0.531194L694.92 0.436768L694.702 0.598502L644.335 37.9999H594H593.5V38.4999V75.4999V75.7484V75.9999V76.4999V113.5V114V151H593.92L594.174 151.468L695 114.033L795.826 151.468L796.499 151H796.5V38.4999V38.1522L796.5 37.9999H796.09L695.174 0.531194ZM793.217 37.9999L695.08 1.56309L646.012 37.9999H694.5H695H695.5H793.217ZM642.988 38.9999H594.5V75.0059L642.988 38.9999ZM595.512 75.4999L644.665 38.9999H694.5V75.4999H595.512ZM594.5 76.4999V113H644.334L693.488 76.4999H594.5ZM594.5 114V150.005L642.988 114H594.5ZM695.5 112.999L794.487 113L745.335 76.4999H695.5V112.999ZM795.5 150.281L697.785 114H795.5V150.281ZM694.5 113V76.994L646.012 113H694.5ZM644.665 114H692.216L597.114 149.31L644.665 114ZM695.5 75.0059V75.4999H743.988L695.5 39.494V75.0059ZM795.5 76.4999V112.506L747.012 76.4999H795.5ZM793.217 75.4999H745.665L698.114 40.1894L793.217 75.4999ZM795.5 38.9999V75.2809L697.783 38.9999H795.5Z" fill="#C4BCD4"/>
</g>
<g opacity="0.9">
<path opacity="0.1" d="M898 1L796 76V151L898 113.5V1Z" fill="#ECE9F1"/>
<path opacity="0.3" d="M897 1L998 38.5V151L897 113.5V1Z" fill="#2E1B52"/>
<path opacity="0.2" d="M897.5 39L998 75.5V113L897.5 39Z" fill="#806EA2"/>
<path opacity="0.2" d="M897 76V113.5L796 151L897 76Z" fill="#2E1B52"/>
<path opacity="0.2" fill-rule="evenodd" clip-rule="evenodd" d="M897.174 0.531194L896.92 0.436768L896.702 0.598502L846.335 37.9999H796H795.5V38.4999V75.4999V75.7484V75.9999V76.4999V113.5V114V151H795.92L796.174 151.468L897 114.033L997.826 151.468L998.499 151H998.5V38.4999V38.1522L998.5 37.9999H998.09L897.174 0.531194ZM995.217 37.9999L897.08 1.56309L848.012 37.9999H896.5H897H897.5H995.217ZM844.988 38.9999H796.5V75.0059L844.988 38.9999ZM797.512 75.4999L846.665 38.9999H896.5V75.4999H797.512ZM796.5 76.4999V113H846.334L895.488 76.4999H796.5ZM796.5 114V150.005L844.988 114H796.5ZM897.5 112.999L996.487 113L947.335 76.4999H897.5V112.999ZM997.5 150.281L899.785 114H997.5V150.281ZM896.5 113V76.994L848.012 113H896.5ZM846.665 114H894.216L799.114 149.31L846.665 114ZM897.5 75.0059V75.4999H945.988L897.5 39.494V75.0059ZM997.5 76.4999V112.506L949.012 76.4999H997.5ZM995.217 75.4999H947.665L900.114 40.1894L995.217 75.4999ZM997.5 38.9999V75.2809L899.783 38.9999H997.5Z" fill="#C4BCD4"/>
</g>
<path opacity="0.1" d="M1100 1L998 76V151L1100 113.5V1Z" fill="#ECE9F1"/>
<path opacity="0.3" d="M1099 1L1200 38.5V151L1099 113.5V1Z" fill="#2E1B52"/>
<path opacity="0.2" d="M1099.5 39L1200 75.5V113L1099.5 39Z" fill="#806EA2"/>
<path opacity="0.2" d="M1099 76V113.5L998 151L1099 76Z" fill="#2E1B52"/>
<path opacity="0.2" fill-rule="evenodd" clip-rule="evenodd" d="M1099.17 0.531194L1098.92 0.436768L1098.7 0.598502L1048.33 37.9999H998H997.5V38.4999V75.4999V75.7484V75.9999V76.4999V113.5V114V151H997.92L998.174 151.468L1099 114.033L1199.83 151.468L1200.5 151H1200.5V38.4999V38.1522L1200.5 37.9999H1200.09L1099.17 0.531194ZM1197.22 37.9999L1099.08 1.56309L1050.01 37.9999H1098.5H1099H1099.5H1197.22ZM1046.99 38.9999H998.5V75.0059L1046.99 38.9999ZM999.512 75.4999L1048.67 38.9999H1098.5V75.4999H999.512ZM998.5 76.4999V113H1048.33L1097.49 76.4999H998.5ZM998.5 114V150.005L1046.99 114H998.5ZM1099.5 112.999L1198.49 113L1149.33 76.4999H1099.5V112.999ZM1199.5 150.281L1101.79 114H1199.5V150.281ZM1098.5 113V76.994L1050.01 113H1098.5ZM1048.67 114H1096.22L1001.11 149.31L1048.67 114ZM1099.5 75.0059V75.4999H1147.99L1099.5 39.494V75.0059ZM1199.5 76.4999V112.506L1151.01 76.4999H1199.5ZM1197.22 75.4999H1149.67L1102.11 40.1894L1197.22 75.4999ZM1199.5 38.9999V75.2809L1101.78 38.9999H1199.5Z" fill="#C4BCD4"/>
</g>
</g>
<defs>
<clipPath id="clip0_4306_611348">
<rect width="1200" height="152" fill="white"/>
</clipPath>
</defs>
</svg>
