<svg width="1600" height="1600" viewBox="0 0 1600 1600" fill="none" xmlns="http://www.w3.org/2000/svg">
<g filter="url(#filter0_f_2348_2)">
<ellipse cx="720.921" cy="1184.84" rx="430.218" ry="26.1111" transform="rotate(30 720.921 1184.84)" fill="black" fill-opacity="0.15"/>
</g>
<g filter="url(#filter1_f_2348_2)">
<ellipse cx="595.809" cy="1228.32" rx="341.176" ry="26.1111" transform="rotate(30 595.809 1228.32)" fill="#201F21" fill-opacity="0.2"/>
</g>
<g filter="url(#filter2_f_2348_2)">
<ellipse cx="1095.18" cy="1300.31" rx="181.973" ry="29.4242" transform="rotate(30 1095.18 1300.31)" fill="black" fill-opacity="0.15"/>
</g>
<g filter="url(#filter3_f_2348_2)">
<ellipse cx="401.03" cy="1328.14" rx="247.046" ry="46.2405" transform="rotate(30 401.03 1328.14)" fill="#944AB8" fill-opacity="0.3"/>
</g>
<path d="M1291.42 876C1291.42 1124.53 1116.94 1225.26 901.711 1101C686.48 976.736 512 674.528 512 426C512 177.472 686.48 76.7359 901.711 201C1116.94 325.264 1291.42 627.472 1291.42 876Z" stroke="#55246A" stroke-width="8" stroke-dasharray="24 24"/>
<path fill-rule="evenodd" clip-rule="evenodd" d="M1040.69 262.729C1005.17 280.802 983 322.76 983 383.5C983 500.308 1065.01 642.346 1166.16 700.75C1214.72 728.784 1258.86 732.453 1291.64 715.771L1334.94 690.771C1302.17 707.453 1258.02 703.784 1209.47 675.75C1108.31 617.346 1026.3 475.308 1026.3 358.5C1026.3 297.76 1048.48 255.802 1083.99 237.729L1040.69 262.729Z" fill="#322F36" fill-opacity="0.7"/>
<path fill-rule="evenodd" clip-rule="evenodd" d="M1251.45 547.765C1254.73 545.912 1257.63 543.468 1260.15 540.434C1267.14 532.008 1270.59 519.265 1270.52 502.207C1270.59 486.007 1267.21 469.531 1260.37 452.778C1253.53 435.939 1243.65 420.09 1230.71 405.232C1217.85 390.331 1202.39 377.665 1184.33 367.236L1095.12 315.734L1138.42 290.734L1227.63 342.236C1245.69 352.665 1261.15 365.331 1274.01 380.232C1286.95 395.09 1296.83 410.939 1303.67 427.778C1310.51 444.531 1313.89 461.007 1313.82 477.207C1313.89 494.265 1310.44 507.008 1303.45 515.434C1300.93 518.468 1298.03 520.912 1294.75 522.765L1251.45 547.765Z" fill="#322F36" fill-opacity="0.7"/>
<path fill-rule="evenodd" clip-rule="evenodd" d="M1095.12 439.484L1062.67 420.75L1105.98 395.75L1138.42 414.484L1095.12 439.484Z" fill="#322F36" fill-opacity="0.7"/>
<path fill-rule="evenodd" clip-rule="evenodd" d="M1095.12 501.23L1062.67 482.496L1105.98 457.496L1138.42 476.23L1095.12 501.23Z" fill="#322F36" fill-opacity="0.7"/>
<path fill-rule="evenodd" clip-rule="evenodd" d="M1143.07 607.417V573.644L1186.37 548.644V582.417L1143.07 607.417Z" fill="#322F36" fill-opacity="0.7"/>
<path fill-rule="evenodd" clip-rule="evenodd" d="M1192.91 602.419V557.688L1236.21 532.688V577.419L1192.91 602.419Z" fill="#322F36" fill-opacity="0.7"/>
<path fill-rule="evenodd" clip-rule="evenodd" d="M1192.91 557.689L1143.07 528.912L1186.37 503.912L1236.21 532.689L1192.91 557.689Z" fill="#322F36" fill-opacity="0.7"/>
<path fill-rule="evenodd" clip-rule="evenodd" d="M1143.07 528.912V511.896L1186.37 486.896V503.912L1143.07 528.912Z" fill="#322F36" fill-opacity="0.7"/>
<path fill-rule="evenodd" clip-rule="evenodd" d="M1143.07 467.166L1182.99 490.213C1192.06 495.449 1199.49 498.194 1205.29 498.448C1208.54 498.59 1211.31 498.052 1213.6 496.834L1256.9 471.834C1254.61 473.052 1251.84 473.59 1248.59 473.448C1242.79 473.194 1235.36 470.449 1226.29 465.213L1186.37 442.166L1143.07 467.166Z" fill="#322F36" fill-opacity="0.7"/>
<path fill-rule="evenodd" clip-rule="evenodd" d="M1143.07 388.791V467.166L1186.37 442.166V363.791L1143.07 388.791Z" fill="#322F36" fill-opacity="0.7"/>
<g filter="url(#filter4_bii_2348_2)">
<path fill-rule="evenodd" clip-rule="evenodd" d="M1291.64 715.771C1327.15 697.698 1349.33 655.741 1349.33 595C1349.33 478.192 1267.32 336.154 1166.16 277.75C1117.61 249.716 1073.46 246.047 1040.69 262.73L1083.99 237.73C1116.77 221.047 1160.91 224.716 1209.47 252.75C1310.62 311.154 1392.63 453.192 1392.63 570C1392.63 630.741 1370.46 672.698 1334.94 690.771L1291.64 715.771Z" fill="#615C66" fill-opacity="0.5"/>
</g>
<g filter="url(#filter5_bii_2348_2)">
<path fill-rule="evenodd" clip-rule="evenodd" d="M1143.07 511.896L1184.33 535.716C1202.02 545.93 1217.33 551.378 1230.27 552.056C1238.54 552.491 1245.6 551.061 1251.45 547.765L1294.75 522.765C1288.91 526.061 1281.85 527.491 1273.57 527.056C1260.63 526.378 1245.32 520.93 1227.63 510.716L1186.37 486.896L1143.07 511.896Z" fill="#615C66" fill-opacity="0.5"/>
</g>
<g filter="url(#filter6_bii_2348_2)">
<path fill-rule="evenodd" clip-rule="evenodd" d="M1062.67 420.75V465.48L1105.98 440.48V395.75L1062.67 420.75Z" fill="#615C66" fill-opacity="0.5"/>
</g>
<g filter="url(#filter7_bii_2348_2)">
<path fill-rule="evenodd" clip-rule="evenodd" d="M1062.67 482.496V527.227L1105.98 502.227V457.496L1062.67 482.496Z" fill="#615C66" fill-opacity="0.5"/>
</g>
<g filter="url(#filter8_bii_2348_2)">
<path fill-rule="evenodd" clip-rule="evenodd" d="M1062.67 527.228L1095.12 545.962L1138.42 520.962L1105.98 502.228L1062.67 527.228Z" fill="#615C66" fill-opacity="0.5"/>
</g>
<g filter="url(#filter9_bii_2348_2)">
<path fill-rule="evenodd" clip-rule="evenodd" d="M1095.12 545.961V579.734L1138.42 554.734V520.961L1095.12 545.961Z" fill="#615C66" fill-opacity="0.5"/>
</g>
<g filter="url(#filter10_bii_2348_2)">
<path fill-rule="evenodd" clip-rule="evenodd" d="M1095.12 579.734L1143.07 607.416L1186.37 582.416L1138.42 554.734L1095.12 579.734Z" fill="#615C66" fill-opacity="0.5"/>
</g>
<g filter="url(#filter11_bii_2348_2)">
<path fill-rule="evenodd" clip-rule="evenodd" d="M1143.07 573.644L1192.91 602.42L1236.21 577.42L1186.37 548.644L1143.07 573.644Z" fill="#615C66" fill-opacity="0.5"/>
</g>
<g filter="url(#filter12_bii_2348_2)">
<path fill-rule="evenodd" clip-rule="evenodd" d="M1213.6 496.834C1215.4 495.877 1216.9 494.5 1218.11 492.703C1220.86 488.619 1222.24 482.71 1222.24 474.976C1222.24 467.413 1220.86 459.787 1218.11 452.097C1215.36 444.408 1211.16 437.127 1205.51 430.257C1199.86 423.386 1192.8 417.504 1184.33 412.611L1143.07 388.791L1186.37 363.791L1227.63 387.611C1236.1 392.504 1243.16 398.386 1248.81 405.257C1254.46 412.127 1258.66 419.408 1261.41 427.097C1264.16 434.787 1265.54 442.413 1265.54 449.976C1265.54 457.71 1264.16 463.619 1261.41 467.703C1260.2 469.5 1258.7 470.877 1256.9 471.834L1213.6 496.834Z" fill="#615C66" fill-opacity="0.5"/>
</g>
<g filter="url(#filter13_bii_2348_2)">
<path fill-rule="evenodd" clip-rule="evenodd" d="M1062.67 465.48L1095.12 484.214L1138.42 459.214L1105.98 440.48L1062.67 465.48Z" fill="#615C66" fill-opacity="0.5"/>
</g>
<g filter="url(#filter14_bii_2348_2)">
<path fill-rule="evenodd" clip-rule="evenodd" d="M1095.12 484.214V501.23L1138.42 476.23V459.214L1095.12 484.214Z" fill="#615C66" fill-opacity="0.5"/>
</g>
<g filter="url(#filter15_bii_2348_2)">
<path fill-rule="evenodd" clip-rule="evenodd" d="M1095.12 315.734V439.484L1138.42 414.484V290.734L1095.12 315.734Z" fill="#615C66" fill-opacity="0.5"/>
</g>
<g filter="url(#filter16_b_2348_2)">
<path fill-rule="evenodd" clip-rule="evenodd" d="M1166.16 700.75C1267.32 759.154 1349.33 711.808 1349.33 595C1349.33 478.192 1267.32 336.154 1166.16 277.75C1065.01 219.346 983 266.692 983 383.5C983 500.308 1065.01 642.346 1166.16 700.75ZM1143.07 511.897L1184.33 535.716C1202.02 545.931 1217.33 551.377 1230.27 552.056C1243.2 552.735 1253.16 548.861 1260.15 540.434C1267.14 532.007 1270.59 519.265 1270.52 502.206C1270.59 486.007 1267.21 469.531 1260.37 452.778C1253.53 435.939 1243.65 420.09 1230.71 405.231C1217.85 390.33 1202.39 377.665 1184.33 367.236L1095.12 315.734V439.484L1062.67 420.75V465.48L1095.12 484.214V501.23L1062.67 482.496V527.227L1095.12 545.96V579.734L1143.07 607.416V573.643L1192.91 602.419V557.689L1143.07 528.912V511.897ZM1143.07 467.166L1182.99 490.213C1192.06 495.449 1199.49 498.194 1205.29 498.448C1211.09 498.702 1215.36 496.787 1218.11 492.703C1220.86 488.619 1222.24 482.71 1222.24 474.975C1222.24 467.413 1220.86 459.787 1218.11 452.097C1215.36 444.408 1211.16 437.128 1205.51 430.256C1199.86 423.385 1192.8 417.503 1184.33 412.611L1143.07 388.791V467.166Z" fill="url(#paint0_linear_2348_2)" fill-opacity="0.5"/>
</g>
<path fill-rule="evenodd" clip-rule="evenodd" d="M1066.61 1240.19C995.533 1286.39 894.632 1282.62 782.711 1218C567.48 1093.74 393 791.527 393 542.999C393 423.706 433.2 338.464 498.811 295.812L542.112 270.812C476.501 313.464 436.301 398.706 436.301 517.999C436.301 766.527 610.781 1068.74 826.013 1193C937.933 1257.62 1038.83 1261.39 1109.91 1215.19L1066.61 1240.19Z" fill="#6580E1"/>
<g filter="url(#filter17_ii_2348_2)">
<path fill-rule="evenodd" clip-rule="evenodd" d="M498.811 295.812C569.89 249.605 670.791 253.383 782.711 318C997.943 442.264 1172.42 744.472 1172.42 993C1172.42 1112.29 1132.22 1197.54 1066.61 1240.19L1109.91 1215.19C1175.52 1172.54 1215.72 1087.29 1215.72 968C1215.72 719.472 1041.24 417.264 826.013 293C714.092 228.383 613.191 224.605 542.112 270.812L498.811 295.812Z" fill="#7E7B82"/>
</g>
<path d="M1172.42 993C1172.42 1241.53 997.943 1342.26 782.711 1218C567.48 1093.74 393 791.528 393 543C393 294.472 567.48 193.736 782.711 318C997.943 442.264 1172.42 744.472 1172.42 993Z" fill="url(#paint1_linear_2348_2)"/>
<mask id="mask0_2348_2" style="mask-type:alpha" maskUnits="userSpaceOnUse" x="393" y="264" width="780" height="1008">
<path d="M1172.42 993C1172.42 1241.53 997.943 1342.26 782.711 1218C567.48 1093.74 393 791.528 393 543C393 294.472 567.48 193.736 782.711 318C997.943 442.264 1172.42 744.472 1172.42 993Z" fill="url(#paint2_linear_2348_2)"/>
</mask>
<g mask="url(#mask0_2348_2)">
<g filter="url(#filter18_f_2348_2)">
<path d="M602.641 405.731C583.509 394.686 568 403.64 568 425.731V583.168C568 602.733 576.248 625.681 589.877 644.721C590.392 645.44 590.909 646.158 591.426 646.876C593.977 650.42 596.531 653.968 598.863 657.701L733.896 873.833L599.887 930.215C597.461 931.237 594.803 931.789 592.148 932.34C591.61 932.452 591.072 932.564 590.536 932.679C576.531 935.7 568 949.221 568 969.121V1131.38C568 1153.47 583.509 1180.33 602.641 1191.38L931.731 1381.38C950.863 1392.43 966.372 1383.47 966.372 1361.38V1203.94C966.372 1184.38 958.124 1161.43 944.494 1142.39C943.979 1141.67 943.463 1140.95 942.946 1140.24C940.395 1136.69 937.841 1133.14 935.509 1129.41L800.475 913.278L934.484 856.896C936.911 855.875 939.567 855.323 942.222 854.771C942.761 854.66 943.299 854.548 943.836 854.432C957.841 851.411 966.372 837.891 966.372 817.99V655.731C966.372 633.64 950.863 606.777 931.731 595.731L602.641 405.731Z" fill="#201F21" fill-opacity="0.2"/>
</g>
</g>
<path fill-rule="evenodd" clip-rule="evenodd" d="M484.91 380.891C478.194 384.309 474 392.244 474 403.731V561.168C474 580.732 482.248 603.681 495.877 622.721C496.392 623.441 496.909 624.158 497.426 624.876C499.977 628.42 502.531 631.968 504.863 635.7L639.897 851.834L683.198 826.834L548.164 610.7C545.832 606.968 543.278 603.42 540.727 599.876C540.21 599.158 539.694 598.441 539.179 597.721C525.549 578.681 517.301 555.732 517.301 536.168V378.731C517.301 367.244 521.495 359.309 528.211 355.891L484.91 380.891Z" fill="#CDCDCD" fill-opacity="0.9"/>
<path fill-rule="evenodd" clip-rule="evenodd" d="M490.247 912.918C480.019 918.189 474 930.404 474 947.121V1109.38C474 1131.47 489.509 1158.33 508.641 1169.38L837.731 1359.38C846.914 1364.68 855.263 1365.38 861.462 1362.22L904.763 1337.22C898.564 1340.38 890.215 1339.68 881.032 1334.38L551.942 1144.38C532.81 1133.33 517.301 1106.47 517.301 1084.38V922.121C517.301 905.404 523.321 893.189 533.548 887.918L490.247 912.918Z" fill="#CDCDCD" fill-opacity="0.9"/>
<path fill-rule="evenodd" clip-rule="evenodd" d="M706.475 891.278L840.485 834.896C842.91 833.875 845.567 833.323 848.222 832.771C848.76 832.659 849.299 832.547 849.836 832.432C852.077 831.949 854.177 831.197 856.125 830.192L899.427 805.192C897.479 806.197 895.378 806.949 893.137 807.432C892.6 807.547 892.062 807.659 891.523 807.771C888.869 808.323 886.212 808.875 883.786 809.896L749.776 866.278L706.475 891.278Z" fill="#CDCDCD" fill-opacity="0.9"/>
<g filter="url(#filter19_bii_2348_2)">
<path fill-rule="evenodd" clip-rule="evenodd" d="M639.897 851.834L505.887 908.215C503.461 909.237 500.803 909.789 498.148 910.34C497.61 910.452 497.072 910.564 496.536 910.68C494.295 911.163 492.195 911.915 490.247 912.919L533.548 887.919C535.496 886.915 537.597 886.163 539.837 885.68C540.374 885.564 540.911 885.452 541.449 885.34C544.104 884.789 546.762 884.237 549.189 883.215L683.198 826.834L639.897 851.834Z" fill="#FAFAFA" fill-opacity="0.8"/>
</g>
<g filter="url(#filter20_bii_2348_2)">
<path fill-rule="evenodd" clip-rule="evenodd" d="M861.462 1362.22C868.178 1358.8 872.372 1350.87 872.372 1339.38V1181.94C872.372 1162.38 864.125 1139.43 850.494 1120.39C849.98 1119.67 849.463 1118.95 848.946 1118.24C846.395 1114.69 843.841 1111.14 841.508 1107.41L706.475 891.278L749.776 866.278L884.81 1082.41C887.143 1086.14 889.697 1089.69 892.247 1093.24C892.764 1093.95 893.281 1094.67 893.796 1095.39C907.426 1114.43 915.673 1137.38 915.673 1156.94V1314.38C915.673 1325.87 911.479 1333.8 904.764 1337.22L861.462 1362.22Z" fill="#FAFAFA" fill-opacity="0.8"/>
</g>
<g filter="url(#filter21_bii_2348_2)">
<path fill-rule="evenodd" clip-rule="evenodd" d="M856.125 830.192C866.352 824.921 872.372 812.706 872.372 795.989V633.731C872.372 611.64 856.863 584.777 837.731 573.731L508.641 383.731C499.458 378.429 491.109 377.735 484.91 380.89L528.211 355.89C534.41 352.735 542.759 353.429 551.942 358.731L881.032 548.731C900.164 559.777 915.673 586.64 915.673 608.731V770.989C915.673 787.706 909.653 799.921 899.427 805.192L856.125 830.192Z" fill="#FAFAFA" fill-opacity="0.8"/>
</g>
<g filter="url(#filter22_b_2348_2)">
<path d="M508.641 383.731C489.509 372.686 474 381.64 474 403.731V561.168C474 580.733 482.248 603.681 495.877 622.721C496.392 623.44 496.909 624.158 497.426 624.876C499.977 628.42 502.531 631.968 504.863 635.701L639.896 851.833L505.887 908.215C503.461 909.237 500.803 909.789 498.148 910.34C497.61 910.452 497.072 910.564 496.536 910.679C482.531 913.7 474 927.221 474 947.121V1109.38C474 1131.47 489.509 1158.33 508.641 1169.38L837.731 1359.38C856.863 1370.43 872.372 1361.47 872.372 1339.38V1181.94C872.372 1162.38 864.124 1139.43 850.494 1120.39C849.979 1119.67 849.463 1118.95 848.946 1118.24C846.395 1114.69 843.841 1111.14 841.509 1107.41L706.475 891.278L840.484 834.896C842.911 833.875 845.567 833.323 848.222 832.771C848.761 832.66 849.299 832.548 849.836 832.432C863.841 829.411 872.372 815.891 872.372 795.99V633.731C872.372 611.64 856.863 584.777 837.731 573.731L508.641 383.731Z" fill="white" fill-opacity="0.5"/>
</g>
<mask id="mask1_2348_2" style="mask-type:alpha" maskUnits="userSpaceOnUse" x="474" y="379" width="399" height="986">
<path d="M508.641 383.731C489.509 372.686 474 381.64 474 403.731V561.168C474 580.733 482.248 603.681 495.877 622.721C496.392 623.44 496.909 624.158 497.426 624.876C499.977 628.42 502.531 631.968 504.863 635.701L639.896 851.833L505.887 908.215C503.461 909.237 500.803 909.789 498.148 910.34C497.61 910.452 497.072 910.564 496.536 910.679C482.531 913.7 474 927.221 474 947.121V1109.38C474 1131.47 489.509 1158.33 508.641 1169.38L837.731 1359.38C856.863 1370.43 872.372 1361.47 872.372 1339.38V1181.94C872.372 1162.38 864.124 1139.43 850.494 1120.39C849.979 1119.67 849.463 1118.95 848.946 1118.24C846.395 1114.69 843.841 1111.14 841.509 1107.41L706.475 891.278L840.484 834.896C842.911 833.875 845.567 833.323 848.222 832.771C848.761 832.66 849.299 832.548 849.836 832.432C863.841 829.411 872.372 815.891 872.372 795.99V633.731C872.372 611.64 856.863 584.777 837.731 573.731L508.641 383.731Z" fill="white" fill-opacity="0.5"/>
</mask>
<g mask="url(#mask1_2348_2)">
<g filter="url(#filter23_f_2348_2)">
<path fill-rule="evenodd" clip-rule="evenodd" d="M493.537 1379.75C614.785 1449.75 713.075 1393 713.075 1253C713.075 1113 614.785 942.752 493.537 872.75C372.29 802.748 274 859.496 274 999.5C274 1139.5 372.29 1309.75 493.537 1379.75ZM455.357 938.88C455.357 920.619 468.177 913.217 483.992 922.348C499.807 931.479 512.628 953.684 512.628 971.946V1090.67L559.326 1171.55C570.509 1190.92 570.509 1211.86 559.326 1218.31C548.143 1224.77 530.012 1214.3 518.83 1194.93L464.834 1101.41C464.235 1100.37 463.667 1099.33 463.132 1098.28C458.311 1089.58 455.357 1079.91 455.357 1071.14V938.88Z" fill="#944AB8" fill-opacity="0.3"/>
</g>
</g>
<path fill-rule="evenodd" clip-rule="evenodd" d="M253.141 813.747C210.578 835.409 184 885.698 184 958.5C184 1098.5 282.29 1268.75 403.537 1338.75C461.736 1372.35 514.645 1376.75 553.934 1356.75L597.236 1331.75C557.947 1351.75 505.037 1347.35 446.839 1313.75C325.592 1243.75 227.301 1073.5 227.301 933.5C227.301 860.698 253.879 810.409 296.442 788.747L253.141 813.747Z" fill="#8637AC" fill-opacity="0.7"/>
<path fill-rule="evenodd" clip-rule="evenodd" d="M373.132 879.718C378.355 876.322 385.769 876.6 393.992 881.348C409.807 890.479 422.627 912.684 422.627 930.946V1049.67L465.929 1024.67V905.946C465.929 887.684 453.109 865.479 437.293 856.348C429.07 851.6 421.656 851.322 416.433 854.718L373.132 879.718Z" fill="#8637AC" fill-opacity="0.7"/>
<path fill-rule="evenodd" clip-rule="evenodd" d="M422.627 1049.67L469.326 1130.55C480.509 1149.92 480.509 1170.86 469.326 1177.31L512.627 1152.31C523.81 1145.86 523.81 1124.92 512.627 1105.55L465.929 1024.67L422.627 1049.67Z" fill="#8637AC" fill-opacity="0.7"/>
<g filter="url(#filter24_bii_2348_2)">
<path fill-rule="evenodd" clip-rule="evenodd" d="M553.934 1356.75C596.497 1335.09 623.075 1284.8 623.075 1212C623.075 1072 524.784 901.752 403.537 831.75C345.339 798.149 292.429 793.752 253.141 813.747L296.442 788.747C335.731 768.752 388.64 773.149 446.839 806.75C568.086 876.752 666.376 1047 666.376 1187C666.376 1259.8 639.798 1310.09 597.235 1331.75L553.934 1356.75Z" fill="#B988D1" fill-opacity="0.5"/>
</g>
<g filter="url(#filter25_bii_2348_2)">
<path fill-rule="evenodd" clip-rule="evenodd" d="M469.326 1177.31C458.143 1183.77 440.013 1173.3 428.83 1153.93L374.835 1060.41C374.235 1059.37 373.667 1058.33 373.132 1057.28C368.311 1048.58 365.357 1038.91 365.357 1030.14V897.881C365.357 889.115 368.311 882.852 373.132 879.718L416.433 854.718C411.612 857.852 408.658 864.115 408.658 872.881V1005.14C408.658 1013.91 411.612 1023.58 416.433 1032.28C416.969 1033.33 417.536 1034.37 418.136 1035.41L472.131 1128.93C483.314 1148.3 501.444 1158.77 512.627 1152.31L469.326 1177.31Z" fill="#B988D1" fill-opacity="0.5"/>
</g>
<g filter="url(#filter26_b_2348_2)">
<path fill-rule="evenodd" clip-rule="evenodd" d="M403.537 1338.75C524.785 1408.75 623.075 1352 623.075 1212C623.075 1072 524.785 901.752 403.537 831.75C282.29 761.748 184 818.496 184 958.5C184 1098.5 282.29 1268.75 403.537 1338.75ZM365.357 897.88C365.357 879.619 378.177 872.217 393.992 881.348C409.807 890.479 422.628 912.684 422.628 930.946V1049.67L469.326 1130.55C480.509 1149.92 480.509 1170.86 469.326 1177.31C458.143 1183.77 440.012 1173.3 428.83 1153.93L374.834 1060.41C374.235 1059.37 373.667 1058.33 373.132 1057.28C368.311 1048.58 365.357 1038.91 365.357 1030.14V897.88Z" fill="url(#paint3_linear_2348_2)" fill-opacity="0.5"/>
</g>
<defs>
<filter id="filter0_f_2348_2" x="248.109" y="868.527" width="945.625" height="632.624" filterUnits="userSpaceOnUse" color-interpolation-filters="sRGB">
<feFlood flood-opacity="0" result="BackgroundImageFix"/>
<feBlend mode="normal" in="SourceGraphic" in2="BackgroundImageFix" result="shape"/>
<feGaussianBlur stdDeviation="50" result="effect1_foregroundBlur_2348_2"/>
</filter>
<filter id="filter1_f_2348_2" x="200.048" y="956.218" width="791.521" height="544.2" filterUnits="userSpaceOnUse" color-interpolation-filters="sRGB">
<feFlood flood-opacity="0" result="BackgroundImageFix"/>
<feBlend mode="normal" in="SourceGraphic" in2="BackgroundImageFix" result="shape"/>
<feGaussianBlur stdDeviation="50" result="effect1_foregroundBlur_2348_2"/>
</filter>
<filter id="filter2_f_2348_2" x="836.892" y="1105.8" width="516.579" height="389.023" filterUnits="userSpaceOnUse" color-interpolation-filters="sRGB">
<feFlood flood-opacity="0" result="BackgroundImageFix"/>
<feBlend mode="normal" in="SourceGraphic" in2="BackgroundImageFix" result="shape"/>
<feGaussianBlur stdDeviation="50" result="effect1_foregroundBlur_2348_2"/>
</filter>
<filter id="filter3_f_2348_2" x="85.8184" y="1098.25" width="630.423" height="459.774" filterUnits="userSpaceOnUse" color-interpolation-filters="sRGB">
<feFlood flood-opacity="0" result="BackgroundImageFix"/>
<feBlend mode="normal" in="SourceGraphic" in2="BackgroundImageFix" result="shape"/>
<feGaussianBlur stdDeviation="50" result="effect1_foregroundBlur_2348_2"/>
</filter>
<filter id="filter4_bii_2348_2" x="1020.69" y="207.734" width="391.945" height="528.037" filterUnits="userSpaceOnUse" color-interpolation-filters="sRGB">
<feFlood flood-opacity="0" result="BackgroundImageFix"/>
<feGaussianBlur in="BackgroundImageFix" stdDeviation="10"/>
<feComposite in2="SourceAlpha" operator="in" result="effect1_backgroundBlur_2348_2"/>
<feBlend mode="normal" in="SourceGraphic" in2="effect1_backgroundBlur_2348_2" result="shape"/>
<feColorMatrix in="SourceAlpha" type="matrix" values="0 0 0 0 0 0 0 0 0 0 0 0 0 0 0 0 0 0 127 0" result="hardAlpha"/>
<feOffset dy="10"/>
<feGaussianBlur stdDeviation="10"/>
<feComposite in2="hardAlpha" operator="arithmetic" k2="-1" k3="1"/>
<feColorMatrix type="matrix" values="0 0 0 0 0 0 0 0 0 0 0 0 0 0 0 0 0 0 0.2 0"/>
<feBlend mode="normal" in2="shape" result="effect2_innerShadow_2348_2"/>
<feColorMatrix in="SourceAlpha" type="matrix" values="0 0 0 0 0 0 0 0 0 0 0 0 0 0 0 0 0 0 127 0" result="hardAlpha"/>
<feOffset dy="-10"/>
<feGaussianBlur stdDeviation="10"/>
<feComposite in2="hardAlpha" operator="arithmetic" k2="-1" k3="1"/>
<feColorMatrix type="matrix" values="0 0 0 0 1 0 0 0 0 1 0 0 0 0 1 0 0 0 0.5 0"/>
<feBlend mode="normal" in2="effect2_innerShadow_2348_2" result="effect3_innerShadow_2348_2"/>
</filter>
<filter id="filter5_bii_2348_2" x="1123.07" y="466.896" width="191.679" height="105.236" filterUnits="userSpaceOnUse" color-interpolation-filters="sRGB">
<feFlood flood-opacity="0" result="BackgroundImageFix"/>
<feGaussianBlur in="BackgroundImageFix" stdDeviation="10"/>
<feComposite in2="SourceAlpha" operator="in" result="effect1_backgroundBlur_2348_2"/>
<feBlend mode="normal" in="SourceGraphic" in2="effect1_backgroundBlur_2348_2" result="shape"/>
<feColorMatrix in="SourceAlpha" type="matrix" values="0 0 0 0 0 0 0 0 0 0 0 0 0 0 0 0 0 0 127 0" result="hardAlpha"/>
<feOffset dy="10"/>
<feGaussianBlur stdDeviation="10"/>
<feComposite in2="hardAlpha" operator="arithmetic" k2="-1" k3="1"/>
<feColorMatrix type="matrix" values="0 0 0 0 0 0 0 0 0 0 0 0 0 0 0 0 0 0 0.2 0"/>
<feBlend mode="normal" in2="shape" result="effect2_innerShadow_2348_2"/>
<feColorMatrix in="SourceAlpha" type="matrix" values="0 0 0 0 0 0 0 0 0 0 0 0 0 0 0 0 0 0 127 0" result="hardAlpha"/>
<feOffset dy="-10"/>
<feGaussianBlur stdDeviation="10"/>
<feComposite in2="hardAlpha" operator="arithmetic" k2="-1" k3="1"/>
<feColorMatrix type="matrix" values="0 0 0 0 1 0 0 0 0 1 0 0 0 0 1 0 0 0 0.5 0"/>
<feBlend mode="normal" in2="effect2_innerShadow_2348_2" result="effect3_innerShadow_2348_2"/>
</filter>
<filter id="filter6_bii_2348_2" x="1042.67" y="375.75" width="83.3013" height="109.73" filterUnits="userSpaceOnUse" color-interpolation-filters="sRGB">
<feFlood flood-opacity="0" result="BackgroundImageFix"/>
<feGaussianBlur in="BackgroundImageFix" stdDeviation="10"/>
<feComposite in2="SourceAlpha" operator="in" result="effect1_backgroundBlur_2348_2"/>
<feBlend mode="normal" in="SourceGraphic" in2="effect1_backgroundBlur_2348_2" result="shape"/>
<feColorMatrix in="SourceAlpha" type="matrix" values="0 0 0 0 0 0 0 0 0 0 0 0 0 0 0 0 0 0 127 0" result="hardAlpha"/>
<feOffset dy="10"/>
<feGaussianBlur stdDeviation="10"/>
<feComposite in2="hardAlpha" operator="arithmetic" k2="-1" k3="1"/>
<feColorMatrix type="matrix" values="0 0 0 0 0 0 0 0 0 0 0 0 0 0 0 0 0 0 0.2 0"/>
<feBlend mode="normal" in2="shape" result="effect2_innerShadow_2348_2"/>
<feColorMatrix in="SourceAlpha" type="matrix" values="0 0 0 0 0 0 0 0 0 0 0 0 0 0 0 0 0 0 127 0" result="hardAlpha"/>
<feOffset dy="-10"/>
<feGaussianBlur stdDeviation="10"/>
<feComposite in2="hardAlpha" operator="arithmetic" k2="-1" k3="1"/>
<feColorMatrix type="matrix" values="0 0 0 0 1 0 0 0 0 1 0 0 0 0 1 0 0 0 0.5 0"/>
<feBlend mode="normal" in2="effect2_innerShadow_2348_2" result="effect3_innerShadow_2348_2"/>
</filter>
<filter id="filter7_bii_2348_2" x="1042.67" y="437.496" width="83.3013" height="109.731" filterUnits="userSpaceOnUse" color-interpolation-filters="sRGB">
<feFlood flood-opacity="0" result="BackgroundImageFix"/>
<feGaussianBlur in="BackgroundImageFix" stdDeviation="10"/>
<feComposite in2="SourceAlpha" operator="in" result="effect1_backgroundBlur_2348_2"/>
<feBlend mode="normal" in="SourceGraphic" in2="effect1_backgroundBlur_2348_2" result="shape"/>
<feColorMatrix in="SourceAlpha" type="matrix" values="0 0 0 0 0 0 0 0 0 0 0 0 0 0 0 0 0 0 127 0" result="hardAlpha"/>
<feOffset dy="10"/>
<feGaussianBlur stdDeviation="10"/>
<feComposite in2="hardAlpha" operator="arithmetic" k2="-1" k3="1"/>
<feColorMatrix type="matrix" values="0 0 0 0 0 0 0 0 0 0 0 0 0 0 0 0 0 0 0.2 0"/>
<feBlend mode="normal" in2="shape" result="effect2_innerShadow_2348_2"/>
<feColorMatrix in="SourceAlpha" type="matrix" values="0 0 0 0 0 0 0 0 0 0 0 0 0 0 0 0 0 0 127 0" result="hardAlpha"/>
<feOffset dy="-10"/>
<feGaussianBlur stdDeviation="10"/>
<feComposite in2="hardAlpha" operator="arithmetic" k2="-1" k3="1"/>
<feColorMatrix type="matrix" values="0 0 0 0 1 0 0 0 0 1 0 0 0 0 1 0 0 0 0.5 0"/>
<feBlend mode="normal" in2="effect2_innerShadow_2348_2" result="effect3_innerShadow_2348_2"/>
</filter>
<filter id="filter8_bii_2348_2" x="1042.67" y="482.228" width="115.75" height="83.7344" filterUnits="userSpaceOnUse" color-interpolation-filters="sRGB">
<feFlood flood-opacity="0" result="BackgroundImageFix"/>
<feGaussianBlur in="BackgroundImageFix" stdDeviation="10"/>
<feComposite in2="SourceAlpha" operator="in" result="effect1_backgroundBlur_2348_2"/>
<feBlend mode="normal" in="SourceGraphic" in2="effect1_backgroundBlur_2348_2" result="shape"/>
<feColorMatrix in="SourceAlpha" type="matrix" values="0 0 0 0 0 0 0 0 0 0 0 0 0 0 0 0 0 0 127 0" result="hardAlpha"/>
<feOffset dy="10"/>
<feGaussianBlur stdDeviation="10"/>
<feComposite in2="hardAlpha" operator="arithmetic" k2="-1" k3="1"/>
<feColorMatrix type="matrix" values="0 0 0 0 0 0 0 0 0 0 0 0 0 0 0 0 0 0 0.2 0"/>
<feBlend mode="normal" in2="shape" result="effect2_innerShadow_2348_2"/>
<feColorMatrix in="SourceAlpha" type="matrix" values="0 0 0 0 0 0 0 0 0 0 0 0 0 0 0 0 0 0 127 0" result="hardAlpha"/>
<feOffset dy="-10"/>
<feGaussianBlur stdDeviation="10"/>
<feComposite in2="hardAlpha" operator="arithmetic" k2="-1" k3="1"/>
<feColorMatrix type="matrix" values="0 0 0 0 1 0 0 0 0 1 0 0 0 0 1 0 0 0 0.5 0"/>
<feBlend mode="normal" in2="effect2_innerShadow_2348_2" result="effect3_innerShadow_2348_2"/>
</filter>
<filter id="filter9_bii_2348_2" x="1075.12" y="500.961" width="83.3013" height="98.7734" filterUnits="userSpaceOnUse" color-interpolation-filters="sRGB">
<feFlood flood-opacity="0" result="BackgroundImageFix"/>
<feGaussianBlur in="BackgroundImageFix" stdDeviation="10"/>
<feComposite in2="SourceAlpha" operator="in" result="effect1_backgroundBlur_2348_2"/>
<feBlend mode="normal" in="SourceGraphic" in2="effect1_backgroundBlur_2348_2" result="shape"/>
<feColorMatrix in="SourceAlpha" type="matrix" values="0 0 0 0 0 0 0 0 0 0 0 0 0 0 0 0 0 0 127 0" result="hardAlpha"/>
<feOffset dy="10"/>
<feGaussianBlur stdDeviation="10"/>
<feComposite in2="hardAlpha" operator="arithmetic" k2="-1" k3="1"/>
<feColorMatrix type="matrix" values="0 0 0 0 0 0 0 0 0 0 0 0 0 0 0 0 0 0 0.2 0"/>
<feBlend mode="normal" in2="shape" result="effect2_innerShadow_2348_2"/>
<feColorMatrix in="SourceAlpha" type="matrix" values="0 0 0 0 0 0 0 0 0 0 0 0 0 0 0 0 0 0 127 0" result="hardAlpha"/>
<feOffset dy="-10"/>
<feGaussianBlur stdDeviation="10"/>
<feComposite in2="hardAlpha" operator="arithmetic" k2="-1" k3="1"/>
<feColorMatrix type="matrix" values="0 0 0 0 1 0 0 0 0 1 0 0 0 0 1 0 0 0 0.5 0"/>
<feBlend mode="normal" in2="effect2_innerShadow_2348_2" result="effect3_innerShadow_2348_2"/>
</filter>
<filter id="filter10_bii_2348_2" x="1075.12" y="534.734" width="131.248" height="92.6816" filterUnits="userSpaceOnUse" color-interpolation-filters="sRGB">
<feFlood flood-opacity="0" result="BackgroundImageFix"/>
<feGaussianBlur in="BackgroundImageFix" stdDeviation="10"/>
<feComposite in2="SourceAlpha" operator="in" result="effect1_backgroundBlur_2348_2"/>
<feBlend mode="normal" in="SourceGraphic" in2="effect1_backgroundBlur_2348_2" result="shape"/>
<feColorMatrix in="SourceAlpha" type="matrix" values="0 0 0 0 0 0 0 0 0 0 0 0 0 0 0 0 0 0 127 0" result="hardAlpha"/>
<feOffset dy="10"/>
<feGaussianBlur stdDeviation="10"/>
<feComposite in2="hardAlpha" operator="arithmetic" k2="-1" k3="1"/>
<feColorMatrix type="matrix" values="0 0 0 0 0 0 0 0 0 0 0 0 0 0 0 0 0 0 0.2 0"/>
<feBlend mode="normal" in2="shape" result="effect2_innerShadow_2348_2"/>
<feColorMatrix in="SourceAlpha" type="matrix" values="0 0 0 0 0 0 0 0 0 0 0 0 0 0 0 0 0 0 127 0" result="hardAlpha"/>
<feOffset dy="-10"/>
<feGaussianBlur stdDeviation="10"/>
<feComposite in2="hardAlpha" operator="arithmetic" k2="-1" k3="1"/>
<feColorMatrix type="matrix" values="0 0 0 0 1 0 0 0 0 1 0 0 0 0 1 0 0 0 0.5 0"/>
<feBlend mode="normal" in2="effect2_innerShadow_2348_2" result="effect3_innerShadow_2348_2"/>
</filter>
<filter id="filter11_bii_2348_2" x="1123.07" y="528.644" width="133.144" height="93.7764" filterUnits="userSpaceOnUse" color-interpolation-filters="sRGB">
<feFlood flood-opacity="0" result="BackgroundImageFix"/>
<feGaussianBlur in="BackgroundImageFix" stdDeviation="10"/>
<feComposite in2="SourceAlpha" operator="in" result="effect1_backgroundBlur_2348_2"/>
<feBlend mode="normal" in="SourceGraphic" in2="effect1_backgroundBlur_2348_2" result="shape"/>
<feColorMatrix in="SourceAlpha" type="matrix" values="0 0 0 0 0 0 0 0 0 0 0 0 0 0 0 0 0 0 127 0" result="hardAlpha"/>
<feOffset dy="10"/>
<feGaussianBlur stdDeviation="10"/>
<feComposite in2="hardAlpha" operator="arithmetic" k2="-1" k3="1"/>
<feColorMatrix type="matrix" values="0 0 0 0 0 0 0 0 0 0 0 0 0 0 0 0 0 0 0.2 0"/>
<feBlend mode="normal" in2="shape" result="effect2_innerShadow_2348_2"/>
<feColorMatrix in="SourceAlpha" type="matrix" values="0 0 0 0 0 0 0 0 0 0 0 0 0 0 0 0 0 0 127 0" result="hardAlpha"/>
<feOffset dy="-10"/>
<feGaussianBlur stdDeviation="10"/>
<feComposite in2="hardAlpha" operator="arithmetic" k2="-1" k3="1"/>
<feColorMatrix type="matrix" values="0 0 0 0 1 0 0 0 0 1 0 0 0 0 1 0 0 0 0.5 0"/>
<feBlend mode="normal" in2="effect2_innerShadow_2348_2" result="effect3_innerShadow_2348_2"/>
</filter>
<filter id="filter12_bii_2348_2" x="1123.07" y="343.791" width="162.47" height="173.043" filterUnits="userSpaceOnUse" color-interpolation-filters="sRGB">
<feFlood flood-opacity="0" result="BackgroundImageFix"/>
<feGaussianBlur in="BackgroundImageFix" stdDeviation="10"/>
<feComposite in2="SourceAlpha" operator="in" result="effect1_backgroundBlur_2348_2"/>
<feBlend mode="normal" in="SourceGraphic" in2="effect1_backgroundBlur_2348_2" result="shape"/>
<feColorMatrix in="SourceAlpha" type="matrix" values="0 0 0 0 0 0 0 0 0 0 0 0 0 0 0 0 0 0 127 0" result="hardAlpha"/>
<feOffset dy="10"/>
<feGaussianBlur stdDeviation="10"/>
<feComposite in2="hardAlpha" operator="arithmetic" k2="-1" k3="1"/>
<feColorMatrix type="matrix" values="0 0 0 0 0 0 0 0 0 0 0 0 0 0 0 0 0 0 0.2 0"/>
<feBlend mode="normal" in2="shape" result="effect2_innerShadow_2348_2"/>
<feColorMatrix in="SourceAlpha" type="matrix" values="0 0 0 0 0 0 0 0 0 0 0 0 0 0 0 0 0 0 127 0" result="hardAlpha"/>
<feOffset dy="-10"/>
<feGaussianBlur stdDeviation="10"/>
<feComposite in2="hardAlpha" operator="arithmetic" k2="-1" k3="1"/>
<feColorMatrix type="matrix" values="0 0 0 0 1 0 0 0 0 1 0 0 0 0 1 0 0 0 0.5 0"/>
<feBlend mode="normal" in2="effect2_innerShadow_2348_2" result="effect3_innerShadow_2348_2"/>
</filter>
<filter id="filter13_bii_2348_2" x="1042.67" y="420.48" width="115.75" height="83.7344" filterUnits="userSpaceOnUse" color-interpolation-filters="sRGB">
<feFlood flood-opacity="0" result="BackgroundImageFix"/>
<feGaussianBlur in="BackgroundImageFix" stdDeviation="10"/>
<feComposite in2="SourceAlpha" operator="in" result="effect1_backgroundBlur_2348_2"/>
<feBlend mode="normal" in="SourceGraphic" in2="effect1_backgroundBlur_2348_2" result="shape"/>
<feColorMatrix in="SourceAlpha" type="matrix" values="0 0 0 0 0 0 0 0 0 0 0 0 0 0 0 0 0 0 127 0" result="hardAlpha"/>
<feOffset dy="10"/>
<feGaussianBlur stdDeviation="10"/>
<feComposite in2="hardAlpha" operator="arithmetic" k2="-1" k3="1"/>
<feColorMatrix type="matrix" values="0 0 0 0 0 0 0 0 0 0 0 0 0 0 0 0 0 0 0.2 0"/>
<feBlend mode="normal" in2="shape" result="effect2_innerShadow_2348_2"/>
<feColorMatrix in="SourceAlpha" type="matrix" values="0 0 0 0 0 0 0 0 0 0 0 0 0 0 0 0 0 0 127 0" result="hardAlpha"/>
<feOffset dy="-10"/>
<feGaussianBlur stdDeviation="10"/>
<feComposite in2="hardAlpha" operator="arithmetic" k2="-1" k3="1"/>
<feColorMatrix type="matrix" values="0 0 0 0 1 0 0 0 0 1 0 0 0 0 1 0 0 0 0.5 0"/>
<feBlend mode="normal" in2="effect2_innerShadow_2348_2" result="effect3_innerShadow_2348_2"/>
</filter>
<filter id="filter14_bii_2348_2" x="1075.12" y="439.214" width="83.3013" height="82.0156" filterUnits="userSpaceOnUse" color-interpolation-filters="sRGB">
<feFlood flood-opacity="0" result="BackgroundImageFix"/>
<feGaussianBlur in="BackgroundImageFix" stdDeviation="10"/>
<feComposite in2="SourceAlpha" operator="in" result="effect1_backgroundBlur_2348_2"/>
<feBlend mode="normal" in="SourceGraphic" in2="effect1_backgroundBlur_2348_2" result="shape"/>
<feColorMatrix in="SourceAlpha" type="matrix" values="0 0 0 0 0 0 0 0 0 0 0 0 0 0 0 0 0 0 127 0" result="hardAlpha"/>
<feOffset dy="10"/>
<feGaussianBlur stdDeviation="10"/>
<feComposite in2="hardAlpha" operator="arithmetic" k2="-1" k3="1"/>
<feColorMatrix type="matrix" values="0 0 0 0 0 0 0 0 0 0 0 0 0 0 0 0 0 0 0.2 0"/>
<feBlend mode="normal" in2="shape" result="effect2_innerShadow_2348_2"/>
<feColorMatrix in="SourceAlpha" type="matrix" values="0 0 0 0 0 0 0 0 0 0 0 0 0 0 0 0 0 0 127 0" result="hardAlpha"/>
<feOffset dy="-10"/>
<feGaussianBlur stdDeviation="10"/>
<feComposite in2="hardAlpha" operator="arithmetic" k2="-1" k3="1"/>
<feColorMatrix type="matrix" values="0 0 0 0 1 0 0 0 0 1 0 0 0 0 1 0 0 0 0.5 0"/>
<feBlend mode="normal" in2="effect2_innerShadow_2348_2" result="effect3_innerShadow_2348_2"/>
</filter>
<filter id="filter15_bii_2348_2" x="1075.12" y="270.734" width="83.3013" height="188.75" filterUnits="userSpaceOnUse" color-interpolation-filters="sRGB">
<feFlood flood-opacity="0" result="BackgroundImageFix"/>
<feGaussianBlur in="BackgroundImageFix" stdDeviation="10"/>
<feComposite in2="SourceAlpha" operator="in" result="effect1_backgroundBlur_2348_2"/>
<feBlend mode="normal" in="SourceGraphic" in2="effect1_backgroundBlur_2348_2" result="shape"/>
<feColorMatrix in="SourceAlpha" type="matrix" values="0 0 0 0 0 0 0 0 0 0 0 0 0 0 0 0 0 0 127 0" result="hardAlpha"/>
<feOffset dy="10"/>
<feGaussianBlur stdDeviation="10"/>
<feComposite in2="hardAlpha" operator="arithmetic" k2="-1" k3="1"/>
<feColorMatrix type="matrix" values="0 0 0 0 0 0 0 0 0 0 0 0 0 0 0 0 0 0 0.2 0"/>
<feBlend mode="normal" in2="shape" result="effect2_innerShadow_2348_2"/>
<feColorMatrix in="SourceAlpha" type="matrix" values="0 0 0 0 0 0 0 0 0 0 0 0 0 0 0 0 0 0 127 0" result="hardAlpha"/>
<feOffset dy="-10"/>
<feGaussianBlur stdDeviation="10"/>
<feComposite in2="hardAlpha" operator="arithmetic" k2="-1" k3="1"/>
<feColorMatrix type="matrix" values="0 0 0 0 1 0 0 0 0 1 0 0 0 0 1 0 0 0 0.5 0"/>
<feBlend mode="normal" in2="effect2_innerShadow_2348_2" result="effect3_innerShadow_2348_2"/>
</filter>
<filter id="filter16_b_2348_2" x="953" y="222.734" width="426.329" height="533.032" filterUnits="userSpaceOnUse" color-interpolation-filters="sRGB">
<feFlood flood-opacity="0" result="BackgroundImageFix"/>
<feGaussianBlur in="BackgroundImageFix" stdDeviation="15"/>
<feComposite in2="SourceAlpha" operator="in" result="effect1_backgroundBlur_2348_2"/>
<feBlend mode="normal" in="SourceGraphic" in2="effect1_backgroundBlur_2348_2" result="shape"/>
</filter>
<filter id="filter17_ii_2348_2" x="498.811" y="229.774" width="716.913" height="1020.41" filterUnits="userSpaceOnUse" color-interpolation-filters="sRGB">
<feFlood flood-opacity="0" result="BackgroundImageFix"/>
<feBlend mode="normal" in="SourceGraphic" in2="BackgroundImageFix" result="shape"/>
<feColorMatrix in="SourceAlpha" type="matrix" values="0 0 0 0 0 0 0 0 0 0 0 0 0 0 0 0 0 0 127 0" result="hardAlpha"/>
<feOffset dy="10"/>
<feGaussianBlur stdDeviation="15"/>
<feComposite in2="hardAlpha" operator="arithmetic" k2="-1" k3="1"/>
<feColorMatrix type="matrix" values="0 0 0 0 0 0 0 0 0 0 0 0 0 0 0 0 0 0 0.2 0"/>
<feBlend mode="normal" in2="shape" result="effect1_innerShadow_2348_2"/>
<feColorMatrix in="SourceAlpha" type="matrix" values="0 0 0 0 0 0 0 0 0 0 0 0 0 0 0 0 0 0 127 0" result="hardAlpha"/>
<feOffset dy="-10"/>
<feGaussianBlur stdDeviation="15"/>
<feComposite in2="hardAlpha" operator="arithmetic" k2="-1" k3="1"/>
<feColorMatrix type="matrix" values="0 0 0 0 1 0 0 0 0 1 0 0 0 0 1 0 0 0 0.1 0"/>
<feBlend mode="normal" in2="effect1_innerShadow_2348_2" result="effect2_innerShadow_2348_2"/>
</filter>
<filter id="filter18_f_2348_2" x="548" y="381" width="438.372" height="1025.11" filterUnits="userSpaceOnUse" color-interpolation-filters="sRGB">
<feFlood flood-opacity="0" result="BackgroundImageFix"/>
<feBlend mode="normal" in="SourceGraphic" in2="BackgroundImageFix" result="shape"/>
<feGaussianBlur stdDeviation="10" result="effect1_foregroundBlur_2348_2"/>
</filter>
<filter id="filter19_bii_2348_2" x="470.247" y="806.834" width="232.951" height="126.085" filterUnits="userSpaceOnUse" color-interpolation-filters="sRGB">
<feFlood flood-opacity="0" result="BackgroundImageFix"/>
<feGaussianBlur in="BackgroundImageFix" stdDeviation="10"/>
<feComposite in2="SourceAlpha" operator="in" result="effect1_backgroundBlur_2348_2"/>
<feBlend mode="normal" in="SourceGraphic" in2="effect1_backgroundBlur_2348_2" result="shape"/>
<feColorMatrix in="SourceAlpha" type="matrix" values="0 0 0 0 0 0 0 0 0 0 0 0 0 0 0 0 0 0 127 0" result="hardAlpha"/>
<feOffset dy="10"/>
<feGaussianBlur stdDeviation="10"/>
<feComposite in2="hardAlpha" operator="arithmetic" k2="-1" k3="1"/>
<feColorMatrix type="matrix" values="0 0 0 0 0 0 0 0 0 0 0 0 0 0 0 0 0 0 0.2 0"/>
<feBlend mode="normal" in2="shape" result="effect2_innerShadow_2348_2"/>
<feColorMatrix in="SourceAlpha" type="matrix" values="0 0 0 0 0 0 0 0 0 0 0 0 0 0 0 0 0 0 127 0" result="hardAlpha"/>
<feOffset dy="-10"/>
<feGaussianBlur stdDeviation="10"/>
<feComposite in2="hardAlpha" operator="arithmetic" k2="-1" k3="1"/>
<feColorMatrix type="matrix" values="0 0 0 0 1 0 0 0 0 1 0 0 0 0 1 0 0 0 0.5 0"/>
<feBlend mode="normal" in2="effect2_innerShadow_2348_2" result="effect3_innerShadow_2348_2"/>
</filter>
<filter id="filter20_bii_2348_2" x="686.475" y="846.278" width="249.198" height="535.943" filterUnits="userSpaceOnUse" color-interpolation-filters="sRGB">
<feFlood flood-opacity="0" result="BackgroundImageFix"/>
<feGaussianBlur in="BackgroundImageFix" stdDeviation="10"/>
<feComposite in2="SourceAlpha" operator="in" result="effect1_backgroundBlur_2348_2"/>
<feBlend mode="normal" in="SourceGraphic" in2="effect1_backgroundBlur_2348_2" result="shape"/>
<feColorMatrix in="SourceAlpha" type="matrix" values="0 0 0 0 0 0 0 0 0 0 0 0 0 0 0 0 0 0 127 0" result="hardAlpha"/>
<feOffset dy="10"/>
<feGaussianBlur stdDeviation="10"/>
<feComposite in2="hardAlpha" operator="arithmetic" k2="-1" k3="1"/>
<feColorMatrix type="matrix" values="0 0 0 0 0 0 0 0 0 0 0 0 0 0 0 0 0 0 0.2 0"/>
<feBlend mode="normal" in2="shape" result="effect2_innerShadow_2348_2"/>
<feColorMatrix in="SourceAlpha" type="matrix" values="0 0 0 0 0 0 0 0 0 0 0 0 0 0 0 0 0 0 127 0" result="hardAlpha"/>
<feOffset dy="-10"/>
<feGaussianBlur stdDeviation="10"/>
<feComposite in2="hardAlpha" operator="arithmetic" k2="-1" k3="1"/>
<feColorMatrix type="matrix" values="0 0 0 0 1 0 0 0 0 1 0 0 0 0 1 0 0 0 0.5 0"/>
<feBlend mode="normal" in2="effect2_innerShadow_2348_2" result="effect3_innerShadow_2348_2"/>
</filter>
<filter id="filter21_bii_2348_2" x="464.91" y="334" width="470.763" height="516.192" filterUnits="userSpaceOnUse" color-interpolation-filters="sRGB">
<feFlood flood-opacity="0" result="BackgroundImageFix"/>
<feGaussianBlur in="BackgroundImageFix" stdDeviation="10"/>
<feComposite in2="SourceAlpha" operator="in" result="effect1_backgroundBlur_2348_2"/>
<feBlend mode="normal" in="SourceGraphic" in2="effect1_backgroundBlur_2348_2" result="shape"/>
<feColorMatrix in="SourceAlpha" type="matrix" values="0 0 0 0 0 0 0 0 0 0 0 0 0 0 0 0 0 0 127 0" result="hardAlpha"/>
<feOffset dy="10"/>
<feGaussianBlur stdDeviation="10"/>
<feComposite in2="hardAlpha" operator="arithmetic" k2="-1" k3="1"/>
<feColorMatrix type="matrix" values="0 0 0 0 0 0 0 0 0 0 0 0 0 0 0 0 0 0 0.2 0"/>
<feBlend mode="normal" in2="shape" result="effect2_innerShadow_2348_2"/>
<feColorMatrix in="SourceAlpha" type="matrix" values="0 0 0 0 0 0 0 0 0 0 0 0 0 0 0 0 0 0 127 0" result="hardAlpha"/>
<feOffset dy="-10"/>
<feGaussianBlur stdDeviation="10"/>
<feComposite in2="hardAlpha" operator="arithmetic" k2="-1" k3="1"/>
<feColorMatrix type="matrix" values="0 0 0 0 1 0 0 0 0 1 0 0 0 0 1 0 0 0 0.5 0"/>
<feBlend mode="normal" in2="effect2_innerShadow_2348_2" result="effect3_innerShadow_2348_2"/>
</filter>
<filter id="filter22_b_2348_2" x="444" y="349" width="458.372" height="1045.11" filterUnits="userSpaceOnUse" color-interpolation-filters="sRGB">
<feFlood flood-opacity="0" result="BackgroundImageFix"/>
<feGaussianBlur in="BackgroundImageFix" stdDeviation="15"/>
<feComposite in2="SourceAlpha" operator="in" result="effect1_backgroundBlur_2348_2"/>
<feBlend mode="normal" in="SourceGraphic" in2="effect1_backgroundBlur_2348_2" result="shape"/>
</filter>
<filter id="filter23_f_2348_2" x="254" y="822.766" width="479.075" height="606.968" filterUnits="userSpaceOnUse" color-interpolation-filters="sRGB">
<feFlood flood-opacity="0" result="BackgroundImageFix"/>
<feBlend mode="normal" in="SourceGraphic" in2="BackgroundImageFix" result="shape"/>
<feGaussianBlur stdDeviation="10" result="effect1_foregroundBlur_2348_2"/>
</filter>
<filter id="filter24_bii_2348_2" x="233.141" y="756.767" width="453.235" height="619.987" filterUnits="userSpaceOnUse" color-interpolation-filters="sRGB">
<feFlood flood-opacity="0" result="BackgroundImageFix"/>
<feGaussianBlur in="BackgroundImageFix" stdDeviation="10"/>
<feComposite in2="SourceAlpha" operator="in" result="effect1_backgroundBlur_2348_2"/>
<feBlend mode="normal" in="SourceGraphic" in2="effect1_backgroundBlur_2348_2" result="shape"/>
<feColorMatrix in="SourceAlpha" type="matrix" values="0 0 0 0 0 0 0 0 0 0 0 0 0 0 0 0 0 0 127 0" result="hardAlpha"/>
<feOffset dy="10"/>
<feGaussianBlur stdDeviation="10"/>
<feComposite in2="hardAlpha" operator="arithmetic" k2="-1" k3="1"/>
<feColorMatrix type="matrix" values="0 0 0 0 0 0 0 0 0 0 0 0 0 0 0 0 0 0 0.2 0"/>
<feBlend mode="normal" in2="shape" result="effect2_innerShadow_2348_2"/>
<feColorMatrix in="SourceAlpha" type="matrix" values="0 0 0 0 0 0 0 0 0 0 0 0 0 0 0 0 0 0 127 0" result="hardAlpha"/>
<feOffset dy="-10"/>
<feGaussianBlur stdDeviation="10"/>
<feComposite in2="hardAlpha" operator="arithmetic" k2="-1" k3="1"/>
<feColorMatrix type="matrix" values="0 0 0 0 1 0 0 0 0 1 0 0 0 0 1 0 0 0 0.5 0"/>
<feBlend mode="normal" in2="effect2_innerShadow_2348_2" result="effect3_innerShadow_2348_2"/>
</filter>
<filter id="filter25_bii_2348_2" x="345.357" y="834.718" width="187.27" height="364.502" filterUnits="userSpaceOnUse" color-interpolation-filters="sRGB">
<feFlood flood-opacity="0" result="BackgroundImageFix"/>
<feGaussianBlur in="BackgroundImageFix" stdDeviation="10"/>
<feComposite in2="SourceAlpha" operator="in" result="effect1_backgroundBlur_2348_2"/>
<feBlend mode="normal" in="SourceGraphic" in2="effect1_backgroundBlur_2348_2" result="shape"/>
<feColorMatrix in="SourceAlpha" type="matrix" values="0 0 0 0 0 0 0 0 0 0 0 0 0 0 0 0 0 0 127 0" result="hardAlpha"/>
<feOffset dy="10"/>
<feGaussianBlur stdDeviation="10"/>
<feComposite in2="hardAlpha" operator="arithmetic" k2="-1" k3="1"/>
<feColorMatrix type="matrix" values="0 0 0 0 0 0 0 0 0 0 0 0 0 0 0 0 0 0 0.2 0"/>
<feBlend mode="normal" in2="shape" result="effect2_innerShadow_2348_2"/>
<feColorMatrix in="SourceAlpha" type="matrix" values="0 0 0 0 0 0 0 0 0 0 0 0 0 0 0 0 0 0 127 0" result="hardAlpha"/>
<feOffset dy="-10"/>
<feGaussianBlur stdDeviation="10"/>
<feComposite in2="hardAlpha" operator="arithmetic" k2="-1" k3="1"/>
<feColorMatrix type="matrix" values="0 0 0 0 1 0 0 0 0 1 0 0 0 0 1 0 0 0 0.5 0"/>
<feBlend mode="normal" in2="effect2_innerShadow_2348_2" result="effect3_innerShadow_2348_2"/>
</filter>
<filter id="filter26_b_2348_2" x="154" y="771.766" width="499.075" height="626.968" filterUnits="userSpaceOnUse" color-interpolation-filters="sRGB">
<feFlood flood-opacity="0" result="BackgroundImageFix"/>
<feGaussianBlur in="BackgroundImageFix" stdDeviation="15"/>
<feComposite in2="SourceAlpha" operator="in" result="effect1_backgroundBlur_2348_2"/>
<feBlend mode="normal" in="SourceGraphic" in2="effect1_backgroundBlur_2348_2" result="shape"/>
</filter>
<linearGradient id="paint0_linear_2348_2" x1="1166.16" y1="258.104" x2="948.162" y2="635.695" gradientUnits="userSpaceOnUse">
<stop stop-color="#424043"/>
<stop offset="1" stop-color="#48434D"/>
</linearGradient>
<linearGradient id="paint1_linear_2348_2" x1="782.711" y1="318" x2="393" y2="993" gradientUnits="userSpaceOnUse">
<stop stop-color="#414042"/>
<stop offset="1" stop-color="#4A4450"/>
</linearGradient>
<linearGradient id="paint2_linear_2348_2" x1="782.711" y1="318" x2="393" y2="993" gradientUnits="userSpaceOnUse">
<stop stop-color="#414042"/>
<stop offset="1" stop-color="#4A4450"/>
</linearGradient>
<linearGradient id="paint3_linear_2348_2" x1="403.537" y1="808.203" x2="142.244" y2="1260.78" gradientUnits="userSpaceOnUse">
<stop stop-color="#6D2F8B"/>
<stop offset="1" stop-color="#5A2375"/>
</linearGradient>
</defs>
</svg>
