<svg width="1600" height="1600" viewBox="0 0 1600 1600" fill="none" xmlns="http://www.w3.org/2000/svg">
<path d="M1331.42 916C1331.42 1164.53 1156.94 1265.26 941.711 1141C726.48 1016.74 552 714.528 552 466C552 217.472 726.48 116.736 941.711 241C1156.94 365.264 1331.42 667.472 1331.42 916Z" stroke="#76B82A" stroke-width="8" stroke-dasharray="24 24"/>
<path fill-rule="evenodd" clip-rule="evenodd" d="M1003.27 213.919C1000.02 215.577 998 219.418 998 224.974V301.122C998 310.585 1001.98 321.68 1008.56 330.88C1008.81 331.228 1009.06 331.575 1009.31 331.922C1010.54 333.635 1011.77 335.348 1012.89 337.153L1078.06 441.608L1121.36 416.608L1056.2 312.153C1055.07 310.348 1053.84 308.635 1052.61 306.922C1052.36 306.575 1052.11 306.228 1051.86 305.88C1045.28 296.68 1041.3 285.585 1041.3 276.122V199.974C1041.3 194.418 1043.33 190.577 1046.57 188.919L1003.27 213.919Z" fill="#544199" fill-opacity="0.7"/>
<path fill-rule="evenodd" clip-rule="evenodd" d="M1005.84 471.246C1000.91 473.802 998 479.714 998 487.799V566.28C998 576.965 1005.48 589.948 1014.72 595.279L1173.54 686.975C1177.97 689.533 1182 689.864 1184.99 688.334L1228.29 663.334C1225.3 664.864 1221.27 664.533 1216.84 661.975L1058.02 570.279C1048.79 564.948 1041.3 551.965 1041.3 541.28V462.799C1041.3 454.714 1044.21 448.802 1049.14 446.246L1005.84 471.246Z" fill="#544199" fill-opacity="0.7"/>
<g filter="url(#filter0_bii_2455_980)">
<path fill-rule="evenodd" clip-rule="evenodd" d="M1078.06 441.608L1013.39 468.961C1012.22 469.456 1010.93 469.726 1009.65 469.994C1009.39 470.048 1009.13 470.102 1008.88 470.159C1007.79 470.394 1006.78 470.759 1005.84 471.246L1049.14 446.246C1050.08 445.759 1051.1 445.394 1052.18 445.159C1052.44 445.102 1052.69 445.048 1052.95 444.994C1054.24 444.726 1055.52 444.456 1056.69 443.961L1121.36 416.608L1078.06 441.608Z" fill="#7F6EBD" fill-opacity="0.5"/>
</g>
<g filter="url(#filter1_bii_2455_980)">
<path fill-rule="evenodd" clip-rule="evenodd" d="M1184.99 688.334C1188.23 686.676 1190.26 682.836 1190.26 677.28V601.131C1190.26 591.669 1186.28 580.574 1179.7 571.373C1179.45 571.025 1179.2 570.678 1178.95 570.332C1177.72 568.619 1176.49 566.905 1175.36 565.1L1110.2 460.645L1153.5 435.645L1218.66 540.1C1219.79 541.905 1221.02 543.619 1222.25 545.332C1222.5 545.678 1222.75 546.025 1223 546.373C1229.58 555.574 1233.56 566.669 1233.56 576.131V652.28C1233.56 657.836 1231.54 661.676 1228.29 663.334L1184.99 688.334Z" fill="#7F6EBD" fill-opacity="0.5"/>
</g>
<path fill-rule="evenodd" clip-rule="evenodd" d="M1110.2 460.645L1174.87 433.291C1176.04 432.796 1177.32 432.528 1178.6 432.259C1178.86 432.204 1179.12 432.151 1179.38 432.094C1180.46 431.859 1181.48 431.494 1182.42 431.007L1225.72 406.007C1224.78 406.494 1223.76 406.859 1222.68 407.094C1222.43 407.151 1222.16 407.204 1221.9 407.259C1220.62 407.528 1219.34 407.796 1218.17 408.291L1153.5 435.645L1110.2 460.645Z" fill="#7F6EBD" fill-opacity="0.5"/>
<g filter="url(#filter2_bii_2455_980)">
<path fill-rule="evenodd" clip-rule="evenodd" d="M1182.42 431.007C1187.35 428.451 1190.26 422.54 1190.26 414.454V335.974C1190.26 325.289 1182.77 312.305 1173.54 306.975L1014.72 215.279C1010.29 212.72 1006.26 212.39 1003.27 213.919L1046.57 188.919C1049.56 187.39 1053.59 187.72 1058.02 190.279L1216.84 281.975C1226.07 287.305 1233.56 300.289 1233.56 310.974V389.454C1233.56 397.54 1230.65 403.451 1225.72 406.007L1182.42 431.007Z" fill="#7F6EBD" fill-opacity="0.5"/>
</g>
<g filter="url(#filter3_b_2455_980)">
<path d="M1014.72 215.279C1005.48 209.948 998 214.288 998 224.974V301.122C998 310.585 1001.98 321.679 1008.56 330.88C1008.81 331.228 1009.06 331.575 1009.31 331.922C1010.54 333.634 1011.77 335.348 1012.89 337.153L1078.06 441.608L1013.39 468.961C1012.22 469.457 1010.94 469.725 1009.65 469.994C1009.39 470.048 1009.13 470.103 1008.88 470.159C1002.12 471.628 998 478.173 998 487.799V566.279C998 576.964 1005.48 589.948 1014.72 595.279L1173.54 686.974C1182.77 692.305 1190.26 687.964 1190.26 677.279V601.131C1190.26 591.668 1186.28 580.574 1179.7 571.373C1179.45 571.025 1179.2 570.678 1178.95 570.331C1177.72 568.619 1176.49 566.904 1175.36 565.1L1110.19 460.645L1174.87 433.292C1176.04 432.797 1177.32 432.528 1178.6 432.26C1178.86 432.205 1179.12 432.151 1179.38 432.094C1186.14 430.625 1190.26 424.08 1190.26 414.454V335.974C1190.26 325.288 1182.77 312.305 1173.54 306.974L1014.72 215.279Z" fill="url(#paint0_linear_2455_980)" fill-opacity="0.5"/>
</g>
<g filter="url(#filter4_f_2455_980)">
<ellipse cx="728.553" cy="1275.18" rx="386.073" ry="34.8113" transform="rotate(30 728.553 1275.18)" fill="#201F21" fill-opacity="0.2"/>
</g>
<g filter="url(#filter5_f_2455_980)">
<ellipse cx="772.246" cy="1203.52" rx="426.764" ry="57.5755" transform="rotate(30 772.246 1203.52)" fill="#5E48AC" fill-opacity="0.3"/>
</g>
<g filter="url(#filter6_f_2455_980)">
<ellipse cx="475.577" cy="1337.57" rx="225.484" ry="50.6059" transform="rotate(30 475.577 1337.57)" fill="#71C016" fill-opacity="0.3"/>
</g>
<g filter="url(#filter7_ii_2455_980)">
<path fill-rule="evenodd" clip-rule="evenodd" d="M506.811 327.812C577.889 281.605 678.79 285.383 790.711 350C1005.94 474.264 1180.42 776.472 1180.42 1025C1180.42 1144.29 1140.22 1229.54 1074.61 1272.19L1117.91 1247.19C1183.52 1204.54 1223.72 1119.29 1223.72 1000C1223.72 751.472 1049.24 449.264 834.012 325C722.092 260.383 621.19 256.605 550.112 302.812L506.811 327.812Z" fill="#8D7BCC"/>
</g>
<g filter="url(#filter8_b_2455_980)">
<path d="M1180.42 1025C1180.42 1273.53 1005.94 1374.26 790.711 1250C575.48 1125.74 401 823.528 401 575C401 326.472 575.48 225.736 790.711 350C1005.94 474.264 1180.42 776.472 1180.42 1025Z" fill="url(#paint1_linear_2455_980)"/>
</g>
<path fill-rule="evenodd" clip-rule="evenodd" d="M396 670.375C396 566.968 432.263 494.321 490.914 460.446L534.215 435.446C475.565 469.321 439.301 541.968 439.301 645.375C439.301 667.545 440.968 690.225 444.165 713.178L480.304 692.313L528.682 720.245C529.989 684.596 533.946 651.903 540.184 622.703L459.882 576.34L503.183 551.34L551.91 579.473C564.956 540.739 582.926 510.643 604.606 491.344C572.716 489.394 543.922 495.831 519.534 509.904L562.779 484.936C587.179 470.841 615.992 464.393 647.907 466.344C625.687 486.124 607.364 517.245 594.246 557.384L553.949 580.65L583.485 597.703C577.049 627.829 573.042 661.673 571.867 698.646L531.57 721.912L571.867 745.178C572.327 760.191 573.222 775.227 574.527 790.22L612.205 768.467L700.07 819.195L700.07 715.013L581.748 646.7L625.049 621.7L700.07 665.013V521.18C682.946 516.575 666.331 518.931 650.918 527.824L694.219 502.824C709.632 493.931 726.248 491.575 743.372 496.18L743.371 542.711L783.668 519.446C804.482 537.882 824.546 565.736 842.61 600.807C845.23 605.892 847.801 611.118 850.321 616.476L879.132 599.841C929.681 655.121 972.45 722.488 1002.23 792.931L961.928 816.197L1023.86 851.951C1036.47 892.6 1044.42 933.437 1046.74 972.811L1006.44 996.077L1046.74 1019.34C1044.42 1056.04 1036.47 1087.71 1023.86 1113.78L983.559 1137.05L1002.23 1147.83C991.234 1161.14 978.472 1171.99 964.202 1180.22L920.96 1205.19C935.206 1196.96 947.948 1186.12 958.924 1172.83L889.492 1132.74L932.793 1107.74L981.846 1136.06C993.715 1110.51 1001.2 1079.78 1003.43 1044.34L911.871 991.479L955.172 966.479L1003.21 994.212C1000.63 955.951 992.788 916.362 980.554 876.951L910.296 836.387C912.611 856.407 914.151 876.571 914.834 896.658L874.536 919.924L914.834 943.189C913.522 980.268 909.045 1013.97 901.99 1043.43L861.693 1066.69L890.02 1083.05C877.64 1116.11 861.352 1140.9 842.61 1155.64L799.309 1180.64C818.051 1165.9 834.338 1141.11 846.719 1108.05L743.371 1048.38V1145.68L705.555 1167.51C724.362 1182.29 743.733 1195.51 763.52 1206.94C853.074 1258.64 934.119 1263.56 992.781 1229.7L949.523 1254.68C890.858 1288.56 809.794 1283.65 720.218 1231.94C541.089 1128.52 396 877.215 396 670.375ZM871.152 667.053C905.342 711.647 934.636 761.601 956.958 813.328L943.553 805.588L908.967 825.557C907.047 810.771 904.71 796.086 901.99 781.591L849.723 751.415L890.021 728.149C884.472 706.924 878.139 686.455 871.152 667.053ZM743.371 643.482V547.177C763.11 565.583 782.115 592.426 799.309 625.807C817.51 661.143 833.396 703.275 845.637 749.056L783.668 713.278L743.371 736.544L743.371 690.013L703.074 666.747L743.371 643.482ZM871.403 918.115C869.944 880.686 865.528 843.038 858.689 806.591L743.371 740.013L743.371 797.664L703.074 820.93L743.371 844.195L743.371 890.727L783.668 867.461L871.403 918.115ZM859.407 1065.37C866.048 1036.65 870.266 1003.99 871.533 968.189L743.371 894.195L743.371 951.847L703.074 975.112L743.371 998.378V1044.91L783.668 1021.64L859.407 1065.37ZM700.07 973.378L700.07 869.195L575.153 797.074C577.155 818.054 579.955 838.933 583.485 859.537L543.188 882.802L594.246 912.28C597.687 926.785 601.487 941.082 605.621 955.103L637.019 936.976L700.07 973.378ZM610.747 971.808L700.07 1023.38V1163.15C670.995 1139.71 643.323 1112.59 617.616 1082.77L647.907 1065.28C633.85 1036.54 621.353 1005.06 610.747 971.808ZM528.566 770.178C529.701 807.201 533.478 844.356 539.534 880.693L524.814 872.194L495.678 889.015C471.493 834.203 454.136 777.511 445.501 722.22L528.566 770.178ZM550.944 937.28C559.261 972.332 569.67 1006.18 581.838 1037.83C552.837 998.401 527.191 955.624 505.933 911.293L550.944 937.28Z" fill="#CDCDCD" fill-opacity="0.9"/>
<g filter="url(#filter9_bii_2455_980)">
<path d="M740.367 1193.95C757.491 1198.55 774.107 1196.19 789.52 1187.3L832.821 1162.3C817.408 1171.19 800.792 1173.55 783.668 1168.95L740.367 1193.95Z" fill="#FAFAFA" fill-opacity="0.8"/>
<path d="M835.831 1223.78C867.721 1225.73 896.513 1219.29 920.901 1205.22L964.202 1180.22C939.815 1194.29 911.022 1200.73 879.132 1198.78L835.831 1223.78Z" fill="#FAFAFA" fill-opacity="0.8"/>
</g>
<g filter="url(#filter10_bii_2455_980)">
<path d="M481.511 542.297C492.488 529.003 505.23 518.166 519.477 509.936L562.779 484.936C548.532 493.166 535.789 504.003 524.813 517.297L481.511 542.297Z" fill="#FAFAFA" fill-opacity="0.8"/>
<path d="M437.002 670.782C439.317 634.081 447.263 602.419 459.881 576.34L503.182 551.34C490.564 577.419 482.618 609.081 480.303 645.782L437.002 670.782Z" fill="#FAFAFA" fill-opacity="0.8"/>
<path d="M437.002 717.313C439.317 756.688 447.263 797.525 459.881 838.174L503.182 813.174C490.564 772.525 482.618 731.688 480.303 692.313L437.002 717.313Z" fill="#FAFAFA" fill-opacity="0.8"/>
<path d="M481.512 897.194C511.287 967.637 554.056 1035 604.605 1090.28L633.416 1073.65C635.936 1079.01 638.507 1084.23 641.127 1089.32C659.191 1124.39 679.255 1152.24 700.069 1170.68L740.366 1147.41V1193.95L783.667 1168.95V1021.64L740.366 1046.64V1142.95C720.627 1124.54 701.622 1097.7 684.428 1064.32C665.686 1027.93 649.398 984.338 637.018 936.976L593.717 961.976C599.265 983.201 605.598 1003.67 612.585 1023.07C577.382 977.156 547.369 925.558 524.813 872.194L481.512 897.194Z" fill="#FAFAFA" fill-opacity="0.8"/>
<path d="M593.717 607.079C606.097 574.012 622.384 549.225 641.127 534.481L684.428 509.481C665.686 524.225 649.398 549.012 637.018 582.079L593.717 607.079Z" fill="#FAFAFA" fill-opacity="0.8"/>
<path d="M568.903 746.936C570.215 709.857 574.692 676.15 581.747 646.7L625.048 621.7C617.993 651.15 613.516 684.857 612.205 721.936L568.903 746.936Z" fill="#FAFAFA" fill-opacity="0.8"/>
<path d="M568.903 793.467C570.215 832.061 574.692 870.937 581.747 908.533L625.048 883.533C617.993 845.937 613.516 807.061 612.205 768.467L568.903 793.467Z" fill="#FAFAFA" fill-opacity="0.8"/>
<path d="M740.366 691.747V544.446L783.667 519.446V666.747L740.366 691.747Z" fill="#FAFAFA" fill-opacity="0.8"/>
<path d="M740.366 845.93V738.278L783.667 713.278V820.93L740.366 845.93Z" fill="#FAFAFA" fill-opacity="0.8"/>
<path d="M740.366 892.461V1000.11L783.667 975.112V867.461L740.366 892.461Z" fill="#FAFAFA" fill-opacity="0.8"/>
<path d="M889.491 777.844C876.373 722.558 858.05 670.279 835.83 624.841L879.131 599.841C901.352 645.279 919.674 697.558 932.793 752.844L889.491 777.844Z" fill="#FAFAFA" fill-opacity="0.8"/>
<path d="M911.87 944.947C910.695 906.618 906.687 868.146 900.252 830.588L943.553 805.588C949.989 843.146 953.996 881.618 955.171 919.947L911.87 944.947Z" fill="#FAFAFA" fill-opacity="0.8"/>
<path d="M911.87 991.479C910.695 1028.45 906.687 1062.3 900.252 1092.42L943.553 1067.42C949.989 1037.3 953.996 1003.45 955.171 966.479L911.87 991.479Z" fill="#FAFAFA" fill-opacity="0.8"/>
<path d="M889.491 1132.74C876.373 1172.88 858.05 1204 835.83 1223.78L879.131 1198.78C901.352 1179 919.674 1147.88 932.793 1107.74L889.491 1132.74Z" fill="#FAFAFA" fill-opacity="0.8"/>
<path d="M650.916 527.824C647.595 529.741 644.33 531.961 641.127 534.481L684.428 509.481C687.621 506.969 690.876 504.755 694.186 502.842L650.916 527.824Z" fill="#FAFAFA" fill-opacity="0.8"/>
</g>
<g filter="url(#filter11_bii_2455_980)">
<path d="M481.511 542.297L550.944 582.384L594.245 557.384L524.813 517.297L481.511 542.297Z" fill="#FAFAFA" fill-opacity="0.8"/>
<path d="M437.002 670.782L528.565 723.646L571.867 698.646L480.303 645.782L437.002 670.782Z" fill="#FAFAFA" fill-opacity="0.8"/>
<path d="M459.881 838.174L540.183 884.537L583.484 859.537L503.182 813.174L459.881 838.174Z" fill="#FAFAFA" fill-opacity="0.8"/>
<path d="M700.069 976.847L581.747 908.534L625.048 883.534L743.37 951.847L700.069 976.847Z" fill="#FAFAFA" fill-opacity="0.8"/>
<path d="M568.903 746.936L700.069 822.664L743.37 797.664L612.205 721.936L568.903 746.936Z" fill="#FAFAFA" fill-opacity="0.8"/>
<path d="M740.366 1000.11L858.688 1068.43L901.989 1043.43L783.667 975.112L740.366 1000.11Z" fill="#FAFAFA" fill-opacity="0.8"/>
<path d="M700.069 668.482L593.717 607.079L637.018 582.079L743.37 643.482L700.069 668.482Z" fill="#FAFAFA" fill-opacity="0.8"/>
<path d="M740.366 845.93L871.532 921.658L914.833 896.658L783.667 820.93L740.366 845.93Z" fill="#FAFAFA" fill-opacity="0.8"/>
<path d="M980.554 1138.78L900.252 1092.42L943.553 1067.42L1023.85 1113.78L980.554 1138.78Z" fill="#FAFAFA" fill-opacity="0.8"/>
<path d="M740.366 691.747L846.719 753.15L890.02 728.15L783.667 666.747L740.366 691.747Z" fill="#FAFAFA" fill-opacity="0.8"/>
<path d="M1003.43 997.811L911.87 944.947L955.171 919.947L1046.73 972.811L1003.43 997.811Z" fill="#FAFAFA" fill-opacity="0.8"/>
<path d="M889.491 777.845L958.924 817.931L1002.22 792.931L932.793 752.845L889.491 777.845Z" fill="#FAFAFA" fill-opacity="0.8"/>
</g>
<g filter="url(#filter12_bii_2455_980)">
<path d="M720.218 483.188C630.665 431.484 549.619 426.565 490.957 460.421L534.215 435.446C592.88 401.563 673.944 406.471 763.52 458.188C942.649 561.608 1087.74 812.91 1087.74 1019.75C1087.74 1123.16 1051.47 1195.8 992.824 1229.68L949.522 1254.68C1008.17 1220.8 1044.44 1148.16 1044.44 1044.75C1044.44 837.91 899.347 586.608 720.218 483.188Z" fill="#FAFAFA" fill-opacity="0.8"/>
</g>
<g filter="url(#filter13_b_2455_980)">
<path fill-rule="evenodd" clip-rule="evenodd" d="M720.218 483.188C541.089 379.767 396 463.535 396 670.375C396 877.215 541.089 1128.52 720.218 1231.94C899.347 1335.36 1044.44 1251.59 1044.44 1044.75C1044.44 837.91 899.347 586.608 720.218 483.188ZM700.07 668.481L593.717 607.079C606.098 574.012 622.385 549.225 641.128 534.481C659.192 520.269 679.256 515.582 700.07 521.18V668.481ZM740.367 691.747V544.446C761.18 562.881 781.244 590.736 799.309 625.807C818.052 662.193 834.339 705.787 846.719 753.15L740.367 691.747ZM889.492 777.845C876.374 722.558 858.051 670.279 835.831 624.841C886.38 680.121 929.149 747.488 958.924 817.931L889.492 777.845ZM604.606 491.344C554.056 488.253 511.288 506.235 481.512 542.297L550.944 582.384C564.063 542.245 582.385 511.123 604.606 491.344ZM437.003 670.782C439.317 634.081 447.264 602.419 459.882 576.34L540.184 622.703C533.748 652.829 529.741 686.673 528.566 723.646L437.003 670.782ZM568.904 746.936C570.216 709.857 574.693 676.15 581.748 646.7L700.07 715.013V822.664L568.904 746.936ZM740.367 845.93V738.278L858.689 806.591C865.744 844.188 870.221 883.064 871.532 921.658L740.367 845.93ZM911.871 944.947C910.696 906.618 906.688 868.146 900.253 830.588L980.555 876.951C993.173 917.6 1001.12 958.437 1003.43 997.811L911.871 944.947ZM459.882 838.174C447.264 797.525 439.317 756.688 437.003 717.314L528.566 770.178C529.741 808.507 533.748 846.979 540.184 884.537L459.882 838.174ZM581.748 908.534C574.693 870.937 570.216 832.061 568.904 793.467L700.07 869.195V976.847L581.748 908.534ZM740.367 1000.11V892.461L871.532 968.189C870.221 1005.27 865.744 1038.97 858.689 1068.43L740.367 1000.11ZM900.253 1092.42C906.688 1062.3 910.696 1028.45 911.871 991.479L1003.43 1044.34C1001.12 1081.04 993.173 1112.71 980.555 1138.78L900.253 1092.42ZM604.606 1090.28C554.056 1035 511.288 967.637 481.512 897.194L550.944 937.28C564.063 992.567 582.385 1044.85 604.606 1090.28ZM641.128 1089.32C622.385 1052.93 606.098 1009.34 593.717 961.975L700.07 1023.38V1170.68C679.256 1152.24 659.192 1124.39 641.128 1089.32ZM740.367 1193.95V1046.64L846.719 1108.05C834.339 1141.11 818.052 1165.9 799.309 1180.64C781.244 1194.86 761.18 1199.54 740.367 1193.95ZM835.831 1223.78C858.051 1204 876.374 1172.88 889.492 1132.74L958.924 1172.83C929.149 1208.89 886.38 1226.87 835.831 1223.78Z" fill="white" fill-opacity="0.5"/>
</g>
<mask id="mask0_2455_980" style="mask-type:alpha" maskUnits="userSpaceOnUse" x="396" y="438" width="649" height="839">
<path fill-rule="evenodd" clip-rule="evenodd" d="M720.218 483.188C541.089 379.767 396 463.535 396 670.375C396 877.215 541.089 1128.52 720.218 1231.94C899.347 1335.36 1044.44 1251.59 1044.44 1044.75C1044.44 837.91 899.347 586.608 720.218 483.188ZM700.07 668.481L593.717 607.079C606.098 574.012 622.385 549.225 641.128 534.481C659.192 520.269 679.256 515.582 700.07 521.18V668.481ZM740.367 691.747V544.446C761.18 562.881 781.244 590.736 799.309 625.807C818.052 662.193 834.339 705.787 846.719 753.15L740.367 691.747ZM889.492 777.845C876.374 722.558 858.051 670.279 835.831 624.841C886.38 680.121 929.149 747.488 958.924 817.931L889.492 777.845ZM604.606 491.344C554.056 488.253 511.288 506.235 481.512 542.297L550.944 582.384C564.063 542.245 582.385 511.123 604.606 491.344ZM437.003 670.782C439.317 634.081 447.264 602.419 459.882 576.34L540.184 622.703C533.748 652.829 529.741 686.673 528.566 723.646L437.003 670.782ZM568.904 746.936C570.216 709.857 574.693 676.15 581.748 646.7L700.07 715.013V822.664L568.904 746.936ZM740.367 845.93V738.278L858.689 806.591C865.744 844.188 870.221 883.064 871.532 921.658L740.367 845.93ZM911.871 944.947C910.696 906.618 906.688 868.146 900.253 830.588L980.555 876.951C993.173 917.6 1001.12 958.437 1003.43 997.811L911.871 944.947ZM459.882 838.174C447.264 797.525 439.317 756.688 437.003 717.314L528.566 770.178C529.741 808.507 533.748 846.979 540.184 884.537L459.882 838.174ZM581.748 908.534C574.693 870.937 570.216 832.061 568.904 793.467L700.07 869.195V976.847L581.748 908.534ZM740.367 1000.11V892.461L871.532 968.189C870.221 1005.27 865.744 1038.97 858.689 1068.43L740.367 1000.11ZM900.253 1092.42C906.688 1062.3 910.696 1028.45 911.871 991.479L1003.43 1044.34C1001.12 1081.04 993.173 1112.71 980.555 1138.78L900.253 1092.42ZM604.606 1090.28C554.056 1035 511.288 967.637 481.512 897.194L550.944 937.28C564.063 992.567 582.385 1044.85 604.606 1090.28ZM641.128 1089.32C622.385 1052.93 606.098 1009.34 593.717 961.975L700.07 1023.38V1170.68C679.256 1152.24 659.192 1124.39 641.128 1089.32ZM740.367 1193.95V1046.64L846.719 1108.05C834.339 1141.11 818.052 1165.9 799.309 1180.64C781.244 1194.86 761.18 1199.54 740.367 1193.95ZM835.831 1223.78C858.051 1204 876.374 1172.88 889.492 1132.74L958.924 1172.83C929.149 1208.89 886.38 1226.87 835.831 1223.78Z" fill="white" fill-opacity="0.5"/>
</mask>
<g mask="url(#mask0_2455_980)">
<g filter="url(#filter14_f_2455_980)">
<path d="M623.947 766.064C635.952 758.154 635.257 734.492 622.394 713.214C609.531 691.935 589.371 681.098 577.366 689.008L488.162 747.782C476.737 755.309 476.737 777.225 488.162 797.944L577.366 959.721C589.371 981.494 609.531 993.935 622.394 987.51C635.257 981.084 635.952 958.225 623.947 936.453L583.941 863.899C584.726 864.419 585.52 864.912 586.32 865.374C660.659 908.293 720.922 1012.62 720.922 1098.39C720.922 1184.16 660.659 1218.9 586.32 1175.98C511.981 1133.06 451.717 1028.74 451.717 942.965C451.717 922.664 437.454 897.972 419.859 887.813C402.264 877.655 388 885.877 388 906.178C388 1032.55 476.791 1186.26 586.32 1249.5C695.849 1312.74 784.64 1261.55 784.64 1135.18C784.64 1008.8 695.849 855.093 586.32 791.857C586.046 791.698 585.772 791.544 585.5 791.395L623.947 766.064Z" fill="#71C016" fill-opacity="0.3"/>
</g>
</g>
<path fill-rule="evenodd" clip-rule="evenodd" d="M455.844 720.148C455.339 720.405 454.845 720.692 454.365 721.008L497.667 696.008C498.147 695.692 498.64 695.405 499.145 695.148L455.844 720.148Z" fill="#5FA312" fill-opacity="0.7"/>
<path fill-rule="evenodd" clip-rule="evenodd" d="M454.366 721.008L365.162 779.782L408.463 754.782L497.667 696.008L454.366 721.008Z" fill="#5FA312" fill-opacity="0.7"/>
<path fill-rule="evenodd" clip-rule="evenodd" d="M365.162 779.782C353.738 787.309 353.738 809.225 365.162 829.944L454.366 991.722C466.371 1013.49 486.531 1025.94 499.394 1019.51L542.696 994.51C529.833 1000.94 509.672 988.494 497.668 966.722L408.463 804.944C397.039 784.225 397.039 762.309 408.463 754.782L365.162 779.782Z" fill="#5FA312" fill-opacity="0.7"/>
<path fill-rule="evenodd" clip-rule="evenodd" d="M499.395 1019.51L542.696 994.51L499.395 1019.51Z" fill="#5FA312" fill-opacity="0.7"/>
<path fill-rule="evenodd" clip-rule="evenodd" d="M460.941 895.899C461.727 896.42 462.52 896.912 463.32 897.374C537.659 940.293 597.923 1044.62 597.923 1130.39C597.923 1171.56 584.038 1200.97 561.377 1215.68L604.678 1190.68C627.34 1175.97 641.225 1146.56 641.225 1105.39C641.225 1019.62 580.96 915.293 506.622 872.374C505.821 871.912 505.028 871.42 504.243 870.899L460.941 895.899Z" fill="#5FA312" fill-opacity="0.7"/>
<path fill-rule="evenodd" clip-rule="evenodd" d="M275.033 917.193C268.857 920.331 265 927.621 265 938.178C265 1064.55 353.791 1218.26 463.32 1281.5C515.894 1311.85 563.69 1315.84 599.181 1297.81L642.482 1272.81C606.991 1290.84 559.195 1286.85 506.621 1256.5C397.092 1193.26 308.301 1039.55 308.301 913.178C308.301 902.621 312.158 895.331 318.335 892.193L275.033 917.193Z" fill="#5FA312" fill-opacity="0.7"/>
<path fill-rule="evenodd" clip-rule="evenodd" d="M462.5 823.395L500.947 798.063L544.248 773.063L505.801 798.395L462.5 823.395Z" fill="#5FA312" fill-opacity="0.7"/>
<g filter="url(#filter15_bii_2455_980)">
<path fill-rule="evenodd" clip-rule="evenodd" d="M500.946 798.064C512.951 790.153 512.256 766.492 499.393 745.214C487.045 724.786 467.971 713.982 455.844 720.148L499.145 695.148C511.272 688.982 530.346 699.786 542.694 720.214C555.557 741.492 556.252 765.153 544.247 773.064L500.946 798.064Z" fill="#B4FF5E" fill-opacity="0.7"/>
</g>
<g filter="url(#filter16_bii_2455_980)">
<path fill-rule="evenodd" clip-rule="evenodd" d="M499.395 1019.51C512.258 1013.08 512.952 990.225 500.947 968.453L460.941 895.899L504.243 870.899L544.249 943.453C556.254 965.225 555.559 988.084 542.696 994.509L499.395 1019.51Z" fill="#B4FF5E" fill-opacity="0.7"/>
</g>
<g filter="url(#filter17_bii_2455_980)">
<path fill-rule="evenodd" clip-rule="evenodd" d="M561.376 1215.68C536.826 1231.62 501.976 1230.3 463.32 1207.98C388.981 1165.06 328.717 1060.74 328.717 974.965C328.717 954.664 314.453 929.972 296.858 919.814C288.413 914.938 280.735 914.296 275.033 917.193L318.334 892.193C324.036 889.296 331.714 889.938 340.16 894.814C357.755 904.972 372.018 929.664 372.018 949.965C372.018 1035.74 432.282 1140.06 506.621 1182.98C545.277 1205.3 580.127 1206.62 604.677 1190.68L561.376 1215.68Z" fill="#B4FF5E" fill-opacity="0.7"/>
</g>
<g filter="url(#filter18_bii_2455_980)">
<path fill-rule="evenodd" clip-rule="evenodd" d="M599.182 1297.81C637.631 1278.28 661.64 1232.89 661.64 1167.18C661.64 1040.8 572.849 887.094 463.32 823.857C463.046 823.699 462.773 823.545 462.5 823.396L505.801 798.396C506.074 798.545 506.347 798.699 506.621 798.857C616.15 862.094 704.941 1015.8 704.941 1142.18C704.941 1207.89 680.932 1253.28 642.483 1272.81L599.182 1297.81Z" fill="#B4FF5E" fill-opacity="0.7"/>
</g>
<g filter="url(#filter19_b_2455_980)">
<path d="M500.947 798.064C512.952 790.154 512.257 766.492 499.394 745.214C486.531 723.935 466.371 713.098 454.366 721.008L365.162 779.782C353.737 787.309 353.737 809.225 365.162 829.944L454.366 991.721C466.371 1013.49 486.531 1025.94 499.394 1019.51C512.257 1013.08 512.952 990.225 500.947 968.453L460.941 895.899C461.726 896.419 462.52 896.912 463.32 897.374C537.659 940.293 597.922 1044.62 597.922 1130.39C597.922 1216.16 537.659 1250.9 463.32 1207.98C388.981 1165.06 328.717 1060.74 328.717 974.965C328.717 954.664 314.454 929.972 296.859 919.813C279.264 909.655 265 917.877 265 938.178C265 1064.55 353.791 1218.26 463.32 1281.5C572.849 1344.74 661.64 1293.55 661.64 1167.18C661.64 1040.8 572.849 887.093 463.32 823.857C463.046 823.698 462.772 823.544 462.5 823.395L500.947 798.064Z" fill="url(#paint2_linear_2455_980)" fill-opacity="0.5"/>
</g>
<defs>
<filter id="filter0_bii_2455_980" x="985.84" y="396.608" width="155.523" height="94.6382" filterUnits="userSpaceOnUse" color-interpolation-filters="sRGB">
<feFlood flood-opacity="0" result="BackgroundImageFix"/>
<feGaussianBlur in="BackgroundImageFix" stdDeviation="10"/>
<feComposite in2="SourceAlpha" operator="in" result="effect1_backgroundBlur_2455_980"/>
<feBlend mode="normal" in="SourceGraphic" in2="effect1_backgroundBlur_2455_980" result="shape"/>
<feColorMatrix in="SourceAlpha" type="matrix" values="0 0 0 0 0 0 0 0 0 0 0 0 0 0 0 0 0 0 127 0" result="hardAlpha"/>
<feOffset dy="10"/>
<feGaussianBlur stdDeviation="10"/>
<feComposite in2="hardAlpha" operator="arithmetic" k2="-1" k3="1"/>
<feColorMatrix type="matrix" values="0 0 0 0 0 0 0 0 0 0 0 0 0 0 0 0 0 0 0.2 0"/>
<feBlend mode="normal" in2="shape" result="effect2_innerShadow_2455_980"/>
<feColorMatrix in="SourceAlpha" type="matrix" values="0 0 0 0 0 0 0 0 0 0 0 0 0 0 0 0 0 0 127 0" result="hardAlpha"/>
<feOffset dy="-10"/>
<feGaussianBlur stdDeviation="10"/>
<feComposite in2="hardAlpha" operator="arithmetic" k2="-1" k3="1"/>
<feColorMatrix type="matrix" values="0 0 0 0 1 0 0 0 0 1 0 0 0 0 1 0 0 0 0.5 0"/>
<feBlend mode="normal" in2="effect2_innerShadow_2455_980" result="effect3_innerShadow_2455_980"/>
</filter>
<filter id="filter1_bii_2455_980" x="1090.2" y="415.645" width="163.365" height="292.688" filterUnits="userSpaceOnUse" color-interpolation-filters="sRGB">
<feFlood flood-opacity="0" result="BackgroundImageFix"/>
<feGaussianBlur in="BackgroundImageFix" stdDeviation="10"/>
<feComposite in2="SourceAlpha" operator="in" result="effect1_backgroundBlur_2455_980"/>
<feBlend mode="normal" in="SourceGraphic" in2="effect1_backgroundBlur_2455_980" result="shape"/>
<feColorMatrix in="SourceAlpha" type="matrix" values="0 0 0 0 0 0 0 0 0 0 0 0 0 0 0 0 0 0 127 0" result="hardAlpha"/>
<feOffset dy="10"/>
<feGaussianBlur stdDeviation="10"/>
<feComposite in2="hardAlpha" operator="arithmetic" k2="-1" k3="1"/>
<feColorMatrix type="matrix" values="0 0 0 0 0 0 0 0 0 0 0 0 0 0 0 0 0 0 0.2 0"/>
<feBlend mode="normal" in2="shape" result="effect2_innerShadow_2455_980"/>
<feColorMatrix in="SourceAlpha" type="matrix" values="0 0 0 0 0 0 0 0 0 0 0 0 0 0 0 0 0 0 127 0" result="hardAlpha"/>
<feOffset dy="-10"/>
<feGaussianBlur stdDeviation="10"/>
<feComposite in2="hardAlpha" operator="arithmetic" k2="-1" k3="1"/>
<feColorMatrix type="matrix" values="0 0 0 0 1 0 0 0 0 1 0 0 0 0 1 0 0 0 0.5 0"/>
<feBlend mode="normal" in2="effect2_innerShadow_2455_980" result="effect3_innerShadow_2455_980"/>
</filter>
<filter id="filter2_bii_2455_980" x="983.266" y="168" width="270.293" height="283.007" filterUnits="userSpaceOnUse" color-interpolation-filters="sRGB">
<feFlood flood-opacity="0" result="BackgroundImageFix"/>
<feGaussianBlur in="BackgroundImageFix" stdDeviation="10"/>
<feComposite in2="SourceAlpha" operator="in" result="effect1_backgroundBlur_2455_980"/>
<feBlend mode="normal" in="SourceGraphic" in2="effect1_backgroundBlur_2455_980" result="shape"/>
<feColorMatrix in="SourceAlpha" type="matrix" values="0 0 0 0 0 0 0 0 0 0 0 0 0 0 0 0 0 0 127 0" result="hardAlpha"/>
<feOffset dy="10"/>
<feGaussianBlur stdDeviation="10"/>
<feComposite in2="hardAlpha" operator="arithmetic" k2="-1" k3="1"/>
<feColorMatrix type="matrix" values="0 0 0 0 0 0 0 0 0 0 0 0 0 0 0 0 0 0 0.2 0"/>
<feBlend mode="normal" in2="shape" result="effect2_innerShadow_2455_980"/>
<feColorMatrix in="SourceAlpha" type="matrix" values="0 0 0 0 0 0 0 0 0 0 0 0 0 0 0 0 0 0 127 0" result="hardAlpha"/>
<feOffset dy="-10"/>
<feGaussianBlur stdDeviation="10"/>
<feComposite in2="hardAlpha" operator="arithmetic" k2="-1" k3="1"/>
<feColorMatrix type="matrix" values="0 0 0 0 1 0 0 0 0 1 0 0 0 0 1 0 0 0 0.5 0"/>
<feBlend mode="normal" in2="effect2_innerShadow_2455_980" result="effect3_innerShadow_2455_980"/>
</filter>
<filter id="filter3_b_2455_980" x="968" y="183" width="252.258" height="536.253" filterUnits="userSpaceOnUse" color-interpolation-filters="sRGB">
<feFlood flood-opacity="0" result="BackgroundImageFix"/>
<feGaussianBlur in="BackgroundImageFix" stdDeviation="15"/>
<feComposite in2="SourceAlpha" operator="in" result="effect1_backgroundBlur_2455_980"/>
<feBlend mode="normal" in="SourceGraphic" in2="effect1_backgroundBlur_2455_980" result="shape"/>
</filter>
<filter id="filter4_f_2455_980" x="293.742" y="979.779" width="869.621" height="590.809" filterUnits="userSpaceOnUse" color-interpolation-filters="sRGB">
<feFlood flood-opacity="0" result="BackgroundImageFix"/>
<feBlend mode="normal" in="SourceGraphic" in2="BackgroundImageFix" result="shape"/>
<feGaussianBlur stdDeviation="50" result="effect1_foregroundBlur_2455_980"/>
</filter>
<filter id="filter5_f_2455_980" x="301.52" y="884.341" width="941.453" height="638.358" filterUnits="userSpaceOnUse" color-interpolation-filters="sRGB">
<feFlood flood-opacity="0" result="BackgroundImageFix"/>
<feBlend mode="normal" in="SourceGraphic" in2="BackgroundImageFix" result="shape"/>
<feGaussianBlur stdDeviation="50" result="effect1_foregroundBlur_2455_980"/>
</filter>
<filter id="filter6_f_2455_980" x="178.648" y="1116.57" width="593.857" height="441.986" filterUnits="userSpaceOnUse" color-interpolation-filters="sRGB">
<feFlood flood-opacity="0" result="BackgroundImageFix"/>
<feBlend mode="normal" in="SourceGraphic" in2="BackgroundImageFix" result="shape"/>
<feGaussianBlur stdDeviation="50" result="effect1_foregroundBlur_2455_980"/>
</filter>
<filter id="filter7_ii_2455_980" x="506.811" y="261.774" width="716.912" height="1020.41" filterUnits="userSpaceOnUse" color-interpolation-filters="sRGB">
<feFlood flood-opacity="0" result="BackgroundImageFix"/>
<feBlend mode="normal" in="SourceGraphic" in2="BackgroundImageFix" result="shape"/>
<feColorMatrix in="SourceAlpha" type="matrix" values="0 0 0 0 0 0 0 0 0 0 0 0 0 0 0 0 0 0 127 0" result="hardAlpha"/>
<feOffset dy="10"/>
<feGaussianBlur stdDeviation="15"/>
<feComposite in2="hardAlpha" operator="arithmetic" k2="-1" k3="1"/>
<feColorMatrix type="matrix" values="0 0 0 0 0 0 0 0 0 0 0 0 0 0 0 0 0 0 0.2 0"/>
<feBlend mode="normal" in2="shape" result="effect1_innerShadow_2455_980"/>
<feColorMatrix in="SourceAlpha" type="matrix" values="0 0 0 0 0 0 0 0 0 0 0 0 0 0 0 0 0 0 127 0" result="hardAlpha"/>
<feOffset dy="-10"/>
<feGaussianBlur stdDeviation="15"/>
<feComposite in2="hardAlpha" operator="arithmetic" k2="-1" k3="1"/>
<feColorMatrix type="matrix" values="0 0 0 0 1 0 0 0 0 1 0 0 0 0 1 0 0 0 0.1 0"/>
<feBlend mode="normal" in2="effect1_innerShadow_2455_980" result="effect2_innerShadow_2455_980"/>
</filter>
<filter id="filter8_b_2455_980" x="371" y="266.774" width="839.422" height="1066.45" filterUnits="userSpaceOnUse" color-interpolation-filters="sRGB">
<feFlood flood-opacity="0" result="BackgroundImageFix"/>
<feGaussianBlur in="BackgroundImageFix" stdDeviation="15"/>
<feComposite in2="SourceAlpha" operator="in" result="effect1_backgroundBlur_2455_980"/>
<feBlend mode="normal" in="SourceGraphic" in2="effect1_backgroundBlur_2455_980" result="shape"/>
</filter>
<filter id="filter9_bii_2455_980" x="720.367" y="1142.3" width="263.836" height="101.822" filterUnits="userSpaceOnUse" color-interpolation-filters="sRGB">
<feFlood flood-opacity="0" result="BackgroundImageFix"/>
<feGaussianBlur in="BackgroundImageFix" stdDeviation="10"/>
<feComposite in2="SourceAlpha" operator="in" result="effect1_backgroundBlur_2455_980"/>
<feBlend mode="normal" in="SourceGraphic" in2="effect1_backgroundBlur_2455_980" result="shape"/>
<feColorMatrix in="SourceAlpha" type="matrix" values="0 0 0 0 0 0 0 0 0 0 0 0 0 0 0 0 0 0 127 0" result="hardAlpha"/>
<feOffset dy="10"/>
<feGaussianBlur stdDeviation="10"/>
<feComposite in2="hardAlpha" operator="arithmetic" k2="-1" k3="1"/>
<feColorMatrix type="matrix" values="0 0 0 0 0 0 0 0 0 0 0 0 0 0 0 0 0 0 0.2 0"/>
<feBlend mode="normal" in2="shape" result="effect2_innerShadow_2455_980"/>
<feColorMatrix in="SourceAlpha" type="matrix" values="0 0 0 0 0 0 0 0 0 0 0 0 0 0 0 0 0 0 127 0" result="hardAlpha"/>
<feOffset dy="-10"/>
<feGaussianBlur stdDeviation="10"/>
<feComposite in2="hardAlpha" operator="arithmetic" k2="-1" k3="1"/>
<feColorMatrix type="matrix" values="0 0 0 0 1 0 0 0 0 1 0 0 0 0 1 0 0 0 0.5 0"/>
<feBlend mode="normal" in2="effect2_innerShadow_2455_980" result="effect3_innerShadow_2455_980"/>
</filter>
<filter id="filter10_bii_2455_980" x="417.002" y="464.936" width="558.17" height="778.845" filterUnits="userSpaceOnUse" color-interpolation-filters="sRGB">
<feFlood flood-opacity="0" result="BackgroundImageFix"/>
<feGaussianBlur in="BackgroundImageFix" stdDeviation="10"/>
<feComposite in2="SourceAlpha" operator="in" result="effect1_backgroundBlur_2455_980"/>
<feBlend mode="normal" in="SourceGraphic" in2="effect1_backgroundBlur_2455_980" result="shape"/>
<feColorMatrix in="SourceAlpha" type="matrix" values="0 0 0 0 0 0 0 0 0 0 0 0 0 0 0 0 0 0 127 0" result="hardAlpha"/>
<feOffset dy="10"/>
<feGaussianBlur stdDeviation="10"/>
<feComposite in2="hardAlpha" operator="arithmetic" k2="-1" k3="1"/>
<feColorMatrix type="matrix" values="0 0 0 0 0 0 0 0 0 0 0 0 0 0 0 0 0 0 0.2 0"/>
<feBlend mode="normal" in2="shape" result="effect2_innerShadow_2455_980"/>
<feColorMatrix in="SourceAlpha" type="matrix" values="0 0 0 0 0 0 0 0 0 0 0 0 0 0 0 0 0 0 127 0" result="hardAlpha"/>
<feOffset dy="-10"/>
<feGaussianBlur stdDeviation="10"/>
<feComposite in2="hardAlpha" operator="arithmetic" k2="-1" k3="1"/>
<feColorMatrix type="matrix" values="0 0 0 0 1 0 0 0 0 1 0 0 0 0 1 0 0 0 0.5 0"/>
<feBlend mode="normal" in2="effect2_innerShadow_2455_980" result="effect3_innerShadow_2455_980"/>
</filter>
<filter id="filter11_bii_2455_980" x="417.002" y="497.297" width="649.732" height="661.487" filterUnits="userSpaceOnUse" color-interpolation-filters="sRGB">
<feFlood flood-opacity="0" result="BackgroundImageFix"/>
<feGaussianBlur in="BackgroundImageFix" stdDeviation="10"/>
<feComposite in2="SourceAlpha" operator="in" result="effect1_backgroundBlur_2455_980"/>
<feBlend mode="normal" in="SourceGraphic" in2="effect1_backgroundBlur_2455_980" result="shape"/>
<feColorMatrix in="SourceAlpha" type="matrix" values="0 0 0 0 0 0 0 0 0 0 0 0 0 0 0 0 0 0 127 0" result="hardAlpha"/>
<feOffset dy="10"/>
<feGaussianBlur stdDeviation="10"/>
<feComposite in2="hardAlpha" operator="arithmetic" k2="-1" k3="1"/>
<feColorMatrix type="matrix" values="0 0 0 0 0 0 0 0 0 0 0 0 0 0 0 0 0 0 0.2 0"/>
<feBlend mode="normal" in2="shape" result="effect2_innerShadow_2455_980"/>
<feColorMatrix in="SourceAlpha" type="matrix" values="0 0 0 0 0 0 0 0 0 0 0 0 0 0 0 0 0 0 127 0" result="hardAlpha"/>
<feOffset dy="-10"/>
<feGaussianBlur stdDeviation="10"/>
<feComposite in2="hardAlpha" operator="arithmetic" k2="-1" k3="1"/>
<feColorMatrix type="matrix" values="0 0 0 0 1 0 0 0 0 1 0 0 0 0 1 0 0 0 0.5 0"/>
<feBlend mode="normal" in2="effect2_innerShadow_2455_980" result="effect3_innerShadow_2455_980"/>
</filter>
<filter id="filter12_bii_2455_980" x="470.957" y="393.875" width="636.781" height="880.803" filterUnits="userSpaceOnUse" color-interpolation-filters="sRGB">
<feFlood flood-opacity="0" result="BackgroundImageFix"/>
<feGaussianBlur in="BackgroundImageFix" stdDeviation="10"/>
<feComposite in2="SourceAlpha" operator="in" result="effect1_backgroundBlur_2455_980"/>
<feBlend mode="normal" in="SourceGraphic" in2="effect1_backgroundBlur_2455_980" result="shape"/>
<feColorMatrix in="SourceAlpha" type="matrix" values="0 0 0 0 0 0 0 0 0 0 0 0 0 0 0 0 0 0 127 0" result="hardAlpha"/>
<feOffset dy="10"/>
<feGaussianBlur stdDeviation="10"/>
<feComposite in2="hardAlpha" operator="arithmetic" k2="-1" k3="1"/>
<feColorMatrix type="matrix" values="0 0 0 0 0 0 0 0 0 0 0 0 0 0 0 0 0 0 0.2 0"/>
<feBlend mode="normal" in2="shape" result="effect2_innerShadow_2455_980"/>
<feColorMatrix in="SourceAlpha" type="matrix" values="0 0 0 0 0 0 0 0 0 0 0 0 0 0 0 0 0 0 127 0" result="hardAlpha"/>
<feOffset dy="-10"/>
<feGaussianBlur stdDeviation="10"/>
<feComposite in2="hardAlpha" operator="arithmetic" k2="-1" k3="1"/>
<feColorMatrix type="matrix" values="0 0 0 0 1 0 0 0 0 1 0 0 0 0 1 0 0 0 0.5 0"/>
<feBlend mode="normal" in2="effect2_innerShadow_2455_980" result="effect3_innerShadow_2455_980"/>
</filter>
<filter id="filter13_b_2455_980" x="366" y="408.875" width="708.436" height="897.374" filterUnits="userSpaceOnUse" color-interpolation-filters="sRGB">
<feFlood flood-opacity="0" result="BackgroundImageFix"/>
<feGaussianBlur in="BackgroundImageFix" stdDeviation="15"/>
<feComposite in2="SourceAlpha" operator="in" result="effect1_backgroundBlur_2455_980"/>
<feBlend mode="normal" in="SourceGraphic" in2="effect1_backgroundBlur_2455_980" result="shape"/>
</filter>
<filter id="filter14_f_2455_980" x="368" y="666.421" width="436.639" height="630.184" filterUnits="userSpaceOnUse" color-interpolation-filters="sRGB">
<feFlood flood-opacity="0" result="BackgroundImageFix"/>
<feBlend mode="normal" in="SourceGraphic" in2="BackgroundImageFix" result="shape"/>
<feGaussianBlur stdDeviation="10" result="effect1_foregroundBlur_2455_980"/>
</filter>
<filter id="filter15_bii_2455_980" x="435.844" y="673.421" width="136.971" height="144.643" filterUnits="userSpaceOnUse" color-interpolation-filters="sRGB">
<feFlood flood-opacity="0" result="BackgroundImageFix"/>
<feGaussianBlur in="BackgroundImageFix" stdDeviation="10"/>
<feComposite in2="SourceAlpha" operator="in" result="effect1_backgroundBlur_2455_980"/>
<feBlend mode="normal" in="SourceGraphic" in2="effect1_backgroundBlur_2455_980" result="shape"/>
<feColorMatrix in="SourceAlpha" type="matrix" values="0 0 0 0 0 0 0 0 0 0 0 0 0 0 0 0 0 0 127 0" result="hardAlpha"/>
<feOffset dy="10"/>
<feGaussianBlur stdDeviation="10"/>
<feComposite in2="hardAlpha" operator="arithmetic" k2="-1" k3="1"/>
<feColorMatrix type="matrix" values="0 0 0 0 0 0 0 0 0 0 0 0 0 0 0 0 0 0 0.2 0"/>
<feBlend mode="normal" in2="shape" result="effect2_innerShadow_2455_980"/>
<feColorMatrix in="SourceAlpha" type="matrix" values="0 0 0 0 0 0 0 0 0 0 0 0 0 0 0 0 0 0 127 0" result="hardAlpha"/>
<feOffset dy="-10"/>
<feGaussianBlur stdDeviation="10"/>
<feComposite in2="hardAlpha" operator="arithmetic" k2="-1" k3="1"/>
<feColorMatrix type="matrix" values="0 0 0 0 1 0 0 0 0 1 0 0 0 0 1 0 0 0 0.5 0"/>
<feBlend mode="normal" in2="effect2_innerShadow_2455_980" result="effect3_innerShadow_2455_980"/>
</filter>
<filter id="filter16_bii_2455_980" x="440.941" y="850.899" width="131.875" height="188.61" filterUnits="userSpaceOnUse" color-interpolation-filters="sRGB">
<feFlood flood-opacity="0" result="BackgroundImageFix"/>
<feGaussianBlur in="BackgroundImageFix" stdDeviation="10"/>
<feComposite in2="SourceAlpha" operator="in" result="effect1_backgroundBlur_2455_980"/>
<feBlend mode="normal" in="SourceGraphic" in2="effect1_backgroundBlur_2455_980" result="shape"/>
<feColorMatrix in="SourceAlpha" type="matrix" values="0 0 0 0 0 0 0 0 0 0 0 0 0 0 0 0 0 0 127 0" result="hardAlpha"/>
<feOffset dy="10"/>
<feGaussianBlur stdDeviation="10"/>
<feComposite in2="hardAlpha" operator="arithmetic" k2="-1" k3="1"/>
<feColorMatrix type="matrix" values="0 0 0 0 0 0 0 0 0 0 0 0 0 0 0 0 0 0 0.2 0"/>
<feBlend mode="normal" in2="shape" result="effect2_innerShadow_2455_980"/>
<feColorMatrix in="SourceAlpha" type="matrix" values="0 0 0 0 0 0 0 0 0 0 0 0 0 0 0 0 0 0 127 0" result="hardAlpha"/>
<feOffset dy="-10"/>
<feGaussianBlur stdDeviation="10"/>
<feComposite in2="hardAlpha" operator="arithmetic" k2="-1" k3="1"/>
<feColorMatrix type="matrix" values="0 0 0 0 1 0 0 0 0 1 0 0 0 0 1 0 0 0 0.5 0"/>
<feBlend mode="normal" in2="effect2_innerShadow_2455_980" result="effect3_innerShadow_2455_980"/>
</filter>
<filter id="filter17_bii_2455_980" x="255.033" y="870.459" width="369.645" height="375.92" filterUnits="userSpaceOnUse" color-interpolation-filters="sRGB">
<feFlood flood-opacity="0" result="BackgroundImageFix"/>
<feGaussianBlur in="BackgroundImageFix" stdDeviation="10"/>
<feComposite in2="SourceAlpha" operator="in" result="effect1_backgroundBlur_2455_980"/>
<feBlend mode="normal" in="SourceGraphic" in2="effect1_backgroundBlur_2455_980" result="shape"/>
<feColorMatrix in="SourceAlpha" type="matrix" values="0 0 0 0 0 0 0 0 0 0 0 0 0 0 0 0 0 0 127 0" result="hardAlpha"/>
<feOffset dy="10"/>
<feGaussianBlur stdDeviation="10"/>
<feComposite in2="hardAlpha" operator="arithmetic" k2="-1" k3="1"/>
<feColorMatrix type="matrix" values="0 0 0 0 0 0 0 0 0 0 0 0 0 0 0 0 0 0 0.2 0"/>
<feBlend mode="normal" in2="shape" result="effect2_innerShadow_2455_980"/>
<feColorMatrix in="SourceAlpha" type="matrix" values="0 0 0 0 0 0 0 0 0 0 0 0 0 0 0 0 0 0 127 0" result="hardAlpha"/>
<feOffset dy="-10"/>
<feGaussianBlur stdDeviation="10"/>
<feComposite in2="hardAlpha" operator="arithmetic" k2="-1" k3="1"/>
<feColorMatrix type="matrix" values="0 0 0 0 1 0 0 0 0 1 0 0 0 0 1 0 0 0 0.5 0"/>
<feBlend mode="normal" in2="effect2_innerShadow_2455_980" result="effect3_innerShadow_2455_980"/>
</filter>
<filter id="filter18_bii_2455_980" x="442.5" y="778.396" width="282.441" height="539.416" filterUnits="userSpaceOnUse" color-interpolation-filters="sRGB">
<feFlood flood-opacity="0" result="BackgroundImageFix"/>
<feGaussianBlur in="BackgroundImageFix" stdDeviation="10"/>
<feComposite in2="SourceAlpha" operator="in" result="effect1_backgroundBlur_2455_980"/>
<feBlend mode="normal" in="SourceGraphic" in2="effect1_backgroundBlur_2455_980" result="shape"/>
<feColorMatrix in="SourceAlpha" type="matrix" values="0 0 0 0 0 0 0 0 0 0 0 0 0 0 0 0 0 0 127 0" result="hardAlpha"/>
<feOffset dy="10"/>
<feGaussianBlur stdDeviation="10"/>
<feComposite in2="hardAlpha" operator="arithmetic" k2="-1" k3="1"/>
<feColorMatrix type="matrix" values="0 0 0 0 0 0 0 0 0 0 0 0 0 0 0 0 0 0 0.2 0"/>
<feBlend mode="normal" in2="shape" result="effect2_innerShadow_2455_980"/>
<feColorMatrix in="SourceAlpha" type="matrix" values="0 0 0 0 0 0 0 0 0 0 0 0 0 0 0 0 0 0 127 0" result="hardAlpha"/>
<feOffset dy="-10"/>
<feGaussianBlur stdDeviation="10"/>
<feComposite in2="hardAlpha" operator="arithmetic" k2="-1" k3="1"/>
<feColorMatrix type="matrix" values="0 0 0 0 1 0 0 0 0 1 0 0 0 0 1 0 0 0 0.5 0"/>
<feBlend mode="normal" in2="effect2_innerShadow_2455_980" result="effect3_innerShadow_2455_980"/>
</filter>
<filter id="filter19_b_2455_980" x="235" y="688.421" width="456.639" height="650.184" filterUnits="userSpaceOnUse" color-interpolation-filters="sRGB">
<feFlood flood-opacity="0" result="BackgroundImageFix"/>
<feGaussianBlur in="BackgroundImageFix" stdDeviation="15"/>
<feComposite in2="SourceAlpha" operator="in" result="effect1_backgroundBlur_2455_980"/>
<feBlend mode="normal" in="SourceGraphic" in2="effect1_backgroundBlur_2455_980" result="shape"/>
</filter>
<linearGradient id="paint0_linear_2455_980" x1="1094.13" y1="243.478" x2="898.288" y2="582.685" gradientUnits="userSpaceOnUse">
<stop stop-color="#5F4E9A"/>
<stop offset="1" stop-color="#4F3F89"/>
</linearGradient>
<linearGradient id="paint1_linear_2455_980" x1="790.711" y1="350" x2="401" y2="1025" gradientUnits="userSpaceOnUse">
<stop stop-color="#6655A2"/>
<stop offset="1" stop-color="#4D3C86"/>
</linearGradient>
<linearGradient id="paint2_linear_2455_980" x1="463.32" y1="714.5" x2="217.802" y2="1139.75" gradientUnits="userSpaceOnUse">
<stop stop-color="#83DE1B"/>
<stop offset="1" stop-color="#76B82A"/>
</linearGradient>
</defs>
</svg>
