<svg width="64" height="64" viewBox="0 0 64 64" fill="none" xmlns="http://www.w3.org/2000/svg">
<path d="M14.1802 19.3104C13.8118 18.8989 13.1764 18.9007 12.7859 19.2912C12.3953 19.6817 12.3979 20.3129 12.7635 20.7269C15.2539 23.5477 16.765 27.2534 16.765 31.312C16.765 35.3707 15.2539 39.0764 12.7635 41.8971C12.3979 42.3111 12.3953 42.9423 12.7859 43.3328C13.1764 43.7234 13.8118 43.7252 14.1802 43.3137C17.0313 40.1289 18.765 35.9229 18.765 31.312C18.765 26.7011 17.0313 22.4951 14.1802 19.3104Z" fill="#76B82A"/>
<path d="M9.95744 40.5044C10.348 40.8949 10.9841 40.8971 11.346 40.4799C13.476 38.0237 14.765 34.8184 14.765 31.312C14.765 27.8056 13.476 24.6003 11.346 22.1441C10.9841 21.7269 10.348 21.7291 9.95744 22.1196C9.56691 22.5102 9.5705 23.1408 9.92737 23.5623C11.6976 25.6531 12.765 28.3579 12.765 31.312C12.765 34.2661 11.6976 36.9709 9.92737 39.0617C9.5705 39.4832 9.56691 40.1139 9.95744 40.5044Z" fill="#76B82A"/>
<path d="M7.12901 37.676C7.51953 38.0665 8.15712 38.0694 8.50696 37.642C9.91827 35.918 10.765 33.7139 10.765 31.312C10.765 28.9102 9.91827 26.7061 8.50696 24.982C8.15712 24.5547 7.51953 24.5575 7.12901 24.9481C6.73849 25.3386 6.74423 25.9684 7.08332 26.4043C8.13734 27.7594 8.76505 29.4624 8.76505 31.312C8.76505 33.1617 8.13734 34.8647 7.08332 36.2197C6.74423 36.6556 6.73849 37.2855 7.12901 37.676Z" fill="#76B82A"/>
<path d="M4.30058 34.8476C4.69111 35.2381 5.33241 35.2419 5.65312 34.7923C6.35321 33.8108 6.76505 32.6095 6.76505 31.312C6.76505 30.0145 6.35321 28.8132 5.65312 27.8317C5.33241 27.3821 4.69111 27.386 4.30058 27.7765C3.91006 28.167 3.9236 28.7962 4.20582 29.2709C4.56105 29.8685 4.76505 30.5664 4.76505 31.312C4.76505 32.0576 4.56105 32.7556 4.20582 33.3531C3.9236 33.8278 3.91006 34.457 4.30058 34.8476Z" fill="#76B82A"/>
<path fill-rule="evenodd" clip-rule="evenodd" d="M29 12C29 10.8954 29.8954 10 31 10H52C53.1046 10 54 10.8954 54 12V26C54 27.1046 53.1046 28 52 28H31C29.8954 28 29 27.1046 29 26V12ZM31 12H52V26H31V12Z" fill="#76B82A"/>
<path fill-rule="evenodd" clip-rule="evenodd" d="M29 31C29 30.4477 29.4477 30 30 30H35C35.5523 30 36 30.4477 36 31V36C36 36.5523 35.5523 37 35 37H30C29.4477 37 29 36.5523 29 36V31ZM31 32V35H34V32H31Z" fill="#76B82A"/>
<path fill-rule="evenodd" clip-rule="evenodd" d="M30 39C29.4477 39 29 39.4477 29 40V45C29 45.5523 29.4477 46 30 46H35C35.5523 46 36 45.5523 36 45V40C36 39.4477 35.5523 39 35 39H30ZM31 44V41H34V44H31Z" fill="#76B82A"/>
<path fill-rule="evenodd" clip-rule="evenodd" d="M38 31C38 30.4477 38.4477 30 39 30H44C44.5523 30 45 30.4477 45 31V36C45 36.5523 44.5523 37 44 37H39C38.4477 37 38 36.5523 38 36V31ZM40 32V35H43V32H40Z" fill="#76B82A"/>
<path fill-rule="evenodd" clip-rule="evenodd" d="M39 39C38.4477 39 38 39.4477 38 40V45C38 45.5523 38.4477 46 39 46H44C44.5523 46 45 45.5523 45 45V40C45 39.4477 44.5523 39 44 39H39ZM40 44V41H43V44H40Z" fill="#76B82A"/>
<path fill-rule="evenodd" clip-rule="evenodd" d="M29 49C29 48.4477 29.4477 48 30 48H41C41.5523 48 42 48.4477 42 49V54C42 54.5523 41.5523 55 41 55H30C29.4477 55 29 54.5523 29 54V49ZM31 50V53H40V50H31Z" fill="#76B82A"/>
<path fill-rule="evenodd" clip-rule="evenodd" d="M48 30C47.4477 30 47 30.4477 47 31V36C47 36.5523 47.4477 37 48 37H53C53.5523 37 54 36.5523 54 36V31C54 30.4477 53.5523 30 53 30H48ZM49 35V32H52V35H49Z" fill="#76B82A"/>
<path fill-rule="evenodd" clip-rule="evenodd" d="M47 40C47 39.4477 47.4477 39 48 39H53C53.5523 39 54 39.4477 54 40V45C54 45.5523 53.5523 46 53 46H48C47.4477 46 47 45.5523 47 45V40ZM49 41V44H52V41H49Z" fill="#76B82A"/>
<path fill-rule="evenodd" clip-rule="evenodd" d="M45 48C44.4477 48 44 48.4477 44 49V54C44 54.5523 44.4477 55 45 55H53C53.5523 55 54 54.5523 54 54V49C54 48.4477 53.5523 48 53 48H45ZM46 53V50H52V53H46Z" fill="#76B82A"/>
<path fill-rule="evenodd" clip-rule="evenodd" d="M26 4C24.3431 4 23 5.34315 23 7V57C23 58.6569 24.3431 60 26 60H57C58.6569 60 60 58.6569 60 57V7C60 5.34315 58.6569 4 57 4H26ZM25 7C25 6.44772 25.4477 6 26 6H57C57.5523 6 58 6.44772 58 7V57C58 57.5523 57.5523 58 57 58H26C25.4477 58 25 57.5523 25 57V7Z" fill="#76B82A"/>
</svg>
