<svg width="64" height="64" viewBox="0 0 64 64" fill="none" xmlns="http://www.w3.org/2000/svg">
<path d="M28 10C27.4477 10 27 10.4477 27 11C27 11.5523 27.4477 12 28 12H36C36.5523 12 37 11.5523 37 11C37 10.4477 36.5523 10 36 10H28Z" fill="#76B82A"/>
<path fill-rule="evenodd" clip-rule="evenodd" d="M29 51C29 49.3431 30.3431 48 32 48C33.6569 48 35 49.3431 35 51C35 52.6569 33.6569 54 32 54C30.3431 54 29 52.6569 29 51ZM32 50C31.4477 50 31 50.4477 31 51C31 51.5523 31.4477 52 32 52C32.5523 52 33 51.5523 33 51C33 50.4477 32.5523 50 32 50Z" fill="#76B82A"/>
<path d="M33.7859 18.2912C34.1764 17.9007 34.8118 17.8989 35.1802 18.3104C38.0313 21.4951 39.765 25.7011 39.765 30.312C39.765 34.9229 38.0313 39.1289 35.1802 42.3137C34.8118 42.7252 34.1764 42.7234 33.7859 42.3328C33.3953 41.9423 33.3979 41.3111 33.7635 40.8971C36.2539 38.0764 37.765 34.3707 37.765 30.312C37.765 26.2534 36.2539 22.5477 33.7635 19.7269C33.3979 19.3129 33.3953 18.6817 33.7859 18.2912Z" fill="#76B82A"/>
<path d="M32.346 39.4799C31.9841 39.8971 31.348 39.8949 30.9574 39.5044C30.5669 39.1139 30.5705 38.4832 30.9274 38.0617C32.6976 35.9709 33.765 33.2661 33.765 30.312C33.765 27.3579 32.6976 24.6531 30.9274 22.5623C30.5705 22.1408 30.5669 21.5102 30.9574 21.1196C31.348 20.7291 31.9841 20.7269 32.346 21.1441C34.476 23.6003 35.765 26.8056 35.765 30.312C35.765 33.8184 34.476 37.0237 32.346 39.4799Z" fill="#76B82A"/>
<path d="M29.507 36.642C29.1571 37.0694 28.5195 37.0665 28.129 36.676C27.7385 36.2855 27.7442 35.6556 28.0833 35.2197C29.1373 33.8647 29.765 32.1617 29.765 30.312C29.765 28.4624 29.1373 26.7594 28.0833 25.4043C27.7442 24.9684 27.7385 24.3386 28.129 23.9481C28.5195 23.5575 29.1571 23.5547 29.507 23.982C30.9183 25.7061 31.765 27.9102 31.765 30.312C31.765 32.7139 30.9183 34.918 29.507 36.642Z" fill="#76B82A"/>
<path d="M26.6531 33.7923C26.3324 34.2419 25.6911 34.2381 25.3006 33.8476C24.9101 33.457 24.9236 32.8278 25.2058 32.3531C25.5611 31.7556 25.765 31.0576 25.765 30.312C25.765 29.5664 25.5611 28.8685 25.2058 28.2709C24.9236 27.7962 24.9101 27.167 25.3006 26.7765C25.6911 26.386 26.3324 26.3821 26.6531 26.8317C27.3532 27.8132 27.765 29.0145 27.765 30.312C27.765 31.6095 27.3532 32.8108 26.6531 33.7923Z" fill="#76B82A"/>
<path fill-rule="evenodd" clip-rule="evenodd" d="M20 5C17.2386 5 15 7.23858 15 10V54C15 56.7614 17.2386 59 20 59H44C46.7614 59 49 56.7614 49 54V10C49 7.23858 46.7614 5 44 5H20ZM17 10C17 8.34315 18.3431 7 20 7H44C45.6569 7 47 8.34315 47 10V54C47 55.6569 45.6569 57 44 57H20C18.3431 57 17 55.6569 17 54V10Z" fill="#76B82A"/>
</svg>
