<svg width="530" height="320" viewBox="0 0 530 320" fill="none" xmlns="http://www.w3.org/2000/svg">
<g clip-path="url(#clip0_4287_496954)">
<g opacity="0.3">
<g opacity="0.8">
<path opacity="0.1" d="M475.112 33L530 64.653L474.888 160L420 128.347L475.112 33Z" fill="#CABBD1"/>
<path opacity="0.3" d="M457 64.5L474.5 33.5L422.5 64.5H457Z" fill="#CABBD1"/>
<path opacity="0.1" d="M493 128.5L475 159.5L526.813 128.5H493Z" fill="#CABBD1"/>
<path opacity="0.4" fill-rule="evenodd" clip-rule="evenodd" d="M475.023 0.658936L475.239 0.783703L476.097 1.27829L475.847 1.71142L475.365 1.4334L475.042 1.62491L474.972 1.74483H474.976V2.72968H474.476V1.85333L474.268 1.50227L474.674 1.26152L474.898 0.875163L475.023 0.658936ZM477.812 2.26744L479.527 3.2566L479.277 3.68973L477.562 2.70058L477.812 2.26744ZM470.741 3.59412L472.505 2.5482L472.76 2.97825L470.996 4.02418L470.741 3.59412ZM472.437 5.13173L473.421 3.4291L473.854 3.67932L472.87 5.38194L472.437 5.13173ZM481.242 4.24575L482.958 5.23491L482.708 5.66804L480.992 4.67889L481.242 4.24575ZM467.214 5.68597L468.978 4.64005L469.233 5.0701L467.469 6.11603L467.214 5.68597ZM474.476 6.6691V4.69939H474.976V6.6691H474.476ZM484.673 6.22406L486.388 7.21322L486.138 7.64635L484.423 6.6572L484.673 6.22406ZM463.687 7.77782L465.45 6.73189L465.705 7.16195L463.942 8.20788L463.687 7.77782ZM470.469 8.53698L471.453 6.83435L471.886 7.08457L470.902 8.7872L470.469 8.53698ZM488.103 8.20237L489.818 9.19153L489.569 9.62466L487.853 8.63551L488.103 8.20237ZM474.476 10.6085V8.63881H474.976V10.6085H474.476ZM460.16 9.86967L461.923 8.82374L462.178 9.2538L460.415 10.2997L460.16 9.86967ZM491.534 10.1807L493.249 11.1698L492.999 11.603L491.284 10.6138L491.534 10.1807ZM468.501 11.9422L469.485 10.2396L469.918 10.4898L468.934 12.1924L468.501 11.9422ZM456.632 11.9615L458.396 10.9156L458.651 11.3456L456.887 12.3916L456.632 11.9615ZM494.964 12.159L496.679 13.1481L496.43 13.5813L494.714 12.5921L494.964 12.159ZM474.476 14.5479V12.5782H474.976V14.5479H474.476ZM453.105 14.0534L454.869 13.0074L455.124 13.4375L453.36 14.4834L453.105 14.0534ZM466.532 15.3475L467.516 13.6449L467.949 13.8951L466.965 15.5977L466.532 15.3475ZM498.395 14.1373L500.11 15.1265L499.86 15.5596L498.145 14.5704L498.395 14.1373ZM449.578 16.1452L451.342 15.0993L451.597 15.5293L449.833 16.5753L449.578 16.1452ZM501.825 16.1156L503.54 17.1048L503.291 17.5379L501.575 16.5487L501.825 16.1156ZM474.477 18.4874V16.5176H474.977V18.4874H474.477ZM464.564 18.7527L465.548 17.0501L465.981 17.3003L464.997 19.0029L464.564 18.7527ZM446.051 18.2371L447.814 17.1911L448.07 17.6212L446.306 18.6671L446.051 18.2371ZM505.256 18.0939L506.971 19.0831L506.721 19.5162L505.006 18.5271L505.256 18.0939ZM442.524 20.3289L444.287 19.283L444.542 19.713L442.779 20.759L442.524 20.3289ZM508.686 20.0722L510.401 21.0614L510.152 21.4945L508.436 20.5054L508.686 20.0722ZM462.596 22.158L463.58 20.4554L464.013 20.7056L463.029 22.4082L462.596 22.158ZM474.477 22.4268V20.4571H474.977V22.4268H474.477ZM438.997 22.4208L440.76 21.3748L441.015 21.8049L439.252 22.8508L438.997 22.4208ZM512.117 22.0505L513.832 23.0397L513.582 23.4728L511.867 22.4837L512.117 22.0505ZM435.469 24.5126L437.233 23.4667L437.488 23.8967L435.724 24.9427L435.469 24.5126ZM460.627 25.5632L461.612 23.8606L462.044 24.1108L461.06 25.8135L460.627 25.5632ZM515.547 24.0288L517.262 25.018L517.013 25.4511L515.297 24.462L515.547 24.0288ZM474.477 26.3662V24.3965H474.977V26.3662H474.477ZM431.942 26.6044L433.706 25.5585L433.961 25.9886L432.197 27.0345L431.942 26.6044ZM518.978 26.0072L520.693 26.9963L520.443 27.4295L518.728 26.4403L518.978 26.0072ZM458.659 28.9685L459.643 27.2659L460.076 27.5161L459.092 29.2187L458.659 28.9685ZM428.415 28.6963L430.179 27.6504L430.434 28.0804L428.67 29.1264L428.415 28.6963ZM522.408 27.9855L524.123 28.9746L523.874 29.4078L522.158 28.4186L522.408 27.9855ZM474.477 30.3056V28.3359H474.977V30.3056H474.477ZM424.888 30.7881L426.651 29.7422L426.906 30.1723L425.143 31.2182L424.888 30.7881ZM525.839 29.9638L527.554 30.9529L527.304 31.3861L525.589 30.3969L525.839 29.9638ZM456.691 32.3737L457.675 30.6711L458.108 30.9213L457.298 32.3221H458.999V32.8221H457.019V32.5635L456.691 32.3737ZM422.242 32.357L423.124 31.8341L423.379 32.2641L423.282 32.3221H423.36V32.8221H422.37H421.458L422.242 32.357ZM529.269 31.9421L530.127 32.4367L530.344 32.5617L530.218 32.7783L529.726 33.6296L529.293 33.3794L529.66 32.7448L529.288 32.5299V32.8221H528.298V32.3221H529.05L529.269 31.9421ZM474.477 32.3221V32.2753H474.977V34.245H474.477V32.8221H472.859V32.3221H474.477ZM486.719 32.8221H484.739V32.3221H486.719V32.8221ZM490.678 32.8221H488.698V32.3221H490.678V32.8221ZM494.638 32.8221H492.658V32.3221H494.638V32.8221ZM498.598 32.8221H496.618V32.3221H498.598V32.8221ZM502.558 32.8221H500.578V32.3221H502.558V32.8221ZM506.518 32.8221H504.538V32.3221H506.518V32.8221ZM510.478 32.8221H508.498V32.3221H510.478V32.8221ZM514.438 32.8221H512.458V32.3221H514.438V32.8221ZM518.398 32.8221H516.418V32.3221H518.398V32.8221ZM522.358 32.8221H520.378V32.3221H522.358V32.8221ZM526.318 32.8221H524.338V32.3221H526.318V32.8221ZM435.24 32.8221L433.26 32.8221V32.3221L435.24 32.3221V32.8221ZM439.2 32.8221H437.22V32.3221H439.2V32.8221ZM443.159 32.8221H441.18V32.3221H443.159V32.8221ZM447.119 32.8221H445.139V32.3221H447.119V32.8221ZM451.079 32.8221H449.099V32.3221H451.079V32.8221ZM455.039 32.8221H453.059V32.3221H455.039V32.8221ZM462.959 32.8221H460.979V32.3221H462.959V32.8221ZM466.919 32.8221H464.939V32.3221H466.919V32.8221ZM470.879 32.8221H468.899V32.3221H470.879V32.8221ZM478.799 32.8221H476.819V32.3221H478.799V32.8221ZM482.759 32.8221H480.779V32.3221H482.759V32.8221ZM427.32 32.8221H425.34V32.3221H427.32V32.8221ZM431.28 32.8221H429.3V32.3221H431.28V32.8221ZM454.723 35.779L455.707 34.0764L456.14 34.3266L455.155 36.0292L454.723 35.779ZM528.742 35.3323L527.758 37.0349L527.325 36.7847L528.309 35.0821L528.742 35.3323ZM474.477 38.1844V36.2147H474.977V38.1844H474.477ZM452.754 39.1842L453.738 37.4816L454.171 37.7318L453.187 39.4345L452.754 39.1842ZM526.774 38.7375L525.79 40.4402L525.357 40.1899L526.341 38.4873L526.774 38.7375ZM474.477 42.1239V40.1541H474.977V42.1239H474.477ZM450.786 42.5895L451.77 40.8869L452.203 41.1371L451.219 42.8397L450.786 42.5895ZM524.805 42.1428L523.821 43.8454L523.388 43.5952L524.373 41.8926L524.805 42.1428ZM474.477 46.0633V44.0936H474.977V46.0633H474.477ZM448.818 45.9948L449.802 44.2921L450.235 44.5423L449.251 46.245L448.818 45.9948ZM522.837 45.548L521.853 47.2507L521.42 47.0004L522.404 45.2978L522.837 45.548ZM446.849 49.4L447.834 47.6974L448.266 47.9476L447.282 49.6502L446.849 49.4ZM474.477 50.0027V48.033H474.977V50.0027H474.477ZM520.869 48.9533L519.885 50.6559L519.452 50.4057L520.436 48.7031L520.869 48.9533ZM444.881 52.8053L445.865 51.1026L446.298 51.3528L445.314 53.0555L444.881 52.8053ZM474.477 53.9421V51.9724H474.977V53.9421H474.477ZM518.901 52.3585L517.916 54.0612L517.484 53.8109L518.468 52.1083L518.901 52.3585ZM442.913 56.2105L443.897 54.5079L444.33 54.7581L443.346 56.4607L442.913 56.2105ZM516.932 55.7638L515.948 57.4664L515.515 57.2162L516.499 55.5136L516.932 55.7638ZM474.477 57.8815V55.9118H474.977V57.8815H474.477ZM440.945 59.6158L441.929 57.9131L442.362 58.1633L441.377 59.866L440.945 59.6158ZM514.964 59.169L513.98 60.8717L513.547 60.6214L514.531 58.9188L514.964 59.169ZM474.477 61.8209V59.8512H474.977V61.8209H474.477ZM438.976 63.021L439.96 61.3184L440.393 61.5686L439.409 63.2712L438.976 63.021ZM512.996 62.5743L512.012 64.2769L511.579 64.0267L512.563 62.3241L512.996 62.5743ZM474.477 65.7604V63.7906H474.977V65.7604H474.477ZM437.008 66.4263L437.992 64.7236L438.425 64.9738L437.441 66.6765L437.008 66.4263ZM511.027 65.9795L510.043 67.6822L509.61 67.432L510.595 65.7293L511.027 65.9795ZM474.477 69.6998V67.7301H474.977V69.6998H474.477ZM435.04 69.8315L436.024 68.1289L436.457 68.3791L435.473 70.0817L435.04 69.8315ZM509.059 69.3848L508.075 71.0874L507.642 70.8372L508.626 69.1346L509.059 69.3848ZM433.071 73.2368L434.056 71.5341L434.488 71.7844L433.504 73.487L433.071 73.2368ZM474.477 73.6392L474.477 71.6695H474.977L474.977 73.6392H474.477ZM507.091 72.79L506.107 74.4927L505.674 74.2425L506.658 72.5398L507.091 72.79ZM431.103 76.642L432.087 74.9394L432.52 75.1896L431.536 76.8922L431.103 76.642ZM474.477 77.5786V75.6089H474.977V77.5786H474.477ZM505.123 76.1953L504.138 77.8979L503.706 77.6477L504.69 75.9451L505.123 76.1953ZM429.135 80.0473L430.119 78.3446L430.552 78.5949L429.568 80.2975L429.135 80.0473ZM503.154 79.6005L502.17 81.3032L501.737 81.053L502.721 79.3503L503.154 79.6005ZM474.477 81.518V79.5483H474.977V81.518H474.477ZM427.166 83.4525L428.151 81.7499L428.584 82.0001L427.599 83.7027L427.166 83.4525ZM501.186 83.0058L500.202 84.7084L499.769 84.4582L500.753 82.7556L501.186 83.0058ZM474.477 85.4575V83.4878H474.977V85.4575H474.477ZM425.198 86.8578L426.182 85.1552L426.615 85.4054L425.631 87.108L425.198 86.8578ZM499.218 86.4111L498.234 88.1137L497.801 87.8635L498.785 86.1608L499.218 86.4111ZM474.477 89.3969V87.4272H474.977V89.3969H474.477ZM423.23 90.263L424.214 88.5604L424.647 88.8106L423.663 90.5132L423.23 90.263ZM497.249 89.8163L496.265 91.5189L495.832 91.2687L496.816 89.5661L497.249 89.8163ZM474.477 93.3363V91.3666H474.977V93.3363H474.477ZM421.262 93.6683L422.246 91.9657L422.679 92.2159L421.694 93.9185L421.262 93.6683ZM495.281 93.2216L494.297 94.9242L493.864 94.674L494.848 92.9713L495.281 93.2216ZM474.477 97.2757V95.306H474.977V96.1785H476.594V96.6785H474.977V97.2757H474.477ZM419.785 96.2222L420.277 95.3709L420.71 95.6211L420.388 96.1785H421.155V96.6785H420.954L420.735 97.0585L419.877 96.5639L419.66 96.4389L419.785 96.2222ZM425.115 96.6785H423.135V96.1785H425.115V96.6785ZM429.075 96.6785H427.095V96.1785H429.075V96.6785ZM433.035 96.6785H431.055V96.1785H433.035V96.6785ZM436.995 96.6785H435.015V96.1785H436.995V96.6785ZM440.955 96.6785H438.975V96.1785H440.955V96.6785ZM444.915 96.6785H442.935V96.1785H444.915V96.6785ZM448.875 96.6785H446.895V96.1785H448.875V96.6785ZM452.835 96.6785H450.855V96.1785H452.835V96.6785ZM456.795 96.6785H454.815V96.1785H456.795V96.6785ZM460.755 96.6785H458.775V96.1785H460.755V96.6785ZM464.714 96.6785H462.735V96.1785H464.714V96.6785ZM468.674 96.6785H466.694V96.1785H468.674V96.6785ZM472.634 96.6785H470.654V96.1785H472.634V96.6785ZM480.554 96.6785H478.574V96.1785H480.554V96.6785ZM484.514 96.6785H482.534V96.1785H484.514V96.6785ZM488.474 96.6785H486.494V96.1785H488.474V96.6785ZM492.434 96.6785H490.454V96.1785H492.434V96.6785ZM496.394 96.6785H494.414V96.1785H496.394V96.6785ZM500.354 96.6785H498.374V96.1785H500.354V96.6785ZM504.314 96.6785H502.334V96.1785H504.314V96.6785ZM508.274 96.6785H506.294V96.1785H508.274V96.6785ZM512.233 96.6785H510.253V96.1785H512.233V96.6785ZM516.193 96.6785H514.213V96.1785H516.193V96.6785ZM520.153 96.6785H518.173V96.1785H520.153V96.6785ZM524.113 96.6785H522.133V96.1785H524.113V96.6785ZM526.171 96.6785H526.093V96.1785H527.083H527.995L527.211 96.6435L526.329 97.1665L526.074 96.7364L526.171 96.6785ZM493.313 96.6268L492.329 98.3294L491.896 98.0792L492.88 96.3766L493.313 96.6268ZM424.165 99.0368L422.45 98.0476L422.7 97.6145L424.415 98.6036L424.165 99.0368ZM522.547 98.8283L524.31 97.7823L524.565 98.2124L522.802 99.2583L522.547 98.8283ZM474.477 101.215V99.2454H474.977V101.215H474.477ZM427.596 101.015L425.88 100.026L426.13 99.5928L427.845 100.582L427.596 101.015ZM491.345 100.032L490.36 101.735L489.927 101.484L490.912 99.7818L491.345 100.032ZM519.019 100.92L520.783 99.8742L521.038 100.304L519.274 101.35L519.019 100.92ZM431.026 102.993L429.311 102.004L429.561 101.571L431.276 102.56L431.026 102.993ZM515.492 103.012L517.256 101.966L517.511 102.396L515.747 103.442L515.492 103.012ZM474.477 105.155V103.185H474.977V105.155H474.477ZM489.376 103.437L488.392 105.14L487.959 104.89L488.943 103.187L489.376 103.437ZM434.457 104.972L432.741 103.983L432.991 103.549L434.706 104.539L434.457 104.972ZM511.965 105.104L513.729 104.058L513.984 104.488L512.22 105.534L511.965 105.104ZM437.887 106.95L436.172 105.961L436.422 105.528L438.137 106.517L437.887 106.95ZM508.438 107.196L510.201 106.15L510.456 106.58L508.693 107.626L508.438 107.196ZM487.408 106.843L486.424 108.545L485.991 108.295L486.975 106.592L487.408 106.843ZM474.477 109.094V107.124H474.977V109.094H474.477ZM441.317 108.928L439.602 107.939L439.852 107.506L441.567 108.495L441.317 108.928ZM504.911 109.288L506.674 108.242L506.929 108.672L505.166 109.718L504.911 109.288ZM444.748 110.907L443.033 109.917L443.283 109.484L444.998 110.473L444.748 110.907ZM485.44 110.248L484.455 111.95L484.023 111.7L485.007 109.998L485.44 110.248ZM501.383 111.379L503.147 110.333L503.402 110.763L501.639 111.809L501.383 111.379ZM474.477 113.033V111.064H474.977V113.033H474.477ZM448.178 112.885L446.463 111.896L446.713 111.463L448.428 112.452L448.178 112.885ZM497.856 113.471L499.62 112.425L499.875 112.855L498.111 113.901L497.856 113.471ZM483.471 113.653L482.487 115.356L482.054 115.105L483.038 113.403L483.471 113.653ZM451.609 114.863L449.894 113.874L450.143 113.441L451.859 114.43L451.609 114.863ZM494.329 115.563L496.093 114.517L496.348 114.947L494.584 115.993L494.329 115.563ZM474.477 116.973V115.003H474.977V116.973H474.477ZM455.039 116.842L453.324 115.852L453.574 115.419L455.289 116.408L455.039 116.842ZM490.802 117.655L492.566 116.609L492.821 117.039L491.057 118.085L490.802 117.655ZM481.503 117.058L480.519 118.761L480.086 118.511L481.07 116.808L481.503 117.058ZM458.47 118.82L456.755 117.831L457.004 117.398L458.72 118.387L458.47 118.82ZM487.275 119.747L489.038 118.701L489.293 119.131L487.53 120.177L487.275 119.747ZM474.477 120.912V118.943H474.977V120.912H474.477ZM461.9 120.798L460.185 119.809L460.435 119.376L462.15 120.365L461.9 120.798ZM479.535 120.464L478.551 122.166L478.118 121.916L479.102 120.213L479.535 120.464ZM483.748 121.839L485.511 120.793L485.766 121.223L484.003 122.269L483.748 121.839ZM465.331 122.776L463.616 121.787L463.865 121.354L465.581 122.343L465.331 122.776ZM474.477 124.852V122.882H474.977V124.852H474.477ZM480.22 123.93L481.984 122.885L482.239 123.315L480.475 124.36L480.22 123.93ZM468.761 124.755L467.046 123.766L467.296 123.333L469.011 124.322L468.761 124.755ZM477.566 123.869L476.582 125.571L476.149 125.321L477.134 123.619L477.566 123.869ZM476.693 126.022L478.457 124.976L478.712 125.406L476.948 126.452L476.693 126.022ZM472.192 126.733L470.477 125.744L470.726 125.311L472.442 126.3L472.192 126.733ZM474.477 127.337V126.821H474.977V127.147L475.036 127.248L475.165 127.024L475.598 127.274L475.106 128.125L474.981 128.342L474.765 128.217L474.363 127.985L474.303 128.021L474.239 127.914L473.907 127.722L474.157 127.289L474.36 127.406L474.477 127.337Z" fill="#EEE9F0"/>
<path opacity="0.3" fill-rule="evenodd" clip-rule="evenodd" d="M475.023 32.6589L475.239 32.7837L530.127 64.4367L530.344 64.5617L530.218 64.7783L493.572 128.178H527.083H527.995L527.211 128.644L475.617 159.242L475.106 160.125L474.981 160.342L474.765 160.217L474.363 159.985L474.303 160.021L474.239 159.914L419.877 128.564L419.66 128.439L419.785 128.222L456.432 64.8221L422.37 64.8221H421.458L422.242 64.357L474.674 33.2615L474.898 32.8752L475.023 32.6589ZM474.163 34.1461L423.282 64.3221L456.721 64.3221L474.163 34.1461ZM457.009 64.8221L420.388 128.178H474.477L474.476 64.8221H457.009ZM474.476 64.3221H457.298L474.476 34.6028V64.3221ZM474.976 64.8221L474.977 128.178H492.994L529.66 64.7448L529.288 64.5299V64.8221H474.976ZM528.927 64.3221L474.976 64.3221V33.7448H474.972L475.042 33.6249L475.365 33.4334L528.927 64.3221ZM492.705 128.678H474.977V159.04L475.249 158.879L492.705 128.678ZM476.128 158.358L526.171 128.678H493.283L476.128 158.358ZM474.477 159.337V128.678H421.077L474.36 159.406L474.477 159.337Z" fill="#EEE9F0"/>
<path opacity="0.7" d="M475.112 33.0002L530 64.6532L474.888 160L420 128.347L475.112 33.0002Z" stroke="#EEE9F0" stroke-width="0.5"/>
</g>
</g>
<g opacity="0.2">
<g opacity="0.8">
<path opacity="0.1" d="M255.112 193L310 224.653L254.888 320L200 288.347L255.112 193Z" fill="#CABBD1"/>
<path opacity="0.3" d="M237 224.5L254.5 193.5L202.5 224.5H237Z" fill="#CABBD1"/>
<path opacity="0.1" d="M273 288.5L255 319.5L306.813 288.5H273Z" fill="#CABBD1"/>
<path opacity="0.4" fill-rule="evenodd" clip-rule="evenodd" d="M255.023 160.659L255.239 160.784L256.097 161.278L255.847 161.711L255.365 161.433L255.042 161.625L254.972 161.745H254.976V162.73H254.476V161.853L254.268 161.502L254.674 161.262L254.898 160.875L255.023 160.659ZM257.812 162.267L259.527 163.257L259.277 163.69L257.562 162.701L257.812 162.267ZM250.741 163.594L252.505 162.548L252.76 162.978L250.996 164.024L250.741 163.594ZM252.437 165.132L253.421 163.429L253.854 163.679L252.87 165.382L252.437 165.132ZM261.242 164.246L262.958 165.235L262.708 165.668L260.992 164.679L261.242 164.246ZM247.214 165.686L248.978 164.64L249.233 165.07L247.469 166.116L247.214 165.686ZM254.476 166.669V164.699H254.976V166.669H254.476ZM264.673 166.224L266.388 167.213L266.138 167.646L264.423 166.657L264.673 166.224ZM243.687 167.778L245.45 166.732L245.705 167.162L243.942 168.208L243.687 167.778ZM250.469 168.537L251.453 166.834L251.886 167.085L250.902 168.787L250.469 168.537ZM268.103 168.202L269.818 169.192L269.569 169.625L267.853 168.636L268.103 168.202ZM254.476 170.609V168.639H254.976V170.609H254.476ZM240.16 169.87L241.923 168.824L242.178 169.254L240.415 170.3L240.16 169.87ZM271.534 170.181L273.249 171.17L272.999 171.603L271.284 170.614L271.534 170.181ZM248.501 171.942L249.485 170.24L249.918 170.49L248.934 172.192L248.501 171.942ZM236.632 171.962L238.396 170.916L238.651 171.346L236.887 172.392L236.632 171.962ZM274.964 172.159L276.679 173.148L276.43 173.581L274.714 172.592L274.964 172.159ZM254.476 174.548V172.578H254.976V174.548H254.476ZM233.105 174.053L234.869 173.007L235.124 173.437L233.36 174.483L233.105 174.053ZM246.532 175.347L247.516 173.645L247.949 173.895L246.965 175.598L246.532 175.347ZM278.395 174.137L280.11 175.126L279.86 175.56L278.145 174.57L278.395 174.137ZM229.578 176.145L231.342 175.099L231.597 175.529L229.833 176.575L229.578 176.145ZM281.825 176.116L283.54 177.105L283.291 177.538L281.575 176.549L281.825 176.116ZM254.477 178.487V176.518H254.977V178.487H254.477ZM244.564 178.753L245.548 177.05L245.981 177.3L244.997 179.003L244.564 178.753ZM226.051 178.237L227.814 177.191L228.07 177.621L226.306 178.667L226.051 178.237ZM285.256 178.094L286.971 179.083L286.721 179.516L285.006 178.527L285.256 178.094ZM222.524 180.329L224.287 179.283L224.542 179.713L222.779 180.759L222.524 180.329ZM288.686 180.072L290.401 181.061L290.152 181.495L288.436 180.505L288.686 180.072ZM242.596 182.158L243.58 180.455L244.013 180.706L243.029 182.408L242.596 182.158ZM254.477 182.427V180.457H254.977V182.427H254.477ZM218.997 182.421L220.76 181.375L221.015 181.805L219.252 182.851L218.997 182.421ZM292.117 182.051L293.832 183.04L293.582 183.473L291.867 182.484L292.117 182.051ZM215.469 184.513L217.233 183.467L217.488 183.897L215.724 184.943L215.469 184.513ZM240.627 185.563L241.612 183.861L242.044 184.111L241.06 185.813L240.627 185.563ZM295.547 184.029L297.262 185.018L297.013 185.451L295.297 184.462L295.547 184.029ZM254.477 186.366V184.396H254.977V186.366H254.477ZM211.942 186.604L213.706 185.559L213.961 185.989L212.197 187.035L211.942 186.604ZM298.978 186.007L300.693 186.996L300.443 187.429L298.728 186.44L298.978 186.007ZM238.659 188.968L239.643 187.266L240.076 187.516L239.092 189.219L238.659 188.968ZM208.415 188.696L210.179 187.65L210.434 188.08L208.67 189.126L208.415 188.696ZM302.408 187.985L304.123 188.975L303.874 189.408L302.158 188.419L302.408 187.985ZM254.477 190.306V188.336H254.977V190.306H254.477ZM204.888 190.788L206.651 189.742L206.906 190.172L205.143 191.218L204.888 190.788ZM305.839 189.964L307.554 190.953L307.304 191.386L305.589 190.397L305.839 189.964ZM236.691 192.374L237.675 190.671L238.108 190.921L237.298 192.322H238.999V192.822H237.019V192.564L236.691 192.374ZM202.242 192.357L203.124 191.834L203.379 192.264L203.282 192.322H203.36V192.822H202.37H201.458L202.242 192.357ZM309.269 191.942L310.127 192.437L310.344 192.562L310.218 192.778L309.726 193.63L309.293 193.379L309.66 192.745L309.288 192.53V192.822H308.298V192.322H309.05L309.269 191.942ZM254.477 192.322V192.275H254.977V194.245H254.477V192.822H252.859V192.322H254.477ZM266.719 192.822H264.739V192.322H266.719V192.822ZM270.678 192.822H268.698V192.322H270.678V192.822ZM274.638 192.822H272.658V192.322H274.638V192.822ZM278.598 192.822H276.618V192.322H278.598V192.822ZM282.558 192.822H280.578V192.322H282.558V192.822ZM286.518 192.822H284.538V192.322H286.518V192.822ZM290.478 192.822H288.498V192.322H290.478V192.822ZM294.438 192.822H292.458V192.322H294.438V192.822ZM298.398 192.822H296.418V192.322H298.398V192.822ZM302.358 192.822H300.378V192.322H302.358V192.822ZM306.318 192.822H304.338V192.322H306.318V192.822ZM215.24 192.822L213.26 192.822V192.322L215.24 192.322V192.822ZM219.2 192.822H217.22V192.322H219.2V192.822ZM223.159 192.822H221.18V192.322H223.159V192.822ZM227.119 192.822H225.139V192.322H227.119V192.822ZM231.079 192.822H229.099V192.322H231.079V192.822ZM235.039 192.822H233.059V192.322H235.039V192.822ZM242.959 192.822H240.979V192.322H242.959V192.822ZM246.919 192.822H244.939V192.322H246.919V192.822ZM250.879 192.822H248.899V192.322H250.879V192.822ZM258.799 192.822H256.819V192.322H258.799V192.822ZM262.759 192.822H260.779V192.322H262.759V192.822ZM207.32 192.822H205.34V192.322H207.32V192.822ZM211.28 192.822H209.3V192.322H211.28V192.822ZM234.723 195.779L235.707 194.076L236.14 194.327L235.155 196.029L234.723 195.779ZM308.742 195.332L307.758 197.035L307.325 196.785L308.309 195.082L308.742 195.332ZM254.477 198.184V196.215H254.977V198.184H254.477ZM232.754 199.184L233.738 197.482L234.171 197.732L233.187 199.434L232.754 199.184ZM306.774 198.738L305.79 200.44L305.357 200.19L306.341 198.487L306.774 198.738ZM254.477 202.124V200.154H254.977V202.124H254.477ZM230.786 202.589L231.77 200.887L232.203 201.137L231.219 202.84L230.786 202.589ZM304.805 202.143L303.821 203.845L303.388 203.595L304.373 201.893L304.805 202.143ZM254.477 206.063V204.094H254.977V206.063H254.477ZM228.818 205.995L229.802 204.292L230.235 204.542L229.251 206.245L228.818 205.995ZM302.837 205.548L301.853 207.251L301.42 207L302.404 205.298L302.837 205.548ZM226.849 209.4L227.834 207.697L228.266 207.948L227.282 209.65L226.849 209.4ZM254.477 210.003V208.033H254.977V210.003H254.477ZM300.869 208.953L299.885 210.656L299.452 210.406L300.436 208.703L300.869 208.953ZM224.881 212.805L225.865 211.103L226.298 211.353L225.314 213.055L224.881 212.805ZM254.477 213.942V211.972H254.977V213.942H254.477ZM298.901 212.359L297.916 214.061L297.484 213.811L298.468 212.108L298.901 212.359ZM222.913 216.211L223.897 214.508L224.33 214.758L223.346 216.461L222.913 216.211ZM296.932 215.764L295.948 217.466L295.515 217.216L296.499 215.514L296.932 215.764ZM254.477 217.882V215.912H254.977V217.882H254.477ZM220.945 219.616L221.929 217.913L222.362 218.163L221.377 219.866L220.945 219.616ZM294.964 219.169L293.98 220.872L293.547 220.621L294.531 218.919L294.964 219.169ZM254.477 221.821V219.851H254.977V221.821H254.477ZM218.976 223.021L219.96 221.318L220.393 221.569L219.409 223.271L218.976 223.021ZM292.996 222.574L292.012 224.277L291.579 224.027L292.563 222.324L292.996 222.574ZM254.477 225.76V223.791H254.977V225.76H254.477ZM217.008 226.426L217.992 224.724L218.425 224.974L217.441 226.676L217.008 226.426ZM291.027 225.98L290.043 227.682L289.61 227.432L290.595 225.729L291.027 225.98ZM254.477 229.7V227.73H254.977V229.7H254.477ZM215.04 229.832L216.024 228.129L216.457 228.379L215.473 230.082L215.04 229.832ZM289.059 229.385L288.075 231.087L287.642 230.837L288.626 229.135L289.059 229.385ZM213.071 233.237L214.056 231.534L214.488 231.784L213.504 233.487L213.071 233.237ZM254.477 233.639L254.477 231.669H254.977L254.977 233.639H254.477ZM287.091 232.79L286.107 234.493L285.674 234.242L286.658 232.54L287.091 232.79ZM211.103 236.642L212.087 234.939L212.52 235.19L211.536 236.892L211.103 236.642ZM254.477 237.579V235.609H254.977V237.579H254.477ZM285.123 236.195L284.138 237.898L283.706 237.648L284.69 235.945L285.123 236.195ZM209.135 240.047L210.119 238.345L210.552 238.595L209.568 240.297L209.135 240.047ZM283.154 239.601L282.17 241.303L281.737 241.053L282.721 239.35L283.154 239.601ZM254.477 241.518V239.548H254.977V241.518H254.477ZM207.166 243.453L208.151 241.75L208.584 242L207.599 243.703L207.166 243.453ZM281.186 243.006L280.202 244.708L279.769 244.458L280.753 242.756L281.186 243.006ZM254.477 245.457V243.488H254.977V245.457H254.477ZM205.198 246.858L206.182 245.155L206.615 245.405L205.631 247.108L205.198 246.858ZM279.218 246.411L278.234 248.114L277.801 247.863L278.785 246.161L279.218 246.411ZM254.477 249.397V247.427H254.977V249.397H254.477ZM203.23 250.263L204.214 248.56L204.647 248.811L203.663 250.513L203.23 250.263ZM277.249 249.816L276.265 251.519L275.832 251.269L276.816 249.566L277.249 249.816ZM254.477 253.336V251.367H254.977V253.336H254.477ZM201.262 253.668L202.246 251.966L202.679 252.216L201.694 253.918L201.262 253.668ZM275.281 253.222L274.297 254.924L273.864 254.674L274.848 252.971L275.281 253.222ZM254.477 257.276V255.306H254.977V256.178H256.594V256.678H254.977V257.276H254.477ZM199.785 256.222L200.277 255.371L200.71 255.621L200.388 256.178H201.155V256.678H200.954L200.735 257.058L199.877 256.564L199.66 256.439L199.785 256.222ZM205.115 256.678H203.135V256.178H205.115V256.678ZM209.075 256.678H207.095V256.178H209.075V256.678ZM213.035 256.678H211.055V256.178H213.035V256.678ZM216.995 256.678H215.015V256.178H216.995V256.678ZM220.955 256.678H218.975V256.178H220.955V256.678ZM224.915 256.678H222.935V256.178H224.915V256.678ZM228.875 256.678H226.895V256.178H228.875V256.678ZM232.835 256.678H230.855V256.178H232.835V256.678ZM236.795 256.678H234.815V256.178H236.795V256.678ZM240.755 256.678H238.775V256.178H240.755V256.678ZM244.714 256.678H242.735V256.178H244.714V256.678ZM248.674 256.678H246.694V256.178H248.674V256.678ZM252.634 256.678H250.654V256.178H252.634V256.678ZM260.554 256.678H258.574V256.178H260.554V256.678ZM264.514 256.678H262.534V256.178H264.514V256.678ZM268.474 256.678H266.494V256.178H268.474V256.678ZM272.434 256.678H270.454V256.178H272.434V256.678ZM276.394 256.678H274.414V256.178H276.394V256.678ZM280.354 256.678H278.374V256.178H280.354V256.678ZM284.314 256.678H282.334V256.178H284.314V256.678ZM288.274 256.678H286.294V256.178H288.274V256.678ZM292.233 256.678H290.253V256.178H292.233V256.678ZM296.193 256.678H294.213V256.178H296.193V256.678ZM300.153 256.678H298.173V256.178H300.153V256.678ZM304.113 256.678H302.133V256.178H304.113V256.678ZM306.171 256.678H306.093V256.178H307.083H307.995L307.211 256.644L306.329 257.166L306.074 256.736L306.171 256.678ZM273.313 256.627L272.329 258.329L271.896 258.079L272.88 256.377L273.313 256.627ZM204.165 259.037L202.45 258.048L202.7 257.614L204.415 258.604L204.165 259.037ZM302.547 258.828L304.31 257.782L304.565 258.212L302.802 259.258L302.547 258.828ZM254.477 261.215V259.245H254.977V261.215H254.477ZM207.596 261.015L205.88 260.026L206.13 259.593L207.845 260.582L207.596 261.015ZM271.345 260.032L270.36 261.735L269.927 261.484L270.912 259.782L271.345 260.032ZM299.019 260.92L300.783 259.874L301.038 260.304L299.274 261.35L299.019 260.92ZM211.026 262.993L209.311 262.004L209.561 261.571L211.276 262.56L211.026 262.993ZM295.492 263.012L297.256 261.966L297.511 262.396L295.747 263.442L295.492 263.012ZM254.477 265.155V263.185H254.977V265.155H254.477ZM269.376 263.437L268.392 265.14L267.959 264.89L268.943 263.187L269.376 263.437ZM214.457 264.972L212.741 263.983L212.991 263.549L214.706 264.539L214.457 264.972ZM291.965 265.104L293.729 264.058L293.984 264.488L292.22 265.534L291.965 265.104ZM217.887 266.95L216.172 265.961L216.422 265.528L218.137 266.517L217.887 266.95ZM288.438 267.196L290.201 266.15L290.456 266.58L288.693 267.626L288.438 267.196ZM267.408 266.843L266.424 268.545L265.991 268.295L266.975 266.592L267.408 266.843ZM254.477 269.094V267.124H254.977V269.094H254.477ZM221.317 268.928L219.602 267.939L219.852 267.506L221.567 268.495L221.317 268.928ZM284.911 269.288L286.674 268.242L286.929 268.672L285.166 269.718L284.911 269.288ZM224.748 270.907L223.033 269.917L223.283 269.484L224.998 270.473L224.748 270.907ZM265.44 270.248L264.455 271.95L264.023 271.7L265.007 269.998L265.44 270.248ZM281.383 271.379L283.147 270.333L283.402 270.763L281.639 271.809L281.383 271.379ZM254.477 273.033V271.064H254.977V273.033H254.477ZM228.178 272.885L226.463 271.896L226.713 271.463L228.428 272.452L228.178 272.885ZM277.856 273.471L279.62 272.425L279.875 272.855L278.111 273.901L277.856 273.471ZM263.471 273.653L262.487 275.356L262.054 275.105L263.038 273.403L263.471 273.653ZM231.609 274.863L229.894 273.874L230.143 273.441L231.859 274.43L231.609 274.863ZM274.329 275.563L276.093 274.517L276.348 274.947L274.584 275.993L274.329 275.563ZM254.477 276.973V275.003H254.977V276.973H254.477ZM235.039 276.842L233.324 275.852L233.574 275.419L235.289 276.408L235.039 276.842ZM270.802 277.655L272.566 276.609L272.821 277.039L271.057 278.085L270.802 277.655ZM261.503 277.058L260.519 278.761L260.086 278.511L261.07 276.808L261.503 277.058ZM238.47 278.82L236.755 277.831L237.004 277.398L238.72 278.387L238.47 278.82ZM267.275 279.747L269.038 278.701L269.293 279.131L267.53 280.177L267.275 279.747ZM254.477 280.912V278.943H254.977V280.912H254.477ZM241.9 280.798L240.185 279.809L240.435 279.376L242.15 280.365L241.9 280.798ZM259.535 280.464L258.551 282.166L258.118 281.916L259.102 280.213L259.535 280.464ZM263.748 281.839L265.511 280.793L265.766 281.223L264.003 282.269L263.748 281.839ZM245.331 282.776L243.616 281.787L243.865 281.354L245.581 282.343L245.331 282.776ZM254.477 284.852V282.882H254.977V284.852H254.477ZM260.22 283.93L261.984 282.885L262.239 283.315L260.475 284.36L260.22 283.93ZM248.761 284.755L247.046 283.766L247.296 283.333L249.011 284.322L248.761 284.755ZM257.566 283.869L256.582 285.571L256.149 285.321L257.134 283.619L257.566 283.869ZM256.693 286.022L258.457 284.976L258.712 285.406L256.948 286.452L256.693 286.022ZM252.192 286.733L250.477 285.744L250.726 285.311L252.442 286.3L252.192 286.733ZM254.477 287.337V286.821H254.977V287.147L255.036 287.248L255.165 287.024L255.598 287.274L255.106 288.125L254.981 288.342L254.765 288.217L254.363 287.985L254.303 288.021L254.239 287.914L253.907 287.722L254.157 287.289L254.36 287.406L254.477 287.337Z" fill="#EEE9F0"/>
<path opacity="0.3" fill-rule="evenodd" clip-rule="evenodd" d="M255.023 192.659L255.239 192.784L310.127 224.437L310.344 224.562L310.218 224.778L273.572 288.178H307.083H307.995L307.211 288.644L255.617 319.242L255.106 320.125L254.981 320.342L254.765 320.217L254.363 319.985L254.303 320.021L254.239 319.914L199.877 288.564L199.66 288.439L199.785 288.222L236.432 224.822L202.37 224.822H201.458L202.242 224.357L254.674 193.262L254.898 192.875L255.023 192.659ZM254.163 194.146L203.282 224.322L236.721 224.322L254.163 194.146ZM237.009 224.822L200.388 288.178H254.477L254.476 224.822H237.009ZM254.476 224.322H237.298L254.476 194.603V224.322ZM254.976 224.822L254.977 288.178H272.994L309.66 224.745L309.288 224.53V224.822H254.976ZM308.927 224.322L254.976 224.322V193.745H254.972L255.042 193.625L255.365 193.433L308.927 224.322ZM272.705 288.678H254.977V319.04L255.249 318.879L272.705 288.678ZM256.128 318.358L306.171 288.678H273.283L256.128 318.358ZM254.477 319.337V288.678H201.077L254.36 319.406L254.477 319.337Z" fill="#EEE9F0"/>
<path opacity="0.7" d="M255.112 193L310 224.653L254.888 320L200 288.347L255.112 193Z" stroke="#EEE9F0" stroke-width="0.5"/>
</g>
<g opacity="0.9">
<path opacity="0.1" d="M365.112 193L420 224.653L364.888 320L310 288.347L365.112 193Z" fill="#CABBD1"/>
<path opacity="0.3" d="M347 224.5L364.5 193.5L312.5 224.5H347Z" fill="#CABBD1"/>
<path opacity="0.1" d="M383 288.5L365 319.5L416.813 288.5H383Z" fill="#CABBD1"/>
<path opacity="0.4" fill-rule="evenodd" clip-rule="evenodd" d="M365.023 160.659L365.239 160.784L366.097 161.278L365.847 161.711L365.365 161.433L365.042 161.625L364.972 161.745H364.976V162.73H364.476V161.853L364.268 161.502L364.674 161.262L364.898 160.875L365.023 160.659ZM367.812 162.267L369.527 163.257L369.277 163.69L367.562 162.701L367.812 162.267ZM360.741 163.594L362.505 162.548L362.76 162.978L360.996 164.024L360.741 163.594ZM362.437 165.132L363.421 163.429L363.854 163.679L362.87 165.382L362.437 165.132ZM371.242 164.246L372.958 165.235L372.708 165.668L370.992 164.679L371.242 164.246ZM357.214 165.686L358.978 164.64L359.233 165.07L357.469 166.116L357.214 165.686ZM364.476 166.669V164.699H364.976V166.669H364.476ZM374.673 166.224L376.388 167.213L376.138 167.646L374.423 166.657L374.673 166.224ZM353.687 167.778L355.45 166.732L355.705 167.162L353.942 168.208L353.687 167.778ZM360.469 168.537L361.453 166.834L361.886 167.085L360.902 168.787L360.469 168.537ZM378.103 168.202L379.818 169.192L379.569 169.625L377.853 168.636L378.103 168.202ZM364.476 170.609V168.639H364.976V170.609H364.476ZM350.16 169.87L351.923 168.824L352.178 169.254L350.415 170.3L350.16 169.87ZM381.534 170.181L383.249 171.17L382.999 171.603L381.284 170.614L381.534 170.181ZM358.501 171.942L359.485 170.24L359.918 170.49L358.934 172.192L358.501 171.942ZM346.632 171.962L348.396 170.916L348.651 171.346L346.887 172.392L346.632 171.962ZM384.964 172.159L386.679 173.148L386.43 173.581L384.714 172.592L384.964 172.159ZM364.476 174.548V172.578H364.976V174.548H364.476ZM343.105 174.053L344.869 173.007L345.124 173.437L343.36 174.483L343.105 174.053ZM356.532 175.347L357.516 173.645L357.949 173.895L356.965 175.598L356.532 175.347ZM388.395 174.137L390.11 175.126L389.86 175.56L388.145 174.57L388.395 174.137ZM339.578 176.145L341.342 175.099L341.597 175.529L339.833 176.575L339.578 176.145ZM391.825 176.116L393.54 177.105L393.291 177.538L391.575 176.549L391.825 176.116ZM364.477 178.487V176.518H364.977V178.487H364.477ZM354.564 178.753L355.548 177.05L355.981 177.3L354.997 179.003L354.564 178.753ZM336.051 178.237L337.814 177.191L338.07 177.621L336.306 178.667L336.051 178.237ZM395.256 178.094L396.971 179.083L396.721 179.516L395.006 178.527L395.256 178.094ZM332.524 180.329L334.287 179.283L334.542 179.713L332.779 180.759L332.524 180.329ZM398.686 180.072L400.401 181.061L400.152 181.495L398.436 180.505L398.686 180.072ZM352.596 182.158L353.58 180.455L354.013 180.706L353.029 182.408L352.596 182.158ZM364.477 182.427V180.457H364.977V182.427H364.477ZM328.997 182.421L330.76 181.375L331.015 181.805L329.252 182.851L328.997 182.421ZM402.117 182.051L403.832 183.04L403.582 183.473L401.867 182.484L402.117 182.051ZM325.469 184.513L327.233 183.467L327.488 183.897L325.724 184.943L325.469 184.513ZM350.627 185.563L351.612 183.861L352.044 184.111L351.06 185.813L350.627 185.563ZM405.547 184.029L407.262 185.018L407.013 185.451L405.297 184.462L405.547 184.029ZM364.477 186.366V184.396H364.977V186.366H364.477ZM321.942 186.604L323.706 185.559L323.961 185.989L322.197 187.035L321.942 186.604ZM408.978 186.007L410.693 186.996L410.443 187.429L408.728 186.44L408.978 186.007ZM348.659 188.968L349.643 187.266L350.076 187.516L349.092 189.219L348.659 188.968ZM318.415 188.696L320.179 187.65L320.434 188.08L318.67 189.126L318.415 188.696ZM412.408 187.985L414.123 188.975L413.874 189.408L412.158 188.419L412.408 187.985ZM364.477 190.306V188.336H364.977V190.306H364.477ZM314.888 190.788L316.651 189.742L316.906 190.172L315.143 191.218L314.888 190.788ZM415.839 189.964L417.554 190.953L417.304 191.386L415.589 190.397L415.839 189.964ZM346.691 192.374L347.675 190.671L348.108 190.921L347.298 192.322H348.999V192.822H347.019V192.564L346.691 192.374ZM312.242 192.357L313.124 191.834L313.379 192.264L313.282 192.322H313.36V192.822H312.37H311.458L312.242 192.357ZM419.269 191.942L420.127 192.437L420.344 192.562L420.218 192.778L419.726 193.63L419.293 193.379L419.66 192.745L419.288 192.53V192.822H418.298V192.322H419.05L419.269 191.942ZM364.477 192.322V192.275H364.977V194.245H364.477V192.822H362.859V192.322H364.477ZM376.719 192.822H374.739V192.322H376.719V192.822ZM380.678 192.822H378.698V192.322H380.678V192.822ZM384.638 192.822H382.658V192.322H384.638V192.822ZM388.598 192.822H386.618V192.322H388.598V192.822ZM392.558 192.822H390.578V192.322H392.558V192.822ZM396.518 192.822H394.538V192.322H396.518V192.822ZM400.478 192.822H398.498V192.322H400.478V192.822ZM404.438 192.822H402.458V192.322H404.438V192.822ZM408.398 192.822H406.418V192.322H408.398V192.822ZM412.358 192.822H410.378V192.322H412.358V192.822ZM416.318 192.822H414.338V192.322H416.318V192.822ZM325.24 192.822L323.26 192.822V192.322L325.24 192.322V192.822ZM329.2 192.822H327.22V192.322H329.2V192.822ZM333.159 192.822H331.18V192.322H333.159V192.822ZM337.119 192.822H335.139V192.322H337.119V192.822ZM341.079 192.822H339.099V192.322H341.079V192.822ZM345.039 192.822H343.059V192.322H345.039V192.822ZM352.959 192.822H350.979V192.322H352.959V192.822ZM356.919 192.822H354.939V192.322H356.919V192.822ZM360.879 192.822H358.899V192.322H360.879V192.822ZM368.799 192.822H366.819V192.322H368.799V192.822ZM372.759 192.822H370.779V192.322H372.759V192.822ZM317.32 192.822H315.34V192.322H317.32V192.822ZM321.28 192.822H319.3V192.322H321.28V192.822ZM344.723 195.779L345.707 194.076L346.14 194.327L345.155 196.029L344.723 195.779ZM418.742 195.332L417.758 197.035L417.325 196.785L418.309 195.082L418.742 195.332ZM364.477 198.184V196.215H364.977V198.184H364.477ZM342.754 199.184L343.738 197.482L344.171 197.732L343.187 199.434L342.754 199.184ZM416.774 198.738L415.79 200.44L415.357 200.19L416.341 198.487L416.774 198.738ZM364.477 202.124V200.154H364.977V202.124H364.477ZM340.786 202.589L341.77 200.887L342.203 201.137L341.219 202.84L340.786 202.589ZM414.805 202.143L413.821 203.845L413.388 203.595L414.373 201.893L414.805 202.143ZM364.477 206.063V204.094H364.977V206.063H364.477ZM338.818 205.995L339.802 204.292L340.235 204.542L339.251 206.245L338.818 205.995ZM412.837 205.548L411.853 207.251L411.42 207L412.404 205.298L412.837 205.548ZM336.849 209.4L337.834 207.697L338.266 207.948L337.282 209.65L336.849 209.4ZM364.477 210.003V208.033H364.977V210.003H364.477ZM410.869 208.953L409.885 210.656L409.452 210.406L410.436 208.703L410.869 208.953ZM334.881 212.805L335.865 211.103L336.298 211.353L335.314 213.055L334.881 212.805ZM364.477 213.942V211.972H364.977V213.942H364.477ZM408.901 212.359L407.916 214.061L407.484 213.811L408.468 212.108L408.901 212.359ZM332.913 216.211L333.897 214.508L334.33 214.758L333.346 216.461L332.913 216.211ZM406.932 215.764L405.948 217.466L405.515 217.216L406.499 215.514L406.932 215.764ZM364.477 217.882V215.912H364.977V217.882H364.477ZM330.945 219.616L331.929 217.913L332.362 218.163L331.377 219.866L330.945 219.616ZM404.964 219.169L403.98 220.872L403.547 220.621L404.531 218.919L404.964 219.169ZM364.477 221.821V219.851H364.977V221.821H364.477ZM328.976 223.021L329.96 221.318L330.393 221.569L329.409 223.271L328.976 223.021ZM402.996 222.574L402.012 224.277L401.579 224.027L402.563 222.324L402.996 222.574ZM364.477 225.76V223.791H364.977V225.76H364.477ZM327.008 226.426L327.992 224.724L328.425 224.974L327.441 226.676L327.008 226.426ZM401.027 225.98L400.043 227.682L399.61 227.432L400.595 225.729L401.027 225.98ZM364.477 229.7V227.73H364.977V229.7H364.477ZM325.04 229.832L326.024 228.129L326.457 228.379L325.473 230.082L325.04 229.832ZM399.059 229.385L398.075 231.087L397.642 230.837L398.626 229.135L399.059 229.385ZM323.071 233.237L324.056 231.534L324.488 231.784L323.504 233.487L323.071 233.237ZM364.477 233.639L364.477 231.669H364.977L364.977 233.639H364.477ZM397.091 232.79L396.107 234.493L395.674 234.242L396.658 232.54L397.091 232.79ZM321.103 236.642L322.087 234.939L322.52 235.19L321.536 236.892L321.103 236.642ZM364.477 237.579V235.609H364.977V237.579H364.477ZM395.123 236.195L394.138 237.898L393.706 237.648L394.69 235.945L395.123 236.195ZM319.135 240.047L320.119 238.345L320.552 238.595L319.568 240.297L319.135 240.047ZM393.154 239.601L392.17 241.303L391.737 241.053L392.721 239.35L393.154 239.601ZM364.477 241.518V239.548H364.977V241.518H364.477ZM317.166 243.453L318.151 241.75L318.584 242L317.599 243.703L317.166 243.453ZM391.186 243.006L390.202 244.708L389.769 244.458L390.753 242.756L391.186 243.006ZM364.477 245.457V243.488H364.977V245.457H364.477ZM315.198 246.858L316.182 245.155L316.615 245.405L315.631 247.108L315.198 246.858ZM389.218 246.411L388.234 248.114L387.801 247.863L388.785 246.161L389.218 246.411ZM364.477 249.397V247.427H364.977V249.397H364.477ZM313.23 250.263L314.214 248.56L314.647 248.811L313.663 250.513L313.23 250.263ZM387.249 249.816L386.265 251.519L385.832 251.269L386.816 249.566L387.249 249.816ZM364.477 253.336V251.367H364.977V253.336H364.477ZM311.262 253.668L312.246 251.966L312.679 252.216L311.694 253.918L311.262 253.668ZM385.281 253.222L384.297 254.924L383.864 254.674L384.848 252.971L385.281 253.222ZM364.477 257.276V255.306H364.977V256.178H366.594V256.678H364.977V257.276H364.477ZM309.785 256.222L310.277 255.371L310.71 255.621L310.388 256.178H311.155V256.678H310.954L310.735 257.058L309.877 256.564L309.66 256.439L309.785 256.222ZM315.115 256.678H313.135V256.178H315.115V256.678ZM319.075 256.678H317.095V256.178H319.075V256.678ZM323.035 256.678H321.055V256.178H323.035V256.678ZM326.995 256.678H325.015V256.178H326.995V256.678ZM330.955 256.678H328.975V256.178H330.955V256.678ZM334.915 256.678H332.935V256.178H334.915V256.678ZM338.875 256.678H336.895V256.178H338.875V256.678ZM342.835 256.678H340.855V256.178H342.835V256.678ZM346.795 256.678H344.815V256.178H346.795V256.678ZM350.755 256.678H348.775V256.178H350.755V256.678ZM354.714 256.678H352.735V256.178H354.714V256.678ZM358.674 256.678H356.694V256.178H358.674V256.678ZM362.634 256.678H360.654V256.178H362.634V256.678ZM370.554 256.678H368.574V256.178H370.554V256.678ZM374.514 256.678H372.534V256.178H374.514V256.678ZM378.474 256.678H376.494V256.178H378.474V256.678ZM382.434 256.678H380.454V256.178H382.434V256.678ZM386.394 256.678H384.414V256.178H386.394V256.678ZM390.354 256.678H388.374V256.178H390.354V256.678ZM394.314 256.678H392.334V256.178H394.314V256.678ZM398.274 256.678H396.294V256.178H398.274V256.678ZM402.233 256.678H400.253V256.178H402.233V256.678ZM406.193 256.678H404.213V256.178H406.193V256.678ZM410.153 256.678H408.173V256.178H410.153V256.678ZM414.113 256.678H412.133V256.178H414.113V256.678ZM416.171 256.678H416.093V256.178H417.083H417.995L417.211 256.644L416.329 257.166L416.074 256.736L416.171 256.678ZM383.313 256.627L382.329 258.329L381.896 258.079L382.88 256.377L383.313 256.627ZM314.165 259.037L312.45 258.048L312.7 257.614L314.415 258.604L314.165 259.037ZM412.547 258.828L414.31 257.782L414.565 258.212L412.802 259.258L412.547 258.828ZM364.477 261.215V259.245H364.977V261.215H364.477ZM317.596 261.015L315.88 260.026L316.13 259.593L317.845 260.582L317.596 261.015ZM381.345 260.032L380.36 261.735L379.927 261.484L380.912 259.782L381.345 260.032ZM409.019 260.92L410.783 259.874L411.038 260.304L409.274 261.35L409.019 260.92ZM321.026 262.993L319.311 262.004L319.561 261.571L321.276 262.56L321.026 262.993ZM405.492 263.012L407.256 261.966L407.511 262.396L405.747 263.442L405.492 263.012ZM364.477 265.155V263.185H364.977V265.155H364.477ZM379.376 263.437L378.392 265.14L377.959 264.89L378.943 263.187L379.376 263.437ZM324.457 264.972L322.741 263.983L322.991 263.549L324.706 264.539L324.457 264.972ZM401.965 265.104L403.729 264.058L403.984 264.488L402.22 265.534L401.965 265.104ZM327.887 266.95L326.172 265.961L326.422 265.528L328.137 266.517L327.887 266.95ZM398.438 267.196L400.201 266.15L400.456 266.58L398.693 267.626L398.438 267.196ZM377.408 266.843L376.424 268.545L375.991 268.295L376.975 266.592L377.408 266.843ZM364.477 269.094V267.124H364.977V269.094H364.477ZM331.317 268.928L329.602 267.939L329.852 267.506L331.567 268.495L331.317 268.928ZM394.911 269.288L396.674 268.242L396.929 268.672L395.166 269.718L394.911 269.288ZM334.748 270.907L333.033 269.917L333.283 269.484L334.998 270.473L334.748 270.907ZM375.44 270.248L374.455 271.95L374.023 271.7L375.007 269.998L375.44 270.248ZM391.383 271.379L393.147 270.333L393.402 270.763L391.639 271.809L391.383 271.379ZM364.477 273.033V271.064H364.977V273.033H364.477ZM338.178 272.885L336.463 271.896L336.713 271.463L338.428 272.452L338.178 272.885ZM387.856 273.471L389.62 272.425L389.875 272.855L388.111 273.901L387.856 273.471ZM373.471 273.653L372.487 275.356L372.054 275.105L373.038 273.403L373.471 273.653ZM341.609 274.863L339.894 273.874L340.143 273.441L341.859 274.43L341.609 274.863ZM384.329 275.563L386.093 274.517L386.348 274.947L384.584 275.993L384.329 275.563ZM364.477 276.973V275.003H364.977V276.973H364.477ZM345.039 276.842L343.324 275.852L343.574 275.419L345.289 276.408L345.039 276.842ZM380.802 277.655L382.566 276.609L382.821 277.039L381.057 278.085L380.802 277.655ZM371.503 277.058L370.519 278.761L370.086 278.511L371.07 276.808L371.503 277.058ZM348.47 278.82L346.755 277.831L347.004 277.398L348.72 278.387L348.47 278.82ZM377.275 279.747L379.038 278.701L379.293 279.131L377.53 280.177L377.275 279.747ZM364.477 280.912V278.943H364.977V280.912H364.477ZM351.9 280.798L350.185 279.809L350.435 279.376L352.15 280.365L351.9 280.798ZM369.535 280.464L368.551 282.166L368.118 281.916L369.102 280.213L369.535 280.464ZM373.748 281.839L375.511 280.793L375.766 281.223L374.003 282.269L373.748 281.839ZM355.331 282.776L353.616 281.787L353.865 281.354L355.581 282.343L355.331 282.776ZM364.477 284.852V282.882H364.977V284.852H364.477ZM370.22 283.93L371.984 282.885L372.239 283.315L370.475 284.36L370.22 283.93ZM358.761 284.755L357.046 283.766L357.296 283.333L359.011 284.322L358.761 284.755ZM367.566 283.869L366.582 285.571L366.149 285.321L367.134 283.619L367.566 283.869ZM366.693 286.022L368.457 284.976L368.712 285.406L366.948 286.452L366.693 286.022ZM362.192 286.733L360.477 285.744L360.726 285.311L362.442 286.3L362.192 286.733ZM364.477 287.337V286.821H364.977V287.147L365.036 287.248L365.165 287.024L365.598 287.274L365.106 288.125L364.981 288.342L364.765 288.217L364.363 287.985L364.303 288.021L364.239 287.914L363.907 287.722L364.157 287.289L364.36 287.406L364.477 287.337Z" fill="#EEE9F0"/>
<path opacity="0.3" fill-rule="evenodd" clip-rule="evenodd" d="M365.023 192.659L365.239 192.784L420.127 224.437L420.344 224.562L420.218 224.778L383.572 288.178H417.083H417.995L417.211 288.644L365.617 319.242L365.106 320.125L364.981 320.342L364.765 320.217L364.363 319.985L364.303 320.021L364.239 319.914L309.877 288.564L309.66 288.439L309.785 288.222L346.432 224.822L312.37 224.822H311.458L312.242 224.357L364.674 193.262L364.898 192.875L365.023 192.659ZM364.163 194.146L313.282 224.322L346.721 224.322L364.163 194.146ZM347.009 224.822L310.388 288.178H364.477L364.476 224.822H347.009ZM364.476 224.322H347.298L364.476 194.603V224.322ZM364.976 224.822L364.977 288.178H382.994L419.66 224.745L419.288 224.53V224.822H364.976ZM418.927 224.322L364.976 224.322V193.745H364.972L365.042 193.625L365.365 193.433L418.927 224.322ZM382.705 288.678H364.977V319.04L365.249 318.879L382.705 288.678ZM366.128 318.358L416.171 288.678H383.283L366.128 318.358ZM364.477 319.337V288.678H311.077L364.36 319.406L364.477 319.337Z" fill="#EEE9F0"/>
<path opacity="0.7" d="M365.112 193L420 224.653L364.888 320L310 288.347L365.112 193Z" stroke="#EEE9F0" stroke-width="0.5"/>
</g>
<path opacity="0.1" d="M475.112 193L530 224.653L474.888 320L420 288.347L475.112 193Z" fill="#CABBD1"/>
<path opacity="0.3" d="M457 224.5L474.5 193.5L422.5 224.5H457Z" fill="#CABBD1"/>
<path opacity="0.1" d="M493 288.5L475 319.5L526.813 288.5H493Z" fill="#CABBD1"/>
<path opacity="0.4" fill-rule="evenodd" clip-rule="evenodd" d="M475.023 160.659L475.239 160.784L476.097 161.278L475.847 161.711L475.365 161.433L475.042 161.625L474.972 161.745H474.976V162.73H474.476V161.853L474.268 161.502L474.674 161.262L474.898 160.875L475.023 160.659ZM477.812 162.267L479.527 163.257L479.277 163.69L477.562 162.701L477.812 162.267ZM470.741 163.594L472.505 162.548L472.76 162.978L470.996 164.024L470.741 163.594ZM472.437 165.132L473.421 163.429L473.854 163.679L472.87 165.382L472.437 165.132ZM481.242 164.246L482.958 165.235L482.708 165.668L480.992 164.679L481.242 164.246ZM467.214 165.686L468.978 164.64L469.233 165.07L467.469 166.116L467.214 165.686ZM474.476 166.669V164.699H474.976V166.669H474.476ZM484.673 166.224L486.388 167.213L486.138 167.646L484.423 166.657L484.673 166.224ZM463.687 167.778L465.45 166.732L465.705 167.162L463.942 168.208L463.687 167.778ZM470.469 168.537L471.453 166.834L471.886 167.085L470.902 168.787L470.469 168.537ZM488.103 168.202L489.818 169.192L489.569 169.625L487.853 168.636L488.103 168.202ZM474.476 170.609V168.639H474.976V170.609H474.476ZM460.16 169.87L461.923 168.824L462.178 169.254L460.415 170.3L460.16 169.87ZM491.534 170.181L493.249 171.17L492.999 171.603L491.284 170.614L491.534 170.181ZM468.501 171.942L469.485 170.24L469.918 170.49L468.934 172.192L468.501 171.942ZM456.632 171.962L458.396 170.916L458.651 171.346L456.887 172.392L456.632 171.962ZM494.964 172.159L496.679 173.148L496.43 173.581L494.714 172.592L494.964 172.159ZM474.476 174.548V172.578H474.976V174.548H474.476ZM453.105 174.053L454.869 173.007L455.124 173.437L453.36 174.483L453.105 174.053ZM466.532 175.347L467.516 173.645L467.949 173.895L466.965 175.598L466.532 175.347ZM498.395 174.137L500.11 175.126L499.86 175.56L498.145 174.57L498.395 174.137ZM449.578 176.145L451.342 175.099L451.597 175.529L449.833 176.575L449.578 176.145ZM501.825 176.116L503.54 177.105L503.291 177.538L501.575 176.549L501.825 176.116ZM474.477 178.487V176.518H474.977V178.487H474.477ZM464.564 178.753L465.548 177.05L465.981 177.3L464.997 179.003L464.564 178.753ZM446.051 178.237L447.814 177.191L448.07 177.621L446.306 178.667L446.051 178.237ZM505.256 178.094L506.971 179.083L506.721 179.516L505.006 178.527L505.256 178.094ZM442.524 180.329L444.287 179.283L444.542 179.713L442.779 180.759L442.524 180.329ZM508.686 180.072L510.401 181.061L510.152 181.495L508.436 180.505L508.686 180.072ZM462.596 182.158L463.58 180.455L464.013 180.706L463.029 182.408L462.596 182.158ZM474.477 182.427V180.457H474.977V182.427H474.477ZM438.997 182.421L440.76 181.375L441.015 181.805L439.252 182.851L438.997 182.421ZM512.117 182.051L513.832 183.04L513.582 183.473L511.867 182.484L512.117 182.051ZM435.469 184.513L437.233 183.467L437.488 183.897L435.724 184.943L435.469 184.513ZM460.627 185.563L461.612 183.861L462.044 184.111L461.06 185.813L460.627 185.563ZM515.547 184.029L517.262 185.018L517.013 185.451L515.297 184.462L515.547 184.029ZM474.477 186.366V184.396H474.977V186.366H474.477ZM431.942 186.604L433.706 185.559L433.961 185.989L432.197 187.035L431.942 186.604ZM518.978 186.007L520.693 186.996L520.443 187.429L518.728 186.44L518.978 186.007ZM458.659 188.968L459.643 187.266L460.076 187.516L459.092 189.219L458.659 188.968ZM428.415 188.696L430.179 187.65L430.434 188.08L428.67 189.126L428.415 188.696ZM522.408 187.985L524.123 188.975L523.874 189.408L522.158 188.419L522.408 187.985ZM474.477 190.306V188.336H474.977V190.306H474.477ZM424.888 190.788L426.651 189.742L426.906 190.172L425.143 191.218L424.888 190.788ZM525.839 189.964L527.554 190.953L527.304 191.386L525.589 190.397L525.839 189.964ZM456.691 192.374L457.675 190.671L458.108 190.921L457.298 192.322H458.999V192.822H457.019V192.564L456.691 192.374ZM422.242 192.357L423.124 191.834L423.379 192.264L423.282 192.322H423.36V192.822H422.37H421.458L422.242 192.357ZM529.269 191.942L530.127 192.437L530.344 192.562L530.218 192.778L529.726 193.63L529.293 193.379L529.66 192.745L529.288 192.53V192.822H528.298V192.322H529.05L529.269 191.942ZM474.477 192.322V192.275H474.977V194.245H474.477V192.822H472.859V192.322H474.477ZM486.719 192.822H484.739V192.322H486.719V192.822ZM490.678 192.822H488.698V192.322H490.678V192.822ZM494.638 192.822H492.658V192.322H494.638V192.822ZM498.598 192.822H496.618V192.322H498.598V192.822ZM502.558 192.822H500.578V192.322H502.558V192.822ZM506.518 192.822H504.538V192.322H506.518V192.822ZM510.478 192.822H508.498V192.322H510.478V192.822ZM514.438 192.822H512.458V192.322H514.438V192.822ZM518.398 192.822H516.418V192.322H518.398V192.822ZM522.358 192.822H520.378V192.322H522.358V192.822ZM526.318 192.822H524.338V192.322H526.318V192.822ZM435.24 192.822L433.26 192.822V192.322L435.24 192.322V192.822ZM439.2 192.822H437.22V192.322H439.2V192.822ZM443.159 192.822H441.18V192.322H443.159V192.822ZM447.119 192.822H445.139V192.322H447.119V192.822ZM451.079 192.822H449.099V192.322H451.079V192.822ZM455.039 192.822H453.059V192.322H455.039V192.822ZM462.959 192.822H460.979V192.322H462.959V192.822ZM466.919 192.822H464.939V192.322H466.919V192.822ZM470.879 192.822H468.899V192.322H470.879V192.822ZM478.799 192.822H476.819V192.322H478.799V192.822ZM482.759 192.822H480.779V192.322H482.759V192.822ZM427.32 192.822H425.34V192.322H427.32V192.822ZM431.28 192.822H429.3V192.322H431.28V192.822ZM454.723 195.779L455.707 194.076L456.14 194.327L455.155 196.029L454.723 195.779ZM528.742 195.332L527.758 197.035L527.325 196.785L528.309 195.082L528.742 195.332ZM474.477 198.184V196.215H474.977V198.184H474.477ZM452.754 199.184L453.738 197.482L454.171 197.732L453.187 199.434L452.754 199.184ZM526.774 198.738L525.79 200.44L525.357 200.19L526.341 198.487L526.774 198.738ZM474.477 202.124V200.154H474.977V202.124H474.477ZM450.786 202.589L451.77 200.887L452.203 201.137L451.219 202.84L450.786 202.589ZM524.805 202.143L523.821 203.845L523.388 203.595L524.373 201.893L524.805 202.143ZM474.477 206.063V204.094H474.977V206.063H474.477ZM448.818 205.995L449.802 204.292L450.235 204.542L449.251 206.245L448.818 205.995ZM522.837 205.548L521.853 207.251L521.42 207L522.404 205.298L522.837 205.548ZM446.849 209.4L447.834 207.697L448.266 207.948L447.282 209.65L446.849 209.4ZM474.477 210.003V208.033H474.977V210.003H474.477ZM520.869 208.953L519.885 210.656L519.452 210.406L520.436 208.703L520.869 208.953ZM444.881 212.805L445.865 211.103L446.298 211.353L445.314 213.055L444.881 212.805ZM474.477 213.942V211.972H474.977V213.942H474.477ZM518.901 212.359L517.916 214.061L517.484 213.811L518.468 212.108L518.901 212.359ZM442.913 216.211L443.897 214.508L444.33 214.758L443.346 216.461L442.913 216.211ZM516.932 215.764L515.948 217.466L515.515 217.216L516.499 215.514L516.932 215.764ZM474.477 217.882V215.912H474.977V217.882H474.477ZM440.945 219.616L441.929 217.913L442.362 218.163L441.377 219.866L440.945 219.616ZM514.964 219.169L513.98 220.872L513.547 220.621L514.531 218.919L514.964 219.169ZM474.477 221.821V219.851H474.977V221.821H474.477ZM438.976 223.021L439.96 221.318L440.393 221.569L439.409 223.271L438.976 223.021ZM512.996 222.574L512.012 224.277L511.579 224.027L512.563 222.324L512.996 222.574ZM474.477 225.76V223.791H474.977V225.76H474.477ZM437.008 226.426L437.992 224.724L438.425 224.974L437.441 226.676L437.008 226.426ZM511.027 225.98L510.043 227.682L509.61 227.432L510.595 225.729L511.027 225.98ZM474.477 229.7V227.73H474.977V229.7H474.477ZM435.04 229.832L436.024 228.129L436.457 228.379L435.473 230.082L435.04 229.832ZM509.059 229.385L508.075 231.087L507.642 230.837L508.626 229.135L509.059 229.385ZM433.071 233.237L434.056 231.534L434.488 231.784L433.504 233.487L433.071 233.237ZM474.477 233.639L474.477 231.669H474.977L474.977 233.639H474.477ZM507.091 232.79L506.107 234.493L505.674 234.242L506.658 232.54L507.091 232.79ZM431.103 236.642L432.087 234.939L432.52 235.19L431.536 236.892L431.103 236.642ZM474.477 237.579V235.609H474.977V237.579H474.477ZM505.123 236.195L504.138 237.898L503.706 237.648L504.69 235.945L505.123 236.195ZM429.135 240.047L430.119 238.345L430.552 238.595L429.568 240.297L429.135 240.047ZM503.154 239.601L502.17 241.303L501.737 241.053L502.721 239.35L503.154 239.601ZM474.477 241.518V239.548H474.977V241.518H474.477ZM427.166 243.453L428.151 241.75L428.584 242L427.599 243.703L427.166 243.453ZM501.186 243.006L500.202 244.708L499.769 244.458L500.753 242.756L501.186 243.006ZM474.477 245.457V243.488H474.977V245.457H474.477ZM425.198 246.858L426.182 245.155L426.615 245.405L425.631 247.108L425.198 246.858ZM499.218 246.411L498.234 248.114L497.801 247.863L498.785 246.161L499.218 246.411ZM474.477 249.397V247.427H474.977V249.397H474.477ZM423.23 250.263L424.214 248.56L424.647 248.811L423.663 250.513L423.23 250.263ZM497.249 249.816L496.265 251.519L495.832 251.269L496.816 249.566L497.249 249.816ZM474.477 253.336V251.367H474.977V253.336H474.477ZM421.262 253.668L422.246 251.966L422.679 252.216L421.694 253.918L421.262 253.668ZM495.281 253.222L494.297 254.924L493.864 254.674L494.848 252.971L495.281 253.222ZM474.477 257.276V255.306H474.977V256.178H476.594V256.678H474.977V257.276H474.477ZM419.785 256.222L420.277 255.371L420.71 255.621L420.388 256.178H421.155V256.678H420.954L420.735 257.058L419.877 256.564L419.66 256.439L419.785 256.222ZM425.115 256.678H423.135V256.178H425.115V256.678ZM429.075 256.678H427.095V256.178H429.075V256.678ZM433.035 256.678H431.055V256.178H433.035V256.678ZM436.995 256.678H435.015V256.178H436.995V256.678ZM440.955 256.678H438.975V256.178H440.955V256.678ZM444.915 256.678H442.935V256.178H444.915V256.678ZM448.875 256.678H446.895V256.178H448.875V256.678ZM452.835 256.678H450.855V256.178H452.835V256.678ZM456.795 256.678H454.815V256.178H456.795V256.678ZM460.755 256.678H458.775V256.178H460.755V256.678ZM464.714 256.678H462.735V256.178H464.714V256.678ZM468.674 256.678H466.694V256.178H468.674V256.678ZM472.634 256.678H470.654V256.178H472.634V256.678ZM480.554 256.678H478.574V256.178H480.554V256.678ZM484.514 256.678H482.534V256.178H484.514V256.678ZM488.474 256.678H486.494V256.178H488.474V256.678ZM492.434 256.678H490.454V256.178H492.434V256.678ZM496.394 256.678H494.414V256.178H496.394V256.678ZM500.354 256.678H498.374V256.178H500.354V256.678ZM504.314 256.678H502.334V256.178H504.314V256.678ZM508.274 256.678H506.294V256.178H508.274V256.678ZM512.233 256.678H510.253V256.178H512.233V256.678ZM516.193 256.678H514.213V256.178H516.193V256.678ZM520.153 256.678H518.173V256.178H520.153V256.678ZM524.113 256.678H522.133V256.178H524.113V256.678ZM526.171 256.678H526.093V256.178H527.083H527.995L527.211 256.644L526.329 257.166L526.074 256.736L526.171 256.678ZM493.313 256.627L492.329 258.329L491.896 258.079L492.88 256.377L493.313 256.627ZM424.165 259.037L422.45 258.048L422.7 257.614L424.415 258.604L424.165 259.037ZM522.547 258.828L524.31 257.782L524.565 258.212L522.802 259.258L522.547 258.828ZM474.477 261.215V259.245H474.977V261.215H474.477ZM427.596 261.015L425.88 260.026L426.13 259.593L427.845 260.582L427.596 261.015ZM491.345 260.032L490.36 261.735L489.927 261.484L490.912 259.782L491.345 260.032ZM519.019 260.92L520.783 259.874L521.038 260.304L519.274 261.35L519.019 260.92ZM431.026 262.993L429.311 262.004L429.561 261.571L431.276 262.56L431.026 262.993ZM515.492 263.012L517.256 261.966L517.511 262.396L515.747 263.442L515.492 263.012ZM474.477 265.155V263.185H474.977V265.155H474.477ZM489.376 263.437L488.392 265.14L487.959 264.89L488.943 263.187L489.376 263.437ZM434.457 264.972L432.741 263.983L432.991 263.549L434.706 264.539L434.457 264.972ZM511.965 265.104L513.729 264.058L513.984 264.488L512.22 265.534L511.965 265.104ZM437.887 266.95L436.172 265.961L436.422 265.528L438.137 266.517L437.887 266.95ZM508.438 267.196L510.201 266.15L510.456 266.58L508.693 267.626L508.438 267.196ZM487.408 266.843L486.424 268.545L485.991 268.295L486.975 266.592L487.408 266.843ZM474.477 269.094V267.124H474.977V269.094H474.477ZM441.317 268.928L439.602 267.939L439.852 267.506L441.567 268.495L441.317 268.928ZM504.911 269.288L506.674 268.242L506.929 268.672L505.166 269.718L504.911 269.288ZM444.748 270.907L443.033 269.917L443.283 269.484L444.998 270.473L444.748 270.907ZM485.44 270.248L484.455 271.95L484.023 271.7L485.007 269.998L485.44 270.248ZM501.383 271.379L503.147 270.333L503.402 270.763L501.639 271.809L501.383 271.379ZM474.477 273.033V271.064H474.977V273.033H474.477ZM448.178 272.885L446.463 271.896L446.713 271.463L448.428 272.452L448.178 272.885ZM497.856 273.471L499.62 272.425L499.875 272.855L498.111 273.901L497.856 273.471ZM483.471 273.653L482.487 275.356L482.054 275.105L483.038 273.403L483.471 273.653ZM451.609 274.863L449.894 273.874L450.143 273.441L451.859 274.43L451.609 274.863ZM494.329 275.563L496.093 274.517L496.348 274.947L494.584 275.993L494.329 275.563ZM474.477 276.973V275.003H474.977V276.973H474.477ZM455.039 276.842L453.324 275.852L453.574 275.419L455.289 276.408L455.039 276.842ZM490.802 277.655L492.566 276.609L492.821 277.039L491.057 278.085L490.802 277.655ZM481.503 277.058L480.519 278.761L480.086 278.511L481.07 276.808L481.503 277.058ZM458.47 278.82L456.755 277.831L457.004 277.398L458.72 278.387L458.47 278.82ZM487.275 279.747L489.038 278.701L489.293 279.131L487.53 280.177L487.275 279.747ZM474.477 280.912V278.943H474.977V280.912H474.477ZM461.9 280.798L460.185 279.809L460.435 279.376L462.15 280.365L461.9 280.798ZM479.535 280.464L478.551 282.166L478.118 281.916L479.102 280.213L479.535 280.464ZM483.748 281.839L485.511 280.793L485.766 281.223L484.003 282.269L483.748 281.839ZM465.331 282.776L463.616 281.787L463.865 281.354L465.581 282.343L465.331 282.776ZM474.477 284.852V282.882H474.977V284.852H474.477ZM480.22 283.93L481.984 282.885L482.239 283.315L480.475 284.36L480.22 283.93ZM468.761 284.755L467.046 283.766L467.296 283.333L469.011 284.322L468.761 284.755ZM477.566 283.869L476.582 285.571L476.149 285.321L477.134 283.619L477.566 283.869ZM476.693 286.022L478.457 284.976L478.712 285.406L476.948 286.452L476.693 286.022ZM472.192 286.733L470.477 285.744L470.726 285.311L472.442 286.3L472.192 286.733ZM474.477 287.337V286.821H474.977V287.147L475.036 287.248L475.165 287.024L475.598 287.274L475.106 288.125L474.981 288.342L474.765 288.217L474.363 287.985L474.303 288.021L474.239 287.914L473.907 287.722L474.157 287.289L474.36 287.406L474.477 287.337Z" fill="#EEE9F0"/>
<path opacity="0.3" fill-rule="evenodd" clip-rule="evenodd" d="M475.023 192.659L475.239 192.784L530.127 224.437L530.344 224.562L530.218 224.778L493.572 288.178H527.083H527.995L527.211 288.644L475.617 319.242L475.106 320.125L474.981 320.342L474.765 320.217L474.363 319.985L474.303 320.021L474.239 319.914L419.877 288.564L419.66 288.439L419.785 288.222L456.432 224.822L422.37 224.822H421.458L422.242 224.357L474.674 193.262L474.898 192.875L475.023 192.659ZM474.163 194.146L423.282 224.322L456.721 224.322L474.163 194.146ZM457.009 224.822L420.388 288.178H474.477L474.476 224.822H457.009ZM474.476 224.322H457.298L474.476 194.603V224.322ZM474.976 224.822L474.977 288.178H492.994L529.66 224.745L529.288 224.53V224.822H474.976ZM528.927 224.322L474.976 224.322V193.745H474.972L475.042 193.625L475.365 193.433L528.927 224.322ZM492.705 288.678H474.977V319.04L475.249 318.879L492.705 288.678ZM476.128 318.358L526.171 288.678H493.283L476.128 318.358ZM474.477 319.337V288.678H421.077L474.36 319.406L474.477 319.337Z" fill="#EEE9F0"/>
<path opacity="0.7" d="M475.112 193L530 224.653L474.888 320L420 288.347L475.112 193Z" stroke="#EEE9F0" stroke-width="0.5"/>
</g>
</g>
<defs>
<clipPath id="clip0_4287_496954">
<rect width="530" height="320" fill="white"/>
</clipPath>
</defs>
</svg>
