<svg width="820" height="465" viewBox="0 0 820 465" fill="none" xmlns="http://www.w3.org/2000/svg">
<g clip-path="url(#clip0_4287_496946)">
<g opacity="0.3">
<g opacity="0.8">
<path opacity="0.1" d="M742.163 47L822 93.1087L741.837 232L662 185.891L742.163 47Z" fill="#CABBD1"/>
<path opacity="0.3" d="M715.4 92.9999L741 48L665 93L715.4 92.9999Z" fill="#CABBD1"/>
<path opacity="0.1" d="M768.47 186L742 231L818 186L768.47 186Z" fill="#CABBD1"/>
<path opacity="0.4" fill-rule="evenodd" clip-rule="evenodd" d="M741.979 0.317139L742.413 0.567269L744.076 1.52786L743.576 2.39382L742.528 1.78874L742.158 2.00863L742.099 2.11076V4.08084H741.099V2.70083L741.045 2.66966L740.907 2.75165L740.761 2.50566L740.727 2.48645L740.738 2.46777L740.396 1.89186L741.422 1.28234L741.729 0.750307L741.979 0.317139ZM747.402 3.44906L750.729 5.37025L750.229 6.23621L746.902 4.31502L747.402 3.44906ZM733.4 6.04711L736.898 3.96949L737.409 4.82927L733.911 6.90689L733.4 6.04711ZM736.719 9.43102L738.723 5.95873L739.589 6.45861L737.585 9.93089L736.719 9.43102ZM754.055 7.29145L757.382 9.21264L756.882 10.0786L753.555 8.1574L754.055 7.29145ZM741.099 12.0649V8.07286H742.099V12.0649H741.099ZM726.404 10.2024L729.902 8.12473L730.413 8.98452L726.915 11.0621L726.404 10.2024ZM760.708 11.1338L764.035 13.055L763.535 13.921L760.208 11.9998L760.708 11.1338ZM719.408 14.3576L722.906 12.28L723.417 13.1398L719.919 15.2174L719.408 14.3576ZM732.711 16.3756L734.715 12.9033L735.581 13.4032L733.577 16.8755L732.711 16.3756ZM767.362 14.9762L770.688 16.8974L770.188 17.7634L766.861 15.8422L767.362 14.9762ZM741.099 20.0489V16.0569H742.099V20.0489H741.099ZM712.412 18.5128L715.91 16.4352L716.421 17.295L712.923 19.3726L712.412 18.5128ZM774.015 18.8186L777.341 20.7398L776.841 21.6058L773.515 19.6846L774.015 18.8186ZM728.703 23.3202L730.707 19.8479L731.573 20.3477L729.569 23.82L728.703 23.3202ZM705.416 22.6681L708.914 20.5905L709.425 21.4503L705.926 23.5279L705.416 22.6681ZM780.668 22.661L783.994 24.5822L783.494 25.4481L780.168 23.527L780.668 22.661ZM741.099 28.0329V24.0409H742.099V28.0329H741.099ZM698.42 26.8233L701.918 24.7457L702.428 25.6055L698.93 27.6831L698.42 26.8233ZM787.321 26.5034L790.647 28.4246L790.147 29.2905L786.821 27.3693L787.321 26.5034ZM724.695 30.2647L726.699 26.7924L727.565 27.2923L725.561 30.7646L724.695 30.2647ZM691.424 30.9786L694.922 28.901L695.432 29.7607L691.934 31.8384L691.424 30.9786ZM793.974 30.3458L797.3 32.267L796.8 33.1329L793.474 31.2117L793.974 30.3458ZM741.099 36.017V32.0249H742.099V36.017H741.099ZM684.428 35.1338L687.926 33.0562L688.436 33.916L684.938 35.9936L684.428 35.1338ZM720.687 37.2093L722.691 33.737L723.557 34.2369L721.553 37.7092L720.687 37.2093ZM800.627 34.1882L803.953 36.1094L803.453 36.9753L800.127 35.0541L800.627 34.1882ZM677.432 39.2891L680.93 37.2115L681.44 38.0712L677.942 40.1489L677.432 39.2891ZM807.28 38.0305L810.607 39.9517L810.106 40.8177L806.78 38.8965L807.28 38.0305ZM741.099 44.001V40.009H742.099V44.001H741.099ZM716.678 44.1539L718.683 40.6816L719.549 41.1814L717.545 44.6537L716.678 44.1539ZM670.436 43.4443L673.934 41.3667L674.444 42.2265L670.946 44.3041L670.436 43.4443ZM813.933 41.8729L817.26 43.7941L816.759 44.6601L813.433 42.7389L813.933 41.8729ZM665.189 46.5608L666.938 45.522L667.448 46.3817L667.265 46.4907H667.49V47.4907H665.444H663.623L665.189 46.5608ZM820.586 45.7153L822.249 46.6759L822.682 46.9259L822.432 47.3588L821.43 49.095L820.564 48.5951L821.316 47.2919L820.96 47.0863V47.4907H818.914V46.4907H820.138L820.586 45.7153ZM757.526 47.4907H753.433V46.4907H757.526V47.4907ZM765.711 47.4907H761.619V46.4907H765.711V47.4907ZM773.896 47.4907H769.804V46.4907H773.896V47.4907ZM782.081 47.4907H777.989V46.4907H782.081V47.4907ZM790.266 47.4907H786.174V46.4907H790.266V47.4907ZM798.451 47.4907H794.359V46.4907H798.451V47.4907ZM806.637 47.4907H802.544V46.4907H806.637V47.4907ZM814.822 47.4907H810.729V46.4907H814.822V47.4907ZM675.675 47.4907H671.583V46.4907H675.675L675.675 47.4907ZM683.86 47.4907H679.768V46.4907H683.86V47.4907ZM692.045 47.4907H687.953V46.4907H692.045V47.4907ZM700.23 47.4907H696.138V46.4907H700.23V47.4907ZM708.416 47.4907H704.323V46.4907H708.416V47.4907ZM716.601 47.4907H712.508V46.4907H716.601V47.4907ZM724.786 47.4907H720.693V46.4907H724.786V47.4907ZM732.971 47.4907H728.878V46.4907H732.971V47.4907ZM741.156 47.4907H737.063V46.4907H741.156V47.4907ZM749.341 47.4907H745.248V46.4907H749.341V47.4907ZM712.67 51.0984L714.674 47.6261L715.54 48.126L713.536 51.5983L712.67 51.0984ZM741.099 51.985V47.993H742.099V51.985H741.099ZM819.426 52.5673L817.422 56.0396L816.556 55.5397L818.56 52.0674L819.426 52.5673ZM708.662 58.043L710.666 54.5707L711.532 55.0706L709.528 58.5429L708.662 58.043ZM741.099 59.9691V55.977H742.099V59.9691H741.099ZM815.418 59.5118L813.414 62.9841L812.548 62.4842L814.552 59.012L815.418 59.5118ZM704.654 64.9875L706.658 61.5153L707.524 62.0151L705.52 65.4874L704.654 64.9875ZM741.099 67.9531V63.9611H742.099V67.9531H741.099ZM811.41 66.4564L809.406 69.9287L808.54 69.4288L810.544 65.9565L811.41 66.4564ZM700.646 71.9321L702.65 68.4598L703.516 68.9597L701.512 72.432L700.646 71.9321ZM741.099 75.9371V71.9451H742.099V75.9371H741.099ZM807.402 73.401L805.398 76.8733L804.532 76.3734L806.536 72.9011L807.402 73.401ZM696.638 78.8767L698.642 75.4044L699.508 75.9043L697.504 79.3766L696.638 78.8767ZM803.394 80.3455L801.39 83.8178L800.523 83.3179L802.528 79.8457L803.394 80.3455ZM741.099 83.9211V79.9291H742.099V83.9211H741.099ZM692.63 85.8213L694.634 82.349L695.5 82.8488L693.496 86.3211L692.63 85.8213ZM799.385 87.2901L797.381 90.7624L796.515 90.2625L798.519 86.7902L799.385 87.2901ZM741.099 91.9052L741.099 87.9131H742.099L742.099 91.9052H741.099ZM688.621 92.7658L690.625 89.2935L691.492 89.7934L689.487 93.2657L688.621 92.7658ZM795.377 94.2347L793.373 97.707L792.507 97.2071L794.511 93.7348L795.377 94.2347ZM741.099 99.8892V95.8972H742.099V99.8892H741.099ZM684.613 99.7104L686.617 96.2381L687.483 96.738L685.479 100.21L684.613 99.7104ZM791.369 101.179L789.365 104.652L788.499 104.152L790.503 100.679L791.369 101.179ZM680.605 106.655L682.609 103.183L683.475 103.683L681.471 107.155L680.605 106.655ZM741.099 107.873V103.881H742.099V107.873H741.099ZM787.361 108.124L785.357 111.596L784.491 111.096L786.495 107.624L787.361 108.124ZM676.597 113.6L678.601 110.127L679.467 110.627L677.463 114.099L676.597 113.6ZM741.099 115.857V111.865H742.099V115.857H741.099ZM783.353 115.068L781.349 118.541L780.483 118.041L782.487 114.568L783.353 115.068ZM672.589 120.544L674.593 117.072L675.459 117.572L673.455 121.044L672.589 120.544ZM741.099 123.841V119.849H742.099V123.841H741.099ZM779.345 122.013L777.341 125.485L776.474 124.985L778.479 121.513L779.345 122.013ZM668.581 127.489L670.585 124.016L671.451 124.516L669.447 127.989L668.581 127.489ZM741.099 131.825V127.833H742.099V131.825H741.099ZM775.337 128.958L773.332 132.43L772.466 131.93L774.47 128.458L775.337 128.958ZM664.572 134.433L666.576 130.961L667.443 131.461L665.438 134.933L664.572 134.433ZM771.328 135.902L769.324 139.374L768.458 138.874L770.462 135.402L771.328 135.902ZM741.099 139.809V135.817H742.099V139.51H746.134V140.51H742.042V139.809H741.099ZM661.566 139.642L662.568 137.906L663.434 138.405L662.797 139.51H664.284V140.51H663.86L663.413 141.285L661.749 140.325L661.316 140.075L661.566 139.642ZM672.469 140.51H668.376V139.51H672.469V140.51ZM680.654 140.51H676.561V139.51H680.654V140.51ZM688.839 140.51H684.746V139.51H688.839V140.51ZM697.024 140.51H692.931V139.51H697.024V140.51ZM705.209 140.51H701.116V139.51H705.209V140.51ZM713.394 140.51H709.302V139.51H713.394V140.51ZM721.579 140.51H717.487V139.51H721.579V140.51ZM729.764 140.51H725.672V139.51H729.764V140.51ZM737.949 140.51H733.857V139.51H737.949V140.51ZM754.319 140.51H750.227V139.51H754.319V140.51ZM762.505 140.51H758.412V139.51H762.505V140.51ZM770.69 140.51H766.597V139.51H770.69V140.51ZM778.875 140.51H774.782V139.51H778.875V140.51ZM787.06 140.51H782.967V139.51H787.06V140.51ZM795.245 140.51H791.152V139.51H795.245V140.51ZM803.43 140.51H799.337V139.51H803.43V140.51ZM811.615 140.51H807.523V139.51H811.615V140.51ZM815.933 140.51H815.708V139.51H817.754H819.575L818.009 140.44L816.26 141.479L815.75 140.619L815.933 140.51ZM670.066 145.128L666.739 143.206L667.239 142.34L670.566 144.262L670.066 145.128ZM767.32 142.847L765.316 146.319L764.45 145.819L766.454 142.347L767.32 142.847ZM808.753 144.774L812.251 142.696L812.762 143.556L809.264 145.634L808.753 144.774ZM741.099 147.793V143.801H742.099V147.793H741.099ZM676.719 148.97L673.392 147.049L673.892 146.183L677.219 148.104L676.719 148.97ZM801.757 148.929L805.255 146.852L805.766 147.711L802.268 149.789L801.757 148.929ZM763.312 149.791L761.308 153.263L760.442 152.764L762.446 149.291L763.312 149.791ZM683.372 152.812L680.045 150.891L680.545 150.025L683.872 151.946L683.372 152.812ZM794.761 153.085L798.259 151.007L798.77 151.867L795.272 153.944L794.761 153.085ZM741.099 155.777V151.785H742.099V155.777H741.099ZM690.025 156.655L686.698 154.734L687.198 153.868L690.525 155.789L690.025 156.655ZM787.765 157.24L791.263 155.162L791.774 156.022L788.276 158.1L787.765 157.24ZM759.304 156.736L757.3 160.208L756.434 159.708L758.438 156.236L759.304 156.736ZM696.678 160.497L693.351 158.576L693.851 157.71L697.178 159.631L696.678 160.497ZM780.769 161.395L784.267 159.317L784.778 160.177L781.28 162.255L780.769 161.395ZM741.099 163.761V159.769H742.099V163.761H741.099ZM703.331 164.339L700.004 162.418L700.505 161.552L703.831 163.474L703.331 164.339ZM755.296 163.68L753.292 167.153L752.426 166.653L754.43 163.18L755.296 163.68ZM773.773 165.55L777.271 163.473L777.782 164.332L774.284 166.41L773.773 165.55ZM709.984 168.182L706.657 166.261L707.158 165.395L710.484 167.316L709.984 168.182ZM766.777 169.705L770.275 167.628L770.786 168.488L767.288 170.565L766.777 169.705ZM741.099 171.745V167.753H742.099V171.745H741.099ZM716.637 172.024L713.311 170.103L713.811 169.237L717.137 171.158L716.637 172.024ZM751.288 170.625L749.283 174.097L748.417 173.597L750.421 170.125L751.288 170.625ZM759.781 173.861L763.279 171.783L763.79 172.643L760.292 174.721L759.781 173.861ZM723.29 175.867L719.964 173.945L720.464 173.08L723.79 175.001L723.29 175.867ZM741.099 179.73V175.737H742.099V179.73H741.099ZM752.785 178.016L756.283 175.938L756.794 176.798L753.296 178.876L752.785 178.016ZM729.943 179.709L726.617 177.788L727.117 176.922L730.443 178.843L729.943 179.709ZM747.279 177.569L745.275 181.042L744.409 180.542L746.413 177.07L747.279 177.569ZM745.789 182.171L749.287 180.094L749.798 180.953L746.3 183.031L745.789 182.171ZM736.596 183.551L733.27 181.63L733.77 180.764L737.096 182.685L736.596 183.551ZM741.099 184.957V183.722H742.099V184.363L742.259 184.268L742.405 184.014L743.271 184.514L742.269 186.25L742.019 186.683L741.586 186.433L741.072 186.136L741.053 186.147L741.032 186.113L739.923 185.473L740.423 184.607L741.065 184.977L741.099 184.957Z" fill="#EEE9F0"/>
<path opacity="0.3" fill-rule="evenodd" clip-rule="evenodd" d="M741.979 46.3171L742.413 46.5673L822.249 92.6759L822.682 92.9259L822.432 93.3588L769.246 185.51H817.754H819.575L818.009 186.44L742.994 230.994L742.269 232.25L742.019 232.683L741.586 232.433L741.072 232.136L741.053 232.147L741.032 232.113L661.749 186.325L661.316 186.075L661.566 185.642L714.753 93.4907H665.444H663.623L665.189 92.5608L741.422 47.2823L741.729 46.7503L741.979 46.3171ZM740.401 49.0521L667.265 92.4907H715.33L740.401 49.0521ZM715.907 93.4907L662.797 185.51H741.099L741.099 93.4907H715.907ZM741.099 92.4907H716.484L741.099 49.8434V92.4907ZM742.099 93.4907L742.099 185.51H768.091L821.316 93.2919L820.96 93.0863V93.4907L742.099 93.4907ZM819.929 92.4907L742.099 92.4907V48.1108L742.158 48.0086L742.528 47.7887L819.929 92.4907ZM767.514 186.51H742.099V230.363L742.259 230.268L767.514 186.51ZM744.016 229.225L815.933 186.51H768.669L744.016 229.225ZM741.099 230.957V186.51H664.07L741.065 230.977L741.099 230.957Z" fill="#EEE9F0"/>
<path opacity="0.7" d="M742.163 47.0002L822 93.1089L741.837 232L662 185.892L742.163 47.0002Z" stroke="#EEE9F0"/>
</g>
</g>
<g opacity="0.2">
<g opacity="0.8">
<path opacity="0.1" d="M426.163 279L506 325.109L425.837 464L346 417.891L426.163 279Z" fill="#CABBD1"/>
<path opacity="0.3" d="M399.4 325L425 280L349 325L399.4 325Z" fill="#CABBD1"/>
<path opacity="0.1" d="M452.47 418L426 463L502 418L452.47 418Z" fill="#CABBD1"/>
<path opacity="0.4" fill-rule="evenodd" clip-rule="evenodd" d="M425.979 232.317L426.413 232.567L428.076 233.528L427.576 234.394L426.528 233.789L426.158 234.009L426.099 234.111V236.081H425.099V234.701L425.045 234.67L424.907 234.752L424.761 234.506L424.727 234.486L424.738 234.468L424.396 233.892L425.422 233.282L425.729 232.75L425.979 232.317ZM431.402 235.449L434.729 237.37L434.229 238.236L430.902 236.315L431.402 235.449ZM417.4 238.047L420.898 235.969L421.409 236.829L417.911 238.907L417.4 238.047ZM420.719 241.431L422.723 237.959L423.589 238.459L421.585 241.931L420.719 241.431ZM438.055 239.291L441.382 241.213L440.882 242.079L437.555 240.157L438.055 239.291ZM425.099 244.065V240.073H426.099V244.065H425.099ZM410.404 242.202L413.902 240.125L414.413 240.985L410.915 243.062L410.404 242.202ZM444.708 243.134L448.035 245.055L447.535 245.921L444.208 244L444.708 243.134ZM403.408 246.358L406.906 244.28L407.417 245.14L403.919 247.217L403.408 246.358ZM416.711 248.376L418.715 244.903L419.581 245.403L417.577 248.875L416.711 248.376ZM451.362 246.976L454.688 248.897L454.188 249.763L450.861 247.842L451.362 246.976ZM425.099 252.049V248.057H426.099V252.049H425.099ZM396.412 250.513L399.91 248.435L400.421 249.295L396.923 251.373L396.412 250.513ZM458.015 250.819L461.341 252.74L460.841 253.606L457.515 251.685L458.015 250.819ZM412.703 255.32L414.707 251.848L415.573 252.348L413.569 255.82L412.703 255.32ZM389.416 254.668L392.914 252.59L393.425 253.45L389.926 255.528L389.416 254.668ZM464.668 254.661L467.994 256.582L467.494 257.448L464.168 255.527L464.668 254.661ZM425.099 260.033V256.041H426.099V260.033H425.099ZM382.42 258.823L385.918 256.746L386.428 257.606L382.93 259.683L382.42 258.823ZM471.321 258.503L474.647 260.425L474.147 261.291L470.821 259.369L471.321 258.503ZM408.695 262.265L410.699 258.792L411.565 259.292L409.561 262.765L408.695 262.265ZM375.424 262.979L378.922 260.901L379.432 261.761L375.934 263.838L375.424 262.979ZM477.974 262.346L481.3 264.267L480.8 265.133L477.474 263.212L477.974 262.346ZM425.099 268.017V264.025H426.099V268.017H425.099ZM368.428 267.134L371.926 265.056L372.436 265.916L368.938 267.994L368.428 267.134ZM404.687 269.209L406.691 265.737L407.557 266.237L405.553 269.709L404.687 269.209ZM484.627 266.188L487.953 268.109L487.453 268.975L484.127 267.054L484.627 266.188ZM361.432 271.289L364.93 269.211L365.44 270.071L361.942 272.149L361.432 271.289ZM491.28 270.031L494.607 271.952L494.106 272.818L490.78 270.897L491.28 270.031ZM425.099 276.001V272.009H426.099V276.001H425.099ZM400.678 276.154L402.683 272.682L403.549 273.181L401.545 276.654L400.678 276.154ZM354.436 275.444L357.934 273.367L358.444 274.226L354.946 276.304L354.436 275.444ZM497.933 273.873L501.26 275.794L500.759 276.66L497.433 274.739L497.933 273.873ZM349.189 278.561L350.938 277.522L351.448 278.382L351.265 278.491H351.49V279.491H349.444H347.623L349.189 278.561ZM504.586 277.715L506.249 278.676L506.682 278.926L506.432 279.359L505.43 281.095L504.564 280.595L505.316 279.292L504.96 279.086V279.491H502.914V278.491H504.138L504.586 277.715ZM441.526 279.491H437.433V278.491H441.526V279.491ZM449.711 279.491H445.619V278.491H449.711V279.491ZM457.896 279.491H453.804V278.491H457.896V279.491ZM466.081 279.491H461.989V278.491H466.081V279.491ZM474.266 279.491H470.174V278.491H474.266V279.491ZM482.451 279.491H478.359V278.491H482.451V279.491ZM490.637 279.491H486.544V278.491H490.637V279.491ZM498.822 279.491H494.729V278.491H498.822V279.491ZM359.675 279.491H355.583V278.491H359.675L359.675 279.491ZM367.86 279.491H363.768V278.491H367.86V279.491ZM376.045 279.491H371.953V278.491H376.045V279.491ZM384.23 279.491H380.138V278.491H384.23V279.491ZM392.416 279.491H388.323V278.491H392.416V279.491ZM400.601 279.491H396.508V278.491H400.601V279.491ZM408.786 279.491H404.693V278.491H408.786V279.491ZM416.971 279.491H412.878V278.491H416.971V279.491ZM425.156 279.491H421.063V278.491H425.156V279.491ZM433.341 279.491H429.248V278.491H433.341V279.491ZM396.67 283.098L398.674 279.626L399.54 280.126L397.536 283.598L396.67 283.098ZM425.099 283.985V279.993H426.099V283.985H425.099ZM503.426 284.567L501.422 288.04L500.556 287.54L502.56 284.067L503.426 284.567ZM392.662 290.043L394.666 286.571L395.532 287.071L393.528 290.543L392.662 290.043ZM425.099 291.969V287.977H426.099V291.969H425.099ZM499.418 291.512L497.414 294.984L496.548 294.484L498.552 291.012L499.418 291.512ZM388.654 296.988L390.658 293.515L391.524 294.015L389.52 297.487L388.654 296.988ZM425.099 299.953V295.961H426.099V299.953H425.099ZM495.41 298.456L493.406 301.929L492.54 301.429L494.544 297.957L495.41 298.456ZM384.646 303.932L386.65 300.46L387.516 300.96L385.512 304.432L384.646 303.932ZM425.099 307.937V303.945H426.099V307.937H425.099ZM491.402 305.401L489.398 308.873L488.532 308.373L490.536 304.901L491.402 305.401ZM380.638 310.877L382.642 307.404L383.508 307.904L381.504 311.377L380.638 310.877ZM487.394 312.346L485.39 315.818L484.523 315.318L486.528 311.846L487.394 312.346ZM425.099 315.921V311.929H426.099V315.921H425.099ZM376.63 317.821L378.634 314.349L379.5 314.849L377.496 318.321L376.63 317.821ZM483.385 319.29L481.381 322.762L480.515 322.263L482.519 318.79L483.385 319.29ZM425.099 323.905L425.099 319.913H426.099L426.099 323.905H425.099ZM372.621 324.766L374.625 321.294L375.492 321.793L373.487 325.266L372.621 324.766ZM479.377 326.235L477.373 329.707L476.507 329.207L478.511 325.735L479.377 326.235ZM425.099 331.889V327.897H426.099V331.889H425.099ZM368.613 331.71L370.617 328.238L371.483 328.738L369.479 332.21L368.613 331.71ZM475.369 333.179L473.365 336.652L472.499 336.152L474.503 332.679L475.369 333.179ZM364.605 338.655L366.609 335.183L367.475 335.683L365.471 339.155L364.605 338.655ZM425.099 339.873V335.881H426.099V339.873H425.099ZM471.361 340.124L469.357 343.596L468.491 343.096L470.495 339.624L471.361 340.124ZM360.597 345.6L362.601 342.127L363.467 342.627L361.463 346.099L360.597 345.6ZM425.099 347.857V343.865H426.099V347.857H425.099ZM467.353 347.068L465.349 350.541L464.483 350.041L466.487 346.568L467.353 347.068ZM356.589 352.544L358.593 349.072L359.459 349.572L357.455 353.044L356.589 352.544ZM425.099 355.841V351.849H426.099V355.841H425.099ZM463.345 354.013L461.341 357.485L460.474 356.985L462.479 353.513L463.345 354.013ZM352.581 359.489L354.585 356.016L355.451 356.516L353.447 359.989L352.581 359.489ZM425.099 363.825V359.833H426.099V363.825H425.099ZM459.337 360.958L457.332 364.43L456.466 363.93L458.47 360.458L459.337 360.958ZM348.572 366.433L350.576 362.961L351.443 363.461L349.438 366.933L348.572 366.433ZM455.328 367.902L453.324 371.374L452.458 370.874L454.462 367.402L455.328 367.902ZM425.099 371.809V367.817H426.099V371.51H430.134V372.51H426.042V371.809H425.099ZM345.566 371.642L346.568 369.906L347.434 370.405L346.797 371.51H348.284V372.51H347.86L347.413 373.285L345.749 372.325L345.316 372.075L345.566 371.642ZM356.469 372.51H352.376V371.51H356.469V372.51ZM364.654 372.51H360.561V371.51H364.654V372.51ZM372.839 372.51H368.746V371.51H372.839V372.51ZM381.024 372.51H376.931V371.51H381.024V372.51ZM389.209 372.51H385.116V371.51H389.209V372.51ZM397.394 372.51H393.302V371.51H397.394V372.51ZM405.579 372.51H401.487V371.51H405.579V372.51ZM413.764 372.51H409.672V371.51H413.764V372.51ZM421.949 372.51H417.857V371.51H421.949V372.51ZM438.319 372.51H434.227V371.51H438.319V372.51ZM446.505 372.51H442.412V371.51H446.505V372.51ZM454.69 372.51H450.597V371.51H454.69V372.51ZM462.875 372.51H458.782V371.51H462.875V372.51ZM471.06 372.51H466.967V371.51H471.06V372.51ZM479.245 372.51H475.152V371.51H479.245V372.51ZM487.43 372.51H483.337V371.51H487.43V372.51ZM495.615 372.51H491.523V371.51H495.615V372.51ZM499.933 372.51H499.708V371.51H501.754H503.575L502.009 372.44L500.26 373.479L499.75 372.619L499.933 372.51ZM354.066 377.128L350.739 375.206L351.239 374.34L354.566 376.262L354.066 377.128ZM451.32 374.847L449.316 378.319L448.45 377.819L450.454 374.347L451.32 374.847ZM492.753 376.774L496.251 374.696L496.762 375.556L493.264 377.634L492.753 376.774ZM425.099 379.793V375.801H426.099V379.793H425.099ZM360.719 380.97L357.392 379.049L357.892 378.183L361.219 380.104L360.719 380.97ZM485.757 380.929L489.255 378.852L489.766 379.711L486.268 381.789L485.757 380.929ZM447.312 381.791L445.308 385.263L444.442 384.764L446.446 381.291L447.312 381.791ZM367.372 384.812L364.045 382.891L364.545 382.025L367.872 383.946L367.372 384.812ZM478.761 385.085L482.259 383.007L482.77 383.867L479.272 385.944L478.761 385.085ZM425.099 387.777V383.785H426.099V387.777H425.099ZM374.025 388.655L370.698 386.734L371.198 385.868L374.525 387.789L374.025 388.655ZM471.765 389.24L475.263 387.162L475.774 388.022L472.276 390.1L471.765 389.24ZM443.304 388.736L441.3 392.208L440.434 391.708L442.438 388.236L443.304 388.736ZM380.678 392.497L377.351 390.576L377.851 389.71L381.178 391.631L380.678 392.497ZM464.769 393.395L468.267 391.317L468.778 392.177L465.28 394.255L464.769 393.395ZM425.099 395.761V391.769H426.099V395.761H425.099ZM387.331 396.339L384.004 394.418L384.505 393.552L387.831 395.474L387.331 396.339ZM439.296 395.68L437.292 399.153L436.426 398.653L438.43 395.18L439.296 395.68ZM457.773 397.55L461.271 395.473L461.782 396.332L458.284 398.41L457.773 397.55ZM393.984 400.182L390.657 398.261L391.158 397.395L394.484 399.316L393.984 400.182ZM450.777 401.705L454.275 399.628L454.786 400.488L451.288 402.565L450.777 401.705ZM425.099 403.745V399.753H426.099V403.745H425.099ZM400.637 404.024L397.311 402.103L397.811 401.237L401.137 403.158L400.637 404.024ZM435.288 402.625L433.283 406.097L432.417 405.597L434.421 402.125L435.288 402.625ZM443.781 405.861L447.279 403.783L447.79 404.643L444.292 406.721L443.781 405.861ZM407.29 407.867L403.964 405.945L404.464 405.08L407.79 407.001L407.29 407.867ZM425.099 411.73V407.737H426.099V411.73H425.099ZM436.785 410.016L440.283 407.938L440.794 408.798L437.296 410.876L436.785 410.016ZM413.943 411.709L410.617 409.788L411.117 408.922L414.443 410.843L413.943 411.709ZM431.279 409.569L429.275 413.042L428.409 412.542L430.413 409.07L431.279 409.569ZM429.789 414.171L433.287 412.094L433.798 412.953L430.3 415.031L429.789 414.171ZM420.596 415.551L417.27 413.63L417.77 412.764L421.096 414.685L420.596 415.551ZM425.099 416.957V415.722H426.099V416.363L426.259 416.268L426.405 416.014L427.271 416.514L426.269 418.25L426.019 418.683L425.586 418.433L425.072 418.136L425.053 418.147L425.032 418.113L423.923 417.473L424.423 416.607L425.065 416.977L425.099 416.957Z" fill="#EEE9F0"/>
<path opacity="0.3" fill-rule="evenodd" clip-rule="evenodd" d="M425.979 278.317L426.413 278.567L506.249 324.676L506.682 324.926L506.432 325.359L453.246 417.51H501.754H503.575L502.009 418.44L426.994 462.994L426.269 464.25L426.019 464.683L425.586 464.433L425.072 464.136L425.053 464.147L425.032 464.113L345.749 418.325L345.316 418.075L345.566 417.642L398.753 325.491H349.444H347.623L349.189 324.561L425.422 279.282L425.729 278.75L425.979 278.317ZM424.401 281.052L351.265 324.491H399.33L424.401 281.052ZM399.907 325.491L346.797 417.51H425.099L425.099 325.491H399.907ZM425.099 324.491H400.484L425.099 281.843V324.491ZM426.099 325.491L426.099 417.51H452.091L505.316 325.292L504.96 325.086V325.491L426.099 325.491ZM503.929 324.491L426.099 324.491V280.111L426.158 280.009L426.528 279.789L503.929 324.491ZM451.514 418.51H426.099V462.363L426.259 462.268L451.514 418.51ZM428.016 461.225L499.933 418.51H452.669L428.016 461.225ZM425.099 462.957V418.51H348.07L425.065 462.977L425.099 462.957Z" fill="#EEE9F0"/>
<path opacity="0.7" d="M426.163 279L506 325.109L425.837 464L346 417.892L426.163 279Z" stroke="#EEE9F0"/>
</g>
<g opacity="0.9">
<path opacity="0.1" d="M584.163 279L664 325.109L583.837 464L504 417.891L584.163 279Z" fill="#CABBD1"/>
<path opacity="0.3" d="M557.4 325L583 280L507 325L557.4 325Z" fill="#CABBD1"/>
<path opacity="0.1" d="M610.47 418L584 463L660 418L610.47 418Z" fill="#CABBD1"/>
<path opacity="0.4" fill-rule="evenodd" clip-rule="evenodd" d="M583.979 232.317L584.413 232.567L586.076 233.528L585.576 234.394L584.528 233.789L584.158 234.009L584.099 234.111V236.081H583.099V234.701L583.045 234.67L582.907 234.752L582.761 234.506L582.727 234.486L582.738 234.468L582.396 233.892L583.422 233.282L583.729 232.75L583.979 232.317ZM589.402 235.449L592.729 237.37L592.229 238.236L588.902 236.315L589.402 235.449ZM575.4 238.047L578.898 235.969L579.409 236.829L575.911 238.907L575.4 238.047ZM578.719 241.431L580.723 237.959L581.589 238.459L579.585 241.931L578.719 241.431ZM596.055 239.291L599.382 241.213L598.882 242.079L595.555 240.157L596.055 239.291ZM583.099 244.065V240.073H584.099V244.065H583.099ZM568.404 242.202L571.902 240.125L572.413 240.985L568.915 243.062L568.404 242.202ZM602.708 243.134L606.035 245.055L605.535 245.921L602.208 244L602.708 243.134ZM561.408 246.358L564.906 244.28L565.417 245.14L561.919 247.217L561.408 246.358ZM574.711 248.376L576.715 244.903L577.581 245.403L575.577 248.875L574.711 248.376ZM609.362 246.976L612.688 248.897L612.188 249.763L608.861 247.842L609.362 246.976ZM583.099 252.049V248.057H584.099V252.049H583.099ZM554.412 250.513L557.91 248.435L558.421 249.295L554.923 251.373L554.412 250.513ZM616.015 250.819L619.341 252.74L618.841 253.606L615.515 251.685L616.015 250.819ZM570.703 255.32L572.707 251.848L573.573 252.348L571.569 255.82L570.703 255.32ZM547.416 254.668L550.914 252.59L551.425 253.45L547.926 255.528L547.416 254.668ZM622.668 254.661L625.994 256.582L625.494 257.448L622.168 255.527L622.668 254.661ZM583.099 260.033V256.041H584.099V260.033H583.099ZM540.42 258.823L543.918 256.746L544.428 257.606L540.93 259.683L540.42 258.823ZM629.321 258.503L632.647 260.425L632.147 261.291L628.821 259.369L629.321 258.503ZM566.695 262.265L568.699 258.792L569.565 259.292L567.561 262.765L566.695 262.265ZM533.424 262.979L536.922 260.901L537.432 261.761L533.934 263.838L533.424 262.979ZM635.974 262.346L639.3 264.267L638.8 265.133L635.474 263.212L635.974 262.346ZM583.099 268.017V264.025H584.099V268.017H583.099ZM526.428 267.134L529.926 265.056L530.436 265.916L526.938 267.994L526.428 267.134ZM562.687 269.209L564.691 265.737L565.557 266.237L563.553 269.709L562.687 269.209ZM642.627 266.188L645.953 268.109L645.453 268.975L642.127 267.054L642.627 266.188ZM519.432 271.289L522.93 269.211L523.44 270.071L519.942 272.149L519.432 271.289ZM649.28 270.031L652.607 271.952L652.106 272.818L648.78 270.897L649.28 270.031ZM583.099 276.001V272.009H584.099V276.001H583.099ZM558.678 276.154L560.683 272.682L561.549 273.181L559.545 276.654L558.678 276.154ZM512.436 275.444L515.934 273.367L516.444 274.226L512.946 276.304L512.436 275.444ZM655.933 273.873L659.26 275.794L658.759 276.66L655.433 274.739L655.933 273.873ZM507.189 278.561L508.938 277.522L509.448 278.382L509.265 278.491H509.49V279.491H507.444H505.623L507.189 278.561ZM662.586 277.715L664.249 278.676L664.682 278.926L664.432 279.359L663.43 281.095L662.564 280.595L663.316 279.292L662.96 279.086V279.491H660.914V278.491H662.138L662.586 277.715ZM599.526 279.491H595.433V278.491H599.526V279.491ZM607.711 279.491H603.619V278.491H607.711V279.491ZM615.896 279.491H611.804V278.491H615.896V279.491ZM624.081 279.491H619.989V278.491H624.081V279.491ZM632.266 279.491H628.174V278.491H632.266V279.491ZM640.451 279.491H636.359V278.491H640.451V279.491ZM648.637 279.491H644.544V278.491H648.637V279.491ZM656.822 279.491H652.729V278.491H656.822V279.491ZM517.675 279.491H513.583V278.491H517.675L517.675 279.491ZM525.86 279.491H521.768V278.491H525.86V279.491ZM534.045 279.491H529.953V278.491H534.045V279.491ZM542.23 279.491H538.138V278.491H542.23V279.491ZM550.416 279.491H546.323V278.491H550.416V279.491ZM558.601 279.491H554.508V278.491H558.601V279.491ZM566.786 279.491H562.693V278.491H566.786V279.491ZM574.971 279.491H570.878V278.491H574.971V279.491ZM583.156 279.491H579.063V278.491H583.156V279.491ZM591.341 279.491H587.248V278.491H591.341V279.491ZM554.67 283.098L556.674 279.626L557.54 280.126L555.536 283.598L554.67 283.098ZM583.099 283.985V279.993H584.099V283.985H583.099ZM661.426 284.567L659.422 288.04L658.556 287.54L660.56 284.067L661.426 284.567ZM550.662 290.043L552.666 286.571L553.532 287.071L551.528 290.543L550.662 290.043ZM583.099 291.969V287.977H584.099V291.969H583.099ZM657.418 291.512L655.414 294.984L654.548 294.484L656.552 291.012L657.418 291.512ZM546.654 296.988L548.658 293.515L549.524 294.015L547.52 297.487L546.654 296.988ZM583.099 299.953V295.961H584.099V299.953H583.099ZM653.41 298.456L651.406 301.929L650.54 301.429L652.544 297.957L653.41 298.456ZM542.646 303.932L544.65 300.46L545.516 300.96L543.512 304.432L542.646 303.932ZM583.099 307.937V303.945H584.099V307.937H583.099ZM649.402 305.401L647.398 308.873L646.532 308.373L648.536 304.901L649.402 305.401ZM538.638 310.877L540.642 307.404L541.508 307.904L539.504 311.377L538.638 310.877ZM645.394 312.346L643.39 315.818L642.523 315.318L644.528 311.846L645.394 312.346ZM583.099 315.921V311.929H584.099V315.921H583.099ZM534.63 317.821L536.634 314.349L537.5 314.849L535.496 318.321L534.63 317.821ZM641.385 319.29L639.381 322.762L638.515 322.263L640.519 318.79L641.385 319.29ZM583.099 323.905L583.099 319.913H584.099L584.099 323.905H583.099ZM530.621 324.766L532.625 321.294L533.492 321.793L531.487 325.266L530.621 324.766ZM637.377 326.235L635.373 329.707L634.507 329.207L636.511 325.735L637.377 326.235ZM583.099 331.889V327.897H584.099V331.889H583.099ZM526.613 331.71L528.617 328.238L529.483 328.738L527.479 332.21L526.613 331.71ZM633.369 333.179L631.365 336.652L630.499 336.152L632.503 332.679L633.369 333.179ZM522.605 338.655L524.609 335.183L525.475 335.683L523.471 339.155L522.605 338.655ZM583.099 339.873V335.881H584.099V339.873H583.099ZM629.361 340.124L627.357 343.596L626.491 343.096L628.495 339.624L629.361 340.124ZM518.597 345.6L520.601 342.127L521.467 342.627L519.463 346.099L518.597 345.6ZM583.099 347.857V343.865H584.099V347.857H583.099ZM625.353 347.068L623.349 350.541L622.483 350.041L624.487 346.568L625.353 347.068ZM514.589 352.544L516.593 349.072L517.459 349.572L515.455 353.044L514.589 352.544ZM583.099 355.841V351.849H584.099V355.841H583.099ZM621.345 354.013L619.341 357.485L618.474 356.985L620.479 353.513L621.345 354.013ZM510.581 359.489L512.585 356.016L513.451 356.516L511.447 359.989L510.581 359.489ZM583.099 363.825V359.833H584.099V363.825H583.099ZM617.337 360.958L615.332 364.43L614.466 363.93L616.47 360.458L617.337 360.958ZM506.572 366.433L508.576 362.961L509.443 363.461L507.438 366.933L506.572 366.433ZM613.328 367.902L611.324 371.374L610.458 370.874L612.462 367.402L613.328 367.902ZM583.099 371.809V367.817H584.099V371.51H588.134V372.51H584.042V371.809H583.099ZM503.566 371.642L504.568 369.906L505.434 370.405L504.797 371.51H506.284V372.51H505.86L505.413 373.285L503.749 372.325L503.316 372.075L503.566 371.642ZM514.469 372.51H510.376V371.51H514.469V372.51ZM522.654 372.51H518.561V371.51H522.654V372.51ZM530.839 372.51H526.746V371.51H530.839V372.51ZM539.024 372.51H534.931V371.51H539.024V372.51ZM547.209 372.51H543.116V371.51H547.209V372.51ZM555.394 372.51H551.302V371.51H555.394V372.51ZM563.579 372.51H559.487V371.51H563.579V372.51ZM571.764 372.51H567.672V371.51H571.764V372.51ZM579.949 372.51H575.857V371.51H579.949V372.51ZM596.319 372.51H592.227V371.51H596.319V372.51ZM604.505 372.51H600.412V371.51H604.505V372.51ZM612.69 372.51H608.597V371.51H612.69V372.51ZM620.875 372.51H616.782V371.51H620.875V372.51ZM629.06 372.51H624.967V371.51H629.06V372.51ZM637.245 372.51H633.152V371.51H637.245V372.51ZM645.43 372.51H641.337V371.51H645.43V372.51ZM653.615 372.51H649.523V371.51H653.615V372.51ZM657.933 372.51H657.708V371.51H659.754H661.575L660.009 372.44L658.26 373.479L657.75 372.619L657.933 372.51ZM512.066 377.128L508.739 375.206L509.239 374.34L512.566 376.262L512.066 377.128ZM609.32 374.847L607.316 378.319L606.45 377.819L608.454 374.347L609.32 374.847ZM650.753 376.774L654.251 374.696L654.762 375.556L651.264 377.634L650.753 376.774ZM583.099 379.793V375.801H584.099V379.793H583.099ZM518.719 380.97L515.392 379.049L515.892 378.183L519.219 380.104L518.719 380.97ZM643.757 380.929L647.255 378.852L647.766 379.711L644.268 381.789L643.757 380.929ZM605.312 381.791L603.308 385.263L602.442 384.764L604.446 381.291L605.312 381.791ZM525.372 384.812L522.045 382.891L522.545 382.025L525.872 383.946L525.372 384.812ZM636.761 385.085L640.259 383.007L640.77 383.867L637.272 385.944L636.761 385.085ZM583.099 387.777V383.785H584.099V387.777H583.099ZM532.025 388.655L528.698 386.734L529.198 385.868L532.525 387.789L532.025 388.655ZM629.765 389.24L633.263 387.162L633.774 388.022L630.276 390.1L629.765 389.24ZM601.304 388.736L599.3 392.208L598.434 391.708L600.438 388.236L601.304 388.736ZM538.678 392.497L535.351 390.576L535.851 389.71L539.178 391.631L538.678 392.497ZM622.769 393.395L626.267 391.317L626.778 392.177L623.28 394.255L622.769 393.395ZM583.099 395.761V391.769H584.099V395.761H583.099ZM545.331 396.339L542.004 394.418L542.505 393.552L545.831 395.474L545.331 396.339ZM597.296 395.68L595.292 399.153L594.426 398.653L596.43 395.18L597.296 395.68ZM615.773 397.55L619.271 395.473L619.782 396.332L616.284 398.41L615.773 397.55ZM551.984 400.182L548.657 398.261L549.158 397.395L552.484 399.316L551.984 400.182ZM608.777 401.705L612.275 399.628L612.786 400.488L609.288 402.565L608.777 401.705ZM583.099 403.745V399.753H584.099V403.745H583.099ZM558.637 404.024L555.311 402.103L555.811 401.237L559.137 403.158L558.637 404.024ZM593.288 402.625L591.283 406.097L590.417 405.597L592.421 402.125L593.288 402.625ZM601.781 405.861L605.279 403.783L605.79 404.643L602.292 406.721L601.781 405.861ZM565.29 407.867L561.964 405.945L562.464 405.08L565.79 407.001L565.29 407.867ZM583.099 411.73V407.737H584.099V411.73H583.099ZM594.785 410.016L598.283 407.938L598.794 408.798L595.296 410.876L594.785 410.016ZM571.943 411.709L568.617 409.788L569.117 408.922L572.443 410.843L571.943 411.709ZM589.279 409.569L587.275 413.042L586.409 412.542L588.413 409.07L589.279 409.569ZM587.789 414.171L591.287 412.094L591.798 412.953L588.3 415.031L587.789 414.171ZM578.596 415.551L575.27 413.63L575.77 412.764L579.096 414.685L578.596 415.551ZM583.099 416.957V415.722H584.099V416.363L584.259 416.268L584.405 416.014L585.271 416.514L584.269 418.25L584.019 418.683L583.586 418.433L583.072 418.136L583.053 418.147L583.032 418.113L581.923 417.473L582.423 416.607L583.065 416.977L583.099 416.957Z" fill="#EEE9F0"/>
<path opacity="0.3" fill-rule="evenodd" clip-rule="evenodd" d="M583.979 278.317L584.413 278.567L664.249 324.676L664.682 324.926L664.432 325.359L611.246 417.51H659.754H661.575L660.009 418.44L584.994 462.994L584.269 464.25L584.019 464.683L583.586 464.433L583.072 464.136L583.053 464.147L583.032 464.113L503.749 418.325L503.316 418.075L503.566 417.642L556.753 325.491H507.444H505.623L507.189 324.561L583.422 279.282L583.729 278.75L583.979 278.317ZM582.401 281.052L509.265 324.491H557.33L582.401 281.052ZM557.907 325.491L504.797 417.51H583.099L583.099 325.491H557.907ZM583.099 324.491H558.484L583.099 281.843V324.491ZM584.099 325.491L584.099 417.51H610.091L663.316 325.292L662.96 325.086V325.491L584.099 325.491ZM661.929 324.491L584.099 324.491V280.111L584.158 280.009L584.528 279.789L661.929 324.491ZM609.514 418.51H584.099V462.363L584.259 462.268L609.514 418.51ZM586.016 461.225L657.933 418.51H610.669L586.016 461.225ZM583.099 462.957V418.51H506.07L583.065 462.977L583.099 462.957Z" fill="#EEE9F0"/>
<path opacity="0.7" d="M584.163 279L664 325.109L583.837 464L504 417.892L584.163 279Z" stroke="#EEE9F0"/>
</g>
<path opacity="0.1" d="M742.163 279L822 325.109L741.837 464L662 417.891L742.163 279Z" fill="#CABBD1"/>
<path opacity="0.3" d="M715.4 325L741 280L665 325L715.4 325Z" fill="#CABBD1"/>
<path opacity="0.1" d="M768.47 418L742 463L818 418L768.47 418Z" fill="#CABBD1"/>
<path opacity="0.4" fill-rule="evenodd" clip-rule="evenodd" d="M741.979 232.317L742.413 232.567L744.076 233.528L743.576 234.394L742.528 233.789L742.158 234.009L742.099 234.111V236.081H741.099V234.701L741.045 234.67L740.907 234.752L740.761 234.506L740.727 234.486L740.738 234.468L740.396 233.892L741.422 233.282L741.729 232.75L741.979 232.317ZM747.402 235.449L750.729 237.37L750.229 238.236L746.902 236.315L747.402 235.449ZM733.4 238.047L736.898 235.969L737.409 236.829L733.911 238.907L733.4 238.047ZM736.719 241.431L738.723 237.959L739.589 238.459L737.585 241.931L736.719 241.431ZM754.055 239.291L757.382 241.213L756.882 242.079L753.555 240.157L754.055 239.291ZM741.099 244.065V240.073H742.099V244.065H741.099ZM726.404 242.202L729.902 240.125L730.413 240.985L726.915 243.062L726.404 242.202ZM760.708 243.134L764.035 245.055L763.535 245.921L760.208 244L760.708 243.134ZM719.408 246.358L722.906 244.28L723.417 245.14L719.919 247.217L719.408 246.358ZM732.711 248.376L734.715 244.903L735.581 245.403L733.577 248.875L732.711 248.376ZM767.362 246.976L770.688 248.897L770.188 249.763L766.861 247.842L767.362 246.976ZM741.099 252.049V248.057H742.099V252.049H741.099ZM712.412 250.513L715.91 248.435L716.421 249.295L712.923 251.373L712.412 250.513ZM774.015 250.819L777.341 252.74L776.841 253.606L773.515 251.685L774.015 250.819ZM728.703 255.32L730.707 251.848L731.573 252.348L729.569 255.82L728.703 255.32ZM705.416 254.668L708.914 252.59L709.425 253.45L705.926 255.528L705.416 254.668ZM780.668 254.661L783.994 256.582L783.494 257.448L780.168 255.527L780.668 254.661ZM741.099 260.033V256.041H742.099V260.033H741.099ZM698.42 258.823L701.918 256.746L702.428 257.606L698.93 259.683L698.42 258.823ZM787.321 258.503L790.647 260.425L790.147 261.291L786.821 259.369L787.321 258.503ZM724.695 262.265L726.699 258.792L727.565 259.292L725.561 262.765L724.695 262.265ZM691.424 262.979L694.922 260.901L695.432 261.761L691.934 263.838L691.424 262.979ZM793.974 262.346L797.3 264.267L796.8 265.133L793.474 263.212L793.974 262.346ZM741.099 268.017V264.025H742.099V268.017H741.099ZM684.428 267.134L687.926 265.056L688.436 265.916L684.938 267.994L684.428 267.134ZM720.687 269.209L722.691 265.737L723.557 266.237L721.553 269.709L720.687 269.209ZM800.627 266.188L803.953 268.109L803.453 268.975L800.127 267.054L800.627 266.188ZM677.432 271.289L680.93 269.211L681.44 270.071L677.942 272.149L677.432 271.289ZM807.28 270.031L810.607 271.952L810.106 272.818L806.78 270.897L807.28 270.031ZM741.099 276.001V272.009H742.099V276.001H741.099ZM716.678 276.154L718.683 272.682L719.549 273.181L717.545 276.654L716.678 276.154ZM670.436 275.444L673.934 273.367L674.444 274.226L670.946 276.304L670.436 275.444ZM813.933 273.873L817.26 275.794L816.759 276.66L813.433 274.739L813.933 273.873ZM665.189 278.561L666.938 277.522L667.448 278.382L667.265 278.491H667.49V279.491H665.444H663.623L665.189 278.561ZM820.586 277.715L822.249 278.676L822.682 278.926L822.432 279.359L821.43 281.095L820.564 280.595L821.316 279.292L820.96 279.086V279.491H818.914V278.491H820.138L820.586 277.715ZM757.526 279.491H753.433V278.491H757.526V279.491ZM765.711 279.491H761.619V278.491H765.711V279.491ZM773.896 279.491H769.804V278.491H773.896V279.491ZM782.081 279.491H777.989V278.491H782.081V279.491ZM790.266 279.491H786.174V278.491H790.266V279.491ZM798.451 279.491H794.359V278.491H798.451V279.491ZM806.637 279.491H802.544V278.491H806.637V279.491ZM814.822 279.491H810.729V278.491H814.822V279.491ZM675.675 279.491H671.583V278.491H675.675L675.675 279.491ZM683.86 279.491H679.768V278.491H683.86V279.491ZM692.045 279.491H687.953V278.491H692.045V279.491ZM700.23 279.491H696.138V278.491H700.23V279.491ZM708.416 279.491H704.323V278.491H708.416V279.491ZM716.601 279.491H712.508V278.491H716.601V279.491ZM724.786 279.491H720.693V278.491H724.786V279.491ZM732.971 279.491H728.878V278.491H732.971V279.491ZM741.156 279.491H737.063V278.491H741.156V279.491ZM749.341 279.491H745.248V278.491H749.341V279.491ZM712.67 283.098L714.674 279.626L715.54 280.126L713.536 283.598L712.67 283.098ZM741.099 283.985V279.993H742.099V283.985H741.099ZM819.426 284.567L817.422 288.04L816.556 287.54L818.56 284.067L819.426 284.567ZM708.662 290.043L710.666 286.571L711.532 287.071L709.528 290.543L708.662 290.043ZM741.099 291.969V287.977H742.099V291.969H741.099ZM815.418 291.512L813.414 294.984L812.548 294.484L814.552 291.012L815.418 291.512ZM704.654 296.988L706.658 293.515L707.524 294.015L705.52 297.487L704.654 296.988ZM741.099 299.953V295.961H742.099V299.953H741.099ZM811.41 298.456L809.406 301.929L808.54 301.429L810.544 297.957L811.41 298.456ZM700.646 303.932L702.65 300.46L703.516 300.96L701.512 304.432L700.646 303.932ZM741.099 307.937V303.945H742.099V307.937H741.099ZM807.402 305.401L805.398 308.873L804.532 308.373L806.536 304.901L807.402 305.401ZM696.638 310.877L698.642 307.404L699.508 307.904L697.504 311.377L696.638 310.877ZM803.394 312.346L801.39 315.818L800.523 315.318L802.528 311.846L803.394 312.346ZM741.099 315.921V311.929H742.099V315.921H741.099ZM692.63 317.821L694.634 314.349L695.5 314.849L693.496 318.321L692.63 317.821ZM799.385 319.29L797.381 322.762L796.515 322.263L798.519 318.79L799.385 319.29ZM741.099 323.905L741.099 319.913H742.099L742.099 323.905H741.099ZM688.621 324.766L690.625 321.294L691.492 321.793L689.487 325.266L688.621 324.766ZM795.377 326.235L793.373 329.707L792.507 329.207L794.511 325.735L795.377 326.235ZM741.099 331.889V327.897H742.099V331.889H741.099ZM684.613 331.71L686.617 328.238L687.483 328.738L685.479 332.21L684.613 331.71ZM791.369 333.179L789.365 336.652L788.499 336.152L790.503 332.679L791.369 333.179ZM680.605 338.655L682.609 335.183L683.475 335.683L681.471 339.155L680.605 338.655ZM741.099 339.873V335.881H742.099V339.873H741.099ZM787.361 340.124L785.357 343.596L784.491 343.096L786.495 339.624L787.361 340.124ZM676.597 345.6L678.601 342.127L679.467 342.627L677.463 346.099L676.597 345.6ZM741.099 347.857V343.865H742.099V347.857H741.099ZM783.353 347.068L781.349 350.541L780.483 350.041L782.487 346.568L783.353 347.068ZM672.589 352.544L674.593 349.072L675.459 349.572L673.455 353.044L672.589 352.544ZM741.099 355.841V351.849H742.099V355.841H741.099ZM779.345 354.013L777.341 357.485L776.474 356.985L778.479 353.513L779.345 354.013ZM668.581 359.489L670.585 356.016L671.451 356.516L669.447 359.989L668.581 359.489ZM741.099 363.825V359.833H742.099V363.825H741.099ZM775.337 360.958L773.332 364.43L772.466 363.93L774.47 360.458L775.337 360.958ZM664.572 366.433L666.576 362.961L667.443 363.461L665.438 366.933L664.572 366.433ZM771.328 367.902L769.324 371.374L768.458 370.874L770.462 367.402L771.328 367.902ZM741.099 371.809V367.817H742.099V371.51H746.134V372.51H742.042V371.809H741.099ZM661.566 371.642L662.568 369.906L663.434 370.405L662.797 371.51H664.284V372.51H663.86L663.413 373.285L661.749 372.325L661.316 372.075L661.566 371.642ZM672.469 372.51H668.376V371.51H672.469V372.51ZM680.654 372.51H676.561V371.51H680.654V372.51ZM688.839 372.51H684.746V371.51H688.839V372.51ZM697.024 372.51H692.931V371.51H697.024V372.51ZM705.209 372.51H701.116V371.51H705.209V372.51ZM713.394 372.51H709.302V371.51H713.394V372.51ZM721.579 372.51H717.487V371.51H721.579V372.51ZM729.764 372.51H725.672V371.51H729.764V372.51ZM737.949 372.51H733.857V371.51H737.949V372.51ZM754.319 372.51H750.227V371.51H754.319V372.51ZM762.505 372.51H758.412V371.51H762.505V372.51ZM770.69 372.51H766.597V371.51H770.69V372.51ZM778.875 372.51H774.782V371.51H778.875V372.51ZM787.06 372.51H782.967V371.51H787.06V372.51ZM795.245 372.51H791.152V371.51H795.245V372.51ZM803.43 372.51H799.337V371.51H803.43V372.51ZM811.615 372.51H807.523V371.51H811.615V372.51ZM815.933 372.51H815.708V371.51H817.754H819.575L818.009 372.44L816.26 373.479L815.75 372.619L815.933 372.51ZM670.066 377.128L666.739 375.206L667.239 374.34L670.566 376.262L670.066 377.128ZM767.32 374.847L765.316 378.319L764.45 377.819L766.454 374.347L767.32 374.847ZM808.753 376.774L812.251 374.696L812.762 375.556L809.264 377.634L808.753 376.774ZM741.099 379.793V375.801H742.099V379.793H741.099ZM676.719 380.97L673.392 379.049L673.892 378.183L677.219 380.104L676.719 380.97ZM801.757 380.929L805.255 378.852L805.766 379.711L802.268 381.789L801.757 380.929ZM763.312 381.791L761.308 385.263L760.442 384.764L762.446 381.291L763.312 381.791ZM683.372 384.812L680.045 382.891L680.545 382.025L683.872 383.946L683.372 384.812ZM794.761 385.085L798.259 383.007L798.77 383.867L795.272 385.944L794.761 385.085ZM741.099 387.777V383.785H742.099V387.777H741.099ZM690.025 388.655L686.698 386.734L687.198 385.868L690.525 387.789L690.025 388.655ZM787.765 389.24L791.263 387.162L791.774 388.022L788.276 390.1L787.765 389.24ZM759.304 388.736L757.3 392.208L756.434 391.708L758.438 388.236L759.304 388.736ZM696.678 392.497L693.351 390.576L693.851 389.71L697.178 391.631L696.678 392.497ZM780.769 393.395L784.267 391.317L784.778 392.177L781.28 394.255L780.769 393.395ZM741.099 395.761V391.769H742.099V395.761H741.099ZM703.331 396.339L700.004 394.418L700.505 393.552L703.831 395.474L703.331 396.339ZM755.296 395.68L753.292 399.153L752.426 398.653L754.43 395.18L755.296 395.68ZM773.773 397.55L777.271 395.473L777.782 396.332L774.284 398.41L773.773 397.55ZM709.984 400.182L706.657 398.261L707.158 397.395L710.484 399.316L709.984 400.182ZM766.777 401.705L770.275 399.628L770.786 400.488L767.288 402.565L766.777 401.705ZM741.099 403.745V399.753H742.099V403.745H741.099ZM716.637 404.024L713.311 402.103L713.811 401.237L717.137 403.158L716.637 404.024ZM751.288 402.625L749.283 406.097L748.417 405.597L750.421 402.125L751.288 402.625ZM759.781 405.861L763.279 403.783L763.79 404.643L760.292 406.721L759.781 405.861ZM723.29 407.867L719.964 405.945L720.464 405.08L723.79 407.001L723.29 407.867ZM741.099 411.73V407.737H742.099V411.73H741.099ZM752.785 410.016L756.283 407.938L756.794 408.798L753.296 410.876L752.785 410.016ZM729.943 411.709L726.617 409.788L727.117 408.922L730.443 410.843L729.943 411.709ZM747.279 409.569L745.275 413.042L744.409 412.542L746.413 409.07L747.279 409.569ZM745.789 414.171L749.287 412.094L749.798 412.953L746.3 415.031L745.789 414.171ZM736.596 415.551L733.27 413.63L733.77 412.764L737.096 414.685L736.596 415.551ZM741.099 416.957V415.722H742.099V416.363L742.259 416.268L742.405 416.014L743.271 416.514L742.269 418.25L742.019 418.683L741.586 418.433L741.072 418.136L741.053 418.147L741.032 418.113L739.923 417.473L740.423 416.607L741.065 416.977L741.099 416.957Z" fill="#EEE9F0"/>
<path opacity="0.3" fill-rule="evenodd" clip-rule="evenodd" d="M741.979 278.317L742.413 278.567L822.249 324.676L822.682 324.926L822.432 325.359L769.246 417.51H817.754H819.575L818.009 418.44L742.994 462.994L742.269 464.25L742.019 464.683L741.586 464.433L741.072 464.136L741.053 464.147L741.032 464.113L661.749 418.325L661.316 418.075L661.566 417.642L714.753 325.491H665.444H663.623L665.189 324.561L741.422 279.282L741.729 278.75L741.979 278.317ZM740.401 281.052L667.265 324.491H715.33L740.401 281.052ZM715.907 325.491L662.797 417.51H741.099L741.099 325.491H715.907ZM741.099 324.491H716.484L741.099 281.843V324.491ZM742.099 325.491L742.099 417.51H768.091L821.316 325.292L820.96 325.086V325.491L742.099 325.491ZM819.929 324.491L742.099 324.491V280.111L742.158 280.009L742.528 279.789L819.929 324.491ZM767.514 418.51H742.099V462.363L742.259 462.268L767.514 418.51ZM744.016 461.225L815.933 418.51H768.669L744.016 461.225ZM741.099 462.957V418.51H664.07L741.065 462.977L741.099 462.957Z" fill="#EEE9F0"/>
<path opacity="0.7" d="M742.163 279L822 325.109L741.837 464L662 417.892L742.163 279Z" stroke="#EEE9F0"/>
</g>
</g>
<defs>
<clipPath id="clip0_4287_496946">
<rect width="820" height="465" fill="white"/>
</clipPath>
</defs>
</svg>
