<svg width="1640" height="202" viewBox="0 0 1640 202" fill="none" xmlns="http://www.w3.org/2000/svg">
<g clip-path="url(#clip0_4287_540960)">
<g opacity="0.7">
<g opacity="0.5">
<path opacity="0.1" d="M155 1L20 101V201L155 151V1Z" fill="#C6C7E2"/>
<path opacity="0.4" d="M155 1L290 51V201L155 151V1Z" fill="#C6C7E2"/>
<path opacity="0.4" d="M155 51L290 101V151L155 51Z" fill="#C6C7E2"/>
<path opacity="0.4" d="M155 101V150.999L20 200.999L155 101Z" fill="#C6C7E2"/>
<path opacity="0.2" fill-rule="evenodd" clip-rule="evenodd" d="M155.174 0.53101L154.92 0.437012L154.702 0.598105L87.335 50.4999H20H19.5V50.9999V100.5V100.748V101V101.5V151V151.5V201H19.9202L20.1737 201.468L155.001 151.532L289.826 201.468L290.499 201H290.5V50.9999V50.6519L290.5 50.4999H290.09L155.174 0.53101ZM287.21 50.4999L155.08 1.56276L89.0151 50.4999H154.5H155H155.5H287.21ZM85.985 51.4999H20.5V100.007L85.985 51.4999ZM21.515 100.5L87.6651 51.4999H154.5V100.5H21.515ZM20.5 101.5V150.5H87.3346L153.485 101.5H20.5ZM20.5 151.5V200.007L85.9846 151.5H20.5ZM155.5 150.499L288.484 150.499L222.335 101.5H155.5V150.499ZM289.5 200.281L157.792 151.5H289.5V200.281ZM154.5 150.5V101.992L89.0147 150.5H154.5ZM87.6647 151.5H152.209L23.1197 199.311L87.6647 151.5ZM155.5 100.007V100.5H220.985L155.5 51.9925V100.007ZM289.5 101.5V150.007L224.015 101.5H289.5ZM287.21 100.5H222.665L158.12 52.6885L287.21 100.5ZM289.5 51.4999V100.282L157.79 51.4999H289.5Z" fill="#898BC2"/>
</g>
<g opacity="0.6">
<path opacity="0.1" d="M425 1L290 101V201L425 151V1Z" fill="#C6C7E2"/>
<path opacity="0.4" d="M425 1L560 51V201L425 151V1Z" fill="#C6C7E2"/>
<path opacity="0.4" d="M425 51L560 101V151L425 51Z" fill="#C6C7E2"/>
<path opacity="0.4" d="M425 101V150.999L290 200.999L425 101Z" fill="#C6C7E2"/>
<path opacity="0.2" fill-rule="evenodd" clip-rule="evenodd" d="M425.174 0.53101L424.92 0.437012L424.702 0.598105L357.335 50.4999H290H289.5V50.9999V100.5V100.748V101V101.5V151V151.5V201H289.92L290.174 201.468L425.001 151.532L559.826 201.468L560.499 201H560.5V50.9999V50.6519L560.5 50.4999H560.09L425.174 0.53101ZM557.21 50.4999L425.08 1.56276L359.015 50.4999H424.5H425H425.5H557.21ZM355.985 51.4999H290.5V100.007L355.985 51.4999ZM291.515 100.5L357.665 51.4999H424.5V100.5H291.515ZM290.5 101.5V150.5H357.335L423.485 101.5H290.5ZM290.5 151.5V200.007L355.985 151.5H290.5ZM425.5 150.499L558.484 150.499L492.335 101.5H425.5V150.499ZM559.5 200.281L427.792 151.5H559.5V200.281ZM424.5 150.5V101.992L359.015 150.5H424.5ZM357.665 151.5H422.209L293.12 199.311L357.665 151.5ZM425.5 100.007V100.5H490.985L425.5 51.9925V100.007ZM559.5 101.5V150.007L494.015 101.5H559.5ZM557.21 100.5H492.665L428.12 52.6885L557.21 100.5ZM559.5 51.4999V100.282L427.79 51.4999H559.5Z" fill="#898BC2"/>
</g>
<g opacity="0.7">
<path opacity="0.1" d="M695 1L560 101V201L695 151V1Z" fill="#C6C7E2"/>
<path opacity="0.4" d="M695 1L830 51V201L695 151V1Z" fill="#C6C7E2"/>
<path opacity="0.4" d="M695 51L830 101V151L695 51Z" fill="#C6C7E2"/>
<path opacity="0.4" d="M695 101V150.999L560 200.999L695 101Z" fill="#C6C7E2"/>
<path opacity="0.2" fill-rule="evenodd" clip-rule="evenodd" d="M695.174 0.53101L694.92 0.437012L694.702 0.598105L627.335 50.4999H560H559.5V50.9999V100.5V100.748V101V101.5V151V151.5V201H559.92L560.174 201.468L695.001 151.532L829.826 201.468L830.499 201H830.5V50.9999V50.6519L830.5 50.4999H830.09L695.174 0.53101ZM827.21 50.4999L695.08 1.56276L629.015 50.4999H694.5H695H695.5H827.21ZM625.985 51.4999H560.5V100.007L625.985 51.4999ZM561.515 100.5L627.665 51.4999H694.5V100.5H561.515ZM560.5 101.5V150.5H627.335L693.485 101.5H560.5ZM560.5 151.5V200.007L625.985 151.5H560.5ZM695.5 150.499L828.484 150.499L762.335 101.5H695.5V150.499ZM829.5 200.281L697.792 151.5H829.5V200.281ZM694.5 150.5V101.992L629.015 150.5H694.5ZM627.665 151.5H692.209L563.12 199.311L627.665 151.5ZM695.5 100.007V100.5H760.985L695.5 51.9925V100.007ZM829.5 101.5V150.007L764.015 101.5H829.5ZM827.21 100.5H762.665L698.12 52.6885L827.21 100.5ZM829.5 51.4999V100.282L697.79 51.4999H829.5Z" fill="#898BC2"/>
</g>
<g opacity="0.8">
<path opacity="0.1" d="M965 1L830 101V201L965 151V1Z" fill="#C6C7E2"/>
<path opacity="0.4" d="M965 1L1100 51V201L965 151V1Z" fill="#C6C7E2"/>
<path opacity="0.4" d="M965 51L1100 101V151L965 51Z" fill="#C6C7E2"/>
<path opacity="0.4" d="M965 101V150.999L830 200.999L965 101Z" fill="#C6C7E2"/>
<path opacity="0.2" fill-rule="evenodd" clip-rule="evenodd" d="M965.174 0.53101L964.92 0.437012L964.702 0.598105L897.335 50.4999H830H829.5V50.9999V100.5V100.748V101V101.5V151V151.5V201H829.92L830.174 201.468L965.001 151.532L1099.83 201.468L1100.5 201H1100.5V50.9999V50.6519L1100.5 50.4999H1100.09L965.174 0.53101ZM1097.21 50.4999L965.08 1.56276L899.015 50.4999H964.5H965H965.5H1097.21ZM895.985 51.4999H830.5V100.007L895.985 51.4999ZM831.515 100.5L897.665 51.4999H964.5V100.5H831.515ZM830.5 101.5V150.5H897.335L963.485 101.5H830.5ZM830.5 151.5V200.007L895.985 151.5H830.5ZM965.5 150.499L1098.48 150.499L1032.33 101.5H965.5V150.499ZM1099.5 200.281L967.792 151.5H1099.5V200.281ZM964.5 150.5V101.992L899.015 150.5H964.5ZM897.665 151.5H962.209L833.12 199.311L897.665 151.5ZM965.5 100.007V100.5H1030.98L965.5 51.9925V100.007ZM1099.5 101.5V150.007L1034.01 101.5H1099.5ZM1097.21 100.5H1032.67L968.12 52.6885L1097.21 100.5ZM1099.5 51.4999V100.282L967.79 51.4999H1099.5Z" fill="#898BC2"/>
</g>
<g opacity="0.9">
<path opacity="0.1" d="M1235 1L1100 101V201L1235 151V1Z" fill="#C6C7E2"/>
<path opacity="0.4" d="M1235 1L1370 51V201L1235 151V1Z" fill="#C6C7E2"/>
<path opacity="0.4" d="M1235 51L1370 101V151L1235 51Z" fill="#C6C7E2"/>
<path opacity="0.4" d="M1235 101V150.999L1100 200.999L1235 101Z" fill="#C6C7E2"/>
<path opacity="0.2" fill-rule="evenodd" clip-rule="evenodd" d="M1235.17 0.53101L1234.92 0.437012L1234.7 0.598105L1167.34 50.4999H1100H1099.5V50.9999V100.5V100.748V101V101.5V151V151.5V201H1099.92L1100.17 201.468L1235 151.532L1369.83 201.468L1370.5 201H1370.5V50.9999V50.6519L1370.5 50.4999H1370.09L1235.17 0.53101ZM1367.21 50.4999L1235.08 1.56276L1169.02 50.4999H1234.5H1235H1235.5H1367.21ZM1165.99 51.4999H1100.5V100.007L1165.99 51.4999ZM1101.52 100.5L1167.67 51.4999H1234.5V100.5H1101.52ZM1100.5 101.5V150.5H1167.33L1233.48 101.5H1100.5ZM1100.5 151.5V200.007L1165.98 151.5H1100.5ZM1235.5 150.499L1368.48 150.499L1302.33 101.5H1235.5V150.499ZM1369.5 200.281L1237.79 151.5H1369.5V200.281ZM1234.5 150.5V101.992L1169.01 150.5H1234.5ZM1167.66 151.5H1232.21L1103.12 199.311L1167.66 151.5ZM1235.5 100.007V100.5H1300.98L1235.5 51.9925V100.007ZM1369.5 101.5V150.007L1304.01 101.5H1369.5ZM1367.21 100.5H1302.67L1238.12 52.6885L1367.21 100.5ZM1369.5 51.4999V100.282L1237.79 51.4999H1369.5Z" fill="#898BC2"/>
</g>
<path opacity="0.1" d="M1505 1L1370 101V201L1505 151V1Z" fill="#C6C7E2"/>
<path opacity="0.4" d="M1505 1L1640 51V201L1505 151V1Z" fill="#C6C7E2"/>
<path opacity="0.4" d="M1505 51L1640 101V151L1505 51Z" fill="#C6C7E2"/>
<path opacity="0.4" d="M1505 101V150.999L1370 200.999L1505 101Z" fill="#C6C7E2"/>
<path opacity="0.2" fill-rule="evenodd" clip-rule="evenodd" d="M1505.17 0.53101L1504.92 0.437012L1504.7 0.598105L1437.34 50.4999H1370H1369.5V50.9999V100.5V100.748V101V101.5V151V151.5V201H1369.92L1370.17 201.468L1505 151.532L1639.83 201.468L1640.5 201H1640.5V50.9999V50.6519L1640.5 50.4999H1640.09L1505.17 0.53101ZM1637.21 50.4999L1505.08 1.56276L1439.02 50.4999H1504.5H1505H1505.5H1637.21ZM1435.99 51.4999H1370.5V100.007L1435.99 51.4999ZM1371.52 100.5L1437.67 51.4999H1504.5V100.5H1371.52ZM1370.5 101.5V150.5H1437.33L1503.48 101.5H1370.5ZM1370.5 151.5V200.007L1435.98 151.5H1370.5ZM1505.5 150.499L1638.48 150.499L1572.33 101.5H1505.5V150.499ZM1639.5 200.281L1507.79 151.5H1639.5V200.281ZM1504.5 150.5V101.992L1439.01 150.5H1504.5ZM1437.66 151.5H1502.21L1373.12 199.311L1437.66 151.5ZM1505.5 100.007V100.5H1570.98L1505.5 51.9925V100.007ZM1639.5 101.5V150.007L1574.01 101.5H1639.5ZM1637.21 100.5H1572.67L1508.12 52.6885L1637.21 100.5ZM1639.5 51.4999V100.282L1507.79 51.4999H1639.5Z" fill="#898BC2"/>
</g>
</g>
<defs>
<clipPath id="clip0_4287_540960">
<rect width="1640" height="202" fill="white"/>
</clipPath>
</defs>
</svg>
