<svg width="57" height="54" viewBox="0 0 57 54" fill="none" xmlns="http://www.w3.org/2000/svg">
<path fill-rule="evenodd" clip-rule="evenodd" d="M28.7526 0.0909352C28.4881 -0.0303117 28.1838 -0.0303117 27.9193 0.0909352L0.919283 12.4659C0.563831 12.6289 0.335938 12.984 0.335938 13.375V18C0.335938 18.5523 0.783653 19 1.33594 19H2.33594V24C2.33594 24.5523 2.78365 25 3.33594 25H6.33594V44H3.33594C2.78365 44 2.33594 44.4477 2.33594 45V48H1.33594C0.783653 48 0.335938 48.4477 0.335938 49V53C0.335938 53.5523 0.783653 54 1.33594 54H55.3359C55.8882 54 56.3359 53.5523 56.3359 53V49C56.3359 48.4477 55.8882 48 55.3359 48H54.3359V45C54.3359 44.4477 53.8882 44 53.3359 44H50.3359V25H53.3359C53.8882 25 54.3359 24.5523 54.3359 24V19H55.3359C55.8882 19 56.3359 18.5523 56.3359 18V13.375C56.3359 12.984 56.108 12.6289 55.7526 12.4659L28.7526 0.0909352ZM52.3359 19H4.33594V23H52.3359V19ZM54.3359 17V14.0167L28.3359 2.10003L2.33594 14.0167V17H54.3359ZM48.3359 25H42.3359V44H48.3359V25ZM40.3359 44V25H33.3359V44H40.3359ZM25.3359 25H31.3359V44H25.3359V25ZM23.3359 25V44H16.3359V25H23.3359ZM52.3359 46V48H4.33594V46H52.3359ZM8.33594 44V25H14.3359V44H8.33594ZM2.33594 50H54.3359V52H2.33594V50Z" fill="#76B82A"/>
</svg>
