<svg width="284" height="512" viewBox="0 0 284 512" fill="none" xmlns="http://www.w3.org/2000/svg">
<path d="M26.9894 512C33.9242 512 40.5389 509.333 45.4466 504.318L275.468 274.297C280.376 269.389 283.149 262.775 283.149 255.84C283.149 248.905 280.376 242.29 275.468 237.383L45.4466 7.36153C40.7522 2.66722 34.0308 0 26.9894 0C19.9479 0 13.2265 2.66722 8.53219 7.36153C3.6245 12.2692 0.850601 18.8839 0.850601 25.8187C0.850601 32.7535 3.6245 39.3682 8.53219 44.2759L220.096 255.84L8.53219 467.404C3.6245 472.312 0.850601 478.926 0.850601 485.861C0.850601 492.796 3.6245 499.411 8.53219 504.318C13.4399 509.226 20.0546 512 26.9894 512Z" fill="#D7A7FF"/>
</svg>
