<svg width="139" height="86" viewBox="0 0 139 86" fill="none" xmlns="http://www.w3.org/2000/svg">
<mask id="path-1-outside-1_633_81145" maskUnits="userSpaceOnUse" x="6.33203" y="18" width="88" height="61" fill="black">
<rect fill="white" x="6.33203" y="18" width="88" height="61"/>
<path d="M48.457 77H8.53516V68.6016L22.8711 54.1094C25.7617 51.1406 28.0794 48.6667 29.8242 46.6875C31.5951 44.6823 32.8711 42.8594 33.6523 41.2188C34.4596 39.5781 34.8633 37.8203 34.8633 35.9453C34.8633 33.6797 34.2253 31.987 32.9492 30.8672C31.6992 29.7214 30.0195 29.1484 27.9102 29.1484C25.6966 29.1484 23.5482 29.6562 21.4648 30.6719C19.3815 31.6875 17.207 33.1328 14.9414 35.0078L8.37891 27.2344C10.0195 25.8281 11.7513 24.5 13.5742 23.25C15.4232 22 17.5586 20.9974 19.9805 20.2422C22.4284 19.4609 25.3581 19.0703 28.7695 19.0703C32.5195 19.0703 35.7357 19.7474 38.418 21.1016C41.1263 22.4557 43.2096 24.3047 44.668 26.6484C46.1263 28.9661 46.8555 31.5964 46.8555 34.5391C46.8555 37.6901 46.2305 40.5677 44.9805 43.1719C43.7305 45.776 41.9076 48.3542 39.5117 50.9062C37.1419 53.4583 34.2773 56.2839 30.918 59.3828L23.5742 66.2969V66.8438H48.457V77ZM75.0977 40.5156C78.5872 40.5156 81.6862 41.1797 84.3945 42.5078C87.1289 43.8359 89.2773 45.7891 90.8398 48.3672C92.4023 50.9453 93.1836 54.1224 93.1836 57.8984C93.1836 62.013 92.3242 65.5677 90.6055 68.5625C88.9128 71.5312 86.3737 73.8099 82.9883 75.3984C79.6289 76.987 75.4362 77.7812 70.4102 77.7812C67.4154 77.7812 64.5898 77.5208 61.9336 77C59.3034 76.5052 56.9987 75.737 55.0195 74.6953V64.2656C56.9987 65.3073 59.3685 66.1927 62.1289 66.9219C64.9154 67.625 67.5326 67.9766 69.9805 67.9766C72.3763 67.9766 74.3945 67.6641 76.0352 67.0391C77.6758 66.388 78.9128 65.3984 79.7461 64.0703C80.6055 62.7161 81.0352 60.9974 81.0352 58.9141C81.0352 56.1276 80.0977 53.9922 78.2227 52.5078C76.3477 51.0234 73.4701 50.2812 69.5898 50.2812C68.1055 50.2812 66.556 50.4245 64.9414 50.7109C63.3529 50.9974 62.0247 51.2839 60.957 51.5703L56.1523 48.9922L58.3008 19.8906H89.2773V30.125H68.8867L67.832 41.3359C68.7174 41.1536 69.681 40.9714 70.7227 40.7891C71.7643 40.6068 73.2227 40.5156 75.0977 40.5156Z"/>
</mask>
<path d="M48.457 77V77.5H48.957V77H48.457ZM8.53516 77H8.03516V77.5H8.53516V77ZM8.53516 68.6016L8.17969 68.2499L8.03516 68.396V68.6016H8.53516ZM22.8711 54.1094L23.2266 54.461L23.2293 54.4582L22.8711 54.1094ZM29.8242 46.6875L29.4494 46.3565L29.4492 46.3569L29.8242 46.6875ZM33.6523 41.2188L33.2037 40.998L33.2009 41.0038L33.6523 41.2188ZM32.9492 30.8672L32.6113 31.2359L32.6194 31.243L32.9492 30.8672ZM21.4648 30.6719L21.2457 30.2224L21.4648 30.6719ZM14.9414 35.0078L14.5593 35.3304L14.8787 35.7087L15.2602 35.393L14.9414 35.0078ZM8.37891 27.2344L8.05351 26.8547L7.67672 27.1777L7.99685 27.5569L8.37891 27.2344ZM13.5742 23.25L13.2942 22.8358L13.2915 22.8376L13.5742 23.25ZM19.9805 20.2422L20.1293 20.7195L20.1325 20.7185L19.9805 20.2422ZM38.418 21.1016L38.1926 21.5479L38.1944 21.5488L38.418 21.1016ZM44.668 26.6484L44.2434 26.9126L44.2448 26.9147L44.668 26.6484ZM44.9805 43.1719L44.5297 42.9555L44.9805 43.1719ZM39.5117 50.9062L39.1472 50.564L39.1453 50.566L39.5117 50.9062ZM30.918 59.3828L30.5789 59.0153L30.5752 59.0188L30.918 59.3828ZM23.5742 66.2969L23.2315 65.9328L23.0742 66.0809V66.2969H23.5742ZM23.5742 66.8438H23.0742V67.3438H23.5742V66.8438ZM48.457 66.8438H48.957V66.3438H48.457V66.8438ZM48.457 76.5H46.4609V77.5H48.457V76.5ZM42.4687 76.5H38.4766V77.5H42.4687V76.5ZM34.4844 76.5H30.4922V77.5H34.4844V76.5ZM26.5 76.5H22.5078V77.5H26.5V76.5ZM18.5156 76.5H14.5234V77.5H18.5156V76.5ZM10.5313 76.5H8.53516V77.5H10.5313V76.5ZM9.03516 77V74.9004H8.03516V77H9.03516ZM9.03516 70.7012V68.6016H8.03516V70.7012H9.03516ZM8.89062 68.9532L10.0853 67.7455L9.37435 67.0422L8.17969 68.2499L8.89062 68.9532ZM12.4746 65.3301L14.8639 62.9148L14.153 62.2115L11.7637 64.6269L12.4746 65.3301ZM17.2533 60.4994L19.6426 58.0841L18.9316 57.3808L16.5423 59.7962L17.2533 60.4994ZM22.0319 55.6687L23.2266 54.461L22.5156 53.7577L21.321 54.9654L22.0319 55.6687ZM23.2293 54.4582C23.8453 53.8256 24.4354 53.2153 24.9996 52.6273L24.2781 51.9349C23.7157 52.521 23.1273 53.1295 22.5129 53.7606L23.2293 54.4582ZM28.4914 48.9145C29.1106 48.2394 29.68 47.6072 30.1993 47.0181L29.4492 46.3569C28.9348 46.9403 28.37 47.5675 27.7545 48.2385L28.4914 48.9145ZM30.199 47.0185C30.5872 46.5789 30.9524 46.1474 31.2946 45.7239L30.5167 45.0955C30.1844 45.5067 29.8287 45.9271 29.4494 46.3565L30.199 47.0185ZM33.2774 42.9481C33.5939 42.4303 33.8696 41.9255 34.1038 41.4337L33.2009 41.0038C32.9834 41.4606 32.7247 41.9348 32.4241 42.4265L33.2774 42.9481ZM34.101 41.4395C34.3118 41.0111 34.4964 40.5746 34.6546 40.1301L33.7125 39.7947C33.5673 40.2025 33.3978 40.6036 33.2037 40.998L34.101 41.4395ZM35.2871 37.3618C35.3379 36.8963 35.3633 36.4241 35.3633 35.9453H34.3633C34.3633 36.3888 34.3398 36.8247 34.293 37.2532L35.2871 37.3618ZM35.3633 35.9453C35.3633 35.4325 35.3319 34.9442 35.2682 34.4809L34.2775 34.6171C34.3344 35.0306 34.3633 35.4731 34.3633 35.9453H35.3633ZM34.2802 31.6544C34.0003 31.2193 33.6663 30.8312 33.279 30.4914L32.6194 31.243C32.9363 31.5211 33.2094 31.8382 33.4393 32.1955L34.2802 31.6544ZM33.2871 30.4986C32.9232 30.1651 32.5256 29.8763 32.0949 29.6326L31.6024 30.5029C31.9674 30.7094 32.3035 30.9536 32.6114 31.2358L33.2871 30.4986ZM29.3365 28.7401C28.8811 28.6787 28.4055 28.6484 27.9102 28.6484V29.6484C28.3648 29.6484 28.7956 29.6762 29.203 29.7311L29.3365 28.7401ZM27.9102 28.6484C27.3311 28.6484 26.7561 28.682 26.1852 28.7493L26.3021 29.7424C26.8339 29.6798 27.3699 29.6484 27.9102 29.6484V28.6484ZM22.8309 29.5491C22.2978 29.7426 21.7694 29.9671 21.2457 30.2224L21.6839 31.1213C22.177 30.881 22.673 30.6703 23.1721 30.4891L22.8309 29.5491ZM21.2457 30.2224C20.6642 30.5059 20.0768 30.8217 19.4836 31.1694L19.9893 32.0321C20.562 31.6964 21.1268 31.3929 21.6839 31.1213L21.2457 30.2224ZM16.1793 33.3905C15.6647 33.7789 15.1458 34.1896 14.6226 34.6226L15.2602 35.393C15.7725 34.969 16.2797 34.5676 16.7817 34.1887L16.1793 33.3905ZM15.3235 34.6853L13.6828 32.7419L12.9187 33.387L14.5593 35.3304L15.3235 34.6853ZM10.4016 28.8552L8.76096 26.9118L7.99685 27.5569L9.63747 29.5003L10.4016 28.8552ZM8.7043 27.614C9.11431 27.2626 9.53009 26.916 9.95163 26.5744L9.32201 25.7975C8.89336 26.1449 8.47053 26.4973 8.05351 26.8547L8.7043 27.614ZM12.5293 24.5984C12.9663 24.2817 13.4088 23.9697 13.857 23.6624L13.2915 22.8376C12.8362 23.1498 12.3865 23.4669 11.9424 23.7888L12.5293 24.5984ZM13.8543 23.6642C14.3265 23.3449 14.8184 23.0419 15.33 22.7552L14.841 21.8828C14.3058 22.1828 13.7901 22.5005 13.2942 22.8358L13.8543 23.6642ZM18.4809 21.2896C19.0139 21.086 19.5634 20.896 20.1293 20.7195L19.8316 19.7649C19.2465 19.9473 18.6774 20.1441 18.1241 20.3554L18.4809 21.2896ZM20.1325 20.7185C20.795 20.5071 21.4956 20.3244 22.2346 20.1709L22.0312 19.1918C21.2608 19.3518 20.5265 19.5431 19.8284 19.7659L20.1325 20.7185ZM26.5724 19.6286C27.2799 19.5898 28.0123 19.5703 28.7695 19.5703V18.5703C27.9952 18.5703 27.2445 18.5902 26.5176 18.6301L26.5724 19.6286ZM28.7695 19.5703C29.6119 19.5703 30.4256 19.605 31.2105 19.6743L31.2984 18.6781C30.4824 18.6062 29.6394 18.5703 28.7695 18.5703V19.5703ZM35.9642 20.625C36.7464 20.885 37.4891 21.1927 38.1926 21.5479L38.6433 20.6552C37.8944 20.2771 37.1063 19.9508 36.2796 19.6761L35.9642 20.625ZM38.1944 21.5488C38.8242 21.8637 39.418 22.2054 39.9761 22.5738L40.527 21.7392C39.934 21.3478 39.3054 20.9863 38.6416 20.6543L38.1944 21.5488ZM43.0402 25.265C43.4809 25.7826 43.882 26.3317 44.2434 26.9126L45.0925 26.3843C44.705 25.7615 44.2747 25.1722 43.8016 24.6167L43.0402 25.265ZM44.2448 26.9147C44.6031 27.4842 44.9155 28.0727 45.1822 28.6805L46.0979 28.2786C45.8111 27.6251 45.4755 26.9929 45.0912 26.3822L44.2448 26.9147ZM46.2327 32.5315C46.3144 33.1817 46.3555 33.8509 46.3555 34.5391H47.3555C47.3555 33.8111 47.3121 33.1003 47.2249 32.4068L46.2327 32.5315ZM46.3555 34.5391C46.3555 35.2803 46.3201 36.0051 46.2497 36.7135L47.2448 36.8125C47.3186 36.0699 47.3555 35.3121 47.3555 34.5391H46.3555ZM45.3466 40.9501C45.1144 41.6362 44.8421 42.3047 44.5297 42.9555L45.4312 43.3882C45.7612 42.7008 46.0487 41.9949 46.2938 41.2706L45.3466 40.9501ZM44.5297 42.9555C44.2014 43.6395 43.8323 44.3226 43.4221 45.0047L44.2791 45.52C44.7047 44.8123 45.0888 44.1017 45.4312 43.3882L44.5297 42.9555ZM40.7022 48.8062C40.2148 49.393 39.6965 49.9789 39.1472 50.564L39.8763 51.2485C40.4387 50.6493 40.9705 50.0482 41.4714 49.4452L40.7022 48.8062ZM39.1453 50.566C38.812 50.925 38.4688 51.2894 38.1156 51.6595L38.839 52.3499C39.1952 51.9767 39.5416 51.6089 39.8781 51.2465L39.1453 50.566ZM36.0135 53.8099C35.3283 54.4956 34.6125 55.1983 33.8661 55.918L34.5603 56.6378C35.3108 55.9142 36.031 55.2072 36.7209 54.5168L36.0135 53.8099ZM31.6827 57.9903C31.3209 58.3286 30.953 58.6702 30.5789 59.0153L31.257 59.7503C31.6327 59.4038 32.0022 59.0606 32.3656 58.7208L31.6827 57.9903ZM30.5752 59.0188L28.7393 60.7473L29.4248 61.4754L31.2607 59.7469L30.5752 59.0188ZM25.0674 64.2043L23.2315 65.9328L23.917 66.6609L25.7529 64.9324L25.0674 64.2043ZM23.0742 66.2969V66.4336H24.0742V66.2969H23.0742ZM23.0742 66.707V66.8438H24.0742V66.707H23.0742ZM23.5742 67.3438H25.6478V66.3438H23.5742V67.3438ZM29.7949 67.3438H33.9421V66.3438H29.7949V67.3438ZM38.0892 67.3438H42.2363V66.3438H38.0892V67.3438ZM46.3835 67.3438H48.457V66.3438H46.3835V67.3438ZM47.957 66.8438V69.3828H48.957V66.8438H47.957ZM47.957 74.4609V77H48.957V74.4609H47.957ZM48.457 77V78H49.457V77H48.457ZM8.53516 77H7.53516V78H8.53516V77ZM8.53516 68.6016L7.82423 67.8983L7.53516 68.1905V68.6016H8.53516ZM22.8711 54.1094L23.582 54.8127L23.5876 54.807L22.8711 54.1094ZM29.8242 46.6875L29.0747 46.0256L29.0741 46.0262L29.8242 46.6875ZM33.6523 41.2188L32.755 40.7772L32.7495 40.7888L33.6523 41.2188ZM32.9492 30.8672L32.2735 31.6043L32.2815 31.6117L32.2896 31.6188L32.9492 30.8672ZM21.4648 30.6719L21.0266 29.773L21.4648 30.6719ZM14.9414 35.0078L14.1773 35.6529L14.8161 36.4096L15.579 35.7782L14.9414 35.0078ZM8.37891 27.2344L7.72811 26.4751L6.97453 27.121L7.61479 27.8795L8.37891 27.2344ZM13.5742 23.25L13.0141 22.4215L13.0087 22.4253L13.5742 23.25ZM19.9805 20.2422L20.2782 21.1969L20.2845 21.1948L19.9805 20.2422ZM38.418 21.1016L37.9673 21.9943L37.9708 21.996L38.418 21.1016ZM44.668 26.6484L43.8189 27.1767L43.8216 27.181L44.668 26.6484ZM44.9805 43.1719L44.0789 42.7391L44.9805 43.1719ZM39.5117 50.9062L38.7826 50.2218L38.7789 50.2258L39.5117 50.9062ZM30.918 59.3828L30.2399 58.6478L30.2325 58.6547L30.918 59.3828ZM23.5742 66.2969L22.8887 65.5688L22.5742 65.8649V66.2969H23.5742ZM23.5742 66.8438H22.5742V67.8438H23.5742V66.8438ZM48.457 66.8438H49.457V65.8438H48.457V66.8438ZM48.457 76H46.4609V78H48.457V76ZM42.4687 76H38.4766V78H42.4687V76ZM34.4844 76H30.4922V78H34.4844V76ZM26.5 76H22.5078V78H26.5V76ZM18.5156 76H14.5234V78H18.5156V76ZM10.5313 76H8.53516V78H10.5313V76ZM9.53516 77V74.9004H7.53516V77H9.53516ZM9.53516 70.7012V68.6016H7.53516V70.7012H9.53516ZM9.24609 69.3048L10.4407 68.0971L9.01889 66.6906L7.82423 67.8983L9.24609 69.3048ZM12.8301 65.6818L15.2194 63.2664L13.7975 61.8599L11.4082 64.2753L12.8301 65.6818ZM17.6087 60.8511L19.998 58.4357L18.5762 57.0292L16.1869 59.4445L17.6087 60.8511ZM22.3874 56.0203L23.582 54.8126L22.1602 53.4061L20.9655 54.6138L22.3874 56.0203ZM23.5876 54.807C24.2043 54.1736 24.7952 53.5624 25.3604 52.9735L23.9173 51.5888C23.3558 52.1739 22.7683 52.7815 22.1546 53.4118L23.5876 54.807ZM28.8599 49.2524C29.481 48.5753 30.0525 47.9407 30.5743 47.3488L29.0741 46.0262C28.5623 46.6068 27.9996 47.2315 27.386 47.9005L28.8599 49.2524ZM30.5738 47.3494C30.9664 46.9049 31.3364 46.4678 31.6835 46.0382L30.1278 44.7812C29.8005 45.1864 29.4495 45.6011 29.0747 46.0256L30.5738 47.3494ZM33.704 43.2089C34.0284 42.6781 34.3127 42.158 34.5552 41.6487L32.7495 40.7888C32.5403 41.2281 32.2902 41.687 31.9975 42.1657L33.704 43.2089ZM34.5496 41.6603C34.7688 41.2148 34.9609 40.7606 35.1256 40.2977L33.2414 39.6271C33.1028 40.0165 32.9408 40.3999 32.7551 40.7772L34.5496 41.6603ZM35.7841 37.4161C35.837 36.9321 35.8633 36.4418 35.8633 35.9453H33.8633C33.8633 36.3711 33.8407 36.7889 33.7959 37.1989L35.7841 37.4161ZM35.8633 35.9453C35.8633 35.4122 35.8307 34.901 35.7635 34.4127L33.7822 34.6853C33.8356 35.0738 33.8633 35.4934 33.8633 35.9453H35.8633ZM34.7007 31.3838C34.3957 30.9098 34.0313 30.4863 33.6088 30.1156L32.2896 31.6188C32.5713 31.866 32.8139 32.1477 33.0188 32.4661L34.7007 31.3838ZM33.6249 30.13C33.2331 29.7708 32.8047 29.4597 32.3412 29.1974L31.3562 30.938C31.6884 31.126 31.9937 31.3479 32.2735 31.6043L33.6249 30.13ZM29.4032 28.2445C28.9238 28.18 28.4258 28.1484 27.9102 28.1484V30.1484C28.3445 30.1484 28.7529 30.175 29.1363 30.2266L29.4032 28.2445ZM27.9102 28.1484C27.3117 28.1484 26.7172 28.1832 26.1267 28.2527L26.3606 30.239C26.8728 30.1786 27.3893 30.1484 27.9102 30.1484V28.1484ZM22.6603 29.0791C22.1102 29.2788 21.5656 29.5102 21.0266 29.773L21.903 31.5708C22.3808 31.3379 22.8606 31.1341 23.3427 30.9591L22.6603 29.0791ZM21.0266 29.773C20.4329 30.0624 19.8343 30.3843 19.2308 30.7381L20.2422 32.4635C20.8045 32.1338 21.3582 31.8364 21.903 31.5708L21.0266 29.773ZM15.878 32.9914C15.3572 33.3845 14.8325 33.7999 14.3038 34.2374L15.579 35.7782C16.0859 35.3587 16.5872 34.9619 17.0829 34.5878L15.878 32.9914ZM15.7055 34.3627L14.0649 32.4194L12.5367 33.7095L14.1773 35.6529L15.7055 34.3627ZM10.7836 28.5327L9.14302 26.5893L7.61479 27.8795L9.25542 29.8228L10.7836 28.5327ZM9.0297 27.9936C9.43621 27.6452 9.84846 27.3016 10.2664 26.9628L9.00719 25.409C8.57499 25.7593 8.14863 26.1147 7.72811 26.4751L9.0297 27.9936ZM12.8228 25.0033C13.2562 24.6891 13.6952 24.3796 14.1397 24.0747L13.0087 22.4253C12.5498 22.7399 12.0966 23.0595 11.6489 23.384L12.8228 25.0033ZM14.1343 24.0784C14.5947 23.7672 15.0747 23.4714 15.5744 23.1913L14.5966 21.4467C14.0495 21.7533 13.522 22.0782 13.0141 22.4216L14.1343 24.0784ZM18.6592 21.7567C19.1822 21.557 19.7218 21.3703 20.2782 21.1968L19.6828 19.2875C19.0881 19.473 18.5091 19.6732 17.9458 19.8883L18.6592 21.7567ZM20.2845 21.1948C20.9292 20.9891 21.6129 20.8107 22.3363 20.6605L21.9295 18.7023C21.1435 18.8656 20.3922 19.0611 19.6764 19.2895L20.2845 21.1948ZM26.5998 20.1279C27.2976 20.0896 28.0208 20.0703 28.7695 20.0703V18.0703C27.9867 18.0703 27.2268 18.0904 26.4902 18.1309L26.5998 20.1279ZM28.7695 20.0703C29.5982 20.0703 30.3972 20.1045 31.1666 20.1723L31.3423 18.18C30.5108 18.1067 29.6531 18.0703 28.7695 18.0703V20.0703ZM35.8065 21.0995C36.5665 21.3521 37.2865 21.6506 37.9673 21.9942L38.8686 20.2089C38.097 19.8193 37.2862 19.4837 36.4373 19.2016L35.8065 21.0995ZM37.9708 21.996C38.5836 22.3024 39.16 22.6343 39.7007 22.9911L40.8024 21.3219C40.192 20.919 39.546 20.5475 38.8652 20.2071L37.9708 21.996ZM42.6595 25.5891C43.0841 26.0877 43.4705 26.6168 43.8189 27.1767L45.517 26.1201C45.1165 25.4764 44.6715 24.8671 44.1823 24.2925L42.6595 25.5891ZM43.8216 27.181C44.1669 27.7298 44.4677 28.2966 44.7244 28.8814L46.5558 28.0777C46.2589 27.4013 45.9116 26.7473 45.5144 26.1159L43.8216 27.181ZM45.7366 32.5938C45.8156 33.2225 45.8555 33.8708 45.8555 34.5391H47.8555C47.8555 33.7912 47.8109 33.0595 47.721 32.3444L45.7366 32.5938ZM45.8555 34.5391C45.8555 35.2644 45.8209 35.9726 45.7521 36.6641L47.7423 36.862C47.8179 36.1024 47.8555 35.328 47.8555 34.5391H45.8555ZM44.873 40.7898C44.6472 41.4569 44.3826 42.1066 44.0789 42.7391L45.882 43.6046C46.2207 42.8989 46.5159 42.1743 46.7674 41.4309L44.873 40.7898ZM44.0789 42.7391C43.7577 43.4084 43.3961 44.0777 42.9936 44.7471L44.7076 45.7777C45.1409 45.0571 45.5325 44.3328 45.882 43.6046L44.0789 42.7391ZM40.3176 48.4867C39.8369 49.0653 39.3254 49.6437 38.7826 50.2218L40.2408 51.5907C40.8098 50.9846 41.3483 50.3759 41.856 49.7647L40.3176 48.4867ZM38.7789 50.2258C38.4473 50.583 38.1056 50.9458 37.7539 51.3142L39.2007 52.6951C39.5584 52.3203 39.9064 51.9509 40.2445 51.5867L38.7789 50.2258ZM35.6599 53.4565C34.9769 54.1399 34.2634 54.8404 33.5191 55.558L34.9073 56.9977C35.6599 56.2721 36.3823 55.5629 37.0745 54.8702L35.6599 53.4565ZM31.3412 57.6251C30.9803 57.9626 30.6132 58.3034 30.2399 58.6478L31.596 60.1178C31.9725 59.7705 32.3429 59.4266 32.7071 59.086L31.3412 57.6251ZM30.2325 58.6547L28.3965 60.3832L29.7675 61.8394L31.6035 60.1109L30.2325 58.6547ZM24.7247 63.8403L22.8887 65.5688L24.2597 67.025L26.0956 65.2964L24.7247 63.8403ZM22.5742 66.2969V66.4336H24.5742V66.2969H22.5742ZM22.5742 66.707V66.8438H24.5742V66.707H22.5742ZM23.5742 67.8438H25.6478V65.8438H23.5742V67.8438ZM29.7949 67.8438H33.9421V65.8438H29.7949V67.8438ZM38.0892 67.8438H42.2363V65.8438H38.0892V67.8438ZM46.3835 67.8438H48.457V65.8438H46.3835V67.8438ZM47.457 66.8438V69.3828H49.457V66.8438H47.457ZM47.457 74.4609V77H49.457V74.4609H47.457ZM84.3945 42.5078L84.1744 42.9567L84.1761 42.9576L84.3945 42.5078ZM90.6055 68.5625L90.1718 68.3136L90.1711 68.3148L90.6055 68.5625ZM82.9883 75.3984L82.7759 74.9458L82.7745 74.9464L82.9883 75.3984ZM61.9336 77L62.0298 76.5093L62.026 76.5086L61.9336 77ZM55.0195 74.6953H54.5195V74.9972L54.7867 75.1378L55.0195 74.6953ZM55.0195 64.2656L55.2524 63.8232L54.5195 63.4374V64.2656H55.0195ZM62.1289 66.9219L62.0012 67.4053L62.0066 67.4067L62.1289 66.9219ZM76.0352 67.0391L76.2132 67.5064L76.2196 67.5038L76.0352 67.0391ZM79.7461 64.0703L79.3239 63.8024L79.3226 63.8046L79.7461 64.0703ZM64.9414 50.7109L64.8541 50.2186L64.8527 50.2189L64.9414 50.7109ZM60.957 51.5703L60.7206 52.0109L60.8952 52.1046L61.0866 52.0532L60.957 51.5703ZM56.1523 48.9922L55.6537 48.9554L55.6298 49.2792L55.9159 49.4328L56.1523 48.9922ZM58.3008 19.8906V19.3906H57.8363L57.8021 19.8538L58.3008 19.8906ZM89.2773 19.8906H89.7773V19.3906H89.2773V19.8906ZM89.2773 30.125V30.625H89.7773V30.125H89.2773ZM68.8867 30.125V29.625H68.4315L68.3889 30.0782L68.8867 30.125ZM67.832 41.3359L67.3342 41.2891L67.2709 41.9619L67.9329 41.8257L67.832 41.3359ZM70.7227 40.7891L70.6365 40.2965L70.7227 40.7891ZM75.0977 40.0156C74.7112 40.0156 74.3418 40.0195 73.9894 40.0272L74.0112 41.0269C74.3556 41.0194 74.7178 41.0156 75.0977 41.0156V40.0156ZM71.7618 40.1483C71.3495 40.1882 70.9741 40.2375 70.6365 40.2965L70.8088 41.2816C71.1163 41.2278 71.4657 41.1816 71.8582 41.1436L71.7618 40.1483ZM70.6365 40.2965C70.3897 40.3397 70.1473 40.3829 69.9092 40.4261L70.0878 41.41C70.3237 41.3672 70.5641 41.3244 70.8088 41.2816L70.6365 40.2965ZM68.4565 40.7003C68.2093 40.7489 67.9675 40.7975 67.7312 40.8462L67.9329 41.8257C68.1662 41.7776 68.4051 41.7296 68.6495 41.6815L68.4565 40.7003ZM68.3298 41.3828L68.5935 38.58L67.5979 38.4864L67.3342 41.2891L68.3298 41.3828ZM69.1208 32.9746L69.3845 30.1718L68.3889 30.0782L68.1252 32.8809L69.1208 32.9746ZM68.8867 30.625H70.5859V29.625H68.8867V30.625ZM73.9844 30.625H77.3828V29.625H73.9844V30.625ZM80.7812 30.625H84.1797V29.625H80.7812V30.625ZM87.5781 30.625H89.2773V29.625H87.5781V30.625ZM89.7773 30.125V27.5664H88.7773V30.125H89.7773ZM89.7773 22.4492V19.8906H88.7773V22.4492H89.7773ZM89.2773 19.3906H87.3413V20.3906H89.2773V19.3906ZM83.4692 19.3906H79.5972V20.3906H83.4692V19.3906ZM75.7251 19.3906H71.853V20.3906H75.7251V19.3906ZM67.981 19.3906H64.1089V20.3906H67.981V19.3906ZM60.2368 19.3906H58.3008V20.3906H60.2368V19.3906ZM57.8021 19.8538L57.6679 21.6727L58.6651 21.7463L58.7994 19.9274L57.8021 19.8538ZM57.3993 25.3104L57.1308 28.9481L58.128 29.0217L58.3966 25.384L57.3993 25.3104ZM56.8622 32.5857L56.5936 36.2234L57.5909 36.2971L57.8595 32.6594L56.8622 32.5857ZM56.3251 39.8611L56.0565 43.4988L57.0538 43.5725L57.3224 39.9348L56.3251 39.8611ZM55.788 47.1365L55.6537 48.9554L56.651 49.029L56.7853 47.2102L55.788 47.1365ZM55.9159 49.4328L57.1171 50.0773L57.5899 49.1961L56.3888 48.5516L55.9159 49.4328ZM59.5195 51.3664L60.7206 52.0109L61.1934 51.1297L59.9923 50.4852L59.5195 51.3664ZM61.0866 52.0532C61.3888 51.9721 61.7133 51.8908 62.06 51.8092L61.8311 50.8358C61.4755 50.9194 61.1409 51.0033 60.8275 51.0874L61.0866 52.0532ZM64.0348 51.3891C64.3541 51.3271 64.6858 51.2651 65.0301 51.203L64.8527 50.2189C64.5043 50.2817 64.1681 50.3446 63.8442 50.4075L64.0348 51.3891ZM65.0288 51.2032C65.411 51.1354 65.7894 51.0758 66.1638 51.0244L66.0276 50.0337C65.64 50.0869 65.2488 50.1486 64.8541 50.2186L65.0288 51.2032ZM68.4462 50.8096C68.832 50.7907 69.2132 50.7812 69.5898 50.7812V49.7812C69.1965 49.7812 68.799 49.7911 68.3974 49.8107L68.4462 50.8096ZM69.5898 50.7812C70.375 50.7812 71.116 50.8121 71.8132 50.8735L71.9009 49.8774C71.1715 49.8132 70.401 49.7812 69.5898 49.7812V50.7812ZM76.0726 51.834C76.778 52.1301 77.3899 52.4863 77.9123 52.8998L78.533 52.1158C77.9312 51.6394 77.2388 51.239 76.4596 50.9119L76.0726 51.834ZM77.9123 52.8998C78.3679 53.2605 78.7619 53.6603 79.096 54.099L79.8916 53.4931C79.5047 52.9851 79.0513 52.5261 78.533 52.1158L77.9123 52.8998ZM80.3958 57.1922C80.4882 57.7298 80.5352 58.3034 80.5352 58.9141H81.5352C81.5352 58.2524 81.4843 57.6216 81.3813 57.0227L80.3958 57.1922ZM80.5352 58.9141C80.5352 59.3652 80.5143 59.7968 80.473 60.2089L81.468 60.3087C81.5129 59.8609 81.5352 59.3959 81.5352 58.9141H80.5352ZM79.8928 62.6861C79.7325 63.0857 79.5428 63.4576 79.3239 63.8024L80.1683 64.3382C80.4214 63.9393 80.6388 63.5125 80.8209 63.0584L79.8928 62.6861ZM79.3226 63.8046C79.1223 64.1238 78.8971 64.4215 78.6471 64.6981L79.3889 65.3687C79.6784 65.0485 79.9386 64.7042 80.1696 64.3361L79.3226 63.8046ZM76.8834 66.0862C76.5621 66.2657 76.218 66.4286 75.8507 66.5743L76.2196 67.5038C76.6252 67.3428 77.0092 67.1614 77.3712 66.9591L76.8834 66.0862ZM75.8572 66.5718C75.4178 66.7392 74.9477 66.884 74.4463 67.0056L74.6821 67.9774C75.2209 67.8467 75.7314 67.6898 76.2132 67.5063L75.8572 66.5718ZM71.4886 67.4314C71.0052 67.4615 70.5025 67.4766 69.9805 67.4766V68.4766C70.5217 68.4766 71.0452 68.4609 71.5507 68.4294L71.4886 67.4314ZM69.9805 67.4766C69.3439 67.4766 68.6949 67.4523 68.0335 67.4037L67.9602 68.401C68.6451 68.4513 69.3185 68.4766 69.9805 68.4766V67.4766ZM64.1631 66.869C63.5355 66.7443 62.8983 66.6003 62.2512 66.4371L62.0066 67.4067C62.6694 67.5739 63.3233 67.7217 63.9682 67.8498L64.1631 66.869ZM62.2566 66.4385C61.6334 66.2738 61.0309 66.1013 60.449 65.9209L60.1529 66.8761C60.749 67.0609 61.3651 67.2373 62.0012 67.4053L62.2566 66.4385ZM56.9337 64.6281C56.3434 64.3708 55.783 64.1024 55.2524 63.8232L54.7867 64.7081C55.3403 64.9995 55.9229 65.2784 56.5341 65.5448L56.9337 64.6281ZM54.5195 64.2656V66.873H55.5195V64.2656H54.5195ZM54.5195 72.0879V74.6953H55.5195V72.0879H54.5195ZM54.7867 75.1378C55.329 75.4232 55.8944 75.6882 56.4826 75.9329L56.8667 75.0096C56.3051 74.776 55.767 74.5237 55.2524 74.2529L54.7867 75.1378ZM60.0254 77.0943C60.6133 77.2419 61.2186 77.3743 61.8412 77.4914L62.026 76.5086C61.4222 76.395 60.8365 76.2669 60.2689 76.1244L60.0254 77.0943ZM61.8374 77.4907C62.5356 77.6276 63.245 77.7466 63.9657 77.8479L64.1049 76.8577C63.4016 76.7588 62.7099 76.6427 62.0298 76.5093L61.8374 77.4907ZM68.2578 78.2356C68.9656 78.266 69.6831 78.2812 70.4102 78.2812V77.2812C69.697 77.2812 68.9939 77.2663 68.3007 77.2365L68.2578 78.2356ZM70.4102 78.2812C70.9636 78.2812 71.5073 78.2717 72.0414 78.2526L72.0057 77.2533C71.484 77.2719 70.9521 77.2812 70.4102 77.2812V78.2812ZM75.2991 78.0032C76.4262 77.867 77.503 77.6806 78.5291 77.4435L78.304 76.4691C77.3152 76.6976 76.2737 76.8782 75.1791 77.0104L75.2991 78.0032ZM81.6811 76.4957C82.2047 76.2974 82.7117 76.0823 83.202 75.8504L82.7745 74.9464C82.309 75.1665 81.8265 75.3713 81.3268 75.5606L81.6811 76.4957ZM83.2007 75.8511C84.0266 75.4635 84.8051 75.035 85.5355 74.5653L84.9946 73.7242C84.3034 74.1687 83.564 74.576 82.7759 74.9458L83.2007 75.8511ZM89.527 71.0223C90.0888 70.3311 90.5931 69.5937 91.0398 68.8102L90.1711 68.3148C89.7512 69.0514 89.2778 69.7435 88.751 70.3915L89.527 71.0223ZM91.0391 68.8114C91.5087 67.9932 91.9156 67.135 92.2598 66.2371L91.3261 65.8791C90.9999 66.7298 90.6151 67.5412 90.1718 68.3136L91.0391 68.8114ZM93.5425 60.7201C93.6367 59.8086 93.6836 58.868 93.6836 57.8984H92.6836C92.6836 58.8358 92.6382 59.742 92.5478 60.6173L93.5425 60.7201ZM93.6836 57.8984C93.6836 57.0249 93.6425 56.181 93.5601 55.367L92.5652 55.4678C92.644 56.246 92.6836 57.0561 92.6836 57.8984H93.6836ZM92.4026 50.4103C92.084 49.5988 91.7057 48.8312 91.2674 48.108L90.4122 48.6263C90.82 49.2992 91.1733 50.0155 91.4717 50.7757L92.4026 50.4103ZM91.2674 48.108C90.8679 47.4488 90.4306 46.8283 89.9555 46.2469L89.1811 46.8796C89.6258 47.4238 90.0363 48.0059 90.4122 48.6263L91.2674 48.108ZM86.5882 43.1886C85.9656 42.772 85.3071 42.3952 84.613 42.0581L84.1761 42.9576C84.8303 43.2753 85.4488 43.6294 86.0321 44.0197L86.5882 43.1886ZM84.6147 42.0589C83.8827 41.6999 83.1234 41.3884 82.3371 41.1242L82.0185 42.0721C82.764 42.3226 83.4826 42.6175 84.1744 42.9567L84.6147 42.0589ZM77.5394 40.1278C76.7463 40.0529 75.9324 40.0156 75.0977 40.0156V41.0156C75.9026 41.0156 76.6852 41.0516 77.4455 41.1234L77.5394 40.1278ZM84.3945 42.5078L83.9542 43.4057L83.9576 43.4073L84.3945 42.5078ZM90.6055 68.5625L89.7382 68.0647L89.7368 68.0672L90.6055 68.5625ZM82.9883 75.3984L82.5635 74.4931L82.5608 74.4944L82.9883 75.3984ZM61.9336 77L62.126 76.0187L62.1185 76.0172L61.9336 77ZM55.0195 74.6953H54.0195V75.299L54.5538 75.5802L55.0195 74.6953ZM55.0195 64.2656L55.4853 63.3807L54.0195 62.6093V64.2656H55.0195ZM62.1289 66.9219L61.8735 67.8888L61.8842 67.8915L62.1289 66.9219ZM76.0352 67.0391L76.3912 67.9736L76.404 67.9686L76.0352 67.0391ZM79.7461 64.0703L78.9018 63.5345L78.899 63.5388L79.7461 64.0703ZM64.9414 50.7109L64.7667 49.7263L64.7639 49.7268L64.9414 50.7109ZM60.957 51.5703L60.4842 52.4515L60.8334 52.6388L61.2162 52.5362L60.957 51.5703ZM56.1523 48.9922L55.1551 48.9186L55.1072 49.5663L55.6795 49.8733L56.1523 48.9922ZM58.3008 19.8906V18.8906H57.3719L57.3035 19.817L58.3008 19.8906ZM89.2773 19.8906H90.2773V18.8906H89.2773V19.8906ZM89.2773 30.125V31.125H90.2773V30.125H89.2773ZM68.8867 30.125V29.125H67.9764L67.8911 30.0313L68.8867 30.125ZM67.832 41.3359L66.8364 41.2423L66.7098 42.588L68.0337 42.3154L67.832 41.3359ZM70.7227 40.7891L70.5503 39.804L70.7227 40.7891ZM75.0977 39.5156C74.7079 39.5156 74.3348 39.5195 73.9785 39.5273L74.0222 41.5268C74.3626 41.5194 74.7211 41.5156 75.0977 41.5156V39.5156ZM71.7136 39.6506C71.2914 39.6915 70.903 39.7423 70.5503 39.804L70.895 41.7741C71.1873 41.7229 71.5238 41.6783 71.9064 41.6413L71.7136 39.6506ZM70.5503 39.804C70.3026 39.8474 70.0591 39.8907 69.82 39.9341L70.177 41.902C70.4119 41.8594 70.6513 41.8168 70.895 41.7741L70.5503 39.804ZM68.36 40.2097C68.1115 40.2586 67.8682 40.3075 67.6304 40.3565L68.0337 42.3154C68.2655 42.2677 68.5029 42.2199 68.746 42.1721L68.36 40.2097ZM68.8276 41.4296L69.0913 38.6269L67.1001 38.4395L66.8364 41.2423L68.8276 41.4296ZM69.6187 33.0214L69.8823 30.2187L67.8911 30.0313L67.6274 32.8341L69.6187 33.0214ZM68.8867 31.125H70.5859V29.125H68.8867V31.125ZM73.9844 31.125H77.3828V29.125H73.9844V31.125ZM80.7812 31.125H84.1797V29.125H80.7812V31.125ZM87.5781 31.125H89.2773V29.125H87.5781V31.125ZM90.2773 30.125V27.5664H88.2773V30.125H90.2773ZM90.2773 22.4492V19.8906H88.2773V22.4492H90.2773ZM89.2773 18.8906H87.3413V20.8906H89.2773V18.8906ZM83.4692 18.8906H79.5972V20.8906H83.4692V18.8906ZM75.7251 18.8906H71.853V20.8906H75.7251V18.8906ZM67.981 18.8906H64.1089V20.8906H67.981V18.8906ZM60.2368 18.8906H58.3008V20.8906H60.2368V18.8906ZM57.3035 19.817L57.1692 21.6358L59.1638 21.7831L59.2981 19.9643L57.3035 19.817ZM56.9007 25.2735L56.6321 28.9112L58.6267 29.0585L58.8952 25.4208L56.9007 25.2735ZM56.3636 32.5489L56.095 36.1866L58.0896 36.3339L58.3581 32.6962L56.3636 32.5489ZM55.8264 39.8243L55.5579 43.462L57.5525 43.6093L57.821 39.9716L55.8264 39.8243ZM55.2893 47.0997L55.1551 48.9186L57.1496 49.0658L57.2839 47.247L55.2893 47.0997ZM55.6795 49.8733L56.8807 50.5179L57.8263 48.7556L56.6252 48.111L55.6795 49.8733ZM59.283 51.8069L60.4842 52.4515L61.4298 50.6892L60.2287 50.0446L59.283 51.8069ZM61.2162 52.5362C61.5128 52.4566 61.8322 52.3765 62.1745 52.296L61.7166 50.3491C61.3566 50.4338 61.017 50.5189 60.6979 50.6045L61.2162 52.5362ZM64.1301 51.88C64.447 51.8184 64.7766 51.7568 65.1189 51.6951L64.7639 49.7268C64.4135 49.79 64.0751 49.8533 63.7488 49.9167L64.1301 51.88ZM65.1161 51.6956C65.4921 51.6288 65.864 51.5702 66.2318 51.5197L65.9596 49.5383C65.5654 49.5925 65.1677 49.6552 64.7667 49.7263L65.1161 51.6956ZM68.4707 51.309C68.8485 51.2905 69.2216 51.2812 69.5898 51.2812V49.2812C69.1882 49.2812 68.7825 49.2913 68.3729 49.3113L68.4707 51.309ZM69.5898 51.2812C70.362 51.2812 71.0883 51.3116 71.7694 51.3716L71.9448 49.3793C71.1992 49.3137 70.414 49.2812 69.5898 49.2812V51.2812ZM75.8791 52.295C76.5477 52.5757 77.1192 52.9097 77.602 53.2919L78.8434 51.7238C78.2019 51.2159 77.4691 50.7934 76.6532 50.4509L75.8791 52.295ZM77.602 53.2919C78.0263 53.6278 78.3906 53.9979 78.6982 54.4019L80.2893 53.1901C79.8761 52.6475 79.3929 52.1588 78.8434 51.7238L77.602 53.2919ZM79.903 57.2769C79.9902 57.7838 80.0352 58.329 80.0352 58.9141H82.0352C82.0352 58.2269 81.9824 57.5676 81.8741 56.9379L79.903 57.2769ZM80.0352 58.9141C80.0352 59.3499 80.015 59.7647 79.9755 60.1591L81.9655 60.3585C82.0122 59.8929 82.0352 59.4113 82.0352 58.9141H80.0352ZM79.4287 62.5C79.2794 62.8724 79.1034 63.2167 78.9018 63.5345L80.5904 64.6061C80.8607 64.1802 81.092 63.7258 81.285 63.2445L79.4287 62.5ZM78.899 63.5388C78.7141 63.8336 78.5065 64.108 78.2762 64.3628L79.7598 65.704C80.069 65.362 80.3468 64.9944 80.5932 64.6018L78.899 63.5388ZM76.6395 65.6497C76.3385 65.8179 76.0144 65.9714 75.6663 66.1096L76.404 67.9686C76.8288 67.8 77.2328 67.6092 77.6151 67.3956L76.6395 65.6497ZM75.6792 66.1046C75.261 66.2639 74.8111 66.4026 74.3284 66.5197L74.8 68.4633C75.3574 68.3281 75.8882 68.1652 76.3912 67.9736L75.6792 66.1046ZM71.4575 66.9323C70.9852 66.9617 70.4929 66.9766 69.9805 66.9766V68.9766C70.5314 68.9766 71.0652 68.9606 71.5818 68.9285L71.4575 66.9323ZM69.9805 66.9766C69.3566 66.9766 68.7198 66.9528 68.0702 66.9051L67.9236 68.8997C68.6201 68.9509 69.3058 68.9766 69.9805 68.9766V66.9766ZM64.2605 66.3786C63.6416 66.2556 63.0127 66.1135 62.3736 65.9523L61.8842 67.8915C62.555 68.0607 63.2171 68.2104 63.8707 68.3402L64.2605 66.3786ZM62.3843 65.955C61.7675 65.7921 61.1718 65.6215 60.597 65.4434L60.0049 67.3537C60.6081 67.5407 61.231 67.719 61.8735 67.8887L62.3843 65.955ZM57.1335 64.1698C56.5536 63.917 56.0043 63.6539 55.4853 63.3807L54.5538 65.1505C55.119 65.448 55.7126 65.7322 56.3343 66.0032L57.1335 64.1698ZM54.0195 64.2656V66.873H56.0195V64.2656H54.0195ZM54.0195 72.0879V74.6953H56.0195V72.0879H54.0195ZM54.5538 75.5802C55.11 75.873 55.6891 76.1444 56.2906 76.3946L57.0588 74.548C56.5104 74.3199 55.986 74.074 55.4853 73.8104L54.5538 75.5802ZM59.9036 77.5793C60.5017 77.7294 61.1168 77.8639 61.7487 77.9828L62.1185 76.0172C61.524 75.9054 60.9481 75.7794 60.3906 75.6395L59.9036 77.5793ZM61.7412 77.9813C62.4484 78.12 63.1667 78.2406 63.8961 78.3431L64.1745 76.3625C63.4799 76.2649 62.7971 76.1503 62.126 76.0187L61.7412 77.9813ZM68.2363 78.7352C68.9515 78.7659 69.6761 78.7812 70.4102 78.7812V76.7812C69.704 76.7812 69.008 76.7665 68.3222 76.737L68.2363 78.7352ZM70.4102 78.7812C70.9693 78.7812 71.519 78.7716 72.0593 78.7523L71.9878 76.7536C71.4723 76.772 70.9464 76.7812 70.4102 76.7812V78.7812ZM75.3591 78.4996C76.5024 78.3614 77.5968 78.172 78.6417 77.9306L78.1914 75.982C77.2213 76.2061 76.1975 76.3837 75.1191 76.5141L75.3591 78.4996ZM81.8583 76.9633C82.3938 76.7604 82.9131 76.5402 83.4158 76.3025L82.5608 74.4944C82.1077 74.7087 81.6374 74.9083 81.1497 75.093L81.8583 76.9633ZM83.4131 76.3037C84.258 75.9073 85.0559 75.4682 85.8059 74.9859L84.7242 73.3037C84.0525 73.7356 83.3326 74.1323 82.5635 74.4931L83.4131 76.3037ZM89.915 71.3377C90.4943 70.625 91.0141 69.8648 91.4742 69.0578L89.7368 68.0672C89.3302 68.7803 88.8723 69.4497 88.3631 70.0761L89.915 71.3377ZM91.4728 69.0603C91.9555 68.2192 92.3734 67.3376 92.7267 66.4161L90.8593 65.7001C90.5421 66.5272 90.1683 67.3152 89.7382 68.0647L91.4728 69.0603ZM94.0399 60.7715C94.1359 59.8419 94.1836 58.8842 94.1836 57.8984H92.1836C92.1836 58.8197 92.139 59.7087 92.0504 60.5659L94.0399 60.7715ZM94.1836 57.8984C94.1836 57.0092 94.1418 56.1485 94.0575 55.3166L92.0677 55.5182C92.1447 56.2785 92.1836 57.0718 92.1836 57.8984H94.1836ZM92.868 50.2275C92.5394 49.3905 92.1486 48.5973 91.695 47.8489L89.9846 48.8855C90.3772 49.5332 90.7179 50.2238 91.0063 50.9584L92.868 50.2275ZM91.695 47.8489C91.2837 47.1702 90.833 46.5306 90.3426 45.9305L88.794 47.196C89.2235 47.7216 89.6204 48.2845 89.9846 48.8855L91.695 47.8489ZM86.8662 42.773C86.224 42.3433 85.5455 41.9551 84.8314 41.6083L83.9576 43.4073C84.5919 43.7154 85.1905 44.0581 85.754 44.4352L86.8662 42.773ZM84.8348 41.61C84.0827 41.2411 83.3031 40.9213 82.4963 40.6502L81.8593 42.546C82.5843 42.7897 83.2825 43.0763 83.9542 43.4057L84.8348 41.61ZM77.5864 39.63C76.7769 39.5536 75.9473 39.5156 75.0977 39.5156V41.5156C75.8877 41.5156 76.6546 41.5509 77.3985 41.6212L77.5864 39.63Z" fill="#55246A" mask="url(#path-1-outside-1_633_81145)"/>
<path d="M43.457 71H3.53516V62.6016L17.8711 48.1094C20.7617 45.1406 23.0794 42.6667 24.8242 40.6875C26.5951 38.6823 27.8711 36.8594 28.6523 35.2188C29.4596 33.5781 29.8633 31.8203 29.8633 29.9453C29.8633 27.6797 29.2253 25.987 27.9492 24.8672C26.6992 23.7214 25.0195 23.1484 22.9102 23.1484C20.6966 23.1484 18.5482 23.6562 16.4648 24.6719C14.3815 25.6875 12.207 27.1328 9.94141 29.0078L3.37891 21.2344C5.01953 19.8281 6.7513 18.5 8.57422 17.25C10.4232 16 12.5586 14.9974 14.9805 14.2422C17.4284 13.4609 20.3581 13.0703 23.7695 13.0703C27.5195 13.0703 30.7357 13.7474 33.418 15.1016C36.1263 16.4557 38.2096 18.3047 39.668 20.6484C41.1263 22.9661 41.8555 25.5964 41.8555 28.5391C41.8555 31.6901 41.2305 34.5677 39.9805 37.1719C38.7305 39.776 36.9076 42.3542 34.5117 44.9062C32.1419 47.4583 29.2773 50.2839 25.918 53.3828L18.5742 60.2969V60.8438H43.457V71ZM70.0977 34.5156C73.5872 34.5156 76.6862 35.1797 79.3945 36.5078C82.1289 37.8359 84.2773 39.7891 85.8398 42.3672C87.4023 44.9453 88.1836 48.1224 88.1836 51.8984C88.1836 56.013 87.3242 59.5677 85.6055 62.5625C83.9128 65.5312 81.3737 67.8099 77.9883 69.3984C74.6289 70.987 70.4362 71.7812 65.4102 71.7812C62.4154 71.7812 59.5898 71.5208 56.9336 71C54.3034 70.5052 51.9987 69.737 50.0195 68.6953V58.2656C51.9987 59.3073 54.3685 60.1927 57.1289 60.9219C59.9154 61.625 62.5326 61.9766 64.9805 61.9766C67.3763 61.9766 69.3945 61.6641 71.0352 61.0391C72.6758 60.388 73.9128 59.3984 74.7461 58.0703C75.6055 56.7161 76.0352 54.9974 76.0352 52.9141C76.0352 50.1276 75.0977 47.9922 73.2227 46.5078C71.3477 45.0234 68.4701 44.2812 64.5898 44.2812C63.1055 44.2812 61.556 44.4245 59.9414 44.7109C58.3529 44.9974 57.0247 45.2839 55.957 45.5703L51.1523 42.9922L53.3008 13.8906H84.2773V24.125H63.8867L62.832 35.3359C63.7174 35.1536 64.681 34.9714 65.7227 34.7891C66.7643 34.6068 68.2227 34.5156 70.0977 34.5156Z" fill="white"/>
</svg>
