<svg width="196" height="56" viewBox="0 0 196 56" fill="none" xmlns="http://www.w3.org/2000/svg">
<path d="M18.0278 4.12409L62.9801 28.8381L49.1666 51.9201L4.21428 27.2061L18.0278 4.12409ZM17.2083 0.0439453C16.9742 0.0439453 16.623 0.160521 16.5059 0.393672L0.117063 27.5558C0 27.789 0 28.0221 0 28.2553C0.117063 28.4884 0.234127 28.605 0.35119 28.7216L49.5178 55.8837C49.6349 56.0003 49.7519 56.0003 49.869 56.0003C50.1031 56.0003 50.4543 55.8837 50.5714 55.6505L66.9603 28.4884C67.0773 28.1387 67.0773 27.6724 66.6091 27.3226L17.4424 0.160521C17.4424 0.0439453 17.3254 0.0439453 17.2083 0.0439453Z" fill="url(#paint0_linear_2158_16120)"/>
<path d="M17.2084 56C16.9742 56 16.623 55.8835 16.506 55.6503L0.117094 28.4882C3.10205e-05 28.255 3.10205e-05 27.9053 0.117094 27.6721C0.234158 27.439 0.585348 27.2058 0.819475 27.2058H16.3889V0.976321C16.3889 0.510019 16.7401 0.0437159 17.2084 0.0437159C17.6766 0.0437159 18.0278 0.510019 18.0278 0.976321V27.2058H49.1667V0.859746C49.1667 0.510019 49.4008 0.160292 49.752 0.0437159C50.1032 -0.0728598 50.4544 0.0437159 50.6885 0.393443C50.6885 0.510019 55.0198 7.15483 59.1171 13.9162C67.1944 27.3224 67.1944 27.6721 67.1944 28.0219C67.1944 28.4882 66.8432 28.8379 66.2579 28.8379H50.9226V55.0674C50.9226 55.5337 50.5714 56 50.1032 56C49.6349 56 49.2837 55.5337 49.2837 55.0674V28.8379H18.0278V55.184C18.0278 55.5337 17.7937 55.8835 17.4425 56C17.3254 56 17.3254 56 17.2084 56ZM2.3413 28.8379L16.3889 52.153V28.8379H2.3413ZM50.9226 27.2058H65.2044C63.2143 23.7086 56.1905 12.5173 50.9226 3.77414V27.2058Z" fill="url(#paint1_linear_2158_16120)"/>
<path fill-rule="evenodd" clip-rule="evenodd" d="M105.557 20.0664C100.988 20.0664 97.3557 23.5664 97.3557 28.1164C97.3557 32.6664 100.87 36.1664 105.557 36.1664C110.126 36.1664 113.64 32.6664 113.64 28.1164C113.64 23.5664 110.126 20.0664 105.557 20.0664ZM105.557 33.5997C102.511 33.5997 100.05 31.1497 100.05 28.1164C100.05 25.0831 102.393 22.6331 105.557 22.6331C108.603 22.6331 110.946 25.0831 110.946 28.1164C110.946 31.1497 108.603 33.5997 105.557 33.5997Z" fill="#55246A"/>
<path d="M91.7323 26.2497H83.4143V20.4164H80.7197V35.8164H83.4143V28.8164H91.7323V35.8164H94.4268V20.4164H91.7323V26.2497Z" fill="#55246A"/>
<path fill-rule="evenodd" clip-rule="evenodd" d="M160.971 28.1164C160.971 23.5664 164.603 20.0664 169.172 20.0664C173.741 20.0664 177.255 23.5664 177.372 28.1164C177.372 32.6664 173.741 36.1664 169.172 36.1664C164.485 36.1664 160.971 32.6664 160.971 28.1164ZM163.783 28.1164C163.783 31.1497 166.126 33.5997 169.172 33.5997C172.218 33.5997 174.561 31.1497 174.561 28.1164C174.561 25.0831 172.218 22.6331 169.172 22.6331C166.126 22.6331 163.783 25.0831 163.783 28.1164Z" fill="#55246A"/>
<path d="M160.736 20.4164H157.339L151.364 27.0664V20.4164H148.67V35.8164H151.364V28.6997L157.456 35.8164H161.088L154.176 27.7664L160.736 20.4164Z" fill="#55246A"/>
<path fill-rule="evenodd" clip-rule="evenodd" d="M127.347 24.3831C127.347 25.6664 126.762 26.8331 125.707 27.5331C127.113 28.2331 127.933 29.6331 127.816 31.3831C127.816 33.9497 125.941 35.8164 122.895 35.8164H116.452V20.4164H123.013C125.707 20.4164 127.347 22.0497 127.347 24.3831ZM122.778 22.8664H119.146V26.2497H122.778C124.067 26.2497 124.77 25.5497 124.77 24.4997C124.77 23.5664 124.067 22.8664 122.778 22.8664ZM119.146 33.3664H122.661C124.301 33.3664 125.239 32.4331 125.239 31.1497C125.239 29.7497 124.301 28.8164 122.661 28.8164H119.146V33.3664Z" fill="#55246A"/>
<path d="M193.305 20.4164L188.151 27.7664L182.996 20.4164H180.301V35.8164H182.996V24.7331L188.151 32.1997L193.305 24.7331V35.8164H196V20.4164H193.305Z" fill="#55246A"/>
<path d="M133.674 20.2998V31.7331L142.226 20.4164H144.921V35.6998H142.226V24.2664L133.674 35.6998H130.979V20.2998H133.674Z" fill="#55246A"/>
<defs>
<linearGradient id="paint0_linear_2158_16120" x1="33.617" y1="56.0003" x2="33.617" y2="0.0439453" gradientUnits="userSpaceOnUse">
<stop offset="0.2646" stop-color="#664E95"/>
<stop offset="1" stop-color="#55246A"/>
</linearGradient>
<linearGradient id="paint1_linear_2158_16120" x1="48.9275" y1="56.6792" x2="18.5233" y2="-0.739186" gradientUnits="userSpaceOnUse">
<stop offset="0.18" stop-color="#664E95"/>
<stop offset="0.28" stop-color="#55246A"/>
</linearGradient>
</defs>
</svg>
