<svg width="64" height="64" viewBox="0 0 64 64" fill="none" xmlns="http://www.w3.org/2000/svg">
<path fill-rule="evenodd" clip-rule="evenodd" d="M21.6508 10.2408C21.2315 9.88134 20.6002 9.9299 20.2408 10.3492C19.8814 10.7686 19.9299 11.3999 20.3493 11.7593L27.0675 17.5178L19.8098 24.9969L19.8044 25.0025C18.7319 26.1252 18.7319 27.7644 19.8044 28.8871C19.8796 28.9658 19.9672 29.0318 20.0637 29.0823L20.2055 29.1565C22.7318 31.6664 26.8005 31.5943 29.3854 29.0573C29.3931 29.0497 29.4007 29.0421 29.4081 29.0343L31.545 26.7973C33.9164 28.7047 37.1082 29.0067 39.7394 27.7033L49.3705 38.3635C50.2626 39.355 50.1379 40.6808 49.4245 41.4137C48.3668 42.349 47.0457 42.2406 46.3756 41.5706L43.0418 38.2373C42.6512 37.8468 42.018 37.8469 41.6275 38.2374C41.237 38.628 41.2371 39.2611 41.6277 39.6516L44.9615 42.985C45.6447 43.668 45.7141 45.0948 44.975 45.9948C43.9154 46.7934 42.5991 46.6836 41.9305 46.0151L38.5966 42.6817C38.2061 42.2913 37.5729 42.2913 37.1824 42.6819C36.7919 43.0724 36.792 43.7056 37.1825 44.0961L40.5164 47.4294C41.1995 48.1125 41.2689 49.5392 40.5299 50.4393C39.4809 51.2298 38.1805 51.1302 37.5058 50.4796L35.5294 48.2269C35.3198 47.8436 35.0401 47.4925 34.6904 47.195C33.9537 46.3945 32.9157 46.0168 31.9189 46.0006C32.1709 44.6607 31.8358 43.2073 30.9135 42.1696C30.8874 42.1403 30.8597 42.1126 30.8304 42.0866C30.166 41.496 29.3643 41.1506 28.5304 41.0396C29.3188 39.5094 29.1018 37.5874 27.976 36.1802C27.9407 36.1361 27.9018 36.095 27.8595 36.0575C26.2991 34.6705 23.6864 34.6129 22.2005 36.0927L21.997 36.2908C22.0401 35.1472 21.6307 33.9887 20.7689 33.1269C20.7428 33.1008 20.7153 33.0762 20.6865 33.0531C19.0124 31.7138 16.5475 31.5913 15 33.0368V29C15 28.6914 14.8576 28.4001 14.614 28.2107L5.61399 21.2107C5.17804 20.8716 4.54976 20.9501 4.21069 21.3861C3.87162 21.822 3.95016 22.4503 4.38611 22.7894L13 29.4891V35.0337L12.1269 35.9068C12.1008 35.9329 12.0762 35.9604 12.0532 35.9892C10.6866 37.6974 10.5868 40.2288 12.1269 41.7689C12.1393 41.7813 12.152 41.7934 12.1651 41.8051C13.2932 42.8204 14.7956 43.2192 16.1331 42.8836C15.7943 44.2532 16.1025 45.7851 17.0575 46.8595C17.0835 46.8888 17.1113 46.9165 17.1406 46.9426C18.1848 47.8707 19.661 48.1879 21.0004 47.894C21.0139 48.9276 21.4012 50.008 22.2303 50.7698C23.0059 51.6139 24.1117 52 25.1622 52C25.7997 52 26.4576 51.8578 27.0497 51.5574C27.1754 52.3758 27.5434 53.181 28.1913 53.7854C28.9455 54.6176 30.0227 55 31.0479 55C32.0813 55 33.1675 54.6114 33.9225 53.7654L34.6716 53.0054C35.1661 52.5905 35.5225 52.0691 35.7409 51.5005L36.0266 51.8262C36.0343 51.835 36.0422 51.8437 36.0503 51.8523C36.0572 51.8596 36.0641 51.8668 36.0712 51.8738C37.6106 53.413 40.1407 53.3132 41.8481 51.9476C41.8922 51.9123 41.9332 51.8733 41.9708 51.8311C42.7617 50.9414 43.1314 49.7189 43.0444 48.5465C44.1755 48.6196 45.3578 48.2513 46.2932 47.5032C46.3373 47.4679 46.3784 47.4289 46.4159 47.3867C47.2097 46.4938 47.5793 45.2656 47.4886 44.0894C48.6353 44.1481 49.8363 43.7338 50.7826 42.8823C50.7957 42.8705 50.8084 42.8585 50.8208 42.8461C52.2725 41.3946 52.4484 38.9448 50.9868 37.176L52.924 29.4273L59.6444 23.7647C60.0667 23.4089 60.1206 22.778 59.7648 22.3557C59.4089 21.9333 58.778 21.8794 58.3557 22.2353L51.388 28.1063C51.2272 28.2417 51.1132 28.4245 51.0622 28.6285L49.3734 35.3834L41.4174 26.5771C41.592 26.4238 41.7616 26.2613 41.9257 26.0895L45.7232 22.1141C46.1046 21.7147 46.0901 21.0817 45.6908 20.7002C45.2914 20.3187 44.6584 20.3332 44.2769 20.7326L40.4795 24.7081C38.2011 27.0932 34.4994 27.0932 32.221 24.7081C32.0324 24.5105 31.7711 24.3988 31.4979 24.3988C31.2248 24.3988 30.9635 24.5105 30.7748 24.7081L27.9735 27.6407C26.0989 29.4694 23.2321 29.4328 21.5319 27.6528C21.4566 27.5741 21.369 27.5081 21.2725 27.4576L21.1607 27.3991C20.9205 27.0733 20.9497 26.7008 21.2483 26.3864L29.9519 17.4172H38.1083C38.3599 17.4172 38.6021 17.3224 38.7869 17.1518L43.5689 12.7346C43.9746 12.3598 43.9997 11.7272 43.6249 11.3215C43.2502 10.9158 42.6175 10.8907 42.2118 11.2654L37.7172 15.4172H29.5289C29.2584 15.4172 28.9996 15.5267 28.8112 15.7208L28.4629 16.0797L21.6508 10.2408ZM14.8718 35.9904C14.7819 36.1497 14.6497 36.2819 14.4904 36.3717L13.5831 37.2791C12.7672 38.3351 12.8641 39.6563 13.5237 40.337C14.5779 41.2692 15.8634 41.1524 16.5345 40.3974C16.5532 40.3764 16.5728 40.3562 16.5931 40.3368L19.3629 37.7055C20.2024 36.8569 20.2123 35.4417 19.3925 34.5798C18.3279 33.7604 16.9954 33.8667 16.3211 34.5411L14.8718 35.9904ZM33.2483 48.6595C33.1868 48.5894 33.1368 48.513 33.0983 48.4328C32.782 48.1593 32.3367 48 31.8517 48C31.2871 48 30.7763 48.2158 30.4603 48.5765C30.4474 48.5912 30.4341 48.6055 30.4204 48.6195L29.6166 49.435C29.6028 49.449 29.5886 49.4625 29.5741 49.4756C29.2181 49.7967 29 50.322 29 50.9078C29 51.4936 29.2181 52.0189 29.5741 52.3399C29.6032 52.3662 29.6307 52.3941 29.6565 52.4236C29.9725 52.7842 30.4833 53 31.0479 53C31.6125 53 32.1233 52.7842 32.4393 52.4236C32.4522 52.4088 32.4655 52.3945 32.4792 52.3806L33.2831 51.565C33.309 51.5387 33.3364 51.5139 33.3651 51.4906C33.9936 50.9804 34.1555 50.0651 33.8508 49.3462L33.2483 48.6595ZM26.0351 43.806L26.2998 43.5413C27.315 42.7954 28.6263 42.8437 29.4569 43.5427C30.1855 44.4112 30.1811 45.8664 29.4437 46.7278L26.6974 49.3368C26.677 49.3562 26.6574 49.3764 26.6387 49.3974C26.3041 49.7739 25.7617 50 25.1622 50C24.5627 50 24.0204 49.7739 23.6857 49.3974C23.6596 49.3681 23.6319 49.3404 23.6026 49.3144C23.2261 48.9797 23 48.4374 23 47.8379C23 47.2383 23.2261 46.696 23.6026 46.3613C23.6237 46.3426 23.6439 46.3231 23.6633 46.3027L26.0351 43.806ZM24.9791 42.0336L26.4652 40.5474C27.1521 39.7545 27.2032 38.4788 26.4677 37.4985C25.6104 36.7977 24.2548 36.8668 23.6096 37.512L23.6002 37.5214L18.5311 42.457C17.8288 43.2742 17.8231 44.6597 18.5139 45.4862C19.3419 46.1783 20.731 46.1712 21.5476 45.4651L24.6027 42.4099L24.8542 42.1452C24.8855 42.1123 24.919 42.0815 24.9545 42.0531L24.9791 42.0336Z" fill="#76B82A"/>
</svg>
