<svg width="33" height="32" viewBox="0 0 33 32" fill="none" xmlns="http://www.w3.org/2000/svg">
<path fill-rule="evenodd" clip-rule="evenodd" d="M12.1141 11.5485L4.11631 5.16074C4.08643 5.13688 4.05758 5.11174 4.02986 5.08539C3.62418 4.69983 3.03125 3.99017 3.19257 3.0409C3.34899 2.12045 4.11022 1.63684 4.57432 1.40031C5.45164 0.95317 6.32974 0.674165 7.27944 0.666894C8.21485 0.659732 9.10156 0.917105 10.0054 1.34979L19.2975 5.20054C19.3211 5.21033 19.3444 5.22079 19.3674 5.23193L19.4196 5.25714C19.8006 5.44146 20.1105 5.59132 20.3967 5.70333C20.6045 5.56336 20.8421 5.40573 21.0956 5.24188C21.8458 4.75702 22.8279 4.15666 23.5935 3.83146C25.6427 2.96099 27.5298 3.4084 29.1304 3.84186L29.2934 3.88579C29.9497 4.06205 30.5852 4.23276 31.0811 4.57996C31.8557 5.12242 32.3756 5.96897 32.4832 6.91751C32.5249 7.28494 32.4829 7.62308 32.4228 7.92941C32.3668 8.21504 32.2784 8.54932 32.1814 8.91604L32.172 8.95185C31.7615 10.5045 31.2114 12.3281 29.3752 13.6075C28.6964 14.0805 27.6612 14.5944 26.8482 14.9731C26.2742 15.2405 25.7597 15.4639 25.4616 15.5908C25.4427 15.6105 25.4231 15.6297 25.4027 15.6484C25.0493 15.9733 25.0103 16.0922 24.9996 16.1249L24.999 16.1267C24.9879 16.1603 24.9719 16.2248 24.9601 16.368C24.9477 16.5178 24.9436 16.6936 24.9372 16.9673L24.9366 16.9909L24.9365 16.9953L24.745 26.4925L24.7449 26.4969C24.7223 27.4592 24.5391 28.3462 24.0527 29.1376C23.5679 29.9264 22.8628 30.4879 22.0355 30.9456C21.5519 31.2131 20.7928 31.5101 19.9847 31.2056C19.1609 30.8952 18.7886 30.1528 18.6074 29.5892L18.6005 29.5667L15.6185 19.6918L14.6332 20.1021C13.3649 20.6294 13.1516 20.7527 13.0141 20.9086C12.7799 21.1741 12.5807 21.6356 12.4026 22.351C12.3185 22.689 12.2488 23.0387 12.1744 23.4124L12.1713 23.4281C12.0987 23.7929 12.019 24.1929 11.9214 24.5618C11.7473 25.2206 11.2757 25.9128 10.7521 26.407C10.2633 26.8684 9.34402 27.5126 8.22968 27.2882C7.30069 27.1011 6.88551 26.3964 6.72023 25.9127C6.60563 25.5773 6.55011 25.1315 6.5326 24.9908C6.53005 24.9704 6.5283 24.9563 6.5273 24.95L5.84713 20.7201C5.80439 20.4543 5.78123 20.3188 5.75878 20.2247L5.75399 20.2204C5.67691 20.1517 5.56259 20.0623 5.34212 19.893L1.85377 17.2144C1.84684 17.2091 1.83241 17.1987 1.81196 17.1841C1.68524 17.0931 1.32738 16.8364 1.08953 16.5827C0.758543 16.2296 0.282954 15.5053 0.604021 14.5662C0.980045 13.4664 2.06335 13.0314 2.69009 12.8664C3.39135 12.6817 4.22838 12.6421 4.87689 12.8177C5.25436 12.9199 5.65175 13.0524 6.01904 13.1748L6.03647 13.1806C6.41068 13.3054 6.76495 13.4236 7.11642 13.5238C7.85991 13.7359 8.40419 13.8089 8.79001 13.7428C9.01703 13.7038 9.23948 13.5833 10.3443 12.8005L12.1141 11.5485ZM14.38 9.94549L6.34403 3.52719C6.71094 3.3904 7.01727 3.33565 7.29986 3.33348C7.71665 3.33029 8.20387 3.44062 8.88038 3.76774C8.90339 3.77887 8.92673 3.78934 8.95035 3.79912L17.853 7.48852L14.38 9.94549ZM18.0928 18.6612L21.044 28.4341C21.4343 28.1828 21.6484 27.9567 21.7809 27.7412C21.9423 27.4787 22.0631 27.1007 22.0789 26.4365L22.0789 26.4344L22.2705 16.9371L22.2708 16.9211L18.0928 18.6612ZM24.6361 6.28587C25.7685 5.80481 26.8452 5.98572 28.4333 6.41581C29.3692 6.66928 29.4933 6.72359 29.5515 6.76435C29.7203 6.88256 29.8143 7.05274 29.8334 7.21656C29.8336 7.22722 29.8326 7.2807 29.806 7.41625C29.7687 7.60652 29.7034 7.85602 29.5939 8.27024C29.1916 9.79167 28.8285 10.7383 27.8507 11.4196C27.383 11.7454 26.5412 12.1743 25.7221 12.5559C24.9303 12.9247 24.2561 13.2056 24.1807 13.2369L24.1683 13.242L13.6097 17.6397L13.409 17.7229C12.4661 18.1127 11.6135 18.4652 11.0141 19.1447C10.3359 19.9137 10.0145 20.9054 9.81497 21.7066C9.71521 22.1072 9.63478 22.5114 9.56385 22.8678L9.55596 22.9074C9.48017 23.2881 9.41629 23.6042 9.34364 23.8791C9.34364 23.8791 9.3372 23.8997 9.31891 23.9383C9.29857 23.9813 9.26866 24.036 9.2282 24.0986C9.1947 24.1504 9.15705 24.2029 9.11636 24.2544L8.47997 20.2967L8.46476 20.2006C8.40232 19.8034 8.32169 19.2904 8.05232 18.844C7.78675 18.4039 7.3734 18.0886 7.046 17.839L6.96621 17.778L3.8358 15.3742C3.85082 15.3735 3.86574 15.3729 3.88054 15.3725C4.05696 15.3673 4.15889 15.386 4.1798 15.3917C4.4703 15.4703 4.79373 15.5773 5.17544 15.7046L5.21421 15.7175C5.57296 15.8371 5.976 15.9716 6.38499 16.0882C7.20294 16.3215 8.23423 16.5437 9.24082 16.371C10.142 16.2165 10.8843 15.6886 11.7161 15.097L11.886 14.9764L21.1455 8.4258L21.1565 8.41795C21.2229 8.37082 21.814 7.95275 22.5431 7.48147C23.297 6.99423 24.1058 6.51113 24.6361 6.28587Z" fill="#591AAF"/>
</svg>
