<svg width="33" height="32" viewBox="0 0 33 32" fill="none" xmlns="http://www.w3.org/2000/svg">
<path d="M15.8618 0.162806C16.2598 -0.0542687 16.7408 -0.0542686 17.1387 0.162806L31.8054 8.16281C32.4519 8.51542 32.6901 9.32534 32.3374 9.9718C31.9848 10.6183 31.1749 10.8565 30.5285 10.5039L16.5003 2.85212L2.47205 10.5039C1.82559 10.8565 1.01568 10.6183 0.663058 9.9718C0.310441 9.32534 0.548652 8.51542 1.19512 8.16281L15.8618 0.162806Z" fill="#591AAF"/>
<path d="M3.16667 32C2.43029 32 1.83333 31.403 1.83333 30.6667C1.83333 29.9303 2.43029 29.3333 3.16667 29.3333H4.5L4.5 13.3333C4.5 12.597 5.09695 12 5.83333 12C6.56971 12 7.16667 12.597 7.16667 13.3333L7.16667 29.3333H11.1667L11.1667 13.3333C11.1667 12.597 11.7636 12 12.5 12C13.2364 12 13.8333 12.597 13.8333 13.3333L13.8333 29.3333H19.1667V13.3333C19.1667 12.597 19.7636 12 20.5 12C21.2364 12 21.8333 12.597 21.8333 13.3333V29.3333H25.8333V13.3333C25.8333 12.597 26.4303 12 27.1667 12C27.903 12 28.5 12.597 28.5 13.3333V29.3333H29.8333C30.5697 29.3333 31.1667 29.9303 31.1667 30.6667C31.1667 31.403 30.5697 32 29.8333 32H26.5021L26.5 32L26.4979 32L3.16667 32Z" fill="#591AAF"/>
<path d="M16.5 9.33333C17.2364 9.33333 17.8333 8.73638 17.8333 8C17.8333 7.26362 17.2364 6.66667 16.5 6.66667C15.7636 6.66667 15.1667 7.26362 15.1667 8C15.1667 8.73638 15.7636 9.33333 16.5 9.33333Z" fill="#591AAF"/>
</svg>
