<svg width="26" height="26" viewBox="0 0 26 26" fill="none" xmlns="http://www.w3.org/2000/svg">
<path d="M20.4442 1.5358C21.0358 0.830675 22.0871 0.738702 22.7922 1.33037C23.4973 1.92204 23.5893 2.9733 22.9976 3.67843L5.55581 24.4648C4.96414 25.1699 3.91288 25.2619 3.20775 24.6702C2.50263 24.0785 2.41066 23.0273 3.00233 22.3222L20.4442 1.5358Z" fill="#591AAF"/>
<path fill-rule="evenodd" clip-rule="evenodd" d="M25.1855 20.3332C25.1855 23.0131 23.013 25.1856 20.3331 25.1856C17.6531 25.1856 15.4806 23.0131 15.4806 20.3332C15.4806 17.6532 17.6531 15.4807 20.3331 15.4807C23.013 15.4807 25.1855 17.6532 25.1855 20.3332ZM20.3331 22.5388C21.5512 22.5388 22.5387 21.5513 22.5387 20.3332C22.5387 19.115 21.5512 18.1275 20.3331 18.1275C19.1149 18.1275 18.1274 19.115 18.1274 20.3332C18.1274 21.5513 19.1149 22.5388 20.3331 22.5388Z" fill="#591AAF"/>
<path fill-rule="evenodd" clip-rule="evenodd" d="M10.5294 5.66649C10.5294 8.35226 8.35217 10.5295 5.6664 10.5295C2.98062 10.5295 0.803375 8.35226 0.803375 5.66649C0.803375 2.98072 2.98062 0.803467 5.6664 0.803467C8.35217 0.803467 10.5294 2.98072 10.5294 5.66649ZM5.6664 7.87695C6.8872 7.87695 7.87686 6.88729 7.87686 5.66649C7.87686 4.44568 6.8872 3.45602 5.6664 3.45602C4.44559 3.45602 3.45593 4.44568 3.45593 5.66649C3.45593 6.88729 4.44559 7.87695 5.6664 7.87695Z" fill="#591AAF"/>
</svg>
