<svg width="31" height="24" viewBox="0 0 31 24" fill="none" xmlns="http://www.w3.org/2000/svg">
<path fill-rule="evenodd" clip-rule="evenodd" d="M11.5 1.33333C11.5 0.596954 12.097 0 12.8333 0H18.1667C18.9031 0 19.5 0.596954 19.5 1.33333C19.5 2.06971 18.9031 2.66667 18.1667 2.66667H14.1667V9.33333H15.5C17.7091 9.33333 19.5 11.1242 19.5 13.3333V20C19.5 22.2091 17.7091 24 15.5 24H12.8333C12.097 24 11.5 23.403 11.5 22.6667V1.33333ZM14.1667 12V21.3333H15.5C16.2364 21.3333 16.8333 20.7364 16.8333 20V13.3333C16.8333 12.597 16.2364 12 15.5 12H14.1667Z" fill="#591AAF"/>
<path fill-rule="evenodd" clip-rule="evenodd" d="M22.1667 1.33333C22.1667 0.596954 22.7636 0 23.5 0H28.8333C29.5697 0 30.1667 0.596954 30.1667 1.33333V22.6667C30.1667 23.403 29.5697 24 28.8333 24C28.097 24 27.5 23.403 27.5 22.6667V2.66667H24.8333V22.6667C24.8333 23.403 24.2364 24 23.5 24C22.7636 24 22.1667 23.403 22.1667 22.6667V1.33333Z" fill="#591AAF"/>
<path fill-rule="evenodd" clip-rule="evenodd" d="M0.833344 4C0.833344 1.79086 2.6242 0 4.83334 0C7.04248 0 8.83334 1.79086 8.83334 4V6.66667C8.83334 7.40305 8.23639 8 7.50001 8C6.76363 8 6.16668 7.40305 6.16668 6.66667V4C6.16668 3.26362 5.56972 2.66667 4.83334 2.66667C4.09696 2.66667 3.50001 3.26362 3.50001 4V20C3.50001 20.7364 4.09696 21.3333 4.83334 21.3333C5.56972 21.3333 6.16668 20.7364 6.16668 20V17.3333C6.16668 16.597 6.76363 16 7.50001 16C8.23639 16 8.83334 16.597 8.83334 17.3333V20C8.83334 22.2091 7.04248 24 4.83334 24C2.6242 24 0.833344 22.2091 0.833344 20V4Z" fill="#591AAF"/>
</svg>
