<svg width="30" height="30" viewBox="0 0 30 30" fill="none" xmlns="http://www.w3.org/2000/svg">
<path d="M7.34518 13.7122C6.6339 13.5216 5.90278 13.9437 5.71219 14.655C5.5216 15.3663 5.94371 16.0974 6.655 16.288L11.8066 17.6683C12.5179 17.8589 13.249 17.4368 13.4396 16.7255C13.6302 16.0142 13.2081 15.2831 12.4968 15.0925L7.34518 13.7122Z" fill="#591AAF"/>
<path fill-rule="evenodd" clip-rule="evenodd" d="M3.67403 3.75356C4.24579 1.61969 6.43914 0.353364 8.573 0.925131L26.6036 5.75642C28.7375 6.32819 30.0038 8.52154 29.432 10.6554L28.3231 14.7939L29.4837 19.3908C30.0189 21.5108 28.7526 23.6677 26.6406 24.2336L8.54457 29.0824C6.42737 29.6497 4.24794 28.4074 3.65727 26.2966L1.71595 19.3591L1.75062 19.3494C0.672781 18.3745 0.166212 16.8449 0.568198 15.3447L3.67403 3.75356ZM26.9068 20.0799L26.5873 21.272C26.8729 20.9606 27.005 20.5197 26.9068 20.0799ZM4.84087 20.6306L17.3123 23.9724L7.85439 26.5066C7.14865 26.6957 6.42218 26.2816 6.22529 25.578L4.84087 20.6306ZM7.88282 3.50093C7.17153 3.31034 6.44042 3.73245 6.24983 4.44374L3.144 16.0349C2.95341 16.7461 3.37552 17.4773 4.08681 17.6678L22.1174 22.4991C22.8287 22.6897 23.5598 22.2676 23.7504 21.5563L26.8562 9.96522C27.0468 9.25393 26.6247 8.52281 25.9134 8.33222L7.88282 3.50093Z" fill="#591AAF"/>
</svg>
