<svg width="40" height="48" viewBox="0 0 40 48" fill="none" xmlns="http://www.w3.org/2000/svg">
    <g clip-path="url(#clip0_5147_210635)">
        <path d="M0 0H40V40L20 48L0 40V0Z" fill="#55246A"/>
        <path fill-rule="evenodd" clip-rule="evenodd" d="M12 10.25C11.0335 10.25 10.25 11.0335 10.25 12V16C10.25 16.9665 11.0335 17.75 12 17.75H13.25V28C13.25 28.9665 14.0335 29.75 15 29.75H25C25.9665 29.75 26.75 28.9665 26.75 28V17.75H28C28.9665 17.75 29.75 16.9665 29.75 16V12C29.75 11.0335 28.9665 10.25 28 10.25H12ZM26.75 16.25H28C28.1381 16.25 28.25 16.1381 28.25 16V12C28.25 11.8619 28.1381 11.75 28 11.75H12C11.8619 11.75 11.75 11.8619 11.75 12V16C11.75 16.1381 11.8619 16.25 12 16.25H13.25V14.75H13C12.5858 14.75 12.25 14.4142 12.25 14C12.25 13.5858 12.5858 13.25 13 13.25L27 13.25C27.4142 13.25 27.75 13.5858 27.75 14C27.75 14.4142 27.4142 14.75 27 14.75H26.75V16.25ZM25.25 14.75L14.75 14.75V28C14.75 28.1381 14.8619 28.25 15 28.25H25C25.1381 28.25 25.25 28.1381 25.25 28V14.75ZM17.6497 17.4697C17.7903 17.329 17.9811 17.25 18.18 17.25C19.0338 17.25 20.2117 17.3054 21.1984 17.6209C21.6941 17.7794 22.1988 18.0209 22.588 18.4049C22.9967 18.8081 23.25 19.3433 23.25 19.9968C23.25 20.6524 22.9946 21.1854 22.5731 21.5789C22.1755 21.9502 21.6632 22.1681 21.169 22.3041C20.6041 22.4596 19.9742 22.5305 19.3832 22.5626H22.26C22.6742 22.5626 23.01 22.8984 23.01 23.3126C23.01 23.7268 22.6742 24.0626 22.26 24.0626H18.93V25C18.93 25.4142 18.5942 25.75 18.18 25.75C17.7658 25.75 17.43 25.4142 17.43 25V24.0626H16.5C16.0858 24.0626 15.75 23.7268 15.75 23.3126C15.75 22.8984 16.0858 22.5626 16.5 22.5626H17.43V21.8389V18C17.43 17.8011 17.509 17.6103 17.6497 17.4697ZM18.93 21.0797V18.7679C19.5574 18.7995 20.2071 18.8787 20.7416 19.0496C21.1159 19.1693 21.3761 19.3164 21.5345 19.4726C21.6733 19.6096 21.75 19.7662 21.75 19.9968C21.75 20.2254 21.6754 20.3648 21.5494 20.4825C21.3995 20.6224 21.1467 20.7545 20.771 20.8579C20.2285 21.0072 19.5716 21.0612 18.93 21.0797Z" fill="white"/>
    </g>
    <defs>
        <clipPath id="clip0_5147_210635">
            <rect width="40" height="48" fill="white"/>
        </clipPath>
    </defs>
</svg>
