<svg width="24" height="24" viewBox="0 0 24 24" fill="none" xmlns="http://www.w3.org/2000/svg">
<g clip-path="url(#clip0_1_2)">
<path d="M23.6108 10.8701C22.2638 9.14305 20.5191 7.71453 18.5653 6.73907C16.5709 5.7433 14.4253 5.22665 12.1855 5.19955C12.1238 5.19787 11.8761 5.19787 11.8144 5.19955C9.57462 5.22669 7.42897 5.7433 5.43454 6.73907C3.48074 7.71453 1.73611 9.143 0.389109 10.8701C-0.129796 11.5354 -0.129796 12.4646 0.389109 13.1299C1.73606 14.857 3.48074 16.2855 5.43454 17.2609C7.42897 18.2567 9.57458 18.7734 11.8144 18.8004C11.8761 18.8021 12.1238 18.8021 12.1855 18.8004C14.4252 18.7733 16.5709 18.2567 18.5653 17.2609C20.5191 16.2855 22.2638 14.857 23.6108 13.1299C24.1297 12.4646 24.1297 11.5354 23.6108 10.8701ZM5.87071 16.3874C4.04634 15.4765 2.41706 14.1425 1.15898 12.5295C0.915843 12.2177 0.915843 11.7823 1.15898 11.4705C2.41701 9.85751 4.04629 8.52345 5.87071 7.61258C6.38886 7.35392 6.91799 7.13024 7.45691 6.94086C6.07044 8.18717 5.19693 9.99336 5.19693 12C5.19693 14.0067 6.07049 15.813 7.4571 17.0593C6.91817 16.8699 6.38891 16.6461 5.87071 16.3874ZM12 17.8267C8.78708 17.8267 6.17324 15.2128 6.17324 11.9999C6.17324 8.78703 8.78708 6.17324 12 6.17324C15.2129 6.17324 17.8267 8.78708 17.8267 12C17.8267 15.2129 15.2129 17.8267 12 17.8267ZM22.841 12.5294C21.5829 14.1424 19.9537 15.4765 18.1292 16.3874C17.6117 16.6457 17.0829 16.8685 16.5446 17.0576C17.9302 15.8114 18.803 14.0058 18.803 11.9999C18.803 9.99303 17.9293 8.18661 16.5426 6.9403C17.0816 7.12972 17.611 7.35369 18.1293 7.61249C19.9537 8.52336 21.5829 9.85742 22.841 11.4704C23.0841 11.7822 23.0841 12.2177 22.841 12.5294Z" fill="white"/>
<path d="M12 9.50642C10.625 9.50642 9.50647 10.625 9.50647 11.9999C9.50647 13.3749 10.625 14.4934 12 14.4934C13.3749 14.4934 14.4935 13.3749 14.4935 11.9999C14.4935 10.625 13.375 9.50642 12 9.50642ZM12 13.5172C11.1634 13.5172 10.4827 12.8366 10.4827 11.9999C10.4827 11.1633 11.1633 10.4827 12 10.4827C12.8366 10.4827 13.5172 11.1633 13.5172 11.9999C13.5172 12.8366 12.8366 13.5172 12 13.5172Z" fill="white"/>
</g>
<defs>
<clipPath id="clip0_1_2">
<rect width="24" height="24" fill="white"/>
</clipPath>
</defs>
</svg>
