<svg width="196" height="56" viewBox="0 0 196 56" fill="none" xmlns="http://www.w3.org/2000/svg">
<g clip-path="url(#clip0_563_4338)">
<g clip-path="url(#clip1_563_4338)">
<path d="M104.89 19.8818C100.334 19.8818 96.7975 23.3336 96.7975 27.7767C96.7975 32.2386 100.334 35.6911 104.89 35.6911C109.426 35.6911 112.963 32.2384 112.963 27.7767C112.963 23.3336 109.426 19.8818 104.89 19.8818ZM158.253 19.8818C153.697 19.8818 150.16 23.3148 150.16 27.7767C150.16 32.2386 153.697 35.6911 158.253 35.6911C162.79 35.6911 166.327 32.2384 166.327 27.7767C166.327 23.3336 162.79 19.8818 158.253 19.8818ZM80.1118 20.1689V35.424H82.8024V24.364L91.2417 35.424H93.9336V20.1689H91.2417V31.2288L82.8024 20.1689H80.1118ZM113.598 20.1689L119.941 35.424H123.075L129.419 20.1689H126.554L121.537 32.3809L116.521 20.1689H113.598ZM131.399 20.1689V35.424H134.091V20.1689H131.399ZM137.935 20.1689V35.424H140.625V28.365L146.662 35.424H150.2L143.336 27.4213L149.891 20.1689H146.488L140.625 26.697V20.1689H137.935ZM169.191 20.1689V35.424H171.883V24.4786L177.034 31.8193L182.205 24.4207V35.424H184.896V20.1689H182.205L177.034 27.4529L171.883 20.1877V20.1693L169.191 20.1689ZM104.89 22.3612C107.928 22.3612 110.271 24.7439 110.271 27.7767C110.271 30.8273 107.928 33.2119 104.89 33.2119C101.834 33.2119 99.488 30.8273 99.488 27.7767C99.488 24.7439 101.834 22.3612 104.89 22.3612ZM158.253 22.3612C161.29 22.3612 163.635 24.7439 163.635 27.7767C163.635 30.8273 161.29 33.2119 158.253 33.2119C155.197 33.2119 152.852 30.8273 152.852 27.7767C152.852 24.7439 155.197 22.3612 158.253 22.3612Z" fill="#55246A"/>
</g>
<path d="M18.0278 4.12409L62.9801 28.8381L49.1666 51.9201L4.21428 27.2061L18.0278 4.12409ZM17.2083 0.0439453C16.9742 0.0439453 16.623 0.160521 16.5059 0.393672L0.117063 27.5558C0 27.789 0 28.0221 0 28.2553C0.117063 28.4884 0.234127 28.605 0.35119 28.7216L49.5178 55.8837C49.6349 56.0003 49.7519 56.0003 49.869 56.0003C50.1031 56.0003 50.4543 55.8837 50.5714 55.6505L66.9603 28.4884C67.0773 28.1387 67.0773 27.6724 66.6091 27.3226L17.4424 0.160521C17.4424 0.0439453 17.3254 0.0439453 17.2083 0.0439453Z" fill="url(#paint0_linear_563_4338)"/>
<path d="M17.2084 56C16.9742 56 16.623 55.8835 16.506 55.6503L0.117094 28.4882C3.102e-05 28.255 3.102e-05 27.9053 0.117094 27.6721C0.234158 27.439 0.585348 27.2058 0.819475 27.2058H16.3889V0.976321C16.3889 0.510019 16.7401 0.0437159 17.2084 0.0437159C17.6766 0.0437159 18.0278 0.510019 18.0278 0.976321V27.2058H49.1667V0.859745C49.1667 0.510019 49.4008 0.160292 49.752 0.0437159C50.1032 -0.0728598 50.4544 0.0437159 50.6885 0.393443C50.6885 0.510019 55.0198 7.15483 59.1171 13.9162C67.1944 27.3224 67.1944 27.6721 67.1944 28.0219C67.1944 28.4882 66.8432 28.8379 66.2579 28.8379H50.9226V55.0674C50.9226 55.5337 50.5714 56 50.1032 56C49.6349 56 49.2837 55.5337 49.2837 55.0674V28.8379H18.0278V55.184C18.0278 55.5337 17.7937 55.8835 17.4425 56C17.3254 56 17.3254 56 17.2084 56ZM2.3413 28.8379L16.3889 52.153V28.8379H2.3413ZM50.9226 27.2058H65.2044C63.2143 23.7086 56.1905 12.5173 50.9226 3.77414V27.2058Z" fill="url(#paint1_linear_563_4338)"/>
</g>
<defs>
<linearGradient id="paint0_linear_563_4338" x1="33.617" y1="56.0003" x2="33.617" y2="0.0439453" gradientUnits="userSpaceOnUse">
<stop offset="0.2646" stop-color="#664E95"/>
<stop offset="1" stop-color="#55246A"/>
</linearGradient>
<linearGradient id="paint1_linear_563_4338" x1="48.9275" y1="56.6792" x2="18.5233" y2="-0.739186" gradientUnits="userSpaceOnUse">
<stop offset="0.18" stop-color="#664E95"/>
<stop offset="0.28" stop-color="#55246A"/>
</linearGradient>
<clipPath id="clip0_563_4338">
<rect width="196" height="56" fill="white"/>
</clipPath>
<clipPath id="clip1_563_4338">
<rect width="184.893" height="55.3488" fill="white"/>
</clipPath>
</defs>
</svg>
