<svg width="280" height="80" viewBox="0 0 280 80" fill="none" xmlns="http://www.w3.org/2000/svg">
<g clip-path="url(#clip0_3094_718)">
<path d="M211.505 77.1076C211.505 75.4145 212.709 74.2152 214.409 74.2152C216.109 74.2152 217.313 75.4145 217.313 77.1076C217.313 78.7302 216.109 80 214.409 80C212.709 80 211.505 78.7302 211.505 77.1076ZM216.322 77.1076C216.322 75.9789 215.543 75.1323 214.409 75.1323C213.276 75.1323 212.497 75.9789 212.497 77.1076C212.497 78.2364 213.276 79.1535 214.409 79.1535C215.543 79.0829 216.322 78.2364 216.322 77.1076Z" fill="white"/>
<path d="M221.988 74.3563V75.2029H219.297V76.5433H220.572C221.776 76.5433 222.413 77.3193 222.413 78.2364C222.413 79.1535 221.705 79.9295 220.572 79.9295H218.305V74.3563H221.988ZM220.501 79.0829C221.138 79.0829 221.492 78.7302 221.492 78.2364C221.492 77.672 221.138 77.3898 220.501 77.3898H219.368V79.1535H220.501V79.0829Z" fill="white"/>
<path d="M223.122 77.1076C223.122 75.4145 224.326 74.2152 226.026 74.2152C226.876 74.2152 227.513 74.4974 228.151 75.0618L227.655 75.6967C227.23 75.344 226.734 75.1323 226.097 75.1323C224.963 75.1323 224.184 75.9789 224.184 77.1076C224.184 78.2364 224.963 79.1535 226.097 79.1535C226.805 79.1535 227.372 78.8713 227.726 78.3775L228.363 79.0124C227.797 79.6473 227.088 80.0706 226.097 80.0706C224.255 80 223.122 78.7302 223.122 77.1076Z" fill="white"/>
<path d="M228.647 79.1535C229.497 79.0829 229.709 78.5186 229.922 77.0371L230.205 74.3563H233.676V79.9295H232.684V75.2734H230.984L230.771 77.3898C230.559 79.224 229.922 79.9295 228.717 80L228.647 79.1535Z" fill="white"/>
<path d="M239.484 74.3563L237.713 78.1658C237.076 79.5062 236.58 79.9295 235.305 80L235.234 79.1535C235.942 79.1535 236.367 78.9418 236.651 78.5186L234.455 74.4269H235.517L237.146 77.5309L238.492 74.4269H239.484V74.3563Z" fill="white"/>
<path d="M246.638 79.8589H245.505L243.592 77.3898V79.8589H242.6V77.3898L240.688 79.8589H239.555L241.751 77.1076L239.626 74.3563H240.688L242.53 76.8254V74.3563H243.521V76.8254L245.363 74.3563H246.425L244.371 77.0371L246.638 79.8589Z" fill="white"/>
<path d="M252.163 74.2858V79.8589H251.171V76.896C251.171 76.6138 251.171 76.4022 251.171 76.12C250.959 76.3316 250.746 76.6138 250.534 76.8254L247.63 79.9295H247.346V74.3563H248.338V77.3193C248.338 77.6015 248.338 77.8131 248.338 78.0953C248.55 77.8836 248.763 77.6015 248.975 77.3898L251.88 74.2858H252.163Z" fill="white"/>
<path d="M257.617 78.3775C257.617 79.2946 256.909 79.9295 255.846 79.9295H253.438V74.3563H255.634C256.625 74.3563 257.334 74.9207 257.334 75.8378C257.334 76.4022 257.05 76.7549 256.696 77.0371C257.263 77.2487 257.617 77.7425 257.617 78.3775ZM254.5 76.6138H255.634C256.2 76.6138 256.484 76.3316 256.484 75.8378C256.484 75.4145 256.129 75.1323 255.634 75.1323H254.571V76.6138H254.5ZM256.696 78.2364C256.696 77.7426 256.342 77.3898 255.775 77.3898H254.5V79.0829H255.775C256.271 79.0829 256.696 78.8008 256.696 78.2364Z" fill="white"/>
<path d="M263.496 79.8589H262.504L262.079 78.8713H259.459L259.034 79.8589H258.042L260.663 74.2858H260.946L263.496 79.8589ZM260.379 76.8254L259.742 78.1658H261.725L261.088 76.8254C260.946 76.5433 260.875 76.2611 260.734 75.9083C260.592 76.1905 260.521 76.4727 260.379 76.8254Z" fill="white"/>
<path d="M264.275 74.3563H265.267V76.6843H267.958V74.3563H268.95V79.9295H267.958V77.6015H265.267V79.9295H264.275V74.3563Z" fill="white"/>
<path d="M275.042 74.2858V79.8589H274.05V76.896C274.05 76.6138 274.05 76.4022 274.05 76.12C273.838 76.3316 273.625 76.6138 273.413 76.8254L270.508 79.9295H270.225V74.3563H271.217V77.3193C271.217 77.6015 271.217 77.8131 271.217 78.0953C271.429 77.8836 271.642 77.6015 271.854 77.3898L274.758 74.2858H275.042Z" fill="white"/>
<path d="M280 79.0124V79.8589H276.387V74.2858H279.858V75.1323H277.308V76.6138H279.504V77.4604H277.308V79.0124H280Z" fill="white"/>
<path d="M159.089 74.3563V75.2029H156.398V76.5433H157.673C158.877 76.5433 159.514 77.3193 159.514 78.2364C159.514 79.1535 158.806 79.9295 157.673 79.9295H155.406V74.3563H159.089ZM157.602 79.0829C158.239 79.0829 158.593 78.7302 158.593 78.2364C158.593 77.672 158.239 77.3898 157.602 77.3898H156.468V79.1535H157.602V79.0829Z" fill="white"/>
<path d="M165.393 79.8589H164.402L163.977 78.8713H161.356L160.931 79.8589H159.939L162.56 74.2858H162.843L165.393 79.8589ZM162.206 76.8254L161.568 78.1658H163.552L162.914 76.8254C162.773 76.5433 162.702 76.2611 162.56 75.9083C162.489 76.1905 162.348 76.4727 162.206 76.8254Z" fill="white"/>
<path d="M166.102 74.3563H167.093V76.6843H169.785V74.3563H170.777V79.9295H169.785V77.6015H167.093V79.9295H166.102V74.3563Z" fill="white"/>
<path d="M176.302 79.8589H175.168L173.043 77.3898V79.8589H172.122V74.2858H173.114V76.7549L175.097 74.2858H176.16L173.964 77.0371L176.302 79.8589Z" fill="white"/>
<path d="M176.443 77.1076C176.443 75.4145 177.647 74.2152 179.347 74.2152C181.047 74.2152 182.251 75.4145 182.251 77.1076C182.251 78.7302 181.047 80 179.347 80C177.647 80 176.443 78.7302 176.443 77.1076ZM181.26 77.1076C181.26 75.9789 180.481 75.1323 179.347 75.1323C178.214 75.1323 177.435 75.9789 177.435 77.1076C177.435 78.2364 178.214 79.1535 179.347 79.1535C180.481 79.0829 181.26 78.2364 181.26 77.1076Z" fill="white"/>
<path d="M187.422 78.3775C187.422 79.2946 186.714 79.9295 185.651 79.9295H183.243V74.3563H185.439C186.431 74.3563 187.139 74.9207 187.139 75.8378C187.139 76.4022 186.856 76.7549 186.501 77.0371C187.068 77.2487 187.422 77.7425 187.422 78.3775ZM184.235 76.6138H185.368C185.935 76.6138 186.218 76.3316 186.218 75.8378C186.218 75.4145 185.864 75.1323 185.368 75.1323H184.306V76.6138H184.235ZM186.431 78.2364C186.431 77.7426 186.076 77.3898 185.51 77.3898H184.235V79.0829H185.51C186.076 79.0829 186.431 78.8008 186.431 78.2364Z" fill="white"/>
<path d="M188.201 77.1076C188.201 75.4145 189.405 74.2152 191.105 74.2152C191.955 74.2152 192.593 74.4974 193.23 75.0618L192.735 75.6967C192.31 75.344 191.814 75.1323 191.176 75.1323C190.043 75.1323 189.264 75.9789 189.264 77.1076C189.264 78.2364 190.043 79.1535 191.176 79.1535C191.885 79.1535 192.451 78.8713 192.805 78.3775L193.443 79.0124C192.876 79.6473 192.168 80.0706 191.176 80.0706C189.335 80 188.201 78.7302 188.201 77.1076Z" fill="white"/>
<path d="M198.401 79.8589H197.268L195.143 77.3898V79.8589H194.151V74.2858H195.143V76.7549L197.126 74.2858H198.189L195.993 77.0371L198.401 79.8589Z" fill="white"/>
<path d="M198.472 77.1076C198.472 75.4145 199.676 74.2152 201.376 74.2152C203.076 74.2152 204.28 75.4145 204.28 77.1076C204.28 78.7302 203.076 80 201.376 80C199.676 80 198.472 78.7302 198.472 77.1076ZM203.289 77.1076C203.289 75.9789 202.509 75.1323 201.376 75.1323C200.243 75.1323 199.464 75.9789 199.464 77.1076C199.464 78.2364 200.243 79.1535 201.376 79.1535C202.58 79.0829 203.289 78.2364 203.289 77.1076Z" fill="white"/>
<path d="M208.955 79.0124V79.8589H205.343V74.2858H208.814V75.1323H206.264V76.6138H208.459V77.4604H206.264V79.0124H208.955Z" fill="white"/>
<path d="M119.564 74.3563V79.9295H118.573V77.8131C118.148 77.9542 117.723 78.0247 117.298 78.0247C116.094 78.0247 115.314 77.4604 115.314 76.1905V74.3563H116.306V76.12C116.306 76.896 116.731 77.1782 117.439 77.1782C117.864 77.1782 118.289 77.1076 118.644 76.896V74.3563H119.564Z" fill="white"/>
<path d="M125.798 79.8589H124.806L124.381 78.8713H121.76L121.335 79.8589H120.344L122.964 74.2858H123.248L125.798 79.8589ZM122.681 76.8254L122.044 78.1658H124.027L123.389 76.8254C123.248 76.5433 123.177 76.2611 123.035 75.9083C122.894 76.1905 122.823 76.4727 122.681 76.8254Z" fill="white"/>
<path d="M126.01 77.1076C126.01 75.4145 127.214 74.2152 128.914 74.2152C129.764 74.2152 130.402 74.4974 131.039 75.0618L130.543 75.6967C130.118 75.344 129.623 75.1323 128.985 75.1323C127.852 75.1323 127.073 75.9789 127.073 77.1076C127.073 78.2364 127.852 79.1535 128.985 79.1535C129.693 79.1535 130.26 78.8713 130.614 78.3775L131.252 79.0124C130.685 79.6473 129.977 80.0706 128.985 80.0706C127.143 80 126.01 78.7302 126.01 77.1076Z" fill="white"/>
<path d="M135.572 75.2029H134.014V79.8589H133.023V75.2029H131.464V74.2858H135.572V75.2029Z" fill="white"/>
<path d="M136.422 74.3563H137.414V76.6843H140.106V74.3563H141.097V79.9295H140.106V77.6015H137.414V79.9295H136.422V74.3563Z" fill="white"/>
<path d="M142.16 77.1076C142.16 75.4145 143.364 74.2152 145.064 74.2152C146.764 74.2152 147.968 75.4145 147.968 77.1076C147.968 78.7302 146.764 80 145.064 80C143.364 80 142.16 78.7302 142.16 77.1076ZM146.976 77.1076C146.976 75.9789 146.197 75.1323 145.064 75.1323C143.931 75.1323 143.152 75.9789 143.152 77.1076C143.152 78.2364 143.931 79.1535 145.064 79.1535C146.197 79.0829 146.976 78.2364 146.976 77.1076Z" fill="white"/>
<path d="M152.572 79.0124V79.8589H148.96V74.2858H152.431V75.1323H149.881V76.6138H152.076V77.4604H149.881V79.0124H152.572Z" fill="white"/>
<path d="M131.039 37.531H119.21V29.1359H115.314V51.2171H119.21V41.1289H131.039V51.2171H134.935V29.1359H131.039V37.531Z" fill="white"/>
<path d="M150.66 28.7126C144.072 28.7126 139.043 33.7215 139.043 40.1412C139.043 46.561 144.143 51.5698 150.66 51.5698C157.176 51.5698 162.276 46.561 162.276 40.1412C162.347 33.7215 157.247 28.7126 150.66 28.7126ZM150.66 47.9719C146.268 47.9719 142.868 44.5151 142.868 40.1412C142.868 35.7673 146.268 32.3105 150.66 32.3105C155.051 32.3105 158.38 35.7673 158.38 40.1412C158.451 44.5857 155.051 47.9719 150.66 47.9719Z" fill="white"/>
<path d="M241.608 28.7126C235.021 28.7126 229.992 33.6509 229.992 40.1412C229.992 46.6315 235.092 51.5698 241.608 51.5698C248.125 51.5698 253.225 46.561 253.225 40.1412C253.225 33.7215 248.125 28.7126 241.608 28.7126ZM241.608 47.9719C237.217 47.9719 233.817 44.5151 233.817 40.1412C233.817 35.7673 237.217 32.3105 241.608 32.3105C246 32.3105 249.329 35.7673 249.329 40.1412C249.329 44.5857 246 47.9719 241.608 47.9719Z" fill="white"/>
<path d="M229.567 29.1359H224.679L216.25 38.5892V29.1359H212.355V51.2171H216.25V40.9878L224.963 51.2171H229.992L220.146 39.6474L229.567 29.1359Z" fill="white"/>
<path d="M179.63 39.2947C181.118 38.307 181.968 36.6844 181.968 34.7091C181.968 31.464 179.63 29.1359 175.734 29.1359H166.314V51.2171H175.664C179.984 51.2171 182.676 48.5363 182.676 44.7973C182.676 42.3282 181.543 40.4234 179.63 39.2947ZM170.139 32.7338H175.309C177.222 32.7338 178.214 33.7215 178.214 35.1324C178.214 36.6139 177.222 37.6015 175.309 37.6015H170.139V32.7338ZM175.168 47.6192H170.139V41.1289H175.168C177.576 41.1289 178.851 42.3987 178.851 44.374C178.851 46.2788 177.505 47.6192 175.168 47.6192Z" fill="white"/>
<path d="M276.104 29.1359L268.666 39.6474L261.229 29.2065V29.1359H257.333V51.2171H261.229V35.344L268.666 45.9966L276.104 35.2735V51.2171H279.999V29.1359H276.104Z" fill="white"/>
<path d="M190.822 45.4322V29.1359H186.997V51.2171H190.822L203.005 34.9208V51.2171H206.83V29.1359H203.005L190.822 45.4322Z" fill="white"/>
<path d="M24.6495 80C24.2245 80 23.8703 79.7884 23.6578 79.4356L0.212351 40.6349C-0.0001457 40.2822 -0.0001457 39.7884 0.212351 39.4356C0.424848 39.0829 0.849842 38.8007 1.27484 38.8007H23.5162V1.26984C23.5162 0.634921 24.0828 0 24.7203 0C25.3578 0 25.9245 0.634921 25.9245 1.26984V38.8713H70.478V1.19929C70.478 0.634921 70.8321 0.21164 71.328 0.0705467C71.8238 -0.0705467 72.3904 0.141093 72.6738 0.564374C72.7446 0.634921 78.907 10.2293 84.6444 19.8236C96.1901 39.0829 96.1901 39.5062 96.1901 40.0705C96.1901 40.7055 95.6234 41.2698 94.9151 41.2698H72.8154V78.7302C72.8154 79.3651 72.3196 80.0705 71.6821 80.0705C71.0446 80.0705 70.478 79.4356 70.478 78.7302V41.2698H25.7828V78.8713C25.7828 79.4356 25.4286 79.8589 24.9328 80C24.862 80 24.7203 80 24.6495 80ZM3.25814 41.1993L23.3745 74.4974V41.1993H3.25814ZM72.7446 38.8713H93.2151C90.311 33.7919 80.3945 17.9189 72.7446 5.4321V38.8713Z" fill="white"/>
<path d="M25.7829 5.85538L90.0986 41.1993L70.2655 74.0741L5.94984 38.8007L25.7829 5.85538ZM24.6496 0C24.2246 0 23.8704 0.21164 23.6579 0.564374L0.212421 39.3651C0.0707566 39.6473 -7.56867e-05 39.9295 0.0707566 40.2822C0.141589 40.5644 0.354086 40.8466 0.637415 40.9877L70.9739 79.7884C71.1864 79.8589 71.328 79.9295 71.5405 79.9295C71.9655 79.9295 72.3197 79.7178 72.5322 79.3651L95.9777 40.5644C96.1902 40.0705 96.1193 39.3651 95.5527 38.9418L25.2162 0.141093C25.0037 0.0705467 24.7912 0 24.6496 0Z" fill="white"/>
</g>
<defs>
<clipPath id="clip0_3094_718">
<rect width="280" height="80" fill="white"/>
</clipPath>
</defs>
</svg>
