<svg width="140" height="40" viewBox="0 0 140 40" fill="none" xmlns="http://www.w3.org/2000/svg">
<g clip-path="url(#clip0_3094_649)">
<path d="M65.5196 18.7655H59.6051V14.568H57.6572V25.6085H59.6051V20.5644H65.5196V25.6085H67.4675V14.568H65.5196V18.7655Z" fill="white"/>
<path d="M75.3299 14.3563C72.0362 14.3563 69.5216 16.8607 69.5216 20.0706C69.5216 23.2805 72.0716 25.7849 75.3299 25.7849C78.5882 25.7849 81.1381 23.2805 81.1381 20.0706C81.1735 16.8607 78.6236 14.3563 75.3299 14.3563ZM75.3299 23.986C73.1341 23.986 71.4341 22.2576 71.4341 20.0706C71.4341 17.8837 73.1341 16.1553 75.3299 16.1553C77.5257 16.1553 79.1902 17.8837 79.1902 20.0706C79.2257 22.2928 77.5257 23.986 75.3299 23.986Z" fill="white"/>
<path d="M120.804 14.3563C117.51 14.3563 114.996 16.8255 114.996 20.0706C114.996 23.3158 117.546 25.7849 120.804 25.7849C124.062 25.7849 126.612 23.2805 126.612 20.0706C126.612 16.8607 124.062 14.3563 120.804 14.3563ZM120.804 23.986C118.608 23.986 116.908 22.2576 116.908 20.0706C116.908 17.8837 118.608 16.1553 120.804 16.1553C123 16.1553 124.665 17.8837 124.665 20.0706C124.665 22.2928 123 23.986 120.804 23.986Z" fill="white"/>
<path d="M114.783 14.568H112.34L108.125 19.2946V14.568H106.177V25.6085H108.125V20.4939L112.481 25.6085H114.996L110.073 19.8237L114.783 14.568Z" fill="white"/>
<path d="M89.8151 19.6473C90.5588 19.1535 90.9838 18.3422 90.9838 17.3546C90.9838 15.732 89.8151 14.568 87.8672 14.568H83.1568V25.6085H87.8318C89.9922 25.6085 91.338 24.2681 91.338 22.3987C91.338 21.1641 90.7713 20.2117 89.8151 19.6473ZM85.0693 16.3669H87.6547C88.6109 16.3669 89.1068 16.8607 89.1068 17.5662C89.1068 18.3069 88.6109 18.8008 87.6547 18.8008H85.0693V16.3669ZM87.5839 23.8096H85.0693V20.5644H87.5839C88.788 20.5644 89.4255 21.1994 89.4255 22.187C89.4255 23.1394 88.7526 23.8096 87.5839 23.8096Z" fill="white"/>
<path d="M138.052 14.568L134.333 19.8237L130.614 14.6032V14.568H128.667V25.6085H130.614V17.672L134.333 22.9983L138.052 17.6367V25.6085H140V14.568H138.052Z" fill="white"/>
<path d="M95.4108 22.7161V14.568H93.4984V25.6085H95.4108L101.502 17.4604V25.6085H103.415V14.568H101.502L95.4108 22.7161Z" fill="white"/>
<path d="M12.3246 40C12.1121 40 11.935 39.8942 11.8288 39.7178L0.106054 20.3175C-0.00019492 20.1411 -0.00019492 19.8942 0.106054 19.7178C0.212302 19.5414 0.424799 19.4004 0.637296 19.4004H11.758V0.634921C11.758 0.31746 12.0413 0 12.36 0C12.6788 0 12.9621 0.31746 12.9621 0.634921V19.4356H35.2389V0.599647C35.2389 0.31746 35.4159 0.10582 35.6639 0.0352734C35.9118 -0.0352734 36.1951 0.0705467 36.3368 0.282187C36.3722 0.31746 39.4534 5.11464 42.3221 9.91182C48.0949 19.5414 48.0949 19.7531 48.0949 20.0353C48.0949 20.3527 47.8116 20.6349 47.4574 20.6349H36.4076V39.3651C36.4076 39.6825 36.1597 40.0353 35.8409 40.0353C35.5222 40.0353 35.2389 39.7178 35.2389 39.3651V20.6349H12.8913V39.4356C12.8913 39.7178 12.7142 39.9295 12.4663 40C12.4309 40 12.36 40 12.3246 40ZM1.62895 20.5996L11.6871 37.2487V20.5996H1.62895ZM36.3722 19.4356H46.6074C45.1554 16.8959 40.1971 8.95944 36.3722 2.71605V19.4356Z" fill="white"/>
<path d="M12.8914 2.92769L45.0493 20.5996L35.1328 37.037L2.97492 19.4004L12.8914 2.92769ZM12.3248 0C12.1123 0 11.9352 0.10582 11.829 0.282187L0.106211 19.6825C0.0353783 19.8236 -3.78434e-05 19.9647 0.0353783 20.1411C0.0707944 20.2822 0.177043 20.4233 0.318707 20.4938L35.4869 39.8942C35.5932 39.9295 35.664 39.9647 35.7703 39.9647C35.9828 39.9647 36.1598 39.8589 36.2661 39.6825L47.9888 20.2822C48.0951 20.0353 48.0597 19.6825 47.7763 19.4709L12.6081 0.0705467C12.5019 0.0352734 12.3956 0 12.3248 0Z" fill="white"/>
</g>
<defs>
<clipPath id="clip0_3094_649">
<rect width="140" height="40" fill="white"/>
</clipPath>
</defs>
</svg>
