<svg width="196" height="56" viewBox="0 0 196 56" fill="none" xmlns="http://www.w3.org/2000/svg">
<g clip-path="url(#clip0_3107_385)">
<path d="M18.048 4.09877L63.069 28.8395L49.1858 51.8519L4.16484 27.1605L18.048 4.09877ZM17.2546 0C16.9572 0 16.7092 0.148148 16.5605 0.395062L0.148654 27.5556C0.0494884 27.7531 -9.41772e-05 27.9506 0.0494884 28.1975C0.099071 28.3951 0.247819 28.5926 0.446149 28.6914L49.6817 55.8519C49.8304 55.9012 49.9296 55.9506 50.0783 55.9506C50.3758 55.9506 50.6237 55.8025 50.7725 55.5556L67.1843 28.3951C67.3331 28.0494 67.2835 27.5556 66.8868 27.2593L17.6513 0.0987654C17.5026 0.0493827 17.3538 0 17.2546 0Z" fill="url(#paint0_linear_3107_385)"/>
<path d="M17.2546 56C16.9571 56 16.7092 55.8518 16.5605 55.6049L0.148624 28.4444C-0.000123356 28.1975 -0.000123356 27.8518 0.148624 27.6049C0.297372 27.358 0.594868 27.1605 0.892363 27.1605H16.4613V0.888889C16.4613 0.444444 16.858 0 17.3042 0C17.7504 0 18.1471 0.444444 18.1471 0.888889V27.2099H49.3346V0.839506C49.3346 0.444444 49.5825 0.148148 49.9296 0.0493827C50.2766 -0.0493827 50.6733 0.0987654 50.8716 0.395062C50.9212 0.444444 55.2349 7.16049 59.2511 13.8765C67.3331 27.358 67.3331 27.6543 67.3331 28.0494C67.3331 28.4938 66.9364 28.8889 66.4406 28.8889H50.9708V55.1111C50.9708 55.5555 50.6237 56.0494 50.1775 56.0494C49.7312 56.0494 49.3346 55.6049 49.3346 55.1111V28.8889H18.0479V55.2099C18.0479 55.6049 17.8 55.9012 17.453 56C17.4034 56 17.3042 56 17.2546 56ZM2.28068 28.8395L16.3621 52.1481V28.8395H2.28068ZM50.9212 27.2099H65.2506C63.2177 23.6543 56.2761 12.5432 50.9212 3.80247V27.2099Z" fill="url(#paint1_linear_3107_385)"/>
<path d="M91.7278 26.2716H83.4475V20.395H80.7205V35.8518H83.4475V28.7901H91.7278V35.8518H94.4548V20.395H91.7278V26.2716Z" fill="white"/>
<path d="M105.462 20.0986C100.851 20.0986 97.3306 23.6048 97.3306 28.0986C97.3306 32.5925 100.901 36.0986 105.462 36.0986C110.024 36.0986 113.594 32.5925 113.594 28.0986C113.643 23.6048 110.073 20.0986 105.462 20.0986ZM105.462 33.5801C102.388 33.5801 100.008 31.1604 100.008 28.0986C100.008 25.0369 102.388 22.6172 105.462 22.6172C108.536 22.6172 110.867 25.0369 110.867 28.0986C110.916 31.2097 108.536 33.5801 105.462 33.5801Z" fill="white"/>
<path d="M169.126 20.0986C164.515 20.0986 160.995 23.5554 160.995 28.0986C160.995 32.6418 164.565 36.0986 169.126 36.0986C173.688 36.0986 177.258 32.5925 177.258 28.0986C177.258 23.6048 173.688 20.0986 169.126 20.0986ZM169.126 33.5801C166.052 33.5801 163.672 31.1604 163.672 28.0986C163.672 25.0369 166.052 22.6172 169.126 22.6172C172.2 22.6172 174.531 25.0369 174.531 28.0986C174.531 31.2097 172.2 33.5801 169.126 33.5801Z" fill="white"/>
<path d="M160.697 20.395H157.276L151.376 27.0123V20.395H148.649V35.8518H151.376V28.6913L157.474 35.8518H160.995L154.103 27.753L160.697 20.395Z" fill="white"/>
<path d="M125.741 27.5061C126.783 26.8148 127.378 25.679 127.378 24.2963C127.378 22.0246 125.741 20.395 123.014 20.395H119.048H116.42V35.8518H119.048H122.965C125.989 35.8518 127.873 33.9753 127.873 31.358C127.873 29.6296 127.08 28.2963 125.741 27.5061ZM119.097 22.9135H122.717C124.056 22.9135 124.75 23.6049 124.75 24.5926C124.75 25.6296 124.056 26.3209 122.717 26.3209H119.097V22.9135ZM122.618 33.3333H119.097V28.7901H122.618C124.304 28.7901 125.196 29.679 125.196 31.0617C125.196 32.395 124.254 33.3333 122.618 33.3333Z" fill="white"/>
<path d="M193.273 20.395L188.067 27.753L182.861 20.4444V20.395H180.134V35.8518H182.861V24.7407L188.067 32.1975L193.273 24.6913V35.8518H196V20.395H193.273Z" fill="white"/>
<path d="M133.575 31.8024V20.395H130.898V35.8518H133.575L142.104 24.4444V35.8518H144.781V20.395H142.104L133.575 31.8024Z" fill="white"/>
<path d="M83.6954 52.0493V55.9506H83.0013V54.4691C82.7038 54.5678 82.4063 54.6172 82.1088 54.6172C81.2659 54.6172 80.7205 54.2222 80.7205 53.3333V52.0493H81.4146V53.2839C81.4146 53.8271 81.7121 54.0246 82.2079 54.0246C82.5054 54.0246 82.8029 53.9752 83.0508 53.8271V52.0493H83.6954Z" fill="white"/>
<path d="M88.0587 55.9012H87.3645L87.067 55.2099H85.2325L84.935 55.9012H84.2408L86.0754 52H86.2737L88.0587 55.9012ZM85.877 53.7778L85.4308 54.716H86.8191L86.3729 53.7778C86.2737 53.5802 86.2241 53.3827 86.125 53.1358C86.0258 53.3333 85.9762 53.5309 85.877 53.7778Z" fill="white"/>
<path d="M88.2074 53.9754C88.2074 52.7902 89.0503 51.9507 90.2403 51.9507C90.8353 51.9507 91.2816 52.1482 91.7278 52.5433L91.3807 52.9877C91.0832 52.7408 90.7361 52.5927 90.2899 52.5927C89.4966 52.5927 88.9512 53.1853 88.9512 53.9754C88.9512 54.7655 89.4966 55.4075 90.2899 55.4075C90.7857 55.4075 91.1824 55.2099 91.4303 54.8643L91.8765 55.3087C91.4799 55.7532 90.9841 56.0495 90.2899 56.0495C89.0008 56.0001 88.2074 55.1112 88.2074 53.9754Z" fill="white"/>
<path d="M94.9011 52.642H93.8103V55.9012H93.1161V52.642H92.0253V52H94.9011V52.642Z" fill="white"/>
<path d="M95.4961 52.0493H96.1902V53.6789H98.0744V52.0493H98.7685V55.9506H98.0744V54.3209H96.1902V55.9506H95.4961V52.0493Z" fill="white"/>
<path d="M99.5123 53.9754C99.5123 52.7902 100.355 51.9507 101.545 51.9507C102.735 51.9507 103.578 52.7902 103.578 53.9754C103.578 55.1112 102.735 56.0001 101.545 56.0001C100.355 56.0001 99.5123 55.1112 99.5123 53.9754ZM102.884 53.9754C102.884 53.1853 102.338 52.5927 101.545 52.5927C100.752 52.5927 100.206 53.1853 100.206 53.9754C100.206 54.7655 100.752 55.4075 101.545 55.4075C102.338 55.3581 102.884 54.7655 102.884 53.9754Z" fill="white"/>
<path d="M106.801 55.3086V55.9012H104.272V52H106.702V52.5926H104.917V53.6296H106.454V54.2222H104.917V55.3086H106.801Z" fill="white"/>
<path d="M108.834 52.0493H111.363V52.6419H109.478V53.5802H110.371C111.214 53.5802 111.66 54.1234 111.66 54.7654C111.66 55.4073 111.164 55.9506 110.371 55.9506H108.784V52.0493H108.834ZM110.321 55.358C110.768 55.358 111.015 55.111 111.015 54.7654C111.015 54.3703 110.768 54.1728 110.321 54.1728H109.528V55.4073H110.321V55.358Z" fill="white"/>
<path d="M115.775 55.9012H115.081L114.784 55.2099H112.949L112.652 55.9012H111.957L113.792 52H113.99L115.775 55.9012ZM113.544 53.7778L113.098 54.716H114.486L114.04 53.7778C113.941 53.5802 113.891 53.3827 113.792 53.1358C113.742 53.3333 113.643 53.5309 113.544 53.7778Z" fill="white"/>
<path d="M116.271 52.0493H116.965V53.6789H118.849V52.0493H119.544V55.9506H118.849V54.3209H116.965V55.9506H116.271V52.0493Z" fill="white"/>
<path d="M123.411 55.9012H122.618L121.13 54.1728V55.9012H120.486V52H121.18V53.7284L122.568 52H123.312L121.775 53.9259L123.411 55.9012Z" fill="white"/>
<path d="M123.51 53.9754C123.51 52.7902 124.353 51.9507 125.543 51.9507C126.733 51.9507 127.576 52.7902 127.576 53.9754C127.576 55.1112 126.733 56.0001 125.543 56.0001C124.353 56.0001 123.51 55.1112 123.51 53.9754ZM126.882 53.9754C126.882 53.1853 126.336 52.5927 125.543 52.5927C124.75 52.5927 124.204 53.1853 124.204 53.9754C124.204 54.7655 124.75 55.4075 125.543 55.4075C126.336 55.3581 126.882 54.7655 126.882 53.9754Z" fill="white"/>
<path d="M131.196 54.8641C131.196 55.5061 130.7 55.9506 129.956 55.9506H128.27V52.0493H129.807C130.501 52.0493 130.997 52.4444 130.997 53.0864C130.997 53.4814 130.799 53.7283 130.551 53.9259C130.948 54.074 131.196 54.4197 131.196 54.8641ZM128.964 53.6296H129.758C130.154 53.6296 130.353 53.432 130.353 53.0864C130.353 52.7901 130.105 52.5925 129.758 52.5925H129.014V53.6296H128.964ZM130.501 54.7654C130.501 54.4197 130.253 54.1728 129.857 54.1728H128.964V55.358H129.857C130.253 55.358 130.501 55.1604 130.501 54.7654Z" fill="white"/>
<path d="M131.741 53.9754C131.741 52.7902 132.584 51.9507 133.774 51.9507C134.369 51.9507 134.815 52.1482 135.261 52.5433L134.914 52.9877C134.617 52.7408 134.27 52.5927 133.823 52.5927C133.03 52.5927 132.485 53.1853 132.485 53.9754C132.485 54.7655 133.03 55.4075 133.823 55.4075C134.319 55.4075 134.716 55.2099 134.964 54.8643L135.41 55.3087C135.013 55.7532 134.518 56.0495 133.823 56.0495C132.534 56.0001 131.741 55.1112 131.741 53.9754Z" fill="white"/>
<path d="M138.881 55.9012H138.088L136.6 54.1728V55.9012H135.906V52H136.6V53.7284L137.988 52H138.732L137.195 53.9259L138.881 55.9012Z" fill="white"/>
<path d="M138.93 53.9754C138.93 52.7902 139.773 51.9507 140.963 51.9507C142.153 51.9507 142.996 52.7902 142.996 53.9754C142.996 55.1112 142.153 56.0001 140.963 56.0001C139.773 56.0001 138.93 55.1112 138.93 53.9754ZM142.302 53.9754C142.302 53.1853 141.757 52.5927 140.963 52.5927C140.17 52.5927 139.625 53.1853 139.625 53.9754C139.625 54.7655 140.17 55.4075 140.963 55.4075C141.806 55.3581 142.302 54.7655 142.302 53.9754Z" fill="white"/>
<path d="M146.269 55.3086V55.9012H143.74V52H146.169V52.5926H144.385V53.6296H145.922V54.2222H144.385V55.3086H146.269Z" fill="white"/>
<path d="M148.054 53.9754C148.054 52.7902 148.897 51.9507 150.087 51.9507C151.276 51.9507 152.119 52.7902 152.119 53.9754C152.119 55.1112 151.276 56.0001 150.087 56.0001C148.897 56.0001 148.054 55.1112 148.054 53.9754ZM151.425 53.9754C151.425 53.1853 150.88 52.5927 150.087 52.5927C149.293 52.5927 148.748 53.1853 148.748 53.9754C148.748 54.7655 149.293 55.4075 150.087 55.4075C150.88 55.3581 151.425 54.7655 151.425 53.9754Z" fill="white"/>
<path d="M152.863 52.0493H155.392V52.6419H153.508V53.5802H154.4C155.243 53.5802 155.689 54.1234 155.689 54.7654C155.689 55.4073 155.194 55.9506 154.4 55.9506H152.814V52.0493H152.863ZM154.351 55.358C154.797 55.358 155.045 55.111 155.045 54.7654C155.045 54.3703 154.797 54.1728 154.351 54.1728H153.557V55.4073H154.351V55.358Z" fill="white"/>
<path d="M156.185 53.9754C156.185 52.7902 157.028 51.9507 158.218 51.9507C158.813 51.9507 159.259 52.1482 159.706 52.5433L159.358 52.9877C159.061 52.7408 158.714 52.5927 158.268 52.5927C157.474 52.5927 156.929 53.1853 156.929 53.9754C156.929 54.7655 157.474 55.4075 158.268 55.4075C158.763 55.4075 159.16 55.2099 159.408 54.8643L159.854 55.3087C159.458 55.7532 158.962 56.0495 158.268 56.0495C156.979 56.0001 156.185 55.1112 156.185 53.9754Z" fill="white"/>
<path d="M160.053 55.4073C160.648 55.358 160.796 54.9629 160.945 53.9259L161.143 52.0493H163.573V55.9506H162.879V52.6913H161.689L161.54 54.1728C161.391 55.4567 160.945 55.9506 160.102 55.9999L160.053 55.4073Z" fill="white"/>
<path d="M167.639 52.0493L166.399 54.716C165.953 55.6543 165.606 55.9506 164.713 55.9999L164.664 55.4073C165.16 55.4073 165.457 55.2592 165.655 54.9629L164.118 52.0987H164.862L166.003 54.2715L166.945 52.0987H167.639V52.0493Z" fill="white"/>
<path d="M172.647 55.9012H171.853L170.515 54.1728V55.9012H169.82V54.1728L168.482 55.9012H167.688L169.225 53.9752L167.738 52.0493H168.482L169.771 53.7777V52.0493H170.465V53.7777L171.754 52.0493H172.498L171.06 53.9259L172.647 55.9012Z" fill="white"/>
<path d="M176.514 52V55.9012H175.82V53.8272C175.82 53.6296 175.82 53.4815 175.82 53.2839C175.671 53.4321 175.522 53.6296 175.374 53.7778L173.341 55.9506H173.142V52.0494H173.837V54.1235C173.837 54.321 173.837 54.4691 173.837 54.6667C173.985 54.5185 174.134 54.321 174.283 54.1728L176.316 52H176.514Z" fill="white"/>
<path d="M180.332 54.8641C180.332 55.5061 179.836 55.9506 179.092 55.9506H177.406V52.0493H178.944C179.638 52.0493 180.134 52.4444 180.134 53.0864C180.134 53.4814 179.935 53.7283 179.687 53.9259C180.084 54.074 180.332 54.4197 180.332 54.8641ZM178.15 53.6296H178.944C179.34 53.6296 179.539 53.432 179.539 53.0864C179.539 52.7901 179.291 52.5925 178.944 52.5925H178.2V53.6296H178.15ZM179.687 54.7654C179.687 54.4197 179.439 54.1728 179.043 54.1728H178.15V55.358H179.043C179.39 55.358 179.687 55.1604 179.687 54.7654Z" fill="white"/>
<path d="M184.447 55.9012H183.753L183.456 55.2099H181.621L181.324 55.9012H180.629L182.464 52H182.662L184.447 55.9012ZM182.266 53.7778L181.819 54.716H183.208L182.761 53.7778C182.662 53.5802 182.613 53.3827 182.514 53.1358C182.414 53.3333 182.365 53.5309 182.266 53.7778Z" fill="white"/>
<path d="M184.993 52.0493H185.687V53.6789H187.571V52.0493H188.265V55.9506H187.571V54.3209H185.687V55.9506H184.993V52.0493Z" fill="white"/>
<path d="M192.529 52V55.9012H191.835V53.8272C191.835 53.6296 191.835 53.4815 191.835 53.2839C191.686 53.4321 191.538 53.6296 191.389 53.7778L189.356 55.9506H189.158V52.0494H189.852V54.1235C189.852 54.321 189.852 54.4691 189.852 54.6667C190 54.5185 190.149 54.321 190.298 54.1728L192.331 52H192.529Z" fill="white"/>
<path d="M196 55.3086V55.9012H193.471V52H195.901V52.5926H194.116V53.6296H195.653V54.2222H194.116V55.3086H196Z" fill="white"/>
</g>
<defs>
<linearGradient id="paint0_linear_3107_385" x1="33.6329" y1="55.993" x2="33.6329" y2="0" gradientUnits="userSpaceOnUse">
<stop offset="0.2646" stop-color="#675096"/>
<stop offset="1" stop-color="#56276B"/>
</linearGradient>
<linearGradient id="paint1_linear_3107_385" x1="48.9562" y1="56.6725" x2="18.5298" y2="-0.782939" gradientUnits="userSpaceOnUse">
<stop offset="0.18" stop-color="#675096"/>
<stop offset="0.28" stop-color="#56276B"/>
</linearGradient>
<clipPath id="clip0_3107_385">
<rect width="196" height="56" fill="white"/>
</clipPath>
</defs>
</svg>
