<svg width="40" height="48" viewBox="0 0 40 48" fill="none" xmlns="http://www.w3.org/2000/svg">
<g clip-path="url(#clip0_5139_248988)">
<path d="M0 0H40V40L20 48L0 40V0Z" fill="#55246A"/>
<path fill-rule="evenodd" clip-rule="evenodd" d="M20.3274 10.3253C20.1207 10.2249 19.8793 10.2249 19.6726 10.3253L10.6726 14.6929C10.4141 14.8183 10.25 15.0804 10.25 15.3676V16C10.25 16.4142 10.5858 16.75 11 16.75H29C29.4142 16.75 29.75 16.4142 29.75 16V15.3676C29.75 15.0804 29.5859 14.8183 29.3274 14.6929L20.3274 10.3253ZM20 11.8337L12.9603 15.25H27.0397L20 11.8337ZM22.75 26C22.75 26.4142 22.4142 26.75 22 26.75C21.5858 26.75 21.25 26.4142 21.25 26V19C21.25 18.5858 21.5858 18.25 22 18.25C22.4142 18.25 22.75 18.5858 22.75 19V26ZM11 28.25C10.5858 28.25 10.25 28.5858 10.25 29C10.25 29.4142 10.5858 29.75 11 29.75L29 29.75C29.4142 29.75 29.75 29.4142 29.75 29C29.75 28.5858 29.4142 28.25 29 28.25L11 28.25ZM18 26.75C18.4142 26.75 18.75 26.4142 18.75 26V19C18.75 18.5858 18.4142 18.25 18 18.25C17.5858 18.25 17.25 18.5858 17.25 19V26C17.25 26.4142 17.5858 26.75 18 26.75ZM26.75 26C26.75 26.4142 26.4142 26.75 26 26.75C25.5858 26.75 25.25 26.4142 25.25 26V19C25.25 18.5858 25.5858 18.25 26 18.25C26.4142 18.25 26.75 18.5858 26.75 19V26ZM14 26.75C14.4142 26.75 14.75 26.4142 14.75 26V19C14.75 18.5858 14.4142 18.25 14 18.25C13.5858 18.25 13.25 18.5858 13.25 19V26C13.25 26.4142 13.5858 26.75 14 26.75Z" fill="white"/>
</g>
<defs>
<clipPath id="clip0_5139_248988">
<rect width="40" height="48" fill="white"/>
</clipPath>
</defs>
</svg>
