<svg width="138" height="144" viewBox="0 0 138 144" fill="none" xmlns="http://www.w3.org/2000/svg">
<mask id="path-1-outside-1_5558_60663" maskUnits="userSpaceOnUse" x="8" y="24" width="131" height="92" fill="black">
<rect fill="white" x="8" y="24" width="131" height="92"/>
<path d="M69.6875 113H9.80469V100.402L31.3086 78.6641C35.6445 74.2109 39.1211 70.5 41.7383 67.5312C44.3945 64.5234 46.3086 61.7891 47.4805 59.3281C48.6914 56.8672 49.2969 54.2305 49.2969 51.418C49.2969 48.0195 48.3398 45.4805 46.4258 43.8008C44.5508 42.082 42.0312 41.2227 38.8672 41.2227C35.5469 41.2227 32.3242 41.9844 29.1992 43.5078C26.0742 45.0312 22.8125 47.1992 19.4141 50.0117L9.57031 38.3516C12.0312 36.2422 14.6289 34.25 17.3633 32.375C20.1367 30.5 23.3398 28.9961 26.9727 27.8633C30.6445 26.6914 35.0391 26.1055 40.1562 26.1055C45.7812 26.1055 50.6055 27.1211 54.6289 29.1523C58.6914 31.1836 61.8164 33.957 64.0039 37.4727C66.1914 40.9492 67.2852 44.8945 67.2852 49.3086C67.2852 54.0352 66.3477 58.3516 64.4727 62.2578C62.5977 66.1641 59.8633 70.0312 56.2695 73.8594C52.7148 77.6875 48.418 81.9258 43.3789 86.5742L32.3633 96.9453V97.7656H69.6875V113ZM137.891 70.168C137.891 77.082 137.344 83.2539 136.25 88.6836C135.195 94.1133 133.477 98.7227 131.094 102.512C128.75 106.301 125.664 109.191 121.836 111.184C118.008 113.176 113.359 114.172 107.891 114.172C101.016 114.172 95.3711 112.434 90.957 108.957C86.543 105.441 83.2812 100.402 81.1719 93.8398C79.0625 87.2383 78.0078 79.3477 78.0078 70.168C78.0078 60.9102 78.9648 53 80.8789 46.4375C82.832 39.8359 85.9961 34.7773 90.3711 31.2617C94.7461 27.7461 100.586 25.9883 107.891 25.9883C114.727 25.9883 120.352 27.7461 124.766 31.2617C129.219 34.7383 132.52 39.7773 134.668 46.3789C136.816 52.9414 137.891 60.8711 137.891 70.168ZM95.9961 70.168C95.9961 76.6914 96.3477 82.1406 97.0508 86.5156C97.793 90.8516 99.0234 94.1133 100.742 96.3008C102.461 98.4883 104.844 99.582 107.891 99.582C110.898 99.582 113.262 98.5078 114.98 96.3594C116.738 94.1719 117.988 90.9102 118.73 86.5742C119.473 82.1992 119.844 76.7305 119.844 70.168C119.844 63.6445 119.473 58.1953 118.73 53.8203C117.988 49.4453 116.738 46.1641 114.98 43.9766C113.262 41.75 110.898 40.6367 107.891 40.6367C104.844 40.6367 102.461 41.75 100.742 43.9766C99.0234 46.1641 97.793 49.4453 97.0508 53.8203C96.3477 58.1953 95.9961 63.6445 95.9961 70.168Z"/>
</mask>
<path d="M69.6875 113V113.5H70.1875V113H69.6875ZM9.80469 113H9.30469V113.5H9.80469V113ZM9.80469 100.402L9.44922 100.051L9.30469 100.197V100.402H9.80469ZM31.3086 78.6641L31.6641 79.0157L31.6668 79.0129L31.3086 78.6641ZM41.7383 67.5312L41.3635 67.2003L41.3632 67.2006L41.7383 67.5312ZM47.4805 59.3281L47.0318 59.1074L47.029 59.1132L47.4805 59.3281ZM46.4258 43.8008L46.0878 44.1694L46.096 44.1766L46.4258 43.8008ZM19.4141 50.0117L19.032 50.3343L19.3514 50.7126L19.7328 50.3969L19.4141 50.0117ZM9.57031 38.3516L9.24492 37.9719L8.86812 38.2949L9.18826 38.6741L9.57031 38.3516ZM17.3633 32.375L17.0832 31.9608L17.0805 31.9626L17.3633 32.375ZM26.9727 27.8633L27.1215 28.3406L27.1247 28.3396L26.9727 27.8633ZM54.6289 29.1523L54.4036 29.5987L54.4053 29.5996L54.6289 29.1523ZM64.0039 37.4727L63.5794 37.7368L63.5807 37.7389L64.0039 37.4727ZM56.2695 73.8594L55.905 73.5172L55.9031 73.5191L56.2695 73.8594ZM43.3789 86.5742L43.0399 86.2067L43.0362 86.2102L43.3789 86.5742ZM32.3633 96.9453L32.0205 96.5813L31.8633 96.7293V96.9453H32.3633ZM32.3633 97.7656H31.8633V98.2656H32.3633V97.7656ZM69.6875 97.7656H70.1875V97.2656H69.6875V97.7656ZM69.6875 112.5H67.5488V113.5H69.6875V112.5ZM63.2715 112.5H58.9941V113.5H63.2715V112.5ZM54.7168 112.5H50.4395V113.5H54.7168V112.5ZM46.1621 112.5H41.8848V113.5H46.1621V112.5ZM37.6074 112.5H33.3301V113.5H37.6074V112.5ZM29.0527 112.5H24.7754V113.5H29.0527V112.5ZM20.498 112.5H16.2207V113.5H20.498V112.5ZM11.9434 112.5H9.80469V113.5H11.9434V112.5ZM10.3047 113V111.425H9.30469V113H10.3047ZM10.3047 108.276V105.126H9.30469V108.276H10.3047ZM10.3047 101.977V100.402H9.30469V101.977H10.3047ZM10.1602 100.754L11.5041 99.3953L10.7932 98.6921L9.44922 100.051L10.1602 100.754ZM14.1921 96.678L16.8801 93.9608L16.1692 93.2575L13.4812 95.9748L14.1921 96.678ZM19.5681 91.2435L22.2561 88.5262L21.5452 87.8229L18.8572 90.5402L19.5681 91.2435ZM24.9441 85.8089L27.6321 83.0916L26.9211 82.3884L24.2332 85.1056L24.9441 85.8089ZM30.3201 80.3743L31.6641 79.0157L30.9531 78.3124L29.6091 79.6711L30.3201 80.3743ZM31.6668 79.0129C32.1194 78.548 32.5627 78.0912 32.9966 77.6425L32.2778 76.9474C31.8447 77.3952 31.4022 77.8512 30.9504 78.3153L31.6668 79.0129ZM35.6402 74.8873C36.564 73.916 37.4367 72.989 38.2581 72.1061L37.526 71.4249C36.7073 72.3048 35.8372 73.2292 34.9156 74.1981L35.6402 74.8873ZM40.8405 69.2891C41.2851 68.7959 41.7093 68.3202 42.1133 67.8619L41.3632 67.2006C40.9618 67.6559 40.54 68.1289 40.0977 68.6196L40.8405 69.2891ZM42.1131 67.8622C42.6931 67.2054 43.2385 66.561 43.7493 65.9288L42.9715 65.3003C42.4706 65.9203 41.9346 66.5536 41.3635 67.2003L42.1131 67.8622ZM46.7047 61.7917C47.1755 61.0216 47.5848 60.272 47.9319 59.5431L47.029 59.1132C46.6986 59.8071 46.3063 60.5261 45.8515 61.2702L46.7047 61.7917ZM47.9291 59.5489C48.2411 58.9147 48.5142 58.2688 48.7483 57.6113L47.8062 57.2759C47.5852 57.8968 47.3271 58.5073 47.0318 59.1074L47.9291 59.5489ZM49.684 53.5155C49.7593 52.8266 49.7969 52.1274 49.7969 51.418H48.7969C48.7969 52.092 48.7612 52.7549 48.69 53.4069L49.684 53.5155ZM49.7969 51.418C49.7969 50.6589 49.7504 49.9378 49.6565 49.2554L48.6659 49.3916C48.7529 50.0242 48.7969 50.6995 48.7969 51.418H49.7969ZM48.2121 45.1169C47.8046 44.4837 47.3189 43.9193 46.7556 43.425L46.096 44.1766C46.5889 44.6092 47.0137 45.1026 47.3711 45.658L48.2121 45.1169ZM46.7636 43.4322C46.2319 42.9448 45.6509 42.5227 45.0212 42.1664L44.5287 43.0367C45.0927 43.3558 45.6122 43.7333 46.0879 44.1694L46.7636 43.4322ZM40.9734 40.8579C40.3022 40.7675 39.6 40.7227 38.8672 40.7227V41.7227C39.5594 41.7227 40.2168 41.765 40.8399 41.8489L40.9734 40.8579ZM38.8672 40.7227C38.0083 40.7227 37.1555 40.7725 36.309 40.8722L36.4259 41.8653C37.2334 41.7702 38.0471 41.7227 38.8672 41.7227V40.7227ZM31.3336 42.0587C30.5425 42.3459 29.758 42.6792 28.9801 43.0584L29.4183 43.9573C30.1655 43.593 30.9177 43.2735 31.6748 42.9987L31.3336 42.0587ZM28.9801 43.0584C28.1139 43.4806 27.2385 43.9512 26.3538 44.4698L26.8595 45.3325C27.7236 44.8259 28.5766 44.3676 29.4183 43.9573L28.9801 43.0584ZM21.4214 47.7853C20.6528 48.3655 19.8774 48.9793 19.0953 49.6265L19.7328 50.3969C20.5041 49.7586 21.2678 49.1542 22.0239 48.5835L21.4214 47.7853ZM19.7961 49.6892L18.5657 48.2317L17.8015 48.8767L19.032 50.3343L19.7961 49.6892ZM16.1047 45.3166L13.6438 42.4016L12.8797 43.0467L15.3406 45.9617L16.1047 45.3166ZM11.1828 39.4865L9.95237 38.029L9.18826 38.6741L10.4187 40.1316L11.1828 39.4865ZM9.89571 38.7312C10.5125 38.2025 11.1379 37.6813 11.772 37.1674L11.1424 36.3905C10.5012 36.9101 9.86869 37.4373 9.24492 37.9719L9.89571 38.7312ZM15.6492 34.1953C16.3064 33.7188 16.9721 33.2495 17.646 32.7874L17.0805 31.9626C16.3994 32.4297 15.7266 32.904 15.0623 33.3856L15.6492 34.1953ZM17.6433 32.7892C18.3577 32.3063 19.1014 31.8481 19.8747 31.4147L19.3857 30.5423C18.5888 30.989 17.8213 31.4618 17.0832 31.9608L17.6433 32.7892ZM24.6341 29.2008C25.4387 28.8936 26.2678 28.6068 27.1215 28.3406L26.8238 27.386C25.951 27.6581 25.1021 27.9516 24.2774 28.2666L24.6341 29.2008ZM27.1247 28.3396C27.6355 28.1766 28.161 28.025 28.7013 27.8847L28.4501 26.9168C27.8927 27.0614 27.3496 27.2181 26.8206 27.387L27.1247 28.3396ZM31.9226 27.2127C32.969 27.0427 34.0608 26.9083 35.1981 26.8096L35.1116 25.8134C33.9514 25.914 32.8349 26.0514 31.7623 26.2256L31.9226 27.2127ZM38.4999 26.6267C39.0431 26.6126 39.5952 26.6055 40.1562 26.6055V25.6055C39.5868 25.6055 39.026 25.6127 38.4738 25.6271L38.4999 26.6267ZM40.1562 26.6055C40.7815 26.6055 41.3965 26.6182 42.0011 26.6435L42.0429 25.6444C41.4239 25.6184 40.795 25.6055 40.1562 25.6055V26.6055ZM45.668 26.9696C46.9198 27.1441 48.1203 27.3813 49.2697 27.6808L49.5218 26.7131C48.3327 26.4033 47.094 26.1588 45.8061 25.9791L45.668 26.9696ZM52.7421 28.838C53.311 29.0731 53.8647 29.3267 54.4036 29.5987L54.8542 28.706C54.2925 28.4224 53.7158 28.1584 53.1241 27.9138L52.7421 28.838ZM54.4053 29.5996C54.8763 29.8351 55.3341 30.0805 55.7788 30.336L56.2769 29.4688C55.8151 29.2036 55.3403 28.949 54.8525 28.7051L54.4053 29.5996ZM58.3721 32.05C59.209 32.6854 59.9864 33.3666 60.7047 34.0935L61.416 33.3905C60.6635 32.6291 59.8504 31.9168 58.9769 31.2536L58.3721 32.05ZM62.7125 36.4519C63.0164 36.8682 63.3054 37.2965 63.5794 37.7368L64.4284 37.2085C64.1415 36.7474 63.8387 36.2986 63.5201 35.8622L62.7125 36.4519ZM63.5807 37.7389C63.8519 38.1699 64.1057 38.6081 64.3424 39.0535L65.2255 38.5844C64.9773 38.1172 64.7112 37.6579 64.4271 37.2064L63.5807 37.7389ZM65.5619 41.8326C65.8955 42.7796 66.161 43.7564 66.3583 44.7634L67.3396 44.5712C67.1333 43.5176 66.8552 42.4939 66.5051 41.5003L65.5619 41.8326ZM66.7396 47.7832C66.77 48.2848 66.7852 48.7933 66.7852 49.3086H67.7852C67.7852 48.7736 67.7694 48.245 67.7378 47.7229L66.7396 47.7832ZM66.7852 49.3086C66.7852 49.8632 66.7721 50.4119 66.7459 50.9546L67.7447 51.0027C67.7717 50.4437 67.7852 49.879 67.7852 49.3086H66.7852ZM66.4191 54.2256C66.2503 55.3221 66.0232 56.3923 65.7379 57.4363L66.7025 57.7C66.9981 56.6184 67.233 55.5109 67.4075 54.3778L66.4191 54.2256ZM64.6863 60.5422C64.4801 61.0486 64.2586 61.5483 64.0219 62.0414L64.9234 62.4742C65.1689 61.9628 65.3985 61.4445 65.6124 60.9194L64.6863 60.5422ZM64.0219 62.0414C63.7711 62.5639 63.5046 63.086 63.2224 63.6075L64.1018 64.0834C64.3916 63.548 64.6655 63.0116 64.9234 62.4742L64.0219 62.0414ZM61.4094 66.6261C60.7775 67.583 60.0921 68.5383 59.3531 69.492L60.1435 70.1045C60.8972 69.1319 61.5974 68.1561 62.2439 67.1771L61.4094 66.6261ZM57.0968 72.2103C56.7109 72.6463 56.3136 73.0819 55.905 73.5172L56.6341 74.2016C57.0492 73.7594 57.453 73.3166 57.8456 72.8731L57.0968 72.2103ZM55.9031 73.5191C55.4024 74.0584 54.8868 74.606 54.3562 75.1618L55.0796 75.8522C55.6132 75.2932 56.1319 74.7424 56.6359 74.1996L55.9031 73.5191ZM51.1991 78.3916C50.17 79.4213 49.0952 80.4764 47.9747 81.5569L48.6688 82.2768C49.7935 81.1923 50.8727 80.1329 51.9064 79.0985L51.1991 78.3916ZM44.6967 84.6681C44.1537 85.1758 43.6014 85.6887 43.0399 86.2067L43.7179 86.9417C44.2811 86.4222 44.835 85.9078 45.3797 85.3985L44.6967 84.6681ZM43.0362 86.2102L41.6592 87.5066L42.3447 88.2346L43.7216 86.9383L43.0362 86.2102ZM38.9053 90.0993L36.1514 92.6921L36.8369 93.4202L39.5908 90.8274L38.9053 90.0993ZM33.3975 95.2849L32.0205 96.5813L32.706 97.3094L34.083 96.013L33.3975 95.2849ZM31.8633 96.9453V97.1504H32.8633V96.9453H31.8633ZM31.8633 97.5605V97.7656H32.8633V97.5605H31.8633ZM32.3633 98.2656H34.2295V97.2656H32.3633V98.2656ZM37.9619 98.2656H41.6943V97.2656H37.9619V98.2656ZM45.4268 98.2656H49.1592V97.2656H45.4268V98.2656ZM52.8916 98.2656H56.624V97.2656H52.8916V98.2656ZM60.3564 98.2656H64.0889V97.2656H60.3564V98.2656ZM67.8213 98.2656H69.6875V97.2656H67.8213V98.2656ZM69.1875 97.7656V99.6699H70.1875V97.7656H69.1875ZM69.1875 103.479V107.287H70.1875V103.479H69.1875ZM69.1875 111.096V113H70.1875V111.096H69.1875ZM69.6875 113V114H70.6875V113H69.6875ZM9.80469 113H8.80469V114H9.80469V113ZM9.80469 100.402L9.09376 99.6991L8.80469 99.9913V100.402H9.80469ZM31.3086 78.6641L32.0195 79.3673L32.0251 79.3617L31.3086 78.6641ZM41.7383 67.5312L40.9887 66.8693L40.9882 66.87L41.7383 67.5312ZM47.4805 59.3281L46.5831 58.8866L46.5776 58.8982L47.4805 59.3281ZM46.4258 43.8008L45.7501 44.5379L45.758 44.5453L45.7662 44.5524L46.4258 43.8008ZM19.4141 50.0117L18.6499 50.6568L19.2887 51.4135L20.0516 50.7821L19.4141 50.0117ZM9.57031 38.3516L8.91952 37.5923L8.16594 38.2382L8.8062 38.9966L9.57031 38.3516ZM17.3633 32.375L16.8032 31.5465L16.7978 31.5503L17.3633 32.375ZM26.9727 27.8633L27.2704 28.818L27.2767 28.8159L26.9727 27.8633ZM54.6289 29.1523L54.1782 30.045L54.1817 30.0468L54.6289 29.1523ZM64.0039 37.4727L63.1548 38.001L63.1575 38.0052L64.0039 37.4727ZM56.2695 73.8594L55.5404 73.1749L55.5367 73.1789L56.2695 73.8594ZM43.3789 86.5742L42.7008 85.8392L42.6934 85.8461L43.3789 86.5742ZM32.3633 96.9453L31.6778 96.2172L31.3633 96.5133V96.9453H32.3633ZM32.3633 97.7656H31.3633V98.7656H32.3633V97.7656ZM69.6875 97.7656H70.6875V96.7656H69.6875V97.7656ZM69.6875 112H67.5488V114H69.6875V112ZM63.2715 112H58.9941V114H63.2715V112ZM54.7168 112H50.4395V114H54.7168V112ZM46.1621 112H41.8848V114H46.1621V112ZM37.6074 112H33.3301V114H37.6074V112ZM29.0527 112H24.7754V114H29.0527V112ZM20.498 112H16.2207V114H20.498V112ZM11.9434 112H9.80469V114H11.9434V112ZM10.8047 113V111.425H8.80469V113H10.8047ZM10.8047 108.276V105.126H8.80469V108.276H10.8047ZM10.8047 101.977V100.402H8.80469V101.977H10.8047ZM10.5156 101.106L11.8596 99.747L10.4378 98.3404L9.09376 99.6991L10.5156 101.106ZM14.5476 97.0297L17.2356 94.3124L15.8137 92.9059L13.1257 95.6232L14.5476 97.0297ZM19.9236 91.5951L22.6116 88.8778L21.1897 87.4713L18.5017 90.1886L19.9236 91.5951ZM25.2996 86.1605L27.9875 83.4433L26.5657 82.0367L23.8777 84.754L25.2996 86.1605ZM30.6755 80.726L32.0195 79.3673L30.5977 77.9608L29.2537 79.3194L30.6755 80.726ZM32.0251 79.3617C32.4781 78.8964 32.9217 78.4393 33.3561 77.9901L31.9184 76.5998C31.4857 77.0472 31.0436 77.5028 30.5921 77.9664L32.0251 79.3617ZM36.0024 75.2319C36.9274 74.2595 37.8013 73.3311 38.6241 72.4467L37.1599 71.0844C36.3426 71.9628 35.4738 72.8858 34.5533 73.8535L36.0024 75.2319ZM41.2119 69.6239C41.6576 69.1294 42.0831 68.6523 42.4884 68.1925L40.9882 66.87C40.5881 67.3238 40.1675 67.7954 39.7263 68.2849L41.2119 69.6239ZM42.4878 68.1932C43.0723 67.5314 43.6225 66.8813 44.1382 66.243L42.5826 64.9861C42.0866 65.5999 41.5554 66.2276 40.9887 66.8693L42.4878 68.1932ZM47.1313 62.0525C47.61 61.2693 48.0279 60.5045 48.3833 59.7581L46.5776 58.8982C46.2555 59.5746 45.8718 60.2783 45.4249 61.0094L47.1313 62.0525ZM48.3777 59.7696C48.6981 59.1185 48.9788 58.4549 49.2193 57.7789L47.3351 57.1083C47.1207 57.7108 46.8701 58.3035 46.5832 58.8866L48.3777 59.7696ZM50.1811 53.5698C50.2584 52.8624 50.2969 52.145 50.2969 51.418H48.2969C48.2969 52.0743 48.2621 52.7191 48.1929 53.3526L50.1811 53.5698ZM50.2969 51.418C50.2969 50.6386 50.2492 49.8946 50.1519 49.1872L48.1705 49.4598C48.2541 50.0674 48.2969 50.7198 48.2969 51.418H50.2969ZM48.6325 44.8463C48.2001 44.1742 47.6839 43.5744 47.0854 43.0492L45.7662 44.5524C46.224 44.9541 46.6183 45.412 46.9506 45.9285L48.6325 44.8463ZM47.1015 43.0636C46.5417 42.5505 45.9299 42.1061 45.2675 41.7312L44.2825 43.4719C44.8136 43.7724 45.3023 44.1275 45.7501 44.5379L47.1015 43.0636ZM41.0401 40.3623C40.3449 40.2687 39.6203 40.2227 38.8672 40.2227V42.2227C39.539 42.2227 40.174 42.2638 40.7731 42.3444L41.0401 40.3623ZM38.8672 40.2227C37.9889 40.2227 37.1166 40.2736 36.2505 40.3756L36.4844 42.3619C37.2723 42.2691 38.0665 42.2227 38.8672 42.2227V40.2227ZM31.163 41.5887C30.3549 41.8821 29.5542 42.2223 28.761 42.6089L29.6374 44.4067C30.3693 44.0499 31.1053 43.7373 31.8455 43.4687L31.163 41.5887ZM28.761 42.6089C27.8826 43.0372 26.9959 43.5138 26.101 44.0384L27.1124 45.7638C27.9662 45.2633 28.8079 44.8111 29.6374 44.4067L28.761 42.6089ZM21.1202 47.3862C20.3453 47.9712 19.564 48.5896 18.7765 49.2413L20.0516 50.7821C20.8174 50.1483 21.5753 49.5485 22.3251 48.9826L21.1202 47.3862ZM20.1782 49.3666L18.9477 47.9091L17.4195 49.1993L18.6499 50.6568L20.1782 49.3666ZM16.4868 44.9941L14.0258 42.079L12.4976 43.3692L14.9585 46.2842L16.4868 44.9941ZM11.5649 39.164L10.3344 37.7065L8.8062 38.9966L10.0367 40.4542L11.5649 39.164ZM10.2211 39.1108C10.8344 38.5852 11.4563 38.0668 12.0868 37.5558L10.8276 36.002C10.1828 36.5245 9.5468 37.0546 8.91952 37.5923L10.2211 39.1108ZM15.9427 34.6001C16.5963 34.1262 17.2584 33.6594 17.9288 33.1997L16.7978 31.5503C16.113 32.0198 15.4367 32.4966 14.7688 32.9808L15.9427 34.6001ZM17.9234 33.2034C18.6258 32.7285 19.3577 32.2776 20.1191 31.8508L19.1413 30.1062C18.3325 30.5595 17.5531 31.0396 16.8032 31.5466L17.9234 33.2034ZM24.8124 29.6679C25.607 29.3645 26.4263 29.0812 27.2703 28.8179L26.675 26.9086C25.7926 27.1838 24.9339 27.4807 24.099 27.7995L24.8124 29.6679ZM27.2767 28.8159C27.7784 28.6558 28.2951 28.5067 28.8269 28.3687L28.3245 26.4328C27.7586 26.5797 27.2066 26.7389 26.6686 26.9106L27.2767 28.8159ZM32.0028 27.7062C33.0361 27.5384 34.1155 27.4054 35.2413 27.3077L35.0684 25.3152C33.8967 25.4169 32.7679 25.5557 31.6822 25.7321L32.0028 27.7062ZM38.513 27.1266C39.0517 27.1125 39.5994 27.1055 40.1562 27.1055V25.1055C39.5826 25.1055 39.0174 25.1127 38.4608 25.1273L38.513 27.1266ZM40.1562 27.1055C40.7748 27.1055 41.3827 27.118 41.9801 27.1431L42.0639 25.1448C41.4377 25.1186 40.8018 25.1055 40.1562 25.1055V27.1055ZM45.5989 27.4648C46.8327 27.6368 48.0141 27.8704 49.1437 28.1647L49.6479 26.2293C48.4389 25.9143 47.1811 25.6661 45.8752 25.4839L45.5989 27.4648ZM52.5512 29.3001C53.1085 29.5304 53.6509 29.7788 54.1782 30.045L55.0796 28.2597C54.5064 27.9703 53.9182 27.701 53.3151 27.4517L52.5512 29.3001ZM54.1817 30.0468C54.6443 30.2781 55.0936 30.519 55.5298 30.7695L56.526 29.0353C56.0556 28.7651 55.5723 28.506 55.0761 28.2579L54.1817 30.0468ZM58.0698 32.4482C58.8882 33.0697 59.6478 33.7353 60.349 34.4449L61.7716 33.0391C61.0021 32.2604 60.1711 31.5325 59.2792 30.8554L58.0698 32.4482ZM62.3087 36.7467C62.6053 37.153 62.8874 37.5711 63.1549 38.001L64.853 36.9444C64.5595 36.4728 64.2499 36.0138 63.924 35.5674L62.3087 36.7467ZM63.1575 38.0052C63.4222 38.4259 63.67 38.8535 63.9008 39.2881L65.6671 38.3499C65.4131 37.8718 65.1408 37.4018 64.8503 36.9401L63.1575 38.0052ZM65.0903 41.9987C65.4157 42.9224 65.6749 43.8758 65.8676 44.8595L67.8303 44.4751C67.6194 43.3983 67.335 42.3511 66.9767 41.3342L65.0903 41.9987ZM66.2405 47.8134C66.2703 48.3047 66.2852 48.8031 66.2852 49.3086H68.2852C68.2852 48.7638 68.2691 48.2251 68.2369 47.6927L66.2405 47.8134ZM66.2852 49.3086C66.2852 49.8554 66.2723 50.396 66.2465 50.9305L68.2442 51.0268C68.2715 50.4596 68.2852 49.8868 68.2852 49.3086H66.2852ZM65.925 54.1495C65.759 55.2276 65.5358 56.2792 65.2556 57.3045L67.1848 57.8318C67.4855 56.7314 67.7244 55.6053 67.9017 54.4538L65.925 54.1495ZM64.2233 60.3536C64.0208 60.8506 63.8034 61.3411 63.5711 61.8251L65.3742 62.6905C65.624 62.1701 65.8578 61.6425 66.0755 61.108L64.2233 60.3536ZM63.5711 61.8251C63.3239 62.3401 63.0611 62.8549 62.7826 63.3695L64.5416 64.3214C64.8351 63.779 65.1127 63.2354 65.3742 62.6905L63.5711 61.8251ZM60.9922 66.3506C60.3676 67.2965 59.6896 68.2415 58.9579 69.1857L60.5387 70.4108C61.2998 69.4287 62.0074 68.4427 62.6612 67.4526L60.9922 66.3506ZM56.7224 71.8789C56.3398 72.3111 55.9458 72.7432 55.5405 73.1749L56.9986 74.5438C57.417 74.0982 57.8241 73.6518 58.22 73.2046L56.7224 71.8789ZM55.5367 73.1789C55.0376 73.7164 54.5235 74.2623 53.9945 74.8166L55.4413 76.1975C55.9764 75.6369 56.4967 75.0843 57.0023 74.5398L55.5367 73.1789ZM50.8454 78.0382C49.8187 79.0656 48.7461 80.1185 47.6276 81.197L49.0159 82.6367C50.1426 81.5502 51.2241 80.4886 52.2601 79.4519L50.8454 78.0382ZM44.3552 84.3029C43.813 84.8098 43.2616 85.3219 42.7009 85.8392L44.0569 87.3092C44.6209 86.789 45.1756 86.2738 45.7212 85.7637L44.3552 84.3029ZM42.6934 85.8461L41.3165 87.1425L42.6874 88.5987L44.0644 87.3023L42.6934 85.8461ZM38.5626 89.7353L35.8087 92.3281L37.1796 93.7842L39.9335 91.1915L38.5626 89.7353ZM33.0547 94.9208L31.6778 96.2172L33.0488 97.6734L34.4257 96.377L33.0547 94.9208ZM31.3633 96.9453V97.1504H33.3633V96.9453H31.3633ZM31.3633 97.5605V97.7656H33.3633V97.5605H31.3633ZM32.3633 98.7656H34.2295V96.7656H32.3633V98.7656ZM37.9619 98.7656H41.6943V96.7656H37.9619V98.7656ZM45.4268 98.7656H49.1592V96.7656H45.4268V98.7656ZM52.8916 98.7656H56.624V96.7656H52.8916V98.7656ZM60.3564 98.7656H64.0889V96.7656H60.3564V98.7656ZM67.8213 98.7656H69.6875V96.7656H67.8213V98.7656ZM68.6875 97.7656V99.6699H70.6875V97.7656H68.6875ZM68.6875 103.479V107.287H70.6875V103.479H68.6875ZM68.6875 111.096V113H70.6875V111.096H68.6875ZM136.25 88.6836L135.76 88.5849L135.759 88.5883L136.25 88.6836ZM131.094 102.512L130.67 102.246L130.669 102.249L131.094 102.512ZM90.957 108.957L90.6455 109.348L90.6477 109.35L90.957 108.957ZM81.1719 93.8398L80.6956 93.992L80.6959 93.9929L81.1719 93.8398ZM80.8789 46.4375L80.3994 46.2956L80.3989 46.2975L80.8789 46.4375ZM90.3711 31.2617L90.6843 31.6515L90.3711 31.2617ZM124.766 31.2617L124.454 31.6528L124.458 31.6558L124.766 31.2617ZM134.668 46.3789L134.193 46.5336L134.193 46.5345L134.668 46.3789ZM97.0508 86.5156L96.5571 86.595L96.5579 86.6L97.0508 86.5156ZM114.98 96.3594L114.591 96.0462L114.59 96.047L114.98 96.3594ZM118.73 86.5742L119.223 86.6586L119.223 86.6578L118.73 86.5742ZM114.98 43.9766L114.585 44.2821L114.591 44.2898L114.98 43.9766ZM100.742 43.9766L101.135 44.2855L101.138 44.2821L100.742 43.9766ZM97.0508 53.8203L96.5578 53.7367L96.5571 53.741L97.0508 53.8203ZM138.391 70.168C138.391 69.4881 138.385 68.8154 138.373 68.1499L137.374 68.1671C137.385 68.8267 137.391 69.4937 137.391 70.168H138.391ZM138.229 64.1167C138.153 62.7406 138.05 61.3982 137.921 60.0895L136.925 60.1881C137.054 61.4817 137.155 62.8096 137.231 64.1718L138.229 64.1167ZM137.423 56.0776C137.217 54.7094 136.978 53.3821 136.706 52.096L135.728 52.3027C135.995 53.5687 136.231 54.8766 136.434 56.2264L137.423 56.0776ZM135.736 48.1627C135.548 47.5039 135.351 46.8574 135.143 46.2233L134.193 46.5345C134.396 47.1559 134.59 47.7899 134.774 48.4365L135.736 48.1627ZM135.143 46.2242C134.9 45.4758 134.642 44.7469 134.368 44.0374L133.435 44.3968C133.702 45.0892 133.954 45.8015 134.193 46.5336L135.143 46.2242ZM132.443 39.8105C131.688 38.4002 130.857 37.0886 129.951 35.8764L129.15 36.4752C130.024 37.6449 130.828 38.9138 131.561 40.2826L132.443 39.8105ZM126.848 32.3902C126.278 31.8538 125.686 31.3462 125.073 30.8676L124.458 31.6558C125.047 32.1154 125.615 32.6029 126.163 33.1184L126.848 32.3902ZM125.077 30.8706C124.475 30.3913 123.851 29.9439 123.206 29.5285L122.665 30.3695C123.282 30.7667 123.879 31.1945 124.454 31.6528L125.077 30.8706ZM119.111 27.4373C117.721 26.8897 116.254 26.458 114.71 26.1416L114.509 27.1212C115.999 27.4267 117.411 27.8424 118.744 28.3677L119.111 27.4373ZM110.174 25.5554C109.427 25.5106 108.666 25.4883 107.891 25.4883V26.4883C108.647 26.4883 109.388 26.5101 110.114 26.5536L110.174 25.5554ZM107.891 25.4883C107.087 25.4883 106.301 25.5093 105.531 25.5514L105.586 26.5499C106.336 26.5089 107.105 26.4883 107.891 26.4883V25.4883ZM100.838 26.1099C99.2222 26.4169 97.6979 26.8381 96.2657 27.3744L96.6164 28.3109C97.9913 27.796 99.4604 27.3895 101.024 27.0923L100.838 26.1099ZM91.9993 29.4838C91.3238 29.912 90.6766 30.3748 90.0579 30.872L90.6843 31.6515C91.2737 31.1779 91.8905 30.7368 92.5348 30.3283L91.9993 29.4838ZM90.0579 30.872C89.4563 31.3554 88.8772 31.8674 88.3206 32.4078L89.0173 33.1252C89.5515 32.6064 90.1072 32.1152 90.6843 31.6515L90.0579 30.872ZM85.3043 35.9182C84.4288 37.1378 83.6329 38.4556 82.9164 39.8711L83.8086 40.3227C84.5033 38.9504 85.2728 37.6768 86.1167 36.5013L85.3043 35.9182ZM81.1103 44.1079C80.8578 44.818 80.6209 45.5472 80.3995 46.2957L81.3584 46.5793C81.5749 45.8476 81.8063 45.1355 82.0525 44.443L81.1103 44.1079ZM80.3989 46.2975C80.2134 46.9336 80.0368 47.5819 79.8693 48.2426L80.8386 48.4884C81.0033 47.8389 81.1768 47.2019 81.3589 46.5775L80.3989 46.2975ZM79.0045 52.1762C78.7628 53.4596 78.5505 54.7834 78.3675 56.1476L79.3586 56.2806C79.5394 54.9328 79.749 53.6264 79.9872 52.3613L79.0045 52.1762ZM77.9253 60.1428C77.8101 61.4453 77.7188 62.781 77.6513 64.1497L78.65 64.199C78.7169 62.8426 78.8074 61.5199 78.9214 60.2309L77.9253 60.1428ZM77.5231 68.161C77.5129 68.8229 77.5078 69.4919 77.5078 70.168H78.5078C78.5078 69.4969 78.5129 68.833 78.5229 68.1764L77.5231 68.161ZM77.5078 70.168C77.5078 70.844 77.5135 71.5131 77.5249 72.1753L78.5248 72.1581C78.5135 71.5017 78.5078 70.8383 78.5078 70.168H77.5078ZM77.6683 76.1872C77.7436 77.5543 77.8455 78.8896 77.9739 80.1929L78.9691 80.0948C78.8421 78.8065 78.7413 77.4856 78.6667 76.1321L77.6683 76.1872ZM78.4652 84.1834C78.6677 85.5424 78.9024 86.863 79.1693 88.145L80.1483 87.9411C79.8854 86.6788 79.6541 85.3771 79.4543 84.036L78.4652 84.1834ZM80.1182 92.06C80.301 92.7155 80.4935 93.3595 80.6956 93.992L81.6482 93.6877C81.4499 93.0673 81.261 92.4352 81.0815 91.7914L80.1182 92.06ZM80.6959 93.9929C80.9357 94.739 81.1904 95.466 81.46 96.174L82.3945 95.8182C82.1314 95.1272 81.8825 94.4168 81.6479 93.6868L80.6959 93.9929ZM83.3618 100.392C84.1074 101.799 84.9283 103.109 85.825 104.323L86.6292 103.729C85.7637 102.557 84.969 101.289 84.2453 99.9239L83.3618 100.392ZM88.8918 107.816C89.455 108.355 90.0396 108.866 90.6455 109.348L91.2685 108.566C90.6863 108.102 90.1245 107.611 89.583 107.093L88.8918 107.816ZM90.6477 109.35C91.2527 109.826 91.8803 110.271 92.5306 110.684L93.0664 109.839C92.4448 109.445 91.8448 109.02 91.2664 108.564L90.6477 109.35ZM96.645 112.753C98.0385 113.293 99.5102 113.719 101.059 114.03L101.257 113.05C99.7599 112.749 98.3434 112.339 97.0062 111.821L96.645 112.753ZM105.604 114.606C106.351 114.65 107.113 114.672 107.891 114.672V113.672C107.132 113.672 106.39 113.65 105.663 113.608L105.604 114.606ZM107.891 114.672C108.508 114.672 109.115 114.659 109.712 114.634L109.67 113.635C109.087 113.66 108.494 113.672 107.891 113.672V114.672ZM113.344 114.309C114.59 114.134 115.786 113.895 116.93 113.592L116.675 112.625C115.57 112.917 114.414 113.149 113.205 113.319L113.344 114.309ZM120.403 112.41C120.973 112.169 121.528 111.908 122.067 111.627L121.605 110.74C121.09 111.008 120.559 111.258 120.013 111.489L120.403 112.41ZM122.067 111.627C122.554 111.373 123.03 111.105 123.494 110.823L122.975 109.969C122.53 110.239 122.073 110.497 121.605 110.74L122.067 111.627ZM126.17 108.931C127.015 108.241 127.81 107.492 128.557 106.685L127.824 106.006C127.108 106.779 126.346 107.496 125.537 108.156L126.17 108.931ZM130.617 104.139C130.929 103.698 131.229 103.243 131.519 102.775L130.669 102.249C130.39 102.7 130.1 103.137 129.8 103.562L130.617 104.139ZM131.517 102.778C131.848 102.252 132.166 101.71 132.472 101.153L131.595 100.672C131.299 101.212 130.991 101.736 130.67 102.246L131.517 102.778ZM134.097 97.76C134.566 96.6339 134.993 95.4571 135.377 94.2297L134.422 93.9311C134.047 95.1311 133.631 96.2792 133.174 97.3756L134.097 97.76ZM136.353 90.611C136.491 90.0107 136.62 89.4 136.741 88.7789L135.759 88.5883C135.641 89.1985 135.514 89.7981 135.378 90.387L136.353 90.611ZM136.74 88.7823C136.892 88.0281 137.033 87.26 137.164 86.4778L136.178 86.3128C136.049 87.0844 135.91 87.8418 135.76 88.5849L136.74 88.7823ZM137.8 81.8382C137.964 80.3298 138.094 78.7757 138.189 77.1761L137.191 77.1164C137.096 78.7008 136.968 80.2387 136.806 81.7302L137.8 81.8382ZM138.369 72.5048C138.384 71.7354 138.391 70.9564 138.391 70.168H137.391C137.391 70.9504 137.384 71.7233 137.37 72.4864L138.369 72.5048ZM96.4961 70.168C96.4961 69.4742 96.5001 68.7927 96.5081 68.1234L95.5081 68.1115C95.5001 68.7849 95.4961 69.4703 95.4961 70.168H96.4961ZM96.6122 64.0396C96.6695 62.6159 96.7479 61.2578 96.8474 59.9653L95.8504 59.8885C95.7498 61.1943 95.6707 62.5647 95.613 63.9994L96.6122 64.0396ZM97.2557 55.9119C97.3443 55.2169 97.4405 54.5462 97.5444 53.8997L96.5571 53.741C96.4514 54.3989 96.3536 55.0805 96.2638 55.7855L97.2557 55.9119ZM97.5437 53.9039C97.6972 52.9994 97.8715 52.1438 98.0664 51.3368L97.0944 51.102C96.8935 51.9334 96.7147 52.8117 96.5578 53.7367L97.5437 53.9039ZM99.7831 46.4468C100.195 45.6269 100.647 44.9073 101.135 44.2855L100.349 43.6677C99.8139 44.3488 99.3279 45.1262 98.8898 45.9974L99.7831 46.4468ZM101.138 44.2821C101.548 43.7508 101.996 43.2895 102.48 42.8963L101.85 42.1199C101.302 42.5649 100.801 43.0825 100.346 43.671L101.138 44.2821ZM105.947 41.3122C106.556 41.1957 107.203 41.1367 107.891 41.1367V40.1367C107.146 40.1367 106.435 40.2007 105.759 40.3301L105.947 41.3122ZM107.891 41.1367C108.572 41.1367 109.215 41.1963 109.819 41.3139L110.01 40.3323C109.337 40.2014 108.63 40.1367 107.891 40.1367V41.1367ZM113.254 42.9021C113.733 43.294 114.177 43.7534 114.585 44.2821L115.376 43.671C114.925 43.0862 114.428 42.5713 113.887 42.1281L113.254 42.9021ZM114.591 44.2898C115.089 44.9094 115.548 45.626 115.967 46.442L116.856 45.9852C116.411 45.1171 115.916 44.3423 115.37 43.6634L114.591 44.2898ZM117.711 51.3321C117.908 52.1404 118.084 52.9976 118.238 53.9039L119.223 53.7367C119.066 52.8092 118.886 51.9287 118.683 51.0952L117.711 51.3321ZM118.238 53.9039C118.347 54.5497 118.449 55.2196 118.542 55.9137L119.533 55.7804C119.438 55.0757 119.335 54.3944 119.223 53.7367L118.238 53.9039ZM118.973 59.9649C119.078 61.2572 119.161 62.6151 119.221 64.0387L120.22 63.9963C120.159 62.561 120.076 61.1902 119.969 59.8838L118.973 59.9649ZM119.331 68.1231C119.34 68.7924 119.344 69.474 119.344 70.168H120.344C120.344 69.47 120.34 68.7842 120.331 68.1105L119.331 68.1231ZM119.344 70.168C119.344 70.8645 119.34 71.5486 119.331 72.2202L120.331 72.2327C120.34 71.5568 120.344 70.8685 120.344 70.168H119.344ZM119.222 76.3193C119.161 77.749 119.079 79.1118 118.974 80.4079L119.97 80.4886C120.076 79.1785 120.16 77.8027 120.221 76.3615L119.222 76.3193ZM118.543 84.4737C118.449 85.1708 118.347 85.843 118.238 86.4906L119.223 86.6578C119.335 85.9982 119.439 85.3145 119.534 84.6067L118.543 84.4737ZM118.238 86.4899C118.083 87.3907 117.907 88.2429 117.71 89.0468L118.681 89.2857C118.885 88.4565 119.065 87.5807 119.223 86.6586L118.238 86.4899ZM115.963 93.9066C115.545 94.7159 115.087 95.4282 114.591 96.0462L115.37 96.6726C115.914 95.9962 116.407 95.2263 116.852 94.3653L115.963 93.9066ZM114.59 96.047C114.178 96.5617 113.73 97.0084 113.245 97.3891L113.863 98.1756C114.411 97.7448 114.914 97.2429 115.371 96.6717L114.59 96.047ZM109.808 98.9134C109.207 99.0253 108.568 99.082 107.891 99.082V100.082C108.624 100.082 109.324 100.021 109.991 99.8965L109.808 98.9134ZM107.891 99.082C107.205 99.082 106.56 99.0245 105.952 98.9108L105.768 99.8937C106.442 100.02 107.149 100.082 107.891 100.082V99.082ZM102.484 97.3587C101.997 96.9711 101.547 96.5161 101.135 95.9919L100.349 96.6097C100.806 97.1914 101.31 97.7025 101.862 98.1413L102.484 97.3587ZM101.135 95.9919C100.648 95.3717 100.198 94.6563 99.7869 93.8432L98.8945 94.2945C99.3316 95.1586 99.8159 95.9312 100.349 96.6097L101.135 95.9919ZM98.0679 88.9835C97.8723 88.1809 97.6975 87.3303 97.5436 86.4313L96.5579 86.6C96.7154 87.5196 96.8948 88.3931 97.0964 89.2203L98.0679 88.9835ZM97.5444 86.4363C97.4405 85.7897 97.3443 85.119 97.2557 84.424L96.2638 84.5504C96.3536 85.2555 96.4514 85.937 96.5571 86.595L97.5444 86.4363ZM96.8474 80.3706C96.7479 79.0781 96.6695 77.72 96.6122 76.2964L95.613 76.3366C95.6707 77.7713 95.7498 79.1416 95.8504 80.4474L96.8474 80.3706ZM96.5081 72.2125C96.5001 71.5433 96.4961 70.8618 96.4961 70.168H95.4961C95.4961 70.8656 95.5001 71.5511 95.5081 72.2244L96.5081 72.2125ZM136.25 88.6836L135.27 88.4861L135.268 88.4929L136.25 88.6836ZM131.094 102.512L130.247 101.979L130.243 101.986L131.094 102.512ZM90.957 108.957L90.334 109.739L90.3383 109.743L90.957 108.957ZM81.1719 93.8398L80.2193 94.1442L80.2198 94.1459L81.1719 93.8398ZM80.8789 46.4375L79.92 46.1538L79.9189 46.1575L80.8789 46.4375ZM90.3711 31.2617L90.9975 32.0412L90.3711 31.2617ZM124.766 31.2617L124.143 32.044L124.15 32.05L124.766 31.2617ZM134.668 46.3789L133.717 46.6884L133.718 46.69L134.668 46.3789ZM97.0508 86.5156L96.0634 86.6743L96.0651 86.6843L97.0508 86.5156ZM114.98 96.3594L114.201 95.733L114.2 95.7347L114.98 96.3594ZM118.73 86.5742L119.716 86.7429L119.716 86.7415L118.73 86.5742ZM114.98 43.9766L114.189 44.5876L114.195 44.5953L114.201 44.603L114.98 43.9766ZM100.742 43.9766L101.529 44.5944L101.534 44.5876L100.742 43.9766ZM97.0508 53.8203L96.0648 53.6531L96.0635 53.6616L97.0508 53.8203ZM138.891 70.168C138.891 69.4853 138.885 68.8097 138.873 68.1413L136.874 68.1757C136.885 68.8324 136.891 69.4965 136.891 70.168H138.891ZM138.728 64.0891C138.652 62.7062 138.549 61.3565 138.418 60.0401L136.428 60.2374C136.555 61.5235 136.657 62.8441 136.731 64.1994L138.728 64.0891ZM137.917 56.0032C137.71 54.6258 137.469 53.2889 137.196 51.9926L135.239 52.4061C135.504 53.662 135.738 54.9602 135.939 56.3008L137.917 56.0032ZM136.217 48.0258C136.027 47.3609 135.828 46.7082 135.618 46.0678L133.718 46.69C133.919 47.3051 134.111 47.9329 134.293 48.5735L136.217 48.0258ZM135.619 46.0694C135.373 45.313 135.111 44.5758 134.835 43.8578L132.969 44.5764C133.232 45.2603 133.481 45.9643 133.717 46.6884L135.619 46.0694ZM132.884 39.5745C132.117 38.1434 131.273 36.8104 130.351 35.577L128.749 36.7746C129.608 37.9231 130.399 39.1706 131.12 40.5186L132.884 39.5745ZM127.191 32.0261C126.609 31.4792 126.006 30.9616 125.381 30.4735L124.15 32.05C124.727 32.5 125.283 32.9775 125.82 33.4825L127.191 32.0261ZM125.389 30.4795C124.774 29.9897 124.136 29.5325 123.476 29.1079L122.394 30.7901C122.997 31.1781 123.58 31.596 124.143 32.0439L125.389 30.4795ZM119.294 26.9721C117.876 26.4133 116.381 25.9737 114.81 25.6518L114.409 27.6111C115.872 27.9111 117.256 28.3188 118.561 28.8329L119.294 26.9721ZM110.204 25.0563C109.447 25.0109 108.676 24.9883 107.891 24.9883V26.9883C108.638 26.9883 109.369 27.0098 110.084 27.0527L110.204 25.0563ZM107.891 24.9883C107.079 24.9883 106.283 25.0095 105.504 25.0522L105.613 27.0492C106.354 27.0086 107.113 26.9883 107.891 26.9883V24.9883ZM100.744 25.6187C99.1031 25.9306 97.5512 26.3591 96.0904 26.9061L96.7917 28.7791C98.138 28.275 99.5795 27.8758 101.118 27.5835L100.744 25.6187ZM91.7316 29.0615C91.0404 29.4997 90.3781 29.9733 89.7447 30.4822L90.9975 32.0412C91.5722 31.5794 92.1738 31.1492 92.8025 30.7506L91.7316 29.0615ZM89.7447 30.4822C89.1308 30.9755 88.54 31.4978 87.9723 32.0491L89.3656 33.4839C89.8887 32.976 90.4326 32.4951 90.9975 32.0412L89.7447 30.4822ZM84.8981 35.6266C84.0068 36.8683 83.1978 38.2083 82.4703 39.6453L84.2547 40.5486C84.9385 39.1978 85.6948 37.9463 86.5228 36.7929L84.8981 35.6266ZM80.6392 43.9404C80.3836 44.6592 80.1439 45.3971 79.92 46.1538L81.8378 46.7212C82.0519 45.9978 82.2805 45.2942 82.5236 44.6105L80.6392 43.9404ZM79.9189 46.1575C79.7317 46.7994 79.5536 47.4534 79.3846 48.1196L81.3232 48.6114C81.4866 47.9674 81.6585 47.3361 81.8389 46.7175L79.9189 46.1575ZM78.5131 52.0837C78.2697 53.3761 78.0561 54.7086 77.8719 56.0811L79.8542 56.347C80.0339 55.0076 80.2421 53.7098 80.4786 52.4538L78.5131 52.0837ZM77.4273 60.0987C77.3114 61.408 77.2197 62.7502 77.1519 64.1251L79.1494 64.2236C79.216 62.8734 79.3061 61.5572 79.4195 60.2749L77.4273 60.0987ZM77.0231 68.1533C77.0129 68.8178 77.0078 69.4894 77.0078 70.168H79.0078C79.0078 69.4994 79.0128 68.8381 79.0229 68.1841L77.0231 68.1533ZM77.0078 70.168C77.0078 70.8468 77.0135 71.5188 77.025 72.1839L79.0247 72.1495C79.0134 71.496 79.0078 70.8355 79.0078 70.168H77.0078ZM77.169 76.2147C77.2447 77.5887 77.3471 78.9312 77.4763 80.242L79.4667 80.0458C79.3405 78.7649 79.2402 77.4512 79.166 76.1046L77.169 76.2147ZM77.9706 84.2571C78.1745 85.6251 78.4108 86.9551 78.6798 88.2469L80.6378 87.8392C80.377 86.5867 80.1473 85.2944 79.9488 83.9623L77.9706 84.2571ZM79.6366 92.1943C79.8211 92.8556 80.0153 93.5056 80.2193 94.1442L82.1244 93.5355C81.9281 92.9212 81.741 92.2951 81.5631 91.6571L79.6366 92.1943ZM80.2198 94.1459C80.4623 94.9001 80.7199 95.6355 80.9927 96.352L82.8618 95.6402C82.6019 94.9578 82.3559 94.2557 82.1239 93.5338L80.2198 94.1459ZM82.92 100.626C83.6765 102.054 84.5106 103.385 85.4229 104.62L87.0314 103.432C86.1815 102.281 85.3998 101.034 84.6871 99.6897L82.92 100.626ZM88.5462 108.177C89.1202 108.726 89.7162 109.247 90.334 109.739L91.58 108.175C91.0097 107.721 90.4593 107.24 89.9287 106.732L88.5462 108.177ZM90.3383 109.743C90.9566 110.23 91.5981 110.684 92.2627 111.106L93.3343 109.417C92.727 109.032 92.1409 108.617 91.5758 108.171L90.3383 109.743ZM96.4644 113.22C97.8861 113.77 99.3854 114.203 100.961 114.52L101.355 112.56C99.8848 112.264 98.4958 111.862 97.1868 111.355L96.4644 113.22ZM105.575 115.105C106.332 115.15 107.104 115.172 107.891 115.172V113.172C107.142 113.172 106.409 113.151 105.692 113.109L105.575 115.105ZM107.891 115.172C108.514 115.172 109.128 115.159 109.733 115.134L109.649 113.136C109.073 113.16 108.487 113.172 107.891 113.172V115.172ZM113.414 114.804C114.678 114.626 115.893 114.383 117.058 114.075L116.547 112.142C115.463 112.428 114.326 112.656 113.135 112.824L113.414 114.804ZM120.598 112.871C121.18 112.624 121.747 112.357 122.298 112.071L121.374 110.297C120.871 110.558 120.352 110.803 119.818 111.029L120.598 112.871ZM122.298 112.071C122.795 111.812 123.28 111.538 123.754 111.25L122.715 109.541C122.279 109.806 121.833 110.058 121.374 110.297L122.298 112.071ZM126.487 109.318C127.349 108.613 128.162 107.848 128.924 107.024L127.457 105.666C126.756 106.422 126.011 107.123 125.221 107.769L126.487 109.318ZM131.025 104.428C131.343 103.978 131.649 103.514 131.944 103.038L130.243 101.986C129.97 102.428 129.686 102.857 129.392 103.274L131.025 104.428ZM131.94 103.044C132.277 102.509 132.6 101.959 132.91 101.393L131.157 100.432C130.865 100.963 130.562 101.479 130.247 101.979L131.94 103.044ZM134.559 97.9522C135.034 96.8113 135.465 95.6202 135.854 94.379L133.945 93.7818C133.574 94.9681 133.163 96.1018 132.713 97.1833L134.559 97.9522ZM136.84 90.723C136.979 90.117 137.11 89.5008 137.232 88.8743L135.268 88.4929C135.151 89.0977 135.025 89.6918 134.891 90.275L136.84 90.723ZM137.23 88.8811C137.383 88.1213 137.526 87.3477 137.658 86.5604L135.685 86.2302C135.557 86.9966 135.418 87.7486 135.27 88.4861L137.23 88.8811ZM138.297 81.8922C138.462 80.3753 138.592 78.8131 138.688 77.2059L136.692 77.0866C136.598 78.6633 136.47 80.1932 136.309 81.6762L138.297 81.8922ZM138.869 72.5141C138.884 71.7415 138.891 70.9594 138.891 70.168H136.891C136.891 70.9474 136.884 71.7172 136.87 72.4772L138.869 72.5141ZM96.9961 70.168C96.9961 69.4761 97.0001 68.7966 97.008 68.1294L95.0082 68.1056C95.0001 68.781 94.9961 69.4684 94.9961 70.168H96.9961ZM97.1118 64.0597C97.1688 62.6415 97.2469 61.2896 97.346 60.0037L95.3519 59.8501C95.2508 61.1626 95.1713 62.539 95.1134 63.9793L97.1118 64.0597ZM97.7517 55.9751C97.8396 55.2852 97.9351 54.6198 98.0381 53.979L96.0635 53.6616C95.9568 54.3253 95.8582 55.0122 95.7678 55.7223L97.7517 55.9751ZM98.0367 53.9876C98.1884 53.0932 98.3604 52.2489 98.5524 51.4543L96.6083 50.9846C96.4045 51.8282 96.2235 52.7178 96.0649 53.6531L98.0367 53.9876ZM100.23 46.6714C100.629 45.8773 101.063 45.1866 101.529 44.5944L99.9559 43.3587C99.3974 44.0695 98.8942 44.8759 98.4431 45.7728L100.23 46.6714ZM101.534 44.5876C101.922 44.085 102.343 43.6519 102.795 43.2844L101.534 41.7318C100.955 42.2025 100.427 42.7484 99.9506 43.3655L101.534 44.5876ZM106.041 41.8033C106.616 41.6933 107.232 41.6367 107.891 41.6367V39.6367C107.117 39.6367 106.375 39.7031 105.665 39.839L106.041 41.8033ZM107.891 41.6367C108.543 41.6367 109.153 41.6938 109.724 41.8047L110.106 39.8416C109.399 39.704 108.66 39.6367 107.891 39.6367V41.6367ZM112.937 43.2891C113.385 43.6554 113.802 44.087 114.189 44.5876L115.772 43.3655C115.299 42.7526 114.776 42.2099 114.203 41.7411L112.937 43.2891ZM114.201 44.603C114.675 45.193 115.116 45.8804 115.522 46.6703L117.301 45.7569C116.842 44.8627 116.329 44.0587 115.76 43.3502L114.201 44.603ZM117.225 51.4506C117.419 52.2462 117.593 53.0917 117.745 53.9876L119.716 53.6531C119.557 52.7151 119.375 51.8228 119.168 50.9768L117.225 51.4506ZM117.745 53.9876C117.853 54.6273 117.954 55.2915 118.046 55.9804L120.029 55.7137C119.933 55.0037 119.829 54.3168 119.716 53.6531L117.745 53.9876ZM118.474 60.0054C118.579 61.2907 118.661 62.6422 118.722 64.0599L120.72 63.975C120.659 62.534 120.575 61.1566 120.468 59.8433L118.474 60.0054ZM118.831 68.1294C118.84 68.7965 118.844 69.4761 118.844 70.168H120.844C120.844 69.468 120.84 68.78 120.831 68.1042L118.831 68.1294ZM118.844 70.168C118.844 70.8625 118.84 71.5445 118.831 72.214L120.831 72.239C120.84 71.5609 120.844 70.8705 120.844 70.168H118.844ZM118.722 76.2983C118.662 77.7221 118.58 79.0785 118.475 80.3676L120.469 80.5289C120.575 79.2118 120.659 77.8296 120.72 76.3826L118.722 76.2983ZM118.047 84.4071C117.954 85.0989 117.853 85.7655 117.745 86.407L119.716 86.7415C119.829 86.0758 119.934 85.3863 120.029 84.6733L118.047 84.4071ZM117.745 86.4055C117.592 87.2957 117.419 88.1362 117.224 88.9273L119.166 89.4052C119.373 88.5632 119.556 87.6757 119.716 86.7429L117.745 86.4055ZM115.519 93.6772C115.114 94.4606 114.674 95.1443 114.201 95.733L115.76 96.9858C116.327 96.2802 116.838 95.4815 117.296 94.5946L115.519 93.6772ZM114.2 95.7347C113.81 96.2211 113.389 96.6403 112.936 96.9958L114.172 98.5688C114.752 98.1129 115.282 97.5835 115.761 96.9841L114.2 95.7347ZM109.717 98.4218C109.148 98.5277 108.54 98.582 107.891 98.582V100.582C108.651 100.582 109.383 100.518 110.083 100.388L109.717 98.4218ZM107.891 98.582C107.233 98.582 106.618 98.5268 106.044 98.4193L105.676 100.385C106.383 100.517 107.121 100.582 107.891 100.582V98.582ZM102.795 96.9674C102.34 96.6054 101.918 96.1785 101.529 95.683L99.9559 96.9186C100.435 97.529 100.967 98.0682 101.55 98.5325L102.795 96.9674ZM101.529 95.683C101.064 95.092 100.631 94.4052 100.233 93.6175L98.4483 94.5202C98.8983 95.4098 99.3998 96.2109 99.9559 96.9186L101.529 95.683ZM98.5537 88.8651C98.3611 88.0749 98.1886 87.2356 98.0364 86.3469L96.0651 86.6843C96.2243 87.6143 96.406 88.4992 96.6106 89.3387L98.5537 88.8651ZM98.0381 86.3569C97.9351 85.7161 97.8396 85.0508 97.7517 84.3608L95.7678 84.6136C95.8582 85.3237 95.9568 86.0106 96.0635 86.6743L98.0381 86.3569ZM97.346 80.3322C97.2469 79.0464 97.1688 77.6944 97.1118 76.2763L95.1134 76.3567C95.1713 77.7969 95.2508 79.1733 95.3519 80.4858L97.346 80.3322ZM97.008 72.2065C97.0001 71.5394 96.9961 70.8599 96.9961 70.168H94.9961C94.9961 70.8675 95.0001 71.555 95.0082 72.2304L97.008 72.2065Z" fill="#55246A" mask="url(#path-1-outside-1_5558_60663)"/>
<path d="M64.6875 107H4.80469V94.4023L26.3086 72.6641C30.6445 68.2109 34.1211 64.5 36.7383 61.5312C39.3945 58.5234 41.3086 55.7891 42.4805 53.3281C43.6914 50.8672 44.2969 48.2305 44.2969 45.418C44.2969 42.0195 43.3398 39.4805 41.4258 37.8008C39.5508 36.082 37.0312 35.2227 33.8672 35.2227C30.5469 35.2227 27.3242 35.9844 24.1992 37.5078C21.0742 39.0312 17.8125 41.1992 14.4141 44.0117L4.57031 32.3516C7.03125 30.2422 9.62891 28.25 12.3633 26.375C15.1367 24.5 18.3398 22.9961 21.9727 21.8633C25.6445 20.6914 30.0391 20.1055 35.1562 20.1055C40.7812 20.1055 45.6055 21.1211 49.6289 23.1523C53.6914 25.1836 56.8164 27.957 59.0039 31.4727C61.1914 34.9492 62.2852 38.8945 62.2852 43.3086C62.2852 48.0352 61.3477 52.3516 59.4727 56.2578C57.5977 60.1641 54.8633 64.0312 51.2695 67.8594C47.7148 71.6875 43.418 75.9258 38.3789 80.5742L27.3633 90.9453V91.7656H64.6875V107ZM132.891 64.168C132.891 71.082 132.344 77.2539 131.25 82.6836C130.195 88.1133 128.477 92.7227 126.094 96.5117C123.75 100.301 120.664 103.191 116.836 105.184C113.008 107.176 108.359 108.172 102.891 108.172C96.0156 108.172 90.3711 106.434 85.957 102.957C81.543 99.4414 78.2812 94.4023 76.1719 87.8398C74.0625 81.2383 73.0078 73.3477 73.0078 64.168C73.0078 54.9102 73.9648 47 75.8789 40.4375C77.832 33.8359 80.9961 28.7773 85.3711 25.2617C89.7461 21.7461 95.5859 19.9883 102.891 19.9883C109.727 19.9883 115.352 21.7461 119.766 25.2617C124.219 28.7383 127.52 33.7773 129.668 40.3789C131.816 46.9414 132.891 54.8711 132.891 64.168ZM90.9961 64.168C90.9961 70.6914 91.3477 76.1406 92.0508 80.5156C92.793 84.8516 94.0234 88.1133 95.7422 90.3008C97.4609 92.4883 99.8438 93.582 102.891 93.582C105.898 93.582 108.262 92.5078 109.98 90.3594C111.738 88.1719 112.988 84.9102 113.73 80.5742C114.473 76.1992 114.844 70.7305 114.844 64.168C114.844 57.6445 114.473 52.1953 113.73 47.8203C112.988 43.4453 111.738 40.1641 109.98 37.9766C108.262 35.75 105.898 34.6367 102.891 34.6367C99.8438 34.6367 97.4609 35.75 95.7422 37.9766C94.0234 40.1641 92.793 43.4453 92.0508 47.8203C91.3477 52.1953 90.9961 57.6445 90.9961 64.168Z" fill="white"/>
</svg>
