<svg width="139" height="40" viewBox="0 0 139 40" fill="none" xmlns="http://www.w3.org/2000/svg">
    <mask id="path-1-outside-1_9699_259407" maskUnits="userSpaceOnUse" x="2.33301" y="6" width="73" height="32" fill="black">
        <rect fill="white" x="2.33301" y="6" width="73" height="32"/>
        <path d="M17.9424 36H11.8877V12.4844H4.13379V7.44531H25.6963V12.4844H17.9424V36ZM49.4658 25.043C49.4658 26.8659 49.2184 28.4805 48.7236 29.8867C48.2419 31.293 47.5322 32.4844 46.5947 33.4609C45.6702 34.4245 44.5505 35.1536 43.2354 35.6484C41.9333 36.1432 40.4619 36.3906 38.8213 36.3906C37.2848 36.3906 35.8721 36.1432 34.583 35.6484C33.307 35.1536 32.1937 34.4245 31.2432 33.4609C30.3057 32.4844 29.5765 31.293 29.0557 29.8867C28.5479 28.4805 28.2939 26.8659 28.2939 25.043C28.2939 22.6211 28.7236 20.5703 29.583 18.8906C30.4424 17.2109 31.6663 15.9349 33.2549 15.0625C34.8434 14.1901 36.738 13.7539 38.9385 13.7539C40.9827 13.7539 42.7926 14.1901 44.3682 15.0625C45.9567 15.9349 47.2002 17.2109 48.0986 18.8906C49.0101 20.5703 49.4658 22.6211 49.4658 25.043ZM34.3682 25.043C34.3682 26.4753 34.5244 27.6797 34.8369 28.6562C35.1494 29.6328 35.6377 30.3685 36.3018 30.8633C36.9658 31.3581 37.8317 31.6055 38.8994 31.6055C39.9541 31.6055 40.807 31.3581 41.458 30.8633C42.1221 30.3685 42.6038 29.6328 42.9033 28.6562C43.2158 27.6797 43.3721 26.4753 43.3721 25.043C43.3721 23.5977 43.2158 22.3997 42.9033 21.4492C42.6038 20.4857 42.1221 19.763 41.458 19.2812C40.7939 18.7995 39.9281 18.5586 38.8604 18.5586C37.2848 18.5586 36.139 19.099 35.4229 20.1797C34.7197 21.2604 34.3682 22.8815 34.3682 25.043ZM74.2314 14.1641V36H68.2549V18.6367H60.3447V36H54.3877V14.1641H74.2314Z"/>
    </mask>
    <path d="M17.9424 36V36.5H18.4424V36H17.9424ZM11.8877 36H11.3877V36.5H11.8877V36ZM11.8877 12.4844H12.3877V11.9844H11.8877V12.4844ZM4.13379 12.4844H3.63379V12.9844H4.13379V12.4844ZM4.13379 7.44531V6.94531H3.63379V7.44531H4.13379ZM25.6963 7.44531H26.1963V6.94531H25.6963V7.44531ZM25.6963 12.4844V12.9844H26.1963V12.4844H25.6963ZM17.9424 12.4844V11.9844H17.4424V12.4844H17.9424ZM17.9424 35.5H17.1855V36.5H17.9424V35.5ZM15.6719 35.5H14.1582V36.5H15.6719V35.5ZM12.6445 35.5H11.8877V36.5H12.6445V35.5ZM12.3877 36V35.0202H11.3877V36H12.3877ZM12.3877 33.0605V31.1009H11.3877V33.0605H12.3877ZM12.3877 29.1413V27.1816H11.3877V29.1413H12.3877ZM12.3877 25.222V23.2624H11.3877V25.222H12.3877ZM12.3877 21.3027V19.3431H11.3877V21.3027H12.3877ZM12.3877 17.3835V15.4238H11.3877V17.3835H12.3877ZM12.3877 13.4642V12.4844H11.3877V13.4642H12.3877ZM11.8877 11.9844H10.9185V12.9844H11.8877V11.9844ZM8.97998 11.9844H7.0415V12.9844H8.97998V11.9844ZM5.10303 11.9844H4.13379V12.9844H5.10303V11.9844ZM4.63379 12.4844V11.2246H3.63379V12.4844H4.63379ZM4.63379 8.70508V7.44531H3.63379V8.70508H4.63379ZM4.13379 7.94531H5.21191V6.94531H4.13379V7.94531ZM7.36816 7.94531H9.52441V6.94531H7.36816V7.94531ZM11.6807 7.94531H13.8369V6.94531H11.6807V7.94531ZM15.9932 7.94531H18.1494V6.94531H15.9932V7.94531ZM20.3057 7.94531H22.4619V6.94531H20.3057V7.94531ZM24.6182 7.94531H25.6963V6.94531H24.6182V7.94531ZM25.1963 7.44531V8.70508H26.1963V7.44531H25.1963ZM25.1963 11.2246V12.4844H26.1963V11.2246H25.1963ZM25.6963 11.9844H24.7271V12.9844H25.6963V11.9844ZM22.7886 11.9844H20.8501V12.9844H22.7886V11.9844ZM18.9116 11.9844H17.9424V12.9844H18.9116V11.9844ZM17.4424 12.4844V13.4642H18.4424V12.4844H17.4424ZM17.4424 15.4238V17.3835H18.4424V15.4238H17.4424ZM17.4424 19.3431V21.3027H18.4424V19.3431H17.4424ZM17.4424 23.2624V25.222H18.4424V23.2624H17.4424ZM17.4424 27.1816V29.1413H18.4424V27.1816H17.4424ZM17.4424 31.1009V33.0605H18.4424V31.1009H17.4424ZM17.4424 35.0202V36H18.4424V35.0202H17.4424ZM17.9424 36V37H18.9424V36H17.9424ZM11.8877 36H10.8877V37H11.8877V36ZM11.8877 12.4844H12.8877V11.4844H11.8877V12.4844ZM4.13379 12.4844H3.13379V13.4844H4.13379V12.4844ZM4.13379 7.44531V6.44531H3.13379V7.44531H4.13379ZM25.6963 7.44531H26.6963V6.44531H25.6963V7.44531ZM25.6963 12.4844V13.4844H26.6963V12.4844H25.6963ZM17.9424 12.4844V11.4844H16.9424V12.4844H17.9424ZM17.9424 35H17.1855V37H17.9424V35ZM15.6719 35H14.1582V37H15.6719V35ZM12.6445 35H11.8877V37H12.6445V35ZM12.8877 36V35.0202H10.8877V36H12.8877ZM12.8877 33.0605V31.1009H10.8877V33.0605H12.8877ZM12.8877 29.1413V27.1816H10.8877V29.1413H12.8877ZM12.8877 25.222V23.2624H10.8877V25.222H12.8877ZM12.8877 21.3027V19.3431H10.8877V21.3027H12.8877ZM12.8877 17.3835V15.4238H10.8877V17.3835H12.8877ZM12.8877 13.4642V12.4844H10.8877V13.4642H12.8877ZM11.8877 11.4844H10.9185V13.4844H11.8877V11.4844ZM8.97998 11.4844H7.0415V13.4844H8.97998V11.4844ZM5.10303 11.4844H4.13379V13.4844H5.10303V11.4844ZM5.13379 12.4844V11.2246H3.13379V12.4844H5.13379ZM5.13379 8.70508V7.44531H3.13379V8.70508H5.13379ZM4.13379 8.44531H5.21191V6.44531H4.13379V8.44531ZM7.36816 8.44531H9.52441V6.44531H7.36816V8.44531ZM11.6807 8.44531H13.8369V6.44531H11.6807V8.44531ZM15.9932 8.44531H18.1494V6.44531H15.9932V8.44531ZM20.3057 8.44531H22.4619V6.44531H20.3057V8.44531ZM24.6182 8.44531H25.6963V6.44531H24.6182V8.44531ZM24.6963 7.44531V8.70508H26.6963V7.44531H24.6963ZM24.6963 11.2246V12.4844H26.6963V11.2246H24.6963ZM25.6963 11.4844H24.7271V13.4844H25.6963V11.4844ZM22.7886 11.4844H20.8501V13.4844H22.7886V11.4844ZM18.9116 11.4844H17.9424V13.4844H18.9116V11.4844ZM16.9424 12.4844V13.4642H18.9424V12.4844H16.9424ZM16.9424 15.4238V17.3835H18.9424V15.4238H16.9424ZM16.9424 19.3431V21.3027H18.9424V19.3431H16.9424ZM16.9424 23.2624V25.222H18.9424V23.2624H16.9424ZM16.9424 27.1816V29.1413H18.9424V27.1816H16.9424ZM16.9424 31.1009V33.0605H18.9424V31.1009H16.9424ZM16.9424 35.0202V36H18.9424V35.0202H16.9424ZM48.7236 29.8867L48.252 29.7208L48.2506 29.7247L48.7236 29.8867ZM46.5947 33.4609L46.234 33.1147L46.2339 33.1148L46.5947 33.4609ZM43.2354 35.6484L43.0593 35.1805L43.0577 35.181L43.2354 35.6484ZM34.583 35.6484L34.4022 36.1146L34.4038 36.1152L34.583 35.6484ZM31.2432 33.4609L30.8824 33.8072L30.8872 33.8121L31.2432 33.4609ZM29.0557 29.8867L28.5854 30.0565L28.5868 30.0604L29.0557 29.8867ZM29.583 18.8906L30.0281 19.1184L29.583 18.8906ZM44.3682 15.0625L44.126 15.4999L44.1275 15.5008L44.3682 15.0625ZM48.0986 18.8906L47.6577 19.1265L47.6592 19.1291L48.0986 18.8906ZM41.458 30.8633L41.1593 30.4623L41.1555 30.4652L41.458 30.8633ZM42.9033 28.6562L42.4271 28.5039L42.4253 28.5097L42.9033 28.6562ZM42.9033 21.4492L42.4258 21.5976L42.4283 21.6054L42.9033 21.4492ZM41.458 19.2812L41.1644 19.686L41.458 19.2812ZM35.4229 20.1797L35.006 19.9035L35.0037 19.907L35.4229 20.1797ZM49.9658 25.043C49.9658 24.766 49.96 24.4935 49.9484 24.2253L48.9493 24.2686C48.9603 24.5219 48.9658 24.78 48.9658 25.043H49.9658ZM49.797 22.5905C49.7152 22.0289 49.6034 21.4893 49.4614 20.9722L48.4971 21.2372C48.6276 21.712 48.7311 22.2111 48.8074 22.7346L49.797 22.5905ZM48.9064 19.4032C48.7929 19.1458 48.6701 18.8955 48.5381 18.6522L47.6592 19.1291C47.778 19.348 47.8888 19.5739 47.9915 19.8068L48.9064 19.4032ZM48.5395 18.6548C48.3117 18.2289 48.062 17.8265 47.7901 17.448L46.9779 18.0314C47.2231 18.3727 47.4498 18.7376 47.6577 19.1265L48.5395 18.6548ZM45.8071 15.4018C45.4303 15.1151 45.0308 14.8559 44.6088 14.6242L44.1275 15.5008C44.507 15.7092 44.8649 15.9415 45.2017 16.1977L45.8071 15.4018ZM44.6104 14.6251C44.1788 14.3861 43.7307 14.1784 43.2662 14.0019L42.911 14.9367C43.3314 15.0964 43.7363 15.2842 44.126 15.4999L44.6104 14.6251ZM40.4006 13.3297C39.9255 13.2791 39.4381 13.2539 38.9385 13.2539V14.2539C39.4045 14.2539 39.8565 14.2774 40.2947 14.3241L40.4006 13.3297ZM38.9385 13.2539C38.4165 13.2539 37.9097 13.2777 37.4183 13.3257L37.5154 14.3209C37.9726 14.2763 38.4469 14.2539 38.9385 14.2539V13.2539ZM34.4249 13.986C33.9327 14.1655 33.4623 14.3781 33.0142 14.6242L33.4956 15.5008C33.8978 15.2799 34.3216 15.088 34.7675 14.9255L34.4249 13.986ZM33.0142 14.6242C32.5938 14.8551 32.1967 15.1133 31.8233 15.399L32.4309 16.1932C32.7634 15.9389 33.1182 15.708 33.4956 15.5008L33.0142 14.6242ZM29.8651 17.45C29.5992 17.8304 29.3569 18.2348 29.1379 18.6629L30.0281 19.1184C30.2272 18.7293 30.4461 18.3642 30.6847 18.0229L29.8651 17.45ZM29.1379 18.6629C29.0126 18.9077 28.8963 19.1596 28.7887 19.4185L29.7123 19.8021C29.8099 19.567 29.9152 19.3391 30.0281 19.1184L29.1379 18.6629ZM28.2661 20.9893C28.133 21.5048 28.0284 22.0427 27.9518 22.6026L28.9426 22.7381C29.0142 22.2142 29.1116 21.7147 29.2344 21.2393L28.2661 20.9893ZM27.8103 24.2294C27.7994 24.4963 27.7939 24.7674 27.7939 25.043H28.7939C28.7939 24.7806 28.7991 24.523 28.8094 24.2702L27.8103 24.2294ZM27.7939 25.043C27.7939 25.4752 27.8079 25.897 27.8358 26.3081L28.8335 26.2402C28.8072 25.8528 28.7939 25.4538 28.7939 25.043H27.7939ZM28.2155 28.8263C28.3194 29.2509 28.4426 29.6611 28.5854 30.0565L29.5259 29.7169C29.3957 29.3564 29.2827 28.9804 29.1869 28.5888L28.2155 28.8263ZM28.5868 30.0604C28.7163 30.4102 28.8586 30.748 29.0136 31.0737L29.9166 30.6439C29.7748 30.3462 29.6441 30.0359 29.5245 29.7131L28.5868 30.0604ZM30.1598 32.9631C30.3858 33.2594 30.6267 33.5408 30.8825 33.8072L31.6039 33.1147C31.3745 32.8758 31.1582 32.6232 30.9549 32.3566L30.1598 32.9631ZM30.8872 33.8121C31.1366 34.0649 31.397 34.3027 31.6684 34.5253L32.3026 33.7522C32.0588 33.5522 31.8243 33.338 31.5991 33.1098L30.8872 33.8121ZM33.4379 35.6832C33.7493 35.8423 34.0708 35.9861 34.4022 36.1146L34.7638 35.1823C34.4635 35.0658 34.1733 34.936 33.8929 34.7927L33.4379 35.6832ZM34.4038 36.1152C34.7543 36.2498 35.1132 36.3667 35.4804 36.4661L35.7418 35.5009C35.4069 35.4102 35.0804 35.3038 34.7622 35.1816L34.4038 36.1152ZM37.7006 36.8466C38.0676 36.876 38.4411 36.8906 38.8213 36.8906V35.8906C38.4668 35.8906 38.1199 35.877 37.7805 35.8498L37.7006 36.8466ZM38.8213 36.8906C39.2171 36.8906 39.6042 36.8767 39.9826 36.8486L39.9086 35.8513C39.556 35.8775 39.1936 35.8906 38.8213 35.8906V36.8906ZM42.2902 36.4736C42.6761 36.3728 43.0504 36.2536 43.413 36.1158L43.0577 35.181C42.7298 35.3057 42.3897 35.4141 42.0375 35.5061L42.2902 36.4736ZM43.4114 36.1164C43.7474 35.99 44.072 35.8487 44.385 35.6925L43.9384 34.7978C43.657 34.9382 43.364 35.0658 43.0593 35.1805L43.4114 36.1164ZM46.1727 34.5338C46.447 34.3074 46.708 34.0651 46.9555 33.8071L46.2339 33.1148C46.013 33.345 45.7804 33.5609 45.5361 33.7626L46.1727 34.5338ZM46.9554 33.8072C47.2108 33.5412 47.4501 33.2602 47.6733 32.9643L46.8749 32.3621C46.6754 32.6266 46.4618 32.8774 46.234 33.1147L46.9554 33.8072ZM48.7931 31.0677C48.9417 30.7402 49.0762 30.4005 49.1966 30.0488L48.2506 29.7247C48.1401 30.0473 48.0173 30.3573 47.8824 30.6547L48.7931 31.0677ZM49.1953 30.0527C49.3345 29.657 49.4546 29.2467 49.5558 28.8219L48.583 28.5902C48.4895 28.9827 48.3791 29.3595 48.252 29.7208L49.1953 30.0527ZM49.9251 26.3062C49.9523 25.8957 49.9658 25.4746 49.9658 25.043H48.9658C48.9658 25.4537 48.9529 25.8527 48.9273 26.2401L49.9251 26.3062ZM33.8682 25.043C33.8682 25.3667 33.8759 25.6801 33.8916 25.9829L34.8903 25.9312C34.8756 25.6468 34.8682 25.3507 34.8682 25.043H33.8682ZM34.1189 27.8705C34.1856 28.2 34.266 28.5128 34.3607 28.8086L35.3131 28.5039C35.2307 28.2462 35.1591 27.9691 35.099 27.672L34.1189 27.8705ZM34.3607 28.8086C34.4371 29.0475 34.524 29.2751 34.6217 29.491L35.5328 29.0786C35.4521 28.9004 35.3787 28.7089 35.3131 28.5039L34.3607 28.8086ZM35.4345 30.7486C35.6088 30.9396 35.7983 31.1117 36.003 31.2642L36.6005 30.4623C36.4479 30.3486 36.3056 30.2196 36.1734 30.0747L35.4345 30.7486ZM36.003 31.2642C36.2129 31.4206 36.4392 31.5548 36.6811 31.6671L37.1022 30.7601C36.9206 30.6758 36.7537 30.5765 36.6005 30.4623L36.003 31.2642ZM38.1572 32.0652C38.3959 32.0922 38.6434 32.1055 38.8994 32.1055V31.1055C38.6779 31.1055 38.4681 31.094 38.2697 31.0715L38.1572 32.0652ZM38.8994 32.1055C39.1525 32.1055 39.3972 32.0922 39.6331 32.0652L39.5193 31.0717C39.3242 31.094 39.1177 31.1055 38.8994 31.1055V32.1055ZM41.0924 31.6657C41.331 31.553 41.5541 31.4183 41.7605 31.2614L41.1555 30.4652C41.006 30.5788 40.843 30.6776 40.6654 30.7615L41.0924 31.6657ZM41.7567 31.2642C41.9614 31.1117 42.1505 30.9396 42.3239 30.7485L41.5832 30.0766C41.4525 30.2207 41.3112 30.3491 41.1593 30.4623L41.7567 31.2642ZM43.1281 29.487C43.2236 29.2705 43.3079 29.0423 43.3813 28.8028L42.4253 28.5097C42.3625 28.7144 42.2917 28.9056 42.2132 29.0835L43.1281 29.487ZM43.3795 28.8086C43.4742 28.5128 43.5546 28.2 43.6214 27.8705L42.6413 27.672C42.5811 27.9691 42.5096 28.2462 42.4271 28.5039L43.3795 28.8086ZM43.8486 25.9829C43.8643 25.6801 43.8721 25.3667 43.8721 25.043H42.8721C42.8721 25.3507 42.8647 25.6468 42.85 25.9312L43.8486 25.9829ZM43.8721 25.043C43.8721 24.7203 43.8645 24.4087 43.8492 24.1082L42.8505 24.159C42.8648 24.4413 42.8721 24.7359 42.8721 25.043H43.8721ZM43.6237 22.2287C43.5563 21.8983 43.4747 21.5862 43.3783 21.2931L42.4283 21.6054C42.5113 21.8578 42.5833 22.132 42.6438 22.4286L43.6237 22.2287ZM43.3808 21.3008C43.3072 21.0639 43.2226 20.8383 43.1268 20.6244L42.2142 21.0331C42.2925 21.2079 42.3632 21.3959 42.4258 21.5976L43.3808 21.3008ZM42.3196 19.3809C42.1459 19.1935 41.9565 19.0252 41.7516 18.8765L41.1644 19.686C41.3156 19.7957 41.4562 19.9204 41.5862 20.0607L42.3196 19.3809ZM41.7516 18.8765C41.5408 18.7236 41.3137 18.5926 41.0712 18.4832L40.66 19.3948C40.8428 19.4772 41.0106 19.5744 41.1644 19.686L41.7516 18.8765ZM39.5992 18.0975C39.3615 18.0714 39.1152 18.0586 38.8604 18.0586V19.0586C39.0817 19.0586 39.2915 19.0697 39.4899 19.0915L39.5992 18.0975ZM38.8604 18.0586C38.4841 18.0586 38.1255 18.0873 37.7858 18.1464L37.9571 19.1316C38.234 19.0835 38.5347 19.0586 38.8604 19.0586V18.0586ZM35.7559 19.0559C35.4694 19.2978 35.2196 19.5812 35.0061 19.9035L35.8396 20.4559C36.0035 20.2087 36.1908 19.9975 36.4011 19.8199L35.7559 19.0559ZM35.0037 19.907C34.7651 20.2738 34.5673 20.6892 34.4074 21.1492L35.352 21.4775C35.4894 21.0822 35.6537 20.7418 35.842 20.4524L35.0037 19.907ZM33.9137 23.7463C33.8833 24.1571 33.8682 24.5894 33.8682 25.043H34.8682C34.8682 24.6114 34.8825 24.2039 34.911 23.8203L33.9137 23.7463ZM48.7236 29.8867L47.7803 29.5548L47.7776 29.5626L48.7236 29.8867ZM46.5947 33.4609L45.8733 32.7684L45.8731 32.7686L46.5947 33.4609ZM43.2354 35.6484L42.8832 34.7125L42.8801 34.7137L43.2354 35.6484ZM34.583 35.6484L34.2215 36.5808L34.2247 36.582L34.583 35.6484ZM31.2432 33.4609L30.5217 34.1535L30.5313 34.1632L31.2432 33.4609ZM29.0557 29.8867L28.1151 30.2264L28.1179 30.234L29.0557 29.8867ZM29.583 18.8906L30.4733 19.3461L29.583 18.8906ZM44.3682 15.0625L43.8837 15.9373L43.8868 15.939L44.3682 15.0625ZM48.0986 18.8906L47.2168 19.3623L47.2197 19.3676L48.0986 18.8906ZM41.458 30.8633L40.8605 30.0614L40.8529 30.0671L41.458 30.8633ZM42.9033 28.6562L41.9508 28.3515L41.9473 28.3631L42.9033 28.6562ZM42.9033 21.4492L41.9484 21.746L41.9508 21.7538L41.9533 21.7615L42.9033 21.4492ZM41.458 19.2812L40.8708 20.0907L41.458 19.2812ZM35.4229 20.1797L34.5892 19.6273L34.5846 19.6343L35.4229 20.1797ZM50.4658 25.043C50.4658 24.759 50.4599 24.4792 50.4479 24.2036L48.4498 24.2903C48.4605 24.5361 48.4658 24.787 48.4658 25.043H50.4658ZM50.2917 22.5185C50.2072 21.9378 50.0914 21.378 49.9435 20.8398L48.015 21.3696C48.1396 21.8234 48.2391 22.3022 48.3126 22.8067L50.2917 22.5185ZM49.3639 19.2014C49.245 18.9318 49.1162 18.6692 48.9776 18.4137L47.2197 19.3676C47.3319 19.5743 47.4367 19.7879 47.534 20.0087L49.3639 19.2014ZM48.9804 18.419C48.7427 17.9745 48.4814 17.5534 48.1962 17.1563L46.5718 18.323C46.8036 18.6458 47.0188 18.992 47.2168 19.3623L48.9804 18.419ZM46.1098 15.0038C45.713 14.7019 45.2927 14.4293 44.8495 14.186L43.8868 15.939C44.2451 16.1358 44.5822 16.3547 44.8989 16.5956L46.1098 15.0038ZM44.8526 14.1877C44.4 13.9371 43.9303 13.7194 43.4438 13.5345L42.7335 15.4041C43.1318 15.5555 43.5151 15.7332 43.8838 15.9373L44.8526 14.1877ZM40.4536 12.8325C39.96 12.7799 39.4549 12.7539 38.9385 12.7539V14.7539C39.3877 14.7539 39.822 14.7765 40.2417 14.8213L40.4536 12.8325ZM38.9385 12.7539C38.4013 12.7539 37.8783 12.7784 37.3697 12.828L37.5639 14.8186C38.004 14.7757 38.4621 14.7539 38.9385 14.7539V12.7539ZM34.2537 13.5162C33.7382 13.7042 33.2446 13.9273 32.7735 14.186L33.7362 15.939C34.1155 15.7307 34.5161 15.5493 34.9387 15.3952L34.2537 13.5162ZM32.7735 14.186C32.3316 14.4287 31.9134 14.7006 31.5195 15.0018L32.7347 16.5903C33.0467 16.3516 33.3804 16.1345 33.7362 15.939L32.7735 14.186ZM29.4553 17.1636C29.1758 17.5634 28.9218 17.9876 28.6928 18.4352L30.4733 19.3461C30.6624 18.9765 30.8696 18.6312 31.0945 18.3094L29.4553 17.1636ZM28.6928 18.4352C28.5614 18.692 28.4395 18.9559 28.327 19.2268L30.174 19.9938C30.2667 19.7707 30.3665 19.5548 30.4733 19.3461L28.6928 18.4352ZM27.782 20.8643C27.6437 21.3999 27.5354 21.957 27.4564 22.5349L29.4379 22.8059C29.5072 22.2999 29.6009 21.8196 29.7185 21.3643L27.782 20.8643ZM27.3107 24.2091C27.2995 24.4829 27.2939 24.7609 27.2939 25.043H29.2939C29.2939 24.7871 29.299 24.5364 29.309 24.2906L27.3107 24.2091ZM27.2939 25.043C27.2939 25.4859 27.3082 25.919 27.337 26.342L29.3324 26.2063C29.3068 25.8308 29.2939 25.4431 29.2939 25.043H27.2939ZM27.7298 28.9451C27.8377 29.3862 27.966 29.8134 28.1151 30.2264L29.9962 29.5471C29.8723 29.204 29.7643 28.8451 29.6726 28.47L27.7298 28.9451ZM28.1179 30.234C28.2525 30.5973 28.4005 30.9489 28.5622 31.2886L30.368 30.429C30.233 30.1453 30.108 29.8488 29.9934 29.5394L28.1179 30.234ZM29.7623 33.2664C29.9996 33.5775 30.2528 33.8733 30.5218 34.1535L31.9646 32.7684C31.7485 32.5433 31.5444 32.3051 31.3525 32.0534L29.7623 33.2664ZM30.5313 34.1632C30.7928 34.4284 31.0662 34.678 31.3512 34.9119L32.6198 33.3657C32.3897 33.1769 32.1681 32.9746 31.9551 32.7587L30.5313 34.1632ZM33.2104 36.1284C33.5373 36.2955 33.8744 36.4462 34.2215 36.5808L34.9445 34.7161C34.6599 34.6057 34.3853 34.4828 34.1204 34.3474L33.2104 36.1284ZM34.2247 36.582C34.5913 36.7227 34.9663 36.845 35.3497 36.9488L35.8724 35.0183C35.5538 34.932 35.2435 34.8308 34.9414 34.7148L34.2247 36.582ZM37.6607 37.345C38.0414 37.3755 38.4283 37.3906 38.8213 37.3906V35.3906C38.4796 35.3906 38.146 35.3775 37.8204 35.3514L37.6607 37.345ZM38.8213 37.3906C39.2289 37.3906 39.6283 37.3762 40.0196 37.3472L39.8716 35.3527C39.5319 35.3779 39.1818 35.3906 38.8213 35.3906V37.3906ZM42.4166 36.9574C42.8193 36.8522 43.2107 36.7276 43.5906 36.5832L42.8801 34.7137C42.5695 34.8317 42.2466 34.9347 41.9111 35.0223L42.4166 36.9574ZM43.5875 36.5844C43.9391 36.4521 44.2794 36.304 44.6083 36.1398L43.715 34.3504C43.4495 34.4829 43.1724 34.6037 42.8832 34.7125L43.5875 36.5844ZM46.491 34.9194C46.7803 34.6806 47.0555 34.4251 47.3163 34.1533L45.8731 32.7686C45.6655 32.985 45.4471 33.1877 45.2178 33.377L46.491 34.9194ZM47.3161 34.1535C47.5853 33.8731 47.8374 33.577 48.0724 33.2654L46.4757 32.0611C46.2881 32.3098 46.0873 32.5455 45.8733 32.7684L47.3161 34.1535ZM49.2485 31.2742C49.4039 30.9316 49.5442 30.577 49.6697 30.2108L47.7776 29.5626C47.672 29.8708 47.5551 30.1659 47.4271 30.4482L49.2485 31.2742ZM49.6669 30.2186C49.8122 29.8058 49.9371 29.3787 50.0422 28.9377L48.0966 28.4744C48.007 28.8507 47.9014 29.2107 47.7803 29.5548L49.6669 30.2186ZM50.424 26.3392C50.452 25.9172 50.4658 25.485 50.4658 25.043H48.4658C48.4658 25.4433 48.4533 25.8313 48.4284 26.2071L50.424 26.3392ZM33.3682 25.043C33.3682 25.3747 33.3761 25.6967 33.3923 26.0087L35.3896 25.9054C35.3754 25.6302 35.3682 25.3428 35.3682 25.043H33.3682ZM33.6288 27.9697C33.6988 28.3154 33.7837 28.6462 33.8845 28.961L35.7893 28.3515C35.713 28.1129 35.6459 27.8536 35.589 27.5727L33.6288 27.9697ZM33.8845 28.961C33.9663 29.2168 34.06 29.4625 34.1662 29.6971L35.9883 28.8725C35.9161 28.713 35.8495 28.5396 35.7893 28.3515L33.8845 28.961ZM35.0651 31.0855C35.2604 31.2996 35.4735 31.4932 35.7043 31.6652L36.8992 30.0614C36.7727 29.9671 36.654 29.8596 36.5428 29.7378L35.0651 31.0855ZM35.7043 31.6652C35.9425 31.8427 36.1985 31.9943 36.4705 32.1206L37.3127 30.3066C37.1613 30.2363 37.0241 30.1544 36.8992 30.0614L35.7043 31.6652ZM38.101 32.562C38.3599 32.5913 38.6262 32.6055 38.8994 32.6055V30.6055C38.6951 30.6055 38.5041 30.5949 38.3259 30.5747L38.101 32.562ZM38.8994 32.6055C39.1699 32.6055 39.4337 32.5913 39.6901 32.5619L39.4623 30.5749C39.2877 30.5949 39.1003 30.6055 38.8994 30.6055V32.6055ZM41.3059 32.1178C41.5751 31.9907 41.8281 31.8381 42.0631 31.6594L40.8529 30.0671C40.732 30.159 40.5989 30.2399 40.4519 30.3093L41.3059 32.1178ZM42.0555 31.6652C42.2865 31.493 42.4995 31.299 42.6942 31.0844L41.2129 29.7407C41.1035 29.8613 40.9861 29.9678 40.8605 30.0614L42.0555 31.6652ZM43.5856 29.6888C43.6896 29.453 43.7806 29.2063 43.8594 28.9494L41.9473 28.3631C41.8898 28.5505 41.8257 28.7231 41.7557 28.8817L43.5856 29.6888ZM43.8557 28.961C43.9565 28.6462 44.0414 28.3154 44.1114 27.9697L42.1512 27.5727C42.0943 27.8536 42.0272 28.1129 41.9509 28.3515L43.8557 28.961ZM44.3479 26.0087C44.3641 25.6967 44.3721 25.3747 44.3721 25.043H42.3721C42.3721 25.3428 42.3649 25.6302 42.3506 25.9054L44.3479 26.0087ZM44.3721 25.043C44.3721 24.7125 44.3643 24.3923 44.3485 24.0828L42.3511 24.1844C42.365 24.4576 42.3721 24.7437 42.3721 25.043H44.3721ZM44.1136 22.1288C44.0427 21.7815 43.9564 21.4504 43.8533 21.1369L41.9533 21.7615C42.0296 21.9935 42.0969 22.2488 42.1539 22.5285L44.1136 22.1288ZM43.8583 21.1524C43.7792 20.8979 43.6877 20.6535 43.5832 20.42L41.7579 21.2375C41.8274 21.3927 41.8912 21.5619 41.9484 21.746L43.8583 21.1524ZM42.6863 19.041C42.4908 18.83 42.277 18.6399 42.0452 18.4718L40.8708 20.0907C40.9952 20.1809 41.1113 20.2839 41.2195 20.4006L42.6863 19.041ZM42.0452 18.4718C41.806 18.2982 41.5492 18.1503 41.2768 18.0274L40.4544 19.8505C40.6073 19.9195 40.7455 19.9998 40.8708 20.0907L42.0452 18.4718ZM39.6538 17.6005C39.3966 17.5723 39.1319 17.5586 38.8604 17.5586V19.5586C39.065 19.5586 39.2565 19.5689 39.4353 19.5885L39.6538 17.6005ZM38.8604 17.5586C38.4588 17.5586 38.0713 17.5893 37.7001 17.6538L38.0428 19.6242C38.2882 19.5816 38.56 19.5586 38.8604 19.5586V17.5586ZM35.4333 18.6739C35.1088 18.9479 34.8277 19.2674 34.5893 19.6273L36.2564 20.7321C36.3954 20.5224 36.5514 20.3474 36.7236 20.202L35.4333 18.6739ZM34.5846 19.6343C34.3208 20.0398 34.1063 20.4926 33.9351 20.9851L35.8242 21.6417C35.9504 21.2787 36.0979 20.9757 36.2611 20.725L34.5846 19.6343ZM33.4151 23.7093C33.3836 24.1337 33.3682 24.5784 33.3682 25.043H35.3682C35.3682 24.6224 35.3822 24.2274 35.4096 23.8573L33.4151 23.7093ZM74.2314 14.1641H74.7314V13.6641H74.2314V14.1641ZM74.2314 36V36.5H74.7314V36H74.2314ZM68.2549 36H67.7549V36.5H68.2549V36ZM68.2549 18.6367H68.7549V18.1367H68.2549V18.6367ZM60.3447 18.6367V18.1367H59.8447V18.6367H60.3447ZM60.3447 36V36.5H60.8447V36H60.3447ZM54.3877 36H53.8877V36.5H54.3877V36ZM54.3877 14.1641V13.6641H53.8877V14.1641H54.3877ZM74.2314 13.6641H73.2393V14.6641H74.2314V13.6641ZM71.2549 13.6641H69.2705V14.6641H71.2549V13.6641ZM67.2861 13.6641H65.3018V14.6641H67.2861V13.6641ZM63.3174 13.6641H61.333V14.6641H63.3174V13.6641ZM59.3486 13.6641H57.3643V14.6641H59.3486V13.6641ZM55.3799 13.6641H54.3877V14.6641H55.3799V13.6641ZM53.8877 14.1641V15.2559H54.8877V14.1641H53.8877ZM53.8877 17.4395V19.623H54.8877V17.4395H53.8877ZM53.8877 21.8066V23.9902H54.8877V21.8066H53.8877ZM53.8877 26.1738V28.3574H54.8877V26.1738H53.8877ZM53.8877 30.541V32.7246H54.8877V30.541H53.8877ZM53.8877 34.9082V36H54.8877V34.9082H53.8877ZM54.3877 36.5H55.877V35.5H54.3877V36.5ZM58.8555 36.5H60.3447V35.5H58.8555V36.5ZM60.8447 36V34.9148H59.8447V36H60.8447ZM60.8447 32.7444V30.574H59.8447V32.7444H60.8447ZM60.8447 28.4036V26.2332H59.8447V28.4036H60.8447ZM60.8447 24.0627V21.8923H59.8447V24.0627H60.8447ZM60.8447 19.7219V18.6367H59.8447V19.7219H60.8447ZM60.3447 19.1367H61.3335V18.1367H60.3447V19.1367ZM63.311 19.1367H65.2886V18.1367H63.311V19.1367ZM67.2661 19.1367H68.2549V18.1367H67.2661V19.1367ZM67.7549 18.6367V19.7219H68.7549V18.6367H67.7549ZM67.7549 21.8923V24.0627H68.7549V21.8923H67.7549ZM67.7549 26.2332V28.4036H68.7549V26.2332H67.7549ZM67.7549 30.574V32.7444H68.7549V30.574H67.7549ZM67.7549 34.9148V36H68.7549V34.9148H67.7549ZM68.2549 36.5H69.749V35.5H68.2549V36.5ZM72.7373 36.5H74.2314V35.5H72.7373V36.5ZM74.7314 36V34.9082H73.7314V36H74.7314ZM74.7314 32.7246V30.541H73.7314V32.7246H74.7314ZM74.7314 28.3574V26.1738H73.7314V28.3574H74.7314ZM74.7314 23.9902V21.8066H73.7314V23.9902H74.7314ZM74.7314 19.623V17.4395H73.7314V19.623H74.7314ZM74.7314 15.2559V14.1641H73.7314V15.2559H74.7314ZM74.2314 14.1641H75.2314V13.1641H74.2314V14.1641ZM74.2314 36V37H75.2314V36H74.2314ZM68.2549 36H67.2549V37H68.2549V36ZM68.2549 18.6367H69.2549V17.6367H68.2549V18.6367ZM60.3447 18.6367V17.6367H59.3447V18.6367H60.3447ZM60.3447 36V37H61.3447V36H60.3447ZM54.3877 36H53.3877V37H54.3877V36ZM54.3877 14.1641V13.1641H53.3877V14.1641H54.3877ZM74.2314 13.1641H73.2393V15.1641H74.2314V13.1641ZM71.2549 13.1641H69.2705V15.1641H71.2549V13.1641ZM67.2861 13.1641H65.3018V15.1641H67.2861V13.1641ZM63.3174 13.1641H61.333V15.1641H63.3174V13.1641ZM59.3486 13.1641H57.3643V15.1641H59.3486V13.1641ZM55.3799 13.1641H54.3877V15.1641H55.3799V13.1641ZM53.3877 14.1641V15.2559H55.3877V14.1641H53.3877ZM53.3877 17.4395V19.623H55.3877V17.4395H53.3877ZM53.3877 21.8066V23.9902H55.3877V21.8066H53.3877ZM53.3877 26.1738V28.3574H55.3877V26.1738H53.3877ZM53.3877 30.541V32.7246H55.3877V30.541H53.3877ZM53.3877 34.9082V36H55.3877V34.9082H53.3877ZM54.3877 37H55.877V35H54.3877V37ZM58.8555 37H60.3447V35H58.8555V37ZM61.3447 36V34.9148H59.3447V36H61.3447ZM61.3447 32.7444V30.574H59.3447V32.7444H61.3447ZM61.3447 28.4036V26.2332H59.3447V28.4036H61.3447ZM61.3447 24.0627V21.8923H59.3447V24.0627H61.3447ZM61.3447 19.7219V18.6367H59.3447V19.7219H61.3447ZM60.3447 19.6367H61.3335V17.6367H60.3447V19.6367ZM63.311 19.6367H65.2886V17.6367H63.311V19.6367ZM67.2661 19.6367H68.2549V17.6367H67.2661V19.6367ZM67.2549 18.6367V19.7219H69.2549V18.6367H67.2549ZM67.2549 21.8923V24.0627H69.2549V21.8923H67.2549ZM67.2549 26.2332V28.4036H69.2549V26.2332H67.2549ZM67.2549 30.574V32.7444H69.2549V30.574H67.2549ZM67.2549 34.9148V36H69.2549V34.9148H67.2549ZM68.2549 37H69.749V35H68.2549V37ZM72.7373 37H74.2314V35H72.7373V37ZM75.2314 36V34.9082H73.2314V36H75.2314ZM75.2314 32.7246V30.541H73.2314V32.7246H75.2314ZM75.2314 28.3574V26.1738H73.2314V28.3574H75.2314ZM75.2314 23.9902V21.8066H73.2314V23.9902H75.2314ZM75.2314 19.623V17.4395H73.2314V19.623H75.2314ZM75.2314 15.2559V14.1641H73.2314V15.2559H75.2314Z" fill="#55246A" mask="url(#path-1-outside-1_9699_259407)"/>
    <path d="M14.9424 36H8.8877V12.4844H1.13379V7.44531H22.6963V12.4844H14.9424V36ZM46.4658 25.043C46.4658 26.8659 46.2184 28.4805 45.7236 29.8867C45.2419 31.293 44.5322 32.4844 43.5947 33.4609C42.6702 34.4245 41.5505 35.1536 40.2354 35.6484C38.9333 36.1432 37.4619 36.3906 35.8213 36.3906C34.2848 36.3906 32.8721 36.1432 31.583 35.6484C30.307 35.1536 29.1937 34.4245 28.2432 33.4609C27.3057 32.4844 26.5765 31.293 26.0557 29.8867C25.5479 28.4805 25.2939 26.8659 25.2939 25.043C25.2939 22.6211 25.7236 20.5703 26.583 18.8906C27.4424 17.2109 28.6663 15.9349 30.2549 15.0625C31.8434 14.1901 33.738 13.7539 35.9385 13.7539C37.9827 13.7539 39.7926 14.1901 41.3682 15.0625C42.9567 15.9349 44.2002 17.2109 45.0986 18.8906C46.0101 20.5703 46.4658 22.6211 46.4658 25.043ZM31.3682 25.043C31.3682 26.4753 31.5244 27.6797 31.8369 28.6562C32.1494 29.6328 32.6377 30.3685 33.3018 30.8633C33.9658 31.3581 34.8317 31.6055 35.8994 31.6055C36.9541 31.6055 37.807 31.3581 38.458 30.8633C39.1221 30.3685 39.6038 29.6328 39.9033 28.6562C40.2158 27.6797 40.3721 26.4753 40.3721 25.043C40.3721 23.5977 40.2158 22.3997 39.9033 21.4492C39.6038 20.4857 39.1221 19.763 38.458 19.2812C37.7939 18.7995 36.9281 18.5586 35.8604 18.5586C34.2848 18.5586 33.139 19.099 32.4229 20.1797C31.7197 21.2604 31.3682 22.8815 31.3682 25.043ZM71.2314 14.1641V36H65.2549V18.6367H57.3447V36H51.3877V14.1641H71.2314Z" fill="white"/>
</svg>
