<svg width="138" height="54" viewBox="0 0 138 54" fill="none" xmlns="http://www.w3.org/2000/svg">
<mask id="path-1-outside-1_5558_60660" maskUnits="userSpaceOnUse" x="2" y="11" width="88" height="38" fill="black">
<rect fill="white" x="2" y="11" width="88" height="38"/>
<path d="M20.5312 47H13.2656V18.7812H3.96094V12.7344H29.8359V18.7812H20.5312V47ZM58.3594 33.8516C58.3594 36.0391 58.0625 37.9766 57.4688 39.6641C56.8906 41.3516 56.0391 42.7812 54.9141 43.9531C53.8047 45.1094 52.4609 45.9844 50.8828 46.5781C49.3203 47.1719 47.5547 47.4688 45.5859 47.4688C43.7422 47.4688 42.0469 47.1719 40.5 46.5781C38.9688 45.9844 37.6328 45.1094 36.4922 43.9531C35.3672 42.7812 34.4922 41.3516 33.8672 39.6641C33.2578 37.9766 32.9531 36.0391 32.9531 33.8516C32.9531 30.9453 33.4688 28.4844 34.5 26.4688C35.5312 24.4531 37 22.9219 38.9062 21.875C40.8125 20.8281 43.0859 20.3047 45.7266 20.3047C48.1797 20.3047 50.3516 20.8281 52.2422 21.875C54.1484 22.9219 55.6406 24.4531 56.7188 26.4688C57.8125 28.4844 58.3594 30.9453 58.3594 33.8516ZM40.2422 33.8516C40.2422 35.5703 40.4297 37.0156 40.8047 38.1875C41.1797 39.3594 41.7656 40.2422 42.5625 40.8359C43.3594 41.4297 44.3984 41.7266 45.6797 41.7266C46.9453 41.7266 47.9688 41.4297 48.75 40.8359C49.5469 40.2422 50.125 39.3594 50.4844 38.1875C50.8594 37.0156 51.0469 35.5703 51.0469 33.8516C51.0469 32.1172 50.8594 30.6797 50.4844 29.5391C50.125 28.3828 49.5469 27.5156 48.75 26.9375C47.9531 26.3594 46.9141 26.0703 45.6328 26.0703C43.7422 26.0703 42.3672 26.7188 41.5078 28.0156C40.6641 29.3125 40.2422 31.2578 40.2422 33.8516ZM88.0781 20.7969V47H80.9062V26.1641H71.4141V47H64.2656V20.7969H88.0781Z"/>
</mask>
<path d="M20.5312 47V47.5H21.0312V47H20.5312ZM13.2656 47H12.7656V47.5H13.2656V47ZM13.2656 18.7812H13.7656V18.2812H13.2656V18.7812ZM3.96094 18.7812H3.46094V19.2812H3.96094V18.7812ZM3.96094 12.7344V12.2344H3.46094V12.7344H3.96094ZM29.8359 12.7344H30.3359V12.2344H29.8359V12.7344ZM29.8359 18.7812V19.2812H30.3359V18.7812H29.8359ZM20.5312 18.7812V18.2812H20.0312V18.7812H20.5312ZM20.5312 46.5H19.623V47.5H20.5312V46.5ZM17.8066 46.5H15.9902V47.5H17.8066V46.5ZM14.1738 46.5H13.2656V47.5H14.1738V46.5ZM13.7656 47V45.9922H12.7656V47H13.7656ZM13.7656 43.9766V41.9609H12.7656V43.9766H13.7656ZM13.7656 39.9453V37.9297H12.7656V39.9453H13.7656ZM13.7656 35.9141V33.8984H12.7656V35.9141H13.7656ZM13.7656 31.8828V29.8672H12.7656V31.8828H13.7656ZM13.7656 27.8516V25.8359H12.7656V27.8516H13.7656ZM13.7656 23.8203V21.8047H12.7656V23.8203H13.7656ZM13.7656 19.7891V18.7812H12.7656V19.7891H13.7656ZM13.2656 18.2812H12.1025V19.2812H13.2656V18.2812ZM9.77637 18.2812H7.4502V19.2812H9.77637V18.2812ZM5.12402 18.2812H3.96094V19.2812H5.12402V18.2812ZM4.46094 18.7812V18.0254H3.46094V18.7812H4.46094ZM4.46094 16.5137V15.002H3.46094V16.5137H4.46094ZM4.46094 13.4902V12.7344H3.46094V13.4902H4.46094ZM3.96094 13.2344H5.03906V12.2344H3.96094V13.2344ZM7.19531 13.2344H9.35156V12.2344H7.19531V13.2344ZM11.5078 13.2344H13.6641V12.2344H11.5078V13.2344ZM15.8203 13.2344H17.9766V12.2344H15.8203V13.2344ZM20.1328 13.2344H22.2891V12.2344H20.1328V13.2344ZM24.4453 13.2344H26.6016V12.2344H24.4453V13.2344ZM28.7578 13.2344H29.8359V12.2344H28.7578V13.2344ZM29.3359 12.7344V13.4902H30.3359V12.7344H29.3359ZM29.3359 15.002V16.5137H30.3359V15.002H29.3359ZM29.3359 18.0254V18.7812H30.3359V18.0254H29.3359ZM29.8359 18.2812H28.6729V19.2812H29.8359V18.2812ZM26.3467 18.2812H24.0205V19.2812H26.3467V18.2812ZM21.6943 18.2812H20.5312V19.2812H21.6943V18.2812ZM20.0312 18.7812V19.7891H21.0312V18.7812H20.0312ZM20.0312 21.8047V23.8203H21.0312V21.8047H20.0312ZM20.0312 25.8359V27.8516H21.0312V25.8359H20.0312ZM20.0312 29.8672V31.8828H21.0312V29.8672H20.0312ZM20.0312 33.8984V35.9141H21.0312V33.8984H20.0312ZM20.0312 37.9297V39.9453H21.0312V37.9297H20.0312ZM20.0312 41.9609V43.9766H21.0312V41.9609H20.0312ZM20.0312 45.9922V47H21.0312V45.9922H20.0312ZM20.5312 47V48H21.5312V47H20.5312ZM13.2656 47H12.2656V48H13.2656V47ZM13.2656 18.7812H14.2656V17.7812H13.2656V18.7812ZM3.96094 18.7812H2.96094V19.7812H3.96094V18.7812ZM3.96094 12.7344V11.7344H2.96094V12.7344H3.96094ZM29.8359 12.7344H30.8359V11.7344H29.8359V12.7344ZM29.8359 18.7812V19.7812H30.8359V18.7812H29.8359ZM20.5312 18.7812V17.7812H19.5312V18.7812H20.5312ZM20.5312 46H19.623V48H20.5312V46ZM17.8066 46H15.9902V48H17.8066V46ZM14.1738 46H13.2656V48H14.1738V46ZM14.2656 47V45.9922H12.2656V47H14.2656ZM14.2656 43.9766V41.9609H12.2656V43.9766H14.2656ZM14.2656 39.9453V37.9297H12.2656V39.9453H14.2656ZM14.2656 35.9141V33.8984H12.2656V35.9141H14.2656ZM14.2656 31.8828V29.8672H12.2656V31.8828H14.2656ZM14.2656 27.8516V25.8359H12.2656V27.8516H14.2656ZM14.2656 23.8203V21.8047H12.2656V23.8203H14.2656ZM14.2656 19.7891V18.7812H12.2656V19.7891H14.2656ZM13.2656 17.7812H12.1025V19.7812H13.2656V17.7812ZM9.77637 17.7812H7.4502V19.7812H9.77637V17.7812ZM5.12402 17.7812H3.96094V19.7812H5.12402V17.7812ZM4.96094 18.7812V18.0254H2.96094V18.7812H4.96094ZM4.96094 16.5137V15.002H2.96094V16.5137H4.96094ZM4.96094 13.4902V12.7344H2.96094V13.4902H4.96094ZM3.96094 13.7344H5.03906V11.7344H3.96094V13.7344ZM7.19531 13.7344H9.35156V11.7344H7.19531V13.7344ZM11.5078 13.7344H13.6641V11.7344H11.5078V13.7344ZM15.8203 13.7344H17.9766V11.7344H15.8203V13.7344ZM20.1328 13.7344H22.2891V11.7344H20.1328V13.7344ZM24.4453 13.7344H26.6016V11.7344H24.4453V13.7344ZM28.7578 13.7344H29.8359V11.7344H28.7578V13.7344ZM28.8359 12.7344V13.4902H30.8359V12.7344H28.8359ZM28.8359 15.002V16.5137H30.8359V15.002H28.8359ZM28.8359 18.0254V18.7812H30.8359V18.0254H28.8359ZM29.8359 17.7812H28.6729V19.7812H29.8359V17.7812ZM26.3467 17.7812H24.0205V19.7812H26.3467V17.7812ZM21.6943 17.7812H20.5312V19.7812H21.6943V17.7812ZM19.5312 18.7812V19.7891H21.5312V18.7812H19.5312ZM19.5312 21.8047V23.8203H21.5312V21.8047H19.5312ZM19.5312 25.8359V27.8516H21.5312V25.8359H19.5312ZM19.5312 29.8672V31.8828H21.5312V29.8672H19.5312ZM19.5312 33.8984V35.9141H21.5312V33.8984H19.5312ZM19.5312 37.9297V39.9453H21.5312V37.9297H19.5312ZM19.5312 41.9609V43.9766H21.5312V41.9609H19.5312ZM19.5312 45.9922V47H21.5312V45.9922H19.5312ZM57.4688 39.6641L56.9971 39.4981L56.9957 39.502L57.4688 39.6641ZM54.9141 43.9531L54.5534 43.6069L54.5533 43.607L54.9141 43.9531ZM50.8828 46.5781L50.7067 46.1101L50.7052 46.1107L50.8828 46.5781ZM40.5 46.5781L40.3192 47.0443L40.3208 47.0449L40.5 46.5781ZM36.4922 43.9531L36.1315 44.2994L36.1362 44.3043L36.4922 43.9531ZM33.8672 39.6641L33.3969 39.8339L33.3983 39.8377L33.8672 39.6641ZM34.5 26.4688L34.0549 26.241L34.5 26.4688ZM38.9062 21.875L38.6656 21.4367L38.9062 21.875ZM52.2422 21.875L52 22.3124L52.0015 22.3133L52.2422 21.875ZM56.7188 26.4688L56.2779 26.7046L56.2793 26.7072L56.7188 26.4688ZM48.75 40.8359L48.4512 40.435L48.4475 40.4379L48.75 40.8359ZM50.4844 38.1875L50.0081 38.0351L50.0063 38.0409L50.4844 38.1875ZM50.4844 29.5391L50.0068 29.6875L50.0094 29.6952L50.4844 29.5391ZM41.5078 28.0156L41.091 27.7394L41.0887 27.743L41.5078 28.0156ZM58.8594 33.8516C58.8594 33.5206 58.8524 33.195 58.8385 32.8746L57.8395 32.918C57.8527 33.2234 57.8594 33.5346 57.8594 33.8516H58.8594ZM58.6578 30.923C58.5602 30.2529 58.4269 29.6095 58.2576 28.9932L57.2933 29.2581C57.4511 29.8322 57.5762 30.4351 57.6682 31.0672L58.6578 30.923ZM57.5966 27.1242C57.4614 26.8178 57.3153 26.5198 57.1582 26.2303L56.2793 26.7072C56.4232 26.9724 56.5573 27.2459 56.6817 27.5278L57.5966 27.1242ZM57.1596 26.2329C57.0254 25.9819 56.8847 25.7377 56.7377 25.5006L55.8878 26.0275C56.0233 26.2462 56.1534 26.4718 56.2779 26.7046L57.1596 26.2329ZM55.7479 24.1244C55.382 23.685 54.988 23.2776 54.5658 22.9025L53.9016 23.65C54.2858 23.9915 54.6451 24.3628 54.9794 24.7643L55.7479 24.1244ZM53.2123 21.8725C52.9758 21.7192 52.7326 21.5739 52.4829 21.4367L52.0015 22.3133C52.2302 22.4389 52.4525 22.5716 52.6683 22.7116L53.2123 21.8725ZM52.4844 21.4376C52.227 21.2951 51.9647 21.1619 51.6974 21.038L51.2769 21.9453C51.5226 22.0592 51.7636 22.1815 52 22.3124L52.4844 21.4376ZM50.0502 20.4115C49.4973 20.244 48.9267 20.1113 48.3388 20.0133L48.1744 20.9997C48.7213 21.0909 49.2499 21.2139 49.7603 21.3686L50.0502 20.4115ZM46.5988 19.8267C46.3117 19.812 46.0209 19.8047 45.7266 19.8047V20.8047C46.0043 20.8047 46.2781 20.8116 46.5478 20.8254L46.5988 19.8267ZM45.7266 19.8047C45.4196 19.8047 45.1172 19.8116 44.8192 19.8254L44.8656 20.8243C45.1476 20.8113 45.4346 20.8047 45.7266 20.8047V19.8047ZM43.0073 20.0037C42.3888 20.099 41.7926 20.2287 41.2188 20.3932L41.4944 21.3545C42.0255 21.2022 42.5805 21.0813 43.1596 20.9921L43.0073 20.0037ZM39.4913 21.0245C39.2093 21.1519 38.934 21.2893 38.6656 21.4367L39.1469 22.3133C39.3924 22.1785 39.6443 22.0527 39.9029 21.9359L39.4913 21.0245ZM38.6656 21.4367C38.417 21.5732 38.1753 21.7178 37.9405 21.8703L38.4854 22.7089C38.6992 22.5699 38.9197 22.4381 39.1469 22.3133L38.6656 21.4367ZM36.5971 22.8986C36.1782 23.2744 35.789 23.6827 35.4297 24.1231L36.2045 24.7553C36.5315 24.3545 36.885 23.9838 37.2649 23.6429L36.5971 22.8986ZM34.4624 25.5052C34.3197 25.7435 34.1839 25.9888 34.0549 26.241L34.9451 26.6965C35.0643 26.4635 35.1894 26.2376 35.3204 26.0188L34.4624 25.5052ZM34.0549 26.241C33.9058 26.5324 33.7673 26.8322 33.6392 27.1406L34.5627 27.5241C34.6809 27.2396 34.8084 26.9638 34.9451 26.6965L34.0549 26.241ZM33.0166 29.0122C32.8579 29.6268 32.733 30.2684 32.6416 30.9367L33.6324 31.0722C33.7189 30.4399 33.8365 29.8366 33.9848 29.2622L33.0166 29.0122ZM32.4726 32.8794C32.4596 33.1982 32.4531 33.5222 32.4531 33.8516H33.4531C33.4531 33.5354 33.4594 33.2249 33.4718 32.9202L32.4726 32.8794ZM32.4531 33.8516C32.4531 34.3681 32.4698 34.8719 32.5032 35.3629L33.5009 35.2951C33.4691 34.8278 33.4531 34.3467 33.4531 33.8516H32.4531ZM32.9561 38.3679C33.08 38.8741 33.2268 39.3628 33.3969 39.8339L34.3375 39.4942C34.18 39.0581 34.0433 38.6035 33.9275 38.1303L32.9561 38.3679ZM33.3983 39.8377C33.5528 40.2548 33.7223 40.6574 33.9071 41.0455L34.81 40.6157C34.6386 40.2556 34.4806 39.8805 34.3361 39.4904L33.3983 39.8377ZM35.2717 43.2951C35.5406 43.6476 35.8272 43.9824 36.1315 44.2994L36.8529 43.6069C36.5751 43.3175 36.313 43.0114 36.0668 42.6886L35.2717 43.2951ZM36.1362 44.3043C36.4331 44.6052 36.743 44.8882 37.0658 45.1531L37.7001 44.38C37.4048 44.1376 37.1208 43.8783 36.8481 43.602L36.1362 44.3043ZM39.1713 46.5308C39.5419 46.7201 39.9246 46.8913 40.3192 47.0443L40.6808 46.1119C40.3174 45.971 39.9659 45.8138 39.6263 45.6403L39.1713 46.5308ZM40.3208 47.0449C40.7382 47.2051 41.1656 47.3444 41.603 47.4629L41.8644 46.4976C41.4593 46.3879 41.0643 46.2592 40.6792 46.1113L40.3208 47.0449ZM44.2491 47.9163C44.6867 47.9513 45.1323 47.9688 45.5859 47.9688V46.9688C45.158 46.9688 44.739 46.9523 44.329 46.9194L44.2491 47.9163ZM45.5859 47.9688C46.0586 47.9688 46.5206 47.9521 46.9721 47.9186L46.8981 46.9213C46.4724 46.9529 46.035 46.9688 45.5859 46.9688V47.9688ZM49.7234 47.4716C50.1831 47.3515 50.6288 47.2095 51.0604 47.0455L50.7052 46.1107C50.3082 46.2616 49.8967 46.3928 49.4706 46.5041L49.7234 47.4716ZM51.0589 47.0461C51.4589 46.8956 51.8452 46.7274 52.2177 46.5415L51.7711 45.6468C51.4303 45.8169 51.0756 45.9714 50.7067 46.1101L51.0589 47.0461ZM54.344 45.1635C54.6701 44.8942 54.9805 44.6061 55.2749 44.2993L54.5533 43.607C54.2855 43.8861 54.0035 44.1478 53.7074 44.3922L54.344 45.1635ZM55.2748 44.2994C55.5784 43.983 55.863 43.6489 56.1285 43.2969L55.3301 42.6948C55.0884 43.0153 54.8295 43.3193 54.5534 43.6069L55.2748 44.2994ZM57.4611 41.04C57.638 40.6499 57.7982 40.2452 57.9418 39.8261L56.9957 39.502C56.8621 39.8921 56.7136 40.267 56.5504 40.6269L57.4611 41.04ZM57.9404 39.83C58.1063 39.3587 58.2494 38.8696 58.37 38.3631L57.3972 38.1314C57.2843 38.6056 57.1508 39.0611 56.9971 39.4981L57.9404 39.83ZM58.8107 35.3608C58.8432 34.8705 58.8594 34.3674 58.8594 33.8516H57.8594C57.8594 34.3465 57.8439 34.8276 57.8129 35.2948L58.8107 35.3608ZM39.7422 33.8516C39.7422 34.2385 39.7515 34.6127 39.7702 34.9743L40.7689 34.9226C40.7511 34.5795 40.7422 34.2225 40.7422 33.8516H39.7422ZM40.041 37.2247C40.1205 37.6169 40.2161 37.9888 40.3285 38.3399L41.2809 38.0351C41.1807 37.7221 41.094 37.386 41.0211 37.0262L40.041 37.2247ZM40.3285 38.3399C40.4191 38.6232 40.522 38.8926 40.6376 39.1479L41.5486 38.7356C41.4501 38.5179 41.3607 38.2846 41.2809 38.0351L40.3285 38.3399ZM41.5957 40.6309C41.8006 40.8555 42.0233 41.0577 42.2638 41.2369L42.8612 40.435C42.6729 40.2947 42.4974 40.1355 42.3346 39.957L41.5957 40.6309ZM42.2638 41.2369C42.51 41.4203 42.7756 41.5779 43.0598 41.7098L43.4809 40.8028C43.257 40.6989 43.0507 40.5762 42.8612 40.435L42.2638 41.2369ZM44.8003 42.1789C45.0827 42.2108 45.376 42.2266 45.6797 42.2266V41.2266C45.4104 41.2266 45.1549 41.2126 44.9127 41.1852L44.8003 42.1789ZM45.6797 42.2266C45.9799 42.2266 46.2697 42.2108 46.5488 42.1788L46.4349 41.1853C46.1967 41.2127 45.9451 41.2266 45.6797 41.2266V42.2266ZM48.2685 41.7084C48.5488 41.5761 48.8105 41.418 49.0525 41.234L48.4475 40.4379C48.2624 40.5785 48.0607 40.7007 47.8415 40.8042L48.2685 41.7084ZM49.0487 41.2369C49.2891 41.0578 49.5112 40.8556 49.715 40.631L48.9743 39.9591C48.8132 40.1368 48.6389 40.2952 48.4513 40.435L49.0487 41.2369ZM50.6627 39.1441C50.7756 38.8881 50.8753 38.618 50.9624 38.3341L50.0063 38.0409C49.9299 38.2901 49.8436 38.5232 49.7477 38.7405L50.6627 39.1441ZM50.9606 38.3399C51.0729 37.9888 51.1686 37.6169 51.248 37.2247L50.2679 37.0262C50.1951 37.386 50.1083 37.7221 50.0082 38.0351L50.9606 38.3399ZM51.5189 34.9743C51.5376 34.6127 51.5469 34.2385 51.5469 33.8516H50.5469C50.5469 34.2225 50.538 34.5795 50.5202 34.9226L51.5189 34.9743ZM51.5469 33.8516C51.5469 33.4659 51.5378 33.0937 51.5195 32.7349L50.5208 32.7857C50.5382 33.1263 50.5469 33.4815 50.5469 33.8516H51.5469ZM51.2508 30.4945C51.1706 30.1013 51.0737 29.7306 50.9594 29.3829L50.0094 29.6952C50.1103 30.0022 50.1977 30.335 50.271 30.6943L51.2508 30.4945ZM50.9618 29.3907C50.8746 29.1099 50.7745 28.8429 50.6613 28.5901L49.7487 28.9989C49.8444 29.2125 49.9306 29.4419 50.0069 29.6875L50.9618 29.3907ZM49.7106 27.1251C49.5065 26.9049 49.2841 26.7073 49.0436 26.5328L48.4564 27.3422C48.6433 27.4778 48.8168 27.6318 48.9772 27.8048L49.7106 27.1251ZM49.0436 26.5328C48.7964 26.3534 48.5298 26.1996 48.2447 26.071L47.8335 26.9826C48.0588 27.0842 48.2662 27.2042 48.4564 27.3422L49.0436 26.5328ZM46.5085 25.6164C46.2272 25.5855 45.9353 25.5703 45.6328 25.5703V26.5703C45.9018 26.5703 46.1572 26.5838 46.3992 26.6104L46.5085 25.6164ZM45.6328 25.5703C45.1863 25.5703 44.7619 25.6044 44.3604 25.6742L44.5318 26.6594C44.8703 26.6006 45.237 26.5703 45.6328 26.5703V25.5703ZM41.972 26.7435C41.6358 27.0273 41.3423 27.3602 41.091 27.7394L41.9246 28.2918C42.1262 27.9876 42.3572 27.7271 42.6171 27.5075L41.972 26.7435ZM41.0887 27.743C40.9428 27.9672 40.8097 28.2071 40.6889 28.4621L41.5927 28.8902C41.6956 28.6727 41.8072 28.4723 41.9269 28.2883L41.0887 27.743ZM40.1553 29.9779C40.0337 30.4578 39.9396 30.9745 39.8722 31.527L40.8648 31.6481C40.9278 31.1318 41.0147 30.6572 41.1246 30.2236L40.1553 29.9779ZM39.7551 33.0781C39.7465 33.3298 39.7422 33.5876 39.7422 33.8516H40.7422C40.7422 33.5984 40.7463 33.352 40.7545 33.1122L39.7551 33.0781ZM57.4688 39.6641L56.5254 39.3321L56.5227 39.34L57.4688 39.6641ZM54.9141 43.9531L54.1927 43.2606L54.1925 43.2608L54.9141 43.9531ZM50.8828 46.5781L50.5307 45.6422L50.5276 45.6433L50.8828 46.5781ZM40.5 46.5781L40.1385 47.5105L40.1417 47.5117L40.5 46.5781ZM36.4922 43.9531L35.7707 44.6457L35.7803 44.6554L36.4922 43.9531ZM33.8672 39.6641L32.9266 40.0037L32.9294 40.0114L33.8672 39.6641ZM34.5 26.4688L33.6098 26.0133L34.5 26.4688ZM38.9062 21.875L38.4249 20.9985L38.9062 21.875ZM52.2422 21.875L51.7578 22.7498L51.7608 22.7515L52.2422 21.875ZM56.7188 26.4688L55.8369 26.9404L55.8398 26.9457L56.7188 26.4688ZM48.75 40.8359L48.1525 40.034L48.1449 40.0398L48.75 40.8359ZM50.4844 38.1875L49.5319 37.8827L49.5283 37.8943L50.4844 38.1875ZM50.4844 29.5391L49.5294 29.8359L49.5319 29.8436L49.5344 29.8514L50.4844 29.5391ZM41.5078 28.0156L40.6742 27.4632L40.6696 27.4703L41.5078 28.0156ZM59.3594 33.8516C59.3594 33.5136 59.3523 33.1808 59.3381 32.8529L57.3399 32.9397C57.3529 33.2377 57.3594 33.5416 57.3594 33.8516H59.3594ZM59.1526 30.851C59.0522 30.1617 58.9149 29.4981 58.7397 28.8607L56.8112 29.3906C56.9631 29.9435 57.0842 30.5262 57.1734 31.1392L59.1526 30.851ZM58.0541 26.9224C57.9135 26.6038 57.7614 26.2935 57.5977 25.9918L55.8398 26.9457C55.9771 27.1986 56.1052 27.4599 56.2242 27.7297L58.0541 26.9224ZM57.6005 25.9971C57.4613 25.7369 57.3154 25.4835 57.1626 25.2371L55.4628 26.2909C55.5926 26.5004 55.7174 26.7168 55.837 26.9404L57.6005 25.9971ZM56.1321 23.8045C55.7505 23.3461 55.3391 22.9207 54.8979 22.5287L53.5695 24.0238C53.9348 24.3484 54.2767 24.7017 54.5952 25.0843L56.1321 23.8045ZM53.4843 21.4529C53.2375 21.2929 52.9838 21.1414 52.7236 20.9985L51.7608 22.7515C51.979 22.8713 52.1908 22.9979 52.3963 23.1311L53.4843 21.4529ZM52.7266 21.0002C52.4588 20.8519 52.1858 20.7133 51.9076 20.5844L51.0667 22.399C51.3015 22.5078 51.5319 22.6247 51.7578 22.7498L52.7266 21.0002ZM50.1952 19.933C49.6209 19.759 49.0294 19.6216 48.4211 19.5201L48.0922 21.4929C48.6187 21.5807 49.1262 21.6989 49.6153 21.8471L50.1952 19.933ZM46.6244 19.3273C46.3285 19.3122 46.0292 19.3047 45.7266 19.3047V21.3047C45.996 21.3047 46.2613 21.3114 46.5222 21.3247L46.6244 19.3273ZM45.7266 19.3047C45.4121 19.3047 45.102 19.3118 44.7961 19.326L44.8888 21.3238C45.1629 21.3111 45.4421 21.3047 45.7266 21.3047V19.3047ZM42.9311 19.5096C42.293 19.6079 41.6761 19.742 41.0811 19.9125L41.6322 21.8351C42.142 21.689 42.6763 21.5724 43.2357 21.4862L42.9311 19.5096ZM39.2854 20.5689C38.9918 20.7015 38.7049 20.8447 38.4249 20.9985L39.3876 22.7515C39.6215 22.6231 39.8619 22.5031 40.1088 22.3915L39.2854 20.5689ZM38.4249 20.9985C38.1657 21.1408 37.9134 21.2917 37.6681 21.4511L38.7579 23.1281C38.9611 22.996 39.171 22.8705 39.3876 22.7515L38.4249 20.9985ZM36.2632 22.5264C35.8248 22.9197 35.4178 23.3468 35.0423 23.807L36.592 25.0714C36.9028 24.6904 37.2384 24.3385 37.5988 24.0151L36.2632 22.5264ZM34.0333 25.2484C33.8849 25.4964 33.7437 25.7514 33.6098 26.0133L35.3902 26.9242C35.5045 26.7009 35.6243 26.4847 35.7495 26.2755L34.0333 25.2484ZM33.6098 26.0133C33.4545 26.3167 33.3105 26.6285 33.1775 26.9488L35.0245 27.7159C35.1377 27.4433 35.2597 27.1795 35.3902 26.9242L33.6098 26.0133ZM32.5324 28.8872C32.3686 29.5219 32.2401 30.1827 32.1462 30.8689L34.1278 31.14C34.2118 30.5256 34.3258 29.9415 34.4689 29.3872L32.5324 28.8872ZM31.973 32.859C31.9597 33.1848 31.9531 33.5157 31.9531 33.8516H33.9531C33.9531 33.5419 33.9592 33.2383 33.9714 32.9405L31.973 32.859ZM31.9531 33.8516C31.9531 34.3788 31.9701 34.894 32.0043 35.3968L33.9997 35.2611C33.9687 34.8058 33.9531 34.336 33.9531 33.8516H31.9531ZM32.4705 38.4866C32.5983 39.0094 32.7502 39.5152 32.9266 40.0037L34.8077 39.3244C34.6566 38.9057 34.5249 38.4682 34.4132 38.0115L32.4705 38.4866ZM32.9294 40.0114C33.0889 40.4419 33.2642 40.8583 33.4556 41.2604L35.2614 40.4008C35.0967 40.0547 34.9444 39.6934 34.8049 39.3167L32.9294 40.0114ZM34.8742 43.5983C35.1544 43.9657 35.4533 44.3149 35.7708 44.6457L37.2136 43.2606C36.949 42.985 36.6992 42.6933 36.4643 42.3854L34.8742 43.5983ZM35.7803 44.6554C36.0893 44.9687 36.4121 45.2635 36.7487 45.5396L38.0173 43.9934C37.7356 43.7624 37.4646 43.5149 37.2041 43.2508L35.7803 44.6554ZM38.9438 46.976C39.3299 47.1733 39.7282 47.3514 40.1385 47.5105L40.8615 45.6458C40.5137 45.5109 40.1779 45.3606 39.8538 45.195L38.9438 46.976ZM40.1417 47.5117C40.5751 47.6781 41.0187 47.8227 41.4723 47.9455L41.9951 46.015C41.6062 45.9097 41.2273 45.7862 40.8583 45.6445L40.1417 47.5117ZM44.2092 48.4147C44.6605 48.4508 45.1195 48.4688 45.5859 48.4688V46.4688C45.1708 46.4688 44.7652 46.4528 44.3689 46.421L44.2092 48.4147ZM45.5859 48.4688C46.0703 48.4688 46.5447 48.4517 47.0091 48.4172L46.8611 46.4227C46.4483 46.4533 46.0233 46.4688 45.5859 46.4688V48.4688ZM49.8498 47.9554C50.3262 47.8309 50.7891 47.6835 51.238 47.5129L50.5276 45.6433C50.1479 45.7876 49.7536 45.9134 49.3443 46.0203L49.8498 47.9554ZM51.235 47.5141C51.6506 47.3577 52.0527 47.1827 52.441 46.9889L51.5478 45.1994C51.2228 45.3616 50.8839 45.5093 50.5307 45.6422L51.235 47.5141ZM54.6622 45.5491C55.0034 45.2674 55.3279 44.9662 55.6356 44.6455L54.1925 43.2608C53.938 43.526 53.6702 43.7746 53.3891 44.0066L54.6622 45.5491ZM55.6354 44.6457C55.9529 44.3149 56.2504 43.9657 56.5276 43.598L54.9309 42.3937C54.701 42.6985 54.455 42.9874 54.1927 43.2606L55.6354 44.6457ZM57.9165 41.2465C58.1002 40.8413 58.2662 40.4218 58.4148 39.9882L56.5227 39.34C56.3941 39.7155 56.2514 40.0756 56.095 40.4204L57.9165 41.2465ZM58.4121 39.996C58.584 39.5074 58.7319 39.0016 58.8564 38.4789L56.9108 38.0156C56.8018 38.4736 56.6731 38.9124 56.5254 39.3322L58.4121 39.996ZM59.3096 35.3939C59.3429 34.892 59.3594 34.3779 59.3594 33.8516H57.3594C57.3594 34.3361 57.3442 34.8061 57.314 35.2617L59.3096 35.3939ZM39.2422 33.8516C39.2422 34.2465 39.2517 34.6294 39.2709 35.0001L41.2682 34.8968C41.2509 34.5629 41.2422 34.2145 41.2422 33.8516H39.2422ZM39.551 37.324C39.6337 37.7323 39.7338 38.1221 39.8523 38.4923L41.7571 37.8827C41.6631 37.5888 41.5808 37.2705 41.5112 36.9269L39.551 37.324ZM39.8523 38.4923C39.9483 38.7925 40.058 39.08 40.182 39.3541L42.0041 38.5295C41.9141 38.3306 41.8315 38.1153 41.7571 37.8827L39.8523 38.4923ZM41.2263 40.9678C41.4522 41.2155 41.6985 41.4392 41.965 41.6378L43.16 40.0341C42.9977 39.9132 42.8458 39.7756 42.704 39.6201L41.2263 40.9678ZM41.965 41.6378C42.2396 41.8424 42.5349 42.0174 42.8492 42.1633L43.6914 40.3493C43.4977 40.2594 43.3211 40.1541 43.16 40.0341L41.965 41.6378ZM44.744 42.6757C45.0467 42.7099 45.3588 42.7266 45.6797 42.7266V40.7266C45.4276 40.7266 45.1909 40.7135 44.969 40.6884L44.744 42.6757ZM45.6797 42.7266C45.9973 42.7266 46.3062 42.7099 46.6057 42.6756L46.3779 40.6886C46.1602 40.7136 45.9277 40.7266 45.6797 40.7266V42.7266ZM48.482 42.1605C48.7929 42.0138 49.0845 41.8378 49.3551 41.6321L48.1449 40.0398C47.9884 40.1587 47.8167 40.263 47.628 40.352L48.482 42.1605ZM49.3475 41.6378C49.6142 41.4391 49.8602 41.2151 50.0853 40.9669L48.604 39.6232C48.4642 39.7773 48.3138 39.9139 48.1525 40.0341L49.3475 41.6378ZM51.1201 39.3459C51.2416 39.0706 51.348 38.7819 51.4404 38.4807L49.5283 37.8943C49.4572 38.1262 49.3776 38.3407 49.2902 38.5387L51.1201 39.3459ZM51.4368 38.4923C51.5553 38.1221 51.6554 37.7323 51.7381 37.324L49.7779 36.9269C49.7083 37.2705 49.626 37.5888 49.532 37.8827L51.4368 38.4923ZM52.0182 35.0001C52.0374 34.6294 52.0469 34.2465 52.0469 33.8516H50.0469C50.0469 34.2145 50.0381 34.5629 50.0209 34.8968L52.0182 35.0001ZM52.0469 33.8516C52.0469 33.4581 52.0376 33.0773 52.0189 32.7095L50.0215 32.8111C50.0383 33.1426 50.0469 33.4894 50.0469 33.8516H52.0469ZM51.7407 30.3945C51.6571 29.9845 51.5554 29.5948 51.4344 29.2267L49.5344 29.8514C49.6286 30.1379 49.7112 30.4518 49.7811 30.7942L51.7407 30.3945ZM51.4393 29.2423C51.3466 28.9439 51.2396 28.6581 51.1176 28.3857L49.2924 29.2033C49.3793 29.3973 49.4586 29.6079 49.5294 29.8359L51.4393 29.2423ZM50.0773 26.7852C49.8514 26.5414 49.6046 26.322 49.3372 26.1281L48.1628 27.7469C48.3228 27.863 48.4719 27.9953 48.6105 28.1447L50.0773 26.7852ZM49.3372 26.1281C49.0615 25.928 48.7653 25.7573 48.4503 25.6152L47.6279 27.4383C47.8233 27.5265 48.001 27.6296 48.1628 27.7469L49.3372 26.1281ZM46.5631 25.1194C46.2623 25.0864 45.952 25.0703 45.6328 25.0703V27.0703C45.8851 27.0703 46.1222 27.083 46.3446 27.1075L46.5631 25.1194ZM45.6328 25.0703C45.161 25.0703 44.7077 25.1063 44.2748 25.1816L44.6175 27.152C44.9245 27.0986 45.2623 27.0703 45.6328 27.0703V25.0703ZM41.6494 26.3615C41.2752 26.6775 40.9504 27.0464 40.6742 27.4632L42.3414 28.568C42.5181 28.3014 42.7178 28.0769 42.9397 27.8895L41.6494 26.3615ZM40.6696 27.4703C40.5106 27.7146 40.3667 27.9743 40.237 28.2481L42.0445 29.1042C42.1386 28.9056 42.2394 28.7249 42.346 28.561L40.6696 27.4703ZM39.6706 29.8551C39.5431 30.3582 39.4455 30.8958 39.3759 31.4664L41.3611 31.7087C41.4219 31.2104 41.5053 30.7569 41.6093 30.3464L39.6706 29.8551ZM39.2553 33.0611C39.2466 33.3187 39.2422 33.5822 39.2422 33.8516H41.2422C41.2422 33.6038 41.2462 33.363 41.2542 33.1293L39.2553 33.0611ZM88.0781 20.7969H88.5781V20.2969H88.0781V20.7969ZM88.0781 47V47.5H88.5781V47H88.0781ZM80.9062 47H80.4062V47.5H80.9062V47ZM80.9062 26.1641H81.4062V25.6641H80.9062V26.1641ZM71.4141 26.1641V25.6641H70.9141V26.1641H71.4141ZM71.4141 47V47.5H71.9141V47H71.4141ZM64.2656 47H63.7656V47.5H64.2656V47ZM64.2656 20.7969V20.2969H63.7656V20.7969H64.2656ZM88.0781 20.2969H87.0859V21.2969H88.0781V20.2969ZM85.1016 20.2969H83.1172V21.2969H85.1016V20.2969ZM81.1328 20.2969H79.1484V21.2969H81.1328V20.2969ZM77.1641 20.2969H75.1797V21.2969H77.1641V20.2969ZM73.1953 20.2969H71.2109V21.2969H73.1953V20.2969ZM69.2266 20.2969H67.2422V21.2969H69.2266V20.2969ZM65.2578 20.2969H64.2656V21.2969H65.2578V20.2969ZM63.7656 20.7969V21.7327H64.7656V20.7969H63.7656ZM63.7656 23.6044V25.476H64.7656V23.6044H63.7656ZM63.7656 27.3477V29.2193H64.7656V27.3477H63.7656ZM63.7656 31.091V32.9626H64.7656V31.091H63.7656ZM63.7656 34.8343V36.7059H64.7656V34.8343H63.7656ZM63.7656 38.5776V40.4492H64.7656V38.5776H63.7656ZM63.7656 42.3209V44.1925H64.7656V42.3209H63.7656ZM63.7656 46.0642V47H64.7656V46.0642H63.7656ZM64.2656 47.5H65.1592V46.5H64.2656V47.5ZM66.9463 47.5H68.7334V46.5H66.9463V47.5ZM70.5205 47.5H71.4141V46.5H70.5205V47.5ZM71.9141 47V45.9582H70.9141V47H71.9141ZM71.9141 43.8746V41.791H70.9141V43.8746H71.9141ZM71.9141 39.7074V37.6238H70.9141V39.7074H71.9141ZM71.9141 35.5402V33.4566H70.9141V35.5402H71.9141ZM71.9141 31.373V29.2895H70.9141V31.373H71.9141ZM71.9141 27.2059V26.1641H70.9141V27.2059H71.9141ZM71.4141 26.6641H72.6006V25.6641H71.4141V26.6641ZM74.9736 26.6641H77.3467V25.6641H74.9736V26.6641ZM79.7197 26.6641H80.9062V25.6641H79.7197V26.6641ZM80.4062 26.1641V27.2059H81.4062V26.1641H80.4062ZM80.4062 29.2895V31.373H81.4062V29.2895H80.4062ZM80.4062 33.4566V35.5402H81.4062V33.4566H80.4062ZM80.4062 37.6238V39.7074H81.4062V37.6238H80.4062ZM80.4062 41.791V43.8746H81.4062V41.791H80.4062ZM80.4062 45.9582V47H81.4062V45.9582H80.4062ZM80.9062 47.5H81.8027V46.5H80.9062V47.5ZM83.5957 47.5H85.3887V46.5H83.5957V47.5ZM87.1816 47.5H88.0781V46.5H87.1816V47.5ZM88.5781 47V46.0642H87.5781V47H88.5781ZM88.5781 44.1925V42.3209H87.5781V44.1925H88.5781ZM88.5781 40.4492V38.5776H87.5781V40.4492H88.5781ZM88.5781 36.7059V34.8343H87.5781V36.7059H88.5781ZM88.5781 32.9626V31.091H87.5781V32.9626H88.5781ZM88.5781 29.2193V27.3477H87.5781V29.2193H88.5781ZM88.5781 25.476V23.6044H87.5781V25.476H88.5781ZM88.5781 21.7327V20.7969H87.5781V21.7327H88.5781ZM88.0781 20.7969H89.0781V19.7969H88.0781V20.7969ZM88.0781 47V48H89.0781V47H88.0781ZM80.9062 47H79.9062V48H80.9062V47ZM80.9062 26.1641H81.9062V25.1641H80.9062V26.1641ZM71.4141 26.1641V25.1641H70.4141V26.1641H71.4141ZM71.4141 47V48H72.4141V47H71.4141ZM64.2656 47H63.2656V48H64.2656V47ZM64.2656 20.7969V19.7969H63.2656V20.7969H64.2656ZM88.0781 19.7969H87.0859V21.7969H88.0781V19.7969ZM85.1016 19.7969H83.1172V21.7969H85.1016V19.7969ZM81.1328 19.7969H79.1484V21.7969H81.1328V19.7969ZM77.1641 19.7969H75.1797V21.7969H77.1641V19.7969ZM73.1953 19.7969H71.2109V21.7969H73.1953V19.7969ZM69.2266 19.7969H67.2422V21.7969H69.2266V19.7969ZM65.2578 19.7969H64.2656V21.7969H65.2578V19.7969ZM63.2656 20.7969V21.7327H65.2656V20.7969H63.2656ZM63.2656 23.6044V25.476H65.2656V23.6044H63.2656ZM63.2656 27.3477V29.2193H65.2656V27.3477H63.2656ZM63.2656 31.091V32.9626H65.2656V31.091H63.2656ZM63.2656 34.8343V36.7059H65.2656V34.8343H63.2656ZM63.2656 38.5776V40.4492H65.2656V38.5776H63.2656ZM63.2656 42.3209V44.1925H65.2656V42.3209H63.2656ZM63.2656 46.0642V47H65.2656V46.0642H63.2656ZM64.2656 48H65.1592V46H64.2656V48ZM66.9463 48H68.7334V46H66.9463V48ZM70.5205 48H71.4141V46H70.5205V48ZM72.4141 47V45.9582H70.4141V47H72.4141ZM72.4141 43.8746V41.791H70.4141V43.8746H72.4141ZM72.4141 39.7074V37.6238H70.4141V39.7074H72.4141ZM72.4141 35.5402V33.4566H70.4141V35.5402H72.4141ZM72.4141 31.373V29.2895H70.4141V31.373H72.4141ZM72.4141 27.2059V26.1641H70.4141V27.2059H72.4141ZM71.4141 27.1641H72.6006V25.1641H71.4141V27.1641ZM74.9736 27.1641H77.3467V25.1641H74.9736V27.1641ZM79.7197 27.1641H80.9062V25.1641H79.7197V27.1641ZM79.9062 26.1641V27.2059H81.9062V26.1641H79.9062ZM79.9062 29.2895V31.373H81.9062V29.2895H79.9062ZM79.9062 33.4566V35.5402H81.9062V33.4566H79.9062ZM79.9062 37.6238V39.7074H81.9062V37.6238H79.9062ZM79.9062 41.791V43.8746H81.9062V41.791H79.9062ZM79.9062 45.9582V47H81.9062V45.9582H79.9062ZM80.9062 48H81.8027V46H80.9062V48ZM83.5957 48H85.3887V46H83.5957V48ZM87.1816 48H88.0781V46H87.1816V48ZM89.0781 47V46.0642H87.0781V47H89.0781ZM89.0781 44.1925V42.3209H87.0781V44.1925H89.0781ZM89.0781 40.4492V38.5776H87.0781V40.4492H89.0781ZM89.0781 36.7059V34.8343H87.0781V36.7059H89.0781ZM89.0781 32.9626V31.091H87.0781V32.9626H89.0781ZM89.0781 29.2193V27.3477H87.0781V29.2193H89.0781ZM89.0781 25.476V23.6044H87.0781V25.476H89.0781ZM89.0781 21.7327V20.7969H87.0781V21.7327H89.0781Z" fill="#55246A" mask="url(#path-1-outside-1_5558_60660)"/>
<path d="M17.5312 43H10.2656V14.7812H0.960938V8.73438H26.8359V14.7812H17.5312V43ZM55.3594 29.8516C55.3594 32.0391 55.0625 33.9766 54.4688 35.6641C53.8906 37.3516 53.0391 38.7812 51.9141 39.9531C50.8047 41.1094 49.4609 41.9844 47.8828 42.5781C46.3203 43.1719 44.5547 43.4688 42.5859 43.4688C40.7422 43.4688 39.0469 43.1719 37.5 42.5781C35.9688 41.9844 34.6328 41.1094 33.4922 39.9531C32.3672 38.7812 31.4922 37.3516 30.8672 35.6641C30.2578 33.9766 29.9531 32.0391 29.9531 29.8516C29.9531 26.9453 30.4688 24.4844 31.5 22.4688C32.5312 20.4531 34 18.9219 35.9062 17.875C37.8125 16.8281 40.0859 16.3047 42.7266 16.3047C45.1797 16.3047 47.3516 16.8281 49.2422 17.875C51.1484 18.9219 52.6406 20.4531 53.7188 22.4688C54.8125 24.4844 55.3594 26.9453 55.3594 29.8516ZM37.2422 29.8516C37.2422 31.5703 37.4297 33.0156 37.8047 34.1875C38.1797 35.3594 38.7656 36.2422 39.5625 36.8359C40.3594 37.4297 41.3984 37.7266 42.6797 37.7266C43.9453 37.7266 44.9688 37.4297 45.75 36.8359C46.5469 36.2422 47.125 35.3594 47.4844 34.1875C47.8594 33.0156 48.0469 31.5703 48.0469 29.8516C48.0469 28.1172 47.8594 26.6797 47.4844 25.5391C47.125 24.3828 46.5469 23.5156 45.75 22.9375C44.9531 22.3594 43.9141 22.0703 42.6328 22.0703C40.7422 22.0703 39.3672 22.7188 38.5078 24.0156C37.6641 25.3125 37.2422 27.2578 37.2422 29.8516ZM85.0781 16.7969V43H77.9062V22.1641H68.4141V43H61.2656V16.7969H85.0781Z" fill="white"/>
</svg>
