<svg width="64" height="64" viewBox="0 0 64 64" fill="none" xmlns="http://www.w3.org/2000/svg">
<path fill-rule="evenodd" clip-rule="evenodd" d="M32 6C17.6406 6 6 17.6406 6 32C6 39.8202 9.45256 46.8341 14.9166 51.6004C15.3642 47.775 17.087 44.1885 19.8378 41.4378C21.8071 39.4685 24.2047 38.026 26.8117 37.2011C22.8959 35.2811 20.2 31.2554 20.2 26.6C20.2 20.083 25.483 14.8 32 14.8C38.517 14.8 43.8 20.083 43.8 26.6C43.8 31.2554 41.1041 35.2811 37.1883 37.2011C39.7953 38.026 42.1929 39.4685 44.1622 41.4378C46.913 44.1885 48.6358 47.775 49.0834 51.6004C54.5474 46.8341 58 39.8202 58 32C58 17.6406 46.3594 6 32 6ZM47.1919 53.1023C47.0658 49.2517 45.4811 45.585 42.748 42.852C39.8975 40.0014 36.0313 38.4 32 38.4C27.9687 38.4 24.1025 40.0014 21.252 42.852C18.5189 45.585 16.9342 49.2517 16.8081 53.1023C21.0816 56.1842 26.3287 58 32 58C37.6713 58 42.9184 56.1842 47.1919 53.1023ZM32 36.4C37.4124 36.4 41.8 32.0124 41.8 26.6C41.8 21.1876 37.4124 16.8 32 16.8C26.5876 16.8 22.2 21.1876 22.2 26.6C22.2 32.0124 26.5876 36.4 32 36.4ZM4 32C4 16.536 16.536 4 32 4C47.464 4 60 16.536 60 32C60 47.464 47.464 60 32 60C16.536 60 4 47.464 4 32Z" fill="#55246A"/>
</svg>
