<svg width="65" height="64" viewBox="0 0 65 64" fill="none" xmlns="http://www.w3.org/2000/svg">
<path fill-rule="evenodd" clip-rule="evenodd" d="M40.333 42C41.9899 42 43.333 43.3431 43.333 45C43.333 46.6569 41.9899 48 40.333 48H24.333C22.6762 48 21.333 46.6569 21.333 45C21.333 43.3431 22.6762 42 24.333 42H40.333ZM41.333 45C41.333 44.4477 40.8853 44 40.333 44H24.333C23.7807 44 23.333 44.4477 23.333 45C23.333 45.5523 23.7807 46 24.333 46H40.333C40.8853 46 41.333 45.5523 41.333 45Z" fill="#F7A600"/>
<path fill-rule="evenodd" clip-rule="evenodd" d="M11.333 6C10.7807 6 10.333 6.44772 10.333 7V12H9.33301C8.78072 12 8.33301 12.4477 8.33301 13V20H7.33301C6.78072 20 6.33301 20.4477 6.33301 21V30H5.33301C4.78072 30 4.33301 30.4477 4.33301 31V57C4.33301 57.5523 4.78072 58 5.33301 58H59.333C59.8853 58 60.333 57.5523 60.333 57V31C60.333 30.4477 59.8853 30 59.333 30H58.333V21C58.333 20.4477 57.8853 20 57.333 20H56.333V13C56.333 12.4477 55.8853 12 55.333 12H54.333V7C54.333 6.44772 53.8853 6 53.333 6H11.333ZM52.333 12V8H12.333V12H52.333ZM10.333 14V20H54.333V14H10.333ZM8.33301 22H56.333V30H41.333C40.9542 30 40.608 30.214 40.4386 30.5528L38.715 34H25.951L24.2274 30.5528C24.058 30.214 23.7118 30 23.333 30H8.33301V22ZM22.715 32L24.4386 35.4472C24.608 35.786 24.9542 36 25.333 36H39.333C39.7118 36 40.058 35.786 40.2274 35.4472L41.951 32H58.333V56H6.33301V32H22.715Z" fill="#F7A600"/>
</svg>
