<svg width="65" height="64" viewBox="0 0 65 64" fill="none" xmlns="http://www.w3.org/2000/svg">
<path fill-rule="evenodd" clip-rule="evenodd" d="M32.2494 5.09094C32.5139 4.96969 32.8181 4.96969 33.0827 5.09094L60.0827 17.4659C60.4381 17.6289 60.666 17.984 60.666 18.375V23C60.666 23.5523 60.2183 24 59.666 24C59.1137 24 58.666 23.5523 58.666 23V19.0167L32.666 7.10003L6.66602 19.0167V22H37.666C38.2183 22 38.666 22.4477 38.666 23C38.666 23.5523 38.2183 24 37.666 24H8.66602V28H32.666C33.2183 28 33.666 28.4477 33.666 29C33.666 29.5523 33.2183 30 32.666 30H29.666V49H36.666C37.2183 49 37.666 49.4477 37.666 50C37.666 50.5523 37.2183 51 36.666 51H8.66602V53H59.666C60.2183 53 60.666 53.4477 60.666 54V58C60.666 58.5523 60.2183 59 59.666 59H5.66602C5.11373 59 4.66602 58.5523 4.66602 58V54C4.66602 53.4477 5.11373 53 5.66602 53H6.66602V50C6.66602 49.4477 7.11373 49 7.66602 49H10.666V30H7.66602C7.11373 30 6.66602 29.5523 6.66602 29V24H5.66602C5.11373 24 4.66602 23.5523 4.66602 23V18.375C4.66602 17.984 4.89391 17.6289 5.24936 17.4659L32.2494 5.09094ZM27.666 30H20.666V49H27.666V30ZM12.666 49V30H18.666V49H12.666ZM6.66602 55H58.666V57H6.66602V55Z" fill="#76B82A"/>
<path d="M48.666 29C49.2183 29 49.666 29.4477 49.666 30V39C49.666 39.5523 49.2183 40 48.666 40C48.1137 40 47.666 39.5523 47.666 39V30C47.666 29.4477 48.1137 29 48.666 29Z" fill="#76B82A"/>
<path d="M48.666 42C49.2183 42 49.666 42.4477 49.666 43V43.5C49.666 44.0523 49.2183 44.5 48.666 44.5C48.1137 44.5 47.666 44.0523 47.666 43.5V43C47.666 42.4477 48.1137 42 48.666 42Z" fill="#76B82A"/>
<path fill-rule="evenodd" clip-rule="evenodd" d="M34.666 37C34.666 29.3943 40.7868 23 48.666 23C56.5453 23 62.666 29.3943 62.666 37C62.666 40.2323 61.5607 43.2452 59.6865 45.6404C59.665 45.6679 59.6573 45.702 59.6615 45.7305C59.6632 45.7419 59.6672 45.7496 59.6672 45.7496L59.6683 45.7503L62.1812 47.2967C63.8987 48.3536 63.1496 51 61.133 51H48.666C40.992 51 34.666 44.6156 34.666 37ZM48.666 25C41.9162 25 36.666 30.4739 36.666 37C36.666 43.5163 42.1019 49 48.666 49H61.133L58.6201 47.4536C57.518 46.7754 57.3922 45.327 58.1114 44.4079C59.7193 42.353 60.666 39.7711 60.666 37C60.666 30.4739 55.4158 25 48.666 25Z" fill="#76B82A"/>
</svg>
