<svg width="65" height="64" viewBox="0 0 65 64" fill="none" xmlns="http://www.w3.org/2000/svg">
<path fill-rule="evenodd" clip-rule="evenodd" d="M44.6665 7C44.6665 5.34315 43.3234 4 41.6665 4H23.6665C22.0096 4 20.6665 5.34315 20.6665 7V11H7.6665C6.00965 11 4.6665 12.3431 4.6665 14V30.2745C4.6665 31.5654 5.48752 32.6873 6.6665 33.1033V53C6.6665 53.5523 7.11422 54 7.6665 54H35.6665C36.2188 54 36.6665 53.5523 36.6665 53C36.6665 52.4477 36.2188 52 35.6665 52H8.6665V33.4554L27.6665 36.2702V39C27.6665 40.1046 28.5619 41 29.6665 41H35.6665C36.7711 41 37.6665 40.1046 37.6665 39V36.2702L56.6665 33.4554V36.75C56.6665 37.3023 57.1142 37.75 57.6665 37.75C58.2188 37.75 58.6665 37.3023 58.6665 36.75V33.1033C59.8455 32.6873 60.6665 31.5654 60.6665 30.2745V14C60.6665 12.3431 59.3234 11 57.6665 11L44.6665 11V7ZM35.6665 35.3898C35.6663 35.4007 35.6663 35.4116 35.6665 35.4226V39H29.6665V35.4226C29.6667 35.4116 29.6667 35.4007 29.6665 35.3898V31H35.6665V35.3898ZM37.6665 34.2483L57.8131 31.2637C58.3034 31.191 58.6665 30.7702 58.6665 30.2745V14C58.6665 13.4477 58.2188 13 57.6665 13H7.6665C7.11422 13 6.6665 13.4477 6.6665 14V30.2745C6.6665 30.7702 7.02962 31.191 7.51995 31.2637L27.6665 34.2483V31C27.6665 29.8954 28.5619 29 29.6665 29H35.6665C36.7711 29 37.6665 29.8954 37.6665 31V34.2483ZM42.6665 11V7C42.6665 6.44772 42.2188 6 41.6665 6L23.6665 6C23.1142 6 22.6665 6.44772 22.6665 7V11L42.6665 11Z" fill="#F7A600"/>
<path d="M54.3156 45.2393C54.7358 45.5978 54.7857 46.229 54.4272 46.6491L49.3072 52.6491C49.1172 52.8718 48.8392 53 48.5465 53C48.2538 53 47.9758 52.8718 47.7858 52.6491L44.9058 49.2741C44.5473 48.854 44.5973 48.2228 45.0174 47.8643C45.4375 47.5058 46.0687 47.5558 46.4272 47.9759L48.5465 50.4595L52.9058 45.3509C53.2643 44.9308 53.8955 44.8808 54.3156 45.2393Z" fill="#F7A600"/>
<path fill-rule="evenodd" clip-rule="evenodd" d="M49.5913 38C43.3902 38 38.6665 43.0349 38.6665 49C38.6665 54.9751 43.5504 60 49.5913 60C55.7728 60 60.6665 54.985 60.6665 49C60.6665 43.015 55.7728 38 49.5913 38ZM40.6665 49C40.6665 44.0945 44.5393 40 49.5913 40C54.6629 40 58.6665 44.1143 58.6665 49C58.6665 53.8857 54.6629 58 49.5913 58C44.6798 58 40.6665 53.8955 40.6665 49Z" fill="#F7A600"/>
</svg>
