<svg width="64" height="64" viewBox="0 0 64 64" fill="none" xmlns="http://www.w3.org/2000/svg">
<path d="M8 29C8 28.4477 8.44772 28 9 28H21C21.5523 28 22 28.4477 22 29C22 29.5523 21.5523 30 21 30H9C8.44772 30 8 29.5523 8 29Z" fill="#76B82A"/>
<path d="M54.8321 38.5547C55.1384 38.0952 55.0142 37.4743 54.5547 37.1679C54.0952 36.8616 53.4743 36.9858 53.1679 37.4453L49.8446 42.4304L47.7071 40.2929C47.3166 39.9024 46.6834 39.9024 46.2929 40.2929C45.9024 40.6834 45.9024 41.3166 46.2929 41.7071L49.2929 44.7071C49.5047 44.919 49.8004 45.0247 50.0985 44.9951C50.3967 44.9656 50.6659 44.804 50.8321 44.5547L54.8321 38.5547Z" fill="#76B82A"/>
<path fill-rule="evenodd" clip-rule="evenodd" d="M4 17V44C4 45.6569 5.34315 47 7 47H40.9894C41.6753 48.3353 42.6521 49.4822 43.7061 50.4308C45.6971 52.2227 48.0722 53.4115 49.6838 53.9487C49.8891 54.0171 50.111 54.0171 50.3163 53.9487C51.9208 53.4138 54.2969 52.2524 56.2913 50.4708C58.2879 48.6871 60.0001 46.1872 60.0001 43V32C60.0001 31.4477 59.5523 31 59.0001 31H53V17C53 15.3431 51.6569 14 50 14H7C5.34315 14 4 15.3431 4 17ZM7 16C6.44772 16 6 16.4477 6 17V23H51V17C51 16.4477 50.5523 16 50 16H7ZM51 31V25H6V44C6 44.5523 6.44772 45 7 45H40.2389C40.085 44.3656 40.0001 43.6986 40.0001 43V32C40.0001 31.4477 40.4478 31 41.0001 31H51ZM42.0001 33H58.0001V43C58.0001 45.4128 56.7122 47.4129 54.9588 48.9792C53.3314 50.4331 51.3874 51.4317 50.0006 51.9403C48.6193 51.4306 46.6744 50.4116 45.044 48.9442C43.2848 47.3609 42.0001 45.3599 42.0001 43V33Z" fill="#76B82A"/>
</svg>
