<svg width="65" height="64" viewBox="0 0 65 64" fill="none" xmlns="http://www.w3.org/2000/svg">
<path d="M8.33398 32C8.33398 31.4477 8.7817 31 9.33398 31H21.334C21.8863 31 22.334 31.4477 22.334 32C22.334 32.5523 21.8863 33 21.334 33H9.33398C8.7817 33 8.33398 32.5523 8.33398 32Z" fill="#76B82A"/>
<path d="M43.334 36C43.8863 36 44.334 36.4477 44.334 37V46C44.334 46.5523 43.8863 47 43.334 47C42.7817 47 42.334 46.5523 42.334 46V37C42.334 36.4477 42.7817 36 43.334 36Z" fill="#76B82A"/>
<path d="M43.334 49C43.8863 49 44.334 49.4477 44.334 50V50.5C44.334 51.0523 43.8863 51.5 43.334 51.5C42.7817 51.5 42.334 51.0523 42.334 50.5V50C42.334 49.4477 42.7817 49 43.334 49Z" fill="#76B82A"/>
<path fill-rule="evenodd" clip-rule="evenodd" d="M11.334 15C11.334 13.3431 12.6771 12 14.334 12H57.334C58.9908 12 60.334 13.3431 60.334 15V42C60.334 43.6569 58.9908 45 57.334 45H56.2961C55.7855 51.7124 50.1772 57 43.334 57C38.3185 57 33.9663 54.1597 31.7983 49.9998L31.7793 50H7.33398C5.67713 50 4.33398 48.6569 4.33398 47V20C4.33398 18.3431 5.67713 17 7.33398 17H11.334V15ZM57.334 43H56.2961C56.0855 40.2316 55.0078 37.7055 53.334 35.6929V23H58.334V42C58.334 42.5523 57.8863 43 57.334 43ZM58.334 21H53.334V20C53.334 18.3431 51.9908 17 50.334 17H13.334V15C13.334 14.4477 13.7817 14 14.334 14H57.334C57.8863 14 58.334 14.4477 58.334 15V21ZM7.33398 19C6.7817 19 6.33398 19.4477 6.33398 20V26H51.334V20C51.334 19.4477 50.8863 19 50.334 19H7.33398ZM51.334 33.7523V28H6.33398V47C6.33398 47.5523 6.7817 48 7.33398 48H30.961C30.5539 46.7399 30.334 45.3956 30.334 44C30.334 36.8203 36.1543 31 43.334 31C46.351 31 49.128 32.0278 51.334 33.7523ZM32.334 44C32.334 37.9249 37.2589 33 43.334 33C49.4091 33 54.334 37.9249 54.334 44C54.334 50.0751 49.4091 55 43.334 55C37.2589 55 32.334 50.0751 32.334 44Z" fill="#76B82A"/>
</svg>
