<svg width="65" height="64" viewBox="0 0 65 64" fill="none" xmlns="http://www.w3.org/2000/svg">
<path d="M8.66797 33C8.66797 32.4477 9.11568 32 9.66797 32H21.668C22.2203 32 22.668 32.4477 22.668 33C22.668 33.5523 22.2203 34 21.668 34H9.66797C9.11568 34 8.66797 33.5523 8.66797 33Z" fill="#76B82A"/>
<path fill-rule="evenodd" clip-rule="evenodd" d="M11.668 16C11.668 14.3431 13.0111 13 14.668 13H57.668C59.3248 13 60.668 14.3431 60.668 16V43C60.668 44.6569 59.3248 46 57.668 46H53.668V48C53.668 49.6569 52.3248 51 50.668 51H7.66797C6.01111 51 4.66797 49.6569 4.66797 48V21C4.66797 19.3431 6.01111 18 7.66797 18H11.668V16ZM57.668 44H53.668V24H58.668V43C58.668 43.5523 58.2203 44 57.668 44ZM58.668 22H53.668V21C53.668 19.3431 52.3248 18 50.668 18H13.668V16C13.668 15.4477 14.1157 15 14.668 15H57.668C58.2203 15 58.668 15.4477 58.668 16V22ZM51.668 27V21C51.668 20.4477 51.2203 20 50.668 20H7.66797C7.11568 20 6.66797 20.4477 6.66797 21V27H51.668ZM6.66797 29H51.668V48C51.668 48.5523 51.2203 49 50.668 49H7.66797C7.11568 49 6.66797 48.5523 6.66797 48V29Z" fill="#76B82A"/>
</svg>
