<svg width="65" height="64" viewBox="0 0 65 64" fill="none" xmlns="http://www.w3.org/2000/svg">
<path fill-rule="evenodd" clip-rule="evenodd" d="M57.0584 5.09312C55.2876 4.40444 52.9091 4 50.332 4C47.755 4 45.3765 4.40444 43.6056 5.09312C42.7234 5.43622 41.9412 5.86943 41.3625 6.4015C40.7829 6.93437 40.332 7.64238 40.332 8.5C40.332 8.60359 40.3386 8.705 40.3512 8.80417C40.3386 8.8675 40.332 8.93298 40.332 9V14.4396C40.332 14.5564 40.3402 14.6705 40.3559 14.7819C40.3403 14.8521 40.332 14.9251 40.332 15V20.4396C40.332 21.2989 40.7763 22.0134 41.3562 22.5558C41.9344 23.0966 42.7168 23.5376 43.6002 23.8871C45.3728 24.5883 47.7532 25 50.332 25C52.9108 25 55.2913 24.5883 57.0639 23.8871C57.9472 23.5376 58.7296 23.0966 59.3079 22.5558C59.8877 22.0134 60.332 21.2989 60.332 20.4396V15C60.332 14.9251 60.3238 14.8521 60.3082 14.7819C60.3238 14.6705 60.332 14.5564 60.332 14.4396V9C60.332 8.93298 60.3254 8.8675 60.3129 8.80418C60.3255 8.705 60.332 8.60359 60.332 8.5C60.332 7.64238 59.8812 6.93437 59.3016 6.4015C58.7229 5.86943 57.9407 5.43622 57.0584 5.09312ZM57.9479 7.87378C58.2792 8.17839 58.332 8.39112 58.332 8.5C58.332 8.60888 58.2792 8.82161 57.9479 9.12622C57.6158 9.43161 57.08 9.7526 56.3335 10.0429C54.8471 10.6209 52.7256 11 50.332 11C47.9385 11 45.817 10.6209 44.3305 10.0429C43.5841 9.7526 43.0483 9.43161 42.7161 9.12622C42.3848 8.82161 42.332 8.60888 42.332 8.5C42.332 8.39112 42.3848 8.17839 42.7161 7.87378C43.0483 7.56839 43.5841 7.2474 44.3305 6.95713C45.817 6.37906 47.9385 6 50.332 6C52.7256 6 54.8471 6.37906 56.3335 6.95713C57.08 7.2474 57.6158 7.56839 57.9479 7.87378ZM42.332 20.4396V17.2745C42.7187 17.5036 43.1461 17.7074 43.6002 17.8871C45.3728 18.5883 47.7532 19 50.332 19C52.9108 19 55.2913 18.5883 57.0639 17.8871C57.5179 17.7074 57.9453 17.5036 58.332 17.2745V20.4396C58.332 20.5634 58.2727 20.7855 57.9417 21.0951C57.609 21.4062 57.0734 21.7324 56.3281 22.0273C54.8434 22.6147 52.7238 23 50.332 23C47.9403 23 45.8207 22.6147 44.3359 22.0273C43.5906 21.7324 43.055 21.4062 42.7224 21.0951C42.3914 20.7855 42.332 20.5634 42.332 20.4396ZM42.332 14.4396V11.3014C42.7203 11.5281 43.1496 11.7295 43.6056 11.9069C45.3765 12.5956 47.755 13 50.332 13C52.9091 13 55.2876 12.5956 57.0584 11.9069C57.5145 11.7295 57.9438 11.5281 58.332 11.3014V14.4396C58.332 14.5634 58.2727 14.7855 57.9417 15.0951C57.609 15.4062 57.0734 15.7324 56.3281 16.0273C54.8434 16.6147 52.7238 17 50.332 17C47.9403 17 45.8207 16.6147 44.3359 16.0273C43.5906 15.7324 43.055 15.4062 42.7224 15.0951C42.3914 14.7855 42.332 14.5634 42.332 14.4396Z" fill="#76B82A"/>
<path d="M26.0937 4.13435C26.3951 4.30868 26.5842 4.62723 26.5928 4.97531L27.0612 23.9377C27.0702 24.3036 26.8786 24.6453 26.5616 24.8283C26.2446 25.0114 25.8529 25.0067 25.5405 24.8159L22.5912 23.0156L11.7528 42.864C11.6216 43.1041 11.3979 43.28 11.1336 43.3508C10.8693 43.4215 10.5876 43.3808 10.3541 43.2383L7.68943 41.6117L8.42317 57.3601L21.6894 50.1578L18.8986 48.4541C18.4432 48.1761 18.2862 47.5896 18.5419 47.1213L25.9978 33.4673L22.5389 31.3559C22.0675 31.0681 21.9186 30.4527 22.2064 29.9813C22.4942 29.5099 23.1096 29.361 23.581 29.6488L27.8532 32.2567C28.3086 32.5347 28.4656 33.1212 28.2098 33.5895L20.7539 47.2435L24.2129 49.355C24.5181 49.5413 24.7006 49.8764 24.6915 50.2338C24.6824 50.5913 24.4832 50.9167 24.1689 51.0873L7.97562 59.8788C7.67304 60.0431 7.30723 60.0402 7.00733 59.8711C6.70742 59.702 6.5156 59.3905 6.49958 59.0465L5.60393 39.8234C5.58671 39.4538 5.77496 39.1049 6.09331 38.9164C6.41166 38.7279 6.80809 38.7305 7.12388 38.9233L10.5004 40.9844L21.3388 21.136C21.4699 20.8959 21.6937 20.72 21.958 20.6492C22.2223 20.5785 22.504 20.6192 22.7375 20.7617L25.0165 22.1529L24.6338 6.6587L11.4022 13.8422L13.7658 15.2851C14.2212 15.5631 14.3781 16.1496 14.1224 16.6179L6.66653 30.2719L10.5527 32.6441C11.0241 32.9319 11.1729 33.5473 10.8852 34.0187C10.5974 34.4901 9.98201 34.639 9.51061 34.3512L4.81115 31.4825C4.35575 31.2045 4.1988 30.618 4.4545 30.1497L11.9104 16.4957L8.87872 14.645C8.57351 14.4587 8.39101 14.1236 8.40007 13.7662C8.40913 13.4087 8.60837 13.0833 8.92263 12.9127L25.116 4.12117C25.422 3.95504 25.7923 3.96003 26.0937 4.13435Z" fill="#76B82A"/>
<path fill-rule="evenodd" clip-rule="evenodd" d="M50.332 39C52.9091 39 55.2876 39.4044 57.0584 40.0931C57.9407 40.4362 58.7229 40.8694 59.3016 41.4015C59.8812 41.9344 60.332 42.6424 60.332 43.5C60.332 43.6036 60.3255 43.705 60.3129 43.8042C60.3254 43.8675 60.332 43.933 60.332 44V49.4396C60.332 49.5564 60.3238 49.6705 60.3082 49.7819C60.3238 49.8521 60.332 49.9251 60.332 50V55.4396C60.332 56.2989 59.8877 57.0134 59.3079 57.5558C58.7296 58.0966 57.9472 58.5376 57.0639 58.8871C55.2913 59.5883 52.9108 60 50.332 60C47.7532 60 45.3728 59.5883 43.6002 58.8871C42.7168 58.5376 41.9344 58.0966 41.3562 57.5558C40.7763 57.0134 40.332 56.2989 40.332 55.4396V50C40.332 49.9251 40.3403 49.8521 40.3559 49.7819C40.3402 49.6705 40.332 49.5564 40.332 49.4396V44C40.332 43.933 40.3386 43.8675 40.3512 43.8042C40.3386 43.705 40.332 43.6036 40.332 43.5C40.332 42.6424 40.7829 41.9344 41.3625 41.4015C41.9412 40.8694 42.7234 40.4362 43.6056 40.0931C45.3765 39.4044 47.755 39 50.332 39ZM58.332 43.5C58.332 43.3911 58.2792 43.1784 57.9479 42.8738C57.6158 42.5684 57.08 42.2474 56.3335 41.9571C54.8471 41.3791 52.7256 41 50.332 41C47.9385 41 45.817 41.3791 44.3305 41.9571C43.5841 42.2474 43.0483 42.5684 42.7161 42.8738C42.3848 43.1784 42.332 43.3911 42.332 43.5C42.332 43.6089 42.3848 43.8216 42.7161 44.1262C43.0483 44.4316 43.5841 44.7526 44.3305 45.0429C45.817 45.6209 47.9385 46 50.332 46C52.7256 46 54.8471 45.6209 56.3335 45.0429C57.08 44.7526 57.6158 44.4316 57.9479 44.1262C58.2792 43.8216 58.332 43.6089 58.332 43.5ZM42.332 52.2745V55.4396C42.332 55.5634 42.3914 55.7855 42.7224 56.0951C43.055 56.4062 43.5906 56.7324 44.3359 57.0273C45.8207 57.6147 47.9403 58 50.332 58C52.7238 58 54.8434 57.6147 56.3281 57.0273C57.0734 56.7324 57.609 56.4062 57.9417 56.0951C58.2727 55.7855 58.332 55.5634 58.332 55.4396V52.2745C57.9453 52.5036 57.5179 52.7074 57.0639 52.8871C55.2913 53.5883 52.9108 54 50.332 54C47.7532 54 45.3728 53.5883 43.6002 52.8871C43.1461 52.7074 42.7187 52.5036 42.332 52.2745ZM42.332 46.3014V49.4396C42.332 49.5634 42.3914 49.7855 42.7224 50.0951C43.055 50.4062 43.5906 50.7324 44.3359 51.0273C45.8207 51.6147 47.9403 52 50.332 52C52.7238 52 54.8434 51.6147 56.3281 51.0273C57.0734 50.7324 57.609 50.4062 57.9417 50.0951C58.2727 49.7855 58.332 49.5634 58.332 49.4396V46.3014C57.9438 46.5281 57.5145 46.7295 57.0584 46.9069C55.2876 47.5956 52.9091 48 50.332 48C47.755 48 45.3765 47.5956 43.6056 46.9069C43.1496 46.7295 42.7203 46.5281 42.332 46.3014Z" fill="#76B82A"/>
</svg>
