<svg width="65" height="64" viewBox="0 0 65 64" fill="none" xmlns="http://www.w3.org/2000/svg">
<path fill-rule="evenodd" clip-rule="evenodd" d="M4.33325 35C4.33325 35.5523 4.78097 36 5.33325 36H16.3333C16.8855 36 17.3333 35.5523 17.3333 35C17.3333 26.1319 24.279 19 32.7777 19C41.2764 19 48.2221 26.1319 48.2221 35C48.2221 35.5523 48.6699 36 49.2221 36H59.3333C59.8855 36 60.3333 35.5523 60.3333 35C60.3333 19.536 47.7972 7 32.3333 7C16.8693 7 4.33325 19.536 4.33325 35ZM31.3333 9.01888C24.4515 9.27912 18.2545 12.214 13.7519 16.814L20.6922 22.0193C23.4986 19.235 27.2085 17.4089 31.3333 17.0607L31.3333 9.01888ZM6.35213 34C6.57777 28.0333 8.81404 22.5814 12.4029 18.3023L19.3483 23.5114C17.032 26.3926 15.5709 30.0288 15.3598 34H6.35213ZM33.3333 17.0089L33.3333 9.01888C40.4991 9.28987 46.9226 12.4609 51.4637 17.3922L44.9144 22.0703C41.9025 19.0579 37.8385 17.154 33.3333 17.0089ZM46.2546 23.5708C48.5434 26.4425 49.9859 30.0561 50.1956 34H58.3144C58.0995 28.3168 56.0604 23.1005 52.7658 18.9199L46.2546 23.5708Z" fill="#F7A600"/>
<path fill-rule="evenodd" clip-rule="evenodd" d="M30.4132 35C30.148 35 29.8937 35.1054 29.7061 35.2929C29.5186 35.4804 29.4132 35.7348 29.4132 36V45.6252H27.3333C26.781 45.6252 26.3333 46.0729 26.3333 46.6252C26.3333 47.1775 26.781 47.6252 27.3333 47.6252H29.4132V50C29.4132 50.5523 29.8609 51 30.4132 51C30.9655 51 31.4132 50.5523 31.4132 50V47.6252H37.8933C38.4456 47.6252 38.8933 47.1775 38.8933 46.6252C38.8933 46.0729 38.4456 45.6252 37.8933 45.6252H31.4132V44.6701C32.7888 44.6446 34.4184 44.5394 35.8158 44.1198C36.7018 43.8538 37.5787 43.438 38.2425 42.762C38.9321 42.0595 39.3333 41.1338 39.3333 39.9936C39.3333 38.8552 38.9341 37.9208 38.2615 37.1969C37.6101 36.4958 36.7447 36.0357 35.8576 35.7263C34.0956 35.1118 31.9742 35 30.4132 35ZM35.2406 42.2043C34.1044 42.5455 32.715 42.6433 31.4132 42.6692V37.0182C32.6918 37.0664 34.0729 37.222 35.1989 37.6147C35.9068 37.8616 36.4439 38.1789 36.7963 38.5582C37.1274 38.9146 37.3333 39.3636 37.3333 39.9936C37.3333 40.6219 37.1294 41.0409 36.8153 41.3608C36.4753 41.7071 35.9497 41.9914 35.2406 42.2043Z" fill="#F7A600"/>
<path fill-rule="evenodd" clip-rule="evenodd" d="M40.3543 27.0792C40.5756 27.0112 41.0466 26.9048 41.5052 27.1733C41.9841 27.4538 42.1058 27.94 42.1434 28.1727C42.187 28.4418 42.1753 28.726 42.1522 28.9684C42.1053 29.4603 41.9809 30.0542 41.8709 30.5766L41.8632 30.6133C41.7493 31.1546 41.6492 31.6302 41.606 32.0037C41.5959 32.0905 41.5904 32.1606 41.5878 32.2159C42.03 32.6101 42.4472 33.0321 42.837 33.4791C45.0133 35.9751 46.3333 39.2539 46.3333 42.8406C46.3333 50.6491 40.0767 57 32.3333 57C24.5898 57 18.3333 50.6491 18.3333 42.8406C18.3333 35.0321 24.5898 28.6812 32.3333 28.6812C33.887 28.6812 35.3834 28.9376 36.7822 29.4114C36.8448 29.3802 36.9287 29.3334 37.0359 29.2663C37.369 29.0577 37.7693 28.7552 38.22 28.4146L38.2572 28.3864C38.6969 28.0542 39.192 27.681 39.627 27.4209C39.8422 27.2922 40.0947 27.159 40.3543 27.0792ZM37.3921 31.3252C37.1882 31.4014 36.7726 31.53 36.3297 31.3716C35.0808 30.9247 33.7361 30.6812 32.3333 30.6812C25.7173 30.6812 20.3333 36.1137 20.3333 42.8406C20.3333 49.5676 25.7173 55 32.3333 55C38.9492 55 44.3333 49.5676 44.3333 42.8406C44.3333 39.7526 43.1986 36.937 41.3295 34.7935C40.941 34.3479 40.5209 33.9315 40.0727 33.5478C39.6931 33.2228 39.6203 32.7702 39.5987 32.556C39.5725 32.296 39.5907 32.0196 39.6192 31.7736C39.6734 31.3055 39.7908 30.7485 39.8959 30.25L39.9138 30.1648C39.9594 29.948 40.002 29.7432 40.039 29.5527C39.8598 29.683 39.6672 29.8278 39.463 29.9821L39.3901 30.0372C38.9714 30.3538 38.5075 30.7046 38.0973 30.9614C37.8809 31.0969 37.6373 31.2335 37.3921 31.3252ZM40.9418 28.9909C40.9605 28.9852 40.9583 28.9878 40.9395 28.9917L40.9418 28.9909ZM36.6608 29.4614C36.6608 29.4614 36.668 29.4585 36.6808 29.4558C36.6669 29.4606 36.6608 29.4614 36.6608 29.4614ZM41.5921 32.3776C41.5921 32.3776 41.5903 32.3717 41.5888 32.357C41.5917 32.3698 41.5921 32.3776 41.5921 32.3776Z" fill="#F7A600"/>
</svg>
