<svg width="65" height="64" viewBox="0 0 65 64" fill="none" xmlns="http://www.w3.org/2000/svg">
<path fill-rule="evenodd" clip-rule="evenodd" d="M14.352 9C14.0868 9 13.8324 9.10536 13.6449 9.29289C13.4574 9.48043 13.352 9.73478 13.352 10V18.1073H11.832C11.2797 18.1073 10.832 18.555 10.832 19.1073C10.832 19.6596 11.2797 20.1073 11.832 20.1073H13.352V22C13.352 22.5523 13.7997 23 14.352 23C14.9043 23 15.352 22.5523 15.352 22V20.1073H20.4721C21.0243 20.1073 21.4721 19.6596 21.4721 19.1073C21.4721 18.555 21.0243 18.1073 20.4721 18.1073H15.352V17.5704C16.4475 17.5423 17.7266 17.4422 18.8371 17.0928C19.5833 16.8581 20.3335 16.4875 20.9036 15.8793C21.4961 15.247 21.832 14.4227 21.832 13.4231C21.832 12.4248 21.4976 11.5948 20.9221 10.9458C20.365 10.3176 19.6271 9.90835 18.8802 9.63545C17.4021 9.09536 15.6345 9 14.352 9ZM18.2369 15.185C17.3878 15.4521 16.3529 15.5411 15.352 15.5691V11.024C16.3302 11.0731 17.3554 11.2076 18.1938 11.514C18.7519 11.7179 19.1616 11.975 19.4257 12.2728C19.6714 12.5499 19.832 12.9057 19.832 13.4231C19.832 13.9393 19.673 14.2676 19.4442 14.5117C19.193 14.7798 18.7957 15.0092 18.2369 15.185Z" fill="#76B82A"/>
<path fill-rule="evenodd" clip-rule="evenodd" d="M4.33203 16C4.33203 9.37258 9.70461 4 16.332 4C22.9594 4 28.332 9.37258 28.332 16C28.332 22.6274 22.9594 28 16.332 28C9.70461 28 4.33203 22.6274 4.33203 16ZM16.332 6C10.8092 6 6.33203 10.4772 6.33203 16C6.33203 21.5228 10.8092 26 16.332 26C21.8549 26 26.332 21.5228 26.332 16C26.332 10.4772 21.8549 6 16.332 6Z" fill="#76B82A"/>
<path d="M45.332 46C44.7797 46 44.332 46.4477 44.332 47C44.332 47.5523 44.7797 48 45.332 48H47.332V49H45.332C44.7797 49 44.332 49.4477 44.332 50C44.332 50.5523 44.7797 51 45.332 51H47.332V53C47.332 53.5523 47.7797 54 48.332 54C48.8843 54 49.332 53.5523 49.332 53V51H51.332C51.8843 51 52.332 50.5523 52.332 50C52.332 49.4477 51.8843 49 51.332 49H49.332V48H51.332C51.8843 48 52.332 47.5523 52.332 47C52.332 46.4477 51.8843 46 51.332 46H49.6127L53.1129 41.6247C53.4579 41.1935 53.388 40.5642 52.9568 40.2192C52.5255 39.8742 51.8962 39.9441 51.5512 40.3753L48.3321 44.3993L45.1129 40.3753C44.7679 39.9441 44.1386 39.8742 43.7074 40.2192C43.2761 40.5642 43.2062 41.1935 43.5512 41.6247L47.0514 46H45.332Z" fill="#76B82A"/>
<path fill-rule="evenodd" clip-rule="evenodd" d="M36.332 47C36.332 40.3726 41.7046 35 48.332 35C54.9594 35 60.332 40.3726 60.332 47C60.332 53.6274 54.9594 59 48.332 59C41.7046 59 36.332 53.6274 36.332 47ZM48.332 37C42.8092 37 38.332 41.4772 38.332 47C38.332 52.5229 42.8092 57 48.332 57C53.8549 57 58.332 52.5229 58.332 47C58.332 41.4772 53.8549 37 48.332 37Z" fill="#76B82A"/>
<path d="M45.332 16C45.332 16.3482 45.3707 16.6829 45.443 17H48.332C48.8843 17 49.332 17.4477 49.332 18C49.332 18.5523 48.8843 19 48.332 19H46.5439C47.1853 19.629 48.0217 20 48.9035 20C49.9359 20 50.8859 19.507 51.5538 18.6793C51.9006 18.2495 52.5302 18.1822 52.96 18.5291C53.3898 18.8759 53.4571 19.5055 53.1102 19.9353C52.1029 21.1836 50.6018 22 48.9035 22C46.8011 22 45.0297 20.7724 44.0797 19H42.332C41.7797 19 41.332 18.5523 41.332 18C41.332 17.4477 41.7797 17 42.332 17H43.41C43.3587 16.6735 43.332 16.3393 43.332 16H42.332C41.7797 16 41.332 15.5523 41.332 15C41.332 14.4477 41.7797 14 42.332 14H43.6514C44.4063 11.7063 46.4249 10 48.9035 10C50.6018 10 52.1029 10.8164 53.1102 12.0647C53.4571 12.4945 53.3898 13.1241 52.96 13.4709C52.5302 13.8178 51.9006 13.7505 51.5538 13.3207C50.8859 12.493 49.9359 12 48.9035 12C47.6233 12 46.4388 12.782 45.8077 14H48.332C48.8843 14 49.332 14.4477 49.332 15C49.332 15.5523 48.8843 16 48.332 16H45.332Z" fill="#76B82A"/>
<path fill-rule="evenodd" clip-rule="evenodd" d="M48.332 4C41.7046 4 36.332 9.37258 36.332 16C36.332 22.6274 41.7046 28 48.332 28C54.9594 28 60.332 22.6274 60.332 16C60.332 9.37258 54.9594 4 48.332 4ZM38.332 16C38.332 10.4772 42.8092 6 48.332 6C53.8549 6 58.332 10.4772 58.332 16C58.332 21.5228 53.8549 26 48.332 26C42.8092 26 38.332 21.5228 38.332 16Z" fill="#76B82A"/>
<path d="M16.582 40C17.1343 40 17.582 40.4477 17.582 41V41.7056C18.4864 41.9081 19.1545 42.386 19.6054 42.9969C20.1708 43.763 20.332 44.6496 20.332 45.242C20.332 45.7943 19.8843 46.242 19.332 46.242C18.7797 46.242 18.332 45.7943 18.332 45.242C18.332 44.9538 18.2433 44.5193 17.9962 44.1846C17.7872 43.9014 17.4045 43.6 16.582 43.6C15.6288 43.6 15.1758 43.8514 14.9539 44.0787C14.7266 44.3116 14.582 44.683 14.582 45.242C14.582 45.3583 14.6092 45.3996 14.6277 45.4242C14.6587 45.4654 14.7357 45.5395 14.9187 45.6287C15.2966 45.813 15.8193 45.9273 16.5224 46.0811L16.6713 46.1137C17.3638 46.2656 18.2463 46.4658 18.9489 46.8882C19.3186 47.1105 19.6749 47.4139 19.9358 47.8363C20.2006 48.2651 20.332 48.7603 20.332 49.3067C20.332 50.3878 19.8076 51.2132 19.0465 51.7275C18.6071 52.0243 18.1015 52.212 17.582 52.3115V53C17.582 53.5523 17.1343 54 16.582 54C16.0297 54 15.582 53.5523 15.582 53V52.2979C14.9492 52.1737 14.3295 51.9347 13.7998 51.5717C12.973 51.0052 12.332 50.1017 12.332 48.9003C12.332 48.348 12.7797 47.9003 13.332 47.9003C13.8843 47.9003 14.332 48.348 14.332 48.9003C14.332 49.3078 14.5268 49.6454 14.9304 49.9219C15.3551 50.213 15.9662 50.3929 16.5931 50.3998C17.1565 50.406 17.6283 50.272 17.9267 50.0703C18.1876 49.894 18.332 49.6651 18.332 49.3067C18.332 49.0911 18.2837 48.9675 18.2341 48.8872C18.1805 48.8004 18.0877 48.7041 17.9183 48.6022C17.5428 48.3765 16.9878 48.2307 16.2427 48.0672C16.1781 48.053 16.1115 48.0386 16.0433 48.0239C15.4157 47.8883 14.6502 47.7228 14.0423 47.4265C13.6862 47.2529 13.3139 47.004 13.0305 46.628C12.7346 46.2353 12.582 45.7653 12.582 45.242C12.582 44.359 12.8125 43.4094 13.5227 42.6818C14.0439 42.1478 14.7408 41.8178 15.582 41.6779V41C15.582 40.4477 16.0297 40 16.582 40Z" fill="#76B82A"/>
<path fill-rule="evenodd" clip-rule="evenodd" d="M16.332 35C9.70461 35 4.33203 40.3726 4.33203 47C4.33203 53.6274 9.70461 59 16.332 59C22.9594 59 28.332 53.6274 28.332 47C28.332 40.3726 22.9594 35 16.332 35ZM6.33203 47C6.33203 41.4772 10.8092 37 16.332 37C21.8549 37 26.332 41.4772 26.332 47C26.332 52.5229 21.8549 57 16.332 57C10.8092 57 6.33203 52.5229 6.33203 47Z" fill="#76B82A"/>
<path d="M27.3824 36.9498C26.9919 36.5593 26.9919 35.9261 27.3824 35.5356L30.9179 32.0001L27.3822 28.4645C26.9917 28.0739 26.9917 27.4408 27.3822 27.0502C27.7728 26.6597 28.4059 26.6597 28.7965 27.0502L32.3321 30.5859L35.8677 27.0503C36.2582 26.6598 36.8914 26.6598 37.2819 27.0503C37.6724 27.4408 37.6724 28.074 37.2819 28.4645L33.7463 32.0001L37.2817 35.5355C37.6723 35.9261 37.6723 36.5592 37.2817 36.9497C36.8912 37.3403 36.2581 37.3403 35.8675 36.9497L32.3321 33.4143L28.7966 36.9498C28.4061 37.3403 27.7729 37.3403 27.3824 36.9498Z" fill="#76B82A"/>
</svg>
