<svg width="65" height="64" viewBox="0 0 65 64" fill="none" xmlns="http://www.w3.org/2000/svg">
<path fill-rule="evenodd" clip-rule="evenodd" d="M7.33398 6C6.7817 6 6.33398 6.44772 6.33398 7V53C6.33398 53.5523 6.7817 54 7.33398 54H37.7793C38.3316 54 38.7793 54.4477 38.7793 55C38.7793 55.5523 38.3316 56 37.7793 56H17.334V58C17.334 59.1046 16.4386 60 15.334 60H11.334C10.2294 60 9.33398 59.1046 9.33398 58V56H7.33398C5.67713 56 4.33398 54.6569 4.33398 53V7C4.33398 5.34315 5.67713 4 7.33398 4H57.334C58.9908 4 60.334 5.34315 60.334 7V30C60.334 30.5523 59.8863 31 59.334 31C58.7817 31 58.334 30.5523 58.334 30V7C58.334 6.44771 57.8863 6 57.334 6H7.33398ZM11.334 56V58H15.334V56H11.334Z" fill="#76B82A"/>
<path d="M13.334 12C12.7817 12 12.334 12.4477 12.334 13V14H13.334C13.8863 14 14.334 14.4477 14.334 15C14.334 15.5523 13.8863 16 13.334 16H12.334V31H13.334C13.8863 31 14.334 31.4477 14.334 32C14.334 32.5523 13.8863 33 13.334 33H12.334V44H13.334C13.8863 44 14.334 44.4477 14.334 45C14.334 45.5523 13.8863 46 13.334 46H12.334V47C12.334 47.5523 12.7817 48 13.334 48H34.7793C35.3316 48 35.7793 48.4477 35.7793 49C35.7793 49.5523 35.3316 50 34.7793 50H13.334C11.6771 50 10.334 48.6569 10.334 47V46H9.33398C8.7817 46 8.33398 45.5523 8.33398 45C8.33398 44.4477 8.7817 44 9.33398 44H10.334V33H9.33398C8.7817 33 8.33398 32.5523 8.33398 32C8.33398 31.4477 8.7817 31 9.33398 31H10.334V16H9.33398C8.7817 16 8.33398 15.5523 8.33398 15C8.33398 14.4477 8.7817 14 9.33398 14H10.334V13C10.334 11.3431 11.6771 10 13.334 10H51.334C52.9908 10 54.334 11.3431 54.334 13V30C54.334 30.5523 53.8863 31 53.334 31C52.7817 31 52.334 30.5523 52.334 30V13C52.334 12.4477 51.8863 12 51.334 12H13.334Z" fill="#76B82A"/>
<path d="M26.2626 25.3431C26.6531 25.7336 27.2863 25.7336 27.6768 25.3431C28.0674 24.9525 28.0674 24.3194 27.6768 23.9289L24.585 20.837C26.6757 19.0672 29.3802 18 32.334 18C35.2875 18 37.9919 19.067 40.0825 20.8367L36.9903 23.9289C36.5998 24.3194 36.5998 24.9526 36.9903 25.3431C37.3808 25.7336 38.014 25.7336 38.4045 25.3431L41.4968 22.2508C43.2667 24.3416 44.334 27.0461 44.334 30C44.334 30.5523 44.7817 31 45.334 31C45.8863 31 46.334 30.5523 46.334 30C46.334 26.4938 45.0451 23.2886 42.9152 20.8324L44.0614 19.6862C44.4519 19.2957 44.4519 18.6625 44.0614 18.272C43.6709 17.8815 43.0377 17.8815 42.6472 18.272L41.5009 19.4183C39.0448 17.2887 35.8399 16 32.334 16C28.8279 16 25.6227 17.2889 23.1666 19.4186L22.02 18.272C21.6295 17.8815 20.9963 17.8815 20.6058 18.272C20.2152 18.6625 20.2152 19.2957 20.6058 19.6862L21.7524 20.8329C19.6228 23.289 18.334 26.494 18.334 30C18.334 33.5059 19.6227 36.7109 21.7522 39.1669L20.6055 40.3136C20.215 40.7042 20.215 41.3373 20.6055 41.7279C20.9961 42.1184 21.6292 42.1184 22.0198 41.7279L23.1664 40.5812C25.6226 42.7111 28.8278 44 32.334 44C32.8863 44 33.334 43.5523 33.334 43C33.334 42.4477 32.8863 42 32.334 42C29.3801 42 26.6756 40.9327 24.5848 39.1628L27.6766 36.071C28.0671 35.6805 28.0671 35.0473 27.6766 34.6568C27.2861 34.2663 26.6529 34.2663 26.2624 34.6568L23.1707 37.7485C21.401 35.6579 20.334 32.9536 20.334 30C20.334 27.0464 21.4011 24.3419 23.1708 22.2513L26.2626 25.3431Z" fill="#76B82A"/>
<path d="M53.666 43.5547C53.9724 43.0952 53.8482 42.4743 53.3887 42.1679C52.9292 41.8616 52.3083 41.9858 52.0019 42.4453L48.6786 47.4303L46.5411 45.2929C46.1506 44.9024 45.5174 44.9024 45.1269 45.2929C44.7364 45.6834 44.7364 46.3166 45.1269 46.7071L48.1269 49.7071C48.3387 49.9189 48.6344 50.0246 48.9325 49.9951C49.2307 49.9656 49.4999 49.804 49.666 49.5547L53.666 43.5547Z" fill="#76B82A"/>
<path fill-rule="evenodd" clip-rule="evenodd" d="M38.334 36C38.334 35.4477 38.7817 35 39.334 35H59.3339C59.8862 35 60.3339 35.4477 60.3339 36V48.0476C60.3339 51.5072 58.4492 54.2225 56.2448 56.1636C54.0417 58.1036 51.416 59.3685 49.6461 59.95C49.4433 60.0167 49.2246 60.0167 49.0218 59.95C47.2449 59.3662 44.6201 58.0716 42.4203 56.1201C40.2219 54.1698 38.334 51.4553 38.334 48.0476V36ZM40.334 37V48.0476C40.334 50.6637 41.7794 52.8778 43.7476 54.624C45.5874 56.2561 47.7844 57.385 49.3344 57.9426C50.8901 57.386 53.0863 56.28 54.9231 54.6626C56.8853 52.9347 58.3339 50.7214 58.3339 48.0476V37H40.334Z" fill="#76B82A"/>
<path fill-rule="evenodd" clip-rule="evenodd" d="M27.334 30C27.334 27.2386 29.5726 25 32.334 25C35.0954 25 37.334 27.2386 37.334 30C37.334 32.7614 35.0954 35 32.334 35C29.5726 35 27.334 32.7614 27.334 30ZM32.334 27C30.6771 27 29.334 28.3431 29.334 30C29.334 31.6569 30.6771 33 32.334 33C33.9908 33 35.334 31.6569 35.334 30C35.334 28.3431 33.9908 27 32.334 27Z" fill="#76B82A"/>
</svg>
