<svg width="65" height="64" viewBox="0 0 65 64" fill="none" xmlns="http://www.w3.org/2000/svg">
<path d="M11.6665 4C11.1142 4 10.6665 4.44772 10.6665 5V52C10.6665 52.5523 11.1142 53 11.6665 53L30.6665 53C31.2188 53 31.6665 52.5523 31.6665 52C31.6665 51.4477 31.2188 51 30.6665 51L12.6665 51V6H47.6665V29C47.6665 29.5523 48.1142 30 48.6665 30C49.2188 30 49.6665 29.5523 49.6665 29V5C49.6665 4.44772 49.2188 4 48.6665 4H11.6665Z" fill="#F7A600"/>
<path d="M35.6665 44C35.6665 39.6655 39.1007 36 43.6139 36C44.1662 36 44.6139 36.4477 44.6139 37C44.6139 37.5523 44.1662 38 43.6139 38C40.2498 38 37.6665 40.7251 37.6665 44C37.6665 44.5523 37.2188 45 36.6665 45C36.1142 45 35.6665 44.5523 35.6665 44Z" fill="#F7A600"/>
<path fill-rule="evenodd" clip-rule="evenodd" d="M43.5838 32C36.82 32 31.6665 37.4914 31.6665 44C31.6665 50.5186 36.9953 56 43.5838 56C46.5811 56 49.3008 54.9193 51.3976 53.1453L57.9594 59.7071C58.3499 60.0977 58.9831 60.0977 59.3736 59.7071C59.7641 59.3166 59.7641 58.6834 59.3736 58.2929L52.813 51.7323C54.5979 49.63 55.6665 46.9208 55.6665 44C55.6665 37.4715 50.3279 32 43.5838 32ZM33.6665 44C33.6665 38.5509 37.9691 34 43.5838 34C49.2181 34 53.6665 38.5708 53.6665 44C53.6665 49.4292 49.2181 54 43.5838 54C38.1247 54 33.6665 49.4391 33.6665 44Z" fill="#F7A600"/>
<path d="M17.5649 16.1826C17.0127 16.1826 16.5649 16.6303 16.5649 17.1826C16.5649 17.7349 17.0127 18.1826 17.5649 18.1826H42.2445C42.7968 18.1826 43.2445 17.7349 43.2445 17.1826C43.2445 16.6303 42.7968 16.1826 42.2445 16.1826H17.5649Z" fill="#F7A600"/>
<path d="M16.5649 22.4385C16.5649 21.8862 17.0127 21.4385 17.5649 21.4385H42.2445C42.7968 21.4385 43.2445 21.8862 43.2445 22.4385C43.2445 22.9908 42.7968 23.4385 42.2445 23.4385H17.5649C17.0127 23.4385 16.5649 22.9908 16.5649 22.4385Z" fill="#F7A600"/>
<path d="M17.5649 26.856C17.0127 26.856 16.5649 27.3037 16.5649 27.856C16.5649 28.4082 17.0127 28.856 17.5649 28.856H33.9584C34.5107 28.856 34.9584 28.4082 34.9584 27.856C34.9584 27.3037 34.5107 26.856 33.9584 26.856H17.5649Z" fill="#F7A600"/>
<path d="M16.5649 33.2734C16.5649 32.7212 17.0127 32.2734 17.5649 32.2734H28.5993C29.1516 32.2734 29.5993 32.7212 29.5993 33.2734C29.5993 33.8257 29.1516 34.2734 28.5993 34.2734H17.5649C17.0127 34.2734 16.5649 33.8257 16.5649 33.2734Z" fill="#F7A600"/>
</svg>
