<svg width="65" height="64" viewBox="0 0 65 64" fill="none" xmlns="http://www.w3.org/2000/svg">
<path d="M11.6665 5C11.6665 4.44772 12.1142 4 12.6665 4H52.6665C53.2188 4 53.6665 4.44772 53.6665 5V55C53.6665 55.5523 53.2188 56 52.6665 56H50.6665C50.1142 56 49.6665 55.5523 49.6665 55C49.6665 54.4477 50.1142 54 50.6665 54H51.6665V6H13.6665V54H34.6665C35.2188 54 35.6665 54.4477 35.6665 55C35.6665 55.5523 35.2188 56 34.6665 56H12.6665C12.1142 56 11.6665 55.5523 11.6665 55V5Z" fill="#F7A600"/>
<path fill-rule="evenodd" clip-rule="evenodd" d="M35.6665 45C35.6665 41.134 38.8005 38 42.6665 38C46.5325 38 49.6665 41.134 49.6665 45C49.6665 47.391 48.4678 49.502 46.6385 50.7648L48.6366 58.7575C48.726 59.115 48.6115 59.4927 48.3386 59.7404C48.0658 59.9881 47.6787 60.0657 47.3315 59.9422L42.6665 58.2836L38.0015 59.9422C37.6543 60.0657 37.2673 59.9881 36.9944 59.7404C36.7215 59.4927 36.607 59.115 36.6964 58.7575L38.6945 50.7648C36.8653 49.502 35.6665 47.391 35.6665 45ZM42.6665 40C39.9051 40 37.6665 42.2386 37.6665 45C37.6665 47.7614 39.9051 50 42.6665 50C45.4279 50 47.6665 47.7614 47.6665 45C47.6665 42.2386 45.4279 40 42.6665 40ZM40.5303 51.668L39.0891 57.4329L42.3315 56.28C42.5482 56.203 42.7848 56.203 43.0015 56.28L46.2439 57.4329L44.8027 51.668C44.1293 51.8836 43.4115 52 42.6665 52C41.9215 52 41.2037 51.8836 40.5303 51.668Z" fill="#F7A600"/>
<path d="M17.6665 15C17.6665 14.4477 18.1142 14 18.6665 14H46.6665C47.2188 14 47.6665 14.4477 47.6665 15C47.6665 15.5523 47.2188 16 46.6665 16H18.6665C18.1142 16 17.6665 15.5523 17.6665 15Z" fill="#F7A600"/>
<path d="M18.6665 20C18.1142 20 17.6665 20.4477 17.6665 21C17.6665 21.5523 18.1142 22 18.6665 22H46.6665C47.2188 22 47.6665 21.5523 47.6665 21C47.6665 20.4477 47.2188 20 46.6665 20H18.6665Z" fill="#F7A600"/>
<path d="M17.6665 27C17.6665 26.4477 18.1142 26 18.6665 26H46.6665C47.2188 26 47.6665 26.4477 47.6665 27C47.6665 27.5523 47.2188 28 46.6665 28H18.6665C18.1142 28 17.6665 27.5523 17.6665 27Z" fill="#F7A600"/>
<path d="M18.6665 32C18.1142 32 17.6665 32.4477 17.6665 33C17.6665 33.5523 18.1142 34 18.6665 34H46.6665C47.2188 34 47.6665 33.5523 47.6665 33C47.6665 32.4477 47.2188 32 46.6665 32H18.6665Z" fill="#F7A600"/>
<path d="M17.6665 39C17.6665 38.4477 18.1142 38 18.6665 38H32.6665C33.2188 38 33.6665 38.4477 33.6665 39C33.6665 39.5523 33.2188 40 32.6665 40H18.6665C18.1142 40 17.6665 39.5523 17.6665 39Z" fill="#F7A600"/>
<path d="M18.6665 44C18.1142 44 17.6665 44.4477 17.6665 45C17.6665 45.5523 18.1142 46 18.6665 46H32.6665C33.2188 46 33.6665 45.5523 33.6665 45C33.6665 44.4477 33.2188 44 32.6665 44H18.6665Z" fill="#F7A600"/>
</svg>
