<svg width="65" height="64" viewBox="0 0 65 64" fill="none" xmlns="http://www.w3.org/2000/svg">
<path d="M19.6665 4C19.1142 4 18.6665 4.44772 18.6665 5V34C18.6665 34.5523 19.1142 35 19.6665 35C20.2188 35 20.6665 34.5523 20.6665 34V6H58.6665V54H42.1665C41.6142 54 41.1665 54.4477 41.1665 55C41.1665 55.5523 41.6142 56 42.1665 56H59.6665C60.2188 56 60.6665 55.5523 60.6665 55V5C60.6665 4.44772 60.2188 4 59.6665 4H19.6665Z" fill="#F7A600"/>
<path d="M25.6665 11C25.1142 11 24.6665 11.4477 24.6665 12C24.6665 12.5523 25.1142 13 25.6665 13H53.6665C54.2188 13 54.6665 12.5523 54.6665 12C54.6665 11.4477 54.2188 11 53.6665 11H25.6665Z" fill="#F7A600"/>
<path d="M24.6665 19C24.6665 18.4477 25.1142 18 25.6665 18H53.6665C54.2188 18 54.6665 18.4477 54.6665 19C54.6665 19.5523 54.2188 20 53.6665 20H25.6665C25.1142 20 24.6665 19.5523 24.6665 19Z" fill="#F7A600"/>
<path d="M25.6665 25C25.1142 25 24.6665 25.4477 24.6665 26C24.6665 26.5523 25.1142 27 25.6665 27H53.6665C54.2188 27 54.6665 26.5523 54.6665 26C54.6665 25.4477 54.2188 25 53.6665 25H25.6665Z" fill="#F7A600"/>
<path d="M24.6665 33C24.6665 32.4477 25.1142 32 25.6665 32H53.6665C54.2188 32 54.6665 32.4477 54.6665 33C54.6665 33.5523 54.2188 34 53.6665 34H25.6665C25.1142 34 24.6665 33.5523 24.6665 33Z" fill="#F7A600"/>
<path d="M53.3879 43.6925C53.7704 43.2941 53.7574 42.6611 53.359 42.2786C52.9606 41.8961 52.3276 41.9091 51.9451 42.3075L46.9065 47.556L44.3879 44.9325C44.0054 44.5341 43.3724 44.5211 42.974 44.9036C42.5756 45.2861 42.5626 45.9191 42.9451 46.3175L46.1851 49.6925C46.3737 49.889 46.6342 50 46.9065 50C47.1788 50 47.4393 49.889 47.6279 49.6925L53.3879 43.6925Z" fill="#F7A600"/>
<path fill-rule="evenodd" clip-rule="evenodd" d="M20.1865 42C19.9213 42 19.6669 42.1054 19.4794 42.2929C19.2918 42.4804 19.1865 42.7348 19.1865 43V51.1073H17.6665C17.1142 51.1073 16.6665 51.555 16.6665 52.1073C16.6665 52.6596 17.1142 53.1073 17.6665 53.1073H19.1865V55C19.1865 55.5523 19.6342 56 20.1865 56C20.7388 56 21.1865 55.5523 21.1865 55V53.1073H26.3065C26.8588 53.1073 27.3065 52.6596 27.3065 52.1073C27.3065 51.555 26.8588 51.1073 26.3065 51.1073H21.1865V50.5704C22.2819 50.5423 23.5611 50.4422 24.6716 50.0928C25.4178 49.8581 26.168 49.4875 26.738 48.8793C27.3306 48.247 27.6665 47.4227 27.6665 46.4231C27.6665 45.4248 27.3321 44.5948 26.7565 43.9458C26.1994 43.3176 25.4616 42.9084 24.7147 42.6354C23.2366 42.0954 21.4689 42 20.1865 42ZM24.0714 48.185C23.2222 48.4521 22.1873 48.5411 21.1865 48.5691V44.024C22.1647 44.0731 23.1899 44.2076 24.0283 44.514C24.5864 44.7179 24.9961 44.975 25.2602 45.2728C25.5059 45.5499 25.6665 45.9057 25.6665 46.4231C25.6665 46.9393 25.5074 47.2676 25.2787 47.5117C25.0275 47.7798 24.6302 48.0092 24.0714 48.185Z" fill="#F7A600"/>
<path fill-rule="evenodd" clip-rule="evenodd" d="M5.6665 39C5.6665 38.4477 6.11422 38 6.6665 38H38.6665C39.2188 38 39.6665 38.4477 39.6665 39V59C39.6665 59.5523 39.2188 60 38.6665 60H6.6665C6.11422 60 5.6665 59.5523 5.6665 59V39ZM7.6665 40V58H37.6665V40H7.6665Z" fill="#F7A600"/>
</svg>
