<svg width="64" height="64" viewBox="0 0 64 64" fill="none" xmlns="http://www.w3.org/2000/svg">
<path d="M16.8979 16.1827C16.3457 16.1827 15.8979 16.6305 15.8979 17.1827C15.8979 17.735 16.3457 18.1827 16.8979 18.1827H41.5775C42.1298 18.1827 42.5775 17.735 42.5775 17.1827C42.5775 16.6305 42.1298 16.1827 41.5775 16.1827H16.8979Z" fill="#F7A600"/>
<path d="M15.8979 22.4385C15.8979 21.8862 16.3457 21.4385 16.8979 21.4385H41.5775C42.1298 21.4385 42.5775 21.8862 42.5775 22.4385C42.5775 22.9908 42.1298 23.4385 41.5775 23.4385H16.8979C16.3457 23.4385 15.8979 22.9908 15.8979 22.4385Z" fill="#F7A600"/>
<path d="M16.8979 26.856C16.3457 26.856 15.8979 27.3037 15.8979 27.856C15.8979 28.4082 16.3457 28.856 16.8979 28.856H33.2915C33.8437 28.856 34.2915 28.4082 34.2915 27.856C34.2915 27.3037 33.8437 26.856 33.2915 26.856H16.8979Z" fill="#F7A600"/>
<path d="M15.8979 33.2736C15.8979 32.7213 16.3457 32.2736 16.8979 32.2736H27.9323C28.4846 32.2736 28.9323 32.7213 28.9323 33.2736C28.9323 33.8258 28.4846 34.2736 27.9323 34.2736H16.8979C16.3457 34.2736 15.8979 33.8258 15.8979 33.2736Z" fill="#F7A600"/>
<path d="M47.6839 45.7295C48.0869 45.3518 48.1073 44.719 47.7295 44.3161C47.3518 43.9131 46.719 43.8927 46.3161 44.2705L40.6 49.6293L37.6839 46.8955C37.281 46.5177 36.6482 46.5381 36.2705 46.9411C35.8927 47.344 35.9131 47.9768 36.3161 48.3545L39.9161 51.7295C40.3007 52.0902 40.8993 52.0902 41.2839 51.7295L47.6839 45.7295Z" fill="#F7A600"/>
<path fill-rule="evenodd" clip-rule="evenodd" d="M10 5C10 4.44772 10.4477 4 11 4H48C48.5523 4 49 4.44772 49 5V38C49 38.0894 48.9883 38.176 48.9663 38.2584C52.0277 40.4542 54 44.0319 54 48C54 54.5285 48.6614 60 41.9173 60C37.121 60 32.9924 57.0952 31.1011 53L11 53C10.4477 53 10 52.5523 10 52V5ZM47 6V37.1119C45.4602 36.3997 43.7401 36 41.9173 36C35.1535 36 30 41.4914 30 48C30 49.0319 30.1335 50.0377 30.3844 51L12 51V6H47ZM41.9173 38C36.3026 38 32 42.5509 32 48C32 53.4391 36.4582 58 41.9173 58C47.5516 58 52 53.4292 52 48C52 42.5708 47.5516 38 41.9173 38Z" fill="#F7A600"/>
</svg>
