<svg width="65" height="64" viewBox="0 0 65 64" fill="none" xmlns="http://www.w3.org/2000/svg">
<path d="M53.8439 9.27613C50.6632 8.54512 48.2869 9.32097 46.3798 10.9579C44.5574 12.5221 43.1893 14.8576 41.8737 17.1289L41.8133 17.2332C39.114 21.8942 36.468 26.4631 30.565 27.1794C30.1934 27.2245 29.878 27.4734 29.7479 27.8244C29.0463 29.7162 28.4225 31.9007 27.9443 33.7808L26.951 30.5165C26.8508 30.1869 26.5879 29.9321 26.2553 29.8423C25.9227 29.7524 25.5672 29.84 25.3145 30.0742C24.2286 31.0809 22.5447 32.8664 20.9685 34.9961C19.401 37.1142 17.8833 39.6479 17.2103 42.1434C17.0665 42.6766 17.3822 43.2255 17.9154 43.3693C18.4487 43.5131 18.9975 43.1974 19.1413 42.6642C19.7193 40.5212 21.0684 38.2232 22.5761 36.1859C23.583 34.8255 24.6354 33.6149 25.5206 32.686L27.1226 37.951C27.2561 38.3899 27.6712 38.6816 28.1293 38.6586C28.5875 38.6357 28.9713 38.3039 29.0603 37.8539C29.3843 36.2159 30.2906 32.2894 31.422 29.0765C37.8968 28.0023 40.8998 22.8088 43.4027 18.48L43.6044 18.1313C44.9602 15.7906 46.1656 13.7774 47.6824 12.4755C49.1145 11.2464 50.8429 10.6386 53.3959 11.2253C55.4407 11.6953 56.7209 12.7147 57.5133 14.0286C58.3255 15.3754 58.6745 17.1165 58.6662 19.0754C58.6506 22.794 57.35 26.9905 56.06 29.9025L49.8175 30.8737C49.4057 30.9378 49.0768 31.2505 48.9921 31.6586C48.9074 32.0667 49.0846 32.4845 49.4369 32.7071C50.1386 33.1506 51.2186 33.8166 52.18 34.3741C52.5765 34.604 52.9608 34.8201 53.294 34.9958C49.2615 42.7395 43.3927 46.5816 37.6382 48.2564C31.6177 50.0086 25.6936 49.3933 22.1168 48.2998C21.5887 48.1384 21.0296 48.4356 20.8682 48.9638C20.7067 49.4919 21.0039 50.051 21.5321 50.2124C25.4264 51.403 31.7513 52.0528 38.1971 50.1768C44.6822 48.2893 51.2611 43.85 55.563 34.9318C55.7125 34.6219 55.6922 34.2569 55.5092 33.9656C55.3532 33.717 55.0975 33.5518 54.8121 33.5086C54.8025 33.5049 54.7909 33.5004 54.7771 33.4947C54.6919 33.4599 54.5671 33.4016 54.4023 33.3178C54.0757 33.1516 53.651 32.9152 53.1833 32.6439C53.0635 32.5745 52.9417 32.5032 52.8189 32.4308L56.901 31.7957C57.2307 31.7444 57.5131 31.5321 57.6539 31.2295C59.0763 28.173 60.648 23.4121 60.6662 19.0839C60.6753 16.9138 60.2945 14.7676 59.226 12.9957C58.1375 11.1909 56.3859 9.86036 53.8439 9.27613Z" fill="#F7A600"/>
<path d="M50.9106 20.6095C51.1005 20.0909 50.8341 19.5166 50.3155 19.3266C49.7969 19.1367 49.2225 19.4031 49.0326 19.9217C44.9762 30.9972 36.9551 37.585 28.5207 41.3318C23.4359 43.5907 18.2167 44.8084 13.6656 45.3457C14.8247 43.9947 16.01 42.155 16.5408 40.0078C16.6734 39.4717 16.3462 38.9296 15.8101 38.7971C15.2739 38.6645 14.7318 38.9917 14.5993 39.5278C13.8954 42.3749 11.7334 44.6685 10.5439 45.6185C8.76297 45.7181 7.1373 45.7102 5.72865 45.6226C5.17743 45.5883 4.70277 46.0073 4.66847 46.5585C4.63417 47.1097 5.05321 47.5844 5.60443 47.6187C7.11002 47.7124 8.84393 47.7197 10.7403 47.6105C10.8722 47.629 11.0079 47.6213 11.139 47.586C11.1652 47.5931 11.1919 47.5991 11.2191 47.6041C12.8673 47.9072 16.885 49.6965 18.8151 54.381C19.0255 54.8916 19.61 55.135 20.1207 54.9246C20.6313 54.7142 20.8747 54.1297 20.6643 53.619C19.3574 50.4472 17.2232 48.3954 15.2402 47.157C19.6432 46.5275 24.5424 45.2876 29.3327 43.1596C38.1425 39.2459 46.6272 32.3047 50.9106 20.6095Z" fill="#F7A600"/>
</svg>
