<svg width="64" height="64" viewBox="0 0 64 64" fill="none" xmlns="http://www.w3.org/2000/svg">
<path d="M46.9999 14.9999C46.9999 16.1045 46.1045 16.9999 44.9999 16.9999C43.8954 16.9999 42.9999 16.1045 42.9999 14.9999C42.9999 13.8954 43.8954 12.9999 44.9999 12.9999C46.1045 12.9999 46.9999 13.8954 46.9999 14.9999Z" fill="#F7A600"/>
<path fill-rule="evenodd" clip-rule="evenodd" d="M45 8C41.134 8 38 11.134 38 15C38 18.866 41.134 22 45 22C48.866 22 52 18.866 52 15C52 11.134 48.866 8 45 8ZM40 15C40 12.2386 42.2386 10 45 10C47.7614 10 50 12.2386 50 15C50 17.7614 47.7614 20 45 20C42.2386 20 40 17.7614 40 15Z" fill="#F7A600"/>
<path d="M21.9999 31.9999C21.9999 33.1045 21.1045 33.9999 19.9999 33.9999C18.8954 33.9999 17.9999 33.1045 17.9999 31.9999C17.9999 30.8954 18.8954 29.9999 19.9999 29.9999C21.1045 29.9999 21.9999 30.8954 21.9999 31.9999Z" fill="#F7A600"/>
<path fill-rule="evenodd" clip-rule="evenodd" d="M20 25C16.134 25 13 28.134 13 32C13 35.866 16.134 39 20 39C23.866 39 27 35.866 27 32C27 28.134 23.866 25 20 25ZM15 32C15 29.2386 17.2386 27 20 27C22.7614 27 25 29.2386 25 32C25 34.7614 22.7614 37 20 37C17.2386 37 15 34.7614 15 32Z" fill="#F7A600"/>
<path d="M42.0002 48.9999C42.0002 50.1045 41.1048 50.9999 40.0002 50.9999C38.8956 50.9999 38.0002 50.1045 38.0002 48.9999C38.0002 47.8953 38.8956 46.9999 40.0002 46.9999C41.1048 46.9999 42.0002 47.8953 42.0002 48.9999Z" fill="#F7A600"/>
<path fill-rule="evenodd" clip-rule="evenodd" d="M33 49C33 45.134 36.134 42 40 42C43.866 42 47 45.134 47 49C47 52.866 43.866 56 40 56C36.134 56 33 52.866 33 49ZM40 44C37.2386 44 35 46.2386 35 49C35 51.7614 37.2386 54 40 54C42.7614 54 45 51.7614 45 49C45 46.2386 42.7614 44 40 44Z" fill="#F7A600"/>
<path d="M6 31.5593C6 30.4548 6.89543 29.5593 8 29.5593H10.4915C11.0438 29.5593 11.4915 29.1116 11.4915 28.5593C11.4915 28.007 11.0438 27.5593 10.4915 27.5593H8C5.79086 27.5593 4 29.3502 4 31.5593C4 33.7685 5.79086 35.5593 8 35.5593H10.4915C11.0438 35.5593 11.4915 35.1116 11.4915 34.5593C11.4915 34.007 11.0438 33.5593 10.4915 33.5593H8C6.89543 33.5593 6 32.6639 6 31.5593Z" fill="#F7A600"/>
<path d="M28.7966 27.5593C28.2443 27.5593 27.7966 28.007 27.7966 28.5593C27.7966 29.1116 28.2443 29.5593 28.7966 29.5593H56C57.1046 29.5593 58 30.4548 58 31.5593C58 32.6639 57.1046 33.5593 56 33.5593H28.7966C28.2443 33.5593 27.7966 34.007 27.7966 34.5593C27.7966 35.1116 28.2443 35.5593 28.7966 35.5593H56C58.2091 35.5593 60 33.7685 60 31.5593C60 29.3502 58.2091 27.5593 56 27.5593H28.7966Z" fill="#F7A600"/>
<path d="M8 47C6.89543 47 6 47.8954 6 49C6 50.1046 6.89543 51 8 51H30.6271C31.1794 51 31.6271 51.4477 31.6271 52C31.6271 52.5523 31.1794 53 30.6271 53H8C5.79086 53 4 51.2091 4 49C4 46.7909 5.79086 45 8 45H30.6271C31.1794 45 31.6271 45.4477 31.6271 46C31.6271 46.5523 31.1794 47 30.6271 47H8Z" fill="#F7A600"/>
<path d="M47.9322 46C47.9322 45.4477 48.3799 45 48.9322 45H56C58.2091 45 60 46.7909 60 49C60 51.2091 58.2091 53 56 53H48.9322C48.3799 53 47.9322 52.5523 47.9322 52C47.9322 51.4477 48.3799 51 48.9322 51H56C57.1046 51 58 50.1046 58 49C58 47.8954 57.1046 47 56 47H48.9322C48.3799 47 47.9322 46.5523 47.9322 46Z" fill="#F7A600"/>
<path d="M6 15C6 13.8954 6.89543 13 8 13H36.1186C36.6709 13 37.1186 12.5523 37.1186 12C37.1186 11.4477 36.6709 11 36.1186 11H8C5.79086 11 4 12.7909 4 15C4 17.2091 5.79086 19 8 19H36.1186C36.6709 19 37.1186 18.5523 37.1186 18C37.1186 17.4477 36.6709 17 36.1186 17H8C6.89543 17 6 16.1046 6 15Z" fill="#F7A600"/>
<path d="M54.4237 11C53.8714 11 53.4237 11.4477 53.4237 12C53.4237 12.5523 53.8714 13 54.4237 13H56C57.1046 13 58 13.8954 58 15C58 16.1046 57.1046 17 56 17H54.4237C53.8714 17 53.4237 17.4477 53.4237 18C53.4237 18.5523 53.8714 19 54.4237 19H56C58.2091 19 60 17.2091 60 15C60 12.7909 58.2091 11 56 11H54.4237Z" fill="#F7A600"/>
</svg>
