<svg width="65" height="64" viewBox="0 0 65 64" fill="none" xmlns="http://www.w3.org/2000/svg">
<path fill-rule="evenodd" clip-rule="evenodd" d="M38.4099 6.55833C38.6119 7.02495 38.8871 7.7958 39.2142 8.79037C39.6891 7.43828 40.9575 6.55872 42.2342 6.40267C43.0693 6.3006 43.9681 6.49383 44.7037 7.09834C45.4413 7.70452 45.9129 8.6392 46.0636 9.83265C46.1621 10.6133 46.2621 12.0193 46.3595 13.7976C46.4443 13.7775 46.5289 13.7604 46.612 13.746C47.0192 13.6755 47.5178 13.6495 48.0316 13.7361C48.548 13.8231 49.1141 14.0306 49.5999 14.456C50.0955 14.8901 50.4441 15.4962 50.5994 16.2654C50.676 16.6448 50.6758 17.1671 50.65 17.7107C50.6227 18.2843 50.5603 18.9843 50.4723 19.7716C50.2964 21.3478 50.0129 23.3208 49.682 25.4241C49.023 29.6125 48.1692 34.361 47.5801 37.612C47.5349 40.2565 47.3083 49.6495 47.1494 56.2399L47.0823 59.0232C47.069 59.5754 46.6107 60.0122 46.0586 59.9989C45.5064 59.9856 45.0696 59.5273 45.0829 58.9752L45.1497 56.2031C45.3272 48.8407 45.5881 38.0242 45.5881 36.9807C45.5881 36.6857 45.4736 36.236 45.1666 35.6221C44.8668 35.0225 44.4202 34.3384 43.8488 33.596C42.7066 32.1119 41.1282 30.475 39.4196 28.9258C37.7136 27.379 35.9027 25.9422 34.3098 24.8545C33.5131 24.3104 32.7819 23.8612 32.1538 23.5306C31.5101 23.1919 31.0328 23.009 30.7299 22.949C30.3016 22.8642 29.3997 22.9204 28.1294 23.1341C26.9124 23.3387 25.5051 23.6598 24.159 24.0008C22.816 24.3411 21.5489 24.6974 20.6167 24.969C20.1509 25.1046 19.7696 25.2189 19.5052 25.2991C19.3731 25.3392 19.2702 25.3708 19.2006 25.3922L19.1218 25.4166L19.1041 25.4221C18.6288 25.5813 18.2077 25.9619 17.9421 26.4426C17.6666 26.9412 17.6372 27.3962 17.724 27.6542C17.8529 28.0371 18.2037 28.3721 18.7657 28.6251C19.3228 28.8759 19.9396 28.9748 20.3132 28.9748C20.5477 28.9748 21.0268 28.8853 21.7677 28.6998C22.1583 28.602 22.5563 28.4954 22.9789 28.3822L22.9804 28.3818C23.3536 28.2818 23.7462 28.1767 24.1697 28.0679C25.0303 27.8469 25.9389 27.6331 26.7728 27.508C27.5781 27.3872 28.4371 27.328 29.1432 27.5028C30.7035 27.8891 32.375 28.8605 33.6622 30.1362C34.9421 31.4047 35.9664 33.1024 35.9663 34.9791C35.9662 38.7709 33.4046 41.0861 30.5045 41.5639C27.6323 42.0369 24.3784 40.7193 22.9325 37.3779C22.5365 36.4628 22.2416 35.6179 21.9935 34.8728C21.934 34.6942 21.878 34.5238 21.8244 34.3608L21.824 34.3597C21.6489 33.8272 21.4997 33.3734 21.3403 32.9675C20.9275 31.9164 20.5897 31.5739 20.0727 31.4459C19.1938 31.2283 18.452 31.235 17.9008 31.3343C17.3169 31.4394 17.0308 31.6306 16.9747 31.6862C16.7254 31.933 16.638 32.1936 16.6744 32.6338C16.7171 33.1502 16.9202 33.7734 17.2187 34.66C17.422 35.2641 17.6251 36.2319 17.8376 37.2448C17.9133 37.6057 17.9903 37.9723 18.0688 38.3301C18.3877 39.7831 18.7448 41.1633 19.1848 42.0347C19.4832 42.6258 20.5766 44.3199 21.8779 46.0864C22.5207 46.9591 23.1988 47.8282 23.8346 48.5659C24.4822 49.3173 25.0442 49.8831 25.4571 50.1898C26.1484 50.7032 26.8837 51.1433 27.6387 51.5952C27.9383 51.7745 28.2409 51.9556 28.5452 52.1439C29.5477 52.7645 30.6092 53.4877 31.2485 54.4375C32.2246 55.8876 32.4293 57.7664 32.4293 58.9992C32.4293 59.5515 31.9816 59.9992 31.4293 59.9992C30.877 59.9992 30.4293 59.5515 30.4293 58.9992C30.4293 57.8966 30.2302 56.5062 29.5894 55.5543C29.2182 55.0028 28.5111 54.475 27.4925 53.8445C27.2422 53.6895 26.973 53.5284 26.6929 53.3608C25.9099 52.8922 25.042 52.3728 24.2645 51.7953C23.6668 51.3513 22.9872 50.6462 22.3196 49.8716C21.6402 49.0833 20.9296 48.1713 20.2676 47.2726C18.9593 45.4965 17.7789 43.6877 17.3994 42.936C16.8288 41.8058 16.428 40.1833 16.1153 38.7589C16.0188 38.319 15.9309 37.9003 15.8491 37.5109C15.6493 36.5591 15.4861 35.782 15.3232 35.2981L15.2988 35.2257C15.0326 34.4355 14.7463 33.5854 14.6812 32.7987C14.6078 31.9117 14.806 31.0191 15.5672 30.2652C15.8445 29.9906 16.2266 29.7677 16.6679 29.6031C16.3108 29.2579 16.0084 28.8267 15.8285 28.2921C15.5111 27.3491 15.7344 26.3028 16.1916 25.4753C16.6574 24.6322 17.4463 23.8632 18.484 23.5206L18.4915 23.5181L18.499 23.5158L18.7975 24.4702C18.499 23.5158 18.4989 23.5158 18.499 23.5158L18.5285 23.5066L18.6113 23.481C18.6836 23.4587 18.7894 23.4262 18.9247 23.3852C19.1952 23.3032 19.5836 23.1868 20.0573 23.0488C21.0041 22.773 22.295 22.4099 23.6678 22.0621C25.0375 21.7151 26.504 21.3793 27.7977 21.1618C29.038 20.9532 30.2835 20.8217 31.1185 20.9872C31.7057 21.1035 32.3855 21.3925 33.0852 21.7608C33.5381 21.9991 34.0243 22.2841 34.533 22.6065C33.3793 17.4061 31.9023 10.3492 31.4591 8.15424C31.0628 6.19183 32.3437 4.61945 33.9008 4.15141C34.6935 3.91315 35.5904 3.94335 36.4218 4.34706C37.2582 4.75322 37.9516 5.49912 38.4099 6.55833ZM33.4195 7.75837C33.2594 6.96547 33.7471 6.28601 34.4766 6.06676C34.8272 5.96136 35.2031 5.97864 35.5482 6.14618C35.8882 6.31127 36.2749 6.66039 36.5744 7.3526C37.027 8.39861 37.9466 11.3198 39.0187 14.9757C39.0212 15.1643 39.0759 15.3402 39.169 15.4898C39.493 16.6007 39.8293 17.7723 40.1695 18.9743C41.2005 22.6167 42.2533 26.4869 43.0857 29.688C42.3522 28.929 41.5672 28.1733 40.763 27.4442C39.5167 26.3141 38.2116 25.2364 36.9615 24.2971C36.9586 24.2807 36.9552 24.2643 36.9515 24.2479C35.775 19.0876 33.9238 10.2554 33.4195 7.75837ZM46.9632 29.6234C47.2218 28.1093 47.4761 26.5764 47.7063 25.1133C48.0355 23.0207 48.3136 21.0818 48.4847 19.5496C48.5703 18.7827 48.6278 18.1295 48.6522 17.6157C48.6781 17.0718 48.6615 16.7726 48.639 16.6613C48.5613 16.2766 48.4144 16.0764 48.2821 15.9605C48.14 15.836 47.9457 15.7498 47.6992 15.7083C47.4502 15.6663 47.1836 15.6768 46.953 15.7167C46.7762 15.7473 46.6737 15.7853 46.6385 15.7983C46.6218 15.8045 46.6203 15.8051 46.6332 15.7965C46.5791 15.8322 46.5229 15.862 46.4652 15.886C46.6598 20.015 46.8373 25.3172 46.9632 29.6234ZM42.0939 18.4296C41.7306 17.146 41.3685 15.885 41.0186 14.688V9.95793C41.0186 9.13145 41.6912 8.48393 42.4768 8.3879C42.8418 8.34329 43.1746 8.43048 43.4338 8.6435C43.691 8.85484 43.9773 9.27479 44.0793 10.0831C44.3907 12.5508 44.7279 21.7799 44.94 28.8726C44.1159 25.7143 43.0936 21.9617 42.0939 18.4296ZM23.2019 32.2365C22.9764 31.6621 22.7047 31.0973 22.3181 30.6236C22.6831 30.5315 23.1008 30.4199 23.5281 30.3057L23.5292 30.3053C23.911 30.2033 24.3008 30.0991 24.6671 30.005C25.5119 29.7881 26.3402 29.5953 27.0695 29.4859C27.8274 29.3721 28.358 29.3688 28.6626 29.4442C29.832 29.7338 31.1923 30.5042 32.2544 31.5568C33.3237 32.6166 33.9664 33.8337 33.9663 34.979C33.9662 37.6926 32.2148 39.2552 30.1794 39.5904C28.116 39.9303 25.812 38.9961 24.768 36.5836C24.406 35.7472 24.1324 34.9657 23.891 34.2409C23.8389 34.0842 23.7875 33.9278 23.7366 33.7729C23.5575 33.228 23.384 32.7002 23.2019 32.2365Z" fill="#F7A600"/>
</svg>
