<svg width="65" height="64" viewBox="0 0 65 64" fill="none" xmlns="http://www.w3.org/2000/svg">
<path fill-rule="evenodd" clip-rule="evenodd" d="M22.3178 10.2408C21.8985 9.88134 21.2672 9.9299 20.9078 10.3492C20.5484 10.7686 20.5969 11.3999 21.0162 11.7593L27.7345 17.5178L20.4768 24.9969L20.4714 25.0025C19.3989 26.1252 19.3989 27.7644 20.4714 28.8871C20.5466 28.9658 20.6342 29.0318 20.7307 29.0823L20.8725 29.1565C23.3988 31.6664 27.4674 31.5943 30.0524 29.0573C30.0601 29.0497 30.0677 29.0421 30.0751 29.0343L32.212 26.7973C34.5834 28.7047 37.7752 29.0067 40.4064 27.7033L50.0375 38.3635C50.9296 39.355 50.8049 40.6808 50.0914 41.4137C49.0338 42.349 47.7127 42.2406 47.0426 41.5706L43.7087 38.2373C43.3182 37.8468 42.685 37.8469 42.2945 38.2374C41.904 38.628 41.9041 39.2611 42.2946 39.6516L45.6285 42.985C46.3117 43.668 46.381 45.0948 45.642 45.9948C44.5824 46.7934 43.2661 46.6836 42.5975 46.0151L39.2636 42.6817C38.873 42.2913 38.2399 42.2913 37.8494 42.6819C37.4589 43.0724 37.4589 43.7056 37.8495 44.0961L41.1834 47.4294C41.8665 48.1125 41.9359 49.5392 41.1969 50.4393C40.1479 51.2298 38.8475 51.1302 38.1728 50.4796L36.1964 48.2269C35.9868 47.8436 35.7071 47.4925 35.3574 47.195C34.6207 46.3945 33.5827 46.0168 32.5859 46.0006C32.8379 44.6607 32.5028 43.2073 31.5805 42.1696C31.5544 42.1403 31.5267 42.1126 31.4974 42.0866C30.833 41.496 30.0313 41.1506 29.1974 41.0396C29.9857 39.5094 29.7688 37.5874 28.643 36.1802C28.6077 36.1361 28.5688 36.095 28.5265 36.0575C26.9661 34.6705 24.3534 34.6129 22.8675 36.0927L22.664 36.2908C22.707 35.1472 22.2977 33.9887 21.4359 33.1269C21.4098 33.1008 21.3823 33.0762 21.3535 33.0531C19.6793 31.7138 17.2144 31.5913 15.667 33.0368V29C15.667 28.6914 15.5246 28.4001 15.281 28.2107L6.28098 21.2107C5.84503 20.8716 5.21676 20.9501 4.87769 21.3861C4.53862 21.822 4.61715 22.4503 5.0531 22.7894L13.667 29.4891V35.0337L12.7939 35.9068C12.7678 35.9329 12.7432 35.9604 12.7201 35.9892C11.3536 37.6974 11.2538 40.2288 12.7939 41.7689C12.8063 41.7813 12.819 41.7934 12.8321 41.8051C13.9602 42.8204 15.4626 43.2192 16.8001 42.8836C16.4613 44.2532 16.7694 45.7851 17.7245 46.8595C17.7505 46.8888 17.7783 46.9165 17.8076 46.9426C18.8517 47.8707 20.328 48.1879 21.6674 47.894C21.6809 48.9276 22.0682 50.008 22.8973 50.7698C23.6729 51.6139 24.7787 52 25.8292 52C26.4667 52 27.1246 51.8578 27.7166 51.5574C27.8424 52.3758 28.2104 53.181 28.8583 53.7854C29.6125 54.6176 30.6897 55 31.7149 55C32.7483 55 33.8345 54.6114 34.5895 53.7654L35.3386 53.0054C35.833 52.5905 36.1895 52.0691 36.4079 51.5005L36.6936 51.8262C36.7013 51.835 36.7092 51.8437 36.7173 51.8523C36.7242 51.8596 36.7311 51.8668 36.7382 51.8738C38.2776 53.413 40.8077 53.3132 42.515 51.9476C42.5592 51.9123 42.6002 51.8733 42.6378 51.8311C43.4287 50.9414 43.7984 49.7189 43.7114 48.5465C44.8425 48.6196 46.0248 48.2513 46.9602 47.5032C47.0043 47.4679 47.0454 47.4289 47.0829 47.3867C47.8767 46.4938 48.2463 45.2656 48.1556 44.0894C49.3023 44.1481 50.5033 43.7338 51.4496 42.8823C51.4627 42.8705 51.4754 42.8585 51.4878 42.8461C52.9395 41.3946 53.1154 38.9448 51.6538 37.176L53.591 29.4273L60.3114 23.7647C60.7337 23.4089 60.7876 22.778 60.4318 22.3557C60.0759 21.9333 59.445 21.8794 59.0227 22.2353L52.0549 28.1063C51.8941 28.2417 51.7802 28.4245 51.7292 28.6285L50.0404 35.3834L42.0844 26.5771C42.259 26.4238 42.4286 26.2613 42.5927 26.0895L46.3901 22.1141C46.7716 21.7147 46.7571 21.0817 46.3578 20.7002C45.9584 20.3187 45.3254 20.3332 44.9439 20.7326L41.1465 24.7081C38.8681 27.0932 35.1664 27.0932 32.888 24.7081C32.6994 24.5105 32.4381 24.3988 32.1649 24.3988C31.8918 24.3988 31.6305 24.5105 31.4418 24.7081L28.6405 27.6407C26.7659 29.4694 23.8991 29.4328 22.1989 27.6528C22.1236 27.5741 22.036 27.5081 21.9395 27.4576L21.8277 27.3991C21.5875 27.0733 21.6166 26.7008 21.9153 26.3864L30.6189 17.4172H38.7753C39.0268 17.4172 39.2691 17.3224 39.4539 17.1518L44.2359 12.7346C44.6416 12.3598 44.6666 11.7272 44.2919 11.3215C43.9172 10.9158 43.2845 10.8907 42.8788 11.2654L38.3842 15.4172H30.1959C29.9254 15.4172 29.6665 15.5267 29.4782 15.7208L29.1299 16.0797L22.3178 10.2408ZM15.5388 35.9904C15.4489 36.1497 15.3167 36.2819 15.1574 36.3717L14.2501 37.2791C13.4342 38.3351 13.5311 39.6563 14.1907 40.337C15.2449 41.2692 16.5304 41.1524 17.2015 40.3974C17.2202 40.3764 17.2397 40.3562 17.2601 40.3368L20.0299 37.7055C20.8694 36.8569 20.8793 35.4417 20.0595 34.5798C18.9949 33.7604 17.6624 33.8667 16.988 34.5411L15.5388 35.9904ZM33.9153 48.6595C33.8538 48.5894 33.8038 48.513 33.7653 48.4328C33.449 48.1593 33.0037 48 32.5187 48C31.9541 48 31.4433 48.2158 31.1273 48.5765C31.1144 48.5912 31.1011 48.6055 31.0874 48.6195L30.2835 49.435C30.2698 49.449 30.2556 49.4625 30.2411 49.4756C29.8851 49.7967 29.667 50.322 29.667 50.9078C29.667 51.4936 29.8851 52.0189 30.2411 52.3399C30.2702 52.3662 30.2977 52.3941 30.3235 52.4236C30.6395 52.7842 31.1503 53 31.7149 53C32.2795 53 32.7903 52.7842 33.1063 52.4236C33.1192 52.4088 33.1325 52.3945 33.1462 52.3806L33.9501 51.565C33.976 51.5387 34.0034 51.5139 34.0321 51.4906C34.6606 50.9804 34.8225 50.0651 34.5178 49.3462L33.9153 48.6595ZM26.7021 43.806L26.9668 43.5413C27.982 42.7954 29.2933 42.8437 30.1239 43.5427C30.8525 44.4112 30.8481 45.8664 30.1106 46.7278L27.3644 49.3368C27.344 49.3562 27.3244 49.3764 27.3057 49.3974C26.9711 49.7739 26.4287 50 25.8292 50C25.2297 50 24.6873 49.7739 24.3527 49.3974C24.3266 49.3681 24.2989 49.3404 24.2696 49.3144C23.8931 48.9797 23.667 48.4374 23.667 47.8379C23.667 47.2383 23.8931 46.696 24.2696 46.3613C24.2907 46.3426 24.3109 46.3231 24.3303 46.3027L26.7021 43.806ZM25.6461 42.0336L27.1322 40.5474C27.8191 39.7545 27.8702 38.4788 27.1347 37.4985C26.2774 36.7977 24.9218 36.8668 24.2766 37.512L24.2672 37.5214L19.1981 42.457C18.4958 43.2742 18.4901 44.6597 19.1809 45.4862C20.0089 46.1783 21.398 46.1712 22.2146 45.4651L25.2697 42.4099L25.5212 42.1452C25.5525 42.1123 25.586 42.0815 25.6215 42.0531L25.6461 42.0336Z" fill="#55246A"/>
</svg>
