<svg width="65" height="64" viewBox="0 0 65 64" fill="none" xmlns="http://www.w3.org/2000/svg">
<path fill-rule="evenodd" clip-rule="evenodd" d="M21.9841 10.2408C21.5648 9.88134 20.9335 9.9299 20.574 10.3492C20.2146 10.7686 20.2632 11.3999 20.6825 11.7593L27.4007 17.5178L20.1431 24.9969L20.1376 25.0025C19.0652 26.1252 19.0652 27.7644 20.1376 28.8871C20.2129 28.9658 20.3005 29.0318 20.397 29.0823L20.5387 29.1565C23.065 31.6664 27.1337 31.5943 29.7187 29.0573C29.7264 29.0497 29.7339 29.0421 29.7414 29.0343L31.8782 26.7973C34.2496 28.7047 37.4415 29.0067 40.0727 27.7033L49.7037 38.3635C50.5959 39.355 50.4712 40.6808 49.7577 41.4137C48.7 42.349 47.379 42.2406 46.7089 41.5706L43.375 38.2373C42.9845 37.8468 42.3513 37.8469 41.9608 38.2374C41.5703 38.628 41.5704 39.2611 41.9609 39.6516L45.2948 42.985C45.9779 43.668 46.0473 45.0948 45.3083 45.9948C44.2486 46.7934 42.9323 46.6836 42.2637 46.0151L38.9299 42.6817C38.5393 42.2913 37.9061 42.2913 37.5156 42.6819C37.1252 43.0724 37.1252 43.7056 37.5158 44.0961L40.8496 47.4294C41.5328 48.1125 41.6022 49.5392 40.8631 50.4393C39.8142 51.2298 38.5138 51.1302 37.839 50.4796L35.8627 48.2269C35.653 47.8436 35.3734 47.4925 35.0237 47.195C34.287 46.3945 33.249 46.0168 32.2522 46.0006C32.5042 44.6607 32.1691 43.2073 31.2467 42.1696C31.2207 42.1403 31.193 42.1126 31.1637 42.0866C30.4992 41.496 29.6976 41.1506 28.8637 41.0396C29.652 39.5094 29.435 37.5874 28.3093 36.1802C28.274 36.1361 28.235 36.095 28.1928 36.0575C26.6324 34.6705 24.0197 34.6129 22.5338 36.0927L22.3302 36.2908C22.3733 35.1472 21.964 33.9887 21.1022 33.1269C21.0761 33.1008 21.0486 33.0762 21.0198 33.0531C19.3456 31.7138 16.8807 31.5913 15.3333 33.0368V29C15.3333 28.6914 15.1908 28.4001 14.9472 28.2107L5.94724 21.2107C5.51129 20.8716 4.88302 20.9501 4.54395 21.3861C4.20488 21.822 4.28341 22.4503 4.71936 22.7894L13.3333 29.4891V35.0337L12.4602 35.9068C12.4341 35.9329 12.4095 35.9604 12.3864 35.9892C11.0199 37.6974 10.9201 40.2288 12.4602 41.7689C12.4726 41.7813 12.4853 41.7934 12.4983 41.8051C13.6264 42.8204 15.1289 43.2192 16.4664 42.8836C16.1276 44.2532 16.4357 45.7851 17.3908 46.8595C17.4168 46.8888 17.4445 46.9165 17.4738 46.9426C18.518 47.8707 19.9942 48.1879 21.3337 47.894C21.3472 48.9276 21.7344 50.008 22.5635 50.7698C23.3392 51.6139 24.445 52 25.4955 52C26.133 52 26.7908 51.8578 27.3829 51.5574C27.5086 52.3758 27.8766 53.181 28.5246 53.7854C29.2787 54.6176 30.3559 55 31.3811 55C32.4146 55 33.5008 54.6114 34.2558 53.7654L35.0049 53.0054C35.4993 52.5905 35.8557 52.0691 36.0741 51.5005L36.3598 51.8262C36.3676 51.835 36.3755 51.8437 36.3836 51.8523C36.3904 51.8596 36.3974 51.8668 36.4045 51.8738C37.9439 53.413 40.474 53.3132 42.1813 51.9476C42.2254 51.9123 42.2665 51.8733 42.304 51.8311C43.095 50.9414 43.4647 49.7189 43.3777 48.5465C44.5088 48.6196 45.6911 48.2513 46.6265 47.5032C46.6706 47.4679 46.7116 47.4289 46.7492 47.3867C47.543 46.4938 47.9125 45.2656 47.8219 44.0894C48.9686 44.1481 50.1696 43.7338 51.1159 42.8823C51.1289 42.8705 51.1416 42.8585 51.154 42.8461C52.6057 41.3946 52.7816 38.9448 51.3201 37.176L53.2573 29.4273L59.9777 23.7647C60.4 23.4089 60.4539 22.778 60.098 22.3557C59.7422 21.9333 59.1113 21.8794 58.6889 22.2353L51.7212 28.1063C51.5604 28.2417 51.4464 28.4245 51.3954 28.6285L49.7067 35.3834L41.7507 26.5771C41.9253 26.4238 42.0949 26.2613 42.2589 26.0895L46.0564 22.1141C46.4379 21.7147 46.4234 21.0817 46.024 20.7002C45.6247 20.3187 44.9917 20.3332 44.6102 20.7326L40.8127 24.7081C38.5343 27.0932 34.8327 27.0932 32.5543 24.7081C32.3656 24.5105 32.1043 24.3988 31.8312 24.3988C31.558 24.3988 31.2968 24.5105 31.1081 24.7081L28.3068 27.6407C26.4321 29.4694 23.5654 29.4328 21.8651 27.6528C21.7899 27.5741 21.7023 27.5081 21.6058 27.4576L21.4939 27.3991C21.2537 27.0733 21.2829 26.7008 21.5815 26.3864L30.2852 17.4172H38.4416C38.6931 17.4172 38.9354 17.3224 39.1201 17.1518L43.9021 12.7346C44.3078 12.3598 44.3329 11.7272 43.9582 11.3215C43.5834 10.9158 42.9508 10.8907 42.5451 11.2654L38.0504 15.4172H29.8621C29.5917 15.4172 29.3328 15.5267 29.1445 15.7208L28.7962 16.0797L21.9841 10.2408ZM15.205 35.9904C15.1152 36.1497 14.983 36.2819 14.8237 36.3717L13.9163 37.2791C13.1005 38.3351 13.1973 39.6563 13.8569 40.337C14.9112 41.2692 16.1967 41.1524 16.8677 40.3974C16.8864 40.3764 16.906 40.3562 16.9264 40.3368L19.6961 37.7055C20.5357 36.8569 20.5456 35.4417 19.7257 34.5798C18.6611 33.7604 17.3287 33.8667 16.6543 34.5411L15.205 35.9904ZM33.5816 48.6595C33.52 48.5894 33.4701 48.513 33.4315 48.4328C33.1153 48.1593 32.67 48 32.185 48C31.6204 48 31.1096 48.2158 30.7936 48.5765C30.7807 48.5912 30.7674 48.6055 30.7536 48.6195L29.9498 49.435C29.936 49.449 29.9219 49.4625 29.9073 49.4756C29.5513 49.7967 29.3333 50.322 29.3333 50.9078C29.3333 51.4936 29.5513 52.0189 29.9073 52.3399C29.9364 52.3662 29.9639 52.3941 29.9898 52.4236C30.3058 52.7842 30.8166 53 31.3811 53C31.9457 53 32.4565 52.7842 32.7725 52.4236C32.7854 52.4088 32.7987 52.3945 32.8125 52.3806L33.6163 51.565C33.6423 51.5387 33.6696 51.5139 33.6983 51.4906C34.3268 50.9804 34.4888 50.0651 34.1841 49.3462L33.5816 48.6595ZM26.3683 43.806L26.633 43.5413C27.6483 42.7954 28.9596 42.8437 29.7902 43.5427C30.5187 44.4112 30.5143 45.8664 29.7769 46.7278L27.0306 49.3368C27.0103 49.3562 26.9907 49.3764 26.972 49.3974C26.6373 49.7739 26.095 50 25.4955 50C24.8959 50 24.3536 49.7739 24.0189 49.3974C23.9929 49.3681 23.9652 49.3404 23.9359 49.3144C23.5594 48.9797 23.3333 48.4374 23.3333 47.8379C23.3333 47.2383 23.5594 46.696 23.9359 46.3613C23.9569 46.3426 23.9771 46.3231 23.9965 46.3027L26.3683 43.806ZM25.3124 42.0336L26.7985 40.5474C27.4853 39.7545 27.5365 38.4788 26.801 37.4985C25.9437 36.7977 24.5881 36.8668 23.9428 37.512L23.9334 37.5214L18.8643 42.457C18.1621 43.2742 18.1563 44.6597 18.8471 45.4862C19.6751 46.1783 21.0643 46.1712 21.8808 45.4651L24.936 42.4099L25.1874 42.1452C25.2188 42.1123 25.2523 42.0815 25.2878 42.0531L25.3124 42.0336Z" fill="#F7A600"/>
</svg>
