<svg width="64" height="64" viewBox="0 0 64 64" fill="none" xmlns="http://www.w3.org/2000/svg">
<path fill-rule="evenodd" clip-rule="evenodd" d="M29.3602 8C29.095 8 28.8406 8.10536 28.6531 8.29289C28.4656 8.48043 28.3602 8.73478 28.3602 9V20.1431H27.0002C26.448 20.1431 26.0002 20.5908 26.0002 21.1431C26.0002 21.6954 26.448 22.1431 27.0002 22.1431H28.3602V23C28.3602 23.5523 28.8079 24 29.3602 24C29.9125 24 30.3602 23.5523 30.3602 23V22.1431H35.5203C36.0726 22.1431 36.5203 21.6954 36.5203 21.1431C36.5203 20.5908 36.0726 20.1431 35.5203 20.1431H30.3602V18.7674C31.8782 18.7414 33.6916 18.6263 35.2403 18.1391C36.204 17.836 37.1455 17.3654 37.8524 16.6111C38.5818 15.8328 39.0002 14.8164 39.0002 13.5641C39.0002 12.3132 38.5833 11.2855 37.8709 10.4822C37.1769 9.69968 36.2478 9.17939 35.2834 8.82702C33.3703 8.12799 31.0627 8 29.3602 8ZM34.6401 16.2313C33.3675 16.6317 31.8077 16.7399 30.3602 16.7666V10.0173C31.7826 10.0682 33.3345 10.2442 34.597 10.7055C35.3727 10.9889 35.9736 11.3571 36.3746 11.8092C36.7572 12.2406 37.0002 12.7941 37.0002 13.5641C37.0002 14.3329 36.7587 14.8534 36.3931 15.2435C36.005 15.6576 35.4164 15.9871 34.6401 16.2313Z" fill="#F7A600"/>
<path fill-rule="evenodd" clip-rule="evenodd" d="M12.0002 5C12.0002 4.44772 12.448 4 13.0002 4H51.0002C51.5525 4 52.0002 4.44772 52.0002 5V26H58.0002C58.5525 26 59.0002 26.4477 59.0002 27C59.0002 27.5523 58.5525 28 58.0002 28H46.9819C46.9779 28.0295 46.9733 28.0587 46.9681 28.0875C46.8781 28.591 46.6001 29.1271 46.221 29.6924C45.4253 30.8791 44.7091 32.496 44.0076 34.1588C43.9237 34.3578 43.8397 34.5582 43.7556 34.7587C43.1616 36.1755 42.5649 37.5989 41.9597 38.6016C40.6247 40.8134 37.5114 44.8094 33.4416 47.0569C30.5951 48.6289 26.6953 51.8821 24.8659 53.5249C25.1404 54.3003 24.9937 55.2042 24.4259 55.8423L21.3472 59.3026C20.5229 60.2291 19.1509 60.2305 18.324 59.3187C17.1665 58.0407 15.779 56.4753 14.0162 54.4866L14.0153 54.4856L14.007 54.4762C12.9728 53.3095 11.8095 51.997 10.4875 50.5112C10.0685 50.0404 9.96271 49.4519 10.0111 48.9588C10.057 48.4903 10.2464 48.0237 10.5553 47.6541L13.2329 43.7913C13.2541 43.7607 13.2769 43.7314 13.3014 43.7034C14.0411 42.856 15.2593 42.7743 16.0913 43.4582C16.3731 41.6727 17.2638 40.2022 18.1451 38.907C18.3305 38.6345 18.5125 38.374 18.6895 38.1205C19.1334 37.4849 19.5466 36.8933 19.9071 36.2672C20.3973 35.416 20.7291 34.5963 20.817 33.723C20.9199 32.6998 20.9462 31.7741 20.9595 30.944C20.9617 30.8051 20.9635 30.6672 20.9653 30.5308C20.9741 29.8736 20.9824 29.2506 21.0305 28.7248C21.0519 28.4906 21.083 28.2447 21.1356 28H6.00024C5.44796 28 5.00024 27.5523 5.00024 27C5.00024 26.4477 5.44796 26 6.00024 26H12.0002V5ZM50.0002 6V26H14.0002V6H50.0002ZM43.868 28H43.887C43.9463 28.0001 44.005 28.0014 44.0628 28.0038C44.1383 28.007 44.2099 28.0097 44.2781 28.0123C44.5112 28.0212 44.7043 28.0286 44.8782 28.0457C44.8075 28.1865 44.7049 28.3624 44.5599 28.5786C43.6409 29.9491 42.8567 31.7415 42.1649 33.3814C42.0793 33.5843 41.9953 33.7844 41.9127 33.9811L41.9118 33.9832L41.9105 33.9863C41.303 35.4334 40.7707 36.7011 40.2474 37.5681C39.0102 39.6179 36.1216 43.2922 32.4747 45.3062C29.4917 46.9536 25.5706 50.2161 23.661 51.9193L18.0924 45.667C18.0901 45.6415 18.0868 45.6158 18.0825 45.59C17.7221 43.4404 18.5901 41.8081 19.7986 40.0322C19.9524 39.8062 20.1148 39.5736 20.2808 39.3359L20.2815 39.3349C20.7434 38.6736 21.233 37.9725 21.6403 37.2653C22.2084 36.2787 22.6804 35.1808 22.8069 33.9232C22.9184 32.8157 22.9457 31.8237 22.9592 30.9759C22.9617 30.8201 22.9637 30.671 22.9657 30.5281C22.9747 29.8727 22.9818 29.3478 23.0222 28.9069C23.0732 28.3488 23.1651 28.1377 23.2173 28.0675C23.2286 28.0523 23.2331 28.0489 23.2492 28.042C23.2756 28.0307 23.3549 28.0047 23.5268 28.0047C23.9275 28.0047 24.1824 28.0833 24.3548 28.1789C24.5258 28.2737 24.6774 28.4193 24.82 28.6497C25.1371 29.162 25.3253 29.9338 25.5473 31.0373C25.6186 31.3914 25.5902 31.9041 25.501 32.6607C25.4849 32.7981 25.4669 32.9424 25.4481 33.0924C25.3716 33.706 25.2832 34.414 25.2603 35.1224C25.2014 36.936 25.5586 39.0356 27.6448 40.591C29.1622 41.7223 30.7111 41.9742 32.1955 41.4582C33.5956 40.9715 34.8001 39.8477 35.8342 38.5417C37.5915 36.3224 39.139 33.1949 40.4633 30.5184L40.4649 30.5152L40.4659 30.5132C40.6973 30.0456 40.9218 29.5917 41.1395 29.159C41.3134 28.8132 41.6843 28.505 42.2568 28.2855C42.7604 28.0925 43.3411 28.0011 43.868 28ZM26.741 28H35.8737C35.6865 28.1483 35.5098 28.3111 35.3439 28.4871C34.2638 29.6326 33.7219 31.2429 33.51 32.7329C33.3594 33.7927 32.9878 35.5299 32.2274 36.9247C31.4688 38.3163 30.4816 39.1229 29.1 38.9841C29.013 38.9753 28.9274 38.978 28.8448 38.991L28.8402 38.9875C27.4968 37.986 27.2109 36.6764 27.2592 35.1873C27.2789 34.5798 27.3524 33.9885 27.4276 33.3834C27.4477 33.2218 27.468 33.0588 27.4873 32.8947C27.5723 32.1732 27.6511 31.3541 27.508 30.6428C27.3318 29.7672 27.1311 28.8054 26.741 28ZM38.6475 29.6766C38.7596 29.4504 38.871 29.2256 38.9817 29.0029C37.9886 28.9611 37.3033 29.3243 36.7991 29.8591C36.1113 30.5885 35.6711 31.7414 35.4901 33.0145C35.3458 34.0298 35.0063 35.7163 34.2904 37.2695C35.8936 35.234 37.321 32.3535 38.6475 29.6766ZM14.8243 45.0061L12.1696 48.8359C12.1466 48.8691 12.1216 48.9008 12.0948 48.931C12.076 48.9521 12.0536 48.9852 12.0348 49.0289C12.016 49.0725 12.0052 49.1163 12.0015 49.154C11.9992 49.1775 11.9997 49.1935 12.0008 49.2033C13.3278 50.6948 14.4917 52.0078 15.524 53.1725C17.2793 55.1528 18.655 56.7048 19.8055 57.9752C19.8152 57.9858 19.823 57.9923 19.8283 57.9961C19.834 57.992 19.8425 57.985 19.853 57.9731L22.9318 54.5129C23.0228 54.4106 23.0228 54.21 22.9318 54.1077L14.8367 45.0187C14.8318 45.0131 14.8276 45.009 14.8243 45.0061Z" fill="#F7A600"/>
</svg>
