<svg fill="none" viewBox="0 0 64 64" id="icon-a-money" xmlns="http://www.w3.org/2000/svg">
    <path fill-rule="evenodd" clip-rule="evenodd"
          d="M16 14a1 1 0 0 1 1-1h42a1 1 0 0 1 1 1v25a1 1 0 0 1-1 1h-2.864v-2H58V15H18v1.885h-2V14Zm-5 5a1 1 0 0 0-1 1v2.77h2V21h40v22h-1.864v2H53a1 1 0 0 0 1-1V20a1 1 0 0 0-1-1H11Zm-6 5a1 1 0 0 0-1 1v25a1 1 0 0 0 1 1h42a1 1 0 0 0 1-1V25a1 1 0 0 0-1-1H5Zm1 25V26h40v23H6Zm17.36-21a1 1 0 0 0-1 1V40.902H20a1 1 0 0 0 0 2h2.36V46a1 1 0 1 0 2 0v-3.098h7.16a1 1 0 1 0 0-2h-7.16v-1.587c1.52-.027 3.341-.15 4.897-.67.97-.324 1.913-.826 2.615-1.623.721-.818 1.128-1.875 1.128-3.173 0-1.297-.406-2.366-1.11-3.21-.69-.826-1.617-1.38-2.588-1.757C27.38 28.136 25.065 28 23.36 28Zm5.263 8.748c-1.265.423-2.818.538-4.263.567v-7.297c1.418.055 2.963.241 4.218.728.77.3 1.371.689 1.777 1.175.39.468.645 1.078.645 1.928 0 .85-.253 1.426-.628 1.85-.392.444-.98.792-1.749 1.05Z"
          fill="#76B82A"/>
</svg>
