<svg width="64" height="64" viewBox="0 0 64 64" fill="none" xmlns="http://www.w3.org/2000/svg">
<path fill-rule="evenodd" clip-rule="evenodd" d="M9 11.0947C9 7.10094 12.08 4 16.0947 4C19.9196 4 23 7.10074 23 11.0947C23 14.9009 19.9009 18 16.0947 18C12.1198 18 9 14.9214 9 11.0947ZM16.0947 6C13.1883 6 11 8.20179 11 11.0947C11 13.7758 13.1829 16 16.0947 16C18.7964 16 21 13.7964 21 11.0947C21 8.16756 18.7777 6 16.0947 6Z" fill="#55246A"/>
<path fill-rule="evenodd" clip-rule="evenodd" d="M4 29.3271C4 23.683 9.01107 19 14.9853 19H22C22.0352 19 22.07 19.0018 22.1043 19.0054L24.9491 17.7515C25.2141 17.6347 25.4154 17.4088 25.5011 17.1322L27.9192 9.32149C28.398 7.73702 30.0739 6.58242 31.8619 7.13947C31.8814 7.14554 31.9007 7.1522 31.9197 7.15944C32.7486 7.47442 33.3318 8.19219 33.6549 8.91625C33.9798 9.64417 34.1175 10.5419 33.8815 11.3783L31.1808 21.9203C30.9776 22.7135 30.4591 23.3891 29.7454 23.7905L23 27.5848V57C23 58.6569 21.6569 60 20 60H12C10.3431 60 9 58.6569 9 57V43H7C5.34315 43 4 41.6569 4 40V29.3271ZM21.0053 26.8965C21.001 26.9373 20.9992 26.9785 21 27.0197V57C21 57.5523 20.5523 58 20 58H17V40C17 39.4477 16.5523 39 16 39C15.4477 39 15 39.4477 15 40V58H12C11.4477 58 11 57.5523 11 57V32C11 31.4477 10.5523 31 10 31C9.44772 31 9 31.4477 9 32V41H7C6.44772 41 6 40.5523 6 40V29.3271C6 24.9024 9.99722 21 14.9853 21H22C22.0557 21 22.1104 20.9954 22.1637 20.9867C22.3492 21.0176 22.5455 20.9966 22.7305 20.9151L25.7558 19.5816C26.5507 19.2313 27.1547 18.5535 27.4116 17.7237L29.8309 9.90946L29.8332 9.90165C30.0352 9.23 30.6704 8.88396 31.2346 9.03942C31.4138 9.11891 31.655 9.34242 31.8286 9.73137C32.0067 10.1305 32.0401 10.5456 31.9551 10.8403L31.9506 10.8566L31.9473 10.8691L29.2434 21.424C29.1756 21.6884 29.0028 21.9136 28.7649 22.0474L21.5269 26.1188C21.4906 26.1383 21.4556 26.16 21.4221 26.1838C21.3028 26.268 21.2068 26.3749 21.1366 26.4951C21.0663 26.6152 21.0202 26.7512 21.0053 26.8965Z" fill="#55246A"/>
<path d="M55.7747 10.6323C56.1239 10.2044 56.0602 9.57449 55.6323 9.22528C55.2044 8.87607 54.5745 8.93983 54.2253 9.3677L47.6554 17.4173L44.7755 13.8799C44.4268 13.4516 43.7969 13.387 43.3686 13.7357C42.9403 14.0844 42.8758 14.7143 43.2245 15.1426L46.879 19.6314C47.0688 19.8644 47.3533 19.9998 47.6539 20C47.9544 20.0002 48.2392 19.8652 48.4292 19.6323L55.7747 10.6323Z" fill="#55246A"/>
<path fill-rule="evenodd" clip-rule="evenodd" d="M39 5C39 4.44772 39.4477 4 40 4H59C59.5523 4 60 4.44772 60 5V24C60 24.5523 59.5523 25 59 25H40C39.4477 25 39 24.5523 39 24V5ZM41 6V23H58V6H41Z" fill="#55246A"/>
</svg>
