<svg width="64" height="64" viewBox="0 0 64 64" fill="none" xmlns="http://www.w3.org/2000/svg">
<path fill-rule="evenodd" clip-rule="evenodd" d="M29 27C29 25.3431 30.3431 24 32 24C33.6569 24 35 25.3431 35 27V45C35 46.6569 33.6569 48 32 48C30.3431 48 29 46.6569 29 45V27ZM32 26C31.4477 26 31 26.4477 31 27V45C31 45.5523 31.4477 46 32 46C32.5523 46 33 45.5523 33 45V27C33 26.4477 32.5523 26 32 26Z" fill="#F7A600"/>
<path fill-rule="evenodd" clip-rule="evenodd" d="M32 16C30.3431 16 29 17.3431 29 19C29 20.6569 30.3431 22 32 22C33.6569 22 35 20.6569 35 19C35 17.3431 33.6569 16 32 16ZM31 19C31 18.4477 31.4477 18 32 18C32.5523 18 33 18.4477 33 19C33 19.5523 32.5523 20 32 20C31.4477 20 31 19.5523 31 19Z" fill="#F7A600"/>
<path fill-rule="evenodd" clip-rule="evenodd" d="M7 31C7 17.1929 18.1929 6 32 6C45.8071 6 57 17.1929 57 31C57 35.9889 55.5376 40.6394 53.0178 44.5424C52.7769 44.9155 52.5731 45.5176 52.4583 46.349C52.3454 47.1662 52.3277 48.1367 52.4059 49.1898C52.5626 51.3 53.0972 53.6482 53.922 55.6129C54.067 55.9582 54.1749 56.3018 54.2124 56.6319C54.2496 56.9599 54.2257 57.3587 54.0067 57.7259C53.5314 58.5228 52.6167 58.5049 52.1563 58.45C51.5981 58.3833 50.9486 58.1766 50.2972 57.9262C49.6308 57.67 48.8939 57.3406 48.143 56.9897C47.6189 56.7447 47.0913 56.4911 46.5693 56.2402C45.5647 55.7573 44.5811 55.2844 43.6834 54.9027C43.007 54.6151 42.4286 54.4013 41.9735 54.2842C41.7467 54.2259 41.5769 54.1986 41.4578 54.1917C41.3983 54.1883 41.3646 54.1908 41.351 54.1922C38.4611 55.3584 35.3042 56 32 56C18.1929 56 7 44.8071 7 31ZM32 8C19.2975 8 9 18.2975 9 31C9 43.7025 19.2975 54 32 54C35.0519 54 37.9627 53.4061 40.6248 52.3285C40.951 52.1965 41.2898 52.1787 41.5731 52.1951C41.8655 52.2119 42.171 52.2699 42.4718 52.3473C43.0723 52.5018 43.759 52.7616 44.466 53.0622C45.4041 53.4611 46.4647 53.9707 47.4967 54.4666C48.0072 54.7119 48.5115 54.9542 48.9898 55.1778C49.7278 55.5227 50.4146 55.8286 51.0149 56.0594C51.4498 56.2265 51.8072 56.3415 52.0864 56.4073L52.078 56.3871C51.1632 54.2083 50.5829 51.6467 50.4114 49.3379C50.3255 48.1815 50.3404 47.0651 50.4771 46.0753C50.6118 45.0997 50.8746 44.1746 51.3376 43.4576C53.6549 39.8682 55 35.5927 55 31C55 18.2975 44.7025 8 32 8Z" fill="#F7A600"/>
</svg>
