<svg width="64" height="64" viewBox="0 0 64 64" fill="none" xmlns="http://www.w3.org/2000/svg">
<g id="icon64/leasing finance ">
<g id="vector">
<path fill-rule="evenodd" clip-rule="evenodd" d="M46.155 11.8787C44.9688 10.7071 43.081 10.7071 41.8948 11.8787C40.7017 13.0571 40.7017 14.9429 41.8948 16.1213C43.081 17.2929 44.9688 17.2929 46.155 16.1213C46.1653 16.1111 46.1754 16.1007 46.1853 16.0901C47.2716 14.9196 47.2716 13.0804 46.1853 11.9099C46.1754 11.8993 46.1653 11.8889 46.155 11.8787ZM43.3002 13.3016C43.7022 12.9046 44.3262 12.8995 44.7338 13.2864C45.0887 13.6854 45.0887 14.3146 44.7338 14.7136C44.3262 15.1005 43.7022 15.0954 43.3002 14.6984C42.8999 14.303 42.8999 13.697 43.3002 13.3016Z" fill="#F7A600"/>
<path fill-rule="evenodd" clip-rule="evenodd" d="M47.845 21.8787C49.046 20.6925 50.8475 20.7309 52.0762 21.8512C52.0861 21.8602 52.0957 21.8693 52.1052 21.8787C53.2983 23.0571 53.2983 24.9429 52.1052 26.1213C50.919 27.2929 49.0312 27.2929 47.845 26.1213C47.8347 26.1111 47.8246 26.1007 47.8147 26.0901C46.7284 24.9196 46.7284 23.0804 47.8147 21.9099C47.8246 21.8993 47.8347 21.8889 47.845 21.8787ZM49.2663 23.2862C48.9113 23.6852 48.9112 24.3146 49.2662 24.7136C49.6738 25.1005 50.2978 25.0954 50.6998 24.6984C51.0955 24.3075 51.1 23.7108 50.7133 23.3152C50.2259 22.8824 49.6544 22.9171 49.2663 23.2862Z" fill="#F7A600"/>
<path d="M51.7071 15.7071C52.0976 15.3166 52.0976 14.6834 51.7071 14.2929C51.3166 13.9024 50.6834 13.9024 50.2929 14.2929L42.2929 22.2929C41.9024 22.6834 41.9024 23.3166 42.2929 23.7071C42.6834 24.0976 43.3166 24.0976 43.7071 23.7071L51.7071 15.7071Z" fill="#F7A600"/>
<path fill-rule="evenodd" clip-rule="evenodd" d="M34 19C34 11.9478 39.5834 6 46.9098 6C54.2166 6 60 11.928 60 19C60 26.072 54.2166 32 46.9098 32C39.7736 32 34 26.0622 34 19ZM46.9098 8C40.7324 8 36 13.0074 36 19C36 24.9826 40.903 30 46.9098 30C53.1067 30 58 24.9728 58 19C58 13.0272 53.1067 8 46.9098 8Z" fill="#F7A600"/>
<path fill-rule="evenodd" clip-rule="evenodd" d="M33 13C33 12.4477 32.5523 12 32 12H27.8487C25.8158 12 24 13.7421 24 15.7841V26H10.7143C10.3401 26 9.99717 26.2089 9.82559 26.5415L4.83947 36.206L4.1221 37.5211C4.03434 37.682 3.994 37.8608 4.00072 38.0379C4.00024 38.0506 4 38.0632 4 38.0759V49C4 49.5523 4.44772 50 5 50H8.17337C8.617 51.7883 9.87206 53.241 11.4734 54H5C4.44772 54 4 54.4477 4 55C4 55.5523 4.44772 56 5 56H59C59.5523 56 60 55.5523 60 55C60 54.4477 59.5523 54 59 54H49.6629C51.2967 53.2392 52.5194 51.7827 52.9498 50H56.1513C57.2213 50 58.193 49.6287 58.9018 48.936C59.6121 48.2418 60 47.281 60 46.2159V30C60 29.4477 59.5523 29 59 29C58.4477 29 58 29.4477 58 30V46.2159C58 46.7852 57.7997 47.2165 57.5038 47.5057C57.2063 47.7965 56.7537 48 56.1513 48H53.0892C52.7909 45.048 50.2224 42.5739 47.0424 42.5739C43.9742 42.5739 41.443 45.0651 41.1471 48H26V15.7841C26 14.8897 26.877 14 27.8487 14H32C32.5523 14 33 13.5523 33 13ZM44.5106 54H16.5889C18.2044 53.2379 19.4088 51.7786 19.8334 50H41.2855C41.7121 51.7811 42.9204 53.2387 44.5106 54ZM24 28H20V36C20 37.6569 18.6569 39 17 39H6V48H8.02996C8.33873 45.0452 10.9914 42.5739 14 42.5739C17.1527 42.5739 19.6771 45.0593 19.9713 48H24V28ZM18 28H11.5936L6.68454 37H17C17.5523 37 18 36.5523 18 36V28ZM51.1182 48.5739C51.1182 46.4733 49.3149 44.5739 47.0424 44.5739C44.93 44.5739 43.1182 46.4518 43.1182 48.5739C43.1182 50.8256 44.9109 52.5739 47.0424 52.5739C49.3436 52.5739 51.1182 50.7951 51.1182 48.5739ZM18 48.5739C18 46.4591 16.2162 44.5739 14 44.5739C11.903 44.5739 10 46.4769 10 48.5739C10 50.8008 11.8836 52.5739 14 52.5739C16.2446 52.5739 18 50.8093 18 48.5739Z" fill="#F7A600"/>
</g>
</g>
</svg>
