<svg width="64" height="64" viewBox="0 0 64 64" fill="none" xmlns="http://www.w3.org/2000/svg">
<g id="icon64/leasing returnable">
<g id="vector">
<path d="M45.9248 8C39.8652 8 35.2164 12.8077 35.0073 18.5931L33.7071 17.2929C33.3166 16.9024 32.6834 16.9024 32.2929 17.2929C31.9024 17.6834 31.9024 18.3166 32.2929 18.7071L35.2929 21.7071C35.6834 22.0976 36.3166 22.0976 36.7071 21.7071L39.7071 18.7071C40.0976 18.3166 40.0976 17.6834 39.7071 17.2929C39.3166 16.9024 38.6834 16.9024 38.2929 17.2929L37.0097 18.5761C37.2252 13.8608 41.019 10 45.9248 10C48.4786 10 50.7598 11.0415 52.3985 12.7023C52.7864 13.0955 53.4195 13.0997 53.8126 12.7118C54.2058 12.3239 54.21 11.6908 53.8221 11.2977C51.8243 9.27279 49.0369 8 45.9248 8Z" fill="#F7A600"/>
<path d="M54.9899 19.4243L53.7071 20.7071C53.3166 21.0976 52.6834 21.0976 52.2929 20.7071C51.9024 20.3166 51.9024 19.6834 52.2929 19.2929L55.2929 16.2929C55.6834 15.9024 56.3166 15.9024 56.7071 16.2929L59.7071 19.2929C60.0976 19.6834 60.0976 20.3166 59.7071 20.7071C59.3166 21.0976 58.6834 21.0976 58.2929 20.7071L56.9925 19.4067C56.7768 25.2104 51.9658 30 45.9248 30C42.9533 30 40.2614 28.7814 38.2972 26.8408C37.9043 26.4527 37.9005 25.8195 38.2886 25.4267C38.6768 25.0338 39.3099 25.0299 39.7028 25.4181C41.3166 27.0124 43.5122 28 45.9248 28C50.8489 28 54.7662 24.1216 54.9899 19.4243Z" fill="#F7A600"/>
<path fill-rule="evenodd" clip-rule="evenodd" d="M32 12C32.5523 12 33 12.4477 33 13C33 13.5523 32.5523 14 32 14H27.8487C26.877 14 26 14.8897 26 15.7841V48H41.1471C41.443 45.0651 43.9742 42.5739 47.0424 42.5739C50.2224 42.5739 52.7909 45.048 53.0892 48H56.1513C56.7537 48 57.2063 47.7965 57.5038 47.5057C57.7997 47.2165 58 46.7852 58 46.2159V27C58 26.4477 58.4477 26 59 26C59.5523 26 60 26.4477 60 27V46.2159C60 47.281 59.6121 48.2418 58.9018 48.936C58.193 49.6287 57.2213 50 56.1513 50H52.9498C52.5194 51.7827 51.2967 53.2392 49.6629 54H59C59.5523 54 60 54.4477 60 55C60 55.5523 59.5523 56 59 56H5C4.44772 56 4 55.5523 4 55C4 54.4477 4.44772 54 5 54H11.4734C9.87206 53.241 8.617 51.7883 8.17337 50H5C4.44772 50 4 49.5523 4 49V38.0759C4 38.0632 4.00024 38.0506 4.00072 38.0379C3.994 37.8608 4.03434 37.682 4.1221 37.5211L4.83947 36.206L9.82559 26.5415C9.99717 26.2089 10.3401 26 10.7143 26H24V15.7841C24 13.7421 25.8158 12 27.8487 12H32ZM16.5889 54H44.5106C42.9204 53.2387 41.7121 51.7811 41.2855 50H19.8334C19.4088 51.7786 18.2044 53.2379 16.5889 54ZM20 28H24V48H19.9713C19.6771 45.0593 17.1527 42.5739 14 42.5739C10.9914 42.5739 8.33873 45.0452 8.02996 48H6V39H17C18.6569 39 20 37.6569 20 36V28ZM11.5936 28H18V36C18 36.5523 17.5523 37 17 37H6.68454L11.5936 28ZM47.0424 44.5739C49.3149 44.5739 51.1182 46.4733 51.1182 48.5739C51.1182 50.7951 49.3436 52.5739 47.0424 52.5739C44.9109 52.5739 43.1182 50.8256 43.1182 48.5739C43.1182 46.4518 44.93 44.5739 47.0424 44.5739ZM14 44.5739C16.2162 44.5739 18 46.4591 18 48.5739C18 50.8093 16.2446 52.5739 14 52.5739C11.8836 52.5739 10 50.8008 10 48.5739C10 46.4769 11.903 44.5739 14 44.5739Z" fill="#F7A600"/>
</g>
</g>
</svg>
