<svg width="65" height="64" viewBox="0 0 65 64" fill="none" xmlns="http://www.w3.org/2000/svg">
<path fill-rule="evenodd" clip-rule="evenodd" d="M50.6665 4C53.2436 4 55.622 4.40444 57.3929 5.09312C58.2752 5.43622 59.0574 5.86943 59.6361 6.4015C60.2156 6.93437 60.6665 7.64238 60.6665 8.5C60.6665 8.60359 60.66 8.705 60.6474 8.80418C60.6599 8.8675 60.6665 8.93298 60.6665 9V14.4396C60.6665 14.5564 60.6583 14.6705 60.6427 14.7819C60.6583 14.8521 60.6665 14.9251 60.6665 15V20.4396C60.6665 21.2989 60.2222 22.0134 59.6424 22.5558C59.0641 23.0966 58.2817 23.5376 57.3984 23.8871C55.6258 24.5883 53.2453 25 50.6665 25C48.0877 25 45.7073 24.5883 43.9347 23.8871C43.0513 23.5376 42.2689 23.0966 41.6907 22.5558C41.6826 22.5482 41.6746 22.5406 41.6665 22.533C41.6585 22.5406 41.6504 22.5482 41.6424 22.5558C41.0641 23.0966 40.2817 23.5376 39.3983 23.8871C37.6258 24.5883 35.2453 25 32.6665 25C30.0877 25 27.7073 24.5883 25.9347 23.8871C25.0513 23.5376 24.2689 23.0966 23.6907 22.5558C23.1108 22.0134 22.6665 21.2989 22.6665 20.4396V15C22.6665 14.933 22.6731 14.8675 22.6857 14.8042C22.6731 14.705 22.6665 14.6036 22.6665 14.5C22.6665 13.6424 23.1174 12.9344 23.697 12.4015C24.2757 11.8694 25.0578 11.4362 25.9401 11.0931C27.711 10.4044 30.0895 10 32.6665 10C35.2436 10 37.622 10.4044 39.3929 11.0931C39.849 11.2705 40.2783 11.4719 40.6665 11.6986V9C40.6665 8.93298 40.6731 8.8675 40.6857 8.80418C40.6731 8.705 40.6665 8.60359 40.6665 8.5C40.6665 7.64238 41.1174 6.93437 41.697 6.4015C42.2757 5.86943 43.0579 5.43622 43.9401 5.09312C45.711 4.40444 48.0895 4 50.6665 4ZM58.6665 8.5C58.6665 8.39112 58.6137 8.17839 58.2824 7.87378C57.9503 7.56839 57.4145 7.2474 56.668 6.95713C55.1816 6.37906 53.0601 6 50.6665 6C48.273 6 46.1515 6.37906 44.665 6.95713C43.9186 7.2474 43.3828 7.56839 43.0506 7.87378C42.7193 8.17839 42.6665 8.39112 42.6665 8.5C42.6665 8.60888 42.7193 8.82161 43.0506 9.12622C43.3828 9.43161 43.9186 9.7526 44.665 10.0429C46.1515 10.6209 48.273 11 50.6665 11C53.0601 11 55.1816 10.6209 56.668 10.0429C57.4145 9.7526 57.9503 9.43161 58.2824 9.12622C58.6137 8.82161 58.6665 8.60888 58.6665 8.5ZM42.6665 20.4396C42.6665 20.5634 42.7259 20.7855 43.0569 21.0951C43.3895 21.4062 43.9251 21.7324 44.6704 22.0273C46.1552 22.6147 48.2747 23 50.6665 23C53.0583 23 55.1778 22.6147 56.6626 22.0273C57.4079 21.7324 57.9435 21.4062 58.2762 21.0951C58.6072 20.7855 58.6665 20.5634 58.6665 20.4396V17.2745C58.2798 17.5036 57.8524 17.7074 57.3984 17.8871C55.6258 18.5883 53.2453 19 50.6665 19C48.0877 19 45.7073 18.5883 43.9347 17.8871C43.4806 17.7074 43.0532 17.5036 42.6665 17.2745V20.4396ZM40.6665 17.3014C40.2782 17.5281 39.849 17.7295 39.3929 17.9069C37.622 18.5956 35.2436 19 32.6665 19C30.0895 19 27.711 18.5956 25.9401 17.9069C25.4841 17.7295 25.0548 17.5281 24.6665 17.3014V20.4396C24.6665 20.5634 24.7259 20.7855 25.0569 21.0951C25.3895 21.4062 25.9251 21.7324 26.6704 22.0273C28.1552 22.6147 30.2747 23 32.6665 23C35.0583 23 37.1778 22.6147 38.6626 22.0273C39.4079 21.7324 39.9435 21.4062 40.2762 21.0951C40.6072 20.7855 40.6665 20.5634 40.6665 20.4396V17.3014ZM42.6665 11.3014V14.4396C42.6665 14.5634 42.7259 14.7855 43.0569 15.0951C43.3895 15.4062 43.9251 15.7324 44.6704 16.0273C46.1552 16.6147 48.2747 17 50.6665 17C53.0583 17 55.1778 16.6147 56.6626 16.0273C57.4079 15.7324 57.9435 15.4062 58.2762 15.0951C58.6072 14.7855 58.6665 14.5634 58.6665 14.4396V11.3014C58.2783 11.5281 57.849 11.7295 57.3929 11.9069C55.622 12.5956 53.2436 13 50.6665 13C48.0895 13 45.711 12.5956 43.9401 11.9069C43.4841 11.7295 43.0548 11.5281 42.6665 11.3014ZM40.6665 14.5C40.6665 14.3911 40.6137 14.1784 40.2824 13.8738C39.9503 13.5684 39.4145 13.2474 38.668 12.9571C37.1816 12.3791 35.06 12 32.6665 12C30.273 12 28.1515 12.3791 26.665 12.9571C25.9186 13.2474 25.3828 13.5684 25.0506 13.8738C24.7193 14.1784 24.6665 14.3911 24.6665 14.5C24.6665 14.6089 24.7193 14.8216 25.0506 15.1262C25.3828 15.4316 25.9186 15.7526 26.665 16.0429C28.1515 16.6209 30.273 17 32.6665 17C35.06 17 37.1816 16.6209 38.668 16.0429C39.4145 15.7526 39.9503 15.4316 40.2824 15.1262C40.6137 14.8216 40.6665 14.6089 40.6665 14.5Z" fill="#F7A600"/>
<path d="M20.4125 11.334C20.7803 11.746 20.7445 12.3781 20.3325 12.7459L11.3725 20.7459C10.9931 21.0847 10.4199 21.0847 10.0405 20.7459L5.0005 16.2459C4.58853 15.8781 4.55275 15.246 4.92058 14.834C5.28841 14.422 5.92056 14.3862 6.33253 14.7541L10.7065 18.6594L19.0005 11.2541C19.4125 10.8862 20.0446 10.922 20.4125 11.334Z" fill="#F7A600"/>
<path d="M4.66652 32C4.66652 31.4477 5.11424 31 5.66652 31L59.6665 31C60.2188 31 60.6665 31.4477 60.6665 32C60.6665 32.5523 60.2188 33 59.6665 33L5.66652 33C5.11424 33 4.66652 32.5523 4.66652 32Z" fill="#F7A600"/>
<path fill-rule="evenodd" clip-rule="evenodd" d="M14.6665 39C17.2436 39 19.622 39.4044 21.3929 40.0931C22.2752 40.4362 23.0574 40.8694 23.6361 41.4015C24.2156 41.9344 24.6665 42.6424 24.6665 43.5C24.6665 43.6036 24.6599 43.705 24.6474 43.8042C24.6599 43.8675 24.6665 43.933 24.6665 44V46.6986C25.0548 46.4719 25.4841 46.2705 25.9401 46.0931C27.711 45.4044 30.0895 45 32.6665 45C35.2436 45 37.622 45.4044 39.3929 46.0931C39.849 46.2705 40.2783 46.4719 40.6665 46.6986V44C40.6665 43.933 40.6731 43.8675 40.6857 43.8042C40.6731 43.705 40.6665 43.6036 40.6665 43.5C40.6665 42.6424 41.1174 41.9344 41.697 41.4015C42.2757 40.8694 43.0579 40.4362 43.9401 40.0931C45.711 39.4044 48.0895 39 50.6665 39C53.2436 39 55.622 39.4044 57.3929 40.0931C58.2752 40.4362 59.0574 40.8694 59.6361 41.4015C60.2156 41.9344 60.6665 42.6424 60.6665 43.5C60.6665 43.6036 60.66 43.705 60.6474 43.8042C60.6599 43.8675 60.6665 43.933 60.6665 44V49.4396C60.6665 49.5564 60.6583 49.6705 60.6427 49.7819C60.6583 49.8521 60.6665 49.9251 60.6665 50V55.4396C60.6665 56.2989 60.2222 57.0134 59.6424 57.5558C59.0641 58.0966 58.2817 58.5376 57.3984 58.8871C55.6258 59.5883 53.2453 60 50.6665 60C48.0877 60 45.7073 59.5883 43.9347 58.8871C43.0513 58.5376 42.2689 58.0966 41.6907 57.5558L41.6665 57.533L41.6424 57.5558C41.0641 58.0966 40.2817 58.5376 39.3983 58.8871C37.6258 59.5883 35.2453 60 32.6665 60C30.0877 60 27.7073 59.5883 25.9347 58.8871C25.0513 58.5376 24.2689 58.0966 23.6907 57.5558L23.6665 57.533L23.6423 57.5558C23.0641 58.0966 22.2817 58.5376 21.3983 58.8871C19.6258 59.5883 17.2453 60 14.6665 60C12.0877 60 9.70728 59.5883 7.9347 58.8871C7.05134 58.5376 6.26892 58.0966 5.6907 57.5558C5.11083 57.0134 4.66652 56.2989 4.66652 55.4396V50C4.66652 49.9251 4.67476 49.8521 4.69038 49.7819C4.67473 49.6705 4.66652 49.5564 4.66652 49.4396V44C4.66652 43.933 4.67312 43.8675 4.68569 43.8042C4.6731 43.705 4.66652 43.6036 4.66652 43.5C4.66652 42.6424 5.1174 41.9344 5.69696 41.4015C6.27566 40.8694 7.05785 40.4362 7.94012 40.0931C9.711 39.4044 12.0895 39 14.6665 39ZM22.6665 43.5C22.6665 43.3911 22.6137 43.1784 22.2824 42.8738C21.9503 42.5684 21.4145 42.2474 20.668 41.9571C19.1816 41.3791 17.06 41 14.6665 41C12.273 41 10.1515 41.3791 8.66501 41.9571C7.91859 42.2474 7.38277 42.5684 7.05062 42.8738C6.71932 43.1784 6.66652 43.3911 6.66652 43.5C6.66652 43.6089 6.71932 43.8216 7.05062 44.1262C7.38277 44.4316 7.91859 44.7526 8.66501 45.0429C10.1515 45.6209 12.273 46 14.6665 46C17.06 46 19.1816 45.6209 20.668 45.0429C21.4145 44.7526 21.9503 44.4316 22.2824 44.1262C22.6137 43.8216 22.6665 43.6089 22.6665 43.5ZM57.3984 52.8871C57.8524 52.7074 58.2798 52.5036 58.6665 52.2745V55.4396C58.6665 55.5634 58.6072 55.7855 58.2762 56.0951C57.9435 56.4062 57.4079 56.7324 56.6626 57.0273C55.1778 57.6147 53.0583 58 50.6665 58C48.2747 58 46.1552 57.6147 44.6704 57.0273C43.9251 56.7324 43.3895 56.4062 43.0569 56.0951C42.7259 55.7855 42.6665 55.5634 42.6665 55.4396V52.2745C43.0532 52.5036 43.4806 52.7074 43.9347 52.8871C45.7073 53.5883 48.0877 54 50.6665 54C53.2453 54 55.6258 53.5883 57.3984 52.8871ZM39.3929 52.9069C39.849 52.7295 40.2782 52.5281 40.6665 52.3014V55.4396C40.6665 55.5634 40.6072 55.7855 40.2762 56.0951C39.9435 56.4062 39.4079 56.7324 38.6626 57.0273C37.1778 57.6147 35.0583 58 32.6665 58C30.2747 58 28.1552 57.6147 26.6704 57.0273C25.9251 56.7324 25.3895 56.4062 25.0569 56.0951C24.7259 55.7855 24.6665 55.5634 24.6665 55.4396V52.3014C25.0548 52.5281 25.4841 52.7295 25.9401 52.9069C27.711 53.5956 30.0895 54 32.6665 54C35.2436 54 37.622 53.5956 39.3929 52.9069ZM42.6665 49.4396V46.3014C43.0548 46.5281 43.4841 46.7295 43.9401 46.9069C45.711 47.5956 48.0895 48 50.6665 48C53.2436 48 55.622 47.5956 57.3929 46.9069C57.849 46.7295 58.2783 46.5281 58.6665 46.3014V49.4396C58.6665 49.5634 58.6072 49.7855 58.2762 50.0951C57.9435 50.4062 57.4079 50.7324 56.6626 51.0273C55.1778 51.6147 53.0583 52 50.6665 52C48.2747 52 46.1552 51.6147 44.6704 51.0273C43.9251 50.7324 43.3895 50.4062 43.0569 50.0951C42.7259 49.7855 42.6665 49.5634 42.6665 49.4396ZM21.3983 52.8871C21.8524 52.7074 22.2798 52.5036 22.6665 52.2745V55.4396C22.6665 55.5634 22.6071 55.7855 22.2762 56.0951C21.9435 56.4062 21.4079 56.7324 20.6626 57.0273C19.1778 57.6147 17.0583 58 14.6665 58C12.2747 58 10.1552 57.6147 8.67043 57.0273C7.92511 56.7324 7.38951 56.4062 7.05688 56.0951C6.7259 55.7855 6.66652 55.5634 6.66652 55.4396V52.2745C7.05323 52.5036 7.48063 52.7074 7.9347 52.8871C9.70728 53.5883 12.0877 54 14.6665 54C17.2453 54 19.6258 53.5883 21.3983 52.8871ZM21.3929 46.9069C21.849 46.7295 22.2782 46.5281 22.6665 46.3014V49.4396C22.6665 49.5634 22.6071 49.7855 22.2762 50.0951C21.9435 50.4062 21.4079 50.7324 20.6626 51.0273C19.1778 51.6147 17.0583 52 14.6665 52C12.2747 52 10.1552 51.6147 8.67043 51.0273C7.92511 50.7324 7.38951 50.4062 7.05688 50.0951C6.7259 49.7855 6.66652 49.5634 6.66652 49.4396V46.3014C7.0548 46.5281 7.48409 46.7295 7.94012 46.9069C9.711 47.5956 12.0895 48 14.6665 48C17.2436 48 19.622 47.5956 21.3929 46.9069ZM40.2824 48.8738C40.6137 49.1784 40.6665 49.3911 40.6665 49.5C40.6665 49.6089 40.6137 49.8216 40.2824 50.1262C39.9503 50.4316 39.4145 50.7526 38.668 51.0429C37.1816 51.6209 35.06 52 32.6665 52C30.273 52 28.1515 51.6209 26.665 51.0429C25.9186 50.7526 25.3828 50.4316 25.0506 50.1262C24.7193 49.8216 24.6665 49.6089 24.6665 49.5C24.6665 49.3911 24.7193 49.1784 25.0506 48.8738C25.3828 48.5684 25.9186 48.2474 26.665 47.9571C28.1515 47.3791 30.273 47 32.6665 47C35.06 47 37.1816 47.3791 38.668 47.9571C39.4145 48.2474 39.9503 48.5684 40.2824 48.8738ZM58.2824 42.8738C58.6137 43.1784 58.6665 43.3911 58.6665 43.5C58.6665 43.6089 58.6137 43.8216 58.2824 44.1262C57.9503 44.4316 57.4145 44.7526 56.668 45.0429C55.1816 45.6209 53.0601 46 50.6665 46C48.273 46 46.1515 45.6209 44.665 45.0429C43.9186 44.7526 43.3828 44.4316 43.0506 44.1262C42.7193 43.8216 42.6665 43.6089 42.6665 43.5C42.6665 43.3911 42.7193 43.1784 43.0506 42.8738C43.3828 42.5684 43.9186 42.2474 44.665 41.9571C46.1515 41.3791 48.273 41 50.6665 41C53.0601 41 55.1816 41.3791 56.668 41.9571C57.4145 42.2474 57.9503 42.5684 58.2824 42.8738Z" fill="#F7A600"/>
</svg>
