<svg width="65" height="64" viewBox="0 0 65 64" fill="none" xmlns="http://www.w3.org/2000/svg">
<path d="M12.666 34C12.666 33.4477 13.1137 33 13.666 33H31.666C32.2183 33 32.666 33.4477 32.666 34C32.666 34.5523 32.2183 35 31.666 35H13.666C13.1137 35 12.666 34.5523 12.666 34Z" fill="#76B82A"/>
<path d="M13.666 40C13.1137 40 12.666 40.4477 12.666 41C12.666 41.5523 13.1137 42 13.666 42H26.666C27.2183 42 27.666 41.5523 27.666 41C27.666 40.4477 27.2183 40 26.666 40H13.666Z" fill="#76B82A"/>
<path d="M12.666 27C12.666 26.4477 13.1137 26 13.666 26H31.666C32.2183 26 32.666 26.4477 32.666 27C32.666 27.5523 32.2183 28 31.666 28H13.666C13.1137 28 12.666 27.5523 12.666 27Z" fill="#76B82A"/>
<path d="M45.666 37C46.2183 37 46.666 37.4477 46.666 38V47C46.666 47.5523 46.2183 48 45.666 48C45.1137 48 44.666 47.5523 44.666 47V38C44.666 37.4477 45.1137 37 45.666 37Z" fill="#76B82A"/>
<path d="M45.666 50C46.2183 50 46.666 50.4477 46.666 51V51.5C46.666 52.0523 46.2183 52.5 45.666 52.5C45.1137 52.5 44.666 52.0523 44.666 51.5V51C44.666 50.4477 45.1137 50 45.666 50Z" fill="#76B82A"/>
<path fill-rule="evenodd" clip-rule="evenodd" d="M14.666 5C13.0092 5 11.666 6.34315 11.666 8V18H7.66602C6.00916 18 4.66602 19.3431 4.66602 21V56.0082C4.66602 58.7147 7.96732 60.0374 9.83608 58.0796L16.2985 51.3095C16.4872 51.1118 16.7485 51 17.0218 51H34.1304C36.2985 55.1598 40.6506 58 45.666 58C52.8457 58 58.666 52.1797 58.666 45C58.666 42.4227 57.916 40.0206 56.6224 38H57.666C59.3229 38 60.666 36.6569 60.666 35V8C60.666 6.34315 59.3229 5 57.666 5H14.666ZM55.0469 36H57.666C58.2183 36 58.666 35.5523 58.666 35V8C58.666 7.44772 58.2183 7 57.666 7H14.666C14.1137 7 13.666 7.44772 13.666 8V18H50.666C52.3229 18 53.666 19.3431 53.666 21V34.7523C54.1556 35.1351 54.6171 35.5522 55.0469 36ZM51.666 33.4644V21C51.666 20.4477 51.2183 20 50.666 20H7.66602C7.11373 20 6.66602 20.4477 6.66602 21V56.0082C6.66602 56.9104 7.76645 57.3513 8.38937 56.6987L14.8518 49.9286C15.4178 49.3355 16.202 49 17.0218 49H33.293C32.8859 47.7399 32.666 46.3956 32.666 45C32.666 37.8203 38.4863 32 45.666 32C47.8303 32 49.871 32.5289 51.666 33.4644ZM34.666 45C34.666 38.9249 39.5909 34 45.666 34C51.7411 34 56.666 38.9249 56.666 45C56.666 51.0751 51.7411 56 45.666 56C39.5909 56 34.666 51.0751 34.666 45Z" fill="#76B82A"/>
</svg>
