<svg width="64" height="64" viewBox="0 0 64 64" fill="none" xmlns="http://www.w3.org/2000/svg">
<path d="M29.7987 4.03413C29.2652 3.89118 28.7169 4.20775 28.5739 4.74121C28.4309 5.27467 28.7475 5.82302 29.281 5.96597L33.8511 7.19062L7.49968 22.4046C7.02139 22.6807 6.85751 23.2923 7.13365 23.7706C7.4098 24.2489 8.02139 24.4128 8.49968 24.1367L34.851 8.9227L33.6265 13.4926C33.4836 14.0261 33.8002 14.5745 34.3336 14.7174C34.8671 14.8603 35.4154 14.5437 35.5584 14.0103L37.4077 7.10839C37.5506 6.57493 37.2341 6.0266 36.7006 5.88365L29.7987 4.03413Z" fill="#F7A600"/>
<path fill-rule="evenodd" clip-rule="evenodd" d="M28.9307 41C28.6655 41 28.4112 41.1054 28.2236 41.2929C28.0361 41.4804 27.9307 41.7348 27.9307 42V51.4084H26.9998C26.4476 51.4084 25.9998 51.8561 25.9998 52.4084C25.9998 52.9607 26.4476 53.4084 26.9998 53.4084H27.9307V54C27.9307 54.5523 28.3784 55 28.9307 55C29.483 55 29.9307 54.5523 29.9307 54V53.4084H33.9708C34.5231 53.4084 34.9708 52.9607 34.9708 52.4084C34.9708 51.8561 34.5231 51.4084 33.9708 51.4084H29.9307V50.5113C31.1437 50.4825 32.5737 50.3728 33.8092 49.9657C34.6201 49.6984 35.4228 49.28 36.0272 48.6044C36.6506 47.9075 36.9998 47.0066 36.9998 45.9121C36.9998 44.8185 36.6518 43.9097 36.0451 43.1931C35.4541 42.495 34.6647 42.0333 33.8537 41.7229C32.2506 41.1093 30.3294 41 28.9307 41ZM33.1832 48.0662C32.2244 48.3821 31.0525 48.4811 29.9307 48.5101V43.0228C31.028 43.075 32.1905 43.2278 33.1387 43.5907C33.7514 43.8253 34.2137 44.1251 34.5186 44.4853C34.8079 44.827 34.9998 45.2734 34.9998 45.9121C34.9998 46.55 34.8091 46.9664 34.5366 47.271C34.245 47.5969 33.7959 47.8642 33.1832 48.0662Z" fill="#F7A600"/>
<path fill-rule="evenodd" clip-rule="evenodd" d="M24.9998 38.2521V25.8788C24.9998 25.5204 25.1916 25.1894 25.5025 25.0112L37.5025 18.1324C37.812 17.955 38.1925 17.9559 38.5012 18.1348C38.8098 18.3136 38.9998 18.6433 38.9998 19V38.2521C40.7398 39.5038 42.1311 41.2099 42.9998 43.1966V17.5C42.9998 17.1443 43.1888 16.8154 43.496 16.6362L55.496 9.63622C55.8053 9.45581 56.1874 9.45452 56.4979 9.63286C56.8084 9.8112 56.9998 10.1419 56.9998 10.5V57C56.9998 57.5523 56.5521 58 55.9998 58H43.9998C43.4476 58 42.9998 57.5523 42.9998 57V52.8034C41.1473 57.0398 36.9193 60 31.9998 60C27.0804 60 22.8524 57.0398 20.9998 52.8034V57C20.9998 57.5523 20.5521 58 19.9998 58H7.99985C7.44756 58 6.99985 57.5523 6.99985 57V35C6.99985 34.6443 7.18876 34.3154 7.49597 34.1362L19.496 27.1362C19.8053 26.9558 20.1874 26.9545 20.4979 27.1329C20.8084 27.3112 20.9998 27.6419 20.9998 28V43.1966C21.8686 41.2099 23.2599 39.5038 24.9998 38.2521ZM31.9998 38C26.477 38 21.9998 42.4772 21.9998 48C21.9998 53.5229 26.477 58 31.9998 58C37.5227 58 41.9998 53.5229 41.9998 48C41.9998 42.4772 37.5227 38 31.9998 38ZM26.9998 37.0881C28.522 36.3895 30.2154 36 31.9998 36C33.7843 36 35.4777 36.3895 36.9998 37.0881V20.7259L26.9998 26.4582V37.0881ZM8.99985 56V35.5744L18.9998 29.741V56H8.99985ZM44.9998 18.0744V56H54.9998V12.241L44.9998 18.0744Z" fill="#F7A600"/>
</svg>
