<svg width="64" height="64" viewBox="0 0 64 64" fill="none" xmlns="http://www.w3.org/2000/svg">
<path d="M29.7989 4.03433C29.2654 3.89137 28.7171 4.20795 28.5741 4.74141C28.4312 5.27487 28.7478 5.82322 29.2812 5.96617L33.8513 7.19082L7.49992 22.4048C7.02163 22.6809 6.85776 23.2925 7.1339 23.7708C7.41004 24.2491 8.02163 24.413 8.49992 24.1369L34.8513 8.9229L33.6268 13.4928C33.4838 14.0263 33.8004 14.5746 34.3339 14.7176C34.8673 14.8605 35.4157 14.5439 35.5586 14.0105L37.4079 7.10859C37.5509 6.57513 37.2343 6.0268 36.7009 5.88385L29.7989 4.03433Z" fill="#55246A"/>
<path fill-rule="evenodd" clip-rule="evenodd" d="M28.931 41.0002C28.6658 41.0002 28.4114 41.1056 28.2239 41.2931C28.0363 41.4806 27.931 41.735 27.931 42.0002V51.4086H27.0001C26.4478 51.4086 26.0001 51.8563 26.0001 52.4086C26.0001 52.9609 26.4478 53.4086 27.0001 53.4086H27.931V54.0002C27.931 54.5525 28.3787 55.0002 28.931 55.0002C29.4833 55.0002 29.931 54.5525 29.931 54.0002V53.4086H33.971C34.5233 53.4086 34.971 52.9609 34.971 52.4086C34.971 51.8563 34.5233 51.4086 33.971 51.4086H29.931V50.5115C31.1439 50.4827 32.5739 50.373 33.8095 49.9659C34.6204 49.6986 35.4231 49.2802 36.0274 48.6046C36.6509 47.9077 37.0001 47.0068 37.0001 45.9123C37.0001 44.8187 36.652 43.9099 36.0454 43.1933C35.4544 42.4952 34.6649 42.0335 33.8539 41.7231C32.2509 41.1095 30.3296 41.0002 28.931 41.0002ZM33.1834 48.0663C32.2246 48.3823 31.0527 48.4813 29.931 48.5103V43.023C31.0282 43.0751 32.1908 43.228 33.139 43.5909C33.7516 43.8255 34.214 44.1253 34.5189 44.4855C34.8082 44.8272 35.0001 45.2736 35.0001 45.9123C35.0001 46.5502 34.8093 46.9666 34.5368 47.2712C34.2453 47.5971 33.7961 47.8644 33.1834 48.0663Z" fill="#55246A"/>
<path fill-rule="evenodd" clip-rule="evenodd" d="M25.0001 38.2523V25.879C25.0001 25.5206 25.1919 25.1896 25.5028 25.0114L37.5028 18.1326C37.8122 17.9552 38.1928 17.9561 38.5014 18.135C38.8101 18.3138 39.0001 18.6435 39.0001 19.0002V38.2523C40.7401 39.504 42.1313 41.2101 43.0001 43.1968V17.5002C43.0001 17.1445 43.189 16.8156 43.4962 16.6364L55.4962 9.63642C55.8055 9.456 56.1877 9.45472 56.4982 9.63306C56.8086 9.8114 57.0001 10.1421 57.0001 10.5002V57.0002C57.0001 57.5525 56.5524 58.0002 56.0001 58.0002H44.0001C43.4478 58.0002 43.0001 57.5525 43.0001 57.0002V52.8036C41.1476 57.04 36.9195 60.0002 32.0001 60.0002C27.0806 60.0002 22.8526 57.04 21.0001 52.8036V57.0002C21.0001 57.5525 20.5524 58.0002 20.0001 58.0002H8.00009C7.44781 58.0002 7.00009 57.5525 7.00009 57.0002V35.0002C7.00009 34.6445 7.189 34.3156 7.49622 34.1364L19.4962 27.1364C19.8055 26.956 20.1877 26.9547 20.4982 27.1331C20.8086 27.3114 21.0001 27.6421 21.0001 28.0002V43.1968C21.8689 41.2101 23.2601 39.504 25.0001 38.2523ZM32.0001 38.0002C26.4772 38.0002 22.0001 42.4774 22.0001 48.0002C22.0001 53.523 26.4772 58.0002 32.0001 58.0002C37.5229 58.0002 42.0001 53.523 42.0001 48.0002C42.0001 42.4774 37.5229 38.0002 32.0001 38.0002ZM27.0001 37.0883C28.5222 36.3897 30.2157 36.0002 32.0001 36.0002C33.7845 36.0002 35.478 36.3897 37.0001 37.0883V20.7261L27.0001 26.4584V37.0883ZM9.00009 56.0002V35.5746L19.0001 29.7412V56.0002H9.00009ZM45.0001 18.0746V56.0002H55.0001V12.2412L45.0001 18.0746Z" fill="#55246A"/>
</svg>
