<svg width="64" height="64" viewBox="0 0 64 64" fill="none" xmlns="http://www.w3.org/2000/svg">
<path d="M5 25C4.44772 25 4 24.5523 4 24V5C4 4.44772 4.44772 4 5 4H59C59.5523 4 60 4.44772 60 5V24C60 24.5523 59.5523 25 59 25H50C49.4477 25 49 24.5523 49 24C49 23.4477 49.4477 23 50 23H58V6H6V23H14C14.5523 23 15 23.4477 15 24C15 24.5523 14.5523 25 14 25H5Z" fill="#76B82A"/>
<path fill-rule="evenodd" clip-rule="evenodd" d="M28.36 25C28.0948 25 27.8404 25.1054 27.6529 25.2929C27.4653 25.4804 27.36 25.7348 27.36 26V37.902H25C24.4477 37.902 24 38.3498 24 38.902C24 39.4543 24.4477 39.902 25 39.902H27.36V43C27.36 43.5523 27.8077 44 28.36 44C28.9123 44 29.36 43.5523 29.36 43V39.902H36.52C37.0723 39.902 37.52 39.4543 37.52 38.902C37.52 38.3498 37.0723 37.902 36.52 37.902H29.36V36.3154C30.8803 36.2877 32.7011 36.1653 34.257 35.6452C35.2278 35.3207 36.1696 34.8186 36.8725 34.0217C37.5934 33.2044 38 32.1474 38 30.8494C38 29.5521 37.5944 28.4828 36.8902 27.639C36.2008 26.8131 35.2725 26.2588 34.3019 25.882C32.3805 25.1361 30.0646 25 28.36 25ZM33.623 33.7484C32.3575 34.1713 30.8051 34.2861 29.36 34.3145V27.0184C30.7783 27.0725 32.3227 27.259 33.5781 27.7464C34.3475 28.0451 34.9492 28.4347 35.3548 28.9206C35.7456 29.3888 36 29.9993 36 30.8494C36 31.6987 35.7466 32.2747 35.3725 32.6988C34.9804 33.1433 34.3922 33.4913 33.623 33.7484Z" fill="#76B82A"/>
<path fill-rule="evenodd" clip-rule="evenodd" d="M12 16H17V59C17 59.5523 17.4477 60 18 60H46C46.5523 60 47 59.5523 47 59V16H52C52.5523 16 53 15.5523 53 15C53 14.4477 52.5523 14 52 14H12C11.4477 14 11 14.4477 11 15C11 15.5523 11.4477 16 12 16ZM19 58V16H45V58H19Z" fill="#76B82A"/>
<path d="M10 33C10 32.4477 9.55228 32 9 32C8.44772 32 8 32.4477 8 33L8 56.5858L5.70711 54.2929C5.31658 53.9024 4.68342 53.9024 4.29289 54.2929C3.90237 54.6834 3.90237 55.3166 4.29289 55.7071L8.29289 59.7071C8.38877 59.803 8.49927 59.8753 8.61722 59.9241C8.72012 59.9668 8.83168 59.9928 8.94854 59.9987C8.96559 59.9996 8.98274 60 9 60C9.27613 60 9.52614 59.8881 9.70711 59.7071L13.7071 55.7071C14.0976 55.3166 14.0976 54.6834 13.7071 54.2929C13.3166 53.9024 12.6834 53.9024 12.2929 54.2929L10 56.5858L10 33Z" fill="#76B82A"/>
</svg>
