<svg width="64" height="64" viewBox="0 0 64 64" fill="none" xmlns="http://www.w3.org/2000/svg">
<path fill-rule="evenodd" clip-rule="evenodd" d="M17 10C13.134 10 10 13.134 10 17C10 20.866 13.134 24 17 24C20.866 24 24 20.866 24 17C24 13.134 20.866 10 17 10ZM12 17C12 14.2386 14.2386 12 17 12C19.7614 12 22 14.2386 22 17C22 19.7614 19.7614 22 17 22C14.2386 22 12 19.7614 12 17Z" fill="#76B82A"/>
<path fill-rule="evenodd" clip-rule="evenodd" d="M5 4C4.44772 4 4 4.44772 4 5V29C4 29.5523 4.44772 30 5 30H29C29.5523 30 30 29.5523 30 29V5C30 4.44772 29.5523 4 29 4H5ZM6 28V6H28V28H6Z" fill="#76B82A"/>
<path fill-rule="evenodd" clip-rule="evenodd" d="M47 10C47.3806 10 47.7283 10.2161 47.8967 10.5574L49.4274 13.6589L52.8501 14.1563C53.2268 14.211 53.5398 14.4749 53.6574 14.8369C53.775 15.1989 53.6769 15.5963 53.4044 15.862L50.9277 18.2762L51.5123 21.6851C51.5767 22.0602 51.4224 22.4394 51.1145 22.6631C50.8065 22.8869 50.3983 22.9164 50.0614 22.7392L47 21.1298L43.9386 22.7392C43.6017 22.9164 43.1935 22.8869 42.8855 22.6631C42.5776 22.4394 42.4233 22.0602 42.4877 21.6851L43.0723 18.2762L40.5956 15.862C40.3231 15.5963 40.225 15.1989 40.3426 14.8369C40.4602 14.4749 40.7732 14.211 41.1499 14.1563L44.5726 13.6589L46.1033 10.5574C46.2717 10.2161 46.6194 10 47 10ZM47 13.2596L46.1334 15.0155C45.9877 15.3107 45.7062 15.5152 45.3804 15.5626L43.4426 15.8441L44.8448 17.211C45.0805 17.4407 45.1881 17.7717 45.1324 18.0961L44.8014 20.0261L46.5347 19.1149C46.826 18.9617 47.174 18.9617 47.4653 19.1149L49.1986 20.0261L48.8676 18.0961C48.8119 17.7717 48.9195 17.4407 49.1552 17.211L50.5574 15.8441L48.6196 15.5626C48.2938 15.5152 48.0123 15.3107 47.8666 15.0155L47 13.2596Z" fill="#76B82A"/>
<path fill-rule="evenodd" clip-rule="evenodd" d="M35 4C34.4477 4 34 4.44772 34 5V29C34 29.5523 34.4477 30 35 30H59C59.5523 30 60 29.5523 60 29V5C60 4.44772 59.5523 4 59 4H35ZM58 6V28H36V6H58Z" fill="#76B82A"/>
<path fill-rule="evenodd" clip-rule="evenodd" d="M11 40C10.4477 40 10 40.4477 10 41V53C10 53.5523 10.4477 54 11 54H23C23.5523 54 24 53.5523 24 53V41C24 40.4477 23.5523 40 23 40H11ZM12 52V42H22V52H12Z" fill="#76B82A"/>
<path fill-rule="evenodd" clip-rule="evenodd" d="M4 35C4 34.4477 4.44772 34 5 34H29C29.5523 34 30 34.4477 30 35V59C30 59.5523 29.5523 60 29 60H5C4.44772 60 4 59.5523 4 59V35ZM6 36V58H28V36H6Z" fill="#76B82A"/>
<path fill-rule="evenodd" clip-rule="evenodd" d="M47.866 41.5C47.6874 41.1906 47.3573 41 47 41C46.6427 41 46.3126 41.1906 46.134 41.5L40.9378 50.5C40.7592 50.8094 40.7592 51.1906 40.9378 51.5C41.1165 51.8094 41.4466 52 41.8038 52H52.1962C52.5534 52 52.8835 51.8094 53.0622 51.5C53.2408 51.1906 53.2408 50.8094 53.0622 50.5L47.866 41.5ZM47 44L50.4641 50H43.5359L47 44Z" fill="#76B82A"/>
<path fill-rule="evenodd" clip-rule="evenodd" d="M34 35C34 34.4477 34.4477 34 35 34H59C59.5523 34 60 34.4477 60 35V59C60 59.5523 59.5523 60 59 60H35C34.4477 60 34 59.5523 34 59V35ZM36 36V58H58V36H36Z" fill="#76B82A"/>
</svg>
