<svg width="65" height="64" viewBox="0 0 65 64" fill="none" xmlns="http://www.w3.org/2000/svg">
<path fill-rule="evenodd" clip-rule="evenodd" d="M29.0997 21C28.8345 21 28.5801 21.1054 28.3926 21.2929C28.205 21.4804 28.0997 21.7348 28.0997 22V38.3473H25.667C25.1147 38.3473 24.667 38.795 24.667 39.3473C24.667 39.8996 25.1147 40.3473 25.667 40.3473H28.0997V42C28.0997 42.5523 28.5474 43 29.0997 43C29.652 43 30.0997 42.5523 30.0997 42V40.3473H38.0598C38.6121 40.3473 39.0598 39.8996 39.0598 39.3473C39.0598 38.795 38.6121 38.3473 38.0598 38.3473H30.0997V35.5309C32.3828 35.5076 35.1704 35.3718 37.5113 34.6486C38.8684 34.2293 40.1573 33.5892 41.1141 32.5865C42.0947 31.5588 42.667 30.211 42.667 28.5202C42.667 26.8309 42.0964 25.4623 41.1328 24.3951C40.1888 23.3496 38.9118 22.6408 37.5538 22.1535C34.8522 21.184 31.5652 21 29.0997 21ZM36.9209 32.7377C34.8672 33.3722 32.3395 33.5061 30.0997 33.5304V23.0113C32.3119 23.0623 34.8339 23.3023 36.8783 24.0359C38.0512 24.4568 38.9998 25.0171 39.6484 25.7355C40.2776 26.4323 40.667 27.3223 40.667 28.5202C40.667 29.7167 40.2793 30.5643 39.6671 31.2058C39.0312 31.8723 38.0947 32.3751 36.9209 32.7377Z" fill="#55246A"/>
<path fill-rule="evenodd" clip-rule="evenodd" d="M5.66699 15C5.11471 15 4.66699 15.4477 4.66699 16V36C4.66699 36.5523 5.11471 37 5.66699 37H10.667V39.5C10.667 40.0523 11.1147 40.5 11.667 40.5H16.667V42H11.667C11.1147 42 10.667 42.4477 10.667 43V48C10.667 48.5523 11.1147 49 11.667 49H59.667C60.2193 49 60.667 48.5523 60.667 48V25C60.667 24.7605 60.581 24.529 60.4248 24.3475L52.6748 15.3475C52.4848 15.1269 52.2081 15 51.917 15H5.66699ZM6.66699 17H50.917V25C50.917 25.5523 51.3647 26 51.917 26H58.667V47H12.667V44H17.667C18.2193 44 18.667 43.5523 18.667 43V39.5C18.667 38.9477 18.2193 38.5 17.667 38.5H12.667V36C12.667 35.4477 12.2193 35 11.667 35H6.66699V17ZM57.4862 24L52.917 18.6938V24H57.4862Z" fill="#55246A"/>
</svg>
