<svg width="64" height="64" viewBox="0 0 64 64" fill="none" xmlns="http://www.w3.org/2000/svg">
<path fill-rule="evenodd" clip-rule="evenodd" d="M21 5C21 4.44772 21.4477 4 22 4C23.8385 4 25.659 4.36212 27.3576 5.06569C29.0561 5.76925 30.5995 6.80048 31.8995 8.1005C33.1995 9.40053 34.2308 10.9439 34.9343 12.6424C35.6379 14.341 36 16.1615 36 18C36 18.5523 35.5523 19 35 19H22C21.4477 19 21 18.5523 21 18L21 5ZM23 6.04174L23 17H33.9583C33.8551 15.7668 33.5617 14.5548 33.0866 13.4078C32.4835 11.9519 31.5996 10.629 30.4853 9.51472C29.371 8.40042 28.0481 7.5165 26.5922 6.91345C25.4452 6.43832 24.2332 6.14487 23 6.04174Z" fill="#F7A600"/>
<path fill-rule="evenodd" clip-rule="evenodd" d="M10.222 10.3594C12.5243 8.82109 15.2311 8 18 8C18.5523 8 19 8.44772 19 9V21H31C31.5523 21 32 21.4477 32 22C32 24.7689 31.1789 27.4757 29.6406 29.778C28.1022 32.0803 25.9157 33.8747 23.3576 34.9343C20.7994 35.9939 17.9845 36.2712 15.2687 35.731C12.553 35.1908 10.0584 33.8574 8.10051 31.8995C6.14258 29.9416 4.80921 27.447 4.26901 24.7313C3.72882 22.0155 4.00607 19.2006 5.06569 16.6424C6.12532 14.0843 7.91973 11.8978 10.222 10.3594ZM17 10.0417C14.9792 10.2107 13.0283 10.8897 11.3332 12.0224C9.35977 13.3409 7.8217 15.2151 6.91345 17.4078C6.0052 19.6005 5.76756 22.0133 6.23058 24.3411C6.69361 26.6689 7.83649 28.8071 9.51472 30.4853C11.193 32.1635 13.3312 33.3064 15.6589 33.7694C17.9867 34.2324 20.3995 33.9948 22.5922 33.0866C24.7849 32.1783 26.6591 30.6402 27.9776 28.6668C29.1103 26.9717 29.7893 25.0208 29.9583 23H18C17.7348 23 17.4804 22.8946 17.2929 22.7071C17.1054 22.5196 17 22.2652 17 22V10.0417Z" fill="#F7A600"/>
<path d="M36.5 7C35.9477 7 35.5 7.44772 35.5 8C35.5 8.55228 35.9477 9 36.5 9H49V38.5858L46.7071 36.2929C46.3166 35.9024 45.6834 35.9024 45.2929 36.2929C44.9024 36.6834 44.9024 37.3166 45.2929 37.7071L49.2929 41.7071C49.6834 42.0976 50.3166 42.0976 50.7071 41.7071L54.7071 37.7071C55.0976 37.3166 55.0976 36.6834 54.7071 36.2929C54.3166 35.9024 53.6834 35.9024 53.2929 36.2929L51 38.5858V8C51 7.44772 50.5523 7 50 7H36.5Z" fill="#F7A600"/>
<path fill-rule="evenodd" clip-rule="evenodd" d="M9.02385 49.7819C9.00824 49.8521 9 49.9251 9 50V55.4396C9 56.2989 9.4443 57.0134 10.0242 57.5558C10.6024 58.0966 11.3848 58.5376 12.2682 58.8871C14.0408 59.5883 16.4212 60 19 60C21.5788 60 23.9592 59.5883 25.7318 58.8871C26.6152 58.5376 27.3976 58.0966 27.9758 57.5558C28.5557 57.0134 29 56.2989 29 55.4396V50C29 49.9251 28.9918 49.8521 28.9761 49.7819C28.9918 49.6705 29 49.5564 29 49.4396V44C29 43.933 28.9934 43.8675 28.9808 43.8042C28.9934 43.705 29 43.6036 29 43.5C29 42.6424 28.5491 41.9344 27.9696 41.4015C27.3909 40.8694 26.6087 40.4362 25.7264 40.0931C23.9555 39.4044 21.577 39 19 39C16.423 39 14.0445 39.4044 12.2736 40.0931C11.3913 40.4362 10.6091 40.8694 10.0304 41.4015C9.45088 41.9344 9 42.6424 9 43.5C9 43.6036 9.00658 43.705 9.01917 43.8042C9.00659 43.8675 9 43.933 9 44V49.4396C9 49.5564 9.00821 49.6705 9.02385 49.7819ZM27 52.2745C26.6133 52.5036 26.1859 52.7074 25.7318 52.8871C23.9592 53.5883 21.5788 54 19 54C16.4212 54 14.0408 53.5883 12.2682 52.8871C11.8141 52.7074 11.3867 52.5036 11 52.2745V55.4396C11 55.5634 11.0594 55.7855 11.3904 56.0951C11.723 56.4062 12.2586 56.7324 13.0039 57.0273C14.4887 57.6147 16.6082 58 19 58C21.3918 58 23.5113 57.6147 24.9961 57.0273C25.7414 56.7324 26.277 56.4062 26.6096 56.0951C26.9406 55.7855 27 55.5634 27 55.4396V52.2745ZM11 46.3014V49.4396C11 49.5634 11.0594 49.7855 11.3904 50.0951C11.723 50.4062 12.2586 50.7324 13.0039 51.0273C14.4887 51.6147 16.6082 52 19 52C21.3918 52 23.5113 51.6147 24.9961 51.0273C25.7414 50.7324 26.277 50.4062 26.6096 50.0951C26.9406 49.7855 27 49.5634 27 49.4396V46.3014C26.6117 46.5281 26.1824 46.7295 25.7264 46.9069C23.9555 47.5956 21.577 48 19 48C16.423 48 14.0445 47.5956 12.2736 46.9069C11.8176 46.7295 11.3883 46.5281 11 46.3014ZM26.6159 42.8738C26.9472 43.1784 27 43.3911 27 43.5C27 43.6089 26.9472 43.8216 26.6159 44.1262C26.2838 44.4316 25.7479 44.7526 25.0015 45.0429C23.515 45.6209 21.3935 46 19 46C16.6065 46 14.485 45.6209 12.9985 45.0429C12.2521 44.7526 11.7162 44.4316 11.3841 44.1262C11.0528 43.8216 11 43.6089 11 43.5C11 43.3911 11.0528 43.1784 11.3841 42.8738C11.7162 42.5684 12.2521 42.2474 12.9985 41.9571C14.485 41.3791 16.6065 41 19 41C21.3935 41 23.515 41.3791 25.0015 41.9571C25.7479 42.2474 26.2838 42.5684 26.6159 42.8738Z" fill="#F7A600"/>
<path fill-rule="evenodd" clip-rule="evenodd" d="M56.7264 46.0931C54.9555 45.4044 52.577 45 50 45C47.423 45 45.0445 45.4044 43.2736 46.0931C42.3913 46.4362 41.6091 46.8694 41.0304 47.4015C40.4509 47.9344 40 48.6424 40 49.5C40 49.6036 40.0066 49.705 40.0192 49.8042C40.0066 49.8675 40 49.933 40 50V55.4396C40 56.2989 40.4443 57.0134 41.0242 57.5558C41.6024 58.0966 42.3848 58.5376 43.2682 58.8871C45.0408 59.5883 47.4212 60 50 60C52.5788 60 54.9592 59.5883 56.7318 58.8871C57.6152 58.5376 58.3976 58.0966 58.9758 57.5558C59.5557 57.0134 60 56.2989 60 55.4396V50C60 49.933 59.9934 49.8675 59.9808 49.8042C59.9934 49.705 60 49.6036 60 49.5C60 48.6424 59.5491 47.9344 58.9696 47.4015C58.3909 46.8694 57.6087 46.4362 56.7264 46.0931ZM57.6159 48.8738C57.9472 49.1784 58 49.3911 58 49.5C58 49.6089 57.9472 49.8216 57.6159 50.1262C57.2838 50.4316 56.7479 50.7526 56.0015 51.0429C54.515 51.6209 52.3935 52 50 52C47.6065 52 45.485 51.6209 43.9985 51.0429C43.2521 50.7526 42.7162 50.4316 42.3841 50.1262C42.0528 49.8216 42 49.6089 42 49.5C42 49.3911 42.0528 49.1784 42.3841 48.8738C42.7162 48.5684 43.2521 48.2474 43.9985 47.9571C45.485 47.3791 47.6065 47 50 47C52.3935 47 54.515 47.3791 56.0015 47.9571C56.7479 48.2474 57.2838 48.5684 57.6159 48.8738ZM58 52.3014C57.6117 52.5281 57.1824 52.7295 56.7264 52.9069C54.9555 53.5956 52.577 54 50 54C47.423 54 45.0445 53.5956 43.2736 52.9069C42.8176 52.7295 42.3883 52.5281 42 52.3014V55.4396C42 55.5634 42.0594 55.7855 42.3904 56.0951C42.723 56.4062 43.2586 56.7324 44.0039 57.0273C45.4887 57.6147 47.6082 58 50 58C52.3918 58 54.5113 57.6147 55.9961 57.0273C56.7414 56.7324 57.277 56.4062 57.6096 56.0951C57.9406 55.7855 58 55.5634 58 55.4396V52.3014Z" fill="#F7A600"/>
</svg>
