<svg width="65" height="64" viewBox="0 0 65 64" fill="none" xmlns="http://www.w3.org/2000/svg">
<path fill-rule="evenodd" clip-rule="evenodd" d="M21.667 5C21.667 4.44772 22.1147 4 22.667 4C24.5055 4 26.326 4.36212 28.0246 5.06569C29.7231 5.76925 31.2665 6.80048 32.5665 8.1005C33.8665 9.40053 34.8977 10.9439 35.6013 12.6424C36.3049 14.341 36.667 16.1615 36.667 18C36.667 18.5523 36.2193 19 35.667 19H22.667C22.1147 19 21.667 18.5523 21.667 18L21.667 5ZM23.667 6.04174L23.667 17H34.6253C34.5221 15.7668 34.2287 14.5548 33.7536 13.4078C33.1505 11.9519 32.2666 10.629 31.1523 9.51472C30.038 8.40042 28.7151 7.5165 27.2592 6.91345C26.1122 6.43832 24.9002 6.14487 23.667 6.04174Z" fill="#55246A"/>
<path fill-rule="evenodd" clip-rule="evenodd" d="M10.889 10.3594C13.1913 8.82109 15.8981 8 18.667 8C19.2193 8 19.667 8.44772 19.667 9V21H31.667C32.2193 21 32.667 21.4477 32.667 22C32.667 24.7689 31.8459 27.4757 30.3076 29.778C28.7692 32.0803 26.5827 33.8747 24.0246 34.9343C21.4664 35.9939 18.6515 36.2712 15.9357 35.731C13.22 35.1908 10.7254 33.8574 8.7675 31.8995C6.80957 29.9416 5.4762 27.447 4.936 24.7313C4.39581 22.0155 4.67306 19.2006 5.73269 16.6424C6.79231 14.0843 8.58673 11.8978 10.889 10.3594ZM17.667 10.0417C15.6462 10.2107 13.6953 10.8897 12.0002 12.0224C10.0268 13.3409 8.4887 15.2151 7.58044 17.4078C6.67219 19.6005 6.43455 22.0133 6.89757 24.3411C7.3606 26.6689 8.50349 28.8071 10.1817 30.4853C11.8599 32.1635 13.9981 33.3064 16.3259 33.7694C18.6537 34.2324 21.0665 33.9948 23.2592 33.0866C25.4519 32.1783 27.3261 30.6402 28.6446 28.6668C29.7773 26.9717 30.4563 25.0208 30.6253 23H18.667C18.4018 23 18.1474 22.8946 17.9599 22.7071C17.7724 22.5196 17.667 22.2652 17.667 22V10.0417Z" fill="#55246A"/>
<path d="M37.167 7C36.6147 7 36.167 7.44772 36.167 8C36.167 8.55228 36.6147 9 37.167 9H49.667V38.5858L47.3741 36.2929C46.9836 35.9024 46.3504 35.9024 45.9599 36.2929C45.5694 36.6834 45.5694 37.3166 45.9599 37.7071L49.9599 41.7071C50.3504 42.0976 50.9836 42.0976 51.3741 41.7071L55.3741 37.7071C55.7646 37.3166 55.7646 36.6834 55.3741 36.2929C54.9836 35.9024 54.3504 35.9024 53.9599 36.2929L51.667 38.5858V8C51.667 7.44772 51.2193 7 50.667 7H37.167Z" fill="#55246A"/>
<path fill-rule="evenodd" clip-rule="evenodd" d="M9.69085 49.7819C9.67523 49.8521 9.66699 49.9251 9.66699 50V55.4396C9.66699 56.2989 10.1113 57.0134 10.6912 57.5558C11.2694 58.0966 12.0518 58.5376 12.9352 58.8871C14.7078 59.5883 17.0882 60 19.667 60C22.2458 60 24.6262 59.5883 26.3988 58.8871C27.2822 58.5376 28.0646 58.0966 28.6428 57.5558C29.2227 57.0134 29.667 56.2989 29.667 55.4396V50C29.667 49.9251 29.6588 49.8521 29.6431 49.7819C29.6588 49.6705 29.667 49.5564 29.667 49.4396V44C29.667 43.933 29.6604 43.8675 29.6478 43.8042C29.6604 43.705 29.667 43.6036 29.667 43.5C29.667 42.6424 29.2161 41.9344 28.6366 41.4015C28.0579 40.8694 27.2757 40.4362 26.3934 40.0931C24.6225 39.4044 22.244 39 19.667 39C17.09 39 14.7115 39.4044 12.9406 40.0931C12.0583 40.4362 11.2761 40.8694 10.6974 41.4015C10.1179 41.9344 9.66699 42.6424 9.66699 43.5C9.66699 43.6036 9.67357 43.705 9.68616 43.8042C9.67358 43.8675 9.66699 43.933 9.66699 44V49.4396C9.66699 49.5564 9.6752 49.6705 9.69085 49.7819ZM27.667 52.2745C27.2803 52.5036 26.8529 52.7074 26.3988 52.8871C24.6262 53.5883 22.2458 54 19.667 54C17.0882 54 14.7078 53.5883 12.9352 52.8871C12.4811 52.7074 12.0537 52.5036 11.667 52.2745V55.4396C11.667 55.5634 11.7264 55.7855 12.0573 56.0951C12.39 56.4062 12.9256 56.7324 13.6709 57.0273C15.1557 57.6147 17.2752 58 19.667 58C22.0588 58 24.1783 57.6147 25.6631 57.0273C26.4084 56.7324 26.944 56.4062 27.2766 56.0951C27.6076 55.7855 27.667 55.5634 27.667 55.4396V52.2745ZM11.667 46.3014V49.4396C11.667 49.5634 11.7264 49.7855 12.0573 50.0951C12.39 50.4062 12.9256 50.7324 13.6709 51.0273C15.1557 51.6147 17.2752 52 19.667 52C22.0588 52 24.1783 51.6147 25.6631 51.0273C26.4084 50.7324 26.944 50.4062 27.2766 50.0951C27.6076 49.7855 27.667 49.5634 27.667 49.4396V46.3014C27.2787 46.5281 26.8494 46.7295 26.3934 46.9069C24.6225 47.5956 22.244 48 19.667 48C17.09 48 14.7115 47.5956 12.9406 46.9069C12.4846 46.7295 12.0553 46.5281 11.667 46.3014ZM27.2829 42.8738C27.6142 43.1784 27.667 43.3911 27.667 43.5C27.667 43.6089 27.6142 43.8216 27.2829 44.1262C26.9507 44.4316 26.4149 44.7526 25.6685 45.0429C24.182 45.6209 22.0605 46 19.667 46C17.2735 46 15.152 45.6209 13.6655 45.0429C12.9191 44.7526 12.3832 44.4316 12.0511 44.1262C11.7198 43.8216 11.667 43.6089 11.667 43.5C11.667 43.3911 11.7198 43.1784 12.0511 42.8738C12.3832 42.5684 12.9191 42.2474 13.6655 41.9571C15.152 41.3791 17.2735 41 19.667 41C22.0605 41 24.182 41.3791 25.6685 41.9571C26.4149 42.2474 26.9507 42.5684 27.2829 42.8738Z" fill="#55246A"/>
<path fill-rule="evenodd" clip-rule="evenodd" d="M57.3934 46.0931C55.6225 45.4044 53.244 45 50.667 45C48.09 45 45.7115 45.4044 43.9406 46.0931C43.0583 46.4362 42.2761 46.8694 41.6974 47.4015C41.1179 47.9344 40.667 48.6424 40.667 49.5C40.667 49.6036 40.6736 49.705 40.6862 49.8042C40.6736 49.8675 40.667 49.933 40.667 50V55.4396C40.667 56.2989 41.1113 57.0134 41.6912 57.5558C42.2694 58.0966 43.0518 58.5376 43.9352 58.8871C45.7078 59.5883 48.0882 60 50.667 60C53.2458 60 55.6262 59.5883 57.3988 58.8871C58.2822 58.5376 59.0646 58.0966 59.6428 57.5558C60.2227 57.0134 60.667 56.2989 60.667 55.4396V50C60.667 49.933 60.6604 49.8675 60.6478 49.8042C60.6604 49.705 60.667 49.6036 60.667 49.5C60.667 48.6424 60.2161 47.9344 59.6366 47.4015C59.0579 46.8694 58.2757 46.4362 57.3934 46.0931ZM58.2829 48.8738C58.6142 49.1784 58.667 49.3911 58.667 49.5C58.667 49.6089 58.6142 49.8216 58.2829 50.1262C57.9507 50.4316 57.4149 50.7526 56.6685 51.0429C55.182 51.6209 53.0605 52 50.667 52C48.2735 52 46.152 51.6209 44.6655 51.0429C43.9191 50.7526 43.3832 50.4316 43.0511 50.1262C42.7198 49.8216 42.667 49.6089 42.667 49.5C42.667 49.3911 42.7198 49.1784 43.0511 48.8738C43.3832 48.5684 43.9191 48.2474 44.6655 47.9571C46.152 47.3791 48.2735 47 50.667 47C53.0605 47 55.182 47.3791 56.6685 47.9571C57.4149 48.2474 57.9507 48.5684 58.2829 48.8738ZM58.667 52.3014C58.2787 52.5281 57.8494 52.7295 57.3934 52.9069C55.6225 53.5956 53.244 54 50.667 54C48.09 54 45.7115 53.5956 43.9406 52.9069C43.4846 52.7295 43.0553 52.5281 42.667 52.3014V55.4396C42.667 55.5634 42.7264 55.7855 43.0574 56.0951C43.39 56.4062 43.9256 56.7324 44.6709 57.0273C46.1557 57.6147 48.2752 58 50.667 58C53.0588 58 55.1783 57.6147 56.6631 57.0273C57.4084 56.7324 57.944 56.4062 58.2766 56.0951C58.6076 55.7855 58.667 55.5634 58.667 55.4396V52.3014Z" fill="#55246A"/>
</svg>
