<svg width="65" height="64" viewBox="0 0 65 64" fill="none" xmlns="http://www.w3.org/2000/svg">
<path fill-rule="evenodd" clip-rule="evenodd" d="M20.3333 16.6657C20.3333 10.0895 25.3889 5 31.999 5C38.2643 5 43.3333 10.0763 43.3333 16.6657C43.3333 22.9124 38.2456 28 31.999 28C25.4416 28 20.3333 22.9329 20.3333 16.6657ZM31.999 7C26.4972 7 22.3333 11.1903 22.3333 16.6657C22.3333 21.7873 26.5047 26 31.999 26C37.1411 26 41.3333 21.8078 41.3333 16.6657C41.3333 11.1432 37.1224 7 31.999 7Z" fill="#F7A600"/>
<path fill-rule="evenodd" clip-rule="evenodd" d="M12.4009 33.9356C15.9062 30.6641 21.1956 29 28.3333 29C28.6562 29 28.9593 29.156 29.147 29.4188L32.3333 33.8795L35.5195 29.4188C35.7072 29.156 36.0103 29 36.3333 29C43.4709 29 48.7603 30.6641 52.2656 33.9356C55.7838 37.2193 57.3333 41.9608 57.3333 47.7333V54.8421C57.3333 57.1384 55.4717 59 53.1754 59H11.4911C9.1948 59 7.33325 57.1384 7.33325 54.8421V47.7333C7.33325 41.9608 8.88271 37.2193 12.4009 33.9356ZM53.1754 57C54.3671 57 55.3333 56.0339 55.3333 54.8421V47.7333C55.3333 42.3058 53.8827 38.1807 50.9009 35.3977C47.9813 32.6727 43.4309 31.0812 36.8457 31.003L33.4508 35.7559L37.275 46.4637C37.4092 46.8394 37.3072 47.2589 37.0156 47.5311L33.0215 51.2588C32.8386 51.4327 32.6046 51.5246 32.3677 51.5327C32.3343 51.5339 32.3007 51.5334 32.2673 51.5312C32.1417 51.523 32.0172 51.4911 31.901 51.4354C31.809 51.3913 31.7224 51.3324 31.645 51.2588L27.6509 47.5311C27.3593 47.2589 27.2573 46.8394 27.3915 46.4637L31.2157 35.7559L27.8208 31.003C21.2356 31.0812 16.6852 32.6727 13.7656 35.3977C10.7838 38.1807 9.33325 42.3058 9.33325 47.7333V54.8421C9.33325 56.0339 10.2994 57 11.4911 57H53.1754ZM32.3333 49.1654L35.1705 46.5174L32.3333 38.5732L29.496 46.5174L32.3333 49.1654Z" fill="#F7A600"/>
</svg>
