<svg width="64" height="64" viewBox="0 0 64 64" fill="none" xmlns="http://www.w3.org/2000/svg">
<path fill-rule="evenodd" clip-rule="evenodd" d="M20 16.6657C20 10.0895 25.0556 5 31.6657 5C37.9311 5 43 10.0763 43 16.6657C43 22.9124 37.9124 28 31.6657 28C25.1084 28 20 22.9329 20 16.6657ZM31.6657 7C26.1639 7 22 11.1903 22 16.6657C22 21.7873 26.1714 26 31.6657 26C36.8078 26 41 21.8078 41 16.6657C41 11.1432 36.7891 7 31.6657 7Z" fill="#76B82A"/>
<path fill-rule="evenodd" clip-rule="evenodd" d="M12.0677 33.9356C15.5729 30.6641 20.8624 29 28 29C28.323 29 28.626 29.156 28.8137 29.4188L32 33.8795L35.1863 29.4188C35.374 29.156 35.677 29 36 29C43.1376 29 48.4271 30.6641 51.9323 33.9356C55.4505 37.2193 57 41.9608 57 47.7333V54.8421C57 57.1384 55.1384 59 52.8421 59H11.1579C8.86155 59 7 57.1384 7 54.8421V47.7333C7 41.9608 8.54946 37.2193 12.0677 33.9356ZM52.8421 57C54.0339 57 55 56.0339 55 54.8421V47.7333C55 42.3058 53.5495 38.1807 50.5677 35.3977C47.648 32.6727 43.0976 31.0812 36.5125 31.003L33.1175 35.7559L36.9417 46.4637C37.0759 46.8394 36.974 47.2589 36.6823 47.5311L32.6883 51.2588C32.5053 51.4327 32.2713 51.5246 32.0345 51.5327C32.001 51.5339 31.9675 51.5334 31.9341 51.5312C31.8085 51.523 31.684 51.4911 31.5678 51.4354C31.4757 51.3913 31.3892 51.3324 31.3117 51.2588L27.3177 47.5311C27.026 47.2589 26.9241 46.8394 27.0583 46.4637L30.8825 35.7559L27.4875 31.003C20.9024 31.0812 16.352 32.6727 13.4323 35.3977C10.4505 38.1807 9 42.3058 9 47.7333V54.8421C9 56.0339 9.96612 57 11.1579 57H52.8421ZM32 49.1654L34.8372 46.5174L32 38.5732L29.1628 46.5174L32 49.1654Z" fill="#76B82A"/>
</svg>
