<svg width="65" height="64" viewBox="0 0 65 64" fill="none" xmlns="http://www.w3.org/2000/svg">
<path fill-rule="evenodd" clip-rule="evenodd" d="M27.666 27C27.666 24.2386 29.9046 22 32.666 22C35.4274 22 37.666 24.2386 37.666 27C37.666 29.7614 35.4274 32 32.666 32C29.9046 32 27.666 29.7614 27.666 27ZM32.666 24C31.0092 24 29.666 25.3431 29.666 27C29.666 28.6569 31.0092 30 32.666 30C34.3229 30 35.666 28.6569 35.666 27C35.666 25.3431 34.3229 24 32.666 24Z" fill="#76B82A"/>
<path fill-rule="evenodd" clip-rule="evenodd" d="M32.666 4C28.2477 4 24.666 7.58172 24.666 12V15H21.666C20.0092 15 18.666 16.3431 18.666 18V36C18.666 37.6569 20.0092 39 21.666 39H43.666C45.3229 39 46.666 37.6569 46.666 36V18C46.666 16.3431 45.3229 15 43.666 15H40.666V12C40.666 7.58172 37.0843 4 32.666 4ZM38.666 15V12C38.666 8.68629 35.9797 6 32.666 6C29.3523 6 26.666 8.68629 26.666 12V15H38.666ZM21.666 17C21.1137 17 20.666 17.4477 20.666 18V36C20.666 36.5523 21.1137 37 21.666 37H43.666C44.2183 37 44.666 36.5523 44.666 36V18C44.666 17.4477 44.2183 17 43.666 17H21.666Z" fill="#76B82A"/>
<path d="M7.41602 46.1339C7.89431 45.8578 8.5059 46.0216 8.78204 46.4999L10.166 48.897L11.55 46.4999C11.8261 46.0216 12.4377 45.8578 12.916 46.1339C13.3943 46.41 13.5582 47.0216 13.282 47.4999L11.8981 49.8969H14.666C15.2183 49.8969 15.666 50.3446 15.666 50.8969C15.666 51.4492 15.2183 51.8969 14.666 51.8969H11.898L13.282 54.2942C13.5582 54.7724 13.3943 55.384 12.916 55.6602C12.4377 55.9363 11.8261 55.7724 11.55 55.2942L10.166 52.897L8.78204 55.2942C8.5059 55.7724 7.89431 55.9363 7.41602 55.6602C6.93772 55.384 6.77385 54.7724 7.04999 54.2942L8.43405 51.8969H5.66602C5.11373 51.8969 4.66602 51.4492 4.66602 50.8969C4.66602 50.3446 5.11373 49.8969 5.66602 49.8969H8.43388L7.04999 47.4999C6.77385 47.0216 6.93772 46.41 7.41602 46.1339Z" fill="#76B82A"/>
<path d="M19.666 50.8969C19.666 50.3446 20.1137 49.8969 20.666 49.8969H23.4339L22.05 47.4999C21.7738 47.0216 21.9377 46.41 22.416 46.1339C22.8943 45.8578 23.5059 46.0216 23.782 46.4999L25.166 48.897L26.55 46.4999C26.8261 46.0216 27.4377 45.8578 27.916 46.1339C28.3943 46.41 28.5582 47.0216 28.282 47.4999L26.8981 49.8969H29.666C30.2183 49.8969 30.666 50.3446 30.666 50.8969C30.666 51.4492 30.2183 51.8969 29.666 51.8969H26.898L28.282 54.2942C28.5582 54.7724 28.3943 55.384 27.916 55.6602C27.4377 55.9363 26.8261 55.7724 26.55 55.2942L25.166 52.897L23.782 55.2942C23.5059 55.7724 22.8943 55.9363 22.416 55.6602C21.9377 55.384 21.7738 54.7724 22.05 54.2942L23.434 51.8969H20.666C20.1137 51.8969 19.666 51.4492 19.666 50.8969Z" fill="#76B82A"/>
<path d="M35.666 49.8969C35.1137 49.8969 34.666 50.3446 34.666 50.8969C34.666 51.4492 35.1137 51.8969 35.666 51.8969H38.434L37.05 54.2942C36.7738 54.7724 36.9377 55.384 37.416 55.6602C37.8943 55.9363 38.5059 55.7724 38.782 55.2942L40.166 52.897L41.55 55.2942C41.8261 55.7724 42.4377 55.9363 42.916 55.6602C43.3943 55.384 43.5582 54.7724 43.282 54.2942L41.898 51.8969H44.666C45.2183 51.8969 45.666 51.4492 45.666 50.8969C45.666 50.3446 45.2183 49.8969 44.666 49.8969H41.8981L43.282 47.4999C43.5582 47.0216 43.3943 46.41 42.916 46.1339C42.4377 45.8578 41.8261 46.0216 41.55 46.4999L40.166 48.897L38.782 46.4999C38.5059 46.0216 37.8943 45.8578 37.416 46.1339C36.9377 46.41 36.7738 47.0216 37.05 47.4999L38.4339 49.8969H35.666Z" fill="#76B82A"/>
<path d="M49.666 50.8969C49.666 50.3446 50.1137 49.8969 50.666 49.8969H53.4339L52.05 47.4999C51.7738 47.0216 51.9377 46.41 52.416 46.1339C52.8943 45.8578 53.5059 46.0216 53.782 46.4999L55.166 48.897L56.55 46.4999C56.8261 46.0216 57.4377 45.8578 57.916 46.1339C58.3943 46.41 58.5582 47.0216 58.282 47.4999L56.8981 49.8969H59.666C60.2183 49.8969 60.666 50.3446 60.666 50.8969C60.666 51.4492 60.2183 51.8969 59.666 51.8969H56.898L58.282 54.2942C58.5582 54.7724 58.3943 55.384 57.916 55.6602C57.4377 55.9363 56.8261 55.7724 56.55 55.2942L55.166 52.897L53.782 55.2942C53.5059 55.7724 52.8943 55.9363 52.416 55.6602C51.9377 55.384 51.7738 54.7724 52.05 54.2942L53.434 51.8969H50.666C50.1137 51.8969 49.666 51.4492 49.666 50.8969Z" fill="#76B82A"/>
</svg>
