<svg width="64" height="64" viewBox="0 0 64 64" fill="none" xmlns="http://www.w3.org/2000/svg">
<path fill-rule="evenodd" clip-rule="evenodd" d="M29.08 10C28.8148 10 28.5604 10.1054 28.3729 10.2929C28.1853 10.4804 28.08 10.7348 28.08 11V20.6252H26C25.4477 20.6252 25 21.0729 25 21.6252C25 22.1775 25.4477 22.6252 26 22.6252H28.08V25C28.08 25.5523 28.5277 26 29.08 26C29.6323 26 30.08 25.5523 30.08 25V22.6252H35.56C36.1123 22.6252 36.56 22.1775 36.56 21.6252C36.56 21.0729 36.1123 20.6252 35.56 20.6252H30.08V19.6701C31.4555 19.6446 33.0852 19.5394 34.4826 19.1198C35.3685 18.8538 36.2454 18.438 36.9092 17.762C37.5989 17.0595 38 16.1338 38 14.9936C38 13.8552 37.6008 12.9208 36.9282 12.1969C36.2769 11.4958 35.4115 11.0357 34.5243 10.7263C32.7624 10.1118 30.6409 10 29.08 10ZM33.9074 17.2043C32.7712 17.5455 31.3818 17.6433 30.08 17.6692V12.0182C31.3585 12.0664 32.7397 12.222 33.8657 12.6147C34.5735 12.8616 35.1106 13.1789 35.463 13.5582C35.7942 13.9146 36 14.3636 36 14.9936C36 15.6219 35.7961 16.0409 35.482 16.3608C35.1421 16.7071 34.6165 16.9914 33.9074 17.2043Z" fill="#F7A600"/>
<path fill-rule="evenodd" clip-rule="evenodd" d="M18 18C18 10.268 24.268 4 32 4C39.732 4 46 10.268 46 18C46 25.732 39.732 32 32 32C24.268 32 18 25.732 18 18ZM32 6C25.3726 6 20 11.3726 20 18C20 24.6274 25.3726 30 32 30C38.6274 30 44 24.6274 44 18C44 11.3726 38.6274 6 32 6Z" fill="#F7A600"/>
<path fill-rule="evenodd" clip-rule="evenodd" d="M25 37C25 36.4477 25.4477 36 26 36H38C38.5523 36 39 36.4477 39 37V58H43V41C43 40.4477 43.4477 40 44 40H56C56.5523 40 57 40.4477 57 41V58H59C59.5523 58 60 58.4477 60 59C60 59.5523 59.5523 60 59 60H5C4.44772 60 4 59.5523 4 59C4 58.4477 4.44772 58 5 58H7V44C7 43.4477 7.44772 43 8 43H20C20.5523 43 21 43.4477 21 44V58H25V37ZM55 58V42H45V58H55ZM37 38V58H27V38H37ZM19 58V45H9V58H19Z" fill="#F7A600"/>
</svg>
