<svg width="64" height="64" viewBox="0 0 64 64" fill="none" xmlns="http://www.w3.org/2000/svg">
<path fill-rule="evenodd" clip-rule="evenodd" d="M32.3387 4.05911C32.1198 3.9803 31.8802 3.9803 31.6613 4.05911L10.6613 11.6191C10.2645 11.7619 10 12.1383 10 12.56V29.3C10 38.1651 12.9133 45.6626 18.158 51.0571C23.3401 56.3873 29.6507 59.189 31.6497 59.9366C31.8756 60.0211 32.1244 60.0211 32.3503 59.9366C34.3492 59.189 40.6599 56.3873 45.842 51.0571C51.0867 45.6626 54 38.1651 54 29.3V12.56C54 12.1383 53.7355 11.7619 53.3387 11.6191L32.3387 4.05911ZM12 29.3V13.2628L32 6.06283L52 13.2628V29.3C52 37.715 49.2433 44.6894 44.408 49.6629C39.7852 54.4178 34.1723 57.0636 32 57.9279C29.8277 57.0636 24.2148 54.4178 19.592 49.6629C14.7567 44.6894 12 37.715 12 29.3ZM24 27C22.3431 27 21 28.3431 21 30V42C21 43.6569 22.3431 45 24 45H40C41.6569 45 43 43.6569 43 42V30C43 28.3431 41.6569 27 40 27H38V24C38 20.6863 35.3137 18 32 18C28.6863 18 26 20.6863 26 24V27H24ZM40 29C40.5523 29 41 29.4477 41 30V42C41 42.5523 40.5523 43 40 43H24C23.4477 43 23 42.5523 23 42V30C23 29.4477 23.4477 29 24 29H40ZM36 24V27H28V24C28 21.7909 29.7909 20 32 20C34.2091 20 36 21.7909 36 24ZM30 36C30 34.8954 30.8954 34 32 34C33.1046 34 34 34.8954 34 36C34 37.1046 33.1046 38 32 38C30.8954 38 30 37.1046 30 36ZM32 32C29.7909 32 28 33.7909 28 36C28 38.2091 29.7909 40 32 40C34.2091 40 36 38.2091 36 36C36 33.7909 34.2091 32 32 32Z" fill="#76B82A"/>
</svg>
