<svg width="65" height="64" viewBox="0 0 65 64" fill="none" xmlns="http://www.w3.org/2000/svg">
<path fill-rule="evenodd" clip-rule="evenodd" d="M6.33325 12L6.33325 48C6.33325 48.5523 6.78097 49 7.33325 49H31.3333C31.8855 49 32.3333 49.4477 32.3333 50C32.3333 50.5523 31.8855 51 31.3333 51H7.33325C5.6764 51 4.33325 49.6569 4.33325 48L4.33325 12C4.33325 10.3431 5.6764 9 7.33325 9L57.3333 9C58.9901 9 60.3333 10.3431 60.3333 12V35C60.3333 35.5523 59.8855 36 59.3333 36C58.781 36 58.3333 35.5523 58.3333 35V12C58.3333 11.4477 57.8855 11 57.3333 11H41.3333V14C41.3333 14.5523 40.8855 15 40.3333 15L24.3333 15C23.781 15 23.3333 14.5523 23.3333 14V11L7.33325 11C6.78097 11 6.33325 11.4477 6.33325 12ZM25.3333 11V13L39.3333 13V11L25.3333 11Z" fill="#F7A600"/>
<path d="M37.3333 29C36.781 29 36.3333 29.4477 36.3333 30C36.3333 30.5523 36.781 31 37.3333 31H41.3333C41.8855 31 42.3333 30.5523 42.3333 30C42.3333 29.4477 41.8855 29 41.3333 29H37.3333Z" fill="#F7A600"/>
<path d="M37.3333 23C36.781 23 36.3333 23.4477 36.3333 24C36.3333 24.5523 36.781 25 37.3333 25H53.3333C53.8855 25 54.3333 24.5523 54.3333 24C54.3333 23.4477 53.8855 23 53.3333 23H37.3333Z" fill="#F7A600"/>
<path fill-rule="evenodd" clip-rule="evenodd" d="M10.3333 31C10.3333 24.9249 15.2581 20 21.3333 20C27.4084 20 32.3333 24.9249 32.3333 31C32.3333 37.0751 27.4084 42 21.3333 42C15.2581 42 10.3333 37.0751 10.3333 31ZM20.3333 22.0549C15.8333 22.5524 12.3333 26.3674 12.3333 31C12.3333 35.9706 16.3627 40 21.3333 40C25.9658 40 29.7809 36.5 30.2783 32L21.3333 32C20.781 32 20.3333 31.5523 20.3333 31L20.3333 22.0549ZM22.3333 22.0549L22.3333 30L30.2783 30C29.8172 25.8284 26.5049 22.5161 22.3333 22.0549Z" fill="#F7A600"/>
<path fill-rule="evenodd" clip-rule="evenodd" d="M44.1461 40.2929C44.3337 40.1054 44.588 40 44.8532 40C46.1357 40 47.9033 40.0954 49.3814 40.6354C50.1283 40.9084 50.8662 41.3176 51.4233 41.9458C51.9988 42.5948 52.3333 43.4248 52.3333 44.4231C52.3333 45.4227 51.9973 46.247 51.4048 46.8793C50.8348 47.4875 50.0846 47.8581 49.3383 48.0928C48.2279 48.4422 46.9487 48.5423 45.8532 48.5704V49.1073H50.9733C51.5256 49.1073 51.9733 49.555 51.9733 50.1073C51.9733 50.6596 51.5256 51.1073 50.9733 51.1073H45.8532V53C45.8532 53.5523 45.4055 54 44.8532 54C44.3009 54 43.8532 53.5523 43.8532 53V51.1073H42.3333C41.781 51.1073 41.3333 50.6596 41.3333 50.1073C41.3333 49.555 41.781 49.1073 42.3333 49.1073H43.8532V41C43.8532 40.7348 43.9586 40.4804 44.1461 40.2929ZM45.8532 46.5691C46.8541 46.5411 47.889 46.4521 48.7382 46.185C49.2969 46.0092 49.6942 45.7798 49.9455 45.5117C50.1742 45.2676 50.3333 44.9393 50.3333 44.4231C50.3333 43.9057 50.1727 43.5499 49.927 43.2728C49.6628 42.975 49.2532 42.7179 48.695 42.514C47.8567 42.2076 46.8314 42.0731 45.8532 42.024V46.5691Z" fill="#F7A600"/>
<path fill-rule="evenodd" clip-rule="evenodd" d="M47.3333 34C40.1535 34 34.3333 39.8203 34.3333 47C34.3333 54.1797 40.1535 60 47.3333 60C54.513 60 60.3333 54.1797 60.3333 47C60.3333 39.8203 54.513 34 47.3333 34ZM36.3333 47C36.3333 40.9249 41.2581 36 47.3333 36C53.4084 36 58.3333 40.9249 58.3333 47C58.3333 53.0751 53.4084 58 47.3333 58C41.2581 58 36.3333 53.0751 36.3333 47Z" fill="#F7A600"/>
<path d="M13.3333 15C13.8855 15 14.3333 14.5523 14.3333 14C14.3333 13.4477 13.8855 13 13.3333 13C12.781 13 12.3333 13.4477 12.3333 14C12.3333 14.5523 12.781 15 13.3333 15Z" fill="#F7A600"/>
<path d="M10.3333 14C10.3333 14.5523 9.88554 15 9.33325 15C8.78097 15 8.33325 14.5523 8.33325 14C8.33325 13.4477 8.78097 13 9.33325 13C9.88554 13 10.3333 13.4477 10.3333 14Z" fill="#F7A600"/>
<path d="M17.3333 15C17.8855 15 18.3333 14.5523 18.3333 14C18.3333 13.4477 17.8855 13 17.3333 13C16.781 13 16.3333 13.4477 16.3333 14C16.3333 14.5523 16.781 15 17.3333 15Z" fill="#F7A600"/>
</svg>
