<svg width="65" height="64" viewBox="0 0 65 64" fill="none" xmlns="http://www.w3.org/2000/svg">
<path fill-rule="evenodd" clip-rule="evenodd" d="M32.334 15C32.7146 15 33.0623 15.2161 33.2307 15.5574L35.6431 20.4454L41.0373 21.2292C41.414 21.284 41.7269 21.5478 41.8446 21.9098C41.9622 22.2718 41.8641 22.6692 41.5915 22.9349L37.6882 26.7397L38.6097 32.1121C38.674 32.4873 38.5198 32.8664 38.2118 33.0902C37.9039 33.3139 37.4956 33.3434 37.1587 33.1663L32.334 30.6298L27.5093 33.1663C27.1723 33.3434 26.7641 33.3139 26.4561 33.0902C26.1482 32.8664 25.994 32.4873 26.0583 32.1121L26.9797 26.7397L23.0765 22.9349C22.8039 22.6692 22.7058 22.2718 22.8234 21.9098C22.941 21.5478 23.254 21.284 23.6307 21.2292L29.0249 20.4454L31.4372 15.5574C31.6057 15.2161 31.9533 15 32.334 15ZM32.334 18.2596L30.5857 21.802C30.44 22.0971 30.1585 22.3017 29.8327 22.349L25.9234 22.9171L28.7522 25.6745C28.9879 25.9042 29.0955 26.2352 29.0398 26.5596L28.372 30.4531L31.8686 28.6149C32.16 28.4617 32.508 28.4617 32.7993 28.6149L36.2959 30.4531L35.6281 26.5596C35.5725 26.2352 35.68 25.9042 35.9157 25.6745L38.7445 22.9171L34.8352 22.349C34.5095 22.3017 34.2279 22.0971 34.0823 21.802L32.334 18.2596Z" fill="#55246A"/>
<path fill-rule="evenodd" clip-rule="evenodd" d="M32.334 9C23.4974 9 16.334 16.1634 16.334 25C16.334 33.8366 23.4974 41 32.334 41C41.1705 41 48.334 33.8366 48.334 25C48.334 16.1634 41.1705 9 32.334 9ZM18.334 25C18.334 17.268 24.602 11 32.334 11C40.066 11 46.334 17.268 46.334 25C46.334 32.732 40.066 39 32.334 39C24.602 39 18.334 32.732 18.334 25Z" fill="#55246A"/>
<path fill-rule="evenodd" clip-rule="evenodd" d="M32.334 4C20.736 4 11.334 13.402 11.334 25C11.334 31.3116 14.1184 36.9729 18.5259 40.8224L13.3907 55.4197C13.2704 55.7615 13.3445 56.1416 13.5842 56.4133C13.824 56.685 14.1919 56.8057 14.546 56.7289L22.6257 54.9756L27.2712 59.701C27.5188 59.9529 27.881 60.0555 28.2239 59.9709C28.5668 59.8863 28.8397 59.627 28.9417 59.2888L32.334 48.045L35.7263 59.2888C35.8283 59.627 36.1011 59.8863 36.4441 59.9709C36.787 60.0555 37.1491 59.9529 37.3968 59.701L42.0423 54.9756L50.1219 56.7289C50.4795 56.8064 50.851 56.6825 51.0904 56.4057C51.3297 56.129 51.3988 55.7435 51.2705 55.4008L46.0809 41.5457C46.0177 41.377 45.9137 41.2353 45.7844 41.1279C50.3984 37.2757 53.334 31.4807 53.334 25C53.334 13.402 43.932 4 32.334 4ZM13.334 25C13.334 14.5066 21.8406 6 32.334 6C42.8274 6 51.334 14.5066 51.334 25C51.334 35.4934 42.8274 44 32.334 44C21.8406 44 13.334 35.4934 13.334 25ZM44.2306 42.3076C41.2238 44.3783 37.6507 45.6857 33.791 45.9502L37.1536 57.0955L41.0025 53.1804C41.2431 52.9357 41.5923 52.8314 41.9277 52.9042L48.7545 54.3856L44.2306 42.3076ZM30.8769 45.9502C26.9089 45.6783 23.2438 44.3041 20.1856 42.1314L15.8714 54.3947L22.7403 52.9042C23.0756 52.8314 23.4249 52.9357 23.6655 53.1804L27.5144 57.0955L30.8769 45.9502Z" fill="#55246A"/>
</svg>
