<svg width="65" height="64" viewBox="0 0 65 64" fill="none" xmlns="http://www.w3.org/2000/svg">
<path fill-rule="evenodd" clip-rule="evenodd" d="M30.6665 31C30.6665 32.6569 29.3234 34 27.6665 34C26.0096 34 24.6665 32.6569 24.6665 31L24.6665 15C24.6665 13.3431 26.0097 12 27.6665 12C29.3234 12 30.6665 13.3431 30.6665 15L30.6665 31ZM27.6665 32C28.2188 32 28.6665 31.5523 28.6665 31L28.6665 15C28.6665 14.4477 28.2188 14 27.6665 14C27.1142 14 26.6665 14.4477 26.6665 15L26.6665 31C26.6665 31.5523 27.1142 32 27.6665 32Z" fill="#F7A600"/>
<path fill-rule="evenodd" clip-rule="evenodd" d="M27.6665 42C29.3234 42 30.6665 40.6569 30.6665 39C30.6665 37.3431 29.3234 36 27.6665 36C26.0097 36 24.6665 37.3431 24.6665 39C24.6665 40.6569 26.0096 42 27.6665 42ZM28.6665 39C28.6665 39.5523 28.2188 40 27.6665 40C27.1142 40 26.6665 39.5523 26.6665 39C26.6665 38.4477 27.1142 38 27.6665 38C28.2188 38 28.6665 38.4477 28.6665 39Z" fill="#F7A600"/>
<path fill-rule="evenodd" clip-rule="evenodd" d="M27.6665 8C17.1731 8 8.6665 16.5066 8.6665 27C8.6665 37.4934 17.1731 46 27.6665 46C38.1599 46 46.6665 37.4934 46.6665 27C46.6665 16.5066 38.1599 8 27.6665 8ZM10.6665 27C10.6665 17.6112 18.2777 10 27.6665 10C37.0553 10 44.6665 17.6112 44.6665 27C44.6665 36.3888 37.0553 44 27.6665 44C18.2777 44 10.6665 36.3888 10.6665 27Z" fill="#F7A600"/>
<path fill-rule="evenodd" clip-rule="evenodd" d="M27.6665 4C14.964 4 4.6665 14.2975 4.6665 27C4.6665 39.7025 14.964 50 27.6665 50C33.5142 50 38.8521 47.8177 42.9104 44.2231L45.8031 47.1158C44.9398 48.6413 45.158 50.6131 46.4578 51.9129L53.5301 58.9852C55.0922 60.5473 57.6248 60.5473 59.1869 58.9852C60.749 57.4231 60.749 54.8904 59.1869 53.3283L52.1147 46.256C50.7788 44.9201 48.733 44.7267 47.1915 45.6758L44.3491 42.8333C48.2643 38.7095 50.6665 33.1353 50.6665 27C50.6665 14.2975 40.3691 4 27.6665 4ZM6.6665 27C6.6665 15.402 16.0685 6 27.6665 6C39.2645 6 48.6665 15.402 48.6665 27C48.6665 38.598 39.2645 48 27.6665 48C16.0685 48 6.6665 38.598 6.6665 27ZM47.872 50.4987C47.091 49.7176 47.091 48.4513 47.872 47.6703C48.6531 46.8892 49.9194 46.8892 50.7005 47.6703L57.7727 54.7425C58.5538 55.5236 58.5538 56.7899 57.7727 57.5709C56.9917 58.352 55.7253 58.352 54.9443 57.5709L47.872 50.4987Z" fill="#F7A600"/>
</svg>
