<svg width="65" height="64" viewBox="0 0 65 64" fill="none" xmlns="http://www.w3.org/2000/svg">
<path fill-rule="evenodd" clip-rule="evenodd" d="M30.333 31C30.333 32.6569 28.9899 34 27.333 34C25.6762 34 24.333 32.6569 24.333 31L24.333 15C24.333 13.3431 25.6762 12 27.333 12C28.9899 12 30.333 13.3431 30.333 15L30.333 31ZM27.333 32C27.8853 32 28.333 31.5523 28.333 31L28.333 15C28.333 14.4477 27.8853 14 27.333 14C26.7807 14 26.333 14.4477 26.333 15L26.333 31C26.333 31.5523 26.7807 32 27.333 32Z" fill="#55246A"/>
<path fill-rule="evenodd" clip-rule="evenodd" d="M27.333 42C28.9899 42 30.333 40.6569 30.333 39C30.333 37.3431 28.9899 36 27.333 36C25.6762 36 24.333 37.3431 24.333 39C24.333 40.6569 25.6762 42 27.333 42ZM28.333 39C28.333 39.5523 27.8853 40 27.333 40C26.7807 40 26.333 39.5523 26.333 39C26.333 38.4477 26.7807 38 27.333 38C27.8853 38 28.333 38.4477 28.333 39Z" fill="#55246A"/>
<path fill-rule="evenodd" clip-rule="evenodd" d="M27.333 8C16.8396 8 8.33301 16.5066 8.33301 27C8.33301 37.4934 16.8396 46 27.333 46C37.8264 46 46.333 37.4934 46.333 27C46.333 16.5066 37.8264 8 27.333 8ZM10.333 27C10.333 17.6112 17.9442 10 27.333 10C36.7218 10 44.333 17.6112 44.333 27C44.333 36.3888 36.7218 44 27.333 44C17.9442 44 10.333 36.3888 10.333 27Z" fill="#55246A"/>
<path fill-rule="evenodd" clip-rule="evenodd" d="M27.333 4C14.6305 4 4.33301 14.2975 4.33301 27C4.33301 39.7025 14.6305 50 27.333 50C33.1807 50 38.5186 47.8177 42.5769 44.2231L45.4696 47.1158C44.6063 48.6413 44.8245 50.6131 46.1243 51.9129L53.1966 58.9852C54.7587 60.5473 57.2913 60.5473 58.8534 58.9852C60.4155 57.4231 60.4155 54.8904 58.8534 53.3283L51.7812 46.256C50.4453 44.9201 48.3995 44.7267 46.858 45.6758L44.0156 42.8333C47.9308 38.7095 50.333 33.1353 50.333 27C50.333 14.2975 40.0356 4 27.333 4ZM6.33301 27C6.33301 15.402 15.735 6 27.333 6C38.931 6 48.333 15.402 48.333 27C48.333 38.598 38.931 48 27.333 48C15.735 48 6.33301 38.598 6.33301 27ZM47.5385 50.4987C46.7575 49.7176 46.7575 48.4513 47.5385 47.6703C48.3196 46.8892 49.5859 46.8892 50.367 47.6703L57.4392 54.7425C58.2203 55.5236 58.2203 56.7899 57.4392 57.5709C56.6582 58.352 55.3918 58.352 54.6108 57.5709L47.5385 50.4987Z" fill="#55246A"/>
</svg>
