<svg width="65" height="64" viewBox="0 0 65 64" fill="none" xmlns="http://www.w3.org/2000/svg">
<path fill-rule="evenodd" clip-rule="evenodd" d="M18.853 7C18.5878 7 18.3334 7.10536 18.1459 7.29289C17.9583 7.48043 17.853 7.73478 17.853 8V16.1073H16.333C15.7807 16.1073 15.333 16.555 15.333 17.1073C15.333 17.6596 15.7807 18.1073 16.333 18.1073H17.853V20C17.853 20.5523 18.3007 21 18.853 21C19.4053 21 19.853 20.5523 19.853 20V18.1073H24.973C25.5253 18.1073 25.973 17.6596 25.973 17.1073C25.973 16.555 25.5253 16.1073 24.973 16.1073H19.853V15.5704C20.9484 15.5423 22.2276 15.4422 23.3381 15.0928C24.0843 14.8581 24.8345 14.4875 25.4045 13.8793C25.9971 13.247 26.333 12.4227 26.333 11.4231C26.333 10.4248 25.9986 9.59478 25.423 8.94579C24.8659 8.31759 24.1281 7.90835 23.3812 7.63545C21.9031 7.09536 20.1354 7 18.853 7ZM22.7379 13.185C21.8888 13.4521 20.8538 13.5411 19.853 13.5691V9.02396C20.8312 9.07313 21.8564 9.20764 22.6948 9.51398C23.2529 9.7179 23.6626 9.97496 23.9267 10.2728C24.1724 10.5499 24.333 10.9057 24.333 11.4231C24.333 11.9393 24.174 12.2676 23.9452 12.5117C23.694 12.7798 23.2967 13.0092 22.7379 13.185Z" fill="#55246A"/>
<path d="M38.333 32C38.333 31.6575 38.3674 31.3231 38.433 31H43.333C43.8853 31 44.333 30.5523 44.333 30C44.333 29.4477 43.8853 29 43.333 29H39.3326C40.2448 27.7856 41.6972 27 43.333 27C44.8262 27 46.1656 27.6533 47.0833 28.693C47.4487 29.1071 48.0807 29.1465 48.4947 28.781C48.9088 28.4155 48.9482 27.7836 48.5827 27.3695C47.3016 25.918 45.4239 25 43.333 25C40.5406 25 38.1301 26.6351 37.0066 29H35.333C34.7807 29 34.333 29.4477 34.333 30C34.333 30.5523 34.7807 31 35.333 31H36.4039C36.3572 31.3266 36.333 31.6605 36.333 32C36.333 32.3395 36.3572 32.6734 36.4039 33H35.333C34.7807 33 34.333 33.4477 34.333 34C34.333 34.5523 34.7807 35 35.333 35H37.0066C38.1301 37.3649 40.5406 39 43.333 39C45.4239 39 47.3016 38.082 48.5827 36.6305C48.9482 36.2164 48.9088 35.5845 48.4947 35.219C48.0807 34.8535 47.4487 34.8929 47.0833 35.307C46.1656 36.3467 44.8262 37 43.333 37C41.6972 37 40.2448 36.2144 39.3326 35H43.333C43.8853 35 44.333 34.5523 44.333 34C44.333 33.4477 43.8853 33 43.333 33H38.433C38.3674 32.6769 38.333 32.3425 38.333 32Z" fill="#55246A"/>
<path d="M21.583 43C22.1353 43 22.583 43.4477 22.583 44V44.7056C23.4874 44.9081 24.1554 45.386 24.6063 45.9969C25.1718 46.763 25.333 47.6496 25.333 48.242C25.333 48.7943 24.8853 49.242 24.333 49.242C23.7807 49.242 23.333 48.7943 23.333 48.242C23.333 47.9538 23.2442 47.5193 22.9972 47.1846C22.7882 46.9014 22.4055 46.6 21.583 46.6C20.6298 46.6 20.1767 46.8514 19.9549 47.0787C19.7276 47.3116 19.583 47.683 19.583 48.242C19.583 48.3583 19.6101 48.3996 19.6286 48.4242C19.6597 48.4654 19.7366 48.5395 19.9197 48.6287C20.2976 48.813 20.8203 48.9273 21.5234 49.0811L21.6723 49.1137C22.3647 49.2656 23.2473 49.4658 23.9499 49.8882C24.3196 50.1105 24.6759 50.4139 24.9368 50.8363C25.2016 51.2651 25.333 51.7603 25.333 52.3067C25.333 53.3878 24.8085 54.2132 24.0475 54.7275C23.6081 55.0243 23.1025 55.212 22.583 55.3115V56C22.583 56.5523 22.1353 57 21.583 57C21.0307 57 20.583 56.5523 20.583 56V55.2979C19.9502 55.1737 19.3305 54.9347 18.8008 54.5717C17.974 54.0052 17.333 53.1017 17.333 51.9003C17.333 51.348 17.7807 50.9003 18.333 50.9003C18.8853 50.9003 19.333 51.348 19.333 51.9003C19.333 52.3078 19.5277 52.6454 19.9313 52.9219C20.3561 53.213 20.9672 53.3929 21.5941 53.3998C22.1574 53.406 22.6293 53.272 22.9277 53.0703C23.1886 52.894 23.333 52.6651 23.333 52.3067C23.333 52.0911 23.2847 51.9675 23.2351 51.8872C23.1815 51.8004 23.0886 51.7041 22.9193 51.6022C22.5437 51.3765 21.9888 51.2306 21.2437 51.0672C21.1791 51.053 21.1125 51.0386 21.0443 51.0239C20.4167 50.8883 19.6512 50.7228 19.0432 50.4265C18.6872 50.2529 18.3149 50.004 18.0315 49.628C17.7356 49.2353 17.583 48.7653 17.583 48.242C17.583 47.359 17.8135 46.4094 18.5236 45.6818C19.0449 45.1478 19.7418 44.8178 20.583 44.6779V44C20.583 43.4477 21.0307 43 21.583 43Z" fill="#55246A"/>
<path fill-rule="evenodd" clip-rule="evenodd" d="M5.33301 4C4.78072 4 4.33301 4.44772 4.33301 5V23C4.33301 23.5523 4.78072 24 5.33301 24H26.333V40H5.33301C4.78072 40 4.33301 40.4477 4.33301 41V59C4.33301 59.5523 4.78072 60 5.33301 60H37.333C37.8853 60 38.333 59.5523 38.333 59V42H59.333C59.8853 42 60.333 41.5523 60.333 41V23C60.333 22.4477 59.8853 22 59.333 22H38.333V5C38.333 4.44772 37.8853 4 37.333 4H5.33301ZM36.333 22H6.33301V6H36.333V22ZM28.333 40V24H58.333V40H28.333ZM6.33301 42H36.333V58H6.33301V42Z" fill="#55246A"/>
</svg>
