<svg width="65" height="64" viewBox="0 0 65 64" fill="none" xmlns="http://www.w3.org/2000/svg">
<path d="M28.3333 9C27.781 9 27.3333 9.44772 27.3333 10C27.3333 10.5523 27.781 11 28.3333 11L36.3333 11C36.8855 11 37.3333 10.5523 37.3333 10C37.3333 9.44772 36.8855 9 36.3333 9L28.3333 9Z" fill="#F7A600"/>
<path d="M27.3333 14C27.3333 13.4477 27.781 13 28.3333 13L36.3333 13C36.8855 13 37.3333 13.4477 37.3333 14C37.3333 14.5523 36.8855 15 36.3333 15L28.3333 15C27.781 15 27.3333 14.5523 27.3333 14Z" fill="#F7A600"/>
<path fill-rule="evenodd" clip-rule="evenodd" d="M20.3333 4C18.6764 4 17.3333 5.34315 17.3333 7V17.8284C17.3333 19.4852 18.6764 20.8284 20.3333 20.8284H21.1306C21.7209 20.8284 22.1827 21.337 22.1259 21.9246L21.8379 24.9038C21.7978 25.3183 22.0188 25.7142 22.3926 25.8977C22.7665 26.0812 23.2149 26.0138 23.5183 25.7285L28.4408 21.0999C28.6263 20.9255 28.8713 20.8284 29.1259 20.8284H35.5406C35.7952 20.8284 36.0402 20.9255 36.2257 21.0999L41.1482 25.7285C41.4516 26.0138 41.9 26.0812 42.2739 25.8977C42.6477 25.7142 42.8687 25.3183 42.8286 24.9038L42.5406 21.9246C42.4838 21.337 42.9456 20.8284 43.5359 20.8284H44.3333C45.9901 20.8284 47.3333 19.4852 47.3333 17.8284V7C47.3333 5.34315 45.9901 4 44.3333 4H20.3333ZM19.3333 7C19.3333 6.44772 19.781 6 20.3333 6H44.3333C44.8855 6 45.3333 6.44772 45.3333 7V17.8284C45.3333 18.3807 44.8855 18.8284 44.3333 18.8284H43.5359C41.765 18.8284 40.3794 20.3544 40.5499 22.1171L40.5821 22.4509L37.5957 19.6428C37.0393 19.1196 36.3044 18.8284 35.5406 18.8284H29.1259C28.3621 18.8284 27.6272 19.1196 27.0708 19.6428L24.0844 22.4509L24.1166 22.1171C24.2871 20.3544 22.9015 18.8284 21.1306 18.8284H20.3333C19.781 18.8284 19.3333 18.3807 19.3333 17.8284V7Z" fill="#F7A600"/>
<path fill-rule="evenodd" clip-rule="evenodd" d="M4.33325 49C4.33325 48.4477 4.78097 48 5.33325 48H11.0071C8.18015 46.0093 6.33325 42.7203 6.33325 39C6.33325 32.9249 11.2581 28 17.3333 28C23.4084 28 28.3333 32.9249 28.3333 39C28.3333 42.7203 26.4864 46.0093 23.6594 48H41.0071C38.1801 46.0093 36.3333 42.7203 36.3333 39C36.3333 32.9249 41.2581 28 47.3333 28C53.4084 28 58.3333 32.9249 58.3333 39C58.3333 42.7203 56.4864 46.0093 53.6594 48H59.3333C59.8855 48 60.3333 48.4477 60.3333 49C60.3333 49.5523 59.8855 50 59.3333 50H34.5786L42.0765 58.331C42.3407 58.6246 42.4074 59.0461 42.2467 59.4068C42.0861 59.7676 41.7282 60 41.3333 60H23.3333C22.9383 60 22.5804 59.7676 22.4198 59.4068C22.2591 59.0461 22.3258 58.6246 22.59 58.331L30.0879 50H5.33325C4.78097 50 4.33325 49.5523 4.33325 49ZM56.3333 39C56.3333 43.9706 52.3038 48 47.3333 48C42.3627 48 38.3333 43.9706 38.3333 39C38.3333 34.0294 42.3627 30 47.3333 30C52.3038 30 56.3333 34.0294 56.3333 39ZM17.3333 48C22.3038 48 26.3333 43.9706 26.3333 39C26.3333 34.0294 22.3038 30 17.3333 30C12.3627 30 8.33325 34.0294 8.33325 39C8.33325 43.9706 12.3627 48 17.3333 48ZM39.0879 58L32.3333 50.4948L25.5786 58H39.0879Z" fill="#F7A600"/>
</svg>
