<svg width="64" height="64" viewBox="0 0 64 64" fill="none" xmlns="http://www.w3.org/2000/svg">
<path fill-rule="evenodd" clip-rule="evenodd" d="M46 8C46 5.79086 47.7909 4 50 4C52.2091 4 54 5.79086 54 8C54 10.2091 52.2091 12 50 12C49.1281 12 48.3214 11.7211 47.6642 11.2475C47.6563 11.2545 47.6483 11.2614 47.6402 11.2682L41.6402 16.2682C41.6322 16.2749 41.6241 16.2814 41.616 16.2877C41.8622 16.8068 42 17.3873 42 18C42 20.2091 40.2091 22 38 22C35.7909 22 34 20.2091 34 18C34 17.9072 34.0032 17.8151 34.0094 17.7239L29.3585 16.1736C28.6456 17.2728 27.4077 18 26 18C24.975 18 24.04 17.6144 23.3322 16.9804L17.7782 20.6831C17.9219 21.0955 18 21.5386 18 22C18 24.2091 16.2091 26 14 26C11.7909 26 10 24.2091 10 22C10 19.7909 11.7909 18 14 18C15.025 18 15.96 18.3856 16.6678 19.0196L22.2218 15.3169C22.0781 14.9045 22 14.4614 22 14C22 11.7909 23.7909 10 26 10C28.2091 10 30 11.7909 30 14C30 14.0928 29.9968 14.1849 29.9906 14.2761L34.6415 15.8264C35.3544 14.7272 36.5923 14 38 14C38.8719 14 39.6786 14.2789 40.3358 14.7525C40.3437 14.7455 40.3517 14.7386 40.3598 14.7318L46.3598 9.73178C46.3678 9.72513 46.3759 9.71863 46.384 9.71227C46.1377 9.19321 46 8.61269 46 8ZM50 6C48.8954 6 48 6.89543 48 8C48 9.10457 48.8954 10 50 10C51.1046 10 52 9.10457 52 8C52 6.89543 51.1046 6 50 6ZM26 12C24.8954 12 24 12.8954 24 14C24 15.1046 24.8954 16 26 16C27.1046 16 28 15.1046 28 14C28 12.8954 27.1046 12 26 12ZM12 22C12 20.8954 12.8954 20 14 20C15.1046 20 16 20.8954 16 22C16 23.1046 15.1046 24 14 24C12.8954 24 12 23.1046 12 22ZM36 18C36 16.8954 36.8954 16 38 16C39.1046 16 40 16.8954 40 18C40 19.1046 39.1046 20 38 20C36.8954 20 36 19.1046 36 18Z" fill="#55246A"/>
<path fill-rule="evenodd" clip-rule="evenodd" d="M45 25C45 24.4477 45.4477 24 46 24H54C54.5523 24 55 24.4477 55 25V58H59C59.5523 58 60 58.4477 60 59C60 59.5523 59.5523 60 59 60H5C4.44772 60 4 59.5523 4 59C4 58.4477 4.44772 58 5 58H9V40C9 39.4477 9.44772 39 10 39H18C18.5523 39 19 39.4477 19 40V58H21V31C21 30.4477 21.4477 30 22 30H30C30.5523 30 31 30.4477 31 31V58H33V36C33 35.4477 33.4477 35 34 35H42C42.5523 35 43 35.4477 43 36V58H45V25ZM53 26V58H47V26H53ZM41 58V37H35V58H41ZM29 32V58H23V32H29ZM17 58V41H11V58H17Z" fill="#55246A"/>
</svg>
