<svg width="65" height="64" viewBox="0 0 65 64" fill="none" xmlns="http://www.w3.org/2000/svg">
<path fill-rule="evenodd" clip-rule="evenodd" d="M43.6672 13C43.6672 12.7299 43.7765 12.4713 43.9701 12.2831L52.1976 4.28308C52.4857 4.00289 52.9136 3.92245 53.2839 4.07885C53.6541 4.23526 53.8947 4.59811 53.8947 5.00003L53.8947 9.64169L55.9592 7.57715C56.3498 7.18663 56.9829 7.18663 57.3735 7.57715C57.764 7.96768 57.764 8.60084 57.3735 8.99137L55.2935 11.0714L59.9652 11.0712C60.3675 11.0712 60.7306 11.3123 60.8868 11.683C61.0429 12.0537 60.9618 12.4819 60.6808 12.7698L52.453 21.1986C52.2649 21.3914 52.0068 21.5001 51.7374 21.5001L44.8649 21.4999L34.1147 32.2501H35.6665C36.2188 32.2501 36.6665 32.6978 36.6665 33.2501C36.6665 33.8024 36.2188 34.2501 35.6665 34.2501H30.6665V29.2501C30.6665 28.6978 31.1142 28.2501 31.6665 28.2501C32.2188 28.2501 32.6665 28.6978 32.6665 29.2501V30.8699L43.6671 19.8693L43.6672 13ZM49.4458 17.0355L47.0401 19.5L51.3162 19.5001L53.7219 17.0355L49.4458 17.0355ZM55.6742 15.0355L57.5916 13.0713L53.3154 13.0714L51.3982 15.0355L55.6742 15.0355ZM51.8947 7.36717L51.8947 11.6417L51.649 11.8874L49.702 13.7806L49.7019 9.4993L51.8947 7.36717ZM47.702 15.7254L47.702 11.444L45.6672 13.4225L45.6671 17.704L47.702 15.7254Z" fill="#55246A"/>
<path d="M6.6665 32.0001C6.6665 17.6407 18.3071 6.00008 32.6665 6.00008C36.0704 6.00008 39.3192 6.65367 42.296 7.84128C42.8089 8.04593 43.3907 7.79599 43.5953 7.28302C43.8 6.77005 43.55 6.18831 43.0371 5.98365C39.8284 4.70355 36.3284 4.00008 32.6665 4.00008C17.2025 4.00008 4.6665 16.5361 4.6665 32.0001C4.6665 47.4641 17.2025 60.0001 32.6665 60.0001C48.1305 60.0001 60.6665 47.4641 60.6665 32.0001C60.6665 28.3382 59.963 24.8382 58.6829 21.6295C58.4783 21.1166 57.8965 20.8666 57.3836 21.0713C56.8706 21.2759 56.6207 21.8577 56.8253 22.3706C58.0129 25.3474 58.6665 28.5962 58.6665 32.0001C58.6665 46.3595 47.0259 58.0001 32.6665 58.0001C18.3071 58.0001 6.6665 46.3595 6.6665 32.0001Z" fill="#55246A"/>
<path d="M12.6665 32.0001C12.6665 20.9544 21.6208 12.0001 32.6665 12.0001C34.6538 12.0001 36.5717 12.2896 38.3813 12.8282C38.9106 12.9857 39.4674 12.6843 39.625 12.155C39.7825 11.6256 39.4811 11.0688 38.9518 10.9113C36.959 10.3182 34.849 10.0001 32.6665 10.0001C20.5162 10.0001 10.6665 19.8498 10.6665 32.0001C10.6665 44.1503 20.5162 54.0001 32.6665 54.0001C44.8168 54.0001 54.6665 44.1503 54.6665 32.0001C54.6665 29.8175 54.3484 27.7075 53.7553 25.7148C53.5978 25.1855 53.041 24.8841 52.5116 25.0416C51.9823 25.1992 51.6809 25.756 51.8384 26.2853C52.377 28.0949 52.6665 30.0128 52.6665 32.0001C52.6665 43.0458 43.7122 52.0001 32.6665 52.0001C21.6208 52.0001 12.6665 43.0458 12.6665 32.0001Z" fill="#55246A"/>
<path d="M32.6665 18.0001C24.9345 18.0001 18.6665 24.2681 18.6665 32.0001C18.6665 39.7321 24.9345 46.0001 32.6665 46.0001C40.3985 46.0001 46.6665 39.7321 46.6665 32.0001C46.6665 30.0071 46.2507 28.114 45.502 26.4004C45.2809 25.8944 45.5119 25.3048 46.018 25.0837C46.5241 24.8626 47.1136 25.0936 47.3347 25.5997C48.1916 27.561 48.6665 29.7264 48.6665 32.0001C48.6665 40.8366 41.5031 48.0001 32.6665 48.0001C23.8299 48.0001 16.6665 40.8366 16.6665 32.0001C16.6665 23.1635 23.8299 16.0001 32.6665 16.0001C34.9402 16.0001 37.1056 16.4749 39.0669 17.3319C39.573 17.553 39.804 18.1425 39.5829 18.6486C39.3617 19.1547 38.7722 19.3857 38.2661 19.1646C36.5526 18.4159 34.6594 18.0001 32.6665 18.0001Z" fill="#55246A"/>
<path d="M24.6665 32.0001C24.6665 27.5818 28.2482 24.0001 32.6665 24.0001C33.2789 24.0001 33.8741 24.0687 34.4452 24.1983C34.9838 24.3205 35.5195 23.983 35.6417 23.4444C35.7639 22.9058 35.4264 22.3701 34.8878 22.2479C34.1725 22.0856 33.4289 22.0001 32.6665 22.0001C27.1437 22.0001 22.6665 26.4772 22.6665 32.0001C22.6665 37.5229 27.1437 42.0001 32.6665 42.0001C38.1894 42.0001 42.6665 37.5229 42.6665 32.0001C42.6665 31.6253 42.6458 31.255 42.6055 30.8902C42.5448 30.3413 42.0506 29.9454 41.5017 30.0061C40.9528 30.0668 40.5569 30.561 40.6176 31.11C40.6499 31.4019 40.6665 31.6988 40.6665 32.0001C40.6665 36.4184 37.0848 40.0001 32.6665 40.0001C28.2482 40.0001 24.6665 36.4184 24.6665 32.0001Z" fill="#55246A"/>
</svg>
