<svg width="65" height="64" viewBox="0 0 65 64" fill="none" xmlns="http://www.w3.org/2000/svg">
<path fill-rule="evenodd" clip-rule="evenodd" d="M19.867 25C19.6017 25 19.3474 25.1054 19.1598 25.2929C18.9723 25.4804 18.867 25.7348 18.867 26V40.1789H15.667C15.1147 40.1789 14.667 40.6266 14.667 41.1789C14.667 41.7311 15.1147 42.1789 15.667 42.1789H18.867V46C18.867 46.5523 19.3147 47 19.867 47C20.4192 47 20.867 46.5523 20.867 46V42.1789H30.067C30.6193 42.1789 31.067 41.7311 31.067 41.1789C31.067 40.6266 30.6193 40.1789 30.067 40.1789H20.867V37.9629C22.8062 37.9384 25.1562 37.8102 27.1421 37.1854C28.3233 36.8138 29.456 36.2433 30.2998 35.3429C31.166 34.4186 31.667 33.2101 31.667 31.7052C31.667 30.2016 31.1676 28.9763 30.3183 28.0187C29.4874 27.0818 28.3671 26.4504 27.1852 26.0186C24.837 25.1606 21.9894 25 19.867 25ZM26.5419 35.2776C24.8418 35.8124 22.7521 35.9368 20.867 35.9624V27.0135C22.7252 27.0652 24.8083 27.2794 26.4988 27.8971C27.4919 28.26 28.2841 28.7391 28.8219 29.3457C29.3414 29.9314 29.667 30.6825 29.667 31.7052C29.667 32.7266 29.3429 33.4391 28.8405 33.9753C28.3155 34.5355 27.5357 34.965 26.5419 35.2776Z" fill="#55246A"/>
<path d="M21.667 16C21.667 15.4477 22.1147 15 22.667 15H42.667C43.2193 15 43.667 15.4477 43.667 16C43.667 16.5523 43.2193 17 42.667 17H22.667C22.1147 17 21.667 16.5523 21.667 16Z" fill="#55246A"/>
<path d="M36.667 28C36.1147 28 35.667 28.4477 35.667 29C35.667 29.5523 36.1147 30 36.667 30H48.667C49.2193 30 49.667 29.5523 49.667 29C49.667 28.4477 49.2193 28 48.667 28H36.667Z" fill="#55246A"/>
<path d="M35.667 37C35.667 36.4477 36.1147 36 36.667 36H48.667C49.2193 36 49.667 36.4477 49.667 37C49.667 37.5523 49.2193 38 48.667 38H36.667C36.1147 38 35.667 37.5523 35.667 37Z" fill="#55246A"/>
<path d="M36.667 44C36.1147 44 35.667 44.4477 35.667 45C35.667 45.5523 36.1147 46 36.667 46H48.667C49.2193 46 49.667 45.5523 49.667 45C49.667 44.4477 49.2193 44 48.667 44H36.667Z" fill="#55246A"/>
<path fill-rule="evenodd" clip-rule="evenodd" d="M12.1631 4.13176C11.8536 3.9549 11.4734 3.95617 11.1651 4.13509C10.8568 4.31401 10.667 4.64353 10.667 5V59C10.667 59.3565 10.8568 59.686 11.1651 59.8649C11.4734 60.0438 11.8536 60.0451 12.1631 59.8682L16.917 57.1518L21.6709 59.8682C21.9783 60.0439 22.3557 60.0439 22.6631 59.8682L27.417 57.1518L32.1709 59.8682C32.4783 60.0439 32.8557 60.0439 33.1631 59.8682L37.917 57.1518L42.6709 59.8682C42.9783 60.0439 43.3557 60.0439 43.6631 59.8682L48.417 57.1518L53.1709 59.8682C53.4804 60.0451 53.8606 60.0438 54.1689 59.8649C54.4772 59.686 54.667 59.3565 54.667 59V5C54.667 4.64353 54.4772 4.31401 54.1689 4.13509C53.8606 3.95617 53.4804 3.9549 53.1709 4.13176L48.417 6.84825L43.6631 4.13176C43.3557 3.95608 42.9783 3.95608 42.6709 4.13176L37.917 6.84825L33.1631 4.13176C32.8557 3.95608 32.4783 3.95608 32.1709 4.13176L27.417 6.84825L22.6631 4.13176C22.3557 3.95608 21.9783 3.95608 21.6709 4.13176L16.917 6.84825L12.1631 4.13176ZM12.667 57.2768V6.72318L16.4209 8.86824C16.7283 9.04392 17.1057 9.04392 17.4131 8.86824L22.167 6.15175L26.9209 8.86824C27.2283 9.04392 27.6057 9.04392 27.9131 8.86824L32.667 6.15175L37.4209 8.86824C37.7283 9.04392 38.1057 9.04392 38.4131 8.86824L43.167 6.15175L47.9209 8.86824C48.2283 9.04392 48.6057 9.04392 48.9131 8.86824L52.667 6.72318V57.2768L48.9131 55.1318C48.6057 54.9561 48.2283 54.9561 47.9209 55.1318L43.167 57.8482L38.4131 55.1318C38.1057 54.9561 37.7283 54.9561 37.4209 55.1318L32.667 57.8482L27.9131 55.1318C27.6057 54.9561 27.2283 54.9561 26.9209 55.1318L22.167 57.8482L17.4131 55.1318C17.1057 54.9561 16.7283 54.9561 16.4209 55.1318L12.667 57.2768Z" fill="#55246A"/>
</svg>
