<svg width="65" height="64" viewBox="0 0 65 64" fill="none" xmlns="http://www.w3.org/2000/svg">
<path fill-rule="evenodd" clip-rule="evenodd" d="M33.3333 31.126V22C33.3333 21.4477 32.8855 21 32.3333 21C31.781 21 31.3333 21.4477 31.3333 22V31.126C29.608 31.5701 28.3333 33.1362 28.3333 35C28.3333 37.2091 30.1241 39 32.3333 39C34.5424 39 36.3333 37.2091 36.3333 35C36.3333 33.1362 35.0585 31.5701 33.3333 31.126ZM32.3333 33C31.2287 33 30.3333 33.8954 30.3333 35C30.3333 36.1046 31.2287 37 32.3333 37C33.4378 37 34.3333 36.1046 34.3333 35C34.3333 33.8954 33.4378 33 32.3333 33Z" fill="#F7A600"/>
<path fill-rule="evenodd" clip-rule="evenodd" d="M31.3333 10L31.3334 10.0196C28.164 10.1443 25.1462 10.859 22.3868 12.0569L20.9493 9.56696C20.6731 9.08867 20.0615 8.9248 19.5833 9.20094C19.105 9.47708 18.9411 10.0887 19.2172 10.567L20.5809 12.929C18.3973 14.0942 16.4068 15.5739 14.6701 17.3078L14.6554 17.3222L14.641 17.3369C10.1255 21.8598 7.33325 28.1038 7.33325 35C7.33325 41.8979 10.1269 48.1434 14.6446 52.6666L14.6554 52.6777L14.6665 52.6886C19.1897 57.2063 25.4352 60 32.3333 60C39.2333 60 45.4805 57.2046 50.0041 52.6845L50.011 52.6777L50.0177 52.6708C54.5378 48.1473 57.3333 41.9001 57.3333 35C57.3333 28.0999 54.5378 21.8526 50.0176 17.3291L50.011 17.3223L50.0042 17.3156C48.2657 15.5784 46.2725 14.0959 44.0856 12.929L45.4493 10.567C45.7254 10.0887 45.5615 9.47708 45.0833 9.20094C44.605 8.92479 43.9934 9.08867 43.7172 9.56696L42.2797 12.0569C39.5203 10.859 36.5025 10.1443 33.3331 10.0196L33.3333 10V6H36.3333C36.8855 6 37.3333 5.55228 37.3333 5C37.3333 4.44772 36.8855 4 36.3333 4H28.3333C27.781 4 27.3333 4.44772 27.3333 5C27.3333 5.55228 27.781 6 28.3333 6H31.3333V10ZM15.378 19.4589C11.8341 23.3232 9.59406 28.4025 9.3546 34H13.3333C13.8855 34 14.3333 34.4477 14.3333 35C14.3333 35.5523 13.8855 36 13.3333 36H9.3546C9.59406 41.5975 11.8341 46.6768 15.3779 50.541L18.191 47.7279C18.5815 47.3374 19.2147 47.3374 19.6052 47.7279C19.9957 48.1185 19.9957 48.7516 19.6052 49.1422L16.7921 51.9552C20.6564 55.4991 25.7357 57.7392 31.3333 57.9787V54C31.3333 53.4477 31.781 53 32.3333 53C32.8855 53 33.3333 53.4477 33.3333 54V57.9787C38.9308 57.7392 44.0101 55.4991 47.8743 51.9553L45.0612 49.1422C44.6707 48.7516 44.6707 48.1185 45.0612 47.728C45.4517 47.3374 46.0849 47.3374 46.4754 47.728L49.2885 50.5411C52.8324 46.6768 55.0724 41.5975 55.3119 36H51.3333C50.781 36 50.3333 35.5523 50.3333 35C50.3333 34.4477 50.781 34 51.3333 34H55.3119C55.0724 28.4025 52.8324 23.3232 49.2885 19.4589L46.4754 22.272C46.0849 22.6626 45.4517 22.6626 45.0612 22.272C44.6707 21.8815 44.6707 21.2484 45.0612 20.8578L47.8743 18.0447C44.0101 14.5009 38.9308 12.2608 33.3333 12.0213V16C33.3333 16.5523 32.8855 17 32.3333 17C31.781 17 31.3333 16.5523 31.3333 16V12.0213C25.7357 12.2608 20.6564 14.5009 16.7922 18.0447L19.6052 20.8577C19.9957 21.2482 19.9957 21.8814 19.6052 22.2719C19.2147 22.6625 18.5815 22.6625 18.191 22.2719L15.378 19.4589Z" fill="#F7A600"/>
</svg>
