<svg width="65" height="64" viewBox="0 0 65 64" fill="none" xmlns="http://www.w3.org/2000/svg">
<path fill-rule="evenodd" clip-rule="evenodd" d="M14.6879 12C14.4227 12 14.1684 12.1054 13.9808 12.2929C13.7933 12.4804 13.6879 12.7348 13.6879 13V21.1073H12.168C11.6157 21.1073 11.168 21.555 11.168 22.1073C11.168 22.6596 11.6157 23.1073 12.168 23.1073H13.6879V25C13.6879 25.5523 14.1357 26 14.6879 26C15.2402 26 15.6879 25.5523 15.6879 25V23.1073H20.808C21.3603 23.1073 21.808 22.6596 21.808 22.1073C21.808 21.555 21.3603 21.1073 20.808 21.1073H15.6879V20.5704C16.7834 20.5423 18.0626 20.4422 19.173 20.0928C19.9193 19.8581 20.6695 19.4875 21.2395 18.8793C21.832 18.247 22.168 17.4227 22.168 16.4231C22.168 15.4248 21.8336 14.5948 21.258 13.9458C20.7009 13.3176 19.963 12.9083 19.2162 12.6354C17.738 12.0954 15.9704 12 14.6879 12ZM18.5729 18.185C17.7237 18.4521 16.6888 18.5411 15.6879 18.5691V14.024C16.6662 14.0731 17.6914 14.2076 18.5298 14.514C19.0879 14.7179 19.4975 14.975 19.7617 15.2728C20.0074 15.5499 20.168 15.9057 20.168 16.4231C20.168 16.9393 20.0089 17.2676 19.7802 17.5117C19.5289 17.7798 19.1317 18.0092 18.5729 18.185Z" fill="#76B82A"/>
<path fill-rule="evenodd" clip-rule="evenodd" d="M4.66797 19C4.66797 12.3726 10.0406 7 16.668 7C23.2954 7 28.668 12.3726 28.668 19C28.668 25.6274 23.2954 31 16.668 31C10.0406 31 4.66797 25.6274 4.66797 19ZM16.668 9C11.1451 9 6.66797 13.4772 6.66797 19C6.66797 24.5228 11.1451 29 16.668 29C22.1908 29 26.668 24.5228 26.668 19C26.668 13.4772 22.1908 9 16.668 9Z" fill="#76B82A"/>
<path d="M31.668 17C31.668 16.4477 32.1157 16 32.668 16H49.668C50.2203 16 50.668 16.4477 50.668 17V27.5858L52.9609 25.2929C53.3514 24.9024 53.9846 24.9024 54.3751 25.2929C54.7656 25.6834 54.7656 26.3166 54.3751 26.7071L50.3751 30.7071C49.9846 31.0976 49.3514 31.0976 48.9609 30.7071L44.9609 26.7071C44.5703 26.3166 44.5703 25.6834 44.9609 25.2929C45.3514 24.9024 45.9846 24.9024 46.3751 25.2929L48.668 27.5858V18H32.668C32.1157 18 31.668 17.5523 31.668 17Z" fill="#76B82A"/>
<path d="M31.668 46C31.668 45.4477 32.1157 45 32.668 45H40.668C41.2203 45 41.668 45.4477 41.668 46C41.668 46.5523 41.2203 47 40.668 47H32.668C32.1157 47 31.668 46.5523 31.668 46Z" fill="#76B82A"/>
<path fill-rule="evenodd" clip-rule="evenodd" d="M28.668 38C28.668 36.3431 30.0111 35 31.668 35H57.668C59.3248 35 60.668 36.3431 60.668 38V54C60.668 55.6569 59.3248 57 57.668 57H31.668C30.0111 57 28.668 55.6569 28.668 54V38ZM30.668 43V54C30.668 54.5523 31.1157 55 31.668 55H57.668C58.2203 55 58.668 54.5523 58.668 54V43H30.668ZM58.668 41H30.668V38C30.668 37.4477 31.1157 37 31.668 37H57.668C58.2203 37 58.668 37.4477 58.668 38V41Z" fill="#76B82A"/>
<path d="M26.668 51C26.668 51.5523 26.2203 52 25.668 52H15.668C15.1157 52 14.668 51.5523 14.668 51L14.668 37.4142L12.3751 39.7071C11.9846 40.0976 11.3514 40.0976 10.9609 39.7071C10.5703 39.3166 10.5703 38.6834 10.9609 38.2929L14.9609 34.2929C15.3514 33.9024 15.9846 33.9024 16.3751 34.2929L20.3751 38.2929C20.7656 38.6834 20.7656 39.3166 20.3751 39.7071C19.9846 40.0976 19.3514 40.0976 18.9609 39.7071L16.668 37.4142L16.668 50H25.668C26.2203 50 26.668 50.4477 26.668 51Z" fill="#76B82A"/>
</svg>
