<svg width="65" height="64" viewBox="0 0 65 64" fill="none" xmlns="http://www.w3.org/2000/svg">
<path fill-rule="evenodd" clip-rule="evenodd" d="M7.33594 8C5.67908 8 4.33594 9.34315 4.33594 11V45C4.33594 46.6569 5.67908 48 7.33594 48H26.3359V50H25.3359C23.1268 50 21.3359 51.7909 21.3359 54V55C21.3359 55.5523 21.7837 56 22.3359 56H42.3359C42.8882 56 43.3359 55.5523 43.3359 55V54C43.3359 51.7909 41.5451 50 39.3359 50H38.3359V48H57.3359C58.9928 48 60.3359 46.6569 60.3359 45V11C60.3359 9.34315 58.9928 8 57.3359 8H7.33594ZM36.3359 50V48H28.3359V50H36.3359ZM27.3359 52H25.3359C24.2314 52 23.3359 52.8954 23.3359 54H41.3359C41.3359 52.8954 40.4405 52 39.3359 52H37.3359H27.3359ZM57.3359 46H37.3359H27.3359H7.33594C6.78365 46 6.33594 45.5523 6.33594 45V11C6.33594 10.4477 6.78365 10 7.33594 10H57.3359C57.8882 10 58.3359 10.4477 58.3359 11V45C58.3359 45.5523 57.8882 46 57.3359 46ZM31.9256 17.0881C32.1865 16.9706 32.4853 16.9706 32.7463 17.0881L44.7463 22.4881C45.1052 22.6496 45.3359 23.0065 45.3359 23.4V27C45.3359 27.5523 44.8882 28 44.3359 28H43.3359V33H44.3359C44.8882 33 45.3359 33.4477 45.3359 34V38C45.3359 38.5523 44.8882 39 44.3359 39H20.3359C19.7837 39 19.3359 38.5523 19.3359 38V34C19.3359 33.4477 19.7837 33 20.3359 33H21.3359V28H20.3359C19.7837 28 19.3359 27.5523 19.3359 27V23.4C19.3359 23.0065 19.5667 22.6496 19.9256 22.4881L31.9256 17.0881ZM39.3359 28H41.3359V33H39.3359V28ZM42.3359 26H38.3359H34.3359H30.3359H26.3359H22.3359H21.3359V24.0466L32.3359 19.0966L43.3359 24.0466V26H42.3359ZM37.3359 28H35.3359V33H37.3359V28ZM31.3359 33V28H33.3359V33H31.3359ZM27.3359 28H29.3359V33H27.3359V28ZM23.3359 28H25.3359V33H23.3359V28ZM38.3359 35H34.3359H30.3359H26.3359H22.3359H21.3359V37H43.3359V35H42.3359H38.3359Z" fill="#76B82A"/>
</svg>
