<svg width="820" height="488" viewBox="0 0 820 488" fill="none" xmlns="http://www.w3.org/2000/svg">
<g clip-path="url(#clip0_4287_420863)">
<g opacity="0.9">
<path opacity="0.1" d="M719 1L618 76V151L719 113.5V1Z" fill="#C6C7E2"/>
<path opacity="0.4" d="M719 1L820 38.5V151L719 113.5V1Z" fill="#C6C7E2"/>
<path opacity="0.4" d="M718 38L820 75.5V113L718 38Z" fill="#C6C7E2"/>
<path opacity="0.4" d="M719 75.5002V113L618 151L719 75.5002Z" fill="#C6C7E2"/>
<path opacity="0.2" fill-rule="evenodd" clip-rule="evenodd" d="M719.174 0.531316L718.92 0.43689L718.702 0.598624L668.335 38.0001H618H617.5V38.5001V75.5001V75.7486V76.0001V76.5001V113.5V114V151H617.92L618.174 151.468L719 114.033L819.826 151.468L820.499 151H820.5V38.5V38.1523L820.5 38.0001H820.09L719.174 0.531316ZM817.217 38.0001L719.08 1.56321L670.012 38.0001H718.5H719H719.5H817.217ZM666.988 39.0001H618.5V75.006L666.988 39.0001ZM619.512 75.5001L668.665 39.0001H718.5V75.5001H619.512ZM618.5 76.5001V113H668.334L717.488 76.5001H618.5ZM618.5 114V150.006L666.988 114H618.5ZM719.5 112.999L818.487 113L769.335 76.5001H719.5V112.999ZM819.5 150.281L721.785 114H819.5V150.281ZM718.5 113V76.9941L670.012 113H718.5ZM668.665 114H716.216L621.114 149.31L668.665 114ZM719.5 75.006V75.5001H767.988L719.5 39.4941V75.006ZM819.5 76.5001V112.506L771.012 76.5001H819.5ZM817.217 75.5001H769.665L722.114 40.1895L817.217 75.5001ZM819.5 39.0001V75.2811L721.783 39.0001H819.5Z" fill="#898BC2"/>
</g>
<g opacity="0.7">
<g opacity="0.8">
<path opacity="0.1" d="M517 113L416 188V263L517 225.5V113Z" fill="#C6C7E2"/>
<path opacity="0.4" d="M517 113L618 150.5V263L517 225.5V113Z" fill="#C6C7E2"/>
<path opacity="0.1" d="M516 150L618 187.5V225L516 150Z" fill="#C6C7E2"/>
<path opacity="0.2" d="M517 187.5V225L416 263L517 187.5Z" fill="#C6C7E2"/>
<path opacity="0.2" fill-rule="evenodd" clip-rule="evenodd" d="M517.174 112.531L516.92 112.437L516.702 112.599L466.335 150H416H415.5V150.5V187.5V187.749V188V188.5V225.5V226V263H415.92L416.174 263.468L517 226.033L617.826 263.468L618.499 263H618.5V150.5V150.152L618.5 150H618.09L517.174 112.531ZM615.217 150L517.08 113.563L468.012 150H516.5H517H517.5H615.217ZM464.988 151H416.5V187.006L464.988 151ZM417.512 187.5L466.665 151H516.5V187.5H417.512ZM416.5 188.5V225H466.334L515.488 188.5H416.5ZM416.5 226V262.006L464.988 226H416.5ZM517.5 224.999L616.487 225L567.335 188.5H517.5V224.999ZM617.5 262.281L519.785 226H617.5V262.281ZM516.5 225V188.994L468.012 225H516.5ZM466.665 226H514.216L419.114 261.31L466.665 226ZM517.5 187.006V187.5H565.988L517.5 151.494V187.006ZM617.5 188.5V224.506L569.012 188.5H617.5ZM615.217 187.5H567.665L520.114 152.19L615.217 187.5ZM617.5 151V187.281L519.783 151H617.5Z" fill="#898BC2"/>
</g>
<path opacity="0.1" d="M719 113L618 188V263L719 225.5V113Z" fill="#C6C7E2"/>
<path opacity="0.4" d="M719 113L820 150.5V263L719 225.5V113Z" fill="#C6C7E2"/>
<path opacity="0.4" d="M718 150L820 187.5V225L718 150Z" fill="#C6C7E2"/>
<path opacity="0.4" d="M719 187.5V225L618 263L719 187.5Z" fill="#C6C7E2"/>
<path opacity="0.2" fill-rule="evenodd" clip-rule="evenodd" d="M719.174 112.531L718.92 112.437L718.702 112.599L668.335 150H618H617.5V150.5V187.5V187.749V188V188.5V225.5V226V263H617.92L618.174 263.468L719 226.033L819.826 263.468L820.499 263H820.5V150.5V150.152L820.5 150H820.09L719.174 112.531ZM817.217 150L719.08 113.563L670.012 150H718.5H719H719.5H817.217ZM666.988 151H618.5V187.006L666.988 151ZM619.512 187.5L668.665 151H718.5V187.5H619.512ZM618.5 188.5V225H668.334L717.488 188.5H618.5ZM618.5 226V262.006L666.988 226H618.5ZM719.5 224.999L818.487 225L769.335 188.5H719.5V224.999ZM819.5 262.281L721.785 226H819.5V262.281ZM718.5 225V188.994L670.012 225H718.5ZM668.665 226H716.216L621.114 261.31L668.665 226ZM719.5 187.006V187.5H767.988L719.5 151.494V187.006ZM819.5 188.5V224.506L771.012 188.5H819.5ZM817.217 187.5H769.665L722.114 152.19L817.217 187.5ZM819.5 151V187.281L721.783 151H819.5Z" fill="#898BC2"/>
</g>
<g opacity="0.5">
<g opacity="0.8">
<path opacity="0.1" d="M315 225L214 300V375L315 337.5V225Z" fill="#C6C7E2"/>
<path opacity="0.4" d="M315 225L416 262.5V375L315 337.5V225Z" fill="#C6C7E2"/>
<path opacity="0.4" d="M314 262L416 299.5V337L314 262Z" fill="#C6C7E2"/>
<path opacity="0.4" d="M315 299.5V337L214 375L315 299.5Z" fill="#C6C7E2"/>
<path opacity="0.2" fill-rule="evenodd" clip-rule="evenodd" d="M315.174 224.531L314.92 224.437L314.702 224.599L264.335 262H214H213.5V262.5V299.5V299.749V300V300.5V337.5V338V375H213.92L214.174 375.468L315 338.033L415.826 375.468L416.499 375H416.5V262.5V262.152L416.5 262H416.09L315.174 224.531ZM413.217 262L315.08 225.563L266.012 262H314.5H315H315.5H413.217ZM262.988 263H214.5V299.006L262.988 263ZM215.512 299.5L264.665 263H314.5V299.5H215.512ZM214.5 300.5V337H264.334L313.488 300.5H214.5ZM214.5 338V374.006L262.988 338H214.5ZM315.5 336.999L414.487 337L365.335 300.5H315.5V336.999ZM415.5 374.281L317.785 338H415.5V374.281ZM314.5 337V300.994L266.012 337H314.5ZM264.665 338H312.216L217.114 373.31L264.665 338ZM315.5 299.006V299.5H363.988L315.5 263.494V299.006ZM415.5 300.5V336.506L367.012 300.5H415.5ZM413.217 299.5H365.665L318.114 264.19L413.217 299.5ZM415.5 263V299.281L317.783 263H415.5Z" fill="#898BC2"/>
</g>
<path opacity="0.1" d="M517 225L416 300V375L517 337.5V225Z" fill="#C6C7E2"/>
<path opacity="0.4" d="M517 225L618 262.5V375L517 337.5V225Z" fill="#C6C7E2"/>
<path opacity="0.4" d="M516 262L618 299.5V337L516 262Z" fill="#C6C7E2"/>
<path opacity="0.4" d="M517 299.5V337L416 375L517 299.5Z" fill="#C6C7E2"/>
<path opacity="0.2" fill-rule="evenodd" clip-rule="evenodd" d="M517.174 224.531L516.92 224.437L516.702 224.599L466.335 262H416H415.5V262.5V299.5V299.749V300V300.5V337.5V338V375H415.92L416.174 375.468L517 338.033L617.826 375.468L618.499 375H618.5V262.5V262.152L618.5 262H618.09L517.174 224.531ZM615.217 262L517.08 225.563L468.012 262H516.5H517H517.5H615.217ZM464.988 263H416.5V299.006L464.988 263ZM417.512 299.5L466.665 263H516.5V299.5H417.512ZM416.5 300.5V337H466.334L515.488 300.5H416.5ZM416.5 338V374.006L464.988 338H416.5ZM517.5 336.999L616.487 337L567.335 300.5H517.5V336.999ZM617.5 374.281L519.785 338H617.5V374.281ZM516.5 337V300.994L468.012 337H516.5ZM466.665 338H514.216L419.114 373.31L466.665 338ZM517.5 299.006V299.5H565.988L517.5 263.494V299.006ZM617.5 300.5V336.506L569.012 300.5H617.5ZM615.217 299.5H567.665L520.114 264.19L615.217 299.5ZM617.5 263V299.281L519.783 263H617.5Z" fill="#898BC2"/>
<path opacity="0.1" d="M719 225L618 300V375L719 337.5V225Z" fill="#C6C7E2"/>
<path opacity="0.4" d="M719 225L820 262.5V375L719 337.5V225Z" fill="#C6C7E2"/>
<path opacity="0.4" d="M718 262L820 299.5V337L718 262Z" fill="#C6C7E2"/>
<path opacity="0.4" d="M719 299.5V337L618 375L719 299.5Z" fill="#C6C7E2"/>
<path opacity="0.2" fill-rule="evenodd" clip-rule="evenodd" d="M719.174 224.531L718.92 224.437L718.702 224.599L668.335 262H618H617.5V262.5V299.5V299.749V300V300.5V337.5V338V375H617.92L618.174 375.468L719 338.033L819.826 375.468L820.499 375H820.5V262.5V262.152L820.5 262H820.09L719.174 224.531ZM817.217 262L719.08 225.563L670.012 262H718.5H719H719.5H817.217ZM666.988 263H618.5V299.006L666.988 263ZM619.512 299.5L668.665 263H718.5V299.5H619.512ZM618.5 300.5V337H668.334L717.488 300.5H618.5ZM618.5 338V374.006L666.988 338H618.5ZM719.5 336.999L818.487 337L769.335 300.5H719.5V336.999ZM819.5 374.281L721.785 338H819.5V374.281ZM718.5 337V300.994L670.012 337H718.5ZM668.665 338H716.216L621.114 373.31L668.665 338ZM719.5 299.006V299.5H767.988L719.5 263.494V299.006ZM819.5 300.5V336.506L771.012 300.5H819.5ZM817.217 299.5H769.665L722.114 264.19L817.217 299.5ZM819.5 263V299.281L721.783 263H819.5Z" fill="#898BC2"/>
</g>
<g opacity="0.4">
<g opacity="0.8">
<path opacity="0.1" d="M113 337L12 412V487L113 449.5V337Z" fill="#C6C7E2"/>
<path opacity="0.4" d="M113 337L214 374.5V487L113 449.5V337Z" fill="#C6C7E2"/>
<path opacity="0.4" d="M112 374L214 411.5V449L112 374Z" fill="#C6C7E2"/>
<path opacity="0.4" d="M113 411.5V449L12 487L113 411.5Z" fill="#C6C7E2"/>
<path opacity="0.2" fill-rule="evenodd" clip-rule="evenodd" d="M113.174 336.531L112.92 336.437L112.702 336.599L62.3347 374H12H11.5V374.5V411.5V411.749V412V412.5V449.5V450V487H11.9199L12.174 487.468L113 450.033L213.826 487.468L214.499 487H214.5V374.5V374.152L214.5 374H214.09L113.174 336.531ZM211.217 374L113.08 337.563L64.012 374H112.5H113H113.5H211.217ZM60.988 375H12.5V411.006L60.988 375ZM13.512 411.5L62.6654 375H112.5V411.5H13.512ZM12.5 412.5V449H62.3344L111.488 412.5H12.5ZM12.5 450V486.006L60.9877 450H12.5ZM113.5 448.999L212.487 449L163.335 412.5H113.5V448.999ZM213.5 486.281L115.785 450H213.5V486.281ZM112.5 449V412.994L64.0117 449H112.5ZM62.6651 450H110.216L15.1139 485.31L62.6651 450ZM113.5 411.006V411.5H161.988L113.5 375.494V411.006ZM213.5 412.5V448.506L165.012 412.5H213.5ZM211.217 411.5H163.665L116.114 376.19L211.217 411.5ZM213.5 375V411.281L115.783 375H213.5Z" fill="#898BC2"/>
</g>
<path opacity="0.1" d="M315 337L214 412V487L315 449.5V337Z" fill="#C6C7E2"/>
<path opacity="0.4" d="M315 337L416 374.5V487L315 449.5V337Z" fill="#C6C7E2"/>
<path opacity="0.4" d="M314 374L416 411.5V449L314 374Z" fill="#C6C7E2"/>
<path opacity="0.4" d="M315 411.5V449L214 487L315 411.5Z" fill="#C6C7E2"/>
<path opacity="0.2" fill-rule="evenodd" clip-rule="evenodd" d="M315.174 336.531L314.92 336.437L314.702 336.599L264.335 374H214H213.5V374.5V411.5V411.749V412V412.5V449.5V450V487H213.92L214.174 487.468L315 450.033L415.826 487.468L416.499 487H416.5V374.5V374.152L416.5 374H416.09L315.174 336.531ZM413.217 374L315.08 337.563L266.012 374H314.5H315H315.5H413.217ZM262.988 375H214.5V411.006L262.988 375ZM215.512 411.5L264.665 375H314.5V411.5H215.512ZM214.5 412.5V449H264.334L313.488 412.5H214.5ZM214.5 450V486.006L262.988 450H214.5ZM315.5 448.999L414.487 449L365.335 412.5H315.5V448.999ZM415.5 486.281L317.785 450H415.5V486.281ZM314.5 449V412.994L266.012 449H314.5ZM264.665 450H312.216L217.114 485.31L264.665 450ZM315.5 411.006V411.5H363.988L315.5 375.494V411.006ZM415.5 412.5V448.506L367.012 412.5H415.5ZM413.217 411.5H365.665L318.114 376.19L413.217 411.5ZM415.5 375V411.281L317.783 375H415.5Z" fill="#898BC2"/>
<path opacity="0.1" d="M517 337L416 412V487L517 449.5V337Z" fill="#C6C7E2"/>
<path opacity="0.4" d="M517 337L618 374.5V487L517 449.5V337Z" fill="#C6C7E2"/>
<path opacity="0.4" d="M516 374L618 411.5V449L516 374Z" fill="#C6C7E2"/>
<path opacity="0.4" d="M517 411.5V449L416 487L517 411.5Z" fill="#C6C7E2"/>
<path opacity="0.2" fill-rule="evenodd" clip-rule="evenodd" d="M517.174 336.531L516.92 336.437L516.702 336.599L466.335 374H416H415.5V374.5V411.5V411.749V412V412.5V449.5V450V487H415.92L416.174 487.468L517 450.033L617.826 487.468L618.499 487H618.5V374.5V374.152L618.5 374H618.09L517.174 336.531ZM615.217 374L517.08 337.563L468.012 374H516.5H517H517.5H615.217ZM464.988 375H416.5V411.006L464.988 375ZM417.512 411.5L466.665 375H516.5V411.5H417.512ZM416.5 412.5V449H466.334L515.488 412.5H416.5ZM416.5 450V486.006L464.988 450H416.5ZM517.5 448.999L616.487 449L567.335 412.5H517.5V448.999ZM617.5 486.281L519.785 450H617.5V486.281ZM516.5 449V412.994L468.012 449H516.5ZM466.665 450H514.216L419.114 485.31L466.665 450ZM517.5 411.006V411.5H565.988L517.5 375.494V411.006ZM617.5 412.5V448.506L569.012 412.5H617.5ZM615.217 411.5H567.665L520.114 376.19L615.217 411.5ZM617.5 375V411.281L519.783 375H617.5Z" fill="#898BC2"/>
<path opacity="0.1" d="M719 337L618 412V487L719 449.5V337Z" fill="#C6C7E2"/>
<path opacity="0.4" d="M719 337L820 374.5V487L719 449.5V337Z" fill="#C6C7E2"/>
<path opacity="0.4" d="M718 374L820 411.5V449L718 374Z" fill="#C6C7E2"/>
<path opacity="0.4" d="M719 411.5V449L618 487L719 411.5Z" fill="#C6C7E2"/>
<path opacity="0.2" fill-rule="evenodd" clip-rule="evenodd" d="M719.174 336.531L718.92 336.437L718.702 336.599L668.335 374H618H617.5V374.5V411.5V411.749V412V412.5V449.5V450V487H617.92L618.174 487.468L719 450.033L819.826 487.468L820.499 487H820.5V374.5V374.152L820.5 374H820.09L719.174 336.531ZM817.217 374L719.08 337.563L670.012 374H718.5H719H719.5H817.217ZM666.988 375H618.5V411.006L666.988 375ZM619.512 411.5L668.665 375H718.5V411.5H619.512ZM618.5 412.5V449H668.334L717.488 412.5H618.5ZM618.5 450V486.006L666.988 450H618.5ZM719.5 448.999L818.487 449L769.335 412.5H719.5V448.999ZM819.5 486.281L721.785 450H819.5V486.281ZM718.5 449V412.994L670.012 449H718.5ZM668.665 450H716.216L621.114 485.31L668.665 450ZM719.5 411.006V411.5H767.988L719.5 375.494V411.006ZM819.5 412.5V448.506L771.012 412.5H819.5ZM817.217 411.5H769.665L722.114 376.19L817.217 411.5ZM819.5 375V411.281L721.783 375H819.5Z" fill="#898BC2"/>
</g>
</g>
<defs>
<clipPath id="clip0_4287_420863">
<rect width="820" height="488" fill="white"/>
</clipPath>
</defs>
</svg>
