<svg width="112" height="18" viewBox="0 0 112 18" fill="none" xmlns="http://www.w3.org/2000/svg">
<g clip-path="url(#clip0_6375_37568)">
<path d="M33.8608 14.6644H34.2465V4.06419H33.0412V9.02563L33.1698 12.0567L26.6288 4.08113H26.2109V14.6475H27.4002V9.56749L27.3038 6.67191L33.8608 14.6644ZM43.15 12.0397L44.3231 14.6475H45.5606V14.4781L40.9321 4.03033H40.3857L35.709 14.4781V14.6475H36.9626L38.1357 12.0397H43.15ZM40.6428 6.01151L42.7482 10.956H38.5375L40.6428 6.01151ZM46.1874 11.7688C46.2517 13.9363 48.357 14.8845 50.2213 14.8337C52.0373 14.7829 54.1105 13.9701 54.1105 11.7011C54.1105 9.36429 52.2462 8.97483 50.2534 8.73776C49.032 8.56843 47.5856 8.51763 47.5856 6.94284C47.5856 5.55432 48.9677 5.06325 50.0606 5.02939C51.2016 5.02939 52.5516 5.45272 52.6641 6.79044H53.7891C53.7248 4.74152 51.7641 3.84406 50.0284 3.89486C48.2606 3.89486 46.3803 4.87699 46.3803 6.95977C46.3803 9.07642 48.2124 9.56749 50.0284 9.77069C51.3945 9.97388 52.9052 9.99082 52.9052 11.7011C52.8569 13.242 51.3784 13.6823 50.1891 13.7331C48.9516 13.7331 47.4088 13.1912 47.3285 11.7688H46.1713H46.1874ZM63.8014 14.6475V4.08113H62.5961V8.53456H57.2926V4.08113H56.1033V14.6475H57.2926V9.68602H62.5961V14.6475H63.8014ZM68.1888 11.4132C67.321 11.4132 66.5656 11.4132 65.7139 11.4132C65.6496 16.0698 73.8298 15.9513 73.8298 11.4979C73.8298 8.85629 71.8852 8.58536 69.8924 8.3483C68.9924 8.2467 68.237 8.07737 68.3013 7.2815C68.3817 6.02845 71.0816 5.90991 71.0816 7.31537C71.9495 7.31537 72.6084 7.31537 73.5245 7.31537C73.5887 2.76034 65.7782 2.76034 65.8746 7.31537C65.9067 9.61829 67.3371 10.3972 69.5227 10.5665C70.5192 10.6343 71.3549 10.7528 71.3549 11.4809C71.3549 12.7171 68.221 12.7509 68.221 11.4132H68.1888ZM77.1726 6.48564V14.6475C78.0244 14.6475 78.8601 14.6475 79.7119 14.6475V6.48564H82.1708C82.1708 5.67285 82.1708 4.87699 82.1708 4.06419H74.7137C74.7137 4.86006 74.7137 5.67285 74.7137 6.48564H77.1726ZM93.4366 9.36429C93.4366 2.04914 83.135 2.04914 83.135 9.36429C83.135 16.6964 93.4366 16.6964 93.4366 9.36429ZM85.7868 9.36429C85.7868 5.55432 90.817 5.55432 90.817 9.36429C90.817 13.2081 85.7868 13.2081 85.7868 9.36429ZM101.89 10.8883C104.429 9.07642 103.706 4.08113 99.7687 4.06419C98.3062 4.06419 96.8116 4.06419 95.3652 4.06419C95.3652 7.60324 95.3652 11.1253 95.3652 14.6305C96.2009 14.6305 97.0687 14.6305 97.9366 14.6305V11.5148H99.2705L100.99 14.6305H103.851V14.2411L101.89 10.8883ZM99.7687 9.09336H97.9366C97.9366 8.2467 97.9366 7.34924 97.9366 6.48564C98.5312 6.48564 99.174 6.46871 99.7687 6.48564C101.231 6.50258 101.167 9.09336 99.7687 9.09336ZM111.661 4.06419C109.315 4.06419 107.724 4.06419 105.394 4.06419C105.394 7.56937 105.394 11.1084 105.394 14.6305C107.724 14.6305 109.444 14.6305 111.79 14.6305C111.79 13.8347 111.79 13.0219 111.79 12.226C110.279 12.226 109.427 12.226 107.949 12.226C107.949 11.5995 107.949 10.9899 107.949 10.3633H111.356C111.356 9.56749 111.356 8.75469 111.356 7.95883H107.949V6.46871C109.427 6.46871 110.167 6.46871 111.661 6.46871C111.661 5.65592 111.661 4.84312 111.661 4.04726V4.06419Z" fill="white"/>
<path d="M17.26 0.778762C17.3403 0.643297 17.2439 0.457031 17.0832 0.457031H13.7564C13.5957 0.457031 13.4993 0.626363 13.5797 0.778762L15.235 3.80981C15.3154 3.94527 15.5082 3.94527 15.5886 3.80981L17.26 0.778762Z" fill="#AE2B30"/>
<path d="M13.7398 17.7801C13.6595 17.9156 13.7559 18.1018 13.9166 18.1018H17.2433C17.404 18.1018 17.5005 17.9325 17.4201 17.7801L15.7487 14.7491C15.6684 14.6136 15.4755 14.6136 15.3952 14.7491L13.7237 17.7801H13.7398Z" fill="#AE2B30"/>
<path d="M19.7321 4.26687C19.8928 4.26687 19.9892 4.09754 19.9088 3.94514L18.2374 0.914099C18.1571 0.778634 17.9642 0.778634 17.8839 0.914099L16.2125 3.94514C16.1321 4.08061 16.2285 4.26687 16.3893 4.26687H19.716H19.7321Z" fill="#AE2B30"/>
<path d="M17.8873 8.24633C17.9677 8.3818 18.1605 8.3818 18.2409 8.24633L19.9123 5.21529C19.9927 5.07982 19.8962 4.89355 19.7355 4.89355H16.4088C16.2481 4.89355 16.1517 5.06289 16.232 5.21529L17.9034 8.24633H17.8873Z" fill="#AE2B30"/>
<path d="M22.2399 8.85574C22.4006 8.85574 22.497 8.68641 22.4167 8.53401L20.7453 5.50297C20.6649 5.3675 20.472 5.3675 20.3917 5.50297L18.7203 8.53401C18.6399 8.66948 18.7364 8.85574 18.8971 8.85574H22.2238H22.2399Z" fill="#AE2B30"/>
<path d="M20.4069 12.8352C20.4872 12.9707 20.6801 12.9707 20.7604 12.8352L22.4318 9.80415C22.5122 9.66869 22.4158 9.48242 22.2551 9.48242H18.9283C18.7676 9.48242 18.6712 9.65175 18.7515 9.80415L20.4229 12.8352H20.4069Z" fill="#AE2B30"/>
<path d="M16.232 13.1405C16.1517 13.2759 16.2481 13.4622 16.4088 13.4622H19.7355C19.8962 13.4622 19.9927 13.2929 19.9123 13.1405L18.2409 10.1094C18.1605 9.97395 17.9677 9.97395 17.8873 10.1094L16.2159 13.1405H16.232Z" fill="#AE2B30"/>
<path d="M17.8873 17.4241C17.9677 17.5595 18.1605 17.5595 18.2409 17.4241L19.9123 14.393C19.9927 14.2576 19.8962 14.0713 19.7355 14.0713H16.4088C16.2481 14.0713 16.1517 14.2406 16.232 14.393L17.9034 17.4241H17.8873Z" fill="#AE2B30"/>
<path d="M10.6545 0.592239C10.7348 0.456773 10.6384 0.270508 10.4777 0.270508H7.15098C6.99027 0.270508 6.89384 0.43984 6.9742 0.592239L8.62953 3.62328C8.70988 3.75875 8.90274 3.75875 8.98309 3.62328L10.6545 0.592239Z" fill="#363789"/>
<path d="M6.89216 17.7625C6.81181 17.898 6.90824 18.0843 7.06895 18.0843H10.3957C10.5564 18.0843 10.6528 17.9149 10.5725 17.7625L8.90106 14.7315C8.8207 14.596 8.62785 14.596 8.54749 14.7315L6.87609 17.7625H6.89216Z" fill="#363789"/>
<path d="M13.0797 4.25027C13.2404 4.25027 13.3369 4.08094 13.2565 3.92854L11.5851 0.897498C11.5047 0.762032 11.3119 0.762032 11.2315 0.897498L9.56013 3.92854C9.47978 4.06401 9.5762 4.25027 9.73692 4.25027H13.0636H13.0797Z" fill="#363789"/>
<path d="M11.2311 8.21215C11.3114 8.34762 11.5043 8.34762 11.5847 8.21215L13.2561 5.18111C13.3364 5.04564 13.24 4.85938 13.0793 4.85938H9.75254C9.59183 4.85938 9.4954 5.02871 9.57576 5.18111L11.2472 8.21215H11.2311Z" fill="#363789"/>
<path d="M15.5875 8.83914C15.7482 8.83914 15.8447 8.66981 15.7643 8.51741L14.0929 5.48636C14.0126 5.3509 13.8197 5.3509 13.7393 5.48636L12.0679 8.51741C11.9876 8.65287 12.084 8.83914 12.2447 8.83914H15.5715H15.5875Z" fill="#363789"/>
<path d="M13.7545 12.801C13.8349 12.9365 14.0277 12.9365 14.1081 12.801L15.7795 9.76997C15.8598 9.63451 15.7634 9.44824 15.6027 9.44824H12.276C12.1153 9.44824 12.0188 9.61757 12.0992 9.76997L13.7706 12.801H13.7545Z" fill="#363789"/>
<path d="M9.57576 13.1063C9.4954 13.2417 9.59183 13.428 9.75254 13.428H13.0793C13.24 13.428 13.3364 13.2587 13.2561 13.1063L11.5847 10.0752C11.5043 9.93977 11.3114 9.93977 11.2311 10.0752L9.55969 13.1063H9.57576Z" fill="#363789"/>
<path d="M11.2311 17.3899C11.3114 17.5254 11.5043 17.5254 11.5847 17.3899L13.2561 14.3588C13.3364 14.2234 13.24 14.0371 13.0793 14.0371H9.75254C9.59183 14.0371 9.4954 14.2064 9.57576 14.3588L11.2472 17.3899H11.2311Z" fill="#363789"/>
<path d="M4.25606 0.474075C4.33641 0.338609 4.23999 0.152344 4.07927 0.152344H0.752541C0.591829 0.152344 0.495402 0.321676 0.575758 0.474075L2.23109 3.50512C2.31144 3.64058 2.5043 3.64058 2.58465 3.50512L4.25606 0.474075Z" fill="#D9DADA"/>
<path d="M0.255445 17.6444C0.17509 17.7798 0.271517 17.9661 0.432228 17.9661H3.75896C3.91967 17.9661 4.0161 17.7968 3.93574 17.6444L2.26434 14.6133C2.18399 14.4779 1.99113 14.4779 1.91078 14.6133L0.239374 17.6444H0.255445Z" fill="#D9DADA"/>
<path d="M6.77894 4.13211C6.93965 4.13211 7.03608 3.96278 6.95572 3.81038L5.28432 0.779334C5.20396 0.643868 5.01111 0.643868 4.93075 0.779334L3.25935 3.81038C3.179 3.94584 3.27542 4.13211 3.43613 4.13211H6.76287H6.77894Z" fill="#D9DADA"/>
<path d="M4.59437 8.09399C4.67473 8.22945 4.86758 8.22945 4.94794 8.09399L6.61934 5.06294C6.69969 4.92748 6.60327 4.74121 6.44255 4.74121H3.11582C2.95511 4.74121 2.85868 4.91054 2.93904 5.06294L4.61044 8.09399H4.59437Z" fill="#D9DADA"/>
<path d="M8.95081 8.72098C9.11153 8.72098 9.20795 8.55164 9.1276 8.39925L7.45619 5.3682C7.37584 5.23274 7.18298 5.23274 7.10263 5.3682L5.43123 8.39925C5.35087 8.53471 5.4473 8.72098 5.60801 8.72098H8.93474H8.95081Z" fill="#D9DADA"/>
<path d="M7.11781 12.6829C7.19816 12.8183 7.39102 12.8183 7.47137 12.6829L9.14278 9.65181C9.22313 9.51634 9.1267 9.33008 8.96599 9.33008H5.63926C5.47855 9.33008 5.38212 9.49941 5.46248 9.65181L7.13388 12.6829H7.11781Z" fill="#D9DADA"/>
<path d="M2.93904 12.9881C2.85868 13.1236 2.95511 13.3098 3.11582 13.3098H6.44255C6.60327 13.3098 6.69969 13.1405 6.61934 12.9881L4.94794 9.95707C4.86758 9.8216 4.67473 9.8216 4.59437 9.95707L2.92297 12.9881H2.93904Z" fill="#D9DADA"/>
<path d="M4.59437 17.2717C4.67473 17.4072 4.86758 17.4072 4.94794 17.2717L6.61934 14.2407C6.69969 14.1052 6.60327 13.9189 6.44255 13.9189H3.11582C2.95511 13.9189 2.85868 14.0883 2.93904 14.2407L4.61044 17.2717H4.59437Z" fill="#D9DADA"/>
</g>
<defs>
<clipPath id="clip0_6375_37568">
<rect width="112" height="18" fill="white"/>
</clipPath>
</defs>
</svg>
