<svg xmlns="http://www.w3.org/2000/svg" width="128" height="20" viewBox="0 0 128 20" fill="none">
    <g clip-path="url(#clip0_2085_2680)">
        <path d="M38.6993 16.2935H39.1401V4.51556H37.7625V10.0283L37.9095 13.3961L30.4341 4.53437H29.9565V16.2747H31.3157V10.6303L31.2055 7.41302L38.6993 16.2935ZM49.3154 13.3773L50.6562 16.2747H52.0705V16.0866L46.7808 4.47793H46.1563L40.8115 16.0866V16.2747H42.2441L43.5849 13.3773H49.3154ZM46.4502 6.67924L48.8562 12.1731H44.0441L46.4502 6.67924ZM52.7868 13.0762C52.8603 15.4845 55.2663 16.5381 57.3969 16.4817C59.4724 16.4252 61.8417 15.5221 61.8417 13.001C61.8417 10.4045 59.7112 9.97181 57.4337 9.70841C56.0378 9.52026 54.3847 9.46382 54.3847 7.71405C54.3847 6.17125 55.9643 5.62562 57.2133 5.58799C58.5173 5.58799 60.0601 6.05836 60.1887 7.54472H61.4744C61.4009 5.26814 59.1602 4.27096 57.1765 4.32741C55.1561 4.32741 53.0072 5.41866 53.0072 7.73287C53.0072 10.0847 55.101 10.6303 57.1765 10.8561C58.7377 11.0819 60.4642 11.1007 60.4642 13.001C60.4091 14.7131 58.7193 15.2023 57.3602 15.2587C55.9459 15.2587 54.1827 14.6567 54.0909 13.0762H52.7684H52.7868ZM72.9171 16.2747V4.53437H71.5396V9.48263H65.4784V4.53437H64.1193V16.2747H65.4784V10.762H71.5396V16.2747H72.9171ZM77.9313 12.6811C76.9395 12.6811 76.0762 12.6811 75.1028 12.6811C75.0293 17.8552 84.3781 17.7235 84.3781 12.7752C84.3781 9.84011 82.1557 9.53907 79.8782 9.27567C78.8496 9.16278 77.9864 8.97463 78.0599 8.09034C78.1517 6.69806 81.2374 6.56635 81.2374 8.12797C82.2292 8.12797 82.9822 8.12797 84.0291 8.12797C84.1026 3.06683 75.1762 3.06683 75.2864 8.12797C75.3232 10.6868 76.9578 11.5522 79.4558 11.7404C80.5945 11.8156 81.5496 11.9474 81.5496 12.7564C81.5496 14.1299 77.968 14.1675 77.968 12.6811H77.9313ZM88.1985 7.20605V16.2747C89.1719 16.2747 90.127 16.2747 91.1005 16.2747V7.20605H93.9106C93.9106 6.30295 93.9106 5.41866 93.9106 4.51556H85.3883C85.3883 5.39985 85.3883 6.30295 85.3883 7.20605H88.1985ZM106.786 10.4045C106.786 2.27661 95.0126 2.27661 95.0126 10.4045C95.0126 18.5513 106.786 18.5513 106.786 10.4045ZM98.0432 10.4045C98.0432 6.17125 103.792 6.17125 103.792 10.4045C103.792 14.6755 98.0432 14.6755 98.0432 10.4045ZM116.447 12.0979C119.349 10.0847 118.522 4.53437 114.023 4.51556C112.351 4.51556 110.643 4.51556 108.99 4.51556C108.99 8.44782 108.99 12.3613 108.99 16.2559C109.945 16.2559 110.937 16.2559 111.929 16.2559V12.794H113.453L115.418 16.2559H118.688V15.8232L116.447 12.0979ZM114.023 10.1035H111.929C111.929 9.16278 111.929 8.1656 111.929 7.20605C112.608 7.20605 113.343 7.18724 114.023 7.20605C115.694 7.22487 115.62 10.1035 114.023 10.1035ZM127.614 4.51556C124.933 4.51556 123.114 4.51556 120.451 4.51556C120.451 8.41019 120.451 12.3425 120.451 16.2559C123.114 16.2559 125.08 16.2559 127.761 16.2559C127.761 15.3716 127.761 14.4685 127.761 13.5842C126.035 13.5842 125.061 13.5842 123.371 13.5842C123.371 12.8881 123.371 12.2108 123.371 11.5146H127.265C127.265 10.6303 127.265 9.72722 127.265 8.84293H123.371V7.18724C125.061 7.18724 125.906 7.18724 127.614 7.18724C127.614 6.28413 127.614 5.38103 127.614 4.49674V4.51556Z" fill="#434242"/>
        <path d="M19.7261 0.865291C19.818 0.714774 19.7078 0.507812 19.5241 0.507812H15.7221C15.5384 0.507812 15.4282 0.695959 15.5201 0.865291L17.4119 4.23312C17.5037 4.38364 17.7241 4.38364 17.816 4.23312L19.7261 0.865291Z" fill="#AE2B30"/>
        <path d="M15.7037 19.7561C15.6118 19.9066 15.722 20.1136 15.9057 20.1136H19.7077C19.8914 20.1136 20.0016 19.9254 19.9097 19.7561L17.9995 16.3883C17.9077 16.2378 17.6873 16.2378 17.5955 16.3883L15.6853 19.7561H15.7037Z" fill="#AE2B30"/>
        <path d="M22.5547 4.74249C22.7383 4.74249 22.8485 4.55434 22.7567 4.38501L20.8465 1.01718C20.7547 0.866668 20.5343 0.866668 20.4425 1.01718L18.5323 4.38501C18.4404 4.53553 18.5506 4.74249 18.7343 4.74249H22.5363H22.5547Z" fill="#AE2B30"/>
        <path d="M20.4424 9.16281C20.5342 9.31332 20.7546 9.31332 20.8465 9.16281L22.7566 5.79498C22.8485 5.64446 22.7383 5.4375 22.5546 5.4375H18.7526C18.569 5.4375 18.4588 5.62565 18.5506 5.79498L20.4608 9.16281H20.4424Z" fill="#AE2B30"/>
        <path d="M25.4199 9.84015C25.6036 9.84015 25.7138 9.652 25.6219 9.48267L23.7118 6.11484C23.6199 5.96432 23.3995 5.96432 23.3077 6.11484L21.3975 9.48267C21.3057 9.63319 21.4159 9.84015 21.5995 9.84015H25.4015H25.4199Z" fill="#AE2B30"/>
        <path d="M23.3259 14.2624C23.4178 14.4129 23.6382 14.4129 23.73 14.2624L25.6402 10.8946C25.732 10.7441 25.6218 10.5371 25.4382 10.5371H21.6362C21.4525 10.5371 21.3423 10.7253 21.4341 10.8946L23.3443 14.2624H23.3259Z" fill="#AE2B30"/>
        <path d="M18.5506 14.5999C18.4588 14.7504 18.569 14.9573 18.7526 14.9573H22.5546C22.7383 14.9573 22.8485 14.7692 22.7566 14.5999L20.8465 11.232C20.7546 11.0815 20.5342 11.0815 20.4424 11.232L18.5322 14.5999H18.5506Z" fill="#AE2B30"/>
        <path d="M20.4424 19.3601C20.5342 19.5106 20.7546 19.5106 20.8465 19.3601L22.7566 15.9922C22.8485 15.8417 22.7383 15.6348 22.5546 15.6348H18.7526C18.569 15.6348 18.4588 15.8229 18.5506 15.9922L20.4608 19.3601H20.4424Z" fill="#AE2B30"/>
        <path d="M12.1773 0.65826C12.2691 0.507743 12.1589 0.300781 11.9753 0.300781H8.17328C7.98961 0.300781 7.87941 0.488928 7.97124 0.65826L9.86305 4.02609C9.95488 4.1766 10.1753 4.1766 10.2671 4.02609L12.1773 0.65826Z" fill="#363789"/>
        <path d="M7.87944 19.7366C7.78761 19.8871 7.89781 20.0941 8.08148 20.0941H11.8835C12.0671 20.0941 12.1773 19.9059 12.0855 19.7366L10.1753 16.3687C10.0835 16.2182 9.86309 16.2182 9.77125 16.3687L7.86108 19.7366H7.87944Z" fill="#363789"/>
        <path d="M14.9507 4.72296C15.1343 4.72296 15.2445 4.53481 15.1527 4.36548L13.2425 0.997654C13.1507 0.847136 12.9303 0.847136 12.8384 0.997654L10.9283 4.36548C10.8364 4.516 10.9466 4.72296 11.1303 4.72296H14.9323H14.9507Z" fill="#363789"/>
        <path d="M12.8384 9.1257C12.9302 9.27621 13.1506 9.27621 13.2425 9.1257L15.1526 5.75787C15.2445 5.60735 15.1343 5.40039 14.9506 5.40039H11.1486C10.965 5.40039 10.8547 5.58854 10.9466 5.75787L12.8568 9.1257H12.8384Z" fill="#363789"/>
        <path d="M17.8159 9.82257C17.9996 9.82257 18.1098 9.63442 18.0179 9.46509L16.1078 6.09726C16.0159 5.94675 15.7955 5.94675 15.7037 6.09726L13.7935 9.46509C13.7017 9.61561 13.8119 9.82257 13.9955 9.82257H17.7975H17.8159Z" fill="#363789"/>
        <path d="M15.7222 14.2253C15.814 14.3758 16.0344 14.3758 16.1263 14.2253L18.0364 10.8575C18.1283 10.707 18.0181 10.5 17.8344 10.5H14.0324C13.8487 10.5 13.7385 10.6881 13.8304 10.8575L15.7405 14.2253H15.7222Z" fill="#363789"/>
        <path d="M10.9466 14.5627C10.8547 14.7133 10.965 14.9202 11.1486 14.9202H14.9506C15.1343 14.9202 15.2445 14.7321 15.1526 14.5627L13.2425 11.1949C13.1506 11.0444 12.9302 11.0444 12.8384 11.1949L10.9282 14.5627H10.9466Z" fill="#363789"/>
        <path d="M12.8384 19.323C12.9302 19.4735 13.1506 19.4735 13.2425 19.323L15.1526 15.9551C15.2445 15.8046 15.1343 15.5977 14.9506 15.5977H11.1486C10.965 15.5977 10.8547 15.7858 10.9466 15.9551L12.8568 19.323H12.8384Z" fill="#363789"/>
        <path d="M4.86724 0.527401C4.95907 0.376883 4.84887 0.169922 4.6652 0.169922H0.863221C0.67955 0.169922 0.569348 0.358069 0.661183 0.527401L2.55299 3.89523C2.64482 4.04575 2.86523 4.04575 2.95706 3.89523L4.86724 0.527401Z" fill="#D9DADA"/>
        <path d="M0.293751 19.6057C0.201916 19.7562 0.312118 19.9632 0.495789 19.9632H4.29777C4.48144 19.9632 4.59164 19.775 4.49981 19.6057L2.58963 16.2379C2.4978 16.0874 2.27739 16.0874 2.18556 16.2379L0.275384 19.6057H0.293751Z" fill="#D9DADA"/>
        <path d="M7.75071 4.5921C7.93438 4.5921 8.04458 4.40395 7.95274 4.23462L6.04257 0.866794C5.95074 0.716277 5.73033 0.716277 5.6385 0.866794L3.72832 4.23462C3.63649 4.38514 3.74669 4.5921 3.93036 4.5921H7.73234H7.75071Z" fill="#D9DADA"/>
        <path d="M5.25294 8.99484C5.34478 9.14535 5.56518 9.14535 5.65702 8.99484L7.56719 5.62701C7.65903 5.47649 7.54882 5.26953 7.36515 5.26953H3.56317C3.3795 5.26953 3.2693 5.45768 3.36113 5.62701L5.27131 8.99484H5.25294Z" fill="#D9DADA"/>
        <path d="M10.2304 9.68976C10.4141 9.68976 10.5243 9.50161 10.4325 9.33228L8.52231 5.96445C8.43047 5.81393 8.21007 5.81393 8.11823 5.96445L6.20806 9.33228C6.11622 9.48279 6.22642 9.68976 6.4101 9.68976H10.2121H10.2304Z" fill="#D9DADA"/>
        <path d="M8.13649 14.0925C8.22832 14.243 8.44873 14.243 8.54056 14.0925L10.4507 10.7247C10.5426 10.5741 10.4324 10.3672 10.2487 10.3672H6.44672C6.26305 10.3672 6.15284 10.5553 6.24468 10.7247L8.15485 14.0925H8.13649Z" fill="#D9DADA"/>
        <path d="M3.36113 14.4319C3.2693 14.5824 3.3795 14.7894 3.56317 14.7894H7.36515C7.54882 14.7894 7.65903 14.6012 7.56719 14.4319L5.65702 11.0641C5.56518 10.9135 5.34478 10.9135 5.25294 11.0641L3.34277 14.4319H3.36113Z" fill="#D9DADA"/>
        <path d="M5.25294 19.1921C5.34478 19.3426 5.56518 19.3426 5.65702 19.1921L7.56719 15.8243C7.65903 15.6738 7.54882 15.4668 7.36515 15.4668H3.56317C3.3795 15.4668 3.2693 15.6549 3.36113 15.8243L5.27131 19.1921H5.25294Z" fill="#D9DADA"/>
    </g>
</svg>