<svg width="98" height="26" viewBox="0 0 98 26" fill="none" xmlns="http://www.w3.org/2000/svg">
<path d="M19.2585 25.1329H6.45365C3.36179 25.1329 0.855469 22.5987 0.855469 19.4728V6.52629C0.855469 3.40024 3.36193 0.866211 6.45365 0.866211H19.2585C22.3504 0.866211 24.8567 3.40039 24.8567 6.52629V19.4728C24.8567 22.5987 22.3503 25.1329 19.2585 25.1329Z" fill="#CC2222"/>
<path opacity="0.8" d="M18.016 7.84094C19.1536 7.84108 20.2913 7.84121 21.4291 7.84135V15.3355C21.4291 15.3355 21.3516 16.636 20.7848 17.4108C20.6314 17.6206 20.4487 17.8069 20.4088 17.8469L20.4015 17.8541L20.4008 17.8548C20.3294 17.9251 20.1099 18.1352 19.7825 18.3436C19.3871 18.5951 18.9768 18.7536 18.5528 18.8667C18.3171 18.9294 17.7607 19.0624 16.1072 19.0664C15.5309 19.0676 15.1109 19.0525 14.8004 19.0301C14.7994 18.8214 14.7979 18.4814 14.7963 18.1353L14.7958 18.0278C14.7943 17.6816 14.7929 17.3422 14.792 17.1344C14.7912 16.9597 14.79 16.6457 14.7887 16.3251L14.7884 16.2288C14.7872 15.9082 14.786 15.5942 14.7854 15.4194C14.792 15.3139 14.7898 15.1232 14.702 14.9095C14.6851 14.8688 14.6167 14.7086 14.4628 14.5452C14.2938 14.3653 14.1146 14.2825 13.923 14.1926C13.8095 14.1394 13.6748 14.0867 13.4742 14.0324C13.23 13.9662 12.8571 13.8888 12.3692 13.8755C12.5912 13.8334 13.6057 13.6167 14.2457 12.6772C14.5645 12.2092 14.6741 11.7327 14.7061 11.3553C14.7073 12.4668 14.7085 13.5783 14.7098 14.6897C14.7132 14.8264 14.7428 15.3985 15.1901 15.8385C15.4749 16.1185 15.8037 16.2225 15.9049 16.2509C16.1171 16.3102 16.2867 16.3142 16.3455 16.3144L16.3761 16.3144C17.2818 16.3144 18.016 15.587 18.016 14.6898V7.84094ZM12 7.7998C12.3462 7.80646 12.6962 7.81094 13.0503 7.81297C13.6108 7.81623 14.1615 7.81338 14.7021 7.80524C14.7032 8.7909 14.7043 9.77643 14.7054 10.7621C14.6855 10.4718 14.5929 9.52064 13.8076 8.72084C13.1186 8.01934 12.3022 7.84732 12 7.7998Z" fill="white"/>
<path d="M10.9707 7.7998V15.4678C10.9735 15.7273 11.0034 16.177 11.1797 16.6785C11.1613 16.6394 11.1393 16.5979 11.1127 16.5554C11.0799 16.503 11.0187 16.415 10.8995 16.3035C10.6557 16.0758 10.39 15.9573 10.3199 15.9268L10.3095 15.9223L10.2887 15.9135C10.0693 15.8224 9.83521 15.7674 9.28843 15.7123C8.97419 15.6806 8.56426 15.6496 8.07937 15.6406C8.08853 16.7827 8.09783 17.9245 8.10713 19.0665L5.14453 19.0623V7.7998H10.9707ZM11.5408 7.7998C11.5918 7.80089 11.643 7.80185 11.6943 7.8028C12.005 7.85029 12.8444 8.02286 13.5528 8.72605C14.3233 9.49102 14.4454 10.3943 14.4727 10.7281V11.4091C14.4352 11.7804 14.3191 12.2401 14.0035 12.6918C13.3454 13.6335 12.3023 13.8507 12.0739 13.8929C12.5756 13.9063 12.9591 13.9838 13.2101 14.0502C13.4164 14.1047 13.5549 14.1575 13.6716 14.2108C13.8686 14.3008 14.0529 14.3839 14.2267 14.5643C14.3848 14.728 14.4552 14.8886 14.4726 14.9294C14.5629 15.1437 14.5651 15.3348 14.5584 15.4406C14.5598 15.8084 14.5636 16.792 14.5651 17.1597C14.5659 17.3608 14.5673 17.685 14.5688 18.0194L14.5691 18.0911L14.5695 18.163C14.571 18.51 14.5726 18.8507 14.5736 19.0599C14.0399 19.0221 13.8203 18.9636 13.6903 18.9253C12.9679 18.7136 12.5362 18.4094 12.3884 18.2993C12.1896 18.1513 11.9042 17.9076 11.649 17.5646C11.4698 17.3234 11.3375 17.0763 11.2401 16.8374C11.2267 16.7922 11.2074 16.7379 11.1797 16.6785C11.0034 16.177 10.9735 15.7273 10.9707 15.4678V7.7998H11.5408ZM11.1797 16.6785C11.2153 16.7379 11.24 16.7924 11.257 16.8376C11.229 16.7841 11.2033 16.7309 11.1797 16.6785ZM12.2365 11.09L8.45072 9.28446C8.23651 9.18289 7.98334 9.33336 7.98334 9.56657V13.1739C7.98334 13.4071 8.23651 13.5576 8.45072 13.456L12.2365 11.6505C12.478 11.5376 12.478 11.2028 12.2365 11.09Z" fill="white"/>
<path d="M95.1219 18.2692C94.2898 18.2692 93.691 18.0889 93.3252 17.7284C92.9686 17.3679 92.7903 16.7855 92.7903 15.9812V12.154H91.7617V10.8505H92.7903V9.18652H94.299V10.8505H96.1505V12.154H94.299V15.7732C94.299 16.2077 94.3767 16.5127 94.5321 16.6884C94.6967 16.8548 95.0076 16.938 95.4648 16.938C95.7391 16.938 96.0134 16.9241 96.2877 16.8964V18.1999C96.1139 18.2183 95.9356 18.2322 95.7528 18.2415C95.5699 18.2599 95.3596 18.2692 95.1219 18.2692Z" fill="white"/>
<path d="M87.6479 18.3526C87.1633 18.3526 86.7062 18.2787 86.2764 18.1308C85.8467 17.9736 85.4672 17.7425 85.1381 17.4374C84.8181 17.1231 84.5621 16.7302 84.37 16.2588C84.178 15.7873 84.082 15.2326 84.082 14.5948V14.3174C84.082 13.7073 84.1735 13.1758 84.3563 12.7228C84.5392 12.2698 84.7861 11.8954 85.0969 11.5996C85.417 11.2945 85.7827 11.068 86.1941 10.9201C86.6056 10.7722 87.0445 10.6982 87.5108 10.6982C88.6171 10.6982 89.4629 10.9987 90.0481 11.5996C90.6424 12.2005 90.9395 13.0602 90.9395 14.1788V14.9553H85.6181C85.6273 15.3343 85.6867 15.6579 85.7964 15.926C85.9153 16.1848 86.0661 16.3974 86.249 16.5638C86.441 16.721 86.6559 16.8366 86.8936 16.9105C87.1405 16.9845 87.3919 17.0214 87.6479 17.0214C88.1691 17.0214 88.5485 16.9382 88.7863 16.7718C89.0331 16.6054 89.2023 16.3882 89.2937 16.1201H90.8024C90.6561 16.8504 90.2949 17.4051 89.7189 17.7841C89.152 18.1631 88.4617 18.3526 87.6479 18.3526ZM87.5794 12.0294C87.3233 12.0294 87.0765 12.0618 86.8387 12.1265C86.6102 12.1912 86.4044 12.2975 86.2216 12.4454C86.0479 12.5841 85.9061 12.769 85.7964 13.0001C85.6867 13.222 85.6273 13.4947 85.6181 13.8182H89.4309C89.4217 13.4762 89.3669 13.1896 89.2663 12.9585C89.1749 12.7274 89.0469 12.5425 88.8823 12.4038C88.7177 12.2652 88.5211 12.1681 88.2925 12.1126C88.0731 12.0572 87.8354 12.0294 87.5794 12.0294Z" fill="white"/>
<path d="M77.0742 8.49316H78.5829V14.0537L81.6002 10.8505H83.3831L80.4481 13.9705L83.6574 18.1998H81.847L79.4469 14.9412L78.5829 15.8286V18.1998H77.0742V8.49316Z" fill="white"/>
<path d="M71.8672 10.8508H73.2661V12.0988C73.4124 11.7198 73.6501 11.3916 73.9793 11.1142C74.3176 10.8369 74.7336 10.6982 75.2274 10.6982C75.4559 10.6982 75.6251 10.7075 75.7348 10.726C75.8537 10.7445 75.936 10.763 75.9817 10.7814V12.1681C75.8263 12.1219 75.6845 12.0895 75.5565 12.071C75.4285 12.0433 75.2731 12.0294 75.0902 12.0294C74.7885 12.0294 74.5279 12.0849 74.3085 12.1958C74.0982 12.2975 73.9244 12.4362 73.7873 12.6118C73.6501 12.7782 73.545 12.977 73.4718 13.2081C73.4078 13.43 73.3758 13.6611 73.3758 13.9014V18.2001H71.8672V10.8508Z" fill="white"/>
<path d="M66.3085 18.3526C65.9154 18.3526 65.5634 18.2972 65.2525 18.1862C64.9508 18.0661 64.6947 17.9043 64.4844 17.7009C64.2742 17.4883 64.1141 17.2433 64.0044 16.966C63.8947 16.6886 63.8398 16.3836 63.8398 16.0508C63.8398 15.3205 64.0547 14.7797 64.4844 14.4284C64.9142 14.0678 65.5451 13.8876 66.3771 13.8876H68.6401V13.4854C68.6401 12.9308 68.5167 12.5518 68.2698 12.3484C68.0321 12.1358 67.6526 12.0294 67.1314 12.0294C66.6651 12.0294 66.3223 12.1034 66.1028 12.2513C65.8834 12.3992 65.7554 12.6026 65.7188 12.8614H64.2513C64.2696 12.5471 64.3473 12.2606 64.4844 12.0017C64.6307 11.7336 64.8273 11.5025 65.0742 11.3084C65.3302 11.1142 65.6365 10.9663 65.9931 10.8646C66.3497 10.7537 66.752 10.6982 67.2 10.6982C67.648 10.6982 68.0503 10.7491 68.4069 10.8508C68.7727 10.9525 69.0835 11.1142 69.3396 11.3361C69.5956 11.5487 69.7922 11.8261 69.9293 12.1681C70.0756 12.5102 70.1487 12.9215 70.1487 13.4022V16.3281C70.1487 16.7164 70.1533 17.0584 70.1625 17.3542C70.1716 17.6408 70.1945 17.9228 70.231 18.2001H68.8595C68.8321 17.9875 68.8092 17.8072 68.791 17.6593C68.7818 17.5114 68.7772 17.3265 68.7772 17.1046C68.6035 17.4467 68.3018 17.7425 67.8721 17.9921C67.4515 18.2325 66.9303 18.3526 66.3085 18.3526ZM66.72 17.0214C66.976 17.0214 67.2183 16.9891 67.4469 16.9244C67.6846 16.8504 67.8903 16.7487 68.0641 16.6193C68.2378 16.4806 68.3749 16.3142 68.4755 16.1201C68.5852 15.9167 68.6401 15.6856 68.6401 15.4268V15.0246H66.6514C66.2674 15.0246 65.9565 15.1078 65.7188 15.2742C65.4902 15.4406 65.3759 15.6856 65.3759 16.0092C65.3759 16.3142 65.4811 16.5592 65.6914 16.7441C65.9108 16.929 66.2537 17.0214 66.72 17.0214Z" fill="white"/>
<path d="M52.6602 8.49316H54.3608L57.4193 14.2478L60.4777 8.49316H62.1235V18.1998H60.4777V11.4052L57.9404 16.1892H56.8432L54.306 11.4052V18.1998H52.6602V8.49316Z" fill="white"/>
<path d="M46.9027 18.3525C46.0433 18.3525 45.3941 18.1029 44.9552 17.6037C44.5163 17.0952 44.2969 16.3233 44.2969 15.2879V10.8506H45.8055V15.1493C45.8055 15.7686 45.929 16.2355 46.1758 16.5498C46.4318 16.8641 46.8342 17.0213 47.3828 17.0213C47.6845 17.0213 47.9405 16.9704 48.1508 16.8687C48.3702 16.767 48.5485 16.6284 48.6857 16.4527C48.8228 16.2771 48.9234 16.0783 48.9874 15.8565C49.0606 15.6253 49.0971 15.3896 49.0971 15.1493V10.8506H50.6058V18.1999H49.2068V16.9519C49.0331 17.3309 48.7497 17.6591 48.3565 17.9365C47.9725 18.2138 47.4879 18.3525 46.9027 18.3525Z" fill="white"/>
<path d="M35.5234 8.49316H39.1579C39.7614 8.49316 40.2871 8.56712 40.7351 8.71503C41.1923 8.86294 41.5718 9.07094 41.8735 9.33903C42.1752 9.60712 42.4038 9.92605 42.5592 10.2958C42.7147 10.6656 42.7924 11.0724 42.7924 11.5161C42.7924 12.1817 42.6141 12.7595 42.2575 13.2494C41.9009 13.7301 41.366 14.0768 40.6528 14.2894L43.0667 18.1998H41.2563L39.1305 14.4836H37.1692V18.1998H35.5234V8.49316ZM38.8836 13.0969C39.7248 13.0969 40.31 12.9582 40.6391 12.6809C40.9774 12.4036 41.1466 12.0153 41.1466 11.5161C41.1466 11.0169 40.9774 10.6286 40.6391 10.3513C40.31 10.074 39.7248 9.9353 38.8836 9.9353H37.1692V13.0969H38.8836Z" fill="white"/>
</svg>
