<svg width="94" height="24" viewBox="0 0 94 24" fill="none" xmlns="http://www.w3.org/2000/svg">
<g clip-path="url(#clip0_6375_37539)">
<path fill-rule="evenodd" clip-rule="evenodd" d="M11.377 24C6.01382 24 3.33223 24 1.66612 22.3129C3.85295e-07 20.6259 2.78428e-07 17.9105 4.19771e-08 12.4799L1.78102e-10 11.5199C-2.36274e-07 6.08934 -3.85295e-07 3.37404 1.66612 1.68697C3.33223 3.9014e-07 6.01382 2.7713e-07 11.3769 4.17803e-08L12.325 1.75768e-10C17.6882 -2.35177e-07 20.3698 -3.9014e-07 22.0359 1.68697C23.702 3.37402 23.702 6.08934 23.702 11.5199V12.4799C23.702 17.9105 23.702 20.6259 22.0359 22.3129C20.3698 24 17.6882 24 12.325 24H11.377Z" fill="#0077FF"/>
<path d="M13.7075 14.7903C13.0689 14.6288 12.6211 14.0504 12.6211 13.387V5.57118C12.6211 4.81766 13.3243 4.26503 14.0496 4.44849L18.643 5.61037C19.2816 5.77188 19.7294 6.3503 19.7294 7.01371V14.8295C19.7294 15.583 19.0262 16.1357 18.3008 15.9522L13.7075 14.7903Z" fill="white"/>
<path d="M5.05902 18.389C4.42041 18.2274 3.97266 17.649 3.97266 16.9856V9.16981C3.97266 8.41629 4.67582 7.86366 5.40116 8.04713L9.99453 9.209C10.6331 9.37051 11.0809 9.94894 11.0809 10.6123V18.4281C11.0809 19.1817 10.3777 19.7343 9.65236 19.5508L5.05902 18.389Z" fill="white"/>
<path d="M9.38323 16.5901C8.74463 16.4286 8.29688 15.8502 8.29688 15.1868V7.37101C8.29688 6.61749 9.00007 6.06483 9.72541 6.2483L14.3187 7.41017C14.9574 7.57171 15.4051 8.15013 15.4051 8.81354V16.6293C15.4051 17.3829 14.7019 17.9355 13.9766 17.752L9.38323 16.5901Z" fill="white"/>
<path d="M12.3912 17.3526C12.1901 17.3007 12.0469 17.1206 12.0399 16.9105L11.8401 10.9417C11.7823 10.1517 11.2031 9.52339 10.5979 9.33837C10.5639 9.32798 10.5277 9.34197 10.5075 9.37156C10.4871 9.40165 10.495 9.44329 10.5235 9.46565C10.673 9.58279 11.0843 9.96507 11.0843 10.6244L11.0831 17.0169L12.3912 17.3526Z" fill="#2B71F6"/>
<path d="M16.7116 15.5514C16.5106 15.5005 16.3672 15.3209 16.3602 15.1113L16.1604 9.14283C16.1026 8.35284 15.5234 7.72456 14.9182 7.53954C14.8843 7.52915 14.848 7.54314 14.8279 7.57274C14.8074 7.60282 14.8153 7.64446 14.8438 7.66683C14.9933 7.78396 15.4046 8.16624 15.4046 8.82559L15.4034 15.2203L16.7116 15.5514Z" fill="#2B71F6"/>
<path d="M37.3453 13.7876C39.1401 13.3242 40.3196 11.9341 40.3196 10.115C40.3196 7.8669 38.5417 6.28809 36.046 6.28809H31.6016V18.3868H33.6529V13.942H35.106L38.2853 18.3868H40.6956L37.3453 13.7876ZM36.046 8.17582C37.328 8.17582 38.2171 8.96523 38.2171 10.115C38.2171 11.2648 37.328 12.0543 36.046 12.0543H33.6529V8.17582H36.046Z" fill="white"/>
<path d="M45.3138 18.5584C46.3907 18.5584 47.3821 17.9921 47.9464 17.0482L48.3393 18.3868H49.8097V9.46289H47.8438V14.6285C47.8438 15.8984 47.0061 16.7908 45.8609 16.7908C44.7326 16.7908 43.9461 15.8984 43.9461 14.6285V9.46289H41.9805V14.8515C41.9805 16.9967 43.4163 18.5584 45.3138 18.5584Z" fill="white"/>
<path d="M56.0832 18.5591C58.3567 18.5591 60.2373 17.2549 60.2373 15.0925C60.2373 12.6728 58.2713 11.9692 56.5791 11.3857C55.2628 10.9395 54.1176 10.5277 54.1176 9.44648C54.1176 8.5026 54.9892 8.00492 56.0148 8.00492C57.0919 8.00492 57.8611 8.57124 58.2886 9.53228L60.2373 9.20623C59.6218 7.31847 58.0661 6.11719 55.9467 6.11719C53.7585 6.11719 52.0148 7.38711 52.0148 9.54946C52.0148 11.9864 53.9807 12.6556 55.673 13.222C56.9723 13.651 58.1345 14.0629 58.1345 15.1612C58.1345 16.1222 57.2629 16.6714 56.1005 16.6714C54.767 16.6714 54.0492 16.0364 53.4167 14.8866L51.4336 15.2298C52.0148 17.272 53.8612 18.5591 56.0832 18.5591Z" fill="white"/>
<path d="M65.586 16.6716C64.9194 16.6716 64.5945 16.3455 64.5945 15.6762V11.18H67.244V9.46384H64.5945V6.88965H63.1245L62.6286 9.46384H61.1758V11.18H62.6286V15.6762C62.6286 17.4267 63.6373 18.3877 65.586 18.3877H67.244L67.4151 16.6716H65.586Z" fill="white"/>
<path d="M73.0296 18.5591C75.8159 18.5591 77.7816 16.637 77.7816 13.9255C77.7816 11.214 75.8159 9.29199 73.0296 9.29199C70.2433 9.29199 68.2773 11.214 68.2773 13.9255C68.2773 16.637 70.2433 18.5591 73.0296 18.5591ZM73.0296 16.7571C71.4227 16.7571 70.3286 15.6073 70.3286 13.9255C70.3286 12.2437 71.4227 11.0939 73.0296 11.0939C74.6365 11.0939 75.7303 12.2437 75.7303 13.9255C75.7303 15.6073 74.6365 16.7571 73.0296 16.7571Z" fill="white"/>
<path d="M81.4578 18.3868V13.1183C81.4578 11.9856 82.0049 11.3506 83.2016 11.3506H84.3298L84.1588 9.46289H83.7828C82.7399 9.46289 81.9365 9.75463 81.3383 10.75L80.9623 9.46289H79.4922V18.3868H81.4578Z" fill="white"/>
<path d="M94.0043 13.8226C94.0043 11.2484 92.0898 9.29199 89.3889 9.29199C86.6882 9.29199 84.7734 11.2312 84.7734 13.9255C84.7734 16.6198 86.6882 18.5591 89.3889 18.5591C91.2352 18.5591 92.9786 17.6839 93.6455 15.9849L91.7992 15.676C91.372 16.311 90.5513 16.7571 89.5087 16.7571C88.0045 16.7571 87.013 15.8304 86.8247 14.4575H93.9701C93.9873 14.2687 94.0043 14.0628 94.0043 13.8226ZM89.3889 11.0081C90.6198 11.0081 91.5428 11.7975 91.8676 12.913H86.9446C87.2694 11.7632 88.1925 11.0081 89.3889 11.0081Z" fill="white"/>
</g>
<defs>
<clipPath id="clip0_6375_37539">
<rect width="94" height="24" fill="white"/>
</clipPath>
</defs>
</svg>
