<svg xmlns="http://www.w3.org/2000/svg" width="110" height="28" viewBox="0 0 110 28" fill="none">
    <g clip-path="url(#clip0_2085_2651)">
        <path fill-rule="evenodd" clip-rule="evenodd" d="M13.6924 28C7.47347 28 4.36397 28 2.43199 26.0318C0.5 24.0635 0.5 20.8956 0.5 14.5599L0.5 13.4399C0.5 7.10423 0.5 3.93638 2.43199 1.96813C4.36397 4.55163e-07 7.47347 3.23319e-07 13.6924 4.87437e-08L14.7918 2.05063e-10C21.0108 -2.74373e-07 24.1203 -4.55163e-07 26.0523 1.96813C27.9842 3.93635 27.9842 7.10423 27.9842 13.4399V14.5599C27.9842 20.8956 27.9842 24.0635 26.0523 26.0318C24.1203 28 21.0108 28 14.7918 28H13.6924Z" fill="#0077FF"/>
        <path d="M16.393 17.2552C15.6525 17.0668 15.1333 16.3919 15.1333 15.618V6.49954C15.1333 5.62044 15.9487 4.97571 16.7898 5.18975L22.1161 6.54526C22.8566 6.73369 23.3759 7.40852 23.3759 8.1825V17.3009C23.3759 18.18 22.5604 18.8248 21.7194 18.6108L16.393 17.2552Z" fill="white"/>
        <path d="M6.36836 21.4545C5.62785 21.266 5.10864 20.5912 5.10864 19.8172V10.6988C5.10864 9.81966 5.92402 9.17493 6.7651 9.38897L12.0915 10.7445C12.8319 10.9329 13.3512 11.6077 13.3512 12.3817V21.5001C13.3512 22.3792 12.5358 23.024 11.6947 22.8099L6.36836 21.4545Z" fill="white"/>
        <path d="M11.3806 19.3548C10.6401 19.1664 10.1208 18.4916 10.1208 17.7176V8.59918C10.1208 7.72008 10.9363 7.07531 11.7773 7.28936L17.1037 8.64487C17.8442 8.83333 18.3634 9.50816 18.3634 10.2821V19.4005C18.3634 20.2797 17.548 20.9244 16.7069 20.7104L11.3806 19.3548Z" fill="white"/>
        <path d="M14.8667 20.2445C14.6335 20.184 14.4675 19.9739 14.4593 19.7288L14.2276 12.7651C14.1606 11.8435 13.489 11.1105 12.7873 10.8946C12.7479 10.8825 12.7058 10.8988 12.6825 10.9333C12.6588 10.9684 12.6679 11.017 12.701 11.0431C12.8743 11.1798 13.3512 11.6258 13.3512 12.395L13.3498 19.8529L14.8667 20.2445Z" fill="#2B71F6"/>
        <path d="M19.8804 18.1422C19.6474 18.0828 19.4812 17.8733 19.473 17.6287L19.2413 10.6655C19.1742 9.74385 18.5027 9.01085 17.8009 8.795C17.7616 8.78287 17.7195 8.7992 17.6962 8.83372C17.6724 8.86881 17.6816 8.9174 17.7147 8.94349C17.888 9.08015 18.3649 9.52615 18.3649 10.2954L18.3635 17.7558L19.8804 18.1422Z" fill="#2B71F6"/>
        <path d="M43.806 16.0853C45.8873 15.5447 47.255 13.923 47.255 11.8007C47.255 9.17789 45.1933 7.33594 42.2994 7.33594H37.1458V21.4511H39.5244V16.2655H41.2094L44.896 21.4511H47.691L43.806 16.0853ZM42.2994 9.5383C43.786 9.5383 44.817 10.4593 44.817 11.8007C44.817 13.1422 43.786 14.0632 42.2994 14.0632H39.5244V9.5383H42.2994Z" fill="black"/>
        <path d="M53.0445 21.6524C54.2931 21.6524 55.4428 20.9917 56.0971 19.8905L56.5528 21.4522H58.2577V11.041H55.9781V17.0675C55.9781 18.5491 55.0068 19.5902 53.6788 19.5902C52.3705 19.5902 51.4585 18.5491 51.4585 17.0675V11.041H49.1792V17.3278C49.1792 19.8305 50.8442 21.6524 53.0445 21.6524Z" fill="black"/>
        <path d="M65.5325 21.6523C68.1688 21.6523 70.3494 20.1307 70.3494 17.608C70.3494 14.7849 68.0698 13.964 66.1074 13.2833C64.5811 12.7628 63.2531 12.2823 63.2531 11.0209C63.2531 9.9197 64.2638 9.33908 65.4531 9.33908C66.7021 9.33908 67.5941 9.99978 68.0897 11.121L70.3494 10.7406C69.6357 8.53821 67.8318 7.13672 65.3741 7.13672C62.8368 7.13672 60.8149 8.6183 60.8149 11.141C60.8149 13.9841 63.0945 14.7649 65.0568 15.4256C66.5634 15.9262 67.9111 16.4067 67.9111 17.688C67.9111 18.8093 66.9004 19.4499 65.5525 19.4499C64.0062 19.4499 63.1738 18.7092 62.4405 17.3677L60.1409 17.7681C60.8149 20.1507 62.9558 21.6523 65.5325 21.6523Z" fill="black"/>
        <path d="M76.5505 19.4494C75.7775 19.4494 75.4008 19.0689 75.4008 18.2881V13.0425H78.4731V11.0403H75.4008V8.03711H73.6962L73.1212 11.0403H71.4365V13.0425H73.1212V18.2881C73.1212 20.3303 74.2908 21.4515 76.5505 21.4515H78.4731L78.6714 19.4494H76.5505Z" fill="black"/>
        <path d="M85.1854 21.6514C88.4163 21.6514 90.6957 19.4091 90.6957 16.2457C90.6957 13.0822 88.4163 10.8398 85.1854 10.8398C81.9544 10.8398 79.6748 13.0822 79.6748 16.2457C79.6748 19.4091 81.9544 21.6514 85.1854 21.6514ZM85.1854 19.5492C83.3221 19.5492 82.0534 18.2078 82.0534 16.2457C82.0534 14.2835 83.3221 12.9421 85.1854 12.9421C87.0487 12.9421 88.317 14.2835 88.317 16.2457C88.317 18.2078 87.0487 19.5492 85.1854 19.5492Z" fill="black"/>
        <path d="M94.9571 21.4522V15.3056C94.9571 13.9842 95.5914 13.2434 96.979 13.2434H98.2873L98.089 11.041H97.653C96.4437 11.041 95.512 11.3814 94.8184 12.5426L94.3824 11.041H92.6777V21.4522H94.9571Z" fill="black"/>
        <path d="M109.504 16.1255C109.504 13.1223 107.284 10.8398 104.152 10.8398C101.02 10.8398 98.8 13.1023 98.8 16.2457C98.8 19.389 101.02 21.6514 104.152 21.6514C106.293 21.6514 108.315 20.6304 109.088 18.6482L106.947 18.2878C106.452 19.0286 105.5 19.5492 104.291 19.5492C102.547 19.5492 101.397 18.468 101.179 16.8663H109.464C109.484 16.6461 109.504 16.4058 109.504 16.1255ZM104.152 12.842C105.579 12.842 106.65 13.763 107.026 15.0644H101.318C101.694 13.7229 102.765 12.842 104.152 12.842Z" fill="black"/>
    </g>
</svg>