<svg width="530" height="317" viewBox="0 0 530 317" fill="none" xmlns="http://www.w3.org/2000/svg">
<g clip-path="url(#clip0_4287_271959)">
<g opacity="0.4">
<g opacity="0.5">
<path opacity="0.1" d="M466 1L400 49.5V98L466 73.75V1Z" fill="#CABBD1"/>
<path opacity="0.3" d="M465 1L530 25.25V98L465 73.75V1Z" fill="#CABBD1"/>
<path opacity="0.2" d="M465 25L530 48.6757V73L465 25Z" fill="#CABBD1"/>
<path opacity="0.4" d="M465 49V73.5L400 98L465 49Z" fill="#CABBD1"/>
<path opacity="0.2" fill-rule="evenodd" clip-rule="evenodd" d="M465.087 0.765772L464.96 0.71814L464.851 0.799633L432.417 25H400H399.75V25.25V49.25V49.3746V49.5V49.75V73.75V74V98H399.96L400.087 98.234L465 74.0165L529.913 98.234L530.25 98H530.25V25.25V25.0764L530.25 25H530.045L465.087 0.765772ZM528.615 25L465.04 1.28186L433.253 25H464.75H465H465.25H528.615ZM431.747 25.5H400.25V49.0015L431.747 25.5ZM400.753 49.25L432.583 25.5H464.75V49.25H400.753ZM400.25 49.75V73.5H432.417L464.247 49.75H400.25ZM400.25 74V97.5013L431.747 74H400.25ZM465.25 73.4995L529.247 73.4997L497.417 49.75H465.25V73.4995ZM529.75 97.6397L466.387 74H529.75V97.6397ZM464.75 73.5V49.9985L433.253 73.5H464.75ZM432.583 74H463.614L401.551 97.1542L432.583 74ZM465.25 49.0015V49.25H496.747L465.25 25.7485V49.0015ZM529.75 49.75V73.2515L498.253 49.75H529.75ZM528.615 49.25H497.583L466.551 26.0956L528.615 49.25ZM529.75 25.5V49.1399L466.385 25.5H529.75Z" fill="#EEE9F0"/>
</g>
</g>
<g opacity="0.35">
<g opacity="0.3">
<path opacity="0.1" d="M336 74L270 122.5V171L336 146.75V74Z" fill="#CABBD1"/>
<path opacity="0.3" d="M335 74L400 98.25V171L335 146.75V74Z" fill="#CABBD1"/>
<path opacity="0.2" d="M335 98L400 121.676V146L335 98Z" fill="#CABBD1"/>
<path opacity="0.4" d="M335 122V146.5L270 171L335 122Z" fill="#CABBD1"/>
<path opacity="0.2" fill-rule="evenodd" clip-rule="evenodd" d="M335.087 73.7658L334.96 73.7181L334.851 73.7996L302.417 98H270H269.75V98.25V122.25V122.375V122.5V122.75V146.75V147V171H269.96L270.087 171.234L335 147.016L399.913 171.234L400.25 171H400.25V98.25V98.0764L400.25 98H400.045L335.087 73.7658ZM398.615 98L335.04 74.2819L303.253 98H334.75H335H335.25H398.615ZM301.747 98.5H270.25V122.002L301.747 98.5ZM270.753 122.25L302.583 98.5H334.75V122.25H270.753ZM270.25 122.75V146.5H302.417L334.247 122.75H270.25ZM270.25 147V170.501L301.747 147H270.25ZM335.25 146.5L399.247 146.5L367.417 122.75H335.25V146.5ZM399.75 170.64L336.387 147H399.75V170.64ZM334.75 146.5V122.998L303.253 146.5H334.75ZM302.583 147H333.614L271.551 170.154L302.583 147ZM335.25 122.002V122.25H366.747L335.25 98.7485V122.002ZM399.75 122.75V146.252L368.253 122.75H399.75ZM398.615 122.25H367.583L336.551 99.0956L398.615 122.25ZM399.75 98.5V122.14L336.385 98.5H399.75Z" fill="#EEE9F0"/>
</g>
<g opacity="0.5">
<path opacity="0.1" d="M466 74L400 122.5V171L466 146.75V74Z" fill="#CABBD1"/>
<path opacity="0.3" d="M465 74L530 98.25V171L465 146.75V74Z" fill="#CABBD1"/>
<path opacity="0.2" d="M465 98L530 121.676V146L465 98Z" fill="#CABBD1"/>
<path opacity="0.4" d="M465 122V146.5L400 171L465 122Z" fill="#CABBD1"/>
<path opacity="0.2" fill-rule="evenodd" clip-rule="evenodd" d="M465.087 73.7658L464.96 73.7181L464.851 73.7996L432.417 98H400H399.75V98.25V122.25V122.375V122.5V122.75V146.75V147V171H399.96L400.087 171.234L465 147.016L529.913 171.234L530.25 171H530.25V98.25V98.0764L530.25 98H530.045L465.087 73.7658ZM528.615 98L465.04 74.2819L433.253 98H464.75H465H465.25H528.615ZM431.747 98.5H400.25V122.002L431.747 98.5ZM400.753 122.25L432.583 98.5H464.75V122.25H400.753ZM400.25 122.75V146.5H432.417L464.247 122.75H400.25ZM400.25 147V170.501L431.747 147H400.25ZM465.25 146.5L529.247 146.5L497.417 122.75H465.25V146.5ZM529.75 170.64L466.387 147H529.75V170.64ZM464.75 146.5V122.998L433.253 146.5H464.75ZM432.583 147H463.614L401.551 170.154L432.583 147ZM465.25 122.002V122.25H496.747L465.25 98.7485V122.002ZM529.75 122.75V146.252L498.253 122.75H529.75ZM528.615 122.25H497.583L466.551 99.0956L528.615 122.25ZM529.75 98.5V122.14L466.385 98.5H529.75Z" fill="#EEE9F0"/>
</g>
</g>
<g opacity="0.25">
<g opacity="0.2">
<path opacity="0.1" d="M206 147L140 195.5V244L206 219.75V147Z" fill="#CABBD1"/>
<path opacity="0.3" d="M205 147L270 171.25V244L205 219.75V147Z" fill="#CABBD1"/>
<path opacity="0.2" d="M205 171L270 194.676V219L205 171Z" fill="#CABBD1"/>
<path opacity="0.4" d="M205 195V219.5L140 244L205 195Z" fill="#CABBD1"/>
<path opacity="0.2" fill-rule="evenodd" clip-rule="evenodd" d="M205.087 146.766L204.96 146.718L204.851 146.8L172.417 171H140H139.75V171.25V195.25V195.375V195.5V195.75V219.75V220V244H139.96L140.087 244.234L205 220.016L269.913 244.234L270.25 244H270.25V171.25V171.076L270.25 171H270.045L205.087 146.766ZM268.615 171L205.04 147.282L173.253 171H204.75H205H205.25H268.615ZM171.747 171.5H140.25V195.002L171.747 171.5ZM140.753 195.25L172.583 171.5H204.75V195.25H140.753ZM140.25 195.75V219.5H172.417L204.247 195.75H140.25ZM140.25 220V243.501L171.747 220H140.25ZM205.25 219.5L269.247 219.5L237.417 195.75H205.25V219.5ZM269.75 243.64L206.387 220H269.75V243.64ZM204.75 219.5V195.998L173.253 219.5H204.75ZM172.583 220H203.614L141.551 243.154L172.583 220ZM205.25 195.002V195.25H236.747L205.25 171.748V195.002ZM269.75 195.75V219.252L238.253 195.75H269.75ZM268.615 195.25H237.583L206.551 172.096L268.615 195.25ZM269.75 171.5V195.14L206.385 171.5H269.75Z" fill="#EEE9F0"/>
</g>
<g opacity="0.3">
<path opacity="0.1" d="M336 147L270 195.5V244L336 219.75V147Z" fill="#CABBD1"/>
<path opacity="0.3" d="M335 147L400 171.25V244L335 219.75V147Z" fill="#CABBD1"/>
<path opacity="0.2" d="M335 171L400 194.676V219L335 171Z" fill="#CABBD1"/>
<path opacity="0.4" d="M335 195V219.5L270 244L335 195Z" fill="#CABBD1"/>
<path opacity="0.2" fill-rule="evenodd" clip-rule="evenodd" d="M335.087 146.766L334.96 146.718L334.851 146.8L302.417 171H270H269.75V171.25V195.25V195.375V195.5V195.75V219.75V220V244H269.96L270.087 244.234L335 220.016L399.913 244.234L400.25 244H400.25V171.25V171.076L400.25 171H400.045L335.087 146.766ZM398.615 171L335.04 147.282L303.253 171H334.75H335H335.25H398.615ZM301.747 171.5H270.25V195.002L301.747 171.5ZM270.753 195.25L302.583 171.5H334.75V195.25H270.753ZM270.25 195.75V219.5H302.417L334.247 195.75H270.25ZM270.25 220V243.501L301.747 220H270.25ZM335.25 219.5L399.247 219.5L367.417 195.75H335.25V219.5ZM399.75 243.64L336.387 220H399.75V243.64ZM334.75 219.5V195.998L303.253 219.5H334.75ZM302.583 220H333.614L271.551 243.154L302.583 220ZM335.25 195.002V195.25H366.747L335.25 171.748V195.002ZM399.75 195.75V219.252L368.253 195.75H399.75ZM398.615 195.25H367.583L336.551 172.096L398.615 195.25ZM399.75 171.5V195.14L336.385 171.5H399.75Z" fill="#EEE9F0"/>
</g>
<g opacity="0.5">
<path opacity="0.1" d="M466 147L400 195.5V244L466 219.75V147Z" fill="#CABBD1"/>
<path opacity="0.3" d="M465 147L530 171.25V244L465 219.75V147Z" fill="#CABBD1"/>
<path opacity="0.2" d="M465 171L530 194.676V219L465 171Z" fill="#CABBD1"/>
<path opacity="0.4" d="M465 195V219.5L400 244L465 195Z" fill="#CABBD1"/>
<path opacity="0.2" fill-rule="evenodd" clip-rule="evenodd" d="M465.087 146.766L464.96 146.718L464.851 146.8L432.417 171H400H399.75V171.25V195.25V195.375V195.5V195.75V219.75V220V244H399.96L400.087 244.234L465 220.016L529.913 244.234L530.25 244H530.25V171.25V171.076L530.25 171H530.045L465.087 146.766ZM528.615 171L465.04 147.282L433.253 171H464.75H465H465.25H528.615ZM431.747 171.5H400.25V195.002L431.747 171.5ZM400.753 195.25L432.583 171.5H464.75V195.25H400.753ZM400.25 195.75V219.5H432.417L464.247 195.75H400.25ZM400.25 220V243.501L431.747 220H400.25ZM465.25 219.5L529.247 219.5L497.417 195.75H465.25V219.5ZM529.75 243.64L466.387 220H529.75V243.64ZM464.75 219.5V195.998L433.253 219.5H464.75ZM432.583 220H463.614L401.551 243.154L432.583 220ZM465.25 195.002V195.25H496.747L465.25 171.748V195.002ZM529.75 195.75V219.252L498.253 195.75H529.75ZM528.615 195.25H497.583L466.551 172.096L528.615 195.25ZM529.75 171.5V195.14L466.385 171.5H529.75Z" fill="#EEE9F0"/>
</g>
</g>
<g opacity="0.2">
<g opacity="0.2">
<path opacity="0.1" d="M76 220L10 268.5V317L76 292.75V220Z" fill="#CABBD1"/>
<path opacity="0.3" d="M75 220L140 244.25V317L75 292.75V220Z" fill="#CABBD1"/>
<path opacity="0.2" d="M75 244L140 267.676V292L75 244Z" fill="#CABBD1"/>
<path opacity="0.4" d="M75 268V292.5L10 317L75 268Z" fill="#CABBD1"/>
<path opacity="0.2" fill-rule="evenodd" clip-rule="evenodd" d="M75.0874 219.766L74.9597 219.718L74.8505 219.8L42.417 244H10H9.75V244.25V268.25V268.375V268.5V268.75V292.75V293V317H9.95985L10.0874 317.234L75.0003 293.016L139.913 317.234L140.25 317H140.25V244.25V244.076L140.25 244H140.045L75.0874 219.766ZM138.615 244L75.0403 220.282L43.2531 244H74.75H75H75.25H138.615ZM41.7469 244.5H10.25V268.002L41.7469 244.5ZM10.7531 268.25L42.583 244.5H74.75V268.25H10.7531ZM10.25 268.75V292.5H42.4168L74.2469 268.75H10.25ZM10.25 293V316.501L41.7467 293H10.25ZM75.25 292.5L139.247 292.5L107.417 268.75H75.25V292.5ZM139.75 316.64L76.3866 293H139.75V316.64ZM74.75 292.5V268.998L43.2529 292.5H74.75ZM42.5828 293H73.614L11.5513 316.154L42.5828 293ZM75.25 268.002V268.25H106.747L75.25 244.748V268.002ZM139.75 268.75V292.252L108.253 268.75H139.75ZM138.615 268.25H107.583L76.5513 245.096L138.615 268.25ZM139.75 244.5V268.14L76.3853 244.5H139.75Z" fill="#EEE9F0"/>
</g>
<g opacity="0.3">
<path opacity="0.1" d="M206 220L140 268.5V317L206 292.75V220Z" fill="#CABBD1"/>
<path opacity="0.3" d="M205 220L270 244.25V317L205 292.75V220Z" fill="#CABBD1"/>
<path opacity="0.2" d="M205 244L270 267.676V292L205 244Z" fill="#CABBD1"/>
<path opacity="0.4" d="M205 268V292.5L140 317L205 268Z" fill="#CABBD1"/>
<path opacity="0.2" fill-rule="evenodd" clip-rule="evenodd" d="M205.087 219.766L204.96 219.718L204.851 219.8L172.417 244H140H139.75V244.25V268.25V268.375V268.5V268.75V292.75V293V317H139.96L140.087 317.234L205 293.016L269.913 317.234L270.25 317H270.25V244.25V244.076L270.25 244H270.045L205.087 219.766ZM268.615 244L205.04 220.282L173.253 244H204.75H205H205.25H268.615ZM171.747 244.5H140.25V268.002L171.747 244.5ZM140.753 268.25L172.583 244.5H204.75V268.25H140.753ZM140.25 268.75V292.5H172.417L204.247 268.75H140.25ZM140.25 293V316.501L171.747 293H140.25ZM205.25 292.5L269.247 292.5L237.417 268.75H205.25V292.5ZM269.75 316.64L206.387 293H269.75V316.64ZM204.75 292.5V268.998L173.253 292.5H204.75ZM172.583 293H203.614L141.551 316.154L172.583 293ZM205.25 268.002V268.25H236.747L205.25 244.748V268.002ZM269.75 268.75V292.252L238.253 268.75H269.75ZM268.615 268.25H237.583L206.551 245.096L268.615 268.25ZM269.75 244.5V268.14L206.385 244.5H269.75Z" fill="#EEE9F0"/>
</g>
<g opacity="0.4">
<path opacity="0.1" d="M336 220L270 268.5V317L336 292.75V220Z" fill="#CABBD1"/>
<path opacity="0.3" d="M335 220L400 244.25V317L335 292.75V220Z" fill="#CABBD1"/>
<path opacity="0.2" d="M335 244L400 267.676V292L335 244Z" fill="#CABBD1"/>
<path opacity="0.4" d="M335 268V292.5L270 317L335 268Z" fill="#CABBD1"/>
<path opacity="0.2" fill-rule="evenodd" clip-rule="evenodd" d="M335.087 219.766L334.96 219.718L334.851 219.8L302.417 244H270H269.75V244.25V268.25V268.375V268.5V268.75V292.75V293V317H269.96L270.087 317.234L335 293.016L399.913 317.234L400.25 317H400.25V244.25V244.076L400.25 244H400.045L335.087 219.766ZM398.615 244L335.04 220.282L303.253 244H334.75H335H335.25H398.615ZM301.747 244.5H270.25V268.002L301.747 244.5ZM270.753 268.25L302.583 244.5H334.75V268.25H270.753ZM270.25 268.75V292.5H302.417L334.247 268.75H270.25ZM270.25 293V316.501L301.747 293H270.25ZM335.25 292.5L399.247 292.5L367.417 268.75H335.25V292.5ZM399.75 316.64L336.387 293H399.75V316.64ZM334.75 292.5V268.998L303.253 292.5H334.75ZM302.583 293H333.614L271.551 316.154L302.583 293ZM335.25 268.002V268.25H366.747L335.25 244.748V268.002ZM399.75 268.75V292.252L368.253 268.75H399.75ZM398.615 268.25H367.583L336.551 245.096L398.615 268.25ZM399.75 244.5V268.14L336.385 244.5H399.75Z" fill="#EEE9F0"/>
</g>
<g opacity="0.6">
<path opacity="0.1" d="M466 220L400 268.5V317L466 292.75V220Z" fill="#CABBD1"/>
<path opacity="0.3" d="M465 220L530 244.25V317L465 292.75V220Z" fill="#CABBD1"/>
<path opacity="0.2" d="M465 244L530 267.676V292L465 244Z" fill="#CABBD1"/>
<path opacity="0.4" d="M465 268V292.5L400 317L465 268Z" fill="#CABBD1"/>
<path opacity="0.2" fill-rule="evenodd" clip-rule="evenodd" d="M465.087 219.766L464.96 219.718L464.851 219.8L432.417 244H400H399.75V244.25V268.25V268.375V268.5V268.75V292.75V293V317H399.96L400.087 317.234L465 293.016L529.913 317.234L530.25 317H530.25V244.25V244.076L530.25 244H530.045L465.087 219.766ZM528.615 244L465.04 220.282L433.253 244H464.75H465H465.25H528.615ZM431.747 244.5H400.25V268.002L431.747 244.5ZM400.753 268.25L432.583 244.5H464.75V268.25H400.753ZM400.25 268.75V292.5H432.417L464.247 268.75H400.25ZM400.25 293V316.501L431.747 293H400.25ZM465.25 292.5L529.247 292.5L497.417 268.75H465.25V292.5ZM529.75 316.64L466.387 293H529.75V316.64ZM464.75 292.5V268.998L433.253 292.5H464.75ZM432.583 293H463.614L401.551 316.154L432.583 293ZM465.25 268.002V268.25H496.747L465.25 244.748V268.002ZM529.75 268.75V292.252L498.253 268.75H529.75ZM528.615 268.25H497.583L466.551 245.096L528.615 268.25ZM529.75 244.5V268.14L466.385 244.5H529.75Z" fill="#EEE9F0"/>
</g>
</g>
</g>
<defs>
<clipPath id="clip0_4287_271959">
<rect width="530" height="317" fill="white"/>
</clipPath>
</defs>
</svg>
