<svg width="80" height="80" viewBox="0 0 80 80" fill="none" xmlns="http://www.w3.org/2000/svg">
<path d="M38.0723 9.06022C39.2727 8.40004 40.7273 8.40004 41.9277 9.06022L76.8138 28.2476C78.1953 29.0074 78.1953 30.9926 76.8138 31.7524L41.9277 50.9398C40.7273 51.6 39.2727 51.6 38.0723 50.9398L3.18624 31.7524C1.80469 30.9926 1.80469 29.0074 3.18624 28.2476L38.0723 9.06022Z" fill="#76B82A"/>
<path d="M44.0625 41H39.2344V27.7812C39.2344 27.4167 39.2396 26.9688 39.25 26.4375C39.2604 25.8958 39.276 25.3438 39.2969 24.7812C39.3177 24.2083 39.3385 23.6927 39.3594 23.2344C39.2448 23.3698 39.0104 23.6042 38.6562 23.9375C38.3125 24.2604 37.9896 24.5521 37.6875 24.8125L35.0625 26.9219L32.7344 24.0156L40.0938 18.1562H44.0625V41Z" fill="white"/>
</svg>
