<svg width="80" height="80" viewBox="0 0 80 80" fill="none" xmlns="http://www.w3.org/2000/svg">
<path d="M39.5181 16.2651C39.8182 16.1 40.1818 16.1 40.4819 16.2651L78.4069 37.1238C79.0977 37.5037 79.0977 38.4963 78.4069 38.8762L40.4819 59.7349C40.1818 59.9 39.8182 59.9 39.5181 59.7349L1.59312 38.8762C0.902343 38.4963 0.902345 37.5037 1.59312 37.1238L39.5181 16.2651Z" stroke="#76B82A" stroke-linecap="round" stroke-dasharray="4 4"/>
<path opacity="0.5" d="M39.5181 24.2651C39.8182 24.1 40.1818 24.1 40.4819 24.2651L78.4069 45.1238C79.0977 45.5037 79.0977 46.4963 78.4069 46.8762L40.4819 67.7349C40.1818 67.9 39.8182 67.9 39.5181 67.7349L1.59312 46.8762C0.902343 46.4963 0.902345 45.5037 1.59312 45.1238L39.5181 24.2651Z" stroke="#76B82A" stroke-linecap="round" stroke-dasharray="4 4"/>
<path d="M38.0723 9.06022C39.2727 8.40004 40.7273 8.40004 41.9277 9.06022L76.8138 28.2476C78.1953 29.0074 78.1953 30.9926 76.8138 31.7524L41.9277 50.9398C40.7273 51.6 39.2727 51.6 38.0723 50.9398L3.18624 31.7524C1.80469 30.9926 1.80469 29.0074 3.18624 28.2476L38.0723 9.06022Z" fill="#76B82A"/>
<path d="M47.2031 23.2656C47.2031 24.3177 46.9844 25.2292 46.5469 26C46.1094 26.7708 45.5156 27.401 44.7656 27.8906C44.026 28.3802 43.1927 28.7396 42.2656 28.9688V29.0625C44.099 29.2917 45.4896 29.8542 46.4375 30.75C47.3958 31.6458 47.875 32.8438 47.875 34.3438C47.875 35.6771 47.5469 36.8698 46.8906 37.9219C46.2448 38.974 45.2448 39.8021 43.8906 40.4062C42.5365 41.0104 40.7917 41.3125 38.6562 41.3125C37.3958 41.3125 36.2188 41.2083 35.125 41C34.0417 40.8021 33.0208 40.4948 32.0625 40.0781V35.9688C33.0417 36.4688 34.0677 36.849 35.1406 37.1094C36.2135 37.3594 37.2135 37.4844 38.1406 37.4844C39.8698 37.4844 41.0781 37.1875 41.7656 36.5938C42.4635 35.9896 42.8125 35.1458 42.8125 34.0625C42.8125 33.4271 42.651 32.8906 42.3281 32.4531C42.0052 32.0156 41.4427 31.6823 40.6406 31.4531C39.849 31.224 38.7396 31.1094 37.3125 31.1094H35.5781V27.4062H37.3438C38.75 27.4062 39.8177 27.276 40.5469 27.0156C41.2865 26.7448 41.7865 26.3802 42.0469 25.9219C42.3177 25.4531 42.4531 24.9219 42.4531 24.3281C42.4531 23.5156 42.2031 22.8802 41.7031 22.4219C41.2031 21.9635 40.3698 21.7344 39.2031 21.7344C38.474 21.7344 37.8073 21.8281 37.2031 22.0156C36.6094 22.1927 36.0729 22.4115 35.5938 22.6719C35.1146 22.9219 34.6927 23.1667 34.3281 23.4062L32.0938 20.0781C32.9896 19.4323 34.0365 18.8958 35.2344 18.4688C36.4427 18.0417 37.8802 17.8281 39.5469 17.8281C41.901 17.8281 43.7656 18.3021 45.1406 19.25C46.5156 20.1979 47.2031 21.5365 47.2031 23.2656Z" fill="white"/>
</svg>
