<svg width="80" height="80" viewBox="0 0 80 80" fill="none" xmlns="http://www.w3.org/2000/svg">
<path d="M39.5181 16.2651C39.8182 16.1 40.1818 16.1 40.4819 16.2651L78.4069 37.1238C79.0977 37.5037 79.0977 38.4963 78.4069 38.8762L40.4819 59.7349C40.1818 59.9 39.8182 59.9 39.5181 59.7349L1.59312 38.8762C0.902343 38.4963 0.902345 37.5037 1.59312 37.1238L39.5181 16.2651Z" stroke="#76B82A" stroke-linecap="round" stroke-dasharray="4 4"/>
<path d="M38.0723 9.06022C39.2727 8.40004 40.7273 8.40004 41.9277 9.06022L76.8138 28.2476C78.1953 29.0074 78.1953 30.9926 76.8138 31.7524L41.9277 50.9398C40.7273 51.6 39.2727 51.6 38.0723 50.9398L3.18624 31.7524C1.80469 30.9926 1.80469 29.0074 3.18624 28.2476L38.0723 9.06022Z" fill="#76B82A"/>
<path d="M48.0938 41H32.125V37.6406L37.8594 31.8438C39.0156 30.6562 39.9427 29.6667 40.6406 28.875C41.349 28.0729 41.8594 27.3438 42.1719 26.6875C42.4948 26.0312 42.6562 25.3281 42.6562 24.5781C42.6562 23.6719 42.401 22.9948 41.8906 22.5469C41.3906 22.0885 40.7188 21.8594 39.875 21.8594C38.9896 21.8594 38.1302 22.0625 37.2969 22.4688C36.4635 22.875 35.5938 23.4531 34.6875 24.2031L32.0625 21.0938C32.7188 20.5312 33.4115 20 34.1406 19.5C34.8802 19 35.7344 18.599 36.7031 18.2969C37.6823 17.9844 38.8542 17.8281 40.2188 17.8281C41.7188 17.8281 43.0052 18.099 44.0781 18.6406C45.1615 19.1823 45.9948 19.9219 46.5781 20.8594C47.1615 21.7865 47.4531 22.8385 47.4531 24.0156C47.4531 25.276 47.2031 26.4271 46.7031 27.4688C46.2031 28.5104 45.474 29.5417 44.5156 30.5625C43.5677 31.5833 42.4219 32.7135 41.0781 33.9531L38.1406 36.7188V36.9375H48.0938V41Z" fill="white"/>
</svg>
