<svg width="530" height="317" viewBox="0 0 530 317" fill="none" xmlns="http://www.w3.org/2000/svg">
<g clip-path="url(#clip0_4287_420879)">
<g opacity="0.9">
<path opacity="0.1" d="M465 0.5L400 49V97.5L465 73.25V0.5Z" fill="#C6C7E2"/>
<path opacity="0.4" d="M465 0.5L530 24.75V97.5L465 73.25V0.5Z" fill="#C6C7E2"/>
<path opacity="0.4" d="M464 24.5L530 48.5V72.5L464 24.5Z" fill="#C6C7E2"/>
<path opacity="0.4" d="M465 48.5V72.8377L400 97.5L465 48.5Z" fill="#C6C7E2"/>
<path opacity="0.2" fill-rule="evenodd" clip-rule="evenodd" d="M465.087 0.26565L464.96 0.218018L464.851 0.299511L432.417 24.4999H400H399.75V24.7499V48.7499V48.8745V48.9999V49.2499V73.2499V73.4999V97.4999H399.96L400.087 97.7338L465 73.5163L529.913 97.7339L530.25 97.4999H530.25V24.7499V24.5763L530.25 24.4999H530.045L465.087 0.26565ZM528.615 24.4999L465.04 0.781743L433.253 24.4999H464.75H465H465.25H528.615ZM431.747 24.9999H400.25V48.5014L431.747 24.9999ZM400.753 48.7499L432.583 24.9999H464.75V48.7499H400.753ZM400.25 49.2499V72.9999H432.417L464.247 49.2499H400.25ZM400.25 73.4999V97.0012L431.747 73.4999H400.25ZM465.25 72.9994L529.247 72.9996L497.417 49.2499H465.25V72.9994ZM529.75 97.1396L466.387 73.4999H529.75V97.1396ZM464.75 72.9999V49.4983L433.253 72.9999H464.75ZM432.583 73.4999H463.614L401.551 96.654L432.583 73.4999ZM465.25 48.5014V48.7499H496.747L465.25 25.2483V48.5014ZM529.75 49.2499V72.7514L498.253 49.2499H529.75ZM528.615 48.7499H497.583L466.551 25.5955L528.615 48.7499ZM529.75 24.9999V48.6398L466.385 24.9999H529.75Z" fill="#898BC2"/>
</g>
<g opacity="0.6">
<g opacity="0.8">
<path opacity="0.1" d="M335 73.5L270 122V170.5L335 146.25V73.5Z" fill="#C6C7E2"/>
<path opacity="0.4" d="M335 73.5L400 97.75V170.5L335 146.25V73.5Z" fill="#C6C7E2"/>
<path opacity="0.4" d="M334 97.5L400 121.5V145.5L334 97.5Z" fill="#C6C7E2"/>
<path opacity="0.4" d="M335 121.5V145.838L270 170.5L335 121.5Z" fill="#C6C7E2"/>
<path opacity="0.2" fill-rule="evenodd" clip-rule="evenodd" d="M335.087 73.2657L334.96 73.218L334.851 73.2995L302.417 97.4999H270H269.75V97.7499V121.75V121.874V122V122.25V146.25V146.5V170.5H269.96L270.087 170.734L335 146.516L399.913 170.734L400.25 170.5H400.25V97.7499V97.5763L400.25 97.4999H400.045L335.087 73.2657ZM398.615 97.4999L335.04 73.7817L303.253 97.4999H334.75H335H335.25H398.615ZM301.747 97.9999H270.25V121.501L301.747 97.9999ZM270.753 121.75L302.583 97.9999H334.75V121.75H270.753ZM270.25 122.25V146H302.417L334.247 122.25H270.25ZM270.25 146.5V170.001L301.747 146.5H270.25ZM335.25 145.999L399.247 146L367.417 122.25H335.25V145.999ZM399.75 170.14L336.387 146.5H399.75V170.14ZM334.75 146V122.498L303.253 146H334.75ZM302.583 146.5H333.614L271.551 169.654L302.583 146.5ZM335.25 121.501V121.75H366.747L335.25 98.2483V121.501ZM399.75 122.25V145.751L368.253 122.25H399.75ZM398.615 121.75H367.583L336.551 98.5955L398.615 121.75ZM399.75 97.9999V121.64L336.385 97.9999H399.75Z" fill="#898BC2"/>
</g>
<path opacity="0.1" d="M465 73.5L400 122V170.5L465 146.25V73.5Z" fill="#C6C7E2"/>
<path opacity="0.4" d="M465 73.5L530 97.75V170.5L465 146.25V73.5Z" fill="#C6C7E2"/>
<path opacity="0.4" d="M464 97.5L530 121.5V145.5L464 97.5Z" fill="#C6C7E2"/>
<path opacity="0.4" d="M465 121.5V145.838L400 170.5L465 121.5Z" fill="#C6C7E2"/>
<path opacity="0.2" fill-rule="evenodd" clip-rule="evenodd" d="M465.087 73.2657L464.96 73.218L464.851 73.2995L432.417 97.4999H400H399.75V97.7499V121.75V121.874V122V122.25V146.25V146.5V170.5H399.96L400.087 170.734L465 146.516L529.913 170.734L530.25 170.5H530.25V97.7499V97.5763L530.25 97.4999H530.045L465.087 73.2657ZM528.615 97.4999L465.04 73.7817L433.253 97.4999H464.75H465H465.25H528.615ZM431.747 97.9999H400.25V121.501L431.747 97.9999ZM400.753 121.75L432.583 97.9999H464.75V121.75H400.753ZM400.25 122.25V146H432.417L464.247 122.25H400.25ZM400.25 146.5V170.001L431.747 146.5H400.25ZM465.25 145.999L529.247 146L497.417 122.25H465.25V145.999ZM529.75 170.14L466.387 146.5H529.75V170.14ZM464.75 146V122.498L433.253 146H464.75ZM432.583 146.5H463.614L401.551 169.654L432.583 146.5ZM465.25 121.501V121.75H496.747L465.25 98.2483V121.501ZM529.75 122.25V145.751L498.253 122.25H529.75ZM528.615 121.75H497.583L466.551 98.5955L528.615 121.75ZM529.75 97.9999V121.64L466.385 97.9999H529.75Z" fill="#898BC2"/>
</g>
<g opacity="0.5">
<path opacity="0.1" d="M205 146.5L140 195V243.5L205 219.25V146.5Z" fill="#C6C7E2"/>
<path opacity="0.4" d="M205 146.5L270 170.75V243.5L205 219.25V146.5Z" fill="#C6C7E2"/>
<path opacity="0.4" d="M204 170.5L270 194.5V218.5L204 170.5Z" fill="#C6C7E2"/>
<path opacity="0.4" d="M205 194.5V218.838L140 243.5L205 194.5Z" fill="#C6C7E2"/>
<path opacity="0.2" fill-rule="evenodd" clip-rule="evenodd" d="M205.087 146.266L204.96 146.218L204.851 146.3L172.417 170.5H140H139.75V170.75V194.75V194.874V195V195.25V219.25V219.5V243.5H139.96L140.087 243.734L205 219.516L269.913 243.734L270.25 243.5H270.25V170.75V170.576L270.25 170.5H270.045L205.087 146.266ZM268.615 170.5L205.04 146.782L173.253 170.5H204.75H205H205.25H268.615ZM171.747 171H140.25V194.501L171.747 171ZM140.753 194.75L172.583 171H204.75V194.75H140.753ZM140.25 195.25V219H172.417L204.247 195.25H140.25ZM140.25 219.5V243.001L171.747 219.5H140.25ZM205.25 218.999L269.247 219L237.417 195.25H205.25V218.999ZM269.75 243.14L206.387 219.5H269.75V243.14ZM204.75 219V195.498L173.253 219H204.75ZM172.583 219.5H203.614L141.551 242.654L172.583 219.5ZM205.25 194.501V194.75H236.747L205.25 171.248V194.501ZM269.75 195.25V218.751L238.253 195.25H269.75ZM268.615 194.75H237.583L206.551 171.595L268.615 194.75ZM269.75 171V194.64L206.385 171H269.75Z" fill="#898BC2"/>
<path opacity="0.1" d="M335 146.5L270 195V243.5L335 219.25V146.5Z" fill="#C6C7E2"/>
<path opacity="0.4" d="M335 146.5L400 170.75V243.5L335 219.25V146.5Z" fill="#C6C7E2"/>
<path opacity="0.4" d="M334 170.5L400 194.5V218.5L334 170.5Z" fill="#C6C7E2"/>
<path opacity="0.4" d="M335 194.5V218.838L270 243.5L335 194.5Z" fill="#C6C7E2"/>
<path opacity="0.2" fill-rule="evenodd" clip-rule="evenodd" d="M335.087 146.266L334.96 146.218L334.851 146.3L302.417 170.5H270H269.75V170.75V194.75V194.874V195V195.25V219.25V219.5V243.5H269.96L270.087 243.734L335 219.516L399.913 243.734L400.25 243.5H400.25V170.75V170.576L400.25 170.5H400.045L335.087 146.266ZM398.615 170.5L335.04 146.782L303.253 170.5H334.75H335H335.25H398.615ZM301.747 171H270.25V194.501L301.747 171ZM270.753 194.75L302.583 171H334.75V194.75H270.753ZM270.25 195.25V219H302.417L334.247 195.25H270.25ZM270.25 219.5V243.001L301.747 219.5H270.25ZM335.25 218.999L399.247 219L367.417 195.25H335.25V218.999ZM399.75 243.14L336.387 219.5H399.75V243.14ZM334.75 219V195.498L303.253 219H334.75ZM302.583 219.5H333.614L271.551 242.654L302.583 219.5ZM335.25 194.501V194.75H366.747L335.25 171.248V194.501ZM399.75 195.25V218.751L368.253 195.25H399.75ZM398.615 194.75H367.583L336.551 171.595L398.615 194.75ZM399.75 171V194.64L336.385 171H399.75Z" fill="#898BC2"/>
<path opacity="0.1" d="M465 146.5L400 195V243.5L465 219.25V146.5Z" fill="#C6C7E2"/>
<path opacity="0.4" d="M465 146.5L530 170.75V243.5L465 219.25V146.5Z" fill="#C6C7E2"/>
<path opacity="0.4" d="M464 170.5L530 194.5V218.5L464 170.5Z" fill="#C6C7E2"/>
<path opacity="0.4" d="M465 194.5V218.838L400 243.5L465 194.5Z" fill="#C6C7E2"/>
<path opacity="0.2" fill-rule="evenodd" clip-rule="evenodd" d="M465.087 146.266L464.96 146.218L464.851 146.3L432.417 170.5H400H399.75V170.75V194.75V194.874V195V195.25V219.25V219.5V243.5H399.96L400.087 243.734L465 219.516L529.913 243.734L530.25 243.5H530.25V170.75V170.576L530.25 170.5H530.045L465.087 146.266ZM528.615 170.5L465.04 146.782L433.253 170.5H464.75H465H465.25H528.615ZM431.747 171H400.25V194.501L431.747 171ZM400.753 194.75L432.583 171H464.75V194.75H400.753ZM400.25 195.25V219H432.417L464.247 195.25H400.25ZM400.25 219.5V243.001L431.747 219.5H400.25ZM465.25 218.999L529.247 219L497.417 195.25H465.25V218.999ZM529.75 243.14L466.387 219.5H529.75V243.14ZM464.75 219V195.498L433.253 219H464.75ZM432.583 219.5H463.614L401.551 242.654L432.583 219.5ZM465.25 194.501V194.75H496.747L465.25 171.248V194.501ZM529.75 195.25V218.751L498.253 195.25H529.75ZM528.615 194.75H497.583L466.551 171.595L528.615 194.75ZM529.75 171V194.64L466.385 171H529.75Z" fill="#898BC2"/>
</g>
<g opacity="0.4">
<path opacity="0.1" d="M75 219.5L10 268V316.5L75 292.25V219.5Z" fill="#C6C7E2"/>
<path opacity="0.4" d="M75 219.5L140 243.75V316.5L75 292.25V219.5Z" fill="#C6C7E2"/>
<path opacity="0.4" d="M74 243.5L140 267.5V291.5L74 243.5Z" fill="#C6C7E2"/>
<path opacity="0.4" d="M75 267.5V291.838L10 316.5L75 267.5Z" fill="#C6C7E2"/>
<path opacity="0.2" fill-rule="evenodd" clip-rule="evenodd" d="M75.0874 219.266L74.9597 219.218L74.8505 219.3L42.417 243.5H10H9.75V243.75V267.75V267.874V268V268.25V292.25V292.5V316.5H9.95986L10.0874 316.734L75.0003 292.516L139.913 316.734L140.25 316.5H140.25V243.75V243.576L140.25 243.5H140.045L75.0874 219.266ZM138.615 243.5L75.0403 219.782L43.2531 243.5H74.75H75H75.25H138.615ZM41.7469 244H10.25V267.501L41.7469 244ZM10.7531 267.75L42.583 244H74.75V267.75H10.7531ZM10.25 268.25V292H42.4168L74.2469 268.25H10.25ZM10.25 292.5V316.001L41.7467 292.5H10.25ZM75.25 291.999L139.247 292L107.417 268.25H75.25V291.999ZM139.75 316.14L76.3866 292.5H139.75V316.14ZM74.75 292V268.498L43.2529 292H74.75ZM42.5828 292.5H73.6139L11.5513 315.654L42.5828 292.5ZM75.25 267.501V267.75H106.747L75.25 244.248V267.501ZM139.75 268.25V291.751L108.253 268.25H139.75ZM138.615 267.75H107.583L76.5513 244.595L138.615 267.75ZM139.75 244V267.64L76.3853 244H139.75Z" fill="#898BC2"/>
<path opacity="0.1" d="M205 219.5L140 268V316.5L205 292.25V219.5Z" fill="#C6C7E2"/>
<path opacity="0.4" d="M205 219.5L270 243.75V316.5L205 292.25V219.5Z" fill="#C6C7E2"/>
<path opacity="0.4" d="M204 243.5L270 267.5V291.5L204 243.5Z" fill="#C6C7E2"/>
<path opacity="0.4" d="M205 267.5V291.838L140 316.5L205 267.5Z" fill="#C6C7E2"/>
<path opacity="0.2" fill-rule="evenodd" clip-rule="evenodd" d="M205.087 219.266L204.96 219.218L204.851 219.3L172.417 243.5H140H139.75V243.75V267.75V267.874V268V268.25V292.25V292.5V316.5H139.96L140.087 316.734L205 292.516L269.913 316.734L270.25 316.5H270.25V243.75V243.576L270.25 243.5H270.045L205.087 219.266ZM268.615 243.5L205.04 219.782L173.253 243.5H204.75H205H205.25H268.615ZM171.747 244H140.25V267.501L171.747 244ZM140.753 267.75L172.583 244H204.75V267.75H140.753ZM140.25 268.25V292H172.417L204.247 268.25H140.25ZM140.25 292.5V316.001L171.747 292.5H140.25ZM205.25 291.999L269.247 292L237.417 268.25H205.25V291.999ZM269.75 316.14L206.387 292.5H269.75V316.14ZM204.75 292V268.498L173.253 292H204.75ZM172.583 292.5H203.614L141.551 315.654L172.583 292.5ZM205.25 267.501V267.75H236.747L205.25 244.248V267.501ZM269.75 268.25V291.751L238.253 268.25H269.75ZM268.615 267.75H237.583L206.551 244.595L268.615 267.75ZM269.75 244V267.64L206.385 244H269.75Z" fill="#898BC2"/>
<path opacity="0.1" d="M335 219.5L270 268V316.5L335 292.25V219.5Z" fill="#C6C7E2"/>
<path opacity="0.4" d="M335 219.5L400 243.75V316.5L335 292.25V219.5Z" fill="#C6C7E2"/>
<path opacity="0.4" d="M334 243.5L400 267.5V291.5L334 243.5Z" fill="#C6C7E2"/>
<path opacity="0.4" d="M335 267.5V291.838L270 316.5L335 267.5Z" fill="#C6C7E2"/>
<path opacity="0.2" fill-rule="evenodd" clip-rule="evenodd" d="M335.087 219.266L334.96 219.218L334.851 219.3L302.417 243.5H270H269.75V243.75V267.75V267.874V268V268.25V292.25V292.5V316.5H269.96L270.087 316.734L335 292.516L399.913 316.734L400.25 316.5H400.25V243.75V243.576L400.25 243.5H400.045L335.087 219.266ZM398.615 243.5L335.04 219.782L303.253 243.5H334.75H335H335.25H398.615ZM301.747 244H270.25V267.501L301.747 244ZM270.753 267.75L302.583 244H334.75V267.75H270.753ZM270.25 268.25V292H302.417L334.247 268.25H270.25ZM270.25 292.5V316.001L301.747 292.5H270.25ZM335.25 291.999L399.247 292L367.417 268.25H335.25V291.999ZM399.75 316.14L336.387 292.5H399.75V316.14ZM334.75 292V268.498L303.253 292H334.75ZM302.583 292.5H333.614L271.551 315.654L302.583 292.5ZM335.25 267.501V267.75H366.747L335.25 244.248V267.501ZM399.75 268.25V291.751L368.253 268.25H399.75ZM398.615 267.75H367.583L336.551 244.595L398.615 267.75ZM399.75 244V267.64L336.385 244H399.75Z" fill="#898BC2"/>
<path opacity="0.1" d="M465 219.5L400 268V316.5L465 292.25V219.5Z" fill="#C6C7E2"/>
<path opacity="0.4" d="M465 219.5L530 243.75V316.5L465 292.25V219.5Z" fill="#C6C7E2"/>
<path opacity="0.4" d="M464 243.5L530 267.5V291.5L464 243.5Z" fill="#C6C7E2"/>
<path opacity="0.4" d="M465 267.5V291.838L400 316.5L465 267.5Z" fill="#C6C7E2"/>
<path opacity="0.2" fill-rule="evenodd" clip-rule="evenodd" d="M465.087 219.266L464.96 219.218L464.851 219.3L432.417 243.5H400H399.75V243.75V267.75V267.874V268V268.25V292.25V292.5V316.5H399.96L400.087 316.734L465 292.516L529.913 316.734L530.25 316.5H530.25V243.75V243.576L530.25 243.5H530.045L465.087 219.266ZM528.615 243.5L465.04 219.782L433.253 243.5H464.75H465H465.25H528.615ZM431.747 244H400.25V267.501L431.747 244ZM400.753 267.75L432.583 244H464.75V267.75H400.753ZM400.25 268.25V292H432.417L464.247 268.25H400.25ZM400.25 292.5V316.001L431.747 292.5H400.25ZM465.25 291.999L529.247 292L497.417 268.25H465.25V291.999ZM529.75 316.14L466.387 292.5H529.75V316.14ZM464.75 292V268.498L433.253 292H464.75ZM432.583 292.5H463.614L401.551 315.654L432.583 292.5ZM465.25 267.501V267.75H496.747L465.25 244.248V267.501ZM529.75 268.25V291.751L498.253 268.25H529.75ZM528.615 267.75H497.583L466.551 244.595L528.615 267.75ZM529.75 244V267.64L466.385 244H529.75Z" fill="#898BC2"/>
</g>
</g>
<defs>
<clipPath id="clip0_4287_420879">
<rect width="530" height="317" fill="white"/>
</clipPath>
</defs>
</svg>
