<svg xmlns="http://www.w3.org/2000/svg" xmlns:xlink="http://www.w3.org/1999/xlink"><symbol fill="none" viewBox="0 0 128 20" id="nash-store" xmlns="http://www.w3.org/2000/svg"><g clip-path="url(#clip0_2085_2680)"><path d="M38.7 16.294h.44V4.516h-1.377v5.512l.147 3.368-7.476-8.862h-.478v11.74h1.36V10.63l-.11-3.217 7.493 8.88Zm10.615-2.917 1.341 2.898h1.415v-.188l-5.29-11.61h-.625l-5.344 11.61v.188h1.432l1.34-2.898h5.731ZM46.45 6.68l2.406 5.494h-4.812L46.45 6.68Zm6.337 6.397c.073 2.409 2.48 3.462 4.61 3.406 2.075-.057 4.445-.96 4.445-3.481 0-2.596-2.13-3.03-4.408-3.293-1.396-.188-3.05-.244-3.05-1.994 0-1.543 1.58-2.088 2.83-2.126 1.303 0 2.846.47 2.975 1.957h1.285c-.073-2.277-2.314-3.274-4.297-3.218-2.02 0-4.17 1.092-4.17 3.406 0 2.352 2.094 2.897 4.17 3.123 1.56.226 3.287.245 3.287 2.145-.055 1.712-1.745 2.201-3.104 2.258-1.414 0-3.177-.602-3.27-2.183h-1.322.019Zm20.13 3.199V4.535H71.54v4.948h-6.062V4.534H64.12v11.74h1.36v-5.512h6.06v5.513h1.378Zm5.014-3.594h-2.828c-.074 5.174 9.275 5.043 9.275.094 0-2.935-2.222-3.236-4.5-3.5-1.028-.112-1.892-.3-1.818-1.185.092-1.392 3.177-1.524 3.177.038h2.792c.074-5.061-8.853-5.061-8.743 0 .037 2.559 1.672 3.424 4.17 3.612 1.138.076 2.094.207 2.094 1.016 0 1.374-3.582 1.412-3.582-.075h-.037Zm10.267-5.475v9.069h2.903V7.206h2.81v-2.69h-8.523v2.69h2.81Zm18.588 3.199c0-8.128-11.773-8.128-11.773 0 0 8.146 11.773 8.146 11.773 0Zm-8.743 0c0-4.234 5.749-4.234 5.749 0 0 4.27-5.749 4.27-5.749 0Zm18.404 1.693c2.902-2.013 2.075-7.564-2.424-7.582h-5.033v11.74h2.939v-3.462h1.524l1.965 3.462h3.27v-.433l-2.241-3.725Zm-2.424-1.995h-2.094V7.207c.679 0 1.414-.019 2.094 0 1.671.019 1.597 2.897 0 2.897Zm13.591-5.587h-7.163v11.74h7.31v-2.672h-4.39v-2.07h3.894V8.844h-3.894V7.187h4.243v-2.69.019Z" fill="#434242"/><path d="M19.726.865a.238.238 0 0 0-.202-.357h-3.802c-.184 0-.294.188-.202.357l1.892 3.368c.092.15.312.15.404 0l1.91-3.368ZM15.704 19.756a.238.238 0 0 0 .202.358h3.802c.183 0 .294-.189.202-.358L18 16.388a.237.237 0 0 0-.404 0l-1.91 3.368h.018ZM22.555 4.742c.183 0 .294-.188.202-.357l-1.91-3.368a.237.237 0 0 0-.405 0l-1.91 3.368a.238.238 0 0 0 .202.357h3.821ZM20.442 9.163c.092.15.313.15.404 0l1.91-3.368a.238.238 0 0 0-.201-.357h-3.802c-.184 0-.294.188-.202.357l1.91 3.368h-.019ZM25.42 9.84c.184 0 .294-.188.202-.357l-1.91-3.368a.237.237 0 0 0-.404 0l-1.91 3.368a.238.238 0 0 0 .201.357h3.821ZM23.326 14.262c.092.15.312.15.404 0l1.91-3.367a.238.238 0 0 0-.202-.358h-3.802c-.183 0-.294.188-.202.358l1.91 3.367h-.018ZM18.55 14.6a.238.238 0 0 0 .203.357h3.802c.183 0 .294-.188.202-.357l-1.91-3.368a.237.237 0 0 0-.405 0l-1.91 3.368h.019ZM20.442 19.36c.092.15.313.15.404 0l1.91-3.368a.238.238 0 0 0-.201-.357h-3.802c-.184 0-.294.188-.202.357l1.91 3.368h-.019Z" fill="#AE2B30"/><path d="M12.177.658a.238.238 0 0 0-.202-.357H8.173c-.183 0-.294.188-.202.357l1.892 3.368c.092.15.312.15.404 0l1.91-3.368ZM7.88 19.737a.238.238 0 0 0 .201.357h3.803c.183 0 .293-.188.201-.357l-1.91-3.368a.237.237 0 0 0-.404 0l-1.91 3.368h.018ZM14.95 4.723c.184 0 .295-.188.203-.358L13.243.998a.237.237 0 0 0-.405 0l-1.91 3.367a.238.238 0 0 0 .202.358h3.821ZM12.838 9.126c.092.15.313.15.405 0l1.91-3.368a.238.238 0 0 0-.202-.358h-3.802c-.184 0-.294.189-.202.358l1.91 3.368h-.019ZM17.816 9.823c.184 0 .294-.189.202-.358l-1.91-3.368a.237.237 0 0 0-.404 0l-1.91 3.368a.238.238 0 0 0 .201.358H17.816ZM15.722 14.225c.092.15.312.15.404 0l1.91-3.367a.238.238 0 0 0-.202-.358h-3.802c-.183 0-.293.188-.202.357l1.91 3.368h-.018ZM10.947 14.563a.238.238 0 0 0 .202.357h3.802c.183 0 .293-.188.202-.357l-1.91-3.368a.237.237 0 0 0-.405 0l-1.91 3.368h.019ZM12.838 19.323c.092.15.313.15.405 0l1.91-3.368a.238.238 0 0 0-.202-.357h-3.802c-.184 0-.294.188-.202.357l1.91 3.368h-.019Z" fill="#363789"/><path d="M4.867.527A.238.238 0 0 0 4.665.17H.863C.68.17.57.358.661.527l1.892 3.368c.092.15.312.15.404 0L4.867.527ZM.294 19.606a.238.238 0 0 0 .202.357h3.802c.183 0 .294-.188.202-.357l-1.91-3.368a.237.237 0 0 0-.404 0l-1.91 3.368h.018ZM7.75 4.592c.184 0 .295-.188.203-.357L6.043.867a.237.237 0 0 0-.405 0l-1.91 3.368a.238.238 0 0 0 .202.357h3.821ZM5.253 8.995c.092.15.312.15.404 0l1.91-3.368a.238.238 0 0 0-.202-.357H3.563c-.183 0-.294.188-.202.357l1.91 3.368h-.018ZM10.23 9.69c.184 0 .294-.188.202-.358l-1.91-3.368a.237.237 0 0 0-.404 0l-1.91 3.368a.238.238 0 0 0 .202.358h3.82ZM8.136 14.092c.092.151.313.151.405 0l1.91-3.367a.238.238 0 0 0-.202-.358H6.447c-.184 0-.294.188-.202.358l1.91 3.367h-.019ZM3.361 14.432a.238.238 0 0 0 .202.357h3.802c.184 0 .294-.188.202-.357l-1.91-3.368a.237.237 0 0 0-.404 0l-1.91 3.368h.018ZM5.253 19.192c.092.15.312.15.404 0l1.91-3.368a.238.238 0 0 0-.202-.357H3.563c-.183 0-.294.188-.202.357l1.91 3.368h-.018Z" fill="#D9DADA"/></g></symbol><symbol fill="none" viewBox="0 0 116 30" id="ru-market" xmlns="http://www.w3.org/2000/svg"><path d="M23.306 29H8.367a6.53 6.53 0 0 1-6.53-6.53V7.53A6.53 6.53 0 0 1 8.366 1h14.939a6.53 6.53 0 0 1 6.53 6.53v14.94a6.53 6.53 0 0 1-6.53 6.53Z" fill="#C22"/><path opacity=".8" d="M21.855 9.047h3.981v8.648s-.09 1.5-.751 2.395a4.79 4.79 0 0 1-.439.503l-.008.008h-.001c-.083.082-.34.324-.721.565-.462.29-.94.473-1.435.604-.275.072-.924.225-2.853.23a21.233 21.233 0 0 1-1.525-.042l-.004-1.032v-.124a3398.176 3398.176 0 0 1-.01-1.965v-.111l-.003-.934a1.318 1.318 0 0 0-.376-1.009c-.198-.207-.407-.303-.63-.407a3.103 3.103 0 0 0-.524-.184 5.525 5.525 0 0 0-1.289-.182c.26-.048 1.443-.298 2.19-1.382.371-.54.5-1.09.536-1.526l.005 3.848c.004.158.038.818.56 1.326a1.995 1.995 0 0 0 1.348.549h.036c1.056 0 1.913-.84 1.913-1.875V9.047ZM14.836 9a91.945 91.945 0 0 0 3.153.006l.004 3.412c-.024-.335-.132-1.432-1.048-2.355A3.827 3.827 0 0 0 14.836 9Z" fill="#fff"/><path d="M13.633 9v8.848c.004.3.038.818.244 1.397a1.305 1.305 0 0 0-.327-.433 2.455 2.455 0 0 0-.676-.435l-.012-.005-.024-.01c-.256-.105-.53-.169-1.167-.232a17.409 17.409 0 0 0-1.41-.083c.01 1.318.02 2.635.032 3.953l-3.457-.005V9h6.797Zm.665 0 .18.003c.362.055 1.341.254 2.168 1.066a3.654 3.654 0 0 1 1.073 2.31v.786c-.044.428-.18.958-.548 1.48-.767 1.086-1.984 1.337-2.25 1.386a5.82 5.82 0 0 1 1.325.181c.24.063.402.124.538.185.23.104.445.2.648.408a1.292 1.292 0 0 1 .387 1.011 6544.905 6544.905 0 0 0 .012 2.976v.165l.005 1.035c-.622-.043-.878-.11-1.03-.155-.843-.244-1.346-.595-1.519-.722a4.213 4.213 0 0 1-.862-.848 3.808 3.808 0 0 1-.477-.839 1.326 1.326 0 0 0-.071-.183 4.342 4.342 0 0 1-.244-1.397V9h.665Zm-.421 10.245c.042.068.07.131.09.183a3.527 3.527 0 0 1-.09-.183Zm1.233-6.449-4.416-2.083c-.25-.117-.546.057-.546.326V15.2c0 .269.296.443.546.325l4.416-2.083a.353.353 0 0 0 0-.647Z" fill="#fff"/><path d="M111.804 21.082c-.971 0-1.67-.208-2.096-.624-.416-.416-.624-1.088-.624-2.016v-4.416h-1.2v-1.504h1.2v-1.92h1.76v1.92h2.16v1.504h-2.16v4.176c0 .5.09.853.272 1.056.192.192.554.288 1.088.288.32 0 .64-.016.96-.048v1.504c-.203.02-.411.037-.624.048a7.507 7.507 0 0 1-.736.032ZM103.083 21.178a4.93 4.93 0 0 1-1.6-.256 3.917 3.917 0 0 1-1.328-.8 3.975 3.975 0 0 1-.896-1.36c-.224-.544-.336-1.184-.336-1.92v-.32c0-.704.106-1.318.32-1.84.213-.523.501-.955.864-1.296.373-.352.8-.614 1.28-.784a4.55 4.55 0 0 1 1.536-.256c1.291 0 2.277.346 2.96 1.04.693.693 1.04 1.685 1.04 2.976v.896h-6.208c.011.437.08.81.208 1.12.139.298.315.544.528.736.224.181.475.314.752.4.288.085.581.128.88.128.608 0 1.051-.096 1.328-.288.288-.192.485-.443.592-.752h1.76c-.171.842-.592 1.482-1.264 1.92-.661.437-1.467.656-2.416.656Zm-.08-7.296c-.299 0-.587.037-.864.112a2 2 0 0 0-.72.368c-.203.16-.368.373-.496.64-.128.256-.197.57-.208.944h4.448c-.011-.395-.075-.726-.192-.992a1.577 1.577 0 0 0-.448-.64 1.661 1.661 0 0 0-.688-.336 3.422 3.422 0 0 0-.832-.096ZM90.75 9.8h1.76v6.417l3.52-3.696h2.08l-3.424 3.6L98.43 21h-2.112l-2.8-3.76-1.008 1.024V21h-1.76V9.8ZM84.676 12.522h1.632v1.44c.17-.438.448-.816.832-1.136.394-.32.88-.48 1.456-.48.266 0 .464.01.592.032.138.021.234.042.288.064v1.6a3.563 3.563 0 0 0-.496-.112 2.64 2.64 0 0 0-.544-.048c-.352 0-.656.064-.912.192a1.69 1.69 0 0 0-.608.48c-.16.192-.283.421-.368.688a2.842 2.842 0 0 0-.112.8v4.96h-1.76v-8.48ZM78.191 21.178c-.459 0-.87-.064-1.232-.192a2.722 2.722 0 0 1-.896-.56 2.502 2.502 0 0 1-.56-.848 2.819 2.819 0 0 1-.192-1.056c0-.843.25-1.467.752-1.872.501-.416 1.237-.624 2.208-.624h2.64v-.464c0-.64-.144-1.078-.432-1.312-.277-.246-.72-.368-1.328-.368-.544 0-.944.085-1.2.256a.98.98 0 0 0-.448.704h-1.712a2.37 2.37 0 0 1 .272-.992c.17-.31.4-.576.688-.8a3.227 3.227 0 0 1 1.072-.512 4.782 4.782 0 0 1 1.408-.192c.523 0 .992.058 1.408.176.427.117.79.304 1.088.56.299.245.528.565.688.96.17.394.256.869.256 1.424v3.376c0 .448.005.842.016 1.184.01.33.037.656.08.976h-1.6a127.36 127.36 0 0 1-.08-.624 10.63 10.63 0 0 1-.016-.64c-.203.394-.555.736-1.056 1.024-.49.277-1.099.416-1.824.416Zm.48-1.536c.299 0 .581-.038.848-.112.277-.086.517-.203.72-.352.203-.16.363-.352.48-.576.128-.235.192-.502.192-.8v-.464h-2.32c-.448 0-.81.096-1.088.288-.267.192-.4.474-.4.848 0 .352.123.634.368.848.256.213.656.32 1.2.32ZM62.269 9.8h1.984l3.568 6.64 3.568-6.64h1.92V21h-1.92v-7.84l-2.96 5.52h-1.28l-2.96-5.52V21h-1.92V9.8ZM55.553 21.177c-1.002 0-1.76-.287-2.272-.863-.512-.587-.768-1.478-.768-2.672v-5.12h1.76v4.96c0 .714.144 1.253.432 1.616.299.362.768.544 1.408.544.352 0 .65-.06.896-.177a1.66 1.66 0 0 0 .624-.48c.16-.202.277-.431.352-.688.086-.266.128-.538.128-.816v-4.96h1.76v8.48h-1.632v-1.44c-.203.438-.533.817-.992 1.137-.448.32-1.013.48-1.696.48ZM42.276 9.8h4.24c.704 0 1.318.086 1.84.257.534.17.976.41 1.328.72.352.31.619.677.8 1.104.182.426.272.896.272 1.408 0 .768-.208 1.434-.624 2-.416.554-1.04.954-1.872 1.2L51.076 21h-2.112l-2.48-4.288h-2.288V21h-1.92V9.8Zm3.92 5.313c.982 0 1.664-.16 2.048-.48.395-.32.592-.768.592-1.344 0-.576-.197-1.024-.592-1.344-.384-.32-1.066-.48-2.048-.48h-2v3.648h2Z" fill="#000"/></symbol><symbol fill="none" viewBox="0 0 110 28" id="ru-store" xmlns="http://www.w3.org/2000/svg"><g clip-path="url(#clip0_2085_2651)"><path fill-rule="evenodd" clip-rule="evenodd" d="M13.692 28c-6.219 0-9.328 0-11.26-1.968C.5 24.064.5 20.896.5 14.56v-1.12c0-6.336 0-9.504 1.932-11.472S7.473 0 13.692 0h1.1c6.219 0 9.328 0 11.26 1.968 1.932 1.968 1.932 5.136 1.932 11.472v1.12c0 6.336 0 9.504-1.932 11.472S21.011 28 14.792 28h-1.1Z" fill="#07F"/><path d="M16.393 17.255a1.684 1.684 0 0 1-1.26-1.637V6.5c0-.88.816-1.524 1.657-1.31l5.326 1.355c.74.189 1.26.864 1.26 1.637v9.119c0 .879-.816 1.524-1.657 1.31l-5.326-1.356ZM6.368 21.454a1.684 1.684 0 0 1-1.26-1.637V10.7c0-.88.816-1.524 1.657-1.31l5.327 1.356c.74.188 1.26.863 1.26 1.637V21.5c0 .88-.816 1.524-1.657 1.31l-5.327-1.355Z" fill="#fff"/><path d="M11.38 19.355a1.684 1.684 0 0 1-1.26-1.637V8.599c0-.879.816-1.524 1.657-1.31l5.327 1.356c.74.188 1.26.863 1.26 1.637v9.119c0 .879-.816 1.523-1.657 1.31l-5.326-1.356Z" fill="#fff"/><path d="M14.867 20.244a.55.55 0 0 1-.408-.515l-.231-6.964c-.067-.921-.739-1.655-1.44-1.87a.094.094 0 0 0-.106.038.083.083 0 0 0 .019.11c.173.137.65.583.65 1.352l-.001 7.458 1.517.391ZM19.88 18.142a.546.546 0 0 1-.407-.513l-.232-6.964c-.067-.921-.738-1.654-1.44-1.87a.093.093 0 0 0-.105.039.083.083 0 0 0 .019.11c.173.136.65.582.65 1.351l-.002 7.46 1.517.387Z" fill="#2B71F6"/><path d="M43.806 16.085c2.081-.54 3.449-2.162 3.449-4.284 0-2.623-2.062-4.465-4.956-4.465h-5.153V21.45h2.378v-5.186h1.685l3.687 5.186h2.795l-3.885-5.366Zm-1.507-6.547c1.487 0 2.518.921 2.518 2.263 0 1.341-1.031 2.262-2.518 2.262h-2.775V9.538H42.3ZM53.044 21.652c1.25 0 2.399-.66 3.053-1.762l.456 1.562h1.705V11.041h-2.28v6.026c0 1.482-.971 2.523-2.3 2.523-1.307 0-2.22-1.04-2.22-2.523v-6.026H49.18v6.287c0 2.503 1.665 4.324 3.865 4.324ZM65.532 21.652c2.637 0 4.817-1.521 4.817-4.044 0-2.823-2.28-3.644-4.242-4.325-1.526-.52-2.854-1-2.854-2.262 0-1.101 1.01-1.682 2.2-1.682 1.25 0 2.141.66 2.637 1.782l2.26-.38c-.714-2.203-2.518-3.604-4.976-3.604-2.537 0-4.56 1.481-4.56 4.004 0 2.843 2.28 3.624 4.243 4.285 1.506.5 2.854.98 2.854 2.262 0 1.121-1.01 1.762-2.359 1.762-1.546 0-2.378-.74-3.112-2.082l-2.3.4c.675 2.383 2.816 3.884 5.392 3.884ZM76.55 19.45c-.772 0-1.15-.381-1.15-1.162v-5.245h3.073V11.04h-3.072V8.037h-1.705l-.575 3.003h-1.684v2.003h1.684v5.245c0 2.042 1.17 3.163 3.43 3.163h1.922l.198-2.002h-2.12ZM85.185 21.651c3.231 0 5.51-2.242 5.51-5.405 0-3.164-2.279-5.406-5.51-5.406-3.23 0-5.51 2.242-5.51 5.406 0 3.163 2.28 5.405 5.51 5.405Zm0-2.102c-1.863 0-3.132-1.341-3.132-3.303s1.27-3.304 3.132-3.304c1.864 0 3.132 1.341 3.132 3.304 0 1.962-1.268 3.303-3.132 3.303ZM94.957 21.452v-6.146c0-1.322.634-2.063 2.022-2.063h1.308l-.198-2.202h-.436c-1.21 0-2.141.34-2.835 1.502l-.436-1.502h-1.704v10.411h2.28ZM109.504 16.125c0-3.003-2.22-5.285-5.352-5.285S98.8 13.102 98.8 16.246c0 3.143 2.22 5.405 5.352 5.405 2.141 0 4.163-1.02 4.936-3.003l-2.141-.36c-.495.74-1.447 1.261-2.656 1.261-1.744 0-2.894-1.081-3.112-2.683h8.285c.02-.22.04-.46.04-.74Zm-5.352-3.283c1.427 0 2.498.921 2.874 2.222h-5.708c.376-1.341 1.447-2.222 2.834-2.222Z" fill="#000"/></g></symbol></svg>