<svg width="946" height="412" viewBox="0 0 946 412" fill="none" xmlns="http://www.w3.org/2000/svg">
<g opacity="0.3">
<path d="M266.068 -33.1758V171.347" stroke="#7275B6" stroke-width="1.19305" stroke-dasharray="3.58 3.58"/>
<path d="M353.479 16.933H182.873L268.176 -37.9473" stroke="#7275B6" stroke-width="1.19305" stroke-dasharray="3.58 3.58"/>
<path d="M173.33 117.148H349.901L262.733 169.643" stroke="#7275B6" stroke-width="1.19305" stroke-dasharray="3.58 3.58"/>
<rect x="264.912" y="-36.757" width="106.181" height="178.645" transform="rotate(30.6412 264.912 -36.757)" stroke="#7275B6" stroke-width="1.19305" stroke-dasharray="3.58 3.58"/>
<path d="M266.068 18.125V222.648" stroke="#7275B6" stroke-width="1.19305"/>
<path opacity="0.2" d="M181.084 71.2162H233.578L247.895 43.7761L262.808 16.3359L181.084 71.2162Z" fill="url(#paint0_linear_3779_280188)"/>
<path opacity="0.4" d="M296.809 172.027L268.176 220.346L302.178 199.467L348.11 172.027H296.809Z" fill="url(#paint1_linear_3779_280188)"/>
<path d="M357.06 70.9053H181.682L266.388 15.1426" stroke="#7275B6" stroke-width="1.19305"/>
<path d="M176.535 172.066H348.444L265.934 220.448" stroke="#7275B6" stroke-width="1.19305"/>
<path opacity="0.2" d="M264.703 13.7266L358.218 69.1218L266.562 223.85L173.927 172.028L264.703 13.7266Z" fill="url(#paint2_linear_3779_280188)"/>
<path d="M266.345 223.045L174.745 171.802L264.92 14.5481L357.401 69.331L266.345 223.045Z" stroke="#E3E3F9" stroke-width="1.19305"/>
<path d="M438.609 -33.1758V171.347" stroke="#7275B6" stroke-width="1.19305" stroke-dasharray="3.58 3.58"/>
<path d="M526.02 16.933H355.414L440.717 -37.9473" stroke="#7275B6" stroke-width="1.19305" stroke-dasharray="3.58 3.58"/>
<path d="M345.871 117.148H522.442L435.274 169.643" stroke="#7275B6" stroke-width="1.19305" stroke-dasharray="3.58 3.58"/>
<rect x="437.453" y="-36.757" width="106.181" height="178.645" transform="rotate(30.6412 437.453 -36.757)" stroke="#7275B6" stroke-width="1.19305" stroke-dasharray="3.58 3.58"/>
<path d="M438.609 18.125V222.648" stroke="#7275B6" stroke-width="1.19305"/>
<path opacity="0.2" d="M353.625 71.2162H406.119L420.436 43.7761L435.349 16.3359L353.625 71.2162Z" fill="url(#paint3_linear_3779_280188)"/>
<path opacity="0.4" d="M469.35 172.027L440.717 220.346L474.719 199.467L520.651 172.027H469.35Z" fill="url(#paint4_linear_3779_280188)"/>
<path d="M529.601 70.9053H354.223L438.929 15.1426" stroke="#7275B6" stroke-width="1.19305"/>
<path d="M349.076 172.066H520.985L438.475 220.448" stroke="#7275B6" stroke-width="1.19305"/>
<path opacity="0.2" d="M437.244 13.7266L530.759 69.1218L439.103 223.85L346.468 172.028L437.244 13.7266Z" fill="url(#paint5_linear_3779_280188)"/>
<path d="M438.886 223.045L347.286 171.802L437.461 14.5481L529.942 69.331L438.886 223.045Z" stroke="#E3E3F9" stroke-width="1.19305"/>
<path d="M611.15 -33.1758V171.347" stroke="#7275B6" stroke-width="1.19305" stroke-dasharray="3.58 3.58"/>
<path d="M698.561 16.933H527.955L613.258 -37.9473" stroke="#7275B6" stroke-width="1.19305" stroke-dasharray="3.58 3.58"/>
<path d="M518.412 117.148H694.983L607.815 169.643" stroke="#7275B6" stroke-width="1.19305" stroke-dasharray="3.58 3.58"/>
<rect x="609.994" y="-36.757" width="106.181" height="178.645" transform="rotate(30.6412 609.994 -36.757)" stroke="#7275B6" stroke-width="1.19305" stroke-dasharray="3.58 3.58"/>
<path d="M611.15 18.125V222.648" stroke="#7275B6" stroke-width="1.19305"/>
<path opacity="0.2" d="M526.166 71.2162H578.66L592.977 43.7761L607.89 16.3359L526.166 71.2162Z" fill="url(#paint6_linear_3779_280188)"/>
<path opacity="0.4" d="M641.891 172.027L613.258 220.346L647.26 199.467L693.192 172.027H641.891Z" fill="url(#paint7_linear_3779_280188)"/>
<path d="M702.142 70.9053H526.764L611.47 15.1426" stroke="#7275B6" stroke-width="1.19305"/>
<path d="M521.617 172.066H693.526L611.016 220.448" stroke="#7275B6" stroke-width="1.19305"/>
<path opacity="0.2" d="M609.785 13.7266L703.3 69.1218L611.644 223.85L519.009 172.028L609.785 13.7266Z" fill="url(#paint8_linear_3779_280188)"/>
<path d="M611.427 223.045L519.827 171.802L610.002 14.5481L702.483 69.331L611.427 223.045Z" stroke="#E3E3F9" stroke-width="1.19305"/>
<path d="M783.691 -33.1758V171.347" stroke="#7275B6" stroke-width="1.19305" stroke-dasharray="3.58 3.58"/>
<path d="M871.102 16.933H700.496L785.799 -37.9473" stroke="#7275B6" stroke-width="1.19305" stroke-dasharray="3.58 3.58"/>
<path d="M690.953 117.148H867.524L780.356 169.643" stroke="#7275B6" stroke-width="1.19305" stroke-dasharray="3.58 3.58"/>
<rect x="782.535" y="-36.757" width="106.181" height="178.645" transform="rotate(30.6412 782.535 -36.757)" stroke="#7275B6" stroke-width="1.19305" stroke-dasharray="3.58 3.58"/>
<path d="M783.691 18.125V222.648" stroke="#7275B6" stroke-width="1.19305"/>
<path opacity="0.2" d="M698.707 71.2162H751.201L765.518 43.7761L780.431 16.3359L698.707 71.2162Z" fill="url(#paint9_linear_3779_280188)"/>
<path opacity="0.4" d="M814.432 172.027L785.799 220.346L819.801 199.467L865.733 172.027H814.432Z" fill="url(#paint10_linear_3779_280188)"/>
<path d="M874.683 70.9053H699.305L784.011 15.1426" stroke="#7275B6" stroke-width="1.19305"/>
<path d="M694.158 172.066H866.067L783.557 220.448" stroke="#7275B6" stroke-width="1.19305"/>
<path opacity="0.2" d="M782.326 13.7266L875.841 69.1218L784.185 223.85L691.55 172.028L782.326 13.7266Z" fill="url(#paint11_linear_3779_280188)"/>
<path d="M783.968 223.045L692.368 171.802L782.543 14.5481L875.024 69.331L783.968 223.045Z" stroke="#E3E3F9" stroke-width="1.19305"/>
<path d="M1043.64 16.933H873.037L958.34 -37.9473" stroke="#7275B6" stroke-width="1.19305" stroke-dasharray="3.58 3.58"/>
<path d="M863.494 117.148H1040.07L952.897 169.643" stroke="#7275B6" stroke-width="1.19305" stroke-dasharray="3.58 3.58"/>
<rect x="955.076" y="-36.757" width="106.181" height="178.645" transform="rotate(30.6412 955.076 -36.757)" stroke="#7275B6" stroke-width="1.19305" stroke-dasharray="3.58 3.58"/>
<path opacity="0.2" d="M871.248 71.2162H923.742L938.059 43.7761L952.972 16.3359L871.248 71.2162Z" fill="url(#paint12_linear_3779_280188)"/>
<path d="M1047.22 70.9053H871.846L956.552 15.1426" stroke="#7275B6" stroke-width="1.19305"/>
<path d="M866.699 172.066H1038.61L956.098 220.448" stroke="#7275B6" stroke-width="1.19305"/>
<path opacity="0.2" d="M954.867 13.7266L1048.38 69.1218L956.726 223.85L864.091 172.028L954.867 13.7266Z" fill="url(#paint13_linear_3779_280188)"/>
<path d="M956.509 223.045L864.909 171.802L955.084 14.5481L1047.56 69.331L956.509 223.045Z" stroke="#E3E3F9" stroke-width="1.19305"/>
<path d="M93.9668 222.646V427.169" stroke="#7275B6" stroke-width="1.19305" stroke-dasharray="3.58 3.58"/>
<path d="M181.377 272.755H10.7715L96.0744 217.875" stroke="#7275B6" stroke-width="1.19305" stroke-dasharray="3.58 3.58"/>
<path d="M1.22852 372.971H177.8L90.6316 425.465" stroke="#7275B6" stroke-width="1.19305" stroke-dasharray="3.58 3.58"/>
<rect x="92.8108" y="219.065" width="106.181" height="178.645" transform="rotate(30.6412 92.8108 219.065)" stroke="#7275B6" stroke-width="1.19305" stroke-dasharray="3.58 3.58"/>
<path d="M93.9668 273.947V478.47" stroke="#7275B6" stroke-width="1.19305"/>
<path opacity="0.2" d="M8.98242 327.038H61.4766L75.7931 299.598L90.7062 272.158L8.98242 327.038Z" fill="url(#paint14_linear_3779_280188)"/>
<path d="M184.958 326.728H9.58008L94.2865 270.965" stroke="#7275B6" stroke-width="1.19305"/>
<path opacity="0.2" d="M92.6016 269.549L186.116 324.944L94.4602 479.672L1.82561 427.85L92.6016 269.549Z" fill="url(#paint15_linear_3779_280188)"/>
<path d="M94.2436 478.867L2.643 427.624L92.8181 270.37L185.299 325.153L94.2436 478.867Z" stroke="#E3E3F9" stroke-width="1.19305"/>
<path d="M266.508 222.646V427.169" stroke="#7275B6" stroke-width="1.19305" stroke-dasharray="3.58 3.58"/>
<path d="M353.918 272.755H183.312L268.615 217.875" stroke="#7275B6" stroke-width="1.19305" stroke-dasharray="3.58 3.58"/>
<path d="M173.77 372.971H350.341L263.173 425.465" stroke="#7275B6" stroke-width="1.19305" stroke-dasharray="3.58 3.58"/>
<rect x="265.352" y="219.065" width="106.181" height="178.645" transform="rotate(30.6412 265.352 219.065)" stroke="#7275B6" stroke-width="1.19305" stroke-dasharray="3.58 3.58"/>
<path d="M266.508 273.947V478.47" stroke="#7275B6" stroke-width="1.19305"/>
<path opacity="0.2" d="M181.523 327.038H234.018L248.334 299.598L263.247 272.158L181.523 327.038Z" fill="url(#paint16_linear_3779_280188)"/>
<path d="M357.499 326.728H182.121L266.828 270.965" stroke="#7275B6" stroke-width="1.19305"/>
<path opacity="0.2" d="M265.143 269.549L358.657 324.944L267.001 479.672L174.367 427.85L265.143 269.549Z" fill="url(#paint17_linear_3779_280188)"/>
<path d="M266.785 478.867L175.184 427.624L265.359 270.37L357.84 325.153L266.785 478.867Z" stroke="#E3E3F9" stroke-width="1.19305"/>
<path d="M439.049 222.646V427.169" stroke="#7275B6" stroke-width="1.19305" stroke-dasharray="3.58 3.58"/>
<path d="M526.459 272.755H355.854L441.156 217.875" stroke="#7275B6" stroke-width="1.19305" stroke-dasharray="3.58 3.58"/>
<path d="M346.311 372.971H522.882L435.714 425.465" stroke="#7275B6" stroke-width="1.19305" stroke-dasharray="3.58 3.58"/>
<rect x="437.893" y="219.065" width="106.181" height="178.645" transform="rotate(30.6412 437.893 219.065)" stroke="#7275B6" stroke-width="1.19305" stroke-dasharray="3.58 3.58"/>
<path d="M439.049 273.947V478.47" stroke="#7275B6" stroke-width="1.19305"/>
<path opacity="0.2" d="M354.064 327.038H406.559L420.875 299.598L435.788 272.158L354.064 327.038Z" fill="url(#paint18_linear_3779_280188)"/>
<path d="M530.04 326.728H354.662L439.369 270.965" stroke="#7275B6" stroke-width="1.19305"/>
<path opacity="0.2" d="M437.684 269.549L531.198 324.944L439.542 479.672L346.908 427.85L437.684 269.549Z" fill="url(#paint19_linear_3779_280188)"/>
<path d="M439.326 478.867L347.725 427.624L437.9 270.37L530.381 325.153L439.326 478.867Z" stroke="#E3E3F9" stroke-width="1.19305"/>
<path d="M611.59 222.646V427.169" stroke="#7275B6" stroke-width="1.19305" stroke-dasharray="3.58 3.58"/>
<path d="M699 272.755H528.395L613.697 217.875" stroke="#7275B6" stroke-width="1.19305" stroke-dasharray="3.58 3.58"/>
<path d="M518.852 372.971H695.423L608.255 425.465" stroke="#7275B6" stroke-width="1.19305" stroke-dasharray="3.58 3.58"/>
<rect x="610.434" y="219.065" width="106.181" height="178.645" transform="rotate(30.6412 610.434 219.065)" stroke="#7275B6" stroke-width="1.19305" stroke-dasharray="3.58 3.58"/>
<path d="M611.59 273.947V478.47" stroke="#7275B6" stroke-width="1.19305"/>
<path opacity="0.2" d="M526.605 327.038H579.1L593.416 299.598L608.329 272.158L526.605 327.038Z" fill="url(#paint20_linear_3779_280188)"/>
<path d="M702.581 326.728H527.203L611.91 270.965" stroke="#7275B6" stroke-width="1.19305"/>
<path opacity="0.2" d="M610.225 269.549L703.739 324.944L612.083 479.672L519.449 427.85L610.225 269.549Z" fill="url(#paint21_linear_3779_280188)"/>
<path d="M611.867 478.867L520.266 427.624L610.441 270.37L702.922 325.153L611.867 478.867Z" stroke="#E3E3F9" stroke-width="1.19305"/>
<path d="M784.131 222.646V427.169" stroke="#7275B6" stroke-width="1.19305" stroke-dasharray="3.58 3.58"/>
<path d="M871.541 272.755H700.936L786.239 217.875" stroke="#7275B6" stroke-width="1.19305" stroke-dasharray="3.58 3.58"/>
<path d="M691.393 372.971H867.964L780.796 425.465" stroke="#7275B6" stroke-width="1.19305" stroke-dasharray="3.58 3.58"/>
<rect x="782.975" y="219.065" width="106.181" height="178.645" transform="rotate(30.6412 782.975 219.065)" stroke="#7275B6" stroke-width="1.19305" stroke-dasharray="3.58 3.58"/>
<path d="M784.131 273.947V478.47" stroke="#7275B6" stroke-width="1.19305"/>
<path opacity="0.2" d="M699.146 327.038H751.641L765.957 299.598L780.87 272.158L699.146 327.038Z" fill="url(#paint22_linear_3779_280188)"/>
<path d="M875.122 326.728H699.744L784.451 270.965" stroke="#7275B6" stroke-width="1.19305"/>
<path opacity="0.2" d="M782.766 269.549L876.28 324.944L784.624 479.672L691.99 427.85L782.766 269.549Z" fill="url(#paint23_linear_3779_280188)"/>
<path d="M784.408 478.867L692.807 427.624L782.982 270.37L875.463 325.153L784.408 478.867Z" stroke="#E3E3F9" stroke-width="1.19305"/>
<path d="M1044.08 272.755H873.477L958.78 217.875" stroke="#7275B6" stroke-width="1.19305" stroke-dasharray="3.58 3.58"/>
<path d="M863.934 372.971H1040.5L953.337 425.465" stroke="#7275B6" stroke-width="1.19305" stroke-dasharray="3.58 3.58"/>
<rect x="955.516" y="219.065" width="106.181" height="178.645" transform="rotate(30.6412 955.516 219.065)" stroke="#7275B6" stroke-width="1.19305" stroke-dasharray="3.58 3.58"/>
<path opacity="0.2" d="M871.688 327.038H924.182L938.498 299.598L953.411 272.158L871.688 327.038Z" fill="url(#paint24_linear_3779_280188)"/>
<path d="M1047.66 326.728H872.285L956.992 270.965" stroke="#7275B6" stroke-width="1.19305"/>
<path opacity="0.2" d="M955.307 269.549L1048.82 324.944L957.165 479.672L864.531 427.85L955.307 269.549Z" fill="url(#paint25_linear_3779_280188)"/>
<path d="M956.949 478.867L865.348 427.624L955.523 270.37L1048 325.153L956.949 478.867Z" stroke="#E3E3F9" stroke-width="1.19305"/>
</g>
<defs>
<linearGradient id="paint0_linear_3779_280188" x1="187.049" y1="70.6196" x2="246.105" y2="46.7587" gradientUnits="userSpaceOnUse">
<stop stop-color="#7275B6"/>
<stop offset="1" stop-color="#323350"/>
</linearGradient>
<linearGradient id="paint1_linear_3779_280188" x1="287.265" y1="191.116" x2="339.162" y2="173.817" gradientUnits="userSpaceOnUse">
<stop stop-color="#323350"/>
<stop offset="1" stop-color="#7275B6"/>
</linearGradient>
<linearGradient id="paint2_linear_3779_280188" x1="268.775" y1="26.4762" x2="262.213" y2="217.961" gradientUnits="userSpaceOnUse">
<stop stop-color="#B19ABA"/>
<stop offset="1" stop-color="#775088"/>
</linearGradient>
<linearGradient id="paint3_linear_3779_280188" x1="359.59" y1="70.6196" x2="418.646" y2="46.7587" gradientUnits="userSpaceOnUse">
<stop stop-color="#7275B6"/>
<stop offset="1" stop-color="#323350"/>
</linearGradient>
<linearGradient id="paint4_linear_3779_280188" x1="459.806" y1="191.116" x2="511.703" y2="173.817" gradientUnits="userSpaceOnUse">
<stop stop-color="#323350"/>
<stop offset="1" stop-color="#7275B6"/>
</linearGradient>
<linearGradient id="paint5_linear_3779_280188" x1="441.316" y1="26.4762" x2="434.754" y2="217.961" gradientUnits="userSpaceOnUse">
<stop stop-color="#B19ABA"/>
<stop offset="1" stop-color="#775088"/>
</linearGradient>
<linearGradient id="paint6_linear_3779_280188" x1="532.131" y1="70.6196" x2="591.187" y2="46.7587" gradientUnits="userSpaceOnUse">
<stop stop-color="#7275B6"/>
<stop offset="1" stop-color="#323350"/>
</linearGradient>
<linearGradient id="paint7_linear_3779_280188" x1="632.347" y1="191.116" x2="684.244" y2="173.817" gradientUnits="userSpaceOnUse">
<stop stop-color="#323350"/>
<stop offset="1" stop-color="#7275B6"/>
</linearGradient>
<linearGradient id="paint8_linear_3779_280188" x1="613.857" y1="26.4762" x2="607.295" y2="217.961" gradientUnits="userSpaceOnUse">
<stop stop-color="#B19ABA"/>
<stop offset="1" stop-color="#775088"/>
</linearGradient>
<linearGradient id="paint9_linear_3779_280188" x1="704.672" y1="70.6196" x2="763.728" y2="46.7587" gradientUnits="userSpaceOnUse">
<stop stop-color="#7275B6"/>
<stop offset="1" stop-color="#323350"/>
</linearGradient>
<linearGradient id="paint10_linear_3779_280188" x1="804.888" y1="191.116" x2="856.785" y2="173.817" gradientUnits="userSpaceOnUse">
<stop stop-color="#323350"/>
<stop offset="1" stop-color="#7275B6"/>
</linearGradient>
<linearGradient id="paint11_linear_3779_280188" x1="786.398" y1="26.4762" x2="779.836" y2="217.961" gradientUnits="userSpaceOnUse">
<stop stop-color="#B19ABA"/>
<stop offset="1" stop-color="#775088"/>
</linearGradient>
<linearGradient id="paint12_linear_3779_280188" x1="877.213" y1="70.6196" x2="936.269" y2="46.7587" gradientUnits="userSpaceOnUse">
<stop stop-color="#7275B6"/>
<stop offset="1" stop-color="#323350"/>
</linearGradient>
<linearGradient id="paint13_linear_3779_280188" x1="958.939" y1="26.4762" x2="952.377" y2="217.961" gradientUnits="userSpaceOnUse">
<stop stop-color="#B19ABA"/>
<stop offset="1" stop-color="#775088"/>
</linearGradient>
<linearGradient id="paint14_linear_3779_280188" x1="14.9477" y1="326.442" x2="74.0036" y2="302.581" gradientUnits="userSpaceOnUse">
<stop stop-color="#7275B6"/>
<stop offset="1" stop-color="#323350"/>
</linearGradient>
<linearGradient id="paint15_linear_3779_280188" x1="96.673" y1="282.299" x2="90.1112" y2="473.783" gradientUnits="userSpaceOnUse">
<stop stop-color="#B19ABA"/>
<stop offset="1" stop-color="#775088"/>
</linearGradient>
<linearGradient id="paint16_linear_3779_280188" x1="187.489" y1="326.442" x2="246.545" y2="302.581" gradientUnits="userSpaceOnUse">
<stop stop-color="#7275B6"/>
<stop offset="1" stop-color="#323350"/>
</linearGradient>
<linearGradient id="paint17_linear_3779_280188" x1="269.214" y1="282.299" x2="262.652" y2="473.783" gradientUnits="userSpaceOnUse">
<stop stop-color="#B19ABA"/>
<stop offset="1" stop-color="#775088"/>
</linearGradient>
<linearGradient id="paint18_linear_3779_280188" x1="360.03" y1="326.442" x2="419.086" y2="302.581" gradientUnits="userSpaceOnUse">
<stop stop-color="#7275B6"/>
<stop offset="1" stop-color="#323350"/>
</linearGradient>
<linearGradient id="paint19_linear_3779_280188" x1="441.755" y1="282.299" x2="435.193" y2="473.783" gradientUnits="userSpaceOnUse">
<stop stop-color="#B19ABA"/>
<stop offset="1" stop-color="#775088"/>
</linearGradient>
<linearGradient id="paint20_linear_3779_280188" x1="532.571" y1="326.442" x2="591.627" y2="302.581" gradientUnits="userSpaceOnUse">
<stop stop-color="#7275B6"/>
<stop offset="1" stop-color="#323350"/>
</linearGradient>
<linearGradient id="paint21_linear_3779_280188" x1="614.296" y1="282.299" x2="607.734" y2="473.783" gradientUnits="userSpaceOnUse">
<stop stop-color="#B19ABA"/>
<stop offset="1" stop-color="#775088"/>
</linearGradient>
<linearGradient id="paint22_linear_3779_280188" x1="705.112" y1="326.442" x2="764.168" y2="302.581" gradientUnits="userSpaceOnUse">
<stop stop-color="#7275B6"/>
<stop offset="1" stop-color="#323350"/>
</linearGradient>
<linearGradient id="paint23_linear_3779_280188" x1="786.837" y1="282.299" x2="780.275" y2="473.783" gradientUnits="userSpaceOnUse">
<stop stop-color="#B19ABA"/>
<stop offset="1" stop-color="#775088"/>
</linearGradient>
<linearGradient id="paint24_linear_3779_280188" x1="877.653" y1="326.442" x2="936.709" y2="302.581" gradientUnits="userSpaceOnUse">
<stop stop-color="#7275B6"/>
<stop offset="1" stop-color="#323350"/>
</linearGradient>
<linearGradient id="paint25_linear_3779_280188" x1="959.378" y1="282.299" x2="952.816" y2="473.783" gradientUnits="userSpaceOnUse">
<stop stop-color="#B19ABA"/>
<stop offset="1" stop-color="#775088"/>
</linearGradient>
</defs>
</svg>
