<svg width="334" height="266" viewBox="0 0 334 266" fill="none" xmlns="http://www.w3.org/2000/svg">
<g opacity="0.2">
<path d="M205.471 -80.1719V78.1176" stroke="#7275B6" stroke-width="0.923355" stroke-dasharray="2.77 2.77"/>
<path d="M133.695 36.1719H270.352L202.889 76.7995" stroke="#7275B6" stroke-width="0.923355" stroke-dasharray="2.77 2.77"/>
<rect x="204.576" y="-82.9437" width="82.1786" height="138.261" transform="rotate(30.6412 204.576 -82.9437)" stroke="#7275B6" stroke-width="0.923355" stroke-dasharray="2.77 2.77"/>
<path d="M205.471 -40.4668V117.823" stroke="#7275B6" stroke-width="0.923355"/>
<path opacity="0.2" d="M139.697 0.620834H180.325L191.405 -20.6163L202.947 -41.8535L139.697 0.620834Z" fill="url(#paint0_linear_4218_533842)"/>
<path opacity="0.4" d="M229.262 78.6445L207.102 116.04L233.417 99.8817L268.966 78.6445H229.262Z" fill="url(#paint1_linear_4218_533842)"/>
<path d="M275.891 0.381954H140.158L205.716 -42.7754" stroke="#7275B6" stroke-width="0.923355"/>
<path d="M136.178 78.6738H269.226L205.367 116.119" stroke="#7275B6" stroke-width="0.923355"/>
<path opacity="0.2" d="M204.414 -43.873L276.789 -1.00014L205.853 118.751L134.158 78.6439L204.414 -43.873Z" fill="url(#paint2_linear_4218_533842)"/>
<path d="M205.685 118.128L134.791 78.4688L204.582 -43.2372L276.157 -0.838221L205.685 118.128Z" stroke="#E3E3F9" stroke-width="0.923355"/>
<path d="M267.232 36.1719H403.889L336.426 76.7995" stroke="#7275B6" stroke-width="0.923355" stroke-dasharray="2.77 2.77"/>
<rect x="338.113" y="-82.9437" width="82.1786" height="138.261" transform="rotate(30.6412 338.113 -82.9437)" stroke="#7275B6" stroke-width="0.923355" stroke-dasharray="2.77 2.77"/>
<path opacity="0.2" d="M273.234 0.620834H313.862L324.942 -20.6163L336.484 -41.8535L273.234 0.620834Z" fill="url(#paint3_linear_4218_533842)"/>
<path d="M409.429 0.381954H273.695L339.254 -42.7754" stroke="#7275B6" stroke-width="0.923355"/>
<path d="M269.715 78.6738H402.763L338.904 116.119" stroke="#7275B6" stroke-width="0.923355"/>
<path opacity="0.2" d="M337.951 -43.873L410.327 -1.00014L339.39 118.751L267.695 78.6439L337.951 -43.873Z" fill="url(#paint4_linear_4218_533842)"/>
<path d="M339.222 118.128L268.328 78.4688L338.119 -43.2372L409.694 -0.838221L339.222 118.128Z" stroke="#E3E3F9" stroke-width="0.923355"/>
<path d="M72.2734 117.822V276.112" stroke="#7275B6" stroke-width="0.923355" stroke-dasharray="2.77 2.77"/>
<path d="M139.925 156.603H7.88477L73.9047 114.129" stroke="#7275B6" stroke-width="0.923355" stroke-dasharray="2.77 2.77"/>
<path d="M0.498047 234.166H137.155L69.6913 274.794" stroke="#7275B6" stroke-width="0.923355" stroke-dasharray="2.77 2.77"/>
<rect x="71.3787" y="115.05" width="82.1786" height="138.261" transform="rotate(30.6412 71.3787 115.05)" stroke="#7275B6" stroke-width="0.923355" stroke-dasharray="2.77 2.77"/>
<path d="M72.2734 157.527V315.817" stroke="#7275B6" stroke-width="0.923355"/>
<path opacity="0.2" d="M6.5 198.615H47.1276L58.2079 177.378L69.7498 156.141L6.5 198.615Z" fill="url(#paint5_linear_4218_533842)"/>
<path d="M142.694 198.376H6.96094L72.5192 155.219" stroke="#7275B6" stroke-width="0.923355"/>
<path opacity="0.2" d="M71.2168 154.121L143.592 196.994L72.6553 316.745L0.961082 276.638L71.2168 154.121Z" fill="url(#paint6_linear_4218_533842)"/>
<path d="M72.4876 316.122L1.5937 276.463L71.3844 154.757L142.96 197.156L72.4876 316.122Z" stroke="#E3E3F9" stroke-width="0.923355"/>
<path d="M205.811 117.822V276.112" stroke="#7275B6" stroke-width="0.923355" stroke-dasharray="2.77 2.77"/>
<path d="M273.462 156.603H141.422L207.442 114.129" stroke="#7275B6" stroke-width="0.923355" stroke-dasharray="2.77 2.77"/>
<path d="M134.035 234.166H270.692L203.228 274.794" stroke="#7275B6" stroke-width="0.923355" stroke-dasharray="2.77 2.77"/>
<rect x="204.916" y="115.05" width="82.1786" height="138.261" transform="rotate(30.6412 204.916 115.05)" stroke="#7275B6" stroke-width="0.923355" stroke-dasharray="2.77 2.77"/>
<path d="M205.811 157.527V315.817" stroke="#7275B6" stroke-width="0.923355"/>
<path opacity="0.2" d="M140.037 198.615H180.665L191.745 177.378L203.287 156.141L140.037 198.615Z" fill="url(#paint7_linear_4218_533842)"/>
<path d="M276.231 198.376H140.498L206.056 155.219" stroke="#7275B6" stroke-width="0.923355"/>
<path opacity="0.2" d="M204.754 154.121L277.129 196.994L206.192 316.745L134.498 276.638L204.754 154.121Z" fill="url(#paint8_linear_4218_533842)"/>
<path d="M206.025 316.122L135.131 276.463L204.921 154.757L276.497 197.156L206.025 316.122Z" stroke="#E3E3F9" stroke-width="0.923355"/>
<path d="M407.001 156.603H274.961L340.981 114.129" stroke="#7275B6" stroke-width="0.923355" stroke-dasharray="2.77 2.77"/>
<path d="M267.574 234.166H404.231L336.767 274.794" stroke="#7275B6" stroke-width="0.923355" stroke-dasharray="2.77 2.77"/>
<rect x="338.455" y="115.05" width="82.1786" height="138.261" transform="rotate(30.6412 338.455 115.05)" stroke="#7275B6" stroke-width="0.923355" stroke-dasharray="2.77 2.77"/>
<path opacity="0.2" d="M273.576 198.615H314.204L325.284 177.378L336.826 156.141L273.576 198.615Z" fill="url(#paint9_linear_4218_533842)"/>
<path d="M409.77 198.376H274.037L339.595 155.219" stroke="#7275B6" stroke-width="0.923355"/>
<path opacity="0.2" d="M338.293 154.121L410.668 196.994L339.731 316.745L268.037 276.638L338.293 154.121Z" fill="url(#paint10_linear_4218_533842)"/>
<path d="M339.564 316.122L268.67 276.463L338.461 154.757L410.036 197.156L339.564 316.122Z" stroke="#E3E3F9" stroke-width="0.923355"/>
</g>
<defs>
<linearGradient id="paint0_linear_4218_533842" x1="144.314" y1="0.159157" x2="190.02" y2="-18.3079" gradientUnits="userSpaceOnUse">
<stop stop-color="#7275B6"/>
<stop offset="1" stop-color="#323350"/>
</linearGradient>
<linearGradient id="paint1_linear_4218_533842" x1="221.875" y1="93.4182" x2="262.041" y2="80.0296" gradientUnits="userSpaceOnUse">
<stop stop-color="#323350"/>
<stop offset="1" stop-color="#7275B6"/>
</linearGradient>
<linearGradient id="paint2_linear_4218_533842" x1="207.565" y1="-34.0055" x2="202.487" y2="114.193" gradientUnits="userSpaceOnUse">
<stop stop-color="#B19ABA"/>
<stop offset="1" stop-color="#775088"/>
</linearGradient>
<linearGradient id="paint3_linear_4218_533842" x1="277.851" y1="0.159157" x2="323.557" y2="-18.3079" gradientUnits="userSpaceOnUse">
<stop stop-color="#7275B6"/>
<stop offset="1" stop-color="#323350"/>
</linearGradient>
<linearGradient id="paint4_linear_4218_533842" x1="341.102" y1="-34.0055" x2="336.024" y2="114.193" gradientUnits="userSpaceOnUse">
<stop stop-color="#B19ABA"/>
<stop offset="1" stop-color="#775088"/>
</linearGradient>
<linearGradient id="paint5_linear_4218_533842" x1="11.1168" y1="198.153" x2="56.8229" y2="179.686" gradientUnits="userSpaceOnUse">
<stop stop-color="#7275B6"/>
<stop offset="1" stop-color="#323350"/>
</linearGradient>
<linearGradient id="paint6_linear_4218_533842" x1="74.3678" y1="163.989" x2="69.2894" y2="312.187" gradientUnits="userSpaceOnUse">
<stop stop-color="#B19ABA"/>
<stop offset="1" stop-color="#775088"/>
</linearGradient>
<linearGradient id="paint7_linear_4218_533842" x1="144.654" y1="198.153" x2="190.36" y2="179.686" gradientUnits="userSpaceOnUse">
<stop stop-color="#7275B6"/>
<stop offset="1" stop-color="#323350"/>
</linearGradient>
<linearGradient id="paint8_linear_4218_533842" x1="207.905" y1="163.989" x2="202.826" y2="312.187" gradientUnits="userSpaceOnUse">
<stop stop-color="#B19ABA"/>
<stop offset="1" stop-color="#775088"/>
</linearGradient>
<linearGradient id="paint9_linear_4218_533842" x1="278.193" y1="198.153" x2="323.899" y2="179.686" gradientUnits="userSpaceOnUse">
<stop stop-color="#7275B6"/>
<stop offset="1" stop-color="#323350"/>
</linearGradient>
<linearGradient id="paint10_linear_4218_533842" x1="341.444" y1="163.989" x2="336.366" y2="312.187" gradientUnits="userSpaceOnUse">
<stop stop-color="#B19ABA"/>
<stop offset="1" stop-color="#775088"/>
</linearGradient>
</defs>
</svg>
