<svg width="806" height="276" viewBox="0 0 806 276" fill="none" xmlns="http://www.w3.org/2000/svg">
<g opacity="0.2">
<path d="M205.471 -80.1719V78.1176" stroke="#7275B6" stroke-width="0.923355" stroke-dasharray="2.77 2.77"/>
<path d="M133.695 36.1719H270.352L202.889 76.7995" stroke="#7275B6" stroke-width="0.923355" stroke-dasharray="2.77 2.77"/>
<rect x="204.576" y="-82.9437" width="82.1786" height="138.261" transform="rotate(30.6412 204.576 -82.9437)" stroke="#7275B6" stroke-width="0.923355" stroke-dasharray="2.77 2.77"/>
<path d="M205.471 -40.4668V117.823" stroke="#7275B6" stroke-width="0.923355"/>
<path opacity="0.2" d="M139.697 0.620834H180.325L191.405 -20.6163L202.947 -41.8535L139.697 0.620834Z" fill="url(#paint0_linear_4218_532684)"/>
<path opacity="0.4" d="M229.262 78.6445L207.102 116.04L233.417 99.8817L268.966 78.6445H229.262Z" fill="url(#paint1_linear_4218_532684)"/>
<path d="M275.891 0.381954H140.158L205.716 -42.7754" stroke="#7275B6" stroke-width="0.923355"/>
<path d="M136.178 78.6738H269.226L205.367 116.119" stroke="#7275B6" stroke-width="0.923355"/>
<path opacity="0.2" d="M204.414 -43.873L276.789 -1.00014L205.853 118.751L134.158 78.6439L204.414 -43.873Z" fill="url(#paint2_linear_4218_532684)"/>
<path d="M205.685 118.128L134.791 78.4688L204.582 -43.2372L276.157 -0.838221L205.685 118.128Z" stroke="#E3E3F9" stroke-width="0.923355"/>
<path d="M339.008 -80.1719V78.1176" stroke="#7275B6" stroke-width="0.923355" stroke-dasharray="2.77 2.77"/>
<path d="M267.232 36.1719H403.889L336.426 76.7995" stroke="#7275B6" stroke-width="0.923355" stroke-dasharray="2.77 2.77"/>
<rect x="338.113" y="-82.9437" width="82.1786" height="138.261" transform="rotate(30.6412 338.113 -82.9437)" stroke="#7275B6" stroke-width="0.923355" stroke-dasharray="2.77 2.77"/>
<path d="M339.008 -40.4668V117.823" stroke="#7275B6" stroke-width="0.923355"/>
<path opacity="0.2" d="M273.234 0.620834H313.862L324.942 -20.6163L336.484 -41.8535L273.234 0.620834Z" fill="url(#paint3_linear_4218_532684)"/>
<path opacity="0.4" d="M362.799 78.6445L340.639 116.04L366.954 99.8817L402.503 78.6445H362.799Z" fill="url(#paint4_linear_4218_532684)"/>
<path d="M409.429 0.381954H273.695L339.254 -42.7754" stroke="#7275B6" stroke-width="0.923355"/>
<path d="M269.715 78.6738H402.763L338.904 116.119" stroke="#7275B6" stroke-width="0.923355"/>
<path opacity="0.2" d="M337.951 -43.873L410.327 -1.00014L339.39 118.751L267.695 78.6439L337.951 -43.873Z" fill="url(#paint5_linear_4218_532684)"/>
<path d="M339.222 118.128L268.328 78.4688L338.119 -43.2372L409.694 -0.838221L339.222 118.128Z" stroke="#E3E3F9" stroke-width="0.923355"/>
<path d="M472.547 -80.1719V78.1176" stroke="#7275B6" stroke-width="0.923355" stroke-dasharray="2.77 2.77"/>
<path d="M400.771 36.1719H537.428L469.965 76.7995" stroke="#7275B6" stroke-width="0.923355" stroke-dasharray="2.77 2.77"/>
<rect x="471.652" y="-82.9437" width="82.1786" height="138.261" transform="rotate(30.6412 471.652 -82.9437)" stroke="#7275B6" stroke-width="0.923355" stroke-dasharray="2.77 2.77"/>
<path d="M472.547 -40.4668V117.823" stroke="#7275B6" stroke-width="0.923355"/>
<path opacity="0.2" d="M406.773 0.620834H447.401L458.481 -20.6163L470.023 -41.8535L406.773 0.620834Z" fill="url(#paint6_linear_4218_532684)"/>
<path opacity="0.4" d="M496.338 78.6445L474.178 116.04L500.493 99.8817L536.043 78.6445H496.338Z" fill="url(#paint7_linear_4218_532684)"/>
<path d="M542.968 0.381954H407.234L472.793 -42.7754" stroke="#7275B6" stroke-width="0.923355"/>
<path d="M403.254 78.6738H536.302L472.443 116.119" stroke="#7275B6" stroke-width="0.923355"/>
<path opacity="0.2" d="M471.49 -43.873L543.866 -1.00014L472.929 118.751L401.235 78.6439L471.49 -43.873Z" fill="url(#paint8_linear_4218_532684)"/>
<path d="M472.761 118.128L401.867 78.4688L471.658 -43.2372L543.233 -0.838221L472.761 118.128Z" stroke="#E3E3F9" stroke-width="0.923355"/>
<path d="M606.084 -80.1719V78.1176" stroke="#7275B6" stroke-width="0.923355" stroke-dasharray="2.77 2.77"/>
<path d="M534.309 36.1719H670.965L603.502 76.7995" stroke="#7275B6" stroke-width="0.923355" stroke-dasharray="2.77 2.77"/>
<rect x="605.189" y="-82.9437" width="82.1786" height="138.261" transform="rotate(30.6412 605.189 -82.9437)" stroke="#7275B6" stroke-width="0.923355" stroke-dasharray="2.77 2.77"/>
<path d="M606.084 -40.4668V117.823" stroke="#7275B6" stroke-width="0.923355"/>
<path opacity="0.2" d="M540.311 0.620834H580.938L592.018 -20.6163L603.56 -41.8535L540.311 0.620834Z" fill="url(#paint9_linear_4218_532684)"/>
<path opacity="0.4" d="M629.875 78.6445L607.715 116.04L634.03 99.8817L669.58 78.6445H629.875Z" fill="url(#paint10_linear_4218_532684)"/>
<path d="M676.505 0.381954H540.771L606.33 -42.7754" stroke="#7275B6" stroke-width="0.923355"/>
<path d="M536.791 78.6738H669.839L605.981 116.119" stroke="#7275B6" stroke-width="0.923355"/>
<path opacity="0.2" d="M605.027 -43.873L677.403 -1.00014L606.466 118.751L534.772 78.6439L605.027 -43.873Z" fill="url(#paint11_linear_4218_532684)"/>
<path d="M606.298 118.128L535.404 78.4688L605.195 -43.2372L676.77 -0.838221L606.298 118.128Z" stroke="#E3E3F9" stroke-width="0.923355"/>
<path d="M739.621 -80.1719V78.1176" stroke="#7275B6" stroke-width="0.923355" stroke-dasharray="2.77 2.77"/>
<path d="M667.846 36.1719H804.502L737.039 76.7995" stroke="#7275B6" stroke-width="0.923355" stroke-dasharray="2.77 2.77"/>
<rect x="738.726" y="-82.9437" width="82.1786" height="138.261" transform="rotate(30.6412 738.726 -82.9437)" stroke="#7275B6" stroke-width="0.923355" stroke-dasharray="2.77 2.77"/>
<path d="M739.621 -40.4668V117.823" stroke="#7275B6" stroke-width="0.923355"/>
<path opacity="0.2" d="M673.848 0.620834H714.475L725.556 -20.6163L737.097 -41.8535L673.848 0.620834Z" fill="url(#paint12_linear_4218_532684)"/>
<path opacity="0.4" d="M763.412 78.6445L741.252 116.04L767.568 99.8817L803.117 78.6445H763.412Z" fill="url(#paint13_linear_4218_532684)"/>
<path d="M810.042 0.381954H674.309L739.867 -42.7754" stroke="#7275B6" stroke-width="0.923355"/>
<path d="M670.328 78.6738H803.376L739.518 116.119" stroke="#7275B6" stroke-width="0.923355"/>
<path opacity="0.2" d="M738.564 -43.873L810.94 -1.00014L740.003 118.751L668.309 78.6439L738.564 -43.873Z" fill="url(#paint14_linear_4218_532684)"/>
<path d="M739.835 118.128L668.941 78.4688L738.732 -43.2372L810.307 -0.838221L739.835 118.128Z" stroke="#E3E3F9" stroke-width="0.923355"/>
<path d="M72.2734 117.822V276.112" stroke="#7275B6" stroke-width="0.923355" stroke-dasharray="2.77 2.77"/>
<path d="M139.925 156.603H7.88477L73.9047 114.129" stroke="#7275B6" stroke-width="0.923355" stroke-dasharray="2.77 2.77"/>
<path d="M0.498047 234.166H137.155L69.6913 274.794" stroke="#7275B6" stroke-width="0.923355" stroke-dasharray="2.77 2.77"/>
<rect x="71.3787" y="115.05" width="82.1786" height="138.261" transform="rotate(30.6412 71.3787 115.05)" stroke="#7275B6" stroke-width="0.923355" stroke-dasharray="2.77 2.77"/>
<path d="M72.2734 157.527V315.817" stroke="#7275B6" stroke-width="0.923355"/>
<path opacity="0.2" d="M6.5 198.615H47.1276L58.2079 177.378L69.7498 156.141L6.5 198.615Z" fill="url(#paint15_linear_4218_532684)"/>
<path d="M142.694 198.376H6.96094L72.5192 155.219" stroke="#7275B6" stroke-width="0.923355"/>
<path opacity="0.2" d="M71.2168 154.121L143.592 196.994L72.6553 316.745L0.961082 276.638L71.2168 154.121Z" fill="url(#paint16_linear_4218_532684)"/>
<path d="M72.4876 316.122L1.5937 276.463L71.3844 154.757L142.96 197.156L72.4876 316.122Z" stroke="#E3E3F9" stroke-width="0.923355"/>
<path d="M205.811 117.822V276.112" stroke="#7275B6" stroke-width="0.923355" stroke-dasharray="2.77 2.77"/>
<path d="M273.462 156.603H141.422L207.442 114.129" stroke="#7275B6" stroke-width="0.923355" stroke-dasharray="2.77 2.77"/>
<path d="M134.035 234.166H270.692L203.228 274.794" stroke="#7275B6" stroke-width="0.923355" stroke-dasharray="2.77 2.77"/>
<rect x="204.916" y="115.05" width="82.1786" height="138.261" transform="rotate(30.6412 204.916 115.05)" stroke="#7275B6" stroke-width="0.923355" stroke-dasharray="2.77 2.77"/>
<path d="M205.811 157.527V315.817" stroke="#7275B6" stroke-width="0.923355"/>
<path opacity="0.2" d="M140.037 198.615H180.665L191.745 177.378L203.287 156.141L140.037 198.615Z" fill="url(#paint17_linear_4218_532684)"/>
<path d="M276.231 198.376H140.498L206.056 155.219" stroke="#7275B6" stroke-width="0.923355"/>
<path opacity="0.2" d="M204.754 154.121L277.129 196.994L206.192 316.745L134.498 276.638L204.754 154.121Z" fill="url(#paint18_linear_4218_532684)"/>
<path d="M206.025 316.122L135.131 276.463L204.921 154.757L276.497 197.156L206.025 316.122Z" stroke="#E3E3F9" stroke-width="0.923355"/>
<path d="M339.35 117.822V276.112" stroke="#7275B6" stroke-width="0.923355" stroke-dasharray="2.77 2.77"/>
<path d="M407.001 156.603H274.961L340.981 114.129" stroke="#7275B6" stroke-width="0.923355" stroke-dasharray="2.77 2.77"/>
<path d="M267.574 234.166H404.231L336.767 274.794" stroke="#7275B6" stroke-width="0.923355" stroke-dasharray="2.77 2.77"/>
<rect x="338.455" y="115.05" width="82.1786" height="138.261" transform="rotate(30.6412 338.455 115.05)" stroke="#7275B6" stroke-width="0.923355" stroke-dasharray="2.77 2.77"/>
<path d="M339.35 157.527V315.817" stroke="#7275B6" stroke-width="0.923355"/>
<path opacity="0.2" d="M273.576 198.615H314.204L325.284 177.378L336.826 156.141L273.576 198.615Z" fill="url(#paint19_linear_4218_532684)"/>
<path d="M409.77 198.376H274.037L339.595 155.219" stroke="#7275B6" stroke-width="0.923355"/>
<path opacity="0.2" d="M338.293 154.121L410.668 196.994L339.731 316.745L268.037 276.638L338.293 154.121Z" fill="url(#paint20_linear_4218_532684)"/>
<path d="M339.564 316.122L268.67 276.463L338.461 154.757L410.036 197.156L339.564 316.122Z" stroke="#E3E3F9" stroke-width="0.923355"/>
<path d="M472.887 117.822V276.112" stroke="#7275B6" stroke-width="0.923355" stroke-dasharray="2.77 2.77"/>
<path d="M540.538 156.603H408.498L474.518 114.129" stroke="#7275B6" stroke-width="0.923355" stroke-dasharray="2.77 2.77"/>
<path d="M401.111 234.166H537.768L470.305 274.794" stroke="#7275B6" stroke-width="0.923355" stroke-dasharray="2.77 2.77"/>
<rect x="471.992" y="115.05" width="82.1786" height="138.261" transform="rotate(30.6412 471.992 115.05)" stroke="#7275B6" stroke-width="0.923355" stroke-dasharray="2.77 2.77"/>
<path d="M472.887 157.527V315.817" stroke="#7275B6" stroke-width="0.923355"/>
<path opacity="0.2" d="M407.113 198.615H447.741L458.821 177.378L470.363 156.141L407.113 198.615Z" fill="url(#paint21_linear_4218_532684)"/>
<path d="M543.307 198.376H407.574L473.132 155.219" stroke="#7275B6" stroke-width="0.923355"/>
<path opacity="0.2" d="M471.83 154.121L544.205 196.994L473.269 316.745L401.574 276.638L471.83 154.121Z" fill="url(#paint22_linear_4218_532684)"/>
<path d="M473.101 316.122L402.207 276.463L471.998 154.757L543.573 197.156L473.101 316.122Z" stroke="#E3E3F9" stroke-width="0.923355"/>
<path d="M606.424 117.822V276.112" stroke="#7275B6" stroke-width="0.923355" stroke-dasharray="2.77 2.77"/>
<path d="M674.075 156.603H542.035L608.055 114.129" stroke="#7275B6" stroke-width="0.923355" stroke-dasharray="2.77 2.77"/>
<path d="M534.648 234.166H671.305L603.842 274.794" stroke="#7275B6" stroke-width="0.923355" stroke-dasharray="2.77 2.77"/>
<rect x="605.529" y="115.05" width="82.1786" height="138.261" transform="rotate(30.6412 605.529 115.05)" stroke="#7275B6" stroke-width="0.923355" stroke-dasharray="2.77 2.77"/>
<path d="M606.424 157.527V315.817" stroke="#7275B6" stroke-width="0.923355"/>
<path opacity="0.2" d="M540.65 198.615H581.278L592.358 177.378L603.9 156.141L540.65 198.615Z" fill="url(#paint23_linear_4218_532684)"/>
<path d="M676.845 198.376H541.111L606.67 155.219" stroke="#7275B6" stroke-width="0.923355"/>
<path opacity="0.2" d="M605.367 154.121L677.743 196.994L606.806 316.745L535.111 276.638L605.367 154.121Z" fill="url(#paint24_linear_4218_532684)"/>
<path d="M606.638 316.122L535.744 276.463L605.535 154.757L677.11 197.156L606.638 316.122Z" stroke="#E3E3F9" stroke-width="0.923355"/>
<path d="M739.961 117.822V276.112" stroke="#7275B6" stroke-width="0.923355" stroke-dasharray="2.77 2.77"/>
<path d="M807.612 156.603H675.572L741.592 114.129" stroke="#7275B6" stroke-width="0.923355" stroke-dasharray="2.77 2.77"/>
<path d="M668.186 234.166H804.842L737.379 274.794" stroke="#7275B6" stroke-width="0.923355" stroke-dasharray="2.77 2.77"/>
<rect x="739.066" y="115.05" width="82.1786" height="138.261" transform="rotate(30.6412 739.066 115.05)" stroke="#7275B6" stroke-width="0.923355" stroke-dasharray="2.77 2.77"/>
<path d="M739.961 157.527V315.817" stroke="#7275B6" stroke-width="0.923355"/>
<path opacity="0.2" d="M674.188 198.615H714.815L725.895 177.378L737.437 156.141L674.188 198.615Z" fill="url(#paint25_linear_4218_532684)"/>
<path d="M810.382 198.376H674.648L740.207 155.219" stroke="#7275B6" stroke-width="0.923355"/>
<path opacity="0.2" d="M738.904 154.121L811.28 196.994L740.343 316.745L668.649 276.638L738.904 154.121Z" fill="url(#paint26_linear_4218_532684)"/>
<path d="M740.175 316.122L669.281 276.463L739.072 154.757L810.647 197.156L740.175 316.122Z" stroke="#E3E3F9" stroke-width="0.923355"/>
</g>
<defs>
<linearGradient id="paint0_linear_4218_532684" x1="144.314" y1="0.159157" x2="190.02" y2="-18.3079" gradientUnits="userSpaceOnUse">
<stop stop-color="#7275B6"/>
<stop offset="1" stop-color="#323350"/>
</linearGradient>
<linearGradient id="paint1_linear_4218_532684" x1="221.875" y1="93.4182" x2="262.041" y2="80.0296" gradientUnits="userSpaceOnUse">
<stop stop-color="#323350"/>
<stop offset="1" stop-color="#7275B6"/>
</linearGradient>
<linearGradient id="paint2_linear_4218_532684" x1="207.565" y1="-34.0055" x2="202.487" y2="114.193" gradientUnits="userSpaceOnUse">
<stop stop-color="#B19ABA"/>
<stop offset="1" stop-color="#775088"/>
</linearGradient>
<linearGradient id="paint3_linear_4218_532684" x1="277.851" y1="0.159157" x2="323.557" y2="-18.3079" gradientUnits="userSpaceOnUse">
<stop stop-color="#7275B6"/>
<stop offset="1" stop-color="#323350"/>
</linearGradient>
<linearGradient id="paint4_linear_4218_532684" x1="355.412" y1="93.4182" x2="395.578" y2="80.0296" gradientUnits="userSpaceOnUse">
<stop stop-color="#323350"/>
<stop offset="1" stop-color="#7275B6"/>
</linearGradient>
<linearGradient id="paint5_linear_4218_532684" x1="341.102" y1="-34.0055" x2="336.024" y2="114.193" gradientUnits="userSpaceOnUse">
<stop stop-color="#B19ABA"/>
<stop offset="1" stop-color="#775088"/>
</linearGradient>
<linearGradient id="paint6_linear_4218_532684" x1="411.39" y1="0.159157" x2="457.096" y2="-18.3079" gradientUnits="userSpaceOnUse">
<stop stop-color="#7275B6"/>
<stop offset="1" stop-color="#323350"/>
</linearGradient>
<linearGradient id="paint7_linear_4218_532684" x1="488.951" y1="93.4182" x2="529.117" y2="80.0296" gradientUnits="userSpaceOnUse">
<stop stop-color="#323350"/>
<stop offset="1" stop-color="#7275B6"/>
</linearGradient>
<linearGradient id="paint8_linear_4218_532684" x1="474.641" y1="-34.0055" x2="469.563" y2="114.193" gradientUnits="userSpaceOnUse">
<stop stop-color="#B19ABA"/>
<stop offset="1" stop-color="#775088"/>
</linearGradient>
<linearGradient id="paint9_linear_4218_532684" x1="544.927" y1="0.159157" x2="590.633" y2="-18.3079" gradientUnits="userSpaceOnUse">
<stop stop-color="#7275B6"/>
<stop offset="1" stop-color="#323350"/>
</linearGradient>
<linearGradient id="paint10_linear_4218_532684" x1="622.489" y1="93.4182" x2="662.654" y2="80.0296" gradientUnits="userSpaceOnUse">
<stop stop-color="#323350"/>
<stop offset="1" stop-color="#7275B6"/>
</linearGradient>
<linearGradient id="paint11_linear_4218_532684" x1="608.178" y1="-34.0055" x2="603.1" y2="114.193" gradientUnits="userSpaceOnUse">
<stop stop-color="#B19ABA"/>
<stop offset="1" stop-color="#775088"/>
</linearGradient>
<linearGradient id="paint12_linear_4218_532684" x1="678.464" y1="0.159157" x2="724.171" y2="-18.3079" gradientUnits="userSpaceOnUse">
<stop stop-color="#7275B6"/>
<stop offset="1" stop-color="#323350"/>
</linearGradient>
<linearGradient id="paint13_linear_4218_532684" x1="756.026" y1="93.4182" x2="796.192" y2="80.0296" gradientUnits="userSpaceOnUse">
<stop stop-color="#323350"/>
<stop offset="1" stop-color="#7275B6"/>
</linearGradient>
<linearGradient id="paint14_linear_4218_532684" x1="741.715" y1="-34.0055" x2="736.637" y2="114.193" gradientUnits="userSpaceOnUse">
<stop stop-color="#B19ABA"/>
<stop offset="1" stop-color="#775088"/>
</linearGradient>
<linearGradient id="paint15_linear_4218_532684" x1="11.1168" y1="198.153" x2="56.8229" y2="179.686" gradientUnits="userSpaceOnUse">
<stop stop-color="#7275B6"/>
<stop offset="1" stop-color="#323350"/>
</linearGradient>
<linearGradient id="paint16_linear_4218_532684" x1="74.3678" y1="163.989" x2="69.2894" y2="312.187" gradientUnits="userSpaceOnUse">
<stop stop-color="#B19ABA"/>
<stop offset="1" stop-color="#775088"/>
</linearGradient>
<linearGradient id="paint17_linear_4218_532684" x1="144.654" y1="198.153" x2="190.36" y2="179.686" gradientUnits="userSpaceOnUse">
<stop stop-color="#7275B6"/>
<stop offset="1" stop-color="#323350"/>
</linearGradient>
<linearGradient id="paint18_linear_4218_532684" x1="207.905" y1="163.989" x2="202.826" y2="312.187" gradientUnits="userSpaceOnUse">
<stop stop-color="#B19ABA"/>
<stop offset="1" stop-color="#775088"/>
</linearGradient>
<linearGradient id="paint19_linear_4218_532684" x1="278.193" y1="198.153" x2="323.899" y2="179.686" gradientUnits="userSpaceOnUse">
<stop stop-color="#7275B6"/>
<stop offset="1" stop-color="#323350"/>
</linearGradient>
<linearGradient id="paint20_linear_4218_532684" x1="341.444" y1="163.989" x2="336.366" y2="312.187" gradientUnits="userSpaceOnUse">
<stop stop-color="#B19ABA"/>
<stop offset="1" stop-color="#775088"/>
</linearGradient>
<linearGradient id="paint21_linear_4218_532684" x1="411.73" y1="198.153" x2="457.436" y2="179.686" gradientUnits="userSpaceOnUse">
<stop stop-color="#7275B6"/>
<stop offset="1" stop-color="#323350"/>
</linearGradient>
<linearGradient id="paint22_linear_4218_532684" x1="474.981" y1="163.989" x2="469.903" y2="312.187" gradientUnits="userSpaceOnUse">
<stop stop-color="#B19ABA"/>
<stop offset="1" stop-color="#775088"/>
</linearGradient>
<linearGradient id="paint23_linear_4218_532684" x1="545.267" y1="198.153" x2="590.973" y2="179.686" gradientUnits="userSpaceOnUse">
<stop stop-color="#7275B6"/>
<stop offset="1" stop-color="#323350"/>
</linearGradient>
<linearGradient id="paint24_linear_4218_532684" x1="608.518" y1="163.989" x2="603.44" y2="312.187" gradientUnits="userSpaceOnUse">
<stop stop-color="#B19ABA"/>
<stop offset="1" stop-color="#775088"/>
</linearGradient>
<linearGradient id="paint25_linear_4218_532684" x1="678.804" y1="198.153" x2="724.51" y2="179.686" gradientUnits="userSpaceOnUse">
<stop stop-color="#7275B6"/>
<stop offset="1" stop-color="#323350"/>
</linearGradient>
<linearGradient id="paint26_linear_4218_532684" x1="742.055" y1="163.989" x2="736.977" y2="312.187" gradientUnits="userSpaceOnUse">
<stop stop-color="#B19ABA"/>
<stop offset="1" stop-color="#775088"/>
</linearGradient>
</defs>
</svg>
