<svg width="456" height="100" viewBox="0 0 456 100" fill="none" xmlns="http://www.w3.org/2000/svg">
<g opacity="0.3" clip-path="url(#clip0_3456_11606)">
<path opacity="0.4" d="M66.52 0.839844V75.2096L132.582 99.5793V25.2096L66.52 0.839844Z" fill="#212245"/>
<path opacity="0.1" d="M66.938 0.839844V74.8931L0.0397873 99.1592V50.8398L66.938 0.839844Z" fill="#8571AA"/>
<path opacity="0.5" d="M66.102 75.6304V50.4203L0.0400391 99.5799L66.102 75.6304Z" fill="url(#paint0_linear_3456_11606)"/>
<path opacity="0.5" d="M132.582 50.8408V75.2106L66.1021 24.7904L132.582 50.8408Z" fill="url(#paint1_linear_3456_11606)"/>
<path d="M132.582 25.2096L66.5201 0.839844L0.0400391 50.8398H132.582M132.582 25.2096V50.8398M132.582 25.2096H66.3111M132.582 50.8398V75.2096M0.0400391 75.2096H66.3111M132.582 75.2096V99.5793L66.3111 75.2096M132.582 75.2096H66.3111M66.3111 75.2096V25.2096M66.3111 25.2096H0.0400391L0.0400391 99.5793" stroke="#8571AA" stroke-width="0.85"/>
<path opacity="0.4" d="M200.02 0.839844V75.2096L266.579 99.5793V25.2096L200.02 0.839844Z" fill="#212245"/>
<path opacity="0.1" d="M200.441 0.839844V74.8931L133.04 99.1592V50.8398L200.441 0.839844Z" fill="#8571AA"/>
<path opacity="0.5" d="M199.599 75.6304V50.4203L133.04 99.5799L199.599 75.6304Z" fill="url(#paint2_linear_3456_11606)"/>
<path opacity="0.5" d="M266.579 50.8408V75.2106L199.599 24.7904L266.579 50.8408Z" fill="url(#paint3_linear_3456_11606)"/>
<path d="M266.579 25.2096L200.02 0.839844L133.04 50.8398H266.579M266.579 25.2096V50.8398M266.579 25.2096H199.809M266.579 50.8398V75.2096M133.04 75.2096H199.809M266.579 75.2096V99.5793L199.809 75.2096M266.579 75.2096H199.809M199.809 75.2096V25.2096M199.809 25.2096H133.04V99.5793" stroke="#8571AA" stroke-width="0.85"/>
<path opacity="0.4" d="M333.52 0.839844V75.2096L399.582 99.5793V25.2096L333.52 0.839844Z" fill="#212245"/>
<path opacity="0.1" d="M333.938 0.839844V74.8931L267.04 99.1592V50.8398L333.938 0.839844Z" fill="#8571AA"/>
<path opacity="0.5" d="M333.102 75.6304V50.4203L267.04 99.5799L333.102 75.6304Z" fill="url(#paint4_linear_3456_11606)"/>
<path opacity="0.5" d="M399.582 50.8408V75.2106L333.102 24.7904L399.582 50.8408Z" fill="url(#paint5_linear_3456_11606)"/>
<path d="M399.582 25.2096L333.52 0.839844L267.04 50.8398H399.582M399.582 25.2096V50.8398M399.582 25.2096H333.311M399.582 50.8398V75.2096M267.04 75.2096H333.311M399.582 75.2096V99.5793L333.311 75.2096M399.582 75.2096H333.311M333.311 75.2096V25.2096M333.311 25.2096H267.04V99.5793" stroke="#8571AA" stroke-width="0.85"/>
<path opacity="0.1" d="M466.938 0.839844V74.8931L400.04 99.1592V50.8398L466.938 0.839844Z" fill="#8571AA"/>
<path opacity="0.5" d="M466.102 75.6304V50.4203L400.04 99.5799L466.102 75.6304Z" fill="url(#paint6_linear_3456_11606)"/>
<path d="M532.582 25.2096L466.52 0.839844L400.04 50.8398H532.582M532.582 25.2096V50.8398M532.582 25.2096H466.311M532.582 50.8398V75.2096M400.04 75.2096H466.311M532.582 75.2096V99.5793L466.311 75.2096M532.582 75.2096H466.311M466.311 75.2096V25.2096M466.311 25.2096H400.04V99.5793" stroke="#8571AA" stroke-width="0.85"/>
</g>
<defs>
<linearGradient id="paint0_linear_3456_11606" x1="33.071" y1="50.4203" x2="33.071" y2="99.5799" gradientUnits="userSpaceOnUse">
<stop stop-color="#7275B6"/>
<stop offset="1" stop-color="#323350"/>
</linearGradient>
<linearGradient id="paint1_linear_3456_11606" x1="99.9693" y1="26.0509" x2="99.9693" y2="74.7904" gradientUnits="userSpaceOnUse">
<stop stop-color="#7275B6"/>
<stop offset="1" stop-color="#323350"/>
</linearGradient>
<linearGradient id="paint2_linear_3456_11606" x1="166.319" y1="50.4203" x2="166.319" y2="99.5799" gradientUnits="userSpaceOnUse">
<stop stop-color="#7275B6"/>
<stop offset="1" stop-color="#323350"/>
</linearGradient>
<linearGradient id="paint3_linear_3456_11606" x1="233.721" y1="26.0509" x2="233.721" y2="74.7904" gradientUnits="userSpaceOnUse">
<stop stop-color="#7275B6"/>
<stop offset="1" stop-color="#323350"/>
</linearGradient>
<linearGradient id="paint4_linear_3456_11606" x1="300.071" y1="50.4203" x2="300.071" y2="99.5799" gradientUnits="userSpaceOnUse">
<stop stop-color="#7275B6"/>
<stop offset="1" stop-color="#323350"/>
</linearGradient>
<linearGradient id="paint5_linear_3456_11606" x1="366.969" y1="26.0509" x2="366.969" y2="74.7904" gradientUnits="userSpaceOnUse">
<stop stop-color="#7275B6"/>
<stop offset="1" stop-color="#323350"/>
</linearGradient>
<linearGradient id="paint6_linear_3456_11606" x1="433.071" y1="50.4203" x2="433.071" y2="99.5799" gradientUnits="userSpaceOnUse">
<stop stop-color="#7275B6"/>
<stop offset="1" stop-color="#323350"/>
</linearGradient>
<clipPath id="clip0_3456_11606">
<rect width="456" height="100" fill="white"/>
</clipPath>
</defs>
</svg>
