<svg width="688" height="538" viewBox="0 0 688 538" fill="none" xmlns="http://www.w3.org/2000/svg">
<g opacity="0.3">
<path d="M317.008 10.8359V169.125" stroke="#7275B6" stroke-width="0.923355" stroke-dasharray="2.77 2.77"/>
<path d="M384.659 49.6169H252.619L318.639 7.14258" stroke="#7275B6" stroke-width="0.923355" stroke-dasharray="2.77 2.77"/>
<path d="M245.232 127.18H381.889L314.426 167.807" stroke="#7275B6" stroke-width="0.923355" stroke-dasharray="2.77 2.77"/>
<rect x="316.113" y="8.06416" width="82.1786" height="138.261" transform="rotate(30.6412 316.113 8.06416)" stroke="#7275B6" stroke-width="0.923355" stroke-dasharray="2.77 2.77"/>
<path d="M317.008 50.541V208.831" stroke="#7275B6" stroke-width="0.923355"/>
<path opacity="0.2" d="M251.234 91.6306H291.862L302.942 70.3934L314.484 49.1562L251.234 91.6306Z" fill="url(#paint0_linear_3779_280755)"/>
<path opacity="0.4" d="M340.799 169.654L318.639 207.05L344.954 190.891L380.503 169.654H340.799Z" fill="url(#paint1_linear_3779_280755)"/>
<path d="M387.429 91.3898H251.695L317.254 48.2324" stroke="#7275B6" stroke-width="0.923355"/>
<path d="M247.715 169.684H380.763L316.904 207.128" stroke="#7275B6" stroke-width="0.923355"/>
<path opacity="0.2" d="M315.951 47.1367L388.327 90.0096L317.39 209.761L245.695 169.654L315.951 47.1367Z" fill="url(#paint2_linear_3779_280755)"/>
<path d="M317.222 209.138L246.328 169.479L316.119 47.7726L387.694 90.1715L317.222 209.138Z" stroke="#E3E3F9" stroke-width="0.923355"/>
<path d="M450.545 10.8359V169.125" stroke="#7275B6" stroke-width="0.923355" stroke-dasharray="2.77 2.77"/>
<path d="M518.196 49.6169H386.156L452.176 7.14258" stroke="#7275B6" stroke-width="0.923355" stroke-dasharray="2.77 2.77"/>
<path d="M378.77 127.18H515.426L447.963 167.807" stroke="#7275B6" stroke-width="0.923355" stroke-dasharray="2.77 2.77"/>
<rect x="449.65" y="8.06416" width="82.1786" height="138.261" transform="rotate(30.6412 449.65 8.06416)" stroke="#7275B6" stroke-width="0.923355" stroke-dasharray="2.77 2.77"/>
<path d="M450.545 50.541V208.831" stroke="#7275B6" stroke-width="0.923355"/>
<path opacity="0.2" d="M384.771 91.6306H425.399L436.479 70.3934L448.021 49.1562L384.771 91.6306Z" fill="url(#paint3_linear_3779_280755)"/>
<path opacity="0.4" d="M474.336 169.654L452.176 207.05L478.491 190.891L514.041 169.654H474.336Z" fill="url(#paint4_linear_3779_280755)"/>
<path d="M520.966 91.3898H385.232L450.791 48.2324" stroke="#7275B6" stroke-width="0.923355"/>
<path d="M381.252 169.684H514.3L450.442 207.128" stroke="#7275B6" stroke-width="0.923355"/>
<path opacity="0.2" d="M449.488 47.1367L521.864 90.0096L450.927 209.761L379.233 169.654L449.488 47.1367Z" fill="url(#paint5_linear_3779_280755)"/>
<path d="M450.759 209.138L379.865 169.479L449.656 47.7726L521.231 90.1715L450.759 209.138Z" stroke="#E3E3F9" stroke-width="0.923355"/>
<path d="M584.084 10.8359V169.125" stroke="#7275B6" stroke-width="0.923355" stroke-dasharray="2.77 2.77"/>
<path d="M651.735 49.6169H519.695L585.715 7.14258" stroke="#7275B6" stroke-width="0.923355" stroke-dasharray="2.77 2.77"/>
<path d="M512.309 127.18H648.965L581.502 167.807" stroke="#7275B6" stroke-width="0.923355" stroke-dasharray="2.77 2.77"/>
<rect x="583.189" y="8.06416" width="82.1786" height="138.261" transform="rotate(30.6412 583.189 8.06416)" stroke="#7275B6" stroke-width="0.923355" stroke-dasharray="2.77 2.77"/>
<path d="M584.084 50.541V208.831" stroke="#7275B6" stroke-width="0.923355"/>
<path opacity="0.2" d="M518.311 91.6306H558.938L570.018 70.3934L581.56 49.1562L518.311 91.6306Z" fill="url(#paint6_linear_3779_280755)"/>
<path opacity="0.4" d="M607.875 169.654L585.715 207.05L612.03 190.891L647.58 169.654H607.875Z" fill="url(#paint7_linear_3779_280755)"/>
<path d="M654.505 91.3898H518.771L584.33 48.2324" stroke="#7275B6" stroke-width="0.923355"/>
<path d="M514.791 169.684H647.839L583.981 207.128" stroke="#7275B6" stroke-width="0.923355"/>
<path opacity="0.2" d="M583.027 47.1367L655.403 90.0096L584.466 209.761L512.772 169.654L583.027 47.1367Z" fill="url(#paint8_linear_3779_280755)"/>
<path d="M584.298 209.138L513.404 169.479L583.195 47.7726L654.77 90.1715L584.298 209.138Z" stroke="#E3E3F9" stroke-width="0.923355"/>
<path d="M785.272 49.6169H653.232L719.252 7.14258" stroke="#7275B6" stroke-width="0.923355" stroke-dasharray="2.77 2.77"/>
<path d="M645.846 127.18H782.502L715.039 167.807" stroke="#7275B6" stroke-width="0.923355" stroke-dasharray="2.77 2.77"/>
<rect x="716.726" y="8.06416" width="82.1786" height="138.261" transform="rotate(30.6412 716.726 8.06416)" stroke="#7275B6" stroke-width="0.923355" stroke-dasharray="2.77 2.77"/>
<path opacity="0.2" d="M651.848 91.6306H692.475L703.556 70.3934L715.097 49.1562L651.848 91.6306Z" fill="url(#paint9_linear_3779_280755)"/>
<path d="M788.042 91.3898H652.309L717.867 48.2324" stroke="#7275B6" stroke-width="0.923355"/>
<path d="M648.328 169.684H781.376L717.518 207.128" stroke="#7275B6" stroke-width="0.923355"/>
<path opacity="0.2" d="M716.564 47.1367L788.94 90.0096L718.003 209.761L646.309 169.654L716.564 47.1367Z" fill="url(#paint10_linear_3779_280755)"/>
<path d="M717.835 209.138L646.941 169.479L716.732 47.7726L788.307 90.1715L717.835 209.138Z" stroke="#E3E3F9" stroke-width="0.923355"/>
<path d="M183.471 208.828V367.118" stroke="#7275B6" stroke-width="0.923355" stroke-dasharray="2.77 2.77"/>
<path d="M251.122 247.609H119.082L185.102 205.135" stroke="#7275B6" stroke-width="0.923355" stroke-dasharray="2.77 2.77"/>
<path d="M111.695 325.172H248.352L180.889 365.8" stroke="#7275B6" stroke-width="0.923355" stroke-dasharray="2.77 2.77"/>
<rect x="182.576" y="206.056" width="82.1786" height="138.261" transform="rotate(30.6412 182.576 206.056)" stroke="#7275B6" stroke-width="0.923355" stroke-dasharray="2.77 2.77"/>
<path d="M183.471 248.533V406.823" stroke="#7275B6" stroke-width="0.923355"/>
<path opacity="0.2" d="M117.697 289.623H158.325L169.405 268.386L180.947 247.148L117.697 289.623Z" fill="url(#paint11_linear_3779_280755)"/>
<path opacity="0.4" d="M207.262 367.646L185.102 405.042L211.417 388.884L246.966 367.646H207.262Z" fill="url(#paint12_linear_3779_280755)"/>
<path d="M253.891 289.382H118.158L183.716 246.225" stroke="#7275B6" stroke-width="0.923355"/>
<path d="M114.178 367.676H247.226L183.367 405.121" stroke="#7275B6" stroke-width="0.923355"/>
<path opacity="0.2" d="M182.414 245.129L254.789 288.002L183.853 407.753L112.158 367.646L182.414 245.129Z" fill="url(#paint13_linear_3779_280755)"/>
<path d="M183.685 407.13L112.791 367.471L182.582 245.765L254.157 288.164L183.685 407.13Z" stroke="#E3E3F9" stroke-width="0.923355"/>
<path d="M317.008 208.828V367.118" stroke="#7275B6" stroke-width="0.923355" stroke-dasharray="2.77 2.77"/>
<path d="M384.659 247.609H252.619L318.639 205.135" stroke="#7275B6" stroke-width="0.923355" stroke-dasharray="2.77 2.77"/>
<path d="M245.232 325.172H381.889L314.426 365.8" stroke="#7275B6" stroke-width="0.923355" stroke-dasharray="2.77 2.77"/>
<rect x="316.113" y="206.056" width="82.1786" height="138.261" transform="rotate(30.6412 316.113 206.056)" stroke="#7275B6" stroke-width="0.923355" stroke-dasharray="2.77 2.77"/>
<path d="M317.008 248.533V406.823" stroke="#7275B6" stroke-width="0.923355"/>
<path opacity="0.2" d="M251.234 289.623H291.862L302.942 268.386L314.484 247.148L251.234 289.623Z" fill="url(#paint14_linear_3779_280755)"/>
<path opacity="0.4" d="M340.799 367.646L318.639 405.042L344.954 388.884L380.503 367.646H340.799Z" fill="url(#paint15_linear_3779_280755)"/>
<path d="M387.429 289.382H251.695L317.254 246.225" stroke="#7275B6" stroke-width="0.923355"/>
<path d="M247.715 367.676H380.763L316.904 405.121" stroke="#7275B6" stroke-width="0.923355"/>
<path opacity="0.2" d="M315.951 245.129L388.327 288.002L317.39 407.753L245.695 367.646L315.951 245.129Z" fill="url(#paint16_linear_3779_280755)"/>
<path d="M317.222 407.13L246.328 367.471L316.119 245.765L387.694 288.164L317.222 407.13Z" stroke="#E3E3F9" stroke-width="0.923355"/>
<path d="M450.547 208.828V367.118" stroke="#7275B6" stroke-width="0.923355" stroke-dasharray="2.77 2.77"/>
<path d="M518.198 247.609H386.158L452.178 205.135" stroke="#7275B6" stroke-width="0.923355" stroke-dasharray="2.77 2.77"/>
<path d="M378.771 325.172H515.428L447.965 365.8" stroke="#7275B6" stroke-width="0.923355" stroke-dasharray="2.77 2.77"/>
<rect x="449.652" y="206.056" width="82.1786" height="138.261" transform="rotate(30.6412 449.652 206.056)" stroke="#7275B6" stroke-width="0.923355" stroke-dasharray="2.77 2.77"/>
<path d="M450.547 248.533V406.823" stroke="#7275B6" stroke-width="0.923355"/>
<path opacity="0.2" d="M384.773 289.623H425.401L436.481 268.386L448.023 247.148L384.773 289.623Z" fill="url(#paint17_linear_3779_280755)"/>
<path opacity="0.4" d="M474.338 367.646L452.178 405.042L478.493 388.884L514.043 367.646H474.338Z" fill="url(#paint18_linear_3779_280755)"/>
<path d="M520.968 289.382H385.234L450.793 246.225" stroke="#7275B6" stroke-width="0.923355"/>
<path d="M381.254 367.676H514.302L450.443 405.121" stroke="#7275B6" stroke-width="0.923355"/>
<path opacity="0.2" d="M449.49 245.129L521.866 288.002L450.929 407.753L379.235 367.646L449.49 245.129Z" fill="url(#paint19_linear_3779_280755)"/>
<path d="M450.761 407.13L379.867 367.471L449.658 245.765L521.233 288.164L450.761 407.13Z" stroke="#E3E3F9" stroke-width="0.923355"/>
<path d="M584.084 208.828V367.118" stroke="#7275B6" stroke-width="0.923355" stroke-dasharray="2.77 2.77"/>
<path d="M651.735 247.609H519.695L585.715 205.135" stroke="#7275B6" stroke-width="0.923355" stroke-dasharray="2.77 2.77"/>
<path d="M512.309 325.172H648.965L581.502 365.8" stroke="#7275B6" stroke-width="0.923355" stroke-dasharray="2.77 2.77"/>
<rect x="583.189" y="206.056" width="82.1786" height="138.261" transform="rotate(30.6412 583.189 206.056)" stroke="#7275B6" stroke-width="0.923355" stroke-dasharray="2.77 2.77"/>
<path d="M584.084 248.533V406.823" stroke="#7275B6" stroke-width="0.923355"/>
<path opacity="0.2" d="M518.311 289.623H558.938L570.018 268.386L581.56 247.148L518.311 289.623Z" fill="url(#paint20_linear_3779_280755)"/>
<path opacity="0.4" d="M607.875 367.646L585.715 405.042L612.03 388.884L647.58 367.646H607.875Z" fill="url(#paint21_linear_3779_280755)"/>
<path d="M654.505 289.382H518.771L584.33 246.225" stroke="#7275B6" stroke-width="0.923355"/>
<path d="M514.791 367.676H647.839L583.981 405.121" stroke="#7275B6" stroke-width="0.923355"/>
<path opacity="0.2" d="M583.027 245.129L655.403 288.002L584.466 407.753L512.772 367.646L583.027 245.129Z" fill="url(#paint22_linear_3779_280755)"/>
<path d="M584.298 407.13L513.404 367.471L583.195 245.765L654.77 288.164L584.298 407.13Z" stroke="#E3E3F9" stroke-width="0.923355"/>
<path d="M785.272 247.609H653.232L719.252 205.135" stroke="#7275B6" stroke-width="0.923355" stroke-dasharray="2.77 2.77"/>
<path d="M645.846 325.172H782.502L715.039 365.8" stroke="#7275B6" stroke-width="0.923355" stroke-dasharray="2.77 2.77"/>
<rect x="716.726" y="206.056" width="82.1786" height="138.261" transform="rotate(30.6412 716.726 206.056)" stroke="#7275B6" stroke-width="0.923355" stroke-dasharray="2.77 2.77"/>
<path opacity="0.2" d="M651.848 289.623H692.475L703.556 268.386L715.097 247.148L651.848 289.623Z" fill="url(#paint23_linear_3779_280755)"/>
<path d="M788.042 289.382H652.309L717.867 246.225" stroke="#7275B6" stroke-width="0.923355"/>
<path d="M648.328 367.676H781.376L717.518 405.121" stroke="#7275B6" stroke-width="0.923355"/>
<path opacity="0.2" d="M716.564 245.129L788.94 288.002L718.003 407.753L646.309 367.646L716.564 245.129Z" fill="url(#paint24_linear_3779_280755)"/>
<path d="M717.835 407.13L646.941 367.471L716.732 245.765L788.307 288.164L717.835 407.13Z" stroke="#E3E3F9" stroke-width="0.923355"/>
<path d="M50.2734 406.822V565.112" stroke="#7275B6" stroke-width="0.923355" stroke-dasharray="2.77 2.77"/>
<path d="M117.925 445.603H-14.1152L51.9047 403.129" stroke="#7275B6" stroke-width="0.923355" stroke-dasharray="2.77 2.77"/>
<path d="M-21.502 523.166H115.155L47.6913 563.794" stroke="#7275B6" stroke-width="0.923355" stroke-dasharray="2.77 2.77"/>
<rect x="49.3787" y="404.05" width="82.1786" height="138.261" transform="rotate(30.6412 49.3787 404.05)" stroke="#7275B6" stroke-width="0.923355" stroke-dasharray="2.77 2.77"/>
<path d="M50.2734 446.527V604.817" stroke="#7275B6" stroke-width="0.923355"/>
<path opacity="0.2" d="M-15.5 487.617H25.1276L36.2079 466.38L47.7498 445.143L-15.5 487.617Z" fill="url(#paint25_linear_3779_280755)"/>
<path d="M120.694 487.376H-15.0391L50.5192 444.219" stroke="#7275B6" stroke-width="0.923355"/>
<path opacity="0.2" d="M49.2168 443.123L121.592 485.996L50.6553 605.747L-21.0389 565.64L49.2168 443.123Z" fill="url(#paint26_linear_3779_280755)"/>
<path d="M50.4876 605.124L-20.4063 565.465L49.3844 443.759L120.96 486.158L50.4876 605.124Z" stroke="#E3E3F9" stroke-width="0.923355"/>
<path d="M183.811 406.822V565.112" stroke="#7275B6" stroke-width="0.923355" stroke-dasharray="2.77 2.77"/>
<path d="M251.462 445.603H119.422L185.442 403.129" stroke="#7275B6" stroke-width="0.923355" stroke-dasharray="2.77 2.77"/>
<path d="M112.035 523.166H248.692L181.228 563.794" stroke="#7275B6" stroke-width="0.923355" stroke-dasharray="2.77 2.77"/>
<rect x="182.916" y="404.05" width="82.1786" height="138.261" transform="rotate(30.6412 182.916 404.05)" stroke="#7275B6" stroke-width="0.923355" stroke-dasharray="2.77 2.77"/>
<path d="M183.811 446.527V604.817" stroke="#7275B6" stroke-width="0.923355"/>
<path opacity="0.2" d="M118.037 487.617H158.665L169.745 466.38L181.287 445.143L118.037 487.617Z" fill="url(#paint27_linear_3779_280755)"/>
<path d="M254.231 487.376H118.498L184.056 444.219" stroke="#7275B6" stroke-width="0.923355"/>
<path opacity="0.2" d="M182.754 443.123L255.129 485.996L184.192 605.747L112.498 565.64L182.754 443.123Z" fill="url(#paint28_linear_3779_280755)"/>
<path d="M184.025 605.124L113.131 565.465L182.921 443.759L254.497 486.158L184.025 605.124Z" stroke="#E3E3F9" stroke-width="0.923355"/>
<path d="M317.35 406.822V565.112" stroke="#7275B6" stroke-width="0.923355" stroke-dasharray="2.77 2.77"/>
<path d="M385.001 445.603H252.961L318.981 403.129" stroke="#7275B6" stroke-width="0.923355" stroke-dasharray="2.77 2.77"/>
<path d="M245.574 523.166H382.231L314.767 563.794" stroke="#7275B6" stroke-width="0.923355" stroke-dasharray="2.77 2.77"/>
<rect x="316.455" y="404.05" width="82.1786" height="138.261" transform="rotate(30.6412 316.455 404.05)" stroke="#7275B6" stroke-width="0.923355" stroke-dasharray="2.77 2.77"/>
<path d="M317.35 446.527V604.817" stroke="#7275B6" stroke-width="0.923355"/>
<path opacity="0.2" d="M251.576 487.617H292.204L303.284 466.38L314.826 445.143L251.576 487.617Z" fill="url(#paint29_linear_3779_280755)"/>
<path d="M387.77 487.376H252.037L317.595 444.219" stroke="#7275B6" stroke-width="0.923355"/>
<path opacity="0.2" d="M316.293 443.123L388.668 485.996L317.731 605.747L246.037 565.64L316.293 443.123Z" fill="url(#paint30_linear_3779_280755)"/>
<path d="M317.564 605.124L246.67 565.465L316.461 443.759L388.036 486.158L317.564 605.124Z" stroke="#E3E3F9" stroke-width="0.923355"/>
<path d="M450.887 406.822V565.112" stroke="#7275B6" stroke-width="0.923355" stroke-dasharray="2.77 2.77"/>
<path d="M518.538 445.603H386.498L452.518 403.129" stroke="#7275B6" stroke-width="0.923355" stroke-dasharray="2.77 2.77"/>
<path d="M379.111 523.166H515.768L448.305 563.794" stroke="#7275B6" stroke-width="0.923355" stroke-dasharray="2.77 2.77"/>
<rect x="449.992" y="404.05" width="82.1786" height="138.261" transform="rotate(30.6412 449.992 404.05)" stroke="#7275B6" stroke-width="0.923355" stroke-dasharray="2.77 2.77"/>
<path d="M450.887 446.527V604.817" stroke="#7275B6" stroke-width="0.923355"/>
<path opacity="0.2" d="M385.113 487.617H425.741L436.821 466.38L448.363 445.143L385.113 487.617Z" fill="url(#paint31_linear_3779_280755)"/>
<path d="M521.307 487.376H385.574L451.132 444.219" stroke="#7275B6" stroke-width="0.923355"/>
<path opacity="0.2" d="M449.83 443.123L522.205 485.996L451.269 605.747L379.574 565.64L449.83 443.123Z" fill="url(#paint32_linear_3779_280755)"/>
<path d="M451.101 605.124L380.207 565.465L449.998 443.759L521.573 486.158L451.101 605.124Z" stroke="#E3E3F9" stroke-width="0.923355"/>
<path d="M584.424 406.822V565.112" stroke="#7275B6" stroke-width="0.923355" stroke-dasharray="2.77 2.77"/>
<path d="M652.075 445.603H520.035L586.055 403.129" stroke="#7275B6" stroke-width="0.923355" stroke-dasharray="2.77 2.77"/>
<path d="M512.648 523.166H649.305L581.842 563.794" stroke="#7275B6" stroke-width="0.923355" stroke-dasharray="2.77 2.77"/>
<rect x="583.529" y="404.05" width="82.1786" height="138.261" transform="rotate(30.6412 583.529 404.05)" stroke="#7275B6" stroke-width="0.923355" stroke-dasharray="2.77 2.77"/>
<path d="M584.424 446.527V604.817" stroke="#7275B6" stroke-width="0.923355"/>
<path opacity="0.2" d="M518.65 487.617H559.278L570.358 466.38L581.9 445.143L518.65 487.617Z" fill="url(#paint33_linear_3779_280755)"/>
<path d="M654.845 487.376H519.111L584.67 444.219" stroke="#7275B6" stroke-width="0.923355"/>
<path opacity="0.2" d="M583.367 443.123L655.743 485.996L584.806 605.747L513.111 565.64L583.367 443.123Z" fill="url(#paint34_linear_3779_280755)"/>
<path d="M584.638 605.124L513.744 565.465L583.535 443.759L655.11 486.158L584.638 605.124Z" stroke="#E3E3F9" stroke-width="0.923355"/>
<path d="M785.612 445.603H653.572L719.592 403.129" stroke="#7275B6" stroke-width="0.923355" stroke-dasharray="2.77 2.77"/>
<path d="M646.186 523.166H782.842L715.379 563.794" stroke="#7275B6" stroke-width="0.923355" stroke-dasharray="2.77 2.77"/>
<rect x="717.066" y="404.05" width="82.1786" height="138.261" transform="rotate(30.6412 717.066 404.05)" stroke="#7275B6" stroke-width="0.923355" stroke-dasharray="2.77 2.77"/>
<path opacity="0.2" d="M652.188 487.617H692.815L703.895 466.38L715.437 445.143L652.188 487.617Z" fill="url(#paint35_linear_3779_280755)"/>
<path d="M788.382 487.376H652.648L718.207 444.219" stroke="#7275B6" stroke-width="0.923355"/>
<path opacity="0.2" d="M716.904 443.123L789.28 485.996L718.343 605.747L646.649 565.64L716.904 443.123Z" fill="url(#paint36_linear_3779_280755)"/>
<path d="M718.175 605.124L647.281 565.465L717.072 443.759L788.647 486.158L718.175 605.124Z" stroke="#E3E3F9" stroke-width="0.923355"/>
</g>
<defs>
<linearGradient id="paint0_linear_3779_280755" x1="255.851" y1="91.1689" x2="301.557" y2="72.7018" gradientUnits="userSpaceOnUse">
<stop stop-color="#7275B6"/>
<stop offset="1" stop-color="#323350"/>
</linearGradient>
<linearGradient id="paint1_linear_3779_280755" x1="333.412" y1="184.428" x2="373.578" y2="171.039" gradientUnits="userSpaceOnUse">
<stop stop-color="#323350"/>
<stop offset="1" stop-color="#7275B6"/>
</linearGradient>
<linearGradient id="paint2_linear_3779_280755" x1="319.102" y1="57.0043" x2="314.024" y2="205.203" gradientUnits="userSpaceOnUse">
<stop stop-color="#B19ABA"/>
<stop offset="1" stop-color="#775088"/>
</linearGradient>
<linearGradient id="paint3_linear_3779_280755" x1="389.388" y1="91.1689" x2="435.094" y2="72.7018" gradientUnits="userSpaceOnUse">
<stop stop-color="#7275B6"/>
<stop offset="1" stop-color="#323350"/>
</linearGradient>
<linearGradient id="paint4_linear_3779_280755" x1="466.949" y1="184.428" x2="507.115" y2="171.039" gradientUnits="userSpaceOnUse">
<stop stop-color="#323350"/>
<stop offset="1" stop-color="#7275B6"/>
</linearGradient>
<linearGradient id="paint5_linear_3779_280755" x1="452.639" y1="57.0043" x2="447.561" y2="205.203" gradientUnits="userSpaceOnUse">
<stop stop-color="#B19ABA"/>
<stop offset="1" stop-color="#775088"/>
</linearGradient>
<linearGradient id="paint6_linear_3779_280755" x1="522.927" y1="91.1689" x2="568.633" y2="72.7018" gradientUnits="userSpaceOnUse">
<stop stop-color="#7275B6"/>
<stop offset="1" stop-color="#323350"/>
</linearGradient>
<linearGradient id="paint7_linear_3779_280755" x1="600.489" y1="184.428" x2="640.654" y2="171.039" gradientUnits="userSpaceOnUse">
<stop stop-color="#323350"/>
<stop offset="1" stop-color="#7275B6"/>
</linearGradient>
<linearGradient id="paint8_linear_3779_280755" x1="586.178" y1="57.0043" x2="581.1" y2="205.203" gradientUnits="userSpaceOnUse">
<stop stop-color="#B19ABA"/>
<stop offset="1" stop-color="#775088"/>
</linearGradient>
<linearGradient id="paint9_linear_3779_280755" x1="656.464" y1="91.1689" x2="702.171" y2="72.7018" gradientUnits="userSpaceOnUse">
<stop stop-color="#7275B6"/>
<stop offset="1" stop-color="#323350"/>
</linearGradient>
<linearGradient id="paint10_linear_3779_280755" x1="719.715" y1="57.0043" x2="714.637" y2="205.203" gradientUnits="userSpaceOnUse">
<stop stop-color="#B19ABA"/>
<stop offset="1" stop-color="#775088"/>
</linearGradient>
<linearGradient id="paint11_linear_3779_280755" x1="122.314" y1="289.161" x2="168.02" y2="270.694" gradientUnits="userSpaceOnUse">
<stop stop-color="#7275B6"/>
<stop offset="1" stop-color="#323350"/>
</linearGradient>
<linearGradient id="paint12_linear_3779_280755" x1="199.875" y1="382.42" x2="240.041" y2="369.032" gradientUnits="userSpaceOnUse">
<stop stop-color="#323350"/>
<stop offset="1" stop-color="#7275B6"/>
</linearGradient>
<linearGradient id="paint13_linear_3779_280755" x1="185.565" y1="254.996" x2="180.487" y2="403.195" gradientUnits="userSpaceOnUse">
<stop stop-color="#B19ABA"/>
<stop offset="1" stop-color="#775088"/>
</linearGradient>
<linearGradient id="paint14_linear_3779_280755" x1="255.851" y1="289.161" x2="301.557" y2="270.694" gradientUnits="userSpaceOnUse">
<stop stop-color="#7275B6"/>
<stop offset="1" stop-color="#323350"/>
</linearGradient>
<linearGradient id="paint15_linear_3779_280755" x1="333.412" y1="382.42" x2="373.578" y2="369.032" gradientUnits="userSpaceOnUse">
<stop stop-color="#323350"/>
<stop offset="1" stop-color="#7275B6"/>
</linearGradient>
<linearGradient id="paint16_linear_3779_280755" x1="319.102" y1="254.996" x2="314.024" y2="403.195" gradientUnits="userSpaceOnUse">
<stop stop-color="#B19ABA"/>
<stop offset="1" stop-color="#775088"/>
</linearGradient>
<linearGradient id="paint17_linear_3779_280755" x1="389.39" y1="289.161" x2="435.096" y2="270.694" gradientUnits="userSpaceOnUse">
<stop stop-color="#7275B6"/>
<stop offset="1" stop-color="#323350"/>
</linearGradient>
<linearGradient id="paint18_linear_3779_280755" x1="466.951" y1="382.42" x2="507.117" y2="369.032" gradientUnits="userSpaceOnUse">
<stop stop-color="#323350"/>
<stop offset="1" stop-color="#7275B6"/>
</linearGradient>
<linearGradient id="paint19_linear_3779_280755" x1="452.641" y1="254.996" x2="447.563" y2="403.195" gradientUnits="userSpaceOnUse">
<stop stop-color="#B19ABA"/>
<stop offset="1" stop-color="#775088"/>
</linearGradient>
<linearGradient id="paint20_linear_3779_280755" x1="522.927" y1="289.161" x2="568.633" y2="270.694" gradientUnits="userSpaceOnUse">
<stop stop-color="#7275B6"/>
<stop offset="1" stop-color="#323350"/>
</linearGradient>
<linearGradient id="paint21_linear_3779_280755" x1="600.489" y1="382.42" x2="640.654" y2="369.032" gradientUnits="userSpaceOnUse">
<stop stop-color="#323350"/>
<stop offset="1" stop-color="#7275B6"/>
</linearGradient>
<linearGradient id="paint22_linear_3779_280755" x1="586.178" y1="254.996" x2="581.1" y2="403.195" gradientUnits="userSpaceOnUse">
<stop stop-color="#B19ABA"/>
<stop offset="1" stop-color="#775088"/>
</linearGradient>
<linearGradient id="paint23_linear_3779_280755" x1="656.464" y1="289.161" x2="702.171" y2="270.694" gradientUnits="userSpaceOnUse">
<stop stop-color="#7275B6"/>
<stop offset="1" stop-color="#323350"/>
</linearGradient>
<linearGradient id="paint24_linear_3779_280755" x1="719.715" y1="254.996" x2="714.637" y2="403.195" gradientUnits="userSpaceOnUse">
<stop stop-color="#B19ABA"/>
<stop offset="1" stop-color="#775088"/>
</linearGradient>
<linearGradient id="paint25_linear_3779_280755" x1="-10.8832" y1="487.155" x2="34.8229" y2="468.688" gradientUnits="userSpaceOnUse">
<stop stop-color="#7275B6"/>
<stop offset="1" stop-color="#323350"/>
</linearGradient>
<linearGradient id="paint26_linear_3779_280755" x1="52.3678" y1="452.991" x2="47.2894" y2="601.189" gradientUnits="userSpaceOnUse">
<stop stop-color="#B19ABA"/>
<stop offset="1" stop-color="#775088"/>
</linearGradient>
<linearGradient id="paint27_linear_3779_280755" x1="122.654" y1="487.155" x2="168.36" y2="468.688" gradientUnits="userSpaceOnUse">
<stop stop-color="#7275B6"/>
<stop offset="1" stop-color="#323350"/>
</linearGradient>
<linearGradient id="paint28_linear_3779_280755" x1="185.905" y1="452.991" x2="180.826" y2="601.189" gradientUnits="userSpaceOnUse">
<stop stop-color="#B19ABA"/>
<stop offset="1" stop-color="#775088"/>
</linearGradient>
<linearGradient id="paint29_linear_3779_280755" x1="256.193" y1="487.155" x2="301.899" y2="468.688" gradientUnits="userSpaceOnUse">
<stop stop-color="#7275B6"/>
<stop offset="1" stop-color="#323350"/>
</linearGradient>
<linearGradient id="paint30_linear_3779_280755" x1="319.444" y1="452.991" x2="314.366" y2="601.189" gradientUnits="userSpaceOnUse">
<stop stop-color="#B19ABA"/>
<stop offset="1" stop-color="#775088"/>
</linearGradient>
<linearGradient id="paint31_linear_3779_280755" x1="389.73" y1="487.155" x2="435.436" y2="468.688" gradientUnits="userSpaceOnUse">
<stop stop-color="#7275B6"/>
<stop offset="1" stop-color="#323350"/>
</linearGradient>
<linearGradient id="paint32_linear_3779_280755" x1="452.981" y1="452.991" x2="447.903" y2="601.189" gradientUnits="userSpaceOnUse">
<stop stop-color="#B19ABA"/>
<stop offset="1" stop-color="#775088"/>
</linearGradient>
<linearGradient id="paint33_linear_3779_280755" x1="523.267" y1="487.155" x2="568.973" y2="468.688" gradientUnits="userSpaceOnUse">
<stop stop-color="#7275B6"/>
<stop offset="1" stop-color="#323350"/>
</linearGradient>
<linearGradient id="paint34_linear_3779_280755" x1="586.518" y1="452.991" x2="581.44" y2="601.189" gradientUnits="userSpaceOnUse">
<stop stop-color="#B19ABA"/>
<stop offset="1" stop-color="#775088"/>
</linearGradient>
<linearGradient id="paint35_linear_3779_280755" x1="656.804" y1="487.155" x2="702.51" y2="468.688" gradientUnits="userSpaceOnUse">
<stop stop-color="#7275B6"/>
<stop offset="1" stop-color="#323350"/>
</linearGradient>
<linearGradient id="paint36_linear_3779_280755" x1="720.055" y1="452.991" x2="714.977" y2="601.189" gradientUnits="userSpaceOnUse">
<stop stop-color="#B19ABA"/>
<stop offset="1" stop-color="#775088"/>
</linearGradient>
</defs>
</svg>
