<svg width="1622" height="202" viewBox="0 0 1622 202" fill="none" xmlns="http://www.w3.org/2000/svg">
    <g opacity="0.2" clip-path="url(#clip0_3303_66672)">
        <path opacity="0.4" d="M136.85 1.7002V152.15L271.15 201.45V51.0002L136.85 1.7002Z" fill="#212245"/>
        <path opacity="0.1" d="M137.7 1.7002V151.51L1.70001 200.6V102.85L137.7 1.7002Z" fill="#775088"/>
        <path opacity="0.5" d="M136 153V102L1.70001 201.45L136 153Z" fill="url(#paint0_linear_3303_66672)"/>
        <path opacity="0.5" d="M271.15 102.85V152.15L136 50.1504L271.15 102.85Z" fill="url(#paint1_linear_3303_66672)"/>
        <path d="M271.15 51.0002L136.85 1.7002L1.70001 102.85H271.15M271.15 51.0002V102.85M271.15 51.0002H136.425M271.15 102.85V152.15M1.70001 152.15H136.425M271.15 152.15V201.45L136.425 152.15M271.15 152.15H136.425M136.425 152.15V51.0002M136.425 51.0002H1.70001V201.45" stroke="#7275B6" stroke-width="0.85"/>
        <path d="M136 102.85L1.70001 200.6L136 152.15M270.3 102.85L136 50.1504L270.3 152.15" stroke="#AEAFD5" stroke-width="0.85"/>
        <path opacity="0.4" d="M406.85 1.7002V152.15L541.15 201.45V51.0002L406.85 1.7002Z" fill="#212245"/>
        <path opacity="0.1" d="M407.7 1.7002V151.51L271.7 200.6V102.85L407.7 1.7002Z" fill="#775088"/>
        <path opacity="0.5" d="M406 153V102L271.7 201.45L406 153Z" fill="url(#paint2_linear_3303_66672)"/>
        <path opacity="0.5" d="M541.15 102.85V152.15L406 50.1504L541.15 102.85Z" fill="url(#paint3_linear_3303_66672)"/>
        <path d="M541.15 51.0002L406.85 1.7002L271.7 102.85H541.15M541.15 51.0002V102.85M541.15 51.0002H406.425M541.15 102.85V152.15M271.7 152.15H406.425M541.15 152.15V201.45L406.425 152.15M541.15 152.15H406.425M406.425 152.15V51.0002M406.425 51.0002H271.7V201.45" stroke="#7275B6" stroke-width="0.85"/>
        <path d="M406 102.85L271.7 200.6L406 152.15M540.3 102.85L406 50.1504L540.3 152.15" stroke="#AEAFD5" stroke-width="0.85"/>
        <path opacity="0.4" d="M676.85 1.7002V152.15L811.15 201.45V51.0002L676.85 1.7002Z" fill="#212245"/>
        <path opacity="0.1" d="M677.7 1.7002V151.51L541.7 200.6V102.85L677.7 1.7002Z" fill="#775088"/>
        <path opacity="0.5" d="M676 153V102L541.7 201.45L676 153Z" fill="url(#paint4_linear_3303_66672)"/>
        <path opacity="0.5" d="M811.15 102.85V152.15L676 50.1504L811.15 102.85Z" fill="url(#paint5_linear_3303_66672)"/>
        <path d="M811.15 51.0002L676.85 1.7002L541.7 102.85H811.15M811.15 51.0002V102.85M811.15 51.0002H676.425M811.15 102.85V152.15M541.7 152.15H676.425M811.15 152.15V201.45L676.425 152.15M811.15 152.15H676.425M676.425 152.15V51.0002M676.425 51.0002H541.7V201.45" stroke="#7275B6" stroke-width="0.85"/>
        <path d="M676 102.85L541.7 200.6L676 152.15M810.3 102.85L676 50.1504L810.3 152.15" stroke="#AEAFD5" stroke-width="0.85"/>
        <path opacity="0.4" d="M946.85 1.7002V152.15L1081.15 201.45V51.0002L946.85 1.7002Z" fill="#212245"/>
        <path opacity="0.1" d="M947.7 1.7002V151.51L811.7 200.6V102.85L947.7 1.7002Z" fill="#775088"/>
        <path opacity="0.5" d="M946 153V102L811.7 201.45L946 153Z" fill="url(#paint6_linear_3303_66672)"/>
        <path opacity="0.5" d="M1081.15 102.85V152.15L946 50.1504L1081.15 102.85Z" fill="url(#paint7_linear_3303_66672)"/>
        <path d="M1081.15 51.0002L946.85 1.7002L811.7 102.85H1081.15M1081.15 51.0002V102.85M1081.15 51.0002H946.425M1081.15 102.85V152.15M811.7 152.15H946.425M1081.15 152.15V201.45L946.425 152.15M1081.15 152.15H946.425M946.425 152.15V51.0002M946.425 51.0002H811.7V201.45" stroke="#7275B6" stroke-width="0.85"/>
        <path d="M946 102.85L811.7 200.6L946 152.15M1080.3 102.85L946 50.1504L1080.3 152.15" stroke="#AEAFD5" stroke-width="0.85"/>
        <path opacity="0.4" d="M1216.85 1.7002V152.15L1351.15 201.45V51.0002L1216.85 1.7002Z" fill="#212245"/>
        <path opacity="0.1" d="M1217.7 1.7002V151.51L1081.7 200.6V102.85L1217.7 1.7002Z" fill="#775088"/>
        <path opacity="0.5" d="M1216 153V102L1081.7 201.45L1216 153Z" fill="url(#paint8_linear_3303_66672)"/>
        <path opacity="0.5" d="M1351.15 102.85V152.15L1216 50.1504L1351.15 102.85Z" fill="url(#paint9_linear_3303_66672)"/>
        <path d="M1351.15 51.0002L1216.85 1.7002L1081.7 102.85H1351.15M1351.15 51.0002V102.85M1351.15 51.0002H1216.42M1351.15 102.85V152.15M1081.7 152.15H1216.42M1351.15 152.15V201.45L1216.42 152.15M1351.15 152.15H1216.42M1216.42 152.15V51.0002M1216.42 51.0002H1081.7V201.45" stroke="#7275B6" stroke-width="0.85"/>
        <path d="M1216 102.85L1081.7 200.6L1216 152.15M1350.3 102.85L1216 50.1504L1350.3 152.15" stroke="#AEAFD5" stroke-width="0.85"/>
        <path opacity="0.4" d="M1486.85 1.7002V152.15L1621.15 201.45V51.0002L1486.85 1.7002Z" fill="#212245"/>
        <path opacity="0.1" d="M1487.7 1.7002V151.51L1351.7 200.6V102.85L1487.7 1.7002Z" fill="#775088"/>
        <path opacity="0.5" d="M1486 153V102L1351.7 201.45L1486 153Z" fill="url(#paint10_linear_3303_66672)"/>
        <path opacity="0.5" d="M1621.15 102.85V152.15L1486 50.1504L1621.15 102.85Z" fill="url(#paint11_linear_3303_66672)"/>
        <path d="M1621.15 51.0002L1486.85 1.7002L1351.7 102.85H1621.15M1621.15 51.0002V102.85M1621.15 51.0002H1486.42M1621.15 102.85V152.15M1351.7 152.15H1486.42M1621.15 152.15V201.45L1486.42 152.15M1621.15 152.15H1486.42M1486.42 152.15V51.0002M1486.42 51.0002H1351.7V201.45" stroke="#7275B6" stroke-width="0.85"/>
        <path d="M1486 102.85L1351.7 200.6L1486 152.15M1620.3 102.85L1486 50.1504L1620.3 152.15" stroke="#AEAFD5" stroke-width="0.85"/>
    </g>
    <defs>
        <linearGradient id="paint0_linear_3303_66672" x1="68.85" y1="102" x2="68.85" y2="201.45" gradientUnits="userSpaceOnUse">
            <stop stop-color="#7275B6"/>
            <stop offset="1" stop-color="#323350"/>
        </linearGradient>
        <linearGradient id="paint1_linear_3303_66672" x1="204.85" y1="52.7004" x2="204.85" y2="151.3" gradientUnits="userSpaceOnUse">
            <stop stop-color="#7275B6"/>
            <stop offset="1" stop-color="#323350"/>
        </linearGradient>
        <linearGradient id="paint2_linear_3303_66672" x1="338.85" y1="102" x2="338.85" y2="201.45" gradientUnits="userSpaceOnUse">
            <stop stop-color="#7275B6"/>
            <stop offset="1" stop-color="#323350"/>
        </linearGradient>
        <linearGradient id="paint3_linear_3303_66672" x1="474.85" y1="52.7004" x2="474.85" y2="151.3" gradientUnits="userSpaceOnUse">
            <stop stop-color="#7275B6"/>
            <stop offset="1" stop-color="#323350"/>
        </linearGradient>
        <linearGradient id="paint4_linear_3303_66672" x1="608.85" y1="102" x2="608.85" y2="201.45" gradientUnits="userSpaceOnUse">
            <stop stop-color="#7275B6"/>
            <stop offset="1" stop-color="#323350"/>
        </linearGradient>
        <linearGradient id="paint5_linear_3303_66672" x1="744.85" y1="52.7004" x2="744.85" y2="151.3" gradientUnits="userSpaceOnUse">
            <stop stop-color="#7275B6"/>
            <stop offset="1" stop-color="#323350"/>
        </linearGradient>
        <linearGradient id="paint6_linear_3303_66672" x1="878.85" y1="102" x2="878.85" y2="201.45" gradientUnits="userSpaceOnUse">
            <stop stop-color="#7275B6"/>
            <stop offset="1" stop-color="#323350"/>
        </linearGradient>
        <linearGradient id="paint7_linear_3303_66672" x1="1014.85" y1="52.7004" x2="1014.85" y2="151.3" gradientUnits="userSpaceOnUse">
            <stop stop-color="#7275B6"/>
            <stop offset="1" stop-color="#323350"/>
        </linearGradient>
        <linearGradient id="paint8_linear_3303_66672" x1="1148.85" y1="102" x2="1148.85" y2="201.45" gradientUnits="userSpaceOnUse">
            <stop stop-color="#7275B6"/>
            <stop offset="1" stop-color="#323350"/>
        </linearGradient>
        <linearGradient id="paint9_linear_3303_66672" x1="1284.85" y1="52.7004" x2="1284.85" y2="151.3" gradientUnits="userSpaceOnUse">
            <stop stop-color="#7275B6"/>
            <stop offset="1" stop-color="#323350"/>
        </linearGradient>
        <linearGradient id="paint10_linear_3303_66672" x1="1418.85" y1="102" x2="1418.85" y2="201.45" gradientUnits="userSpaceOnUse">
            <stop stop-color="#7275B6"/>
            <stop offset="1" stop-color="#323350"/>
        </linearGradient>
        <linearGradient id="paint11_linear_3303_66672" x1="1554.85" y1="52.7004" x2="1554.85" y2="151.3" gradientUnits="userSpaceOnUse">
            <stop stop-color="#7275B6"/>
            <stop offset="1" stop-color="#323350"/>
        </linearGradient>
        <clipPath id="clip0_3303_66672">
            <rect width="1622" height="202" fill="white"/>
        </clipPath>
    </defs>
</svg>
