<svg width="780" height="296" viewBox="0 0 780 296" fill="none" xmlns="http://www.w3.org/2000/svg">
<g opacity="0.2">
<path d="M214.457 -4.875V129.384" stroke="#7275B6" stroke-width="0.783176" stroke-dasharray="2.35 2.35"/>
<path d="M271.838 28.0183H159.844L215.841 -8.00781" stroke="#7275B6" stroke-width="0.783176" stroke-dasharray="2.35 2.35"/>
<path d="M153.578 93.8047H269.488L212.267 128.264" stroke="#7275B6" stroke-width="0.783176" stroke-dasharray="2.35 2.35"/>
<rect x="213.698" y="-7.22523" width="69.7027" height="117.271" transform="rotate(30.6412 213.698 -7.22523)" stroke="#7275B6" stroke-width="0.783176" stroke-dasharray="2.35 2.35"/>
<path d="M214.457 28.8008V163.06" stroke="#7275B6" stroke-width="0.783176"/>
<path opacity="0.2" d="M158.668 63.6511H193.128L202.526 45.6381L212.316 27.625L158.668 63.6511Z" fill="url(#paint0_linear_3814_296074)"/>
<path opacity="0.4" d="M234.636 129.83L215.84 161.549L238.16 147.843L268.313 129.83H234.636Z" fill="url(#paint1_linear_3814_296074)"/>
<path d="M274.187 63.4472H159.061L214.666 26.8418" stroke="#7275B6" stroke-width="0.783176"/>
<path d="M155.684 129.855H268.533L214.369 161.616" stroke="#7275B6" stroke-width="0.783176"/>
<path opacity="0.2" d="M213.561 25.9141L274.948 62.2782L214.781 163.849L153.971 129.831L213.561 25.9141Z" fill="url(#paint2_linear_3814_296074)"/>
<path d="M214.638 163.321L154.507 129.683L213.703 26.4534L274.412 62.4155L214.638 163.321Z" stroke="#E3E3F9" stroke-width="0.783176"/>
<path d="M327.721 -4.875V129.384" stroke="#7275B6" stroke-width="0.783176" stroke-dasharray="2.35 2.35"/>
<path d="M385.102 28.0183H273.107L329.105 -8.00781" stroke="#7275B6" stroke-width="0.783176" stroke-dasharray="2.35 2.35"/>
<path d="M266.842 93.8047H382.752L325.53 128.264" stroke="#7275B6" stroke-width="0.783176" stroke-dasharray="2.35 2.35"/>
<rect x="326.962" y="-7.22523" width="69.7027" height="117.271" transform="rotate(30.6412 326.962 -7.22523)" stroke="#7275B6" stroke-width="0.783176" stroke-dasharray="2.35 2.35"/>
<path d="M327.721 28.8008V163.06" stroke="#7275B6" stroke-width="0.783176"/>
<path opacity="0.2" d="M271.932 63.6511H306.391L315.79 45.6381L325.579 27.625L271.932 63.6511Z" fill="url(#paint3_linear_3814_296074)"/>
<path opacity="0.4" d="M347.9 129.83L329.104 161.549L351.424 147.843L381.576 129.83H347.9Z" fill="url(#paint4_linear_3814_296074)"/>
<path d="M387.451 63.4472H272.324L327.93 26.8418" stroke="#7275B6" stroke-width="0.783176"/>
<path d="M268.947 129.855H381.797L327.633 161.616" stroke="#7275B6" stroke-width="0.783176"/>
<path opacity="0.2" d="M326.824 25.9141L388.212 62.2782L328.044 163.849L267.234 129.831L326.824 25.9141Z" fill="url(#paint5_linear_3814_296074)"/>
<path d="M327.902 163.321L267.771 129.683L326.966 26.4534L387.675 62.4155L327.902 163.321Z" stroke="#E3E3F9" stroke-width="0.783176"/>
<path d="M440.986 -4.875V129.384" stroke="#7275B6" stroke-width="0.783176" stroke-dasharray="2.35 2.35"/>
<path d="M498.367 28.0183H386.373L442.37 -8.00781" stroke="#7275B6" stroke-width="0.783176" stroke-dasharray="2.35 2.35"/>
<path d="M380.107 93.8047H496.017L438.796 128.264" stroke="#7275B6" stroke-width="0.783176" stroke-dasharray="2.35 2.35"/>
<rect x="440.227" y="-7.22523" width="69.7027" height="117.271" transform="rotate(30.6412 440.227 -7.22523)" stroke="#7275B6" stroke-width="0.783176" stroke-dasharray="2.35 2.35"/>
<path d="M440.986 28.8008V163.06" stroke="#7275B6" stroke-width="0.783176"/>
<path opacity="0.2" d="M385.197 63.6511H419.657L429.055 45.6381L438.845 27.625L385.197 63.6511Z" fill="url(#paint6_linear_3814_296074)"/>
<path opacity="0.4" d="M461.165 129.83L442.369 161.549L464.69 147.843L494.842 129.83H461.165Z" fill="url(#paint7_linear_3814_296074)"/>
<path d="M500.717 63.4472H385.59L441.195 26.8418" stroke="#7275B6" stroke-width="0.783176"/>
<path d="M382.213 129.855H495.062L440.898 161.616" stroke="#7275B6" stroke-width="0.783176"/>
<path opacity="0.2" d="M440.09 25.9141L501.478 62.2782L441.31 163.849L380.5 129.831L440.09 25.9141Z" fill="url(#paint8_linear_3814_296074)"/>
<path d="M441.168 163.321L381.037 129.683L440.232 26.4534L500.941 62.4155L441.168 163.321Z" stroke="#E3E3F9" stroke-width="0.783176"/>
<path d="M554.25 -4.875V129.384" stroke="#7275B6" stroke-width="0.783176" stroke-dasharray="2.35 2.35"/>
<path d="M611.631 28.0183H499.637L555.634 -8.00781" stroke="#7275B6" stroke-width="0.783176" stroke-dasharray="2.35 2.35"/>
<path d="M493.371 93.8047H609.281L552.06 128.264" stroke="#7275B6" stroke-width="0.783176" stroke-dasharray="2.35 2.35"/>
<rect x="553.491" y="-7.22523" width="69.7027" height="117.271" transform="rotate(30.6412 553.491 -7.22523)" stroke="#7275B6" stroke-width="0.783176" stroke-dasharray="2.35 2.35"/>
<path d="M554.25 28.8008V163.06" stroke="#7275B6" stroke-width="0.783176"/>
<path opacity="0.2" d="M498.461 63.6511H532.921L542.319 45.6381L552.108 27.625L498.461 63.6511Z" fill="url(#paint9_linear_3814_296074)"/>
<path opacity="0.4" d="M574.429 129.83L555.633 161.549L577.953 147.843L608.106 129.83H574.429Z" fill="url(#paint10_linear_3814_296074)"/>
<path d="M613.98 63.4472H498.854L554.459 26.8418" stroke="#7275B6" stroke-width="0.783176"/>
<path d="M495.477 129.855H608.326L554.162 161.616" stroke="#7275B6" stroke-width="0.783176"/>
<path opacity="0.2" d="M553.354 25.9141L614.741 62.2782L554.574 163.849L493.764 129.831L553.354 25.9141Z" fill="url(#paint11_linear_3814_296074)"/>
<path d="M554.431 163.321L494.3 129.683L553.496 26.4534L614.205 62.4155L554.431 163.321Z" stroke="#E3E3F9" stroke-width="0.783176"/>
<path d="M667.516 -4.875V129.384" stroke="#7275B6" stroke-width="0.783176" stroke-dasharray="2.35 2.35"/>
<path d="M724.897 28.0183H612.902L668.899 -8.00781" stroke="#7275B6" stroke-width="0.783176" stroke-dasharray="2.35 2.35"/>
<path d="M606.637 93.8047H722.547L665.325 128.264" stroke="#7275B6" stroke-width="0.783176" stroke-dasharray="2.35 2.35"/>
<rect x="666.756" y="-7.22523" width="69.7027" height="117.271" transform="rotate(30.6412 666.756 -7.22523)" stroke="#7275B6" stroke-width="0.783176" stroke-dasharray="2.35 2.35"/>
<path d="M667.516 28.8008V163.06" stroke="#7275B6" stroke-width="0.783176"/>
<path opacity="0.2" d="M611.727 63.6511H646.186L655.584 45.6381L665.374 27.625L611.727 63.6511Z" fill="url(#paint12_linear_3814_296074)"/>
<path opacity="0.4" d="M687.695 129.83L668.898 161.549L691.219 147.843L721.371 129.83H687.695Z" fill="url(#paint13_linear_3814_296074)"/>
<path d="M727.246 63.4472H612.119L667.725 26.8418" stroke="#7275B6" stroke-width="0.783176"/>
<path d="M608.742 129.855H721.592L667.428 161.616" stroke="#7275B6" stroke-width="0.783176"/>
<path opacity="0.2" d="M666.619 25.9141L728.007 62.2782L667.839 163.849L607.029 129.831L666.619 25.9141Z" fill="url(#paint14_linear_3814_296074)"/>
<path d="M667.697 163.321L607.566 129.683L666.761 26.4534L727.47 62.4155L667.697 163.321Z" stroke="#E3E3F9" stroke-width="0.783176"/>
<path d="M838.16 28.0183H726.166L782.163 -8.00781" stroke="#7275B6" stroke-width="0.783176" stroke-dasharray="2.35 2.35"/>
<path d="M719.9 93.8047H835.81L778.589 128.264" stroke="#7275B6" stroke-width="0.783176" stroke-dasharray="2.35 2.35"/>
<rect x="780.02" y="-7.22523" width="69.7027" height="117.271" transform="rotate(30.6412 780.02 -7.22523)" stroke="#7275B6" stroke-width="0.783176" stroke-dasharray="2.35 2.35"/>
<path opacity="0.2" d="M724.99 63.6511H759.45L768.848 45.6381L778.638 27.625L724.99 63.6511Z" fill="url(#paint15_linear_3814_296074)"/>
<path d="M840.51 63.4472H725.383L780.988 26.8418" stroke="#7275B6" stroke-width="0.783176"/>
<path d="M722.006 129.855H834.855L780.691 161.616" stroke="#7275B6" stroke-width="0.783176"/>
<path opacity="0.2" d="M779.883 25.9141L841.271 62.2782L781.103 163.849L720.293 129.831L779.883 25.9141Z" fill="url(#paint16_linear_3814_296074)"/>
<path d="M780.961 163.321L720.83 129.683L780.025 26.4534L840.734 62.4155L780.961 163.321Z" stroke="#E3E3F9" stroke-width="0.783176"/>
<path d="M45.3086 195.954H-66.6855L-10.6885 159.928" stroke="#7275B6" stroke-width="0.783176" stroke-dasharray="2.35 2.35"/>
<path d="M-72.9512 261.74H42.9589L-14.2625 296.2" stroke="#7275B6" stroke-width="0.783176" stroke-dasharray="2.35 2.35"/>
<rect x="-12.8314" y="160.71" width="69.7027" height="117.271" transform="rotate(30.6412 -12.8314 160.71)" stroke="#7275B6" stroke-width="0.783176" stroke-dasharray="2.35 2.35"/>
<path d="M47.6581 231.383H-67.4688L-11.8632 194.777" stroke="#7275B6" stroke-width="0.783176"/>
<path opacity="0.2" d="M-12.9688 193.85L48.419 230.214L-11.7486 331.785L-72.5586 297.767L-12.9688 193.85Z" fill="url(#paint17_linear_3814_296074)"/>
<path d="M-11.8908 331.257L-72.022 297.618L-12.8266 194.389L47.8825 230.351L-11.8908 331.257Z" stroke="#E3E3F9" stroke-width="0.783176"/>
<path d="M101.193 163.061V297.319" stroke="#7275B6" stroke-width="0.783176" stroke-dasharray="2.35 2.35"/>
<path d="M158.574 195.954H46.5801L102.577 159.928" stroke="#7275B6" stroke-width="0.783176" stroke-dasharray="2.35 2.35"/>
<path d="M40.3145 261.74H156.225L99.0031 296.2" stroke="#7275B6" stroke-width="0.783176" stroke-dasharray="2.35 2.35"/>
<rect x="100.434" y="160.71" width="69.7027" height="117.271" transform="rotate(30.6412 100.434 160.71)" stroke="#7275B6" stroke-width="0.783176" stroke-dasharray="2.35 2.35"/>
<path d="M101.193 196.736V330.995" stroke="#7275B6" stroke-width="0.783176"/>
<path opacity="0.2" d="M45.4043 231.587H79.864L89.2622 213.574L99.0519 195.561L45.4043 231.587Z" fill="url(#paint18_linear_3814_296074)"/>
<path d="M160.924 231.383H45.7969L101.402 194.777" stroke="#7275B6" stroke-width="0.783176"/>
<path opacity="0.2" d="M100.297 193.85L161.685 230.214L101.517 331.785L40.707 297.767L100.297 193.85Z" fill="url(#paint19_linear_3814_296074)"/>
<path d="M101.375 331.257L41.2436 297.618L100.439 194.389L161.148 230.351L101.375 331.257Z" stroke="#E3E3F9" stroke-width="0.783176"/>
<path d="M214.457 163.061V297.319" stroke="#7275B6" stroke-width="0.783176" stroke-dasharray="2.35 2.35"/>
<path d="M271.838 195.954H159.844L215.841 159.928" stroke="#7275B6" stroke-width="0.783176" stroke-dasharray="2.35 2.35"/>
<path d="M153.578 261.74H269.488L212.267 296.2" stroke="#7275B6" stroke-width="0.783176" stroke-dasharray="2.35 2.35"/>
<rect x="213.698" y="160.71" width="69.7027" height="117.271" transform="rotate(30.6412 213.698 160.71)" stroke="#7275B6" stroke-width="0.783176" stroke-dasharray="2.35 2.35"/>
<path d="M214.457 196.736V330.995" stroke="#7275B6" stroke-width="0.783176"/>
<path opacity="0.2" d="M158.668 231.587H193.128L202.526 213.574L212.316 195.561L158.668 231.587Z" fill="url(#paint20_linear_3814_296074)"/>
<path d="M274.187 231.383H159.061L214.666 194.777" stroke="#7275B6" stroke-width="0.783176"/>
<path opacity="0.2" d="M213.561 193.85L274.948 230.214L214.781 331.785L153.971 297.767L213.561 193.85Z" fill="url(#paint21_linear_3814_296074)"/>
<path d="M214.638 331.257L154.507 297.618L213.703 194.389L274.412 230.351L214.638 331.257Z" stroke="#E3E3F9" stroke-width="0.783176"/>
<path d="M327.723 163.061V297.319" stroke="#7275B6" stroke-width="0.783176" stroke-dasharray="2.35 2.35"/>
<path d="M385.104 195.954H273.109L329.106 159.928" stroke="#7275B6" stroke-width="0.783176" stroke-dasharray="2.35 2.35"/>
<path d="M266.844 261.74H382.754L325.532 296.2" stroke="#7275B6" stroke-width="0.783176" stroke-dasharray="2.35 2.35"/>
<rect x="326.964" y="160.71" width="69.7027" height="117.271" transform="rotate(30.6412 326.964 160.71)" stroke="#7275B6" stroke-width="0.783176" stroke-dasharray="2.35 2.35"/>
<path d="M327.723 196.736V330.995" stroke="#7275B6" stroke-width="0.783176"/>
<path opacity="0.2" d="M271.934 231.587H306.393L315.791 213.574L325.581 195.561L271.934 231.587Z" fill="url(#paint22_linear_3814_296074)"/>
<path d="M387.453 231.383H272.326L327.932 194.777" stroke="#7275B6" stroke-width="0.783176"/>
<path opacity="0.2" d="M326.826 193.85L388.214 230.214L328.046 331.785L267.236 297.767L326.826 193.85Z" fill="url(#paint23_linear_3814_296074)"/>
<path d="M327.904 331.257L267.773 297.618L326.968 194.389L387.677 230.351L327.904 331.257Z" stroke="#E3E3F9" stroke-width="0.783176"/>
<path d="M440.986 163.061V297.319" stroke="#7275B6" stroke-width="0.783176" stroke-dasharray="2.35 2.35"/>
<path d="M498.367 195.954H386.373L442.37 159.928" stroke="#7275B6" stroke-width="0.783176" stroke-dasharray="2.35 2.35"/>
<path d="M380.107 261.74H496.017L438.796 296.2" stroke="#7275B6" stroke-width="0.783176" stroke-dasharray="2.35 2.35"/>
<rect x="440.227" y="160.71" width="69.7027" height="117.271" transform="rotate(30.6412 440.227 160.71)" stroke="#7275B6" stroke-width="0.783176" stroke-dasharray="2.35 2.35"/>
<path d="M440.986 196.736V330.995" stroke="#7275B6" stroke-width="0.783176"/>
<path opacity="0.2" d="M385.197 231.587H419.657L429.055 213.574L438.845 195.561L385.197 231.587Z" fill="url(#paint24_linear_3814_296074)"/>
<path d="M500.717 231.383H385.59L441.195 194.777" stroke="#7275B6" stroke-width="0.783176"/>
<path opacity="0.2" d="M440.09 193.85L501.478 230.214L441.31 331.785L380.5 297.767L440.09 193.85Z" fill="url(#paint25_linear_3814_296074)"/>
<path d="M441.168 331.257L381.037 297.618L440.232 194.389L500.941 230.351L441.168 331.257Z" stroke="#E3E3F9" stroke-width="0.783176"/>
<path d="M554.25 163.061V297.319" stroke="#7275B6" stroke-width="0.783176" stroke-dasharray="2.35 2.35"/>
<path d="M611.631 195.954H499.637L555.634 159.928" stroke="#7275B6" stroke-width="0.783176" stroke-dasharray="2.35 2.35"/>
<path d="M493.371 261.74H609.281L552.06 296.2" stroke="#7275B6" stroke-width="0.783176" stroke-dasharray="2.35 2.35"/>
<rect x="553.491" y="160.71" width="69.7027" height="117.271" transform="rotate(30.6412 553.491 160.71)" stroke="#7275B6" stroke-width="0.783176" stroke-dasharray="2.35 2.35"/>
<path d="M554.25 196.736V330.995" stroke="#7275B6" stroke-width="0.783176"/>
<path opacity="0.2" d="M498.461 231.587H532.921L542.319 213.574L552.108 195.561L498.461 231.587Z" fill="url(#paint26_linear_3814_296074)"/>
<path d="M613.98 231.383H498.854L554.459 194.777" stroke="#7275B6" stroke-width="0.783176"/>
<path opacity="0.2" d="M553.354 193.85L614.741 230.214L554.574 331.785L493.764 297.767L553.354 193.85Z" fill="url(#paint27_linear_3814_296074)"/>
<path d="M554.431 331.257L494.3 297.618L553.496 194.389L614.205 230.351L554.431 331.257Z" stroke="#E3E3F9" stroke-width="0.783176"/>
<path d="M667.516 163.061V297.319" stroke="#7275B6" stroke-width="0.783176" stroke-dasharray="2.35 2.35"/>
<path d="M724.897 195.954H612.902L668.899 159.928" stroke="#7275B6" stroke-width="0.783176" stroke-dasharray="2.35 2.35"/>
<path d="M606.637 261.74H722.547L665.325 296.2" stroke="#7275B6" stroke-width="0.783176" stroke-dasharray="2.35 2.35"/>
<rect x="666.756" y="160.71" width="69.7027" height="117.271" transform="rotate(30.6412 666.756 160.71)" stroke="#7275B6" stroke-width="0.783176" stroke-dasharray="2.35 2.35"/>
<path d="M667.516 196.736V330.995" stroke="#7275B6" stroke-width="0.783176"/>
<path opacity="0.2" d="M611.727 231.587H646.186L655.584 213.574L665.374 195.561L611.727 231.587Z" fill="url(#paint28_linear_3814_296074)"/>
<path d="M727.246 231.383H612.119L667.725 194.777" stroke="#7275B6" stroke-width="0.783176"/>
<path opacity="0.2" d="M666.619 193.85L728.007 230.214L667.839 331.785L607.029 297.767L666.619 193.85Z" fill="url(#paint29_linear_3814_296074)"/>
<path d="M667.697 331.257L607.566 297.618L666.761 194.389L727.47 230.351L667.697 331.257Z" stroke="#E3E3F9" stroke-width="0.783176"/>
<path d="M838.16 195.954H726.166L782.163 159.928" stroke="#7275B6" stroke-width="0.783176" stroke-dasharray="2.35 2.35"/>
<path d="M719.9 261.74H835.81L778.589 296.2" stroke="#7275B6" stroke-width="0.783176" stroke-dasharray="2.35 2.35"/>
<rect x="780.02" y="160.71" width="69.7027" height="117.271" transform="rotate(30.6412 780.02 160.71)" stroke="#7275B6" stroke-width="0.783176" stroke-dasharray="2.35 2.35"/>
<path opacity="0.2" d="M724.99 231.587H759.45L768.848 213.574L778.638 195.561L724.99 231.587Z" fill="url(#paint30_linear_3814_296074)"/>
<path d="M840.51 231.383H725.383L780.988 194.777" stroke="#7275B6" stroke-width="0.783176"/>
<path opacity="0.2" d="M779.883 193.85L841.271 230.214L781.103 331.785L720.293 297.767L779.883 193.85Z" fill="url(#paint31_linear_3814_296074)"/>
<path d="M780.961 331.257L720.83 297.618L780.025 194.389L840.734 230.351L780.961 331.257Z" stroke="#E3E3F9" stroke-width="0.783176"/>
</g>
<defs>
<linearGradient id="paint0_linear_3814_296074" x1="162.584" y1="63.2595" x2="201.351" y2="47.596" gradientUnits="userSpaceOnUse">
<stop stop-color="#7275B6"/>
<stop offset="1" stop-color="#323350"/>
</linearGradient>
<linearGradient id="paint1_linear_3814_296074" x1="228.371" y1="142.361" x2="262.439" y2="131.005" gradientUnits="userSpaceOnUse">
<stop stop-color="#323350"/>
<stop offset="1" stop-color="#7275B6"/>
</linearGradient>
<linearGradient id="paint2_linear_3814_296074" x1="216.233" y1="34.2836" x2="211.926" y2="159.983" gradientUnits="userSpaceOnUse">
<stop stop-color="#B19ABA"/>
<stop offset="1" stop-color="#775088"/>
</linearGradient>
<linearGradient id="paint3_linear_3814_296074" x1="275.848" y1="63.2595" x2="314.615" y2="47.596" gradientUnits="userSpaceOnUse">
<stop stop-color="#7275B6"/>
<stop offset="1" stop-color="#323350"/>
</linearGradient>
<linearGradient id="paint4_linear_3814_296074" x1="341.634" y1="142.361" x2="375.702" y2="131.005" gradientUnits="userSpaceOnUse">
<stop stop-color="#323350"/>
<stop offset="1" stop-color="#7275B6"/>
</linearGradient>
<linearGradient id="paint5_linear_3814_296074" x1="329.497" y1="34.2836" x2="325.189" y2="159.983" gradientUnits="userSpaceOnUse">
<stop stop-color="#B19ABA"/>
<stop offset="1" stop-color="#775088"/>
</linearGradient>
<linearGradient id="paint6_linear_3814_296074" x1="389.113" y1="63.2595" x2="427.88" y2="47.596" gradientUnits="userSpaceOnUse">
<stop stop-color="#7275B6"/>
<stop offset="1" stop-color="#323350"/>
</linearGradient>
<linearGradient id="paint7_linear_3814_296074" x1="454.9" y1="142.361" x2="488.968" y2="131.005" gradientUnits="userSpaceOnUse">
<stop stop-color="#323350"/>
<stop offset="1" stop-color="#7275B6"/>
</linearGradient>
<linearGradient id="paint8_linear_3814_296074" x1="442.763" y1="34.2836" x2="438.455" y2="159.983" gradientUnits="userSpaceOnUse">
<stop stop-color="#B19ABA"/>
<stop offset="1" stop-color="#775088"/>
</linearGradient>
<linearGradient id="paint9_linear_3814_296074" x1="502.377" y1="63.2595" x2="541.144" y2="47.596" gradientUnits="userSpaceOnUse">
<stop stop-color="#7275B6"/>
<stop offset="1" stop-color="#323350"/>
</linearGradient>
<linearGradient id="paint10_linear_3814_296074" x1="568.164" y1="142.361" x2="602.232" y2="131.005" gradientUnits="userSpaceOnUse">
<stop stop-color="#323350"/>
<stop offset="1" stop-color="#7275B6"/>
</linearGradient>
<linearGradient id="paint11_linear_3814_296074" x1="556.026" y1="34.2836" x2="551.719" y2="159.983" gradientUnits="userSpaceOnUse">
<stop stop-color="#B19ABA"/>
<stop offset="1" stop-color="#775088"/>
</linearGradient>
<linearGradient id="paint12_linear_3814_296074" x1="615.642" y1="63.2595" x2="654.41" y2="47.596" gradientUnits="userSpaceOnUse">
<stop stop-color="#7275B6"/>
<stop offset="1" stop-color="#323350"/>
</linearGradient>
<linearGradient id="paint13_linear_3814_296074" x1="681.429" y1="142.361" x2="715.497" y2="131.005" gradientUnits="userSpaceOnUse">
<stop stop-color="#323350"/>
<stop offset="1" stop-color="#7275B6"/>
</linearGradient>
<linearGradient id="paint14_linear_3814_296074" x1="669.292" y1="34.2836" x2="664.984" y2="159.983" gradientUnits="userSpaceOnUse">
<stop stop-color="#B19ABA"/>
<stop offset="1" stop-color="#775088"/>
</linearGradient>
<linearGradient id="paint15_linear_3814_296074" x1="728.906" y1="63.2595" x2="767.673" y2="47.596" gradientUnits="userSpaceOnUse">
<stop stop-color="#7275B6"/>
<stop offset="1" stop-color="#323350"/>
</linearGradient>
<linearGradient id="paint16_linear_3814_296074" x1="782.555" y1="34.2836" x2="778.248" y2="159.983" gradientUnits="userSpaceOnUse">
<stop stop-color="#B19ABA"/>
<stop offset="1" stop-color="#775088"/>
</linearGradient>
<linearGradient id="paint17_linear_3814_296074" x1="-10.2961" y1="202.219" x2="-14.6036" y2="327.919" gradientUnits="userSpaceOnUse">
<stop stop-color="#B19ABA"/>
<stop offset="1" stop-color="#775088"/>
</linearGradient>
<linearGradient id="paint18_linear_3814_296074" x1="49.3202" y1="231.195" x2="88.0874" y2="215.532" gradientUnits="userSpaceOnUse">
<stop stop-color="#7275B6"/>
<stop offset="1" stop-color="#323350"/>
</linearGradient>
<linearGradient id="paint19_linear_3814_296074" x1="102.97" y1="202.219" x2="98.6621" y2="327.919" gradientUnits="userSpaceOnUse">
<stop stop-color="#B19ABA"/>
<stop offset="1" stop-color="#775088"/>
</linearGradient>
<linearGradient id="paint20_linear_3814_296074" x1="162.584" y1="231.195" x2="201.351" y2="215.532" gradientUnits="userSpaceOnUse">
<stop stop-color="#7275B6"/>
<stop offset="1" stop-color="#323350"/>
</linearGradient>
<linearGradient id="paint21_linear_3814_296074" x1="216.233" y1="202.219" x2="211.926" y2="327.919" gradientUnits="userSpaceOnUse">
<stop stop-color="#B19ABA"/>
<stop offset="1" stop-color="#775088"/>
</linearGradient>
<linearGradient id="paint22_linear_3814_296074" x1="275.849" y1="231.195" x2="314.617" y2="215.532" gradientUnits="userSpaceOnUse">
<stop stop-color="#7275B6"/>
<stop offset="1" stop-color="#323350"/>
</linearGradient>
<linearGradient id="paint23_linear_3814_296074" x1="329.499" y1="202.219" x2="325.191" y2="327.919" gradientUnits="userSpaceOnUse">
<stop stop-color="#B19ABA"/>
<stop offset="1" stop-color="#775088"/>
</linearGradient>
<linearGradient id="paint24_linear_3814_296074" x1="389.113" y1="231.195" x2="427.88" y2="215.532" gradientUnits="userSpaceOnUse">
<stop stop-color="#7275B6"/>
<stop offset="1" stop-color="#323350"/>
</linearGradient>
<linearGradient id="paint25_linear_3814_296074" x1="442.763" y1="202.219" x2="438.455" y2="327.919" gradientUnits="userSpaceOnUse">
<stop stop-color="#B19ABA"/>
<stop offset="1" stop-color="#775088"/>
</linearGradient>
<linearGradient id="paint26_linear_3814_296074" x1="502.377" y1="231.195" x2="541.144" y2="215.532" gradientUnits="userSpaceOnUse">
<stop stop-color="#7275B6"/>
<stop offset="1" stop-color="#323350"/>
</linearGradient>
<linearGradient id="paint27_linear_3814_296074" x1="556.026" y1="202.219" x2="551.719" y2="327.919" gradientUnits="userSpaceOnUse">
<stop stop-color="#B19ABA"/>
<stop offset="1" stop-color="#775088"/>
</linearGradient>
<linearGradient id="paint28_linear_3814_296074" x1="615.642" y1="231.195" x2="654.41" y2="215.532" gradientUnits="userSpaceOnUse">
<stop stop-color="#7275B6"/>
<stop offset="1" stop-color="#323350"/>
</linearGradient>
<linearGradient id="paint29_linear_3814_296074" x1="669.292" y1="202.219" x2="664.984" y2="327.919" gradientUnits="userSpaceOnUse">
<stop stop-color="#B19ABA"/>
<stop offset="1" stop-color="#775088"/>
</linearGradient>
<linearGradient id="paint30_linear_3814_296074" x1="728.906" y1="231.195" x2="767.673" y2="215.532" gradientUnits="userSpaceOnUse">
<stop stop-color="#7275B6"/>
<stop offset="1" stop-color="#323350"/>
</linearGradient>
<linearGradient id="paint31_linear_3814_296074" x1="782.555" y1="202.219" x2="778.248" y2="327.919" gradientUnits="userSpaceOnUse">
<stop stop-color="#B19ABA"/>
<stop offset="1" stop-color="#775088"/>
</linearGradient>
</defs>
</svg>
