<svg width="946" height="492" viewBox="0 0 946 492" fill="none" xmlns="http://www.w3.org/2000/svg">
<g opacity="0.3">
<path d="M438.609 -157.699V46.8234" stroke="#7275B6" stroke-width="1.19305"/>
<path opacity="0.4" d="M469.35 -3.7959L440.717 44.5226L474.719 23.6442L520.651 -3.7959H469.35Z" fill="url(#paint0_linear_2973_177620)"/>
<path d="M349.076 -3.75879H520.985L438.475 44.6229" stroke="#7275B6" stroke-width="1.19305"/>
<path opacity="0.2" d="M437.242 -162.099L530.757 -106.703L439.101 48.0246L346.466 -3.79705L437.242 -162.099Z" fill="url(#paint1_linear_2973_177620)"/>
<path d="M438.884 47.2199L347.284 -4.0233L437.459 -161.277L529.94 -106.494L438.884 47.2199Z" stroke="#E3E3F9" stroke-width="1.19305"/>
<path d="M611.15 -157.699V46.8234" stroke="#7275B6" stroke-width="1.19305"/>
<path opacity="0.4" d="M641.891 -3.7959L613.258 44.5226L647.26 23.6442L693.192 -3.7959H641.891Z" fill="url(#paint2_linear_2973_177620)"/>
<path d="M521.617 -3.75879H693.526L611.016 44.6229" stroke="#7275B6" stroke-width="1.19305"/>
<path opacity="0.2" d="M609.783 -162.099L703.298 -106.703L611.642 48.0246L519.007 -3.79705L609.783 -162.099Z" fill="url(#paint3_linear_2973_177620)"/>
<path d="M611.425 47.2199L519.825 -4.0233L610 -161.277L702.481 -106.494L611.425 47.2199Z" stroke="#E3E3F9" stroke-width="1.19305"/>
<path d="M783.691 -157.699V46.8234" stroke="#7275B6" stroke-width="1.19305"/>
<path opacity="0.4" d="M814.432 -3.7959L785.799 44.5226L819.801 23.6442L865.733 -3.7959H814.432Z" fill="url(#paint4_linear_2973_177620)"/>
<path d="M694.158 -3.75879H866.067L783.557 44.6229" stroke="#7275B6" stroke-width="1.19305"/>
<path opacity="0.2" d="M782.324 -162.099L875.839 -106.703L784.183 48.0246L691.548 -3.79705L782.324 -162.099Z" fill="url(#paint5_linear_2973_177620)"/>
<path d="M783.966 47.2199L692.366 -4.0233L782.541 -161.277L875.022 -106.494L783.966 47.2199Z" stroke="#E3E3F9" stroke-width="1.19305"/>
<path d="M866.699 -3.75879H1038.61L956.098 44.6229" stroke="#7275B6" stroke-width="1.19305"/>
<path opacity="0.2" d="M954.865 -162.099L1048.38 -106.703L956.724 48.0246L864.089 -3.79705L954.865 -162.099Z" fill="url(#paint6_linear_2973_177620)"/>
<path d="M956.507 47.2199L864.907 -4.0233L955.082 -161.277L1047.56 -106.494L956.507 47.2199Z" stroke="#E3E3F9" stroke-width="1.19305"/>
<path d="M266.068 46.8232V251.346" stroke="#7275B6" stroke-width="1.19305" stroke-dasharray="3.58 3.58"/>
<path d="M353.479 96.931H182.873L268.176 42.0508" stroke="#7275B6" stroke-width="1.19305" stroke-dasharray="3.58 3.58"/>
<path d="M173.33 197.147H349.901L262.733 249.642" stroke="#7275B6" stroke-width="1.19305" stroke-dasharray="3.58 3.58"/>
<rect x="264.91" y="43.2411" width="106.181" height="178.645" transform="rotate(30.6412 264.91 43.2411)" stroke="#7275B6" stroke-width="1.19305" stroke-dasharray="3.58 3.58"/>
<path d="M266.068 98.124V302.647" stroke="#7275B6" stroke-width="1.19305"/>
<path opacity="0.2" d="M181.084 151.215H233.578L247.895 123.775L262.808 96.335L181.084 151.215Z" fill="url(#paint7_linear_2973_177620)"/>
<path opacity="0.4" d="M296.809 252.027L268.176 300.346L302.178 279.467L348.11 252.027H296.809Z" fill="url(#paint8_linear_2973_177620)"/>
<path d="M357.06 150.904H181.682L266.388 95.1416" stroke="#7275B6" stroke-width="1.19305"/>
<path d="M176.535 252.064H348.444L265.934 300.446" stroke="#7275B6" stroke-width="1.19305"/>
<path opacity="0.2" d="M264.701 93.7246L358.216 149.12L266.56 303.848L173.925 252.026L264.701 93.7246Z" fill="url(#paint9_linear_2973_177620)"/>
<path d="M266.343 303.043L174.743 251.8L264.918 94.5462L357.399 149.329L266.343 303.043Z" stroke="#E3E3F9" stroke-width="1.19305"/>
<path d="M438.609 46.8232V251.346" stroke="#7275B6" stroke-width="1.19305" stroke-dasharray="3.58 3.58"/>
<path d="M526.02 96.931H355.414L440.717 42.0508" stroke="#7275B6" stroke-width="1.19305" stroke-dasharray="3.58 3.58"/>
<path d="M345.871 197.147H522.442L435.274 249.642" stroke="#7275B6" stroke-width="1.19305" stroke-dasharray="3.58 3.58"/>
<rect x="437.451" y="43.2411" width="106.181" height="178.645" transform="rotate(30.6412 437.451 43.2411)" stroke="#7275B6" stroke-width="1.19305" stroke-dasharray="3.58 3.58"/>
<path d="M438.609 98.124V302.647" stroke="#7275B6" stroke-width="1.19305"/>
<path opacity="0.2" d="M353.625 151.215H406.119L420.436 123.775L435.349 96.335L353.625 151.215Z" fill="url(#paint10_linear_2973_177620)"/>
<path opacity="0.4" d="M469.35 252.027L440.717 300.346L474.719 279.467L520.651 252.027H469.35Z" fill="url(#paint11_linear_2973_177620)"/>
<path d="M529.601 150.904H354.223L438.929 95.1416" stroke="#7275B6" stroke-width="1.19305"/>
<path d="M349.076 252.064H520.985L438.475 300.446" stroke="#7275B6" stroke-width="1.19305"/>
<path opacity="0.2" d="M437.242 93.7246L530.757 149.12L439.101 303.848L346.466 252.026L437.242 93.7246Z" fill="url(#paint12_linear_2973_177620)"/>
<path d="M438.884 303.043L347.284 251.8L437.459 94.5462L529.94 149.329L438.884 303.043Z" stroke="#E3E3F9" stroke-width="1.19305"/>
<path d="M611.15 46.8232V251.346" stroke="#7275B6" stroke-width="1.19305" stroke-dasharray="3.58 3.58"/>
<path d="M698.561 96.931H527.955L613.258 42.0508" stroke="#7275B6" stroke-width="1.19305" stroke-dasharray="3.58 3.58"/>
<path d="M518.412 197.147H694.983L607.815 249.642" stroke="#7275B6" stroke-width="1.19305" stroke-dasharray="3.58 3.58"/>
<rect x="609.992" y="43.2411" width="106.181" height="178.645" transform="rotate(30.6412 609.992 43.2411)" stroke="#7275B6" stroke-width="1.19305" stroke-dasharray="3.58 3.58"/>
<path d="M611.15 98.124V302.647" stroke="#7275B6" stroke-width="1.19305"/>
<path opacity="0.2" d="M526.166 151.215H578.66L592.977 123.775L607.89 96.335L526.166 151.215Z" fill="url(#paint13_linear_2973_177620)"/>
<path opacity="0.4" d="M641.891 252.027L613.258 300.346L647.26 279.467L693.192 252.027H641.891Z" fill="url(#paint14_linear_2973_177620)"/>
<path d="M702.142 150.904H526.764L611.47 95.1416" stroke="#7275B6" stroke-width="1.19305"/>
<path d="M521.617 252.064H693.526L611.016 300.446" stroke="#7275B6" stroke-width="1.19305"/>
<path opacity="0.2" d="M609.783 93.7246L703.298 149.12L611.642 303.848L519.007 252.026L609.783 93.7246Z" fill="url(#paint15_linear_2973_177620)"/>
<path d="M611.425 303.043L519.825 251.8L610 94.5462L702.481 149.329L611.425 303.043Z" stroke="#E3E3F9" stroke-width="1.19305"/>
<path d="M783.691 46.8232V251.346" stroke="#7275B6" stroke-width="1.19305" stroke-dasharray="3.58 3.58"/>
<path d="M871.102 96.931H700.496L785.799 42.0508" stroke="#7275B6" stroke-width="1.19305" stroke-dasharray="3.58 3.58"/>
<path d="M690.953 197.147H867.524L780.356 249.642" stroke="#7275B6" stroke-width="1.19305" stroke-dasharray="3.58 3.58"/>
<rect x="782.533" y="43.2411" width="106.181" height="178.645" transform="rotate(30.6412 782.533 43.2411)" stroke="#7275B6" stroke-width="1.19305" stroke-dasharray="3.58 3.58"/>
<path d="M783.691 98.124V302.647" stroke="#7275B6" stroke-width="1.19305"/>
<path opacity="0.2" d="M698.707 151.215H751.201L765.518 123.775L780.431 96.335L698.707 151.215Z" fill="url(#paint16_linear_2973_177620)"/>
<path opacity="0.4" d="M814.432 252.027L785.799 300.346L819.801 279.467L865.733 252.027H814.432Z" fill="url(#paint17_linear_2973_177620)"/>
<path d="M874.683 150.904H699.305L784.011 95.1416" stroke="#7275B6" stroke-width="1.19305"/>
<path d="M694.158 252.064H866.067L783.557 300.446" stroke="#7275B6" stroke-width="1.19305"/>
<path opacity="0.2" d="M782.324 93.7246L875.839 149.12L784.183 303.848L691.548 252.026L782.324 93.7246Z" fill="url(#paint18_linear_2973_177620)"/>
<path d="M783.966 303.043L692.366 251.8L782.541 94.5462L875.022 149.329L783.966 303.043Z" stroke="#E3E3F9" stroke-width="1.19305"/>
<path d="M1043.64 96.931H873.037L958.34 42.0508" stroke="#7275B6" stroke-width="1.19305" stroke-dasharray="3.58 3.58"/>
<path d="M863.494 197.147H1040.07L952.897 249.642" stroke="#7275B6" stroke-width="1.19305" stroke-dasharray="3.58 3.58"/>
<rect x="955.074" y="43.2411" width="106.181" height="178.645" transform="rotate(30.6412 955.074 43.2411)" stroke="#7275B6" stroke-width="1.19305" stroke-dasharray="3.58 3.58"/>
<path opacity="0.2" d="M871.248 151.215H923.742L938.059 123.775L952.972 96.335L871.248 151.215Z" fill="url(#paint19_linear_2973_177620)"/>
<path d="M1047.22 150.904H871.846L956.552 95.1416" stroke="#7275B6" stroke-width="1.19305"/>
<path d="M866.699 252.064H1038.61L956.098 300.446" stroke="#7275B6" stroke-width="1.19305"/>
<path opacity="0.2" d="M954.865 93.7246L1048.38 149.12L956.724 303.848L864.089 252.026L954.865 93.7246Z" fill="url(#paint20_linear_2973_177620)"/>
<path d="M956.507 303.043L864.907 251.8L955.082 94.5462L1047.56 149.329L956.507 303.043Z" stroke="#E3E3F9" stroke-width="1.19305"/>
<path d="M93.9668 302.647V507.17" stroke="#7275B6" stroke-width="1.19305" stroke-dasharray="3.58 3.58"/>
<path d="M181.377 352.755H10.7715L96.0744 297.875" stroke="#7275B6" stroke-width="1.19305" stroke-dasharray="3.58 3.58"/>
<path d="M1.22852 452.972H177.8L90.6316 505.466" stroke="#7275B6" stroke-width="1.19305" stroke-dasharray="3.58 3.58"/>
<rect x="92.8088" y="299.065" width="106.181" height="178.645" transform="rotate(30.6412 92.8088 299.065)" stroke="#7275B6" stroke-width="1.19305" stroke-dasharray="3.58 3.58"/>
<path d="M93.9668 353.948V558.471" stroke="#7275B6" stroke-width="1.19305"/>
<path opacity="0.2" d="M8.98242 407.039H61.4766L75.7931 379.599L90.7062 352.159L8.98242 407.039Z" fill="url(#paint21_linear_2973_177620)"/>
<path d="M184.958 406.729H9.58008L94.2865 350.966" stroke="#7275B6" stroke-width="1.19305"/>
<path opacity="0.2" d="M92.5996 349.549L186.114 404.944L94.4583 559.672L1.82366 507.85L92.5996 349.549Z" fill="url(#paint22_linear_2973_177620)"/>
<path d="M94.2416 558.867L2.64104 507.624L92.8161 350.37L185.297 405.153L94.2416 558.867Z" stroke="#E3E3F9" stroke-width="1.19305"/>
<path d="M266.508 302.647V507.17" stroke="#7275B6" stroke-width="1.19305" stroke-dasharray="3.58 3.58"/>
<path d="M353.918 352.755H183.312L268.615 297.875" stroke="#7275B6" stroke-width="1.19305" stroke-dasharray="3.58 3.58"/>
<path d="M173.77 452.972H350.341L263.173 505.466" stroke="#7275B6" stroke-width="1.19305" stroke-dasharray="3.58 3.58"/>
<rect x="265.35" y="299.065" width="106.181" height="178.645" transform="rotate(30.6412 265.35 299.065)" stroke="#7275B6" stroke-width="1.19305" stroke-dasharray="3.58 3.58"/>
<path d="M266.508 353.948V558.471" stroke="#7275B6" stroke-width="1.19305"/>
<path opacity="0.2" d="M181.523 407.039H234.018L248.334 379.599L263.247 352.159L181.523 407.039Z" fill="url(#paint23_linear_2973_177620)"/>
<path d="M357.499 406.729H182.121L266.828 350.966" stroke="#7275B6" stroke-width="1.19305"/>
<path opacity="0.2" d="M265.141 349.549L358.655 404.944L266.999 559.672L174.365 507.85L265.141 349.549Z" fill="url(#paint24_linear_2973_177620)"/>
<path d="M266.783 558.867L175.182 507.624L265.357 350.37L357.838 405.153L266.783 558.867Z" stroke="#E3E3F9" stroke-width="1.19305"/>
<path d="M439.049 302.647V507.17" stroke="#7275B6" stroke-width="1.19305" stroke-dasharray="3.58 3.58"/>
<path d="M526.459 352.755H355.854L441.156 297.875" stroke="#7275B6" stroke-width="1.19305" stroke-dasharray="3.58 3.58"/>
<path d="M346.311 452.972H522.882L435.714 505.466" stroke="#7275B6" stroke-width="1.19305" stroke-dasharray="3.58 3.58"/>
<rect x="437.891" y="299.065" width="106.181" height="178.645" transform="rotate(30.6412 437.891 299.065)" stroke="#7275B6" stroke-width="1.19305" stroke-dasharray="3.58 3.58"/>
<path d="M439.049 353.948V558.471" stroke="#7275B6" stroke-width="1.19305"/>
<path opacity="0.2" d="M354.064 407.039H406.559L420.875 379.599L435.788 352.159L354.064 407.039Z" fill="url(#paint25_linear_2973_177620)"/>
<path d="M530.04 406.729H354.662L439.369 350.966" stroke="#7275B6" stroke-width="1.19305"/>
<path opacity="0.2" d="M437.682 349.549L531.196 404.944L439.54 559.672L346.906 507.85L437.682 349.549Z" fill="url(#paint26_linear_2973_177620)"/>
<path d="M439.324 558.867L347.723 507.624L437.898 350.37L530.379 405.153L439.324 558.867Z" stroke="#E3E3F9" stroke-width="1.19305"/>
<path d="M611.59 302.647V507.17" stroke="#7275B6" stroke-width="1.19305" stroke-dasharray="3.58 3.58"/>
<path d="M699 352.755H528.395L613.697 297.875" stroke="#7275B6" stroke-width="1.19305" stroke-dasharray="3.58 3.58"/>
<path d="M518.852 452.972H695.423L608.255 505.466" stroke="#7275B6" stroke-width="1.19305" stroke-dasharray="3.58 3.58"/>
<rect x="610.432" y="299.065" width="106.181" height="178.645" transform="rotate(30.6412 610.432 299.065)" stroke="#7275B6" stroke-width="1.19305" stroke-dasharray="3.58 3.58"/>
<path d="M611.59 353.948V558.471" stroke="#7275B6" stroke-width="1.19305"/>
<path opacity="0.2" d="M526.605 407.039H579.1L593.416 379.599L608.329 352.159L526.605 407.039Z" fill="url(#paint27_linear_2973_177620)"/>
<path d="M702.581 406.729H527.203L611.91 350.966" stroke="#7275B6" stroke-width="1.19305"/>
<path opacity="0.2" d="M610.223 349.549L703.737 404.944L612.081 559.672L519.447 507.85L610.223 349.549Z" fill="url(#paint28_linear_2973_177620)"/>
<path d="M611.865 558.867L520.264 507.624L610.439 350.37L702.92 405.153L611.865 558.867Z" stroke="#E3E3F9" stroke-width="1.19305"/>
<path d="M784.131 302.647V507.17" stroke="#7275B6" stroke-width="1.19305" stroke-dasharray="3.58 3.58"/>
<path d="M871.541 352.755H700.936L786.239 297.875" stroke="#7275B6" stroke-width="1.19305" stroke-dasharray="3.58 3.58"/>
<path d="M691.393 452.972H867.964L780.796 505.466" stroke="#7275B6" stroke-width="1.19305" stroke-dasharray="3.58 3.58"/>
<rect x="782.973" y="299.065" width="106.181" height="178.645" transform="rotate(30.6412 782.973 299.065)" stroke="#7275B6" stroke-width="1.19305" stroke-dasharray="3.58 3.58"/>
<path d="M784.131 353.948V558.471" stroke="#7275B6" stroke-width="1.19305"/>
<path opacity="0.2" d="M699.146 407.039H751.641L765.957 379.599L780.87 352.159L699.146 407.039Z" fill="url(#paint29_linear_2973_177620)"/>
<path d="M875.122 406.729H699.744L784.451 350.966" stroke="#7275B6" stroke-width="1.19305"/>
<path opacity="0.2" d="M782.764 349.549L876.278 404.944L784.622 559.672L691.988 507.85L782.764 349.549Z" fill="url(#paint30_linear_2973_177620)"/>
<path d="M784.406 558.867L692.805 507.624L782.98 350.37L875.461 405.153L784.406 558.867Z" stroke="#E3E3F9" stroke-width="1.19305"/>
<path d="M1044.08 352.755H873.477L958.78 297.875" stroke="#7275B6" stroke-width="1.19305" stroke-dasharray="3.58 3.58"/>
<path d="M863.934 452.972H1040.5L953.337 505.466" stroke="#7275B6" stroke-width="1.19305" stroke-dasharray="3.58 3.58"/>
<rect x="955.514" y="299.065" width="106.181" height="178.645" transform="rotate(30.6412 955.514 299.065)" stroke="#7275B6" stroke-width="1.19305" stroke-dasharray="3.58 3.58"/>
<path opacity="0.2" d="M871.688 407.039H924.182L938.498 379.599L953.411 352.159L871.688 407.039Z" fill="url(#paint31_linear_2973_177620)"/>
<path d="M1047.66 406.729H872.285L956.992 350.966" stroke="#7275B6" stroke-width="1.19305"/>
<path opacity="0.2" d="M955.305 349.549L1048.82 404.944L957.163 559.672L864.529 507.85L955.305 349.549Z" fill="url(#paint32_linear_2973_177620)"/>
<path d="M956.947 558.867L865.346 507.624L955.521 350.37L1048 405.153L956.947 558.867Z" stroke="#E3E3F9" stroke-width="1.19305"/>
</g>
<defs>
<linearGradient id="paint0_linear_2973_177620" x1="459.806" y1="15.2929" x2="511.703" y2="-2.00633" gradientUnits="userSpaceOnUse">
<stop stop-color="#323350"/>
<stop offset="1" stop-color="#7275B6"/>
</linearGradient>
<linearGradient id="paint1_linear_2973_177620" x1="441.314" y1="-149.349" x2="434.752" y2="42.1353" gradientUnits="userSpaceOnUse">
<stop stop-color="#B19ABA"/>
<stop offset="1" stop-color="#775088"/>
</linearGradient>
<linearGradient id="paint2_linear_2973_177620" x1="632.347" y1="15.2929" x2="684.244" y2="-2.00633" gradientUnits="userSpaceOnUse">
<stop stop-color="#323350"/>
<stop offset="1" stop-color="#7275B6"/>
</linearGradient>
<linearGradient id="paint3_linear_2973_177620" x1="613.855" y1="-149.349" x2="607.293" y2="42.1353" gradientUnits="userSpaceOnUse">
<stop stop-color="#B19ABA"/>
<stop offset="1" stop-color="#775088"/>
</linearGradient>
<linearGradient id="paint4_linear_2973_177620" x1="804.888" y1="15.2929" x2="856.785" y2="-2.00633" gradientUnits="userSpaceOnUse">
<stop stop-color="#323350"/>
<stop offset="1" stop-color="#7275B6"/>
</linearGradient>
<linearGradient id="paint5_linear_2973_177620" x1="786.396" y1="-149.349" x2="779.834" y2="42.1353" gradientUnits="userSpaceOnUse">
<stop stop-color="#B19ABA"/>
<stop offset="1" stop-color="#775088"/>
</linearGradient>
<linearGradient id="paint6_linear_2973_177620" x1="958.937" y1="-149.349" x2="952.375" y2="42.1353" gradientUnits="userSpaceOnUse">
<stop stop-color="#B19ABA"/>
<stop offset="1" stop-color="#775088"/>
</linearGradient>
<linearGradient id="paint7_linear_2973_177620" x1="187.049" y1="150.619" x2="246.105" y2="126.758" gradientUnits="userSpaceOnUse">
<stop stop-color="#7275B6"/>
<stop offset="1" stop-color="#323350"/>
</linearGradient>
<linearGradient id="paint8_linear_2973_177620" x1="287.265" y1="271.116" x2="339.162" y2="253.817" gradientUnits="userSpaceOnUse">
<stop stop-color="#323350"/>
<stop offset="1" stop-color="#7275B6"/>
</linearGradient>
<linearGradient id="paint9_linear_2973_177620" x1="268.773" y1="106.474" x2="262.211" y2="297.959" gradientUnits="userSpaceOnUse">
<stop stop-color="#B19ABA"/>
<stop offset="1" stop-color="#775088"/>
</linearGradient>
<linearGradient id="paint10_linear_2973_177620" x1="359.59" y1="150.619" x2="418.646" y2="126.758" gradientUnits="userSpaceOnUse">
<stop stop-color="#7275B6"/>
<stop offset="1" stop-color="#323350"/>
</linearGradient>
<linearGradient id="paint11_linear_2973_177620" x1="459.806" y1="271.116" x2="511.703" y2="253.817" gradientUnits="userSpaceOnUse">
<stop stop-color="#323350"/>
<stop offset="1" stop-color="#7275B6"/>
</linearGradient>
<linearGradient id="paint12_linear_2973_177620" x1="441.314" y1="106.474" x2="434.752" y2="297.959" gradientUnits="userSpaceOnUse">
<stop stop-color="#B19ABA"/>
<stop offset="1" stop-color="#775088"/>
</linearGradient>
<linearGradient id="paint13_linear_2973_177620" x1="532.131" y1="150.619" x2="591.187" y2="126.758" gradientUnits="userSpaceOnUse">
<stop stop-color="#7275B6"/>
<stop offset="1" stop-color="#323350"/>
</linearGradient>
<linearGradient id="paint14_linear_2973_177620" x1="632.347" y1="271.116" x2="684.244" y2="253.817" gradientUnits="userSpaceOnUse">
<stop stop-color="#323350"/>
<stop offset="1" stop-color="#7275B6"/>
</linearGradient>
<linearGradient id="paint15_linear_2973_177620" x1="613.855" y1="106.474" x2="607.293" y2="297.959" gradientUnits="userSpaceOnUse">
<stop stop-color="#B19ABA"/>
<stop offset="1" stop-color="#775088"/>
</linearGradient>
<linearGradient id="paint16_linear_2973_177620" x1="704.672" y1="150.619" x2="763.728" y2="126.758" gradientUnits="userSpaceOnUse">
<stop stop-color="#7275B6"/>
<stop offset="1" stop-color="#323350"/>
</linearGradient>
<linearGradient id="paint17_linear_2973_177620" x1="804.888" y1="271.116" x2="856.785" y2="253.817" gradientUnits="userSpaceOnUse">
<stop stop-color="#323350"/>
<stop offset="1" stop-color="#7275B6"/>
</linearGradient>
<linearGradient id="paint18_linear_2973_177620" x1="786.396" y1="106.474" x2="779.834" y2="297.959" gradientUnits="userSpaceOnUse">
<stop stop-color="#B19ABA"/>
<stop offset="1" stop-color="#775088"/>
</linearGradient>
<linearGradient id="paint19_linear_2973_177620" x1="877.213" y1="150.619" x2="936.269" y2="126.758" gradientUnits="userSpaceOnUse">
<stop stop-color="#7275B6"/>
<stop offset="1" stop-color="#323350"/>
</linearGradient>
<linearGradient id="paint20_linear_2973_177620" x1="958.937" y1="106.474" x2="952.375" y2="297.959" gradientUnits="userSpaceOnUse">
<stop stop-color="#B19ABA"/>
<stop offset="1" stop-color="#775088"/>
</linearGradient>
<linearGradient id="paint21_linear_2973_177620" x1="14.9477" y1="406.443" x2="74.0036" y2="382.582" gradientUnits="userSpaceOnUse">
<stop stop-color="#7275B6"/>
<stop offset="1" stop-color="#323350"/>
</linearGradient>
<linearGradient id="paint22_linear_2973_177620" x1="96.671" y1="362.299" x2="90.1092" y2="553.783" gradientUnits="userSpaceOnUse">
<stop stop-color="#B19ABA"/>
<stop offset="1" stop-color="#775088"/>
</linearGradient>
<linearGradient id="paint23_linear_2973_177620" x1="187.489" y1="406.443" x2="246.545" y2="382.582" gradientUnits="userSpaceOnUse">
<stop stop-color="#7275B6"/>
<stop offset="1" stop-color="#323350"/>
</linearGradient>
<linearGradient id="paint24_linear_2973_177620" x1="269.212" y1="362.299" x2="262.65" y2="553.783" gradientUnits="userSpaceOnUse">
<stop stop-color="#B19ABA"/>
<stop offset="1" stop-color="#775088"/>
</linearGradient>
<linearGradient id="paint25_linear_2973_177620" x1="360.03" y1="406.443" x2="419.086" y2="382.582" gradientUnits="userSpaceOnUse">
<stop stop-color="#7275B6"/>
<stop offset="1" stop-color="#323350"/>
</linearGradient>
<linearGradient id="paint26_linear_2973_177620" x1="441.753" y1="362.299" x2="435.191" y2="553.783" gradientUnits="userSpaceOnUse">
<stop stop-color="#B19ABA"/>
<stop offset="1" stop-color="#775088"/>
</linearGradient>
<linearGradient id="paint27_linear_2973_177620" x1="532.571" y1="406.443" x2="591.627" y2="382.582" gradientUnits="userSpaceOnUse">
<stop stop-color="#7275B6"/>
<stop offset="1" stop-color="#323350"/>
</linearGradient>
<linearGradient id="paint28_linear_2973_177620" x1="614.294" y1="362.299" x2="607.732" y2="553.783" gradientUnits="userSpaceOnUse">
<stop stop-color="#B19ABA"/>
<stop offset="1" stop-color="#775088"/>
</linearGradient>
<linearGradient id="paint29_linear_2973_177620" x1="705.112" y1="406.443" x2="764.168" y2="382.582" gradientUnits="userSpaceOnUse">
<stop stop-color="#7275B6"/>
<stop offset="1" stop-color="#323350"/>
</linearGradient>
<linearGradient id="paint30_linear_2973_177620" x1="786.835" y1="362.299" x2="780.273" y2="553.783" gradientUnits="userSpaceOnUse">
<stop stop-color="#B19ABA"/>
<stop offset="1" stop-color="#775088"/>
</linearGradient>
<linearGradient id="paint31_linear_2973_177620" x1="877.653" y1="406.443" x2="936.709" y2="382.582" gradientUnits="userSpaceOnUse">
<stop stop-color="#7275B6"/>
<stop offset="1" stop-color="#323350"/>
</linearGradient>
<linearGradient id="paint32_linear_2973_177620" x1="959.376" y1="362.299" x2="952.814" y2="553.783" gradientUnits="userSpaceOnUse">
<stop stop-color="#B19ABA"/>
<stop offset="1" stop-color="#775088"/>
</linearGradient>
</defs>
</svg>
