<svg width="1904" height="684" viewBox="0 0 1904 684" fill="none" xmlns="http://www.w3.org/2000/svg">
<g opacity="0.25" clip-path="url(#clip0_4145_84357)">
<path opacity="0.4" d="M1526.38 -14.2876V137.269L1661.66 186.931V35.3749L1526.38 -14.2876Z" fill="#9B9EDE"/>
<path opacity="0.1" d="M1527.23 -14.2876V136.624L1390.23 186.075V87.6061L1527.23 -14.2876Z" fill="#9B9EDE"/>
<path opacity="0.5" d="M1525.52 138.125V86.75L1390.23 186.931L1525.52 138.125Z" fill="#9B9EDE"/>
<path opacity="0.5" d="M1661.66 87.6063V137.269L1525.52 34.5188L1661.66 87.6063Z" fill="#9B9EDE"/>
<path d="M1661.66 35.3749L1526.38 -14.2876L1390.23 87.6062L1661.66 87.6062M1661.66 35.3749V87.6062M1661.66 35.3749H1525.95M1661.66 87.6062V137.269M1390.23 137.269H1525.95M1661.66 137.269V186.931L1525.95 137.269M1661.66 137.269H1525.95M1525.95 137.269V35.3749M1525.95 35.3749L1390.23 35.3749V186.931" stroke="#9B9EDE" stroke-width="0.85625"/>
<path d="M1525.52 87.6063L1390.23 186.075L1525.52 137.269M1660.81 87.6063L1525.52 34.5188L1660.81 137.269" stroke="#9B9EDE" stroke-width="0.85625"/>
<path opacity="0.4" d="M1798.38 -14.2876V137.269L1933.66 186.931V35.3749L1798.38 -14.2876Z" fill="#9B9EDE"/>
<path opacity="0.1" d="M1799.23 -14.2876V136.624L1662.23 186.075V87.6061L1799.23 -14.2876Z" fill="#9B9EDE"/>
<path opacity="0.5" d="M1797.52 138.125V86.75L1662.23 186.931L1797.52 138.125Z" fill="#9B9EDE"/>
<path opacity="0.5" d="M1933.66 87.6063V137.269L1797.52 34.5188L1933.66 87.6063Z" fill="#9B9EDE"/>
<path d="M1933.66 35.3749L1798.38 -14.2876L1662.23 87.6062L1933.66 87.6062M1933.66 35.3749V87.6062M1933.66 35.3749H1797.95M1933.66 87.6062V137.269M1662.23 137.269H1797.95M1933.66 137.269V186.931L1797.95 137.269M1933.66 137.269H1797.95M1797.95 137.269V35.3749M1797.95 35.3749L1662.23 35.3749V186.931" stroke="#9B9EDE" stroke-width="0.85625"/>
<path d="M1797.52 87.6063L1662.23 186.075L1797.52 137.269M1932.81 87.6063L1797.52 34.5188L1932.81 137.269" stroke="#9B9EDE" stroke-width="0.85625"/>
<path opacity="0.4" d="M1254.38 138.713V290.269L1389.66 339.931V188.375L1254.38 138.713Z" fill="#9B9EDE"/>
<path opacity="0.1" d="M1255.23 138.713V289.624L1118.23 339.075V240.606L1255.23 138.713Z" fill="#9B9EDE"/>
<path opacity="0.5" d="M1253.52 291.125V239.75L1118.23 339.931L1253.52 291.125Z" fill="#9B9EDE"/>
<path opacity="0.5" d="M1389.66 240.606V290.269L1253.52 187.519L1389.66 240.606Z" fill="#9B9EDE"/>
<path d="M1389.66 188.375L1254.38 138.713L1118.23 240.606H1389.66M1389.66 188.375V240.606M1389.66 188.375H1253.95M1389.66 240.606V290.269M1118.23 290.269H1253.95M1389.66 290.269V339.931L1253.95 290.269M1389.66 290.269H1253.95M1253.95 290.269V188.375M1253.95 188.375H1118.23V339.931" stroke="#9B9EDE" stroke-width="0.85625"/>
<path d="M1253.52 240.606L1118.23 339.075L1253.52 290.269M1388.81 240.606L1253.52 187.519L1388.81 290.269" stroke="#9B9EDE" stroke-width="0.85625"/>
<g opacity="0.4">
<path opacity="0.4" d="M1526.38 138.713V290.269L1661.66 339.931V188.375L1526.38 138.713Z" fill="#9B9EDE"/>
<path opacity="0.1" d="M1527.23 138.713V289.624L1390.23 339.075V240.606L1527.23 138.713Z" fill="#9B9EDE"/>
<path opacity="0.5" d="M1525.52 291.125V239.75L1390.23 339.931L1525.52 291.125Z" fill="#9B9EDE"/>
<path opacity="0.5" d="M1661.66 240.606V290.269L1525.52 187.519L1661.66 240.606Z" fill="#9B9EDE"/>
<path d="M1661.66 188.375L1526.38 138.713L1390.23 240.606H1661.66M1661.66 188.375V240.606M1661.66 188.375H1525.95M1661.66 240.606V290.269M1390.23 290.269H1525.95M1661.66 290.269V339.931L1525.95 290.269M1661.66 290.269H1525.95M1525.95 290.269V188.375M1525.95 188.375H1390.23V339.931" stroke="#9B9EDE" stroke-width="0.85625"/>
<path d="M1525.52 240.606L1390.23 339.075L1525.52 290.269M1660.81 240.606L1525.52 187.519L1660.81 290.269" stroke="#9B9EDE" stroke-width="0.85625"/>
</g>
<g opacity="0.4">
<path opacity="0.4" d="M1798.38 138.713V290.269L1933.66 339.931V188.375L1798.38 138.713Z" fill="#9B9EDE"/>
<path opacity="0.1" d="M1799.23 138.713V289.624L1662.23 339.075V240.606L1799.23 138.713Z" fill="#9B9EDE"/>
<path opacity="0.5" d="M1797.52 291.125V239.75L1662.23 339.931L1797.52 291.125Z" fill="#9B9EDE"/>
<path opacity="0.5" d="M1933.66 240.606V290.269L1797.52 187.519L1933.66 240.606Z" fill="#9B9EDE"/>
<path d="M1933.66 188.375L1798.38 138.713L1662.23 240.606H1933.66M1933.66 188.375V240.606M1933.66 188.375H1797.95M1933.66 240.606V290.269M1662.23 290.269H1797.95M1933.66 290.269V339.931L1797.95 290.269M1933.66 290.269H1797.95M1797.95 290.269V188.375M1797.95 188.375H1662.23V339.931" stroke="#9B9EDE" stroke-width="0.85625"/>
<path d="M1797.52 240.606L1662.23 339.075L1797.52 290.269M1932.81 240.606L1797.52 187.519L1932.81 290.269" stroke="#9B9EDE" stroke-width="0.85625"/>
</g>
<path opacity="0.4" d="M982.376 291.713V443.269L1117.66 492.931V341.375L982.376 291.713Z" fill="#9B9EDE"/>
<path opacity="0.1" d="M983.232 291.713V442.624L846.232 492.075V393.606L983.232 291.713Z" fill="#9B9EDE"/>
<path opacity="0.5" d="M981.52 444.125V392.75L846.232 492.931L981.52 444.125Z" fill="#9B9EDE"/>
<path opacity="0.5" d="M1117.66 393.606V443.269L981.52 340.519L1117.66 393.606Z" fill="#9B9EDE"/>
<path d="M1117.66 341.375L982.376 291.713L846.232 393.606H1117.66M1117.66 341.375V393.606M1117.66 341.375H981.948M1117.66 393.606V443.269M846.232 443.269H981.948M1117.66 443.269V492.931L981.948 443.269M1117.66 443.269H981.948M981.948 443.269V341.375M981.948 341.375H846.232V492.931" stroke="#9B9EDE" stroke-width="0.85625"/>
<path d="M981.52 393.606L846.232 492.075L981.52 443.269M1116.81 393.606L981.52 340.519L1116.81 443.269" stroke="#9B9EDE" stroke-width="0.85625"/>
<g opacity="0.4">
<path opacity="0.4" d="M1254.38 291.713V443.269L1389.66 492.931V341.375L1254.38 291.713Z" fill="#9B9EDE"/>
<path opacity="0.1" d="M1255.23 291.713V442.624L1118.23 492.075V393.606L1255.23 291.713Z" fill="#9B9EDE"/>
<path opacity="0.5" d="M1253.52 444.125V392.75L1118.23 492.931L1253.52 444.125Z" fill="#9B9EDE"/>
<path opacity="0.5" d="M1389.66 393.606V443.269L1253.52 340.519L1389.66 393.606Z" fill="#9B9EDE"/>
<path d="M1389.66 341.375L1254.38 291.713L1118.23 393.606H1389.66M1389.66 341.375V393.606M1389.66 341.375H1253.95M1389.66 393.606V443.269M1118.23 443.269H1253.95M1389.66 443.269V492.931L1253.95 443.269M1389.66 443.269H1253.95M1253.95 443.269V341.375M1253.95 341.375H1118.23V492.931" stroke="#9B9EDE" stroke-width="0.85625"/>
<path d="M1253.52 393.606L1118.23 492.075L1253.52 443.269M1388.81 393.606L1253.52 340.519L1388.81 443.269" stroke="#9B9EDE" stroke-width="0.85625"/>
</g>
<g opacity="0.4">
<path opacity="0.4" d="M1526.38 291.713V443.269L1661.66 492.931V341.375L1526.38 291.713Z" fill="#9B9EDE"/>
<path opacity="0.1" d="M1527.23 291.713V442.624L1390.23 492.075V393.606L1527.23 291.713Z" fill="#9B9EDE"/>
<path opacity="0.5" d="M1525.52 444.125V392.75L1390.23 492.931L1525.52 444.125Z" fill="#9B9EDE"/>
<path opacity="0.5" d="M1661.66 393.606V443.269L1525.52 340.519L1661.66 393.606Z" fill="#9B9EDE"/>
<path d="M1661.66 341.375L1526.38 291.713L1390.23 393.606H1661.66M1661.66 341.375V393.606M1661.66 341.375H1525.95M1661.66 393.606V443.269M1390.23 443.269H1525.95M1661.66 443.269V492.931L1525.95 443.269M1661.66 443.269H1525.95M1525.95 443.269V341.375M1525.95 341.375H1390.23V492.931" stroke="#9B9EDE" stroke-width="0.85625"/>
<path d="M1525.52 393.606L1390.23 492.075L1525.52 443.269M1660.81 393.606L1525.52 340.519L1660.81 443.269" stroke="#9B9EDE" stroke-width="0.85625"/>
</g>
<g opacity="0.4">
<path opacity="0.4" d="M1798.38 291.713V443.269L1933.66 492.931V341.375L1798.38 291.713Z" fill="#9B9EDE"/>
<path opacity="0.1" d="M1799.23 291.713V442.624L1662.23 492.075V393.606L1799.23 291.713Z" fill="#9B9EDE"/>
<path opacity="0.5" d="M1797.52 444.125V392.75L1662.23 492.931L1797.52 444.125Z" fill="#9B9EDE"/>
<path opacity="0.5" d="M1933.66 393.606V443.269L1797.52 340.519L1933.66 393.606Z" fill="#9B9EDE"/>
<path d="M1933.66 341.375L1798.38 291.713L1662.23 393.606H1933.66M1933.66 341.375V393.606M1933.66 341.375H1797.95M1933.66 393.606V443.269M1662.23 443.269H1797.95M1933.66 443.269V492.931L1797.95 443.269M1933.66 443.269H1797.95M1797.95 443.269V341.375M1797.95 341.375H1662.23V492.931" stroke="#9B9EDE" stroke-width="0.85625"/>
<path d="M1797.52 393.606L1662.23 492.075L1797.52 443.269M1932.81 393.606L1797.52 340.519L1932.81 443.269" stroke="#9B9EDE" stroke-width="0.85625"/>
</g>
<path opacity="0.4" d="M710.376 444.713V596.269L845.663 645.931V494.375L710.376 444.713Z" fill="#9B9EDE"/>
<path opacity="0.1" d="M711.232 444.713V595.624L574.232 645.075V546.606L711.232 444.713Z" fill="#9B9EDE"/>
<path opacity="0.5" d="M709.519 597.125V545.75L574.232 645.931L709.519 597.125Z" fill="#9B9EDE"/>
<path opacity="0.5" d="M845.663 546.606V596.269L709.52 493.519L845.663 546.606Z" fill="#9B9EDE"/>
<path d="M845.663 494.375L710.376 444.713L574.232 546.606H845.663M845.663 494.375V546.606M845.663 494.375H709.948M845.663 546.606V596.269M574.232 596.269H709.948M845.663 596.269V645.931L709.948 596.269M845.663 596.269H709.948M709.948 596.269V494.375M709.948 494.375H574.232V645.931" stroke="#9B9EDE" stroke-width="0.85625"/>
<path d="M709.519 546.606L574.232 645.075L709.519 596.269M844.807 546.606L709.519 493.519L844.807 596.269" stroke="#9B9EDE" stroke-width="0.85625"/>
<g opacity="0.4">
<path opacity="0.4" d="M982.376 444.713V596.269L1117.66 645.931V494.375L982.376 444.713Z" fill="#9B9EDE"/>
<path opacity="0.1" d="M983.232 444.713V595.624L846.232 645.075V546.606L983.232 444.713Z" fill="#9B9EDE"/>
<path opacity="0.5" d="M981.52 597.125V545.75L846.232 645.931L981.52 597.125Z" fill="#9B9EDE"/>
<path opacity="0.5" d="M1117.66 546.606V596.269L981.52 493.519L1117.66 546.606Z" fill="#9B9EDE"/>
<path d="M1117.66 494.375L982.376 444.713L846.232 546.606H1117.66M1117.66 494.375V546.606M1117.66 494.375H981.948M1117.66 546.606V596.269M846.232 596.269H981.948M1117.66 596.269V645.931L981.948 596.269M1117.66 596.269H981.948M981.948 596.269V494.375M981.948 494.375H846.232V645.931" stroke="#9B9EDE" stroke-width="0.85625"/>
<path d="M981.52 546.606L846.232 645.075L981.52 596.269M1116.81 546.606L981.52 493.519L1116.81 596.269" stroke="#9B9EDE" stroke-width="0.85625"/>
</g>
<g opacity="0.4">
<path opacity="0.4" d="M1254.38 444.713V596.269L1389.66 645.931V494.375L1254.38 444.713Z" fill="#9B9EDE"/>
<path opacity="0.1" d="M1255.23 444.713V595.624L1118.23 645.075V546.606L1255.23 444.713Z" fill="#9B9EDE"/>
<path opacity="0.5" d="M1253.52 597.125V545.75L1118.23 645.931L1253.52 597.125Z" fill="#9B9EDE"/>
<path opacity="0.5" d="M1389.66 546.606V596.269L1253.52 493.519L1389.66 546.606Z" fill="#9B9EDE"/>
<path d="M1389.66 494.375L1254.38 444.713L1118.23 546.606H1389.66M1389.66 494.375V546.606M1389.66 494.375H1253.95M1389.66 546.606V596.269M1118.23 596.269H1253.95M1389.66 596.269V645.931L1253.95 596.269M1389.66 596.269H1253.95M1253.95 596.269V494.375M1253.95 494.375H1118.23V645.931" stroke="#9B9EDE" stroke-width="0.85625"/>
<path d="M1253.52 546.606L1118.23 645.075L1253.52 596.269M1388.81 546.606L1253.52 493.519L1388.81 596.269" stroke="#9B9EDE" stroke-width="0.85625"/>
</g>
<g opacity="0.4">
<path opacity="0.4" d="M1526.38 444.713V596.269L1661.66 645.931V494.375L1526.38 444.713Z" fill="#9B9EDE"/>
<path opacity="0.1" d="M1527.23 444.713V595.624L1390.23 645.075V546.606L1527.23 444.713Z" fill="#9B9EDE"/>
<path opacity="0.5" d="M1525.52 597.125V545.75L1390.23 645.931L1525.52 597.125Z" fill="#9B9EDE"/>
<path opacity="0.5" d="M1661.66 546.606V596.269L1525.52 493.519L1661.66 546.606Z" fill="#9B9EDE"/>
<path d="M1661.66 494.375L1526.38 444.713L1390.23 546.606H1661.66M1661.66 494.375V546.606M1661.66 494.375H1525.95M1661.66 546.606V596.269M1390.23 596.269H1525.95M1661.66 596.269V645.931L1525.95 596.269M1661.66 596.269H1525.95M1525.95 596.269V494.375M1525.95 494.375H1390.23V645.931" stroke="#9B9EDE" stroke-width="0.85625"/>
<path d="M1525.52 546.606L1390.23 645.075L1525.52 596.269M1660.81 546.606L1525.52 493.519L1660.81 596.269" stroke="#9B9EDE" stroke-width="0.85625"/>
</g>
<g opacity="0.4">
<path opacity="0.4" d="M1798.38 444.713V596.269L1933.66 645.931V494.375L1798.38 444.713Z" fill="#9B9EDE"/>
<path opacity="0.1" d="M1799.23 444.713V595.624L1662.23 645.075V546.606L1799.23 444.713Z" fill="#9B9EDE"/>
<path opacity="0.5" d="M1797.52 597.125V545.75L1662.23 645.931L1797.52 597.125Z" fill="#9B9EDE"/>
<path opacity="0.5" d="M1933.66 546.606V596.269L1797.52 493.519L1933.66 546.606Z" fill="#9B9EDE"/>
<path d="M1933.66 494.375L1798.38 444.713L1662.23 546.606H1933.66M1933.66 494.375V546.606M1933.66 494.375H1797.95M1933.66 546.606V596.269M1662.23 596.269H1797.95M1933.66 596.269V645.931L1797.95 596.269M1933.66 596.269H1797.95M1797.95 596.269V494.375M1797.95 494.375H1662.23V645.931" stroke="#9B9EDE" stroke-width="0.85625"/>
<path d="M1797.52 546.606L1662.23 645.075L1797.52 596.269M1932.81 546.606L1797.52 493.519L1932.81 596.269" stroke="#9B9EDE" stroke-width="0.85625"/>
</g>
<g opacity="0.5">
<g opacity="0.5">
<path opacity="0.4" d="M166.856 596.713V748.269L302.144 797.931V646.375L166.856 596.713Z" fill="#9B9EDE"/>
<path opacity="0.1" d="M167.712 596.713V747.624L30.7124 797.075V698.606L167.712 596.713Z" fill="#9B9EDE"/>
<path opacity="0.5" d="M302.144 698.606V748.269L166 645.519L302.144 698.606Z" fill="#9B9EDE"/>
<path d="M302.144 646.375L166.856 596.713L30.7124 698.606H302.144M302.144 646.375V698.606M302.144 646.375H166.428M302.144 698.606V748.269M30.7124 748.269H166.428M302.144 748.269V797.931L166.428 748.269M302.144 748.269H166.428M166.428 748.269V646.375M166.428 646.375H30.7124L30.7124 797.931" stroke="#9B9EDE" stroke-width="0.85625"/>
<path d="M166 698.606L30.7124 797.075L166 748.269M301.287 698.606L166 645.519L301.287 748.269" stroke="#9B9EDE" stroke-width="0.85625"/>
</g>
<g opacity="0.5">
<path opacity="0.4" d="M438.856 596.713V748.269L574.144 797.931V646.375L438.856 596.713Z" fill="#9B9EDE"/>
<path opacity="0.1" d="M439.712 596.713V747.624L302.712 797.075V698.606L439.712 596.713Z" fill="#9B9EDE"/>
<path opacity="0.5" d="M574.144 698.606V748.269L438 645.519L574.144 698.606Z" fill="#9B9EDE"/>
<path d="M574.144 646.375L438.856 596.713L302.712 698.606H574.144M574.144 646.375V698.606M574.144 646.375H438.428M574.144 698.606V748.269M302.712 748.269H438.428M574.144 748.269V797.931L438.428 748.269M574.144 748.269H438.428M438.428 748.269V646.375M438.428 646.375H302.712V797.931" stroke="#9B9EDE" stroke-width="0.85625"/>
<path d="M438 698.606L302.712 797.075L438 748.269M573.287 698.606L438 645.519L573.287 748.269" stroke="#9B9EDE" stroke-width="0.85625"/>
</g>
<g opacity="0.5">
<path opacity="0.4" d="M710.856 596.713V748.269L846.144 797.931V646.375L710.856 596.713Z" fill="#9B9EDE"/>
<path opacity="0.1" d="M711.712 596.713V747.624L574.712 797.075V698.606L711.712 596.713Z" fill="#9B9EDE"/>
<path opacity="0.5" d="M846.144 698.606V748.269L710 645.519L846.144 698.606Z" fill="#9B9EDE"/>
<path d="M846.144 646.375L710.856 596.713L574.712 698.606H846.144M846.144 646.375V698.606M846.144 646.375H710.428M846.144 698.606V748.269M574.712 748.269H710.428M846.144 748.269V797.931L710.428 748.269M846.144 748.269H710.428M710.428 748.269V646.375M710.428 646.375H574.712V797.931" stroke="#9B9EDE" stroke-width="0.85625"/>
<path d="M710 698.606L574.712 797.075L710 748.269M845.287 698.606L710 645.519L845.287 748.269" stroke="#9B9EDE" stroke-width="0.85625"/>
</g>
<g opacity="0.5">
<path opacity="0.4" d="M982.856 596.713V748.269L1118.14 797.931V646.375L982.856 596.713Z" fill="#9B9EDE"/>
<path opacity="0.1" d="M983.713 596.713V747.624L846.713 797.075V698.606L983.713 596.713Z" fill="#9B9EDE"/>
<path opacity="0.5" d="M1118.14 698.606V748.269L982 645.519L1118.14 698.606Z" fill="#9B9EDE"/>
<path d="M1118.14 646.375L982.856 596.713L846.713 698.606H1118.14M1118.14 646.375V698.606M1118.14 646.375H982.428M1118.14 698.606V748.269M846.713 748.269H982.428M1118.14 748.269V797.931L982.428 748.269M1118.14 748.269H982.428M982.428 748.269V646.375M982.428 646.375H846.713V797.931" stroke="#9B9EDE" stroke-width="0.85625"/>
<path d="M982 698.606L846.713 797.075L982 748.269M1117.29 698.606L982 645.519L1117.29 748.269" stroke="#9B9EDE" stroke-width="0.85625"/>
</g>
<g opacity="0.5">
<path opacity="0.4" d="M1254.86 596.713V748.269L1390.14 797.931V646.375L1254.86 596.713Z" fill="#9B9EDE"/>
<path opacity="0.1" d="M1255.71 596.713V747.624L1118.71 797.075V698.606L1255.71 596.713Z" fill="#9B9EDE"/>
<path opacity="0.5" d="M1390.14 698.606V748.269L1254 645.519L1390.14 698.606Z" fill="#9B9EDE"/>
<path d="M1390.14 646.375L1254.86 596.713L1118.71 698.606H1390.14M1390.14 646.375V698.606M1390.14 646.375H1254.43M1390.14 698.606V748.269M1118.71 748.269H1254.43M1390.14 748.269V797.931L1254.43 748.269M1390.14 748.269H1254.43M1254.43 748.269V646.375M1254.43 646.375H1118.71V797.931" stroke="#9B9EDE" stroke-width="0.85625"/>
<path d="M1254 698.606L1118.71 797.075L1254 748.269M1389.29 698.606L1254 645.519L1389.29 748.269" stroke="#9B9EDE" stroke-width="0.85625"/>
</g>
<g opacity="0.5">
<path opacity="0.4" d="M1526.86 596.713V748.269L1662.14 797.931V646.375L1526.86 596.713Z" fill="#9B9EDE"/>
<path opacity="0.1" d="M1527.71 596.713V747.624L1390.71 797.075V698.606L1527.71 596.713Z" fill="#9B9EDE"/>
<path opacity="0.5" d="M1662.14 698.606V748.269L1526 645.519L1662.14 698.606Z" fill="#9B9EDE"/>
<path d="M1662.14 646.375L1526.86 596.713L1390.71 698.606H1662.14M1662.14 646.375V698.606M1662.14 646.375H1526.43M1662.14 698.606V748.269M1390.71 748.269H1526.43M1662.14 748.269V797.931L1526.43 748.269M1662.14 748.269H1526.43M1526.43 748.269V646.375M1526.43 646.375H1390.71V797.931" stroke="#9B9EDE" stroke-width="0.85625"/>
<path d="M1526 698.606L1390.71 797.075L1526 748.269M1661.29 698.606L1526 645.519L1661.29 748.269" stroke="#9B9EDE" stroke-width="0.85625"/>
</g>
<g opacity="0.5">
<path opacity="0.4" d="M1798.86 596.713V748.269L1934.14 797.931V646.375L1798.86 596.713Z" fill="#9B9EDE"/>
<path opacity="0.1" d="M1799.71 596.713V747.624L1662.71 797.075V698.606L1799.71 596.713Z" fill="#9B9EDE"/>
<path opacity="0.5" d="M1934.14 698.606V748.269L1798 645.519L1934.14 698.606Z" fill="#9B9EDE"/>
<path d="M1934.14 646.375L1798.86 596.713L1662.71 698.606H1934.14M1934.14 646.375V698.606M1934.14 646.375H1798.43M1934.14 698.606V748.269M1662.71 748.269H1798.43M1934.14 748.269V797.931L1798.43 748.269M1934.14 748.269H1798.43M1798.43 748.269V646.375M1798.43 646.375H1662.71V797.931" stroke="#9B9EDE" stroke-width="0.85625"/>
<path d="M1798 698.606L1662.71 797.075L1798 748.269M1933.29 698.606L1798 645.519L1933.29 748.269" stroke="#9B9EDE" stroke-width="0.85625"/>
</g>
</g>
</g>
<defs>
<clipPath id="clip0_4145_84357">
<rect width="1920" height="700" fill="white" transform="translate(-16 -16)"/>
</clipPath>
</defs>
</svg>
