<svg width="768" height="512" viewBox="0 0 768 512" fill="none" xmlns="http://www.w3.org/2000/svg">
<g opacity="0.25" clip-path="url(#clip0_2578_106453)">
<path opacity="0.1" d="M823.23 -98.2871V52.6242L686.23 102.075V3.60664L823.23 -98.2871Z" fill="#9B9EDE"/>
<path opacity="0.5" d="M821.518 54.125V2.75L686.23 102.931L821.518 54.125Z" fill="#9B9EDE"/>
<path d="M957.662 -48.6246L822.374 -98.2871L686.23 3.60664L957.662 3.60664M957.662 -48.6246V3.60664M957.662 -48.6246H821.946M957.662 3.60664V53.2691M686.23 53.2691H821.946M957.662 53.2691V102.932L821.946 53.2691M957.662 53.2691H821.946M821.946 53.2691V-48.6246M821.946 -48.6246L686.23 -48.6246V102.932" stroke="#9B9EDE" stroke-width="0.85625"/>
<path d="M821.518 3.60605L686.23 102.075L821.518 53.2686M956.805 3.60605L821.518 -49.4814L956.805 53.2686" stroke="#9B9EDE" stroke-width="0.85625"/>
<path opacity="0.4" d="M550.375 54.7129V206.269L685.662 255.932V104.375L550.375 54.7129Z" fill="#9B9EDE"/>
<path opacity="0.1" d="M551.23 54.7129V205.624L414.23 255.075V156.607L551.23 54.7129Z" fill="#9B9EDE"/>
<path opacity="0.5" d="M549.518 207.125V155.75L414.23 255.931L549.518 207.125Z" fill="#9B9EDE"/>
<path opacity="0.5" d="M685.663 156.606V206.269L549.52 103.519L685.663 156.606Z" fill="#9B9EDE"/>
<path d="M685.662 104.375L550.374 54.7129L414.23 156.607H685.662M685.662 104.375V156.607M685.662 104.375H549.946M685.662 156.607V206.269M414.23 206.269H549.946M685.662 206.269V255.932L549.946 206.269M685.662 206.269H549.946M549.946 206.269V104.375M549.946 104.375H414.23V255.932" stroke="#9B9EDE" stroke-width="0.85625"/>
<path d="M549.518 156.606L414.23 255.075L549.518 206.269M684.805 156.606L549.518 103.519L684.805 206.269" stroke="#9B9EDE" stroke-width="0.85625"/>
<g opacity="0.4">
<path opacity="0.1" d="M823.23 54.7129V205.624L686.23 255.075V156.607L823.23 54.7129Z" fill="#9B9EDE"/>
<path opacity="0.5" d="M821.518 207.125V155.75L686.23 255.931L821.518 207.125Z" fill="#9B9EDE"/>
<path d="M957.662 104.375L822.374 54.7129L686.23 156.607H957.662M957.662 104.375V156.607M957.662 104.375H821.946M957.662 156.607V206.269M686.23 206.269H821.946M957.662 206.269V255.932L821.946 206.269M957.662 206.269H821.946M821.946 206.269V104.375M821.946 104.375H686.23V255.932" stroke="#9B9EDE" stroke-width="0.85625"/>
<path d="M821.518 156.606L686.23 255.075L821.518 206.269M956.805 156.606L821.518 103.519L956.805 206.269" stroke="#9B9EDE" stroke-width="0.85625"/>
</g>
<path opacity="0.4" d="M278.375 207.713V359.269L413.662 408.932V257.375L278.375 207.713Z" fill="#9B9EDE"/>
<path opacity="0.1" d="M279.23 207.713V358.624L142.23 408.075V309.607L279.23 207.713Z" fill="#9B9EDE"/>
<path opacity="0.5" d="M277.518 360.125V308.75L142.23 408.931L277.518 360.125Z" fill="#9B9EDE"/>
<path opacity="0.5" d="M413.663 309.606V359.269L277.52 256.519L413.663 309.606Z" fill="#9B9EDE"/>
<path d="M413.662 257.375L278.374 207.713L142.23 309.607H413.662M413.662 257.375V309.607M413.662 257.375H277.946M413.662 309.607V359.269M142.23 359.269H277.946M413.662 359.269V408.932L277.946 359.269M413.662 359.269H277.946M277.946 359.269V257.375M277.946 257.375H142.23V408.932" stroke="#9B9EDE" stroke-width="0.85625"/>
<path d="M277.518 309.606L142.23 408.075L277.518 359.269M412.805 309.606L277.518 256.519L412.805 359.269" stroke="#9B9EDE" stroke-width="0.85625"/>
<g opacity="0.4">
<path opacity="0.4" d="M550.375 207.713V359.269L685.662 408.932V257.375L550.375 207.713Z" fill="#9B9EDE"/>
<path opacity="0.1" d="M551.23 207.713V358.624L414.23 408.075V309.607L551.23 207.713Z" fill="#9B9EDE"/>
<path opacity="0.5" d="M549.518 360.125V308.75L414.23 408.931L549.518 360.125Z" fill="#9B9EDE"/>
<path opacity="0.5" d="M685.663 309.606V359.269L549.52 256.519L685.663 309.606Z" fill="#9B9EDE"/>
<path d="M685.662 257.375L550.374 207.713L414.23 309.607H685.662M685.662 257.375V309.607M685.662 257.375H549.946M685.662 309.607V359.269M414.23 359.269H549.946M685.662 359.269V408.932L549.946 359.269M685.662 359.269H549.946M549.946 359.269V257.375M549.946 257.375H414.23V408.932" stroke="#9B9EDE" stroke-width="0.85625"/>
<path d="M549.518 309.606L414.23 408.075L549.518 359.269M684.805 309.606L549.518 256.519L684.805 359.269" stroke="#9B9EDE" stroke-width="0.85625"/>
</g>
<g opacity="0.4">
<path opacity="0.1" d="M823.23 207.713V358.624L686.23 408.075V309.607L823.23 207.713Z" fill="#9B9EDE"/>
<path opacity="0.5" d="M821.518 360.125V308.75L686.23 408.931L821.518 360.125Z" fill="#9B9EDE"/>
<path d="M957.662 257.375L822.374 207.713L686.23 309.607H957.662M957.662 257.375V309.607M957.662 257.375H821.946M957.662 309.607V359.269M686.23 359.269H821.946M957.662 359.269V408.932L821.946 359.269M957.662 359.269H821.946M821.946 359.269V257.375M821.946 257.375H686.23V408.932" stroke="#9B9EDE" stroke-width="0.85625"/>
<path d="M821.518 309.606L686.23 408.075L821.518 359.269M956.805 309.606L821.518 256.519L956.805 359.269" stroke="#9B9EDE" stroke-width="0.85625"/>
</g>
<path opacity="0.4" d="M6.375 360.713L6.375 512.269L141.662 561.932V410.375L6.375 360.713Z" fill="#9B9EDE"/>
<path opacity="0.1" d="M7.23047 360.713L7.23047 511.624L-129.77 561.075V462.607L7.23047 360.713Z" fill="#9B9EDE"/>
<path opacity="0.5" d="M5.51796 513.125V461.75L-129.77 561.931L5.51796 513.125Z" fill="#9B9EDE"/>
<path opacity="0.5" d="M141.663 462.606V512.269L5.51953 409.519L141.663 462.606Z" fill="#9B9EDE"/>
<path d="M141.662 410.375L6.37422 360.713L-129.77 462.607H141.662M141.662 410.375V462.607M141.662 410.375H5.94609M141.662 462.607V512.269M-129.77 512.269H5.94609M141.662 512.269V561.932L5.94609 512.269M141.662 512.269H5.94609M5.94609 512.269V410.375M5.94609 410.375H-129.77V561.932" stroke="#9B9EDE" stroke-width="0.85625"/>
<path d="M5.51796 462.606L-129.77 561.075L5.51796 512.269M140.805 462.606L5.51796 409.519L140.805 512.269" stroke="#9B9EDE" stroke-width="0.85625"/>
<g opacity="0.4">
<path opacity="0.4" d="M278.375 360.713V512.269L413.662 561.932V410.375L278.375 360.713Z" fill="#9B9EDE"/>
<path opacity="0.1" d="M279.23 360.713V511.624L142.23 561.075V462.607L279.23 360.713Z" fill="#9B9EDE"/>
<path opacity="0.5" d="M277.518 513.125V461.75L142.23 561.931L277.518 513.125Z" fill="#9B9EDE"/>
<path opacity="0.5" d="M413.663 462.606V512.269L277.52 409.519L413.663 462.606Z" fill="#9B9EDE"/>
<path d="M413.662 410.375L278.374 360.713L142.23 462.607H413.662M413.662 410.375V462.607M413.662 410.375H277.946M413.662 462.607V512.269M142.23 512.269H277.946M413.662 512.269V561.932L277.946 512.269M413.662 512.269H277.946M277.946 512.269V410.375M277.946 410.375H142.23V561.932" stroke="#9B9EDE" stroke-width="0.85625"/>
<path d="M277.518 462.606L142.23 561.075L277.518 512.269M412.805 462.606L277.518 409.519L412.805 512.269" stroke="#9B9EDE" stroke-width="0.85625"/>
</g>
<g opacity="0.4">
<path opacity="0.4" d="M550.375 360.713V512.269L685.662 561.932V410.375L550.375 360.713Z" fill="#9B9EDE"/>
<path opacity="0.1" d="M551.23 360.713V511.624L414.23 561.075V462.607L551.23 360.713Z" fill="#9B9EDE"/>
<path opacity="0.5" d="M549.518 513.125V461.75L414.23 561.931L549.518 513.125Z" fill="#9B9EDE"/>
<path opacity="0.5" d="M685.663 462.606V512.269L549.52 409.519L685.663 462.606Z" fill="#9B9EDE"/>
<path d="M685.662 410.375L550.374 360.713L414.23 462.607H685.662M685.662 410.375V462.607M685.662 410.375H549.946M685.662 462.607V512.269M414.23 512.269H549.946M685.662 512.269V561.932L549.946 512.269M685.662 512.269H549.946M549.946 512.269V410.375M549.946 410.375H414.23V561.932" stroke="#9B9EDE" stroke-width="0.85625"/>
<path d="M549.518 462.606L414.23 561.075L549.518 512.269M684.805 462.606L549.518 409.519L684.805 512.269" stroke="#9B9EDE" stroke-width="0.85625"/>
</g>
<g opacity="0.4">
<path opacity="0.1" d="M823.23 360.713V511.624L686.23 561.075V462.607L823.23 360.713Z" fill="#9B9EDE"/>
<path opacity="0.5" d="M821.518 513.125V461.75L686.23 561.931L821.518 513.125Z" fill="#9B9EDE"/>
<path d="M957.662 410.375L822.374 360.713L686.23 462.607H957.662M957.662 410.375V462.607M957.662 410.375H821.946M957.662 462.607V512.269M686.23 512.269H821.946M957.662 512.269V561.932L821.946 512.269M957.662 512.269H821.946M821.946 512.269V410.375M821.946 410.375H686.23V561.932" stroke="#9B9EDE" stroke-width="0.85625"/>
<path d="M821.518 462.606L686.23 561.075L821.518 512.269M956.805 462.606L821.518 409.519L956.805 512.269" stroke="#9B9EDE" stroke-width="0.85625"/>
</g>
</g>
<defs>
<clipPath id="clip0_2578_106453">
<rect width="2178" height="815" fill="white" transform="translate(-978 -100)"/>
</clipPath>
</defs>
</svg>
