<svg width="1200" height="600" viewBox="0 0 1200 600" fill="none" xmlns="http://www.w3.org/2000/svg">
<g opacity="0.25" clip-path="url(#clip0_3097_305454)">
<path opacity="0.4" d="M822.375 -98.2871V53.2691L957.662 102.932V-48.6246L822.375 -98.2871Z" fill="#9B9EDE"/>
<path opacity="0.1" d="M823.232 -98.2871V52.6242L686.232 102.075V3.60664L823.232 -98.2871Z" fill="#9B9EDE"/>
<path opacity="0.5" d="M821.52 54.125V2.75L686.232 102.931L821.52 54.125Z" fill="#9B9EDE"/>
<path opacity="0.5" d="M957.663 3.60703V53.2695L821.52 -49.4805L957.663 3.60703Z" fill="#9B9EDE"/>
<path d="M957.664 -48.6246L822.376 -98.2871L686.232 3.60664L957.664 3.60664M957.664 -48.6246V3.60664M957.664 -48.6246H821.948M957.664 3.60664V53.2691M686.232 53.2691H821.948M957.664 53.2691V102.932L821.948 53.2691M957.664 53.2691H821.948M821.948 53.2691V-48.6246M821.948 -48.6246L686.232 -48.6246V102.932" stroke="#9B9EDE" stroke-width="0.85625"/>
<path d="M821.52 3.60703L686.232 102.076L821.52 53.2695M956.807 3.60703L821.52 -49.4805L956.807 53.2695" stroke="#9B9EDE" stroke-width="0.85625"/>
<path opacity="0.4" d="M1094.38 -98.2871V53.2691L1229.66 102.932V-48.6246L1094.38 -98.2871Z" fill="#9B9EDE"/>
<path opacity="0.1" d="M1095.23 -98.2871V52.6242L958.232 102.075V3.60664L1095.23 -98.2871Z" fill="#9B9EDE"/>
<path opacity="0.5" d="M1093.52 54.125V2.75L958.232 102.931L1093.52 54.125Z" fill="#9B9EDE"/>
<path opacity="0.5" d="M1229.66 3.60703V53.2695L1093.52 -49.4805L1229.66 3.60703Z" fill="#9B9EDE"/>
<path d="M1229.66 -48.6246L1094.38 -98.2871L958.232 3.60664L1229.66 3.60664M1229.66 -48.6246V3.60664M1229.66 -48.6246H1093.95M1229.66 3.60664V53.2691M958.232 53.2691H1093.95M1229.66 53.2691V102.932L1093.95 53.2691M1229.66 53.2691H1093.95M1093.95 53.2691V-48.6246M1093.95 -48.6246L958.232 -48.6246V102.932" stroke="#9B9EDE" stroke-width="0.85625"/>
<path d="M1093.52 3.60703L958.232 102.076L1093.52 53.2695M1228.81 3.60703L1093.52 -49.4805L1228.81 53.2695" stroke="#9B9EDE" stroke-width="0.85625"/>
<path opacity="0.4" d="M550.375 54.7129V206.269L685.662 255.932V104.375L550.375 54.7129Z" fill="#9B9EDE"/>
<path opacity="0.1" d="M551.232 54.7129V205.624L414.232 255.075V156.607L551.232 54.7129Z" fill="#9B9EDE"/>
<path opacity="0.5" d="M549.52 207.125V155.75L414.232 255.931L549.52 207.125Z" fill="#9B9EDE"/>
<path opacity="0.5" d="M685.663 156.607V206.27L549.52 103.52L685.663 156.607Z" fill="#9B9EDE"/>
<path d="M685.664 104.375L550.376 54.7129L414.232 156.607H685.664M685.664 104.375V156.607M685.664 104.375H549.948M685.664 156.607V206.269M414.232 206.269H549.948M685.664 206.269V255.932L549.948 206.269M685.664 206.269H549.948M549.948 206.269V104.375M549.948 104.375H414.232V255.932" stroke="#9B9EDE" stroke-width="0.85625"/>
<path d="M549.52 156.607L414.232 255.076L549.52 206.27M684.807 156.607L549.52 103.52L684.807 206.27" stroke="#9B9EDE" stroke-width="0.85625"/>
<g opacity="0.4">
<path opacity="0.4" d="M822.375 54.7129V206.269L957.662 255.932V104.375L822.375 54.7129Z" fill="#9B9EDE"/>
<path opacity="0.1" d="M823.232 54.7129V205.624L686.232 255.075V156.607L823.232 54.7129Z" fill="#9B9EDE"/>
<path opacity="0.5" d="M821.52 207.125V155.75L686.232 255.931L821.52 207.125Z" fill="#9B9EDE"/>
<path opacity="0.5" d="M957.663 156.607V206.27L821.52 103.52L957.663 156.607Z" fill="#9B9EDE"/>
<path d="M957.664 104.375L822.376 54.7129L686.232 156.607H957.664M957.664 104.375V156.607M957.664 104.375H821.948M957.664 156.607V206.269M686.232 206.269H821.948M957.664 206.269V255.932L821.948 206.269M957.664 206.269H821.948M821.948 206.269V104.375M821.948 104.375H686.232V255.932" stroke="#9B9EDE" stroke-width="0.85625"/>
<path d="M821.52 156.607L686.232 255.076L821.52 206.27M956.807 156.607L821.52 103.52L956.807 206.27" stroke="#9B9EDE" stroke-width="0.85625"/>
</g>
<g opacity="0.4">
<path opacity="0.4" d="M1094.38 54.7129V206.269L1229.66 255.932V104.375L1094.38 54.7129Z" fill="#9B9EDE"/>
<path opacity="0.1" d="M1095.23 54.7129V205.624L958.232 255.075V156.607L1095.23 54.7129Z" fill="#9B9EDE"/>
<path opacity="0.5" d="M1093.52 207.125V155.75L958.232 255.931L1093.52 207.125Z" fill="#9B9EDE"/>
<path opacity="0.5" d="M1229.66 156.607V206.27L1093.52 103.52L1229.66 156.607Z" fill="#9B9EDE"/>
<path d="M1229.66 104.375L1094.38 54.7129L958.232 156.607H1229.66M1229.66 104.375V156.607M1229.66 104.375H1093.95M1229.66 156.607V206.269M958.232 206.269H1093.95M1229.66 206.269V255.932L1093.95 206.269M1229.66 206.269H1093.95M1093.95 206.269V104.375M1093.95 104.375H958.232V255.932" stroke="#9B9EDE" stroke-width="0.85625"/>
<path d="M1093.52 156.607L958.232 255.076L1093.52 206.27M1228.81 156.607L1093.52 103.52L1228.81 206.27" stroke="#9B9EDE" stroke-width="0.85625"/>
</g>
<path opacity="0.4" d="M278.375 207.713V359.269L413.662 408.932V257.375L278.375 207.713Z" fill="#9B9EDE"/>
<path opacity="0.1" d="M279.232 207.713V358.624L142.232 408.075V309.607L279.232 207.713Z" fill="#9B9EDE"/>
<path opacity="0.5" d="M277.52 360.125V308.75L142.232 408.931L277.52 360.125Z" fill="#9B9EDE"/>
<path opacity="0.5" d="M413.663 309.607V359.27L277.52 256.52L413.663 309.607Z" fill="#9B9EDE"/>
<path d="M413.664 257.375L278.376 207.713L142.232 309.607H413.664M413.664 257.375V309.607M413.664 257.375H277.948M413.664 309.607V359.269M142.232 359.269H277.948M413.664 359.269V408.932L277.948 359.269M413.664 359.269H277.948M277.948 359.269V257.375M277.948 257.375H142.232V408.932" stroke="#9B9EDE" stroke-width="0.85625"/>
<path d="M277.52 309.607L142.232 408.076L277.52 359.27M412.807 309.607L277.52 256.52L412.807 359.27" stroke="#9B9EDE" stroke-width="0.85625"/>
<g opacity="0.4">
<path opacity="0.4" d="M550.375 207.713V359.269L685.662 408.932V257.375L550.375 207.713Z" fill="#9B9EDE"/>
<path opacity="0.1" d="M551.232 207.713V358.624L414.232 408.075V309.607L551.232 207.713Z" fill="#9B9EDE"/>
<path opacity="0.5" d="M549.52 360.125V308.75L414.232 408.931L549.52 360.125Z" fill="#9B9EDE"/>
<path opacity="0.5" d="M685.663 309.607V359.27L549.52 256.52L685.663 309.607Z" fill="#9B9EDE"/>
<path d="M685.664 257.375L550.376 207.713L414.232 309.607H685.664M685.664 257.375V309.607M685.664 257.375H549.948M685.664 309.607V359.269M414.232 359.269H549.948M685.664 359.269V408.932L549.948 359.269M685.664 359.269H549.948M549.948 359.269V257.375M549.948 257.375H414.232V408.932" stroke="#9B9EDE" stroke-width="0.85625"/>
<path d="M549.52 309.607L414.232 408.076L549.52 359.27M684.807 309.607L549.52 256.52L684.807 359.27" stroke="#9B9EDE" stroke-width="0.85625"/>
</g>
<g opacity="0.4">
<path opacity="0.4" d="M822.375 207.713V359.269L957.662 408.932V257.375L822.375 207.713Z" fill="#9B9EDE"/>
<path opacity="0.1" d="M823.232 207.713V358.624L686.232 408.075V309.607L823.232 207.713Z" fill="#9B9EDE"/>
<path opacity="0.5" d="M821.52 360.125V308.75L686.232 408.931L821.52 360.125Z" fill="#9B9EDE"/>
<path opacity="0.5" d="M957.663 309.607V359.27L821.52 256.52L957.663 309.607Z" fill="#9B9EDE"/>
<path d="M957.664 257.375L822.376 207.713L686.232 309.607H957.664M957.664 257.375V309.607M957.664 257.375H821.948M957.664 309.607V359.269M686.232 359.269H821.948M957.664 359.269V408.932L821.948 359.269M957.664 359.269H821.948M821.948 359.269V257.375M821.948 257.375H686.232V408.932" stroke="#9B9EDE" stroke-width="0.85625"/>
<path d="M821.52 309.607L686.232 408.076L821.52 359.27M956.807 309.607L821.52 256.52L956.807 359.27" stroke="#9B9EDE" stroke-width="0.85625"/>
</g>
<g opacity="0.4">
<path opacity="0.4" d="M1094.38 207.713V359.269L1229.66 408.932V257.375L1094.38 207.713Z" fill="#9B9EDE"/>
<path opacity="0.1" d="M1095.23 207.713V358.624L958.232 408.075V309.607L1095.23 207.713Z" fill="#9B9EDE"/>
<path opacity="0.5" d="M1093.52 360.125V308.75L958.232 408.931L1093.52 360.125Z" fill="#9B9EDE"/>
<path opacity="0.5" d="M1229.66 309.607V359.27L1093.52 256.52L1229.66 309.607Z" fill="#9B9EDE"/>
<path d="M1229.66 257.375L1094.38 207.713L958.232 309.607H1229.66M1229.66 257.375V309.607M1229.66 257.375H1093.95M1229.66 309.607V359.269M958.232 359.269H1093.95M1229.66 359.269V408.932L1093.95 359.269M1229.66 359.269H1093.95M1093.95 359.269V257.375M1093.95 257.375H958.232V408.932" stroke="#9B9EDE" stroke-width="0.85625"/>
<path d="M1093.52 309.607L958.232 408.076L1093.52 359.27M1228.81 309.607L1093.52 256.52L1228.81 359.27" stroke="#9B9EDE" stroke-width="0.85625"/>
</g>
<path opacity="0.4" d="M6.375 360.713L6.375 512.269L141.662 561.932V410.375L6.375 360.713Z" fill="#9B9EDE"/>
<path opacity="0.1" d="M7.23242 360.713L7.23242 511.624L-129.768 561.075V462.607L7.23242 360.713Z" fill="#9B9EDE"/>
<path opacity="0.5" d="M5.51991 513.125V461.75L-129.768 561.931L5.51991 513.125Z" fill="#9B9EDE"/>
<path opacity="0.5" d="M141.663 462.607V512.27L5.51953 409.52L141.663 462.607Z" fill="#9B9EDE"/>
<path d="M141.664 410.375L6.37617 360.713L-129.768 462.607H141.664M141.664 410.375V462.607M141.664 410.375H5.94804M141.664 462.607V512.269M-129.768 512.269H5.94804M141.664 512.269V561.932L5.94804 512.269M141.664 512.269H5.94804M5.94804 512.269V410.375M5.94804 410.375H-129.768V561.932" stroke="#9B9EDE" stroke-width="0.85625"/>
<path d="M5.51991 462.607L-129.768 561.076L5.51991 512.27M140.807 462.607L5.51991 409.52L140.807 512.27" stroke="#9B9EDE" stroke-width="0.85625"/>
<g opacity="0.4">
<path opacity="0.4" d="M278.375 360.713V512.269L413.662 561.932V410.375L278.375 360.713Z" fill="#9B9EDE"/>
<path opacity="0.1" d="M279.232 360.713V511.624L142.232 561.075V462.607L279.232 360.713Z" fill="#9B9EDE"/>
<path opacity="0.5" d="M277.52 513.125V461.75L142.232 561.931L277.52 513.125Z" fill="#9B9EDE"/>
<path opacity="0.5" d="M413.663 462.607V512.27L277.52 409.52L413.663 462.607Z" fill="#9B9EDE"/>
<path d="M413.664 410.375L278.376 360.713L142.232 462.607H413.664M413.664 410.375V462.607M413.664 410.375H277.948M413.664 462.607V512.269M142.232 512.269H277.948M413.664 512.269V561.932L277.948 512.269M413.664 512.269H277.948M277.948 512.269V410.375M277.948 410.375H142.232V561.932" stroke="#9B9EDE" stroke-width="0.85625"/>
<path d="M277.52 462.607L142.232 561.076L277.52 512.27M412.807 462.607L277.52 409.52L412.807 512.27" stroke="#9B9EDE" stroke-width="0.85625"/>
</g>
<g opacity="0.4">
<path opacity="0.4" d="M550.375 360.713V512.269L685.662 561.932V410.375L550.375 360.713Z" fill="#9B9EDE"/>
<path opacity="0.1" d="M551.232 360.713V511.624L414.232 561.075V462.607L551.232 360.713Z" fill="#9B9EDE"/>
<path opacity="0.5" d="M549.52 513.125V461.75L414.232 561.931L549.52 513.125Z" fill="#9B9EDE"/>
<path opacity="0.5" d="M685.663 462.607V512.27L549.52 409.52L685.663 462.607Z" fill="#9B9EDE"/>
<path d="M685.664 410.375L550.376 360.713L414.232 462.607H685.664M685.664 410.375V462.607M685.664 410.375H549.948M685.664 462.607V512.269M414.232 512.269H549.948M685.664 512.269V561.932L549.948 512.269M685.664 512.269H549.948M549.948 512.269V410.375M549.948 410.375H414.232V561.932" stroke="#9B9EDE" stroke-width="0.85625"/>
<path d="M549.52 462.607L414.232 561.076L549.52 512.27M684.807 462.607L549.52 409.52L684.807 512.27" stroke="#9B9EDE" stroke-width="0.85625"/>
</g>
<g opacity="0.4">
<path opacity="0.4" d="M822.375 360.713V512.269L957.662 561.932V410.375L822.375 360.713Z" fill="#9B9EDE"/>
<path opacity="0.1" d="M823.232 360.713V511.624L686.232 561.075V462.607L823.232 360.713Z" fill="#9B9EDE"/>
<path opacity="0.5" d="M821.52 513.125V461.75L686.232 561.931L821.52 513.125Z" fill="#9B9EDE"/>
<path opacity="0.5" d="M957.663 462.607V512.27L821.52 409.52L957.663 462.607Z" fill="#9B9EDE"/>
<path d="M957.664 410.375L822.376 360.713L686.232 462.607H957.664M957.664 410.375V462.607M957.664 410.375H821.948M957.664 462.607V512.269M686.232 512.269H821.948M957.664 512.269V561.932L821.948 512.269M957.664 512.269H821.948M821.948 512.269V410.375M821.948 410.375H686.232V561.932" stroke="#9B9EDE" stroke-width="0.85625"/>
<path d="M821.52 462.607L686.232 561.076L821.52 512.27M956.807 462.607L821.52 409.52L956.807 512.27" stroke="#9B9EDE" stroke-width="0.85625"/>
</g>
<g opacity="0.4">
<path opacity="0.4" d="M1094.38 360.713V512.269L1229.66 561.932V410.375L1094.38 360.713Z" fill="#9B9EDE"/>
<path opacity="0.1" d="M1095.23 360.713V511.624L958.232 561.075V462.607L1095.23 360.713Z" fill="#9B9EDE"/>
<path opacity="0.5" d="M1093.52 513.125V461.75L958.232 561.931L1093.52 513.125Z" fill="#9B9EDE"/>
<path opacity="0.5" d="M1229.66 462.607V512.27L1093.52 409.52L1229.66 462.607Z" fill="#9B9EDE"/>
<path d="M1229.66 410.375L1094.38 360.713L958.232 462.607H1229.66M1229.66 410.375V462.607M1229.66 410.375H1093.95M1229.66 462.607V512.269M958.232 512.269H1093.95M1229.66 512.269V561.932L1093.95 512.269M1229.66 512.269H1093.95M1093.95 512.269V410.375M1093.95 410.375H958.232V561.932" stroke="#9B9EDE" stroke-width="0.85625"/>
<path d="M1093.52 462.607L958.232 561.076L1093.52 512.27M1228.81 462.607L1093.52 409.52L1228.81 512.27" stroke="#9B9EDE" stroke-width="0.85625"/>
</g>
<g opacity="0.5">
<g opacity="0.5">
<path opacity="0.4" d="M6.85547 512.713L6.85547 664.269L142.143 713.932V562.375L6.85547 512.713Z" fill="#9B9EDE"/>
<path opacity="0.1" d="M7.71289 512.713L7.71289 663.624L-129.287 713.075V614.607L7.71289 512.713Z" fill="#9B9EDE"/>
<path opacity="0.5" d="M142.144 614.607V664.27L6 561.52L142.144 614.607Z" fill="#9B9EDE"/>
<path d="M142.144 562.375L6.85664 512.713L-129.287 614.607H142.144M142.144 562.375V614.607M142.144 562.375H6.42851M142.144 614.607V664.269M-129.287 664.269H6.42851M142.144 664.269V713.932L6.42851 664.269M142.144 664.269H6.42851M6.42851 664.269V562.375M6.42851 562.375H-129.287V713.932" stroke="#9B9EDE" stroke-width="0.85625"/>
<path d="M6.00038 614.607L-129.287 713.076L6.00038 664.27M141.288 614.607L6.00038 561.52L141.288 664.27" stroke="#9B9EDE" stroke-width="0.85625"/>
</g>
<g opacity="0.5">
<path opacity="0.4" d="M278.855 512.713V664.269L414.143 713.932V562.375L278.855 512.713Z" fill="#9B9EDE"/>
<path opacity="0.1" d="M279.713 512.713V663.624L142.713 713.075V614.607L279.713 512.713Z" fill="#9B9EDE"/>
<path opacity="0.5" d="M414.144 614.607V664.27L278 561.52L414.144 614.607Z" fill="#9B9EDE"/>
<path d="M414.144 562.375L278.857 512.713L142.713 614.607H414.144M414.144 562.375V614.607M414.144 562.375H278.429M414.144 614.607V664.269M142.713 664.269H278.429M414.144 664.269V713.932L278.429 664.269M414.144 664.269H278.429M278.429 664.269V562.375M278.429 562.375H142.713V713.932" stroke="#9B9EDE" stroke-width="0.85625"/>
<path d="M278 614.607L142.713 713.076L278 664.27M413.288 614.607L278 561.52L413.288 664.27" stroke="#9B9EDE" stroke-width="0.85625"/>
</g>
<g opacity="0.5">
<path opacity="0.4" d="M550.855 512.713V664.269L686.143 713.932V562.375L550.855 512.713Z" fill="#9B9EDE"/>
<path opacity="0.1" d="M551.713 512.713V663.624L414.713 713.075V614.607L551.713 512.713Z" fill="#9B9EDE"/>
<path opacity="0.5" d="M686.144 614.607V664.27L550 561.52L686.144 614.607Z" fill="#9B9EDE"/>
<path d="M686.144 562.375L550.857 512.713L414.713 614.607H686.144M686.144 562.375V614.607M686.144 562.375H550.429M686.144 614.607V664.269M414.713 664.269H550.429M686.144 664.269V713.932L550.429 664.269M686.144 664.269H550.429M550.429 664.269V562.375M550.429 562.375H414.713V713.932" stroke="#9B9EDE" stroke-width="0.85625"/>
<path d="M550 614.607L414.713 713.076L550 664.27M685.288 614.607L550 561.52L685.288 664.27" stroke="#9B9EDE" stroke-width="0.85625"/>
</g>
<g opacity="0.5">
<path opacity="0.4" d="M822.855 512.713V664.269L958.143 713.932V562.375L822.855 512.713Z" fill="#9B9EDE"/>
<path opacity="0.1" d="M823.713 512.713V663.624L686.713 713.075V614.607L823.713 512.713Z" fill="#9B9EDE"/>
<path opacity="0.5" d="M958.144 614.607V664.27L822 561.52L958.144 614.607Z" fill="#9B9EDE"/>
<path d="M958.144 562.375L822.857 512.713L686.713 614.607H958.144M958.144 562.375V614.607M958.144 562.375H822.429M958.144 614.607V664.269M686.713 664.269H822.429M958.144 664.269V713.932L822.429 664.269M958.144 664.269H822.429M822.429 664.269V562.375M822.429 562.375H686.713V713.932" stroke="#9B9EDE" stroke-width="0.85625"/>
<path d="M822 614.607L686.713 713.076L822 664.27M957.288 614.607L822 561.52L957.288 664.27" stroke="#9B9EDE" stroke-width="0.85625"/>
</g>
<g opacity="0.5">
<path opacity="0.4" d="M1094.86 512.713V664.269L1230.14 713.932V562.375L1094.86 512.713Z" fill="#9B9EDE"/>
<path opacity="0.1" d="M1095.71 512.713V663.624L958.713 713.075V614.607L1095.71 512.713Z" fill="#9B9EDE"/>
<path opacity="0.5" d="M1230.14 614.607V664.27L1094 561.52L1230.14 614.607Z" fill="#9B9EDE"/>
<path d="M1230.14 562.375L1094.86 512.713L958.713 614.607H1230.14M1230.14 562.375V614.607M1230.14 562.375H1094.43M1230.14 614.607V664.269M958.713 664.269H1094.43M1230.14 664.269V713.932L1094.43 664.269M1230.14 664.269H1094.43M1094.43 664.269V562.375M1094.43 562.375H958.713V713.932" stroke="#9B9EDE" stroke-width="0.85625"/>
<path d="M1094 614.607L958.713 713.076L1094 664.27M1229.29 614.607L1094 561.52L1229.29 664.27" stroke="#9B9EDE" stroke-width="0.85625"/>
</g>
</g>
</g>
<defs>
<clipPath id="clip0_3097_305454">
<rect width="1200" height="600" fill="white"/>
</clipPath>
</defs>
</svg>
