<svg width="1920" height="600" viewBox="0 0 1920 600" fill="none" xmlns="http://www.w3.org/2000/svg">
<g opacity="0.25" clip-path="url(#clip0_2578_64559)">
<path opacity="0.4" d="M1542.38 -98.2871V53.2691L1677.66 102.932V-48.6246L1542.38 -98.2871Z" fill="#9B9EDE"/>
<path opacity="0.1" d="M1543.23 -98.2871V52.6242L1406.23 102.075V3.60664L1543.23 -98.2871Z" fill="#9B9EDE"/>
<path opacity="0.5" d="M1541.52 54.125V2.75L1406.23 102.931L1541.52 54.125Z" fill="#9B9EDE"/>
<path opacity="0.5" d="M1677.66 3.60606V53.2686L1541.52 -49.4814L1677.66 3.60606Z" fill="#9B9EDE"/>
<path d="M1677.66 -48.6246L1542.38 -98.2871L1406.23 3.60664L1677.66 3.60664M1677.66 -48.6246V3.60664M1677.66 -48.6246H1541.95M1677.66 3.60664V53.2691M1406.23 53.2691H1541.95M1677.66 53.2691V102.932L1541.95 53.2691M1677.66 53.2691H1541.95M1541.95 53.2691V-48.6246M1541.95 -48.6246L1406.23 -48.6246V102.932" stroke="#9B9EDE" stroke-width="0.85625"/>
<path d="M1541.52 3.60605L1406.23 102.075L1541.52 53.2686M1676.81 3.60605L1541.52 -49.4814L1676.81 53.2686" stroke="#9B9EDE" stroke-width="0.85625"/>
<path opacity="0.4" d="M1814.38 -98.2871V53.2691L1949.66 102.932V-48.6246L1814.38 -98.2871Z" fill="#9B9EDE"/>
<path opacity="0.1" d="M1815.23 -98.2871V52.6242L1678.23 102.075V3.60664L1815.23 -98.2871Z" fill="#9B9EDE"/>
<path opacity="0.5" d="M1813.52 54.125V2.75L1678.23 102.931L1813.52 54.125Z" fill="#9B9EDE"/>
<path opacity="0.5" d="M1949.66 3.60606V53.2686L1813.52 -49.4814L1949.66 3.60606Z" fill="#9B9EDE"/>
<path d="M1949.66 -48.6246L1814.38 -98.2871L1678.23 3.60664L1949.66 3.60664M1949.66 -48.6246V3.60664M1949.66 -48.6246H1813.95M1949.66 3.60664V53.2691M1678.23 53.2691H1813.95M1949.66 53.2691V102.932L1813.95 53.2691M1949.66 53.2691H1813.95M1813.95 53.2691V-48.6246M1813.95 -48.6246L1678.23 -48.6246V102.932" stroke="#9B9EDE" stroke-width="0.85625"/>
<path d="M1813.52 3.60605L1678.23 102.075L1813.52 53.2686M1948.81 3.60605L1813.52 -49.4814L1948.81 53.2686" stroke="#9B9EDE" stroke-width="0.85625"/>
<path opacity="0.4" d="M1270.38 54.7129V206.269L1405.66 255.932V104.375L1270.38 54.7129Z" fill="#9B9EDE"/>
<path opacity="0.1" d="M1271.23 54.7129V205.624L1134.23 255.075V156.607L1271.23 54.7129Z" fill="#9B9EDE"/>
<path opacity="0.5" d="M1269.52 207.125V155.75L1134.23 255.931L1269.52 207.125Z" fill="#9B9EDE"/>
<path opacity="0.5" d="M1405.66 156.606V206.269L1269.52 103.519L1405.66 156.606Z" fill="#9B9EDE"/>
<path d="M1405.66 104.375L1270.38 54.7129L1134.23 156.607H1405.66M1405.66 104.375V156.607M1405.66 104.375H1269.95M1405.66 156.607V206.269M1134.23 206.269H1269.95M1405.66 206.269V255.932L1269.95 206.269M1405.66 206.269H1269.95M1269.95 206.269V104.375M1269.95 104.375H1134.23V255.932" stroke="#9B9EDE" stroke-width="0.85625"/>
<path d="M1269.52 156.606L1134.23 255.075L1269.52 206.269M1404.81 156.606L1269.52 103.519L1404.81 206.269" stroke="#9B9EDE" stroke-width="0.85625"/>
<g opacity="0.4">
<path opacity="0.4" d="M1542.38 54.7129V206.269L1677.66 255.932V104.375L1542.38 54.7129Z" fill="#9B9EDE"/>
<path opacity="0.1" d="M1543.23 54.7129V205.624L1406.23 255.075V156.607L1543.23 54.7129Z" fill="#9B9EDE"/>
<path opacity="0.5" d="M1541.52 207.125V155.75L1406.23 255.931L1541.52 207.125Z" fill="#9B9EDE"/>
<path opacity="0.5" d="M1677.66 156.606V206.269L1541.52 103.519L1677.66 156.606Z" fill="#9B9EDE"/>
<path d="M1677.66 104.375L1542.38 54.7129L1406.23 156.607H1677.66M1677.66 104.375V156.607M1677.66 104.375H1541.95M1677.66 156.607V206.269M1406.23 206.269H1541.95M1677.66 206.269V255.932L1541.95 206.269M1677.66 206.269H1541.95M1541.95 206.269V104.375M1541.95 104.375H1406.23V255.932" stroke="#9B9EDE" stroke-width="0.85625"/>
<path d="M1541.52 156.606L1406.23 255.075L1541.52 206.269M1676.81 156.606L1541.52 103.519L1676.81 206.269" stroke="#9B9EDE" stroke-width="0.85625"/>
</g>
<g opacity="0.4">
<path opacity="0.4" d="M1814.38 54.7129V206.269L1949.66 255.932V104.375L1814.38 54.7129Z" fill="#9B9EDE"/>
<path opacity="0.1" d="M1815.23 54.7129V205.624L1678.23 255.075V156.607L1815.23 54.7129Z" fill="#9B9EDE"/>
<path opacity="0.5" d="M1813.52 207.125V155.75L1678.23 255.931L1813.52 207.125Z" fill="#9B9EDE"/>
<path opacity="0.5" d="M1949.66 156.606V206.269L1813.52 103.519L1949.66 156.606Z" fill="#9B9EDE"/>
<path d="M1949.66 104.375L1814.38 54.7129L1678.23 156.607H1949.66M1949.66 104.375V156.607M1949.66 104.375H1813.95M1949.66 156.607V206.269M1678.23 206.269H1813.95M1949.66 206.269V255.932L1813.95 206.269M1949.66 206.269H1813.95M1813.95 206.269V104.375M1813.95 104.375H1678.23V255.932" stroke="#9B9EDE" stroke-width="0.85625"/>
<path d="M1813.52 156.606L1678.23 255.075L1813.52 206.269M1948.81 156.606L1813.52 103.519L1948.81 206.269" stroke="#9B9EDE" stroke-width="0.85625"/>
</g>
<path opacity="0.4" d="M998.376 207.713V359.269L1133.66 408.932V257.375L998.376 207.713Z" fill="#9B9EDE"/>
<path opacity="0.1" d="M999.232 207.713V358.624L862.232 408.075V309.607L999.232 207.713Z" fill="#9B9EDE"/>
<path opacity="0.5" d="M997.52 360.125V308.75L862.232 408.931L997.52 360.125Z" fill="#9B9EDE"/>
<path opacity="0.5" d="M1133.66 309.606V359.269L997.52 256.519L1133.66 309.606Z" fill="#9B9EDE"/>
<path d="M1133.66 257.375L998.376 207.713L862.232 309.607H1133.66M1133.66 257.375V309.607M1133.66 257.375H997.948M1133.66 309.607V359.269M862.232 359.269H997.948M1133.66 359.269V408.932L997.948 359.269M1133.66 359.269H997.948M997.948 359.269V257.375M997.948 257.375H862.232V408.932" stroke="#9B9EDE" stroke-width="0.85625"/>
<path d="M997.52 309.606L862.232 408.075L997.52 359.269M1132.81 309.606L997.52 256.519L1132.81 359.269" stroke="#9B9EDE" stroke-width="0.85625"/>
<g opacity="0.4">
<path opacity="0.4" d="M1270.38 207.713V359.269L1405.66 408.932V257.375L1270.38 207.713Z" fill="#9B9EDE"/>
<path opacity="0.1" d="M1271.23 207.713V358.624L1134.23 408.075V309.607L1271.23 207.713Z" fill="#9B9EDE"/>
<path opacity="0.5" d="M1269.52 360.125V308.75L1134.23 408.931L1269.52 360.125Z" fill="#9B9EDE"/>
<path opacity="0.5" d="M1405.66 309.606V359.269L1269.52 256.519L1405.66 309.606Z" fill="#9B9EDE"/>
<path d="M1405.66 257.375L1270.38 207.713L1134.23 309.607H1405.66M1405.66 257.375V309.607M1405.66 257.375H1269.95M1405.66 309.607V359.269M1134.23 359.269H1269.95M1405.66 359.269V408.932L1269.95 359.269M1405.66 359.269H1269.95M1269.95 359.269V257.375M1269.95 257.375H1134.23V408.932" stroke="#9B9EDE" stroke-width="0.85625"/>
<path d="M1269.52 309.606L1134.23 408.075L1269.52 359.269M1404.81 309.606L1269.52 256.519L1404.81 359.269" stroke="#9B9EDE" stroke-width="0.85625"/>
</g>
<g opacity="0.4">
<path opacity="0.4" d="M1542.38 207.713V359.269L1677.66 408.932V257.375L1542.38 207.713Z" fill="#9B9EDE"/>
<path opacity="0.1" d="M1543.23 207.713V358.624L1406.23 408.075V309.607L1543.23 207.713Z" fill="#9B9EDE"/>
<path opacity="0.5" d="M1541.52 360.125V308.75L1406.23 408.931L1541.52 360.125Z" fill="#9B9EDE"/>
<path opacity="0.5" d="M1677.66 309.606V359.269L1541.52 256.519L1677.66 309.606Z" fill="#9B9EDE"/>
<path d="M1677.66 257.375L1542.38 207.713L1406.23 309.607H1677.66M1677.66 257.375V309.607M1677.66 257.375H1541.95M1677.66 309.607V359.269M1406.23 359.269H1541.95M1677.66 359.269V408.932L1541.95 359.269M1677.66 359.269H1541.95M1541.95 359.269V257.375M1541.95 257.375H1406.23V408.932" stroke="#9B9EDE" stroke-width="0.85625"/>
<path d="M1541.52 309.606L1406.23 408.075L1541.52 359.269M1676.81 309.606L1541.52 256.519L1676.81 359.269" stroke="#9B9EDE" stroke-width="0.85625"/>
</g>
<g opacity="0.4">
<path opacity="0.4" d="M1814.38 207.713V359.269L1949.66 408.932V257.375L1814.38 207.713Z" fill="#9B9EDE"/>
<path opacity="0.1" d="M1815.23 207.713V358.624L1678.23 408.075V309.607L1815.23 207.713Z" fill="#9B9EDE"/>
<path opacity="0.5" d="M1813.52 360.125V308.75L1678.23 408.931L1813.52 360.125Z" fill="#9B9EDE"/>
<path opacity="0.5" d="M1949.66 309.606V359.269L1813.52 256.519L1949.66 309.606Z" fill="#9B9EDE"/>
<path d="M1949.66 257.375L1814.38 207.713L1678.23 309.607H1949.66M1949.66 257.375V309.607M1949.66 257.375H1813.95M1949.66 309.607V359.269M1678.23 359.269H1813.95M1949.66 359.269V408.932L1813.95 359.269M1949.66 359.269H1813.95M1813.95 359.269V257.375M1813.95 257.375H1678.23V408.932" stroke="#9B9EDE" stroke-width="0.85625"/>
<path d="M1813.52 309.606L1678.23 408.075L1813.52 359.269M1948.81 309.606L1813.52 256.519L1948.81 359.269" stroke="#9B9EDE" stroke-width="0.85625"/>
</g>
<path opacity="0.4" d="M726.376 360.713V512.269L861.663 561.932V410.375L726.376 360.713Z" fill="#9B9EDE"/>
<path opacity="0.1" d="M727.232 360.713V511.624L590.232 561.075V462.607L727.232 360.713Z" fill="#9B9EDE"/>
<path opacity="0.5" d="M725.52 513.125V461.75L590.232 561.931L725.52 513.125Z" fill="#9B9EDE"/>
<path opacity="0.5" d="M861.663 462.606V512.269L725.52 409.519L861.663 462.606Z" fill="#9B9EDE"/>
<path d="M861.664 410.375L726.376 360.713L590.232 462.607H861.664M861.664 410.375V462.607M861.664 410.375H725.948M861.664 462.607V512.269M590.232 512.269H725.948M861.664 512.269V561.932L725.948 512.269M861.664 512.269H725.948M725.948 512.269V410.375M725.948 410.375H590.232V561.932" stroke="#9B9EDE" stroke-width="0.85625"/>
<path d="M725.52 462.606L590.232 561.075L725.52 512.269M860.807 462.606L725.52 409.519L860.807 512.269" stroke="#9B9EDE" stroke-width="0.85625"/>
<g opacity="0.4">
<path opacity="0.4" d="M998.376 360.713V512.269L1133.66 561.932V410.375L998.376 360.713Z" fill="#9B9EDE"/>
<path opacity="0.1" d="M999.232 360.713V511.624L862.232 561.075V462.607L999.232 360.713Z" fill="#9B9EDE"/>
<path opacity="0.5" d="M997.52 513.125V461.75L862.232 561.931L997.52 513.125Z" fill="#9B9EDE"/>
<path opacity="0.5" d="M1133.66 462.606V512.269L997.52 409.519L1133.66 462.606Z" fill="#9B9EDE"/>
<path d="M1133.66 410.375L998.376 360.713L862.232 462.607H1133.66M1133.66 410.375V462.607M1133.66 410.375H997.948M1133.66 462.607V512.269M862.232 512.269H997.948M1133.66 512.269V561.932L997.948 512.269M1133.66 512.269H997.948M997.948 512.269V410.375M997.948 410.375H862.232V561.932" stroke="#9B9EDE" stroke-width="0.85625"/>
<path d="M997.52 462.606L862.232 561.075L997.52 512.269M1132.81 462.606L997.52 409.519L1132.81 512.269" stroke="#9B9EDE" stroke-width="0.85625"/>
</g>
<g opacity="0.4">
<path opacity="0.4" d="M1270.38 360.713V512.269L1405.66 561.932V410.375L1270.38 360.713Z" fill="#9B9EDE"/>
<path opacity="0.1" d="M1271.23 360.713V511.624L1134.23 561.075V462.607L1271.23 360.713Z" fill="#9B9EDE"/>
<path opacity="0.5" d="M1269.52 513.125V461.75L1134.23 561.931L1269.52 513.125Z" fill="#9B9EDE"/>
<path opacity="0.5" d="M1405.66 462.606V512.269L1269.52 409.519L1405.66 462.606Z" fill="#9B9EDE"/>
<path d="M1405.66 410.375L1270.38 360.713L1134.23 462.607H1405.66M1405.66 410.375V462.607M1405.66 410.375H1269.95M1405.66 462.607V512.269M1134.23 512.269H1269.95M1405.66 512.269V561.932L1269.95 512.269M1405.66 512.269H1269.95M1269.95 512.269V410.375M1269.95 410.375H1134.23V561.932" stroke="#9B9EDE" stroke-width="0.85625"/>
<path d="M1269.52 462.606L1134.23 561.075L1269.52 512.269M1404.81 462.606L1269.52 409.519L1404.81 512.269" stroke="#9B9EDE" stroke-width="0.85625"/>
</g>
<g opacity="0.4">
<path opacity="0.4" d="M1542.38 360.713V512.269L1677.66 561.932V410.375L1542.38 360.713Z" fill="#9B9EDE"/>
<path opacity="0.1" d="M1543.23 360.713V511.624L1406.23 561.075V462.607L1543.23 360.713Z" fill="#9B9EDE"/>
<path opacity="0.5" d="M1541.52 513.125V461.75L1406.23 561.931L1541.52 513.125Z" fill="#9B9EDE"/>
<path opacity="0.5" d="M1677.66 462.606V512.269L1541.52 409.519L1677.66 462.606Z" fill="#9B9EDE"/>
<path d="M1677.66 410.375L1542.38 360.713L1406.23 462.607H1677.66M1677.66 410.375V462.607M1677.66 410.375H1541.95M1677.66 462.607V512.269M1406.23 512.269H1541.95M1677.66 512.269V561.932L1541.95 512.269M1677.66 512.269H1541.95M1541.95 512.269V410.375M1541.95 410.375H1406.23V561.932" stroke="#9B9EDE" stroke-width="0.85625"/>
<path d="M1541.52 462.606L1406.23 561.075L1541.52 512.269M1676.81 462.606L1541.52 409.519L1676.81 512.269" stroke="#9B9EDE" stroke-width="0.85625"/>
</g>
<g opacity="0.4">
<path opacity="0.4" d="M1814.38 360.713V512.269L1949.66 561.932V410.375L1814.38 360.713Z" fill="#9B9EDE"/>
<path opacity="0.1" d="M1815.23 360.713V511.624L1678.23 561.075V462.607L1815.23 360.713Z" fill="#9B9EDE"/>
<path opacity="0.5" d="M1813.52 513.125V461.75L1678.23 561.931L1813.52 513.125Z" fill="#9B9EDE"/>
<path opacity="0.5" d="M1949.66 462.606V512.269L1813.52 409.519L1949.66 462.606Z" fill="#9B9EDE"/>
<path d="M1949.66 410.375L1814.38 360.713L1678.23 462.607H1949.66M1949.66 410.375V462.607M1949.66 410.375H1813.95M1949.66 462.607V512.269M1678.23 512.269H1813.95M1949.66 512.269V561.932L1813.95 512.269M1949.66 512.269H1813.95M1813.95 512.269V410.375M1813.95 410.375H1678.23V561.932" stroke="#9B9EDE" stroke-width="0.85625"/>
<path d="M1813.52 462.606L1678.23 561.075L1813.52 512.269M1948.81 462.606L1813.52 409.519L1948.81 512.269" stroke="#9B9EDE" stroke-width="0.85625"/>
</g>
<g opacity="0.5">
<g opacity="0.5">
<path opacity="0.4" d="M182.856 512.713V664.269L318.144 713.932V562.375L182.856 512.713Z" fill="#9B9EDE"/>
<path opacity="0.1" d="M183.713 512.713V663.624L46.7129 713.075V614.607L183.713 512.713Z" fill="#9B9EDE"/>
<path opacity="0.5" d="M318.144 614.606V664.269L182 561.519L318.144 614.606Z" fill="#9B9EDE"/>
<path d="M318.144 562.375L182.857 512.713L46.7129 614.607H318.144M318.144 562.375V614.607M318.144 562.375H182.429M318.144 614.607V664.269M46.7129 664.269H182.429M318.144 664.269V713.932L182.429 664.269M318.144 664.269H182.429M182.429 664.269V562.375M182.429 562.375H46.7129L46.7129 713.932" stroke="#9B9EDE" stroke-width="0.85625"/>
<path d="M182 614.606L46.7129 713.075L182 664.269M317.288 614.606L182 561.519L317.288 664.269" stroke="#9B9EDE" stroke-width="0.85625"/>
</g>
<g opacity="0.5">
<path opacity="0.4" d="M454.856 512.713V664.269L590.144 713.932V562.375L454.856 512.713Z" fill="#9B9EDE"/>
<path opacity="0.1" d="M455.713 512.713V663.624L318.713 713.075V614.607L455.713 512.713Z" fill="#9B9EDE"/>
<path opacity="0.5" d="M590.144 614.606V664.269L454 561.519L590.144 614.606Z" fill="#9B9EDE"/>
<path d="M590.144 562.375L454.857 512.713L318.713 614.607H590.144M590.144 562.375V614.607M590.144 562.375H454.429M590.144 614.607V664.269M318.713 664.269H454.429M590.144 664.269V713.932L454.429 664.269M590.144 664.269H454.429M454.429 664.269V562.375M454.429 562.375H318.713V713.932" stroke="#9B9EDE" stroke-width="0.85625"/>
<path d="M454 614.606L318.713 713.075L454 664.269M589.288 614.606L454 561.519L589.288 664.269" stroke="#9B9EDE" stroke-width="0.85625"/>
</g>
<g opacity="0.5">
<path opacity="0.4" d="M726.856 512.713V664.269L862.144 713.932V562.375L726.856 512.713Z" fill="#9B9EDE"/>
<path opacity="0.1" d="M727.713 512.713V663.624L590.713 713.075V614.607L727.713 512.713Z" fill="#9B9EDE"/>
<path opacity="0.5" d="M862.144 614.606V664.269L726 561.519L862.144 614.606Z" fill="#9B9EDE"/>
<path d="M862.144 562.375L726.857 512.713L590.713 614.607H862.144M862.144 562.375V614.607M862.144 562.375H726.429M862.144 614.607V664.269M590.713 664.269H726.429M862.144 664.269V713.932L726.429 664.269M862.144 664.269H726.429M726.429 664.269V562.375M726.429 562.375H590.713V713.932" stroke="#9B9EDE" stroke-width="0.85625"/>
<path d="M726 614.606L590.713 713.075L726 664.269M861.288 614.606L726 561.519L861.288 664.269" stroke="#9B9EDE" stroke-width="0.85625"/>
</g>
<g opacity="0.5">
<path opacity="0.4" d="M998.856 512.713V664.269L1134.14 713.932V562.375L998.856 512.713Z" fill="#9B9EDE"/>
<path opacity="0.1" d="M999.713 512.713V663.624L862.713 713.075V614.607L999.713 512.713Z" fill="#9B9EDE"/>
<path opacity="0.5" d="M1134.14 614.606V664.269L998 561.519L1134.14 614.606Z" fill="#9B9EDE"/>
<path d="M1134.14 562.375L998.857 512.713L862.713 614.607H1134.14M1134.14 562.375V614.607M1134.14 562.375H998.429M1134.14 614.607V664.269M862.713 664.269H998.429M1134.14 664.269V713.932L998.429 664.269M1134.14 664.269H998.429M998.429 664.269V562.375M998.429 562.375H862.713V713.932" stroke="#9B9EDE" stroke-width="0.85625"/>
<path d="M998 614.606L862.713 713.075L998 664.269M1133.29 614.606L998 561.519L1133.29 664.269" stroke="#9B9EDE" stroke-width="0.85625"/>
</g>
<g opacity="0.5">
<path opacity="0.4" d="M1270.86 512.713V664.269L1406.14 713.932V562.375L1270.86 512.713Z" fill="#9B9EDE"/>
<path opacity="0.1" d="M1271.71 512.713V663.624L1134.71 713.075V614.607L1271.71 512.713Z" fill="#9B9EDE"/>
<path opacity="0.5" d="M1406.14 614.606V664.269L1270 561.519L1406.14 614.606Z" fill="#9B9EDE"/>
<path d="M1406.14 562.375L1270.86 512.713L1134.71 614.607H1406.14M1406.14 562.375V614.607M1406.14 562.375H1270.43M1406.14 614.607V664.269M1134.71 664.269H1270.43M1406.14 664.269V713.932L1270.43 664.269M1406.14 664.269H1270.43M1270.43 664.269V562.375M1270.43 562.375H1134.71V713.932" stroke="#9B9EDE" stroke-width="0.85625"/>
<path d="M1270 614.606L1134.71 713.075L1270 664.269M1405.29 614.606L1270 561.519L1405.29 664.269" stroke="#9B9EDE" stroke-width="0.85625"/>
</g>
<g opacity="0.5">
<path opacity="0.4" d="M1542.86 512.713V664.269L1678.14 713.932V562.375L1542.86 512.713Z" fill="#9B9EDE"/>
<path opacity="0.1" d="M1543.71 512.713V663.624L1406.71 713.075V614.607L1543.71 512.713Z" fill="#9B9EDE"/>
<path opacity="0.5" d="M1678.14 614.606V664.269L1542 561.519L1678.14 614.606Z" fill="#9B9EDE"/>
<path d="M1678.14 562.375L1542.86 512.713L1406.71 614.607H1678.14M1678.14 562.375V614.607M1678.14 562.375H1542.43M1678.14 614.607V664.269M1406.71 664.269H1542.43M1678.14 664.269V713.932L1542.43 664.269M1678.14 664.269H1542.43M1542.43 664.269V562.375M1542.43 562.375H1406.71V713.932" stroke="#9B9EDE" stroke-width="0.85625"/>
<path d="M1542 614.606L1406.71 713.075L1542 664.269M1677.29 614.606L1542 561.519L1677.29 664.269" stroke="#9B9EDE" stroke-width="0.85625"/>
</g>
<g opacity="0.5">
<path opacity="0.4" d="M1814.86 512.713V664.269L1950.14 713.932V562.375L1814.86 512.713Z" fill="#9B9EDE"/>
<path opacity="0.1" d="M1815.71 512.713V663.624L1678.71 713.075V614.607L1815.71 512.713Z" fill="#9B9EDE"/>
<path opacity="0.5" d="M1950.14 614.606V664.269L1814 561.519L1950.14 614.606Z" fill="#9B9EDE"/>
<path d="M1950.14 562.375L1814.86 512.713L1678.71 614.607H1950.14M1950.14 562.375V614.607M1950.14 562.375H1814.43M1950.14 614.607V664.269M1678.71 664.269H1814.43M1950.14 664.269V713.932L1814.43 664.269M1950.14 664.269H1814.43M1814.43 664.269V562.375M1814.43 562.375H1678.71V713.932" stroke="#9B9EDE" stroke-width="0.85625"/>
<path d="M1814 614.606L1678.71 713.075L1814 664.269M1949.29 614.606L1814 561.519L1949.29 664.269" stroke="#9B9EDE" stroke-width="0.85625"/>
</g>
</g>
</g>
<defs>
<clipPath id="clip0_2578_64559">
<rect width="2178" height="815" fill="white" transform="translate(-258 -100)"/>
</clipPath>
</defs>
</svg>
