<svg width="953" height="332" viewBox="0 0 953 332" fill="none" xmlns="http://www.w3.org/2000/svg">
<g opacity="0.5">
<path opacity="0.4" d="M681.376 -49.2871V102.269L816.663 151.932V0.375389L681.376 -49.2871Z" fill="#9B9EDE"/>
<path opacity="0.1" d="M682.232 -49.2871V101.624L545.232 151.075V52.6066L682.232 -49.2871Z" fill="#9B9EDE"/>
<path opacity="0.5" d="M680.519 103.125V51.75L545.232 151.931L680.519 103.125Z" fill="#7275B6" fill-opacity="0.9"/>
<path opacity="0.5" d="M816.663 52.607V102.27L680.52 -0.480469L816.663 52.607Z" fill="#9B9EDE"/>
<path d="M816.663 0.37539L681.376 -49.2871L545.232 52.6066L816.663 52.6066M816.663 0.37539V52.6066M816.663 0.37539H680.948M816.663 52.6066V102.269M545.232 102.269H680.948M816.663 102.269V151.932L680.948 102.269M816.663 102.269H680.948M680.948 102.269V0.37539M680.948 0.37539L545.232 0.37539V151.932" stroke="#9B9EDE" stroke-width="0.85625"/>
<path d="M680.519 52.607L545.232 151.076L680.519 102.27M815.807 52.607L680.519 -0.480469L815.807 102.27" stroke="#9B9EDE" stroke-width="0.85625"/>
</g>
<g opacity="0.5">
<path opacity="0.1" d="M954.232 -49.2871V101.624L817.232 151.075V52.6066L954.232 -49.2871Z" fill="#9B9EDE"/>
<path opacity="0.5" d="M952.519 103.125V51.75L817.232 151.931L952.519 103.125Z" fill="#7275B6" fill-opacity="0.9"/>
<path opacity="0.5" d="M1088.66 52.607V102.27L952.52 -0.480469L1088.66 52.607Z" fill="#9B9EDE"/>
<path d="M1088.66 0.37539L953.376 -49.2871L817.232 52.6066L1088.66 52.6066M1088.66 0.37539V52.6066M1088.66 0.37539H952.948M1088.66 52.6066V102.269M817.232 102.269H952.948M1088.66 102.269V151.932L952.948 102.269M1088.66 102.269H952.948M952.948 102.269V0.37539M952.948 0.37539L817.232 0.37539V151.932" stroke="#9B9EDE" stroke-width="0.85625"/>
<path d="M952.519 52.607L817.232 151.076L952.519 102.27M1087.81 52.607L952.519 -0.480469L1087.81 102.27" stroke="#9B9EDE" stroke-width="0.85625"/>
</g>
<g opacity="0.5">
<g opacity="0.5">
<path opacity="0.4" d="M409.376 101.713V253.269L544.663 302.932V151.375L409.376 101.713Z" fill="#9B9EDE"/>
<path opacity="0.1" d="M410.232 101.713V252.624L273.232 302.075V203.607L410.232 101.713Z" fill="#9B9EDE"/>
<path opacity="0.5" d="M408.519 254.125V202.75L273.232 302.931L408.519 254.125Z" fill="#7275B6"/>
<path opacity="0.5" d="M544.663 203.607V253.27L408.52 150.52L544.663 203.607Z" fill="#9B9EDE"/>
<path d="M544.663 151.375L409.376 101.713L273.232 203.607H544.663M544.663 151.375V203.607M544.663 151.375H408.948M544.663 203.607V253.269M273.232 253.269H408.948M544.663 253.269V302.932L408.948 253.269M544.663 253.269H408.948M408.948 253.269V151.375M408.948 151.375H273.232V302.932" stroke="#9B9EDE" stroke-width="0.85625"/>
<path d="M408.519 203.607L273.232 302.076L408.519 253.27M543.807 203.607L408.519 150.52L543.807 253.27" stroke="#9B9EDE" stroke-width="0.85625"/>
</g>
<path opacity="0.4" d="M681.376 101.713V253.269L816.663 302.932V151.375L681.376 101.713Z" fill="#9B9EDE"/>
<path opacity="0.1" d="M682.232 101.713V252.624L545.232 302.075V203.607L682.232 101.713Z" fill="#9B9EDE"/>
<path opacity="0.5" d="M680.519 254.125V202.75L545.232 302.931L680.519 254.125Z" fill="#7275B6"/>
<path opacity="0.5" d="M816.663 203.607V253.27L680.52 150.52L816.663 203.607Z" fill="#9B9EDE"/>
<path d="M816.663 151.375L681.376 101.713L545.232 203.607H816.663M816.663 151.375V203.607M816.663 151.375H680.948M816.663 203.607V253.269M545.232 253.269H680.948M816.663 253.269V302.932L680.948 253.269M816.663 253.269H680.948M680.948 253.269V151.375M680.948 151.375H545.232V302.932" stroke="#9B9EDE" stroke-width="0.85625"/>
<path d="M680.519 203.607L545.232 302.076L680.519 253.27M815.807 203.607L680.519 150.52L815.807 253.27" stroke="#9B9EDE" stroke-width="0.85625"/>
<path opacity="0.1" d="M954.232 101.713V252.624L817.232 302.075V203.607L954.232 101.713Z" fill="#9B9EDE"/>
<path opacity="0.5" d="M952.519 254.125V202.75L817.232 302.931L952.519 254.125Z" fill="#7275B6"/>
<path opacity="0.5" d="M1088.66 203.607V253.27L952.52 150.52L1088.66 203.607Z" fill="#9B9EDE"/>
<path d="M1088.66 151.375L953.376 101.713L817.232 203.607H1088.66M1088.66 151.375V203.607M1088.66 151.375H952.948M1088.66 203.607V253.269M817.232 253.269H952.948M1088.66 253.269V302.932L952.948 253.269M1088.66 253.269H952.948M952.948 253.269V151.375M952.948 151.375H817.232V302.932" stroke="#9B9EDE" stroke-width="0.85625"/>
<path d="M952.519 203.607L817.232 302.076L952.519 253.27M1087.81 203.607L952.519 150.52L1087.81 253.27" stroke="#9B9EDE" stroke-width="0.85625"/>
</g>
<g opacity="0.5">
<path opacity="0.4" d="M137.856 253.713V405.269L273.144 454.932V303.375L137.856 253.713Z" fill="#9B9EDE"/>
<path opacity="0.1" d="M138.712 253.713V404.624L1.7124 454.075V355.607L138.712 253.713Z" fill="#9B9EDE"/>
<path opacity="0.5" d="M273.144 355.607V405.27L137 302.52L273.144 355.607Z" fill="#9B9EDE"/>
<path d="M273.144 303.375L137.856 253.713L1.7124 355.607H273.144M273.144 303.375V355.607M273.144 303.375H137.428M273.144 355.607V405.269M1.7124 405.269H137.428M273.144 405.269V454.932L137.428 405.269M273.144 405.269H137.428M137.428 405.269V303.375M137.428 303.375H1.7124L1.7124 454.932" stroke="#9B9EDE" stroke-width="0.85625"/>
<path d="M137 355.607L1.7124 454.076L137 405.27M272.287 355.607L137 302.52L272.287 405.27" stroke="#9B9EDE" stroke-width="0.85625"/>
<path opacity="0.4" d="M409.856 253.713V405.269L545.144 454.932V303.375L409.856 253.713Z" fill="#9B9EDE"/>
<path opacity="0.1" d="M410.712 253.713V404.624L273.712 454.075V355.607L410.712 253.713Z" fill="#9B9EDE"/>
<path opacity="0.5" d="M545.144 355.607V405.27L409 302.52L545.144 355.607Z" fill="#9B9EDE"/>
<path d="M545.144 303.375L409.856 253.713L273.712 355.607H545.144M545.144 303.375V355.607M545.144 303.375H409.428M545.144 355.607V405.269M273.712 405.269H409.428M545.144 405.269V454.932L409.428 405.269M545.144 405.269H409.428M409.428 405.269V303.375M409.428 303.375H273.712V454.932" stroke="#9B9EDE" stroke-width="0.85625"/>
<path d="M409 355.607L273.712 454.076L409 405.27M544.287 355.607L409 302.52L544.287 405.27" stroke="#9B9EDE" stroke-width="0.85625"/>
<path opacity="0.4" d="M681.856 253.713V405.269L817.144 454.932V303.375L681.856 253.713Z" fill="#9B9EDE"/>
<path opacity="0.1" d="M682.712 253.713V404.624L545.712 454.075V355.607L682.712 253.713Z" fill="#9B9EDE"/>
<path opacity="0.5" d="M817.144 355.607V405.27L681 302.52L817.144 355.607Z" fill="#9B9EDE"/>
<path d="M817.144 303.375L681.856 253.713L545.712 355.607H817.144M817.144 303.375V355.607M817.144 303.375H681.428M817.144 355.607V405.269M545.712 405.269H681.428M817.144 405.269V454.932L681.428 405.269M817.144 405.269H681.428M681.428 405.269V303.375M681.428 303.375H545.712V454.932" stroke="#9B9EDE" stroke-width="0.85625"/>
<path d="M681 355.607L545.712 454.076L681 405.27M816.287 355.607L681 302.52L816.287 405.27" stroke="#9B9EDE" stroke-width="0.85625"/>
<path opacity="0.1" d="M954.712 253.713V404.624L817.712 454.075V355.607L954.712 253.713Z" fill="#9B9EDE"/>
<path d="M1089.14 303.375L953.856 253.713L817.712 355.607H1089.14M1089.14 303.375V355.607M1089.14 303.375H953.428M1089.14 355.607V405.269M817.712 405.269H953.428M1089.14 405.269V454.932L953.428 405.269M1089.14 405.269H953.428M953.428 405.269V303.375M953.428 303.375H817.712V454.932" stroke="#9B9EDE" stroke-width="0.85625"/>
<path d="M953 355.607L817.712 454.076L953 405.27M1088.29 355.607L953 302.52L1088.29 405.27" stroke="#9B9EDE" stroke-width="0.85625"/>
</g>
</svg>
