<svg width="1024" height="650" viewBox="0 0 1024 650" fill="none" xmlns="http://www.w3.org/2000/svg">
    <g opacity="0.7">
        <path opacity="0.4" d="M367.977 5V176.429" stroke="white" stroke-dasharray="3 3"/>
        <path opacity="0.4" d="M441.244 47H298.244L369.744 1" stroke="white" stroke-dasharray="3 3"/>
        <path opacity="0.4" d="M290.244 131H438.244L365.181 175" stroke="white" stroke-dasharray="3 3"/>
        <rect opacity="0.4" x="367.006" y="1.99849" width="89" height="149.738" transform="rotate(30.6412 367.006 1.99849)" stroke="white" stroke-dasharray="3 3"/>
        <path opacity="0.4" d="M367.977 48V219.429" stroke="white"/>
        <path d="M296.744 92.5H340.744L352.744 69.5L365.244 46.5L296.744 92.5Z" fill="url(#paint0_linear_2594_237667)"/>
        <path d="M393.744 177L369.744 217.5L398.244 200L436.744 177H393.744Z" fill="url(#paint1_linear_2594_237667)"/>
        <path opacity="0.4" d="M444.244 92.2397H297.244L368.244 45.5" stroke="white"/>
        <path opacity="0.4" d="M292.931 177.032H437.023L367.863 217.585" stroke="white"/>
        <path d="M366.831 44.3135L445.214 90.7451L368.389 220.436L290.744 177L366.831 44.3135Z" fill="url(#paint2_linear_2594_237667)"/>
        <path opacity="0.5" d="M368.208 219.762L291.43 176.81L367.014 45.0021L444.53 90.9205L368.208 219.762Z" stroke="white"/>
        <path opacity="0.4" d="M512.599 5V176.429" stroke="white" stroke-dasharray="3 3"/>
        <path opacity="0.4" d="M585.866 47H442.866L514.366 1" stroke="white" stroke-dasharray="3 3"/>
        <path opacity="0.4" d="M434.866 131H582.866L509.803 175" stroke="white" stroke-dasharray="3 3"/>
        <rect opacity="0.4" x="511.628" y="1.99849" width="89" height="149.738" transform="rotate(30.6412 511.628 1.99849)" stroke="white" stroke-dasharray="3 3"/>
        <path opacity="0.4" d="M512.599 48V219.429" stroke="white"/>
        <path d="M441.366 92.5H485.366L497.366 69.5L509.866 46.5L441.366 92.5Z" fill="url(#paint3_linear_2594_237667)"/>
        <path d="M538.366 177L514.366 217.5L542.866 200L581.366 177H538.366Z" fill="url(#paint4_linear_2594_237667)"/>
        <path opacity="0.4" d="M588.866 92.2397H441.866L512.866 45.5" stroke="white"/>
        <path opacity="0.4" d="M437.553 177.032H581.645L512.485 217.585" stroke="white"/>
        <path d="M511.453 44.3135L589.836 90.7451L513.011 220.436L435.366 177L511.453 44.3135Z" fill="url(#paint5_linear_2594_237667)"/>
        <path opacity="0.5" d="M512.829 219.762L436.051 176.81L511.635 45.0021L589.151 90.9205L512.829 219.762Z" stroke="white"/>
        <path opacity="0.4" d="M657.221 5V176.429" stroke="white" stroke-dasharray="3 3"/>
        <path opacity="0.4" d="M730.488 47H587.488L658.988 1" stroke="white" stroke-dasharray="3 3"/>
        <path opacity="0.4" d="M579.488 131H727.488L654.425 175" stroke="white" stroke-dasharray="3 3"/>
        <rect opacity="0.4" x="656.251" y="1.99849" width="89" height="149.738" transform="rotate(30.6412 656.251 1.99849)" stroke="white" stroke-dasharray="3 3"/>
        <path opacity="0.4" d="M657.221 48V219.429" stroke="white"/>
        <path d="M585.988 92.5H629.988L641.988 69.5L654.488 46.5L585.988 92.5Z" fill="url(#paint6_linear_2594_237667)"/>
        <path d="M682.988 177L658.988 217.5L687.488 200L725.988 177H682.988Z" fill="url(#paint7_linear_2594_237667)"/>
        <path opacity="0.4" d="M733.488 92.2397H586.488L657.488 45.5" stroke="white"/>
        <path opacity="0.4" d="M582.175 177.032H726.267L657.108 217.585" stroke="white"/>
        <path d="M656.075 44.3135L734.458 90.7451L657.633 220.436L579.988 177L656.075 44.3135Z" fill="url(#paint8_linear_2594_237667)"/>
        <path opacity="0.5" d="M657.452 219.762L580.674 176.81L656.258 45.0021L733.774 90.9205L657.452 219.762Z" stroke="white"/>
        <path opacity="0.4" d="M801.843 5V176.429" stroke="white" stroke-dasharray="3 3"/>
        <path opacity="0.4" d="M875.11 47H732.11L803.61 1" stroke="white" stroke-dasharray="3 3"/>
        <path opacity="0.4" d="M724.11 131H872.11L799.047 175" stroke="white" stroke-dasharray="3 3"/>
        <rect opacity="0.4" x="800.873" y="1.99849" width="89" height="149.738" transform="rotate(30.6412 800.873 1.99849)" stroke="white" stroke-dasharray="3 3"/>
        <path opacity="0.4" d="M801.843 48V219.429" stroke="white"/>
        <path d="M730.61 92.5H774.61L786.61 69.5L799.11 46.5L730.61 92.5Z" fill="url(#paint9_linear_2594_237667)"/>
        <path d="M827.61 177L803.61 217.5L832.11 200L870.61 177H827.61Z" fill="url(#paint10_linear_2594_237667)"/>
        <path opacity="0.4" d="M878.11 92.2397H731.11L802.11 45.5" stroke="white"/>
        <path opacity="0.4" d="M726.797 177.032H870.889L801.73 217.585" stroke="white"/>
        <path d="M800.697 44.3135L879.08 90.7451L802.255 220.436L724.61 177L800.697 44.3135Z" fill="url(#paint11_linear_2594_237667)"/>
        <path opacity="0.5" d="M802.074 219.762L725.295 176.81L800.879 45.0021L878.395 90.9205L802.074 219.762Z" stroke="white"/>
        <path opacity="0.4" d="M946.465 5V176.429" stroke="white" stroke-dasharray="3 3"/>
        <path opacity="0.4" d="M1019.73 47H876.732L948.232 1" stroke="white" stroke-dasharray="3 3"/>
        <path opacity="0.4" d="M868.732 131H1016.73L943.669 175" stroke="white" stroke-dasharray="3 3"/>
        <rect opacity="0.4" x="945.495" y="1.99849" width="89" height="149.738" transform="rotate(30.6412 945.495 1.99849)" stroke="white" stroke-dasharray="3 3"/>
        <path opacity="0.4" d="M946.465 48V219.429" stroke="white"/>
        <path d="M875.232 92.5H919.232L931.232 69.5L943.732 46.5L875.232 92.5Z" fill="url(#paint12_linear_2594_237667)"/>
        <path d="M972.232 177L948.232 217.5L976.732 200L1015.23 177H972.232Z" fill="url(#paint13_linear_2594_237667)"/>
        <path opacity="0.4" d="M1022.73 92.2397H875.732L946.732 45.5" stroke="white"/>
        <path opacity="0.4" d="M871.419 177.032H1015.51L946.352 217.585" stroke="white"/>
        <path d="M945.319 44.3135L1023.7 90.7451L946.877 220.436L869.232 177L945.319 44.3135Z" fill="url(#paint14_linear_2594_237667)"/>
        <path opacity="0.5" d="M946.697 219.762L869.918 176.81L945.502 45.0021L1023.02 90.9205L946.697 219.762Z" stroke="white"/>
    </g>
    <g opacity="0.7">
        <path opacity="0.4" d="M223.354 219.429V390.857" stroke="white" stroke-dasharray="3 3"/>
        <path opacity="0.4" d="M296.622 261.429H153.622L225.122 215.429" stroke="white" stroke-dasharray="3 3"/>
        <path opacity="0.4" d="M145.622 345.429H293.622L220.559 389.429" stroke="white" stroke-dasharray="3 3"/>
        <rect opacity="0.4" x="222.384" y="216.427" width="89" height="149.738" transform="rotate(30.6412 222.384 216.427)" stroke="white" stroke-dasharray="3 3"/>
        <path opacity="0.4" d="M223.354 262.429V433.857" stroke="white"/>
        <path d="M152.122 306.929H196.122L208.122 283.929L220.622 260.929L152.122 306.929Z" fill="url(#paint15_linear_2594_237667)"/>
        <path d="M249.122 391.429L225.122 431.929L253.622 414.429L292.122 391.429H249.122Z" fill="url(#paint16_linear_2594_237667)"/>
        <path opacity="0.4" d="M299.622 306.668H152.622L223.622 259.929" stroke="white"/>
        <path opacity="0.4" d="M148.309 391.461H292.401L223.241 432.014" stroke="white"/>
        <path d="M222.209 258.742L300.592 305.174L223.767 434.865L146.122 391.429L222.209 258.742Z" fill="url(#paint17_linear_2594_237667)"/>
        <path opacity="0.5" d="M223.585 434.191L146.807 391.239L222.39 259.431L299.907 305.349L223.585 434.191Z" stroke="white"/>
        <path opacity="0.4" d="M367.977 219.429V390.857" stroke="white" stroke-dasharray="3 3"/>
        <path opacity="0.4" d="M441.244 261.429H298.244L369.744 215.429" stroke="white" stroke-dasharray="3 3"/>
        <path opacity="0.4" d="M290.244 345.429H438.244L365.181 389.429" stroke="white" stroke-dasharray="3 3"/>
        <rect opacity="0.4" x="367.006" y="216.427" width="89" height="149.738" transform="rotate(30.6412 367.006 216.427)" stroke="white" stroke-dasharray="3 3"/>
        <path opacity="0.4" d="M367.977 262.429V433.857" stroke="white"/>
        <path d="M296.744 306.929H340.744L352.744 283.929L365.244 260.929L296.744 306.929Z" fill="url(#paint18_linear_2594_237667)"/>
        <path d="M393.744 391.429L369.744 431.929L398.244 414.429L436.744 391.429H393.744Z" fill="url(#paint19_linear_2594_237667)"/>
        <path opacity="0.4" d="M444.244 306.668H297.244L368.244 259.929" stroke="white"/>
        <path opacity="0.4" d="M292.931 391.461H437.023L367.863 432.014" stroke="white"/>
        <path d="M366.831 258.742L445.214 305.174L368.389 434.865L290.744 391.429L366.831 258.742Z" fill="url(#paint20_linear_2594_237667)"/>
        <path opacity="0.5" d="M368.208 434.191L291.43 391.239L367.014 259.431L444.53 305.349L368.208 434.191Z" stroke="white"/>
        <path opacity="0.4" d="M512.599 219.429V390.857" stroke="white" stroke-dasharray="3 3"/>
        <path opacity="0.4" d="M585.866 261.429H442.866L514.366 215.429" stroke="white" stroke-dasharray="3 3"/>
        <path opacity="0.4" d="M434.866 345.429H582.866L509.803 389.429" stroke="white" stroke-dasharray="3 3"/>
        <rect opacity="0.4" x="511.628" y="216.427" width="89" height="149.738" transform="rotate(30.6412 511.628 216.427)" stroke="white" stroke-dasharray="3 3"/>
        <path opacity="0.4" d="M512.599 262.429V433.857" stroke="white"/>
        <path d="M441.366 306.929H485.366L497.366 283.929L509.866 260.929L441.366 306.929Z" fill="url(#paint21_linear_2594_237667)"/>
        <path d="M538.366 391.429L514.366 431.929L542.866 414.429L581.366 391.429H538.366Z" fill="url(#paint22_linear_2594_237667)"/>
        <path opacity="0.4" d="M588.866 306.668H441.866L512.866 259.929" stroke="white"/>
        <path opacity="0.4" d="M437.553 391.461H581.645L512.485 432.014" stroke="white"/>
        <path d="M511.453 258.742L589.836 305.174L513.011 434.865L435.366 391.429L511.453 258.742Z" fill="url(#paint23_linear_2594_237667)"/>
        <path opacity="0.5" d="M512.829 434.191L436.051 391.239L511.635 259.431L589.151 305.349L512.829 434.191Z" stroke="white"/>
        <path opacity="0.4" d="M657.221 219.429V390.857" stroke="white" stroke-dasharray="3 3"/>
        <path opacity="0.4" d="M730.488 261.429H587.488L658.988 215.429" stroke="white" stroke-dasharray="3 3"/>
        <path opacity="0.4" d="M579.488 345.429H727.488L654.425 389.429" stroke="white" stroke-dasharray="3 3"/>
        <rect opacity="0.4" x="656.251" y="216.427" width="89" height="149.738" transform="rotate(30.6412 656.251 216.427)" stroke="white" stroke-dasharray="3 3"/>
        <path opacity="0.4" d="M657.221 262.429V433.857" stroke="white"/>
        <path d="M585.988 306.929H629.988L641.988 283.929L654.488 260.929L585.988 306.929Z" fill="url(#paint24_linear_2594_237667)"/>
        <path d="M682.988 391.429L658.988 431.929L687.488 414.429L725.988 391.429H682.988Z" fill="url(#paint25_linear_2594_237667)"/>
        <path opacity="0.4" d="M733.488 306.668H586.488L657.488 259.929" stroke="white"/>
        <path opacity="0.4" d="M582.175 391.461H726.267L657.108 432.014" stroke="white"/>
        <path d="M656.075 258.742L734.458 305.174L657.633 434.865L579.988 391.429L656.075 258.742Z" fill="url(#paint26_linear_2594_237667)"/>
        <path opacity="0.5" d="M657.452 434.191L580.674 391.239L656.258 259.431L733.774 305.349L657.452 434.191Z" stroke="white"/>
        <path opacity="0.4" d="M801.843 219.429V390.857" stroke="white" stroke-dasharray="3 3"/>
        <path opacity="0.4" d="M875.11 261.429H732.11L803.61 215.429" stroke="white" stroke-dasharray="3 3"/>
        <path opacity="0.4" d="M724.11 345.429H872.11L799.047 389.429" stroke="white" stroke-dasharray="3 3"/>
        <rect opacity="0.4" x="800.873" y="216.427" width="89" height="149.738" transform="rotate(30.6412 800.873 216.427)" stroke="white" stroke-dasharray="3 3"/>
        <path opacity="0.4" d="M801.843 262.429V433.857" stroke="white"/>
        <path d="M730.61 306.929H774.61L786.61 283.929L799.11 260.929L730.61 306.929Z" fill="url(#paint27_linear_2594_237667)"/>
        <path d="M827.61 391.429L803.61 431.929L832.11 414.429L870.61 391.429H827.61Z" fill="url(#paint28_linear_2594_237667)"/>
        <path opacity="0.4" d="M878.11 306.668H731.11L802.11 259.929" stroke="white"/>
        <path opacity="0.4" d="M726.797 391.461H870.889L801.73 432.014" stroke="white"/>
        <path d="M800.697 258.742L879.08 305.174L802.255 434.865L724.61 391.429L800.697 258.742Z" fill="url(#paint29_linear_2594_237667)"/>
        <path opacity="0.5" d="M802.074 434.191L725.295 391.239L800.879 259.431L878.395 305.349L802.074 434.191Z" stroke="white"/>
        <path opacity="0.4" d="M946.465 219.429V390.857" stroke="white" stroke-dasharray="3 3"/>
        <path opacity="0.4" d="M1019.73 261.429H876.732L948.232 215.429" stroke="white" stroke-dasharray="3 3"/>
        <path opacity="0.4" d="M868.732 345.429H1016.73L943.669 389.429" stroke="white" stroke-dasharray="3 3"/>
        <rect opacity="0.4" x="945.495" y="216.427" width="89" height="149.738" transform="rotate(30.6412 945.495 216.427)" stroke="white" stroke-dasharray="3 3"/>
        <path opacity="0.4" d="M946.465 262.429V433.857" stroke="white"/>
        <path d="M875.232 306.929H919.232L931.232 283.929L943.732 260.929L875.232 306.929Z" fill="url(#paint30_linear_2594_237667)"/>
        <path d="M972.232 391.429L948.232 431.929L976.732 414.429L1015.23 391.429H972.232Z" fill="url(#paint31_linear_2594_237667)"/>
        <path opacity="0.4" d="M1022.73 306.668H875.732L946.732 259.929" stroke="white"/>
        <path opacity="0.4" d="M871.419 391.461H1015.51L946.352 432.014" stroke="white"/>
        <path d="M945.319 258.742L1023.7 305.174L946.877 434.865L869.232 391.429L945.319 258.742Z" fill="url(#paint32_linear_2594_237667)"/>
        <path opacity="0.5" d="M946.697 434.191L869.918 391.239L945.502 259.431L1023.02 305.349L946.697 434.191Z" stroke="white"/>
    </g>
    <g opacity="0.7">
        <path opacity="0.4" d="M78.7324 433.857V605.286" stroke="white" stroke-dasharray="3 3"/>
        <path opacity="0.4" d="M152 475.857H9L80.5 429.857" stroke="white" stroke-dasharray="3 3"/>
        <path opacity="0.4" d="M1 559.857H149L75.9367 603.857" stroke="white" stroke-dasharray="3 3"/>
        <rect opacity="0.4" x="77.7623" y="430.856" width="89" height="149.738" transform="rotate(30.6412 77.7623 430.856)" stroke="white" stroke-dasharray="3 3"/>
        <path opacity="0.4" d="M78.7324 476.857V648.286" stroke="white"/>
        <path d="M7.5 521.357H51.5L63.5 498.357L76 475.357L7.5 521.357Z" fill="url(#paint33_linear_2594_237667)"/>
        <path d="M104.5 605.857L80.5 646.357L109 628.857L147.5 605.857H104.5Z" fill="url(#paint34_linear_2594_237667)"/>
        <path opacity="0.4" d="M155 521.097H8L79 474.357" stroke="white"/>
        <path opacity="0.4" d="M3.68652 605.89H147.779L78.6193 646.443" stroke="white"/>
        <path d="M77.5869 473.171L155.97 519.603L79.1448 649.294L1.49951 605.858L77.5869 473.171Z" fill="url(#paint35_linear_2594_237667)"/>
        <path opacity="0.5" d="M78.9642 648.619L2.18561 605.668L77.7694 473.86L155.286 519.778L78.9642 648.619Z" stroke="white"/>
        <path opacity="0.4" d="M223.354 433.857V605.286" stroke="white" stroke-dasharray="3 3"/>
        <path opacity="0.4" d="M296.622 475.857H153.622L225.122 429.857" stroke="white" stroke-dasharray="3 3"/>
        <path opacity="0.4" d="M145.622 559.857H293.622L220.559 603.857" stroke="white" stroke-dasharray="3 3"/>
        <rect opacity="0.4" x="222.384" y="430.856" width="89" height="149.738" transform="rotate(30.6412 222.384 430.856)" stroke="white" stroke-dasharray="3 3"/>
        <path opacity="0.4" d="M223.354 476.857V648.286" stroke="white"/>
        <path d="M152.122 521.357H196.122L208.122 498.357L220.622 475.357L152.122 521.357Z" fill="url(#paint36_linear_2594_237667)"/>
        <path d="M249.122 605.857L225.122 646.357L253.622 628.857L292.122 605.857H249.122Z" fill="url(#paint37_linear_2594_237667)"/>
        <path opacity="0.4" d="M299.622 521.097H152.622L223.622 474.357" stroke="white"/>
        <path opacity="0.4" d="M148.309 605.89H292.401L223.241 646.443" stroke="white"/>
        <path d="M222.209 473.171L300.592 519.603L223.767 649.294L146.122 605.858L222.209 473.171Z" fill="url(#paint38_linear_2594_237667)"/>
        <path opacity="0.5" d="M223.585 648.619L146.807 605.668L222.39 473.86L299.907 519.778L223.585 648.619Z" stroke="white"/>
        <path opacity="0.4" d="M367.977 433.857V605.286" stroke="white" stroke-dasharray="3 3"/>
        <path opacity="0.4" d="M441.244 475.857H298.244L369.744 429.857" stroke="white" stroke-dasharray="3 3"/>
        <path opacity="0.4" d="M290.244 559.857H438.244L365.181 603.857" stroke="white" stroke-dasharray="3 3"/>
        <rect opacity="0.4" x="367.006" y="430.856" width="89" height="149.738" transform="rotate(30.6412 367.006 430.856)" stroke="white" stroke-dasharray="3 3"/>
        <path opacity="0.4" d="M367.977 476.857V648.286" stroke="white"/>
        <path d="M296.744 521.357H340.744L352.744 498.357L365.244 475.357L296.744 521.357Z" fill="url(#paint39_linear_2594_237667)"/>
        <path d="M393.744 605.857L369.744 646.357L398.244 628.857L436.744 605.857H393.744Z" fill="url(#paint40_linear_2594_237667)"/>
        <path opacity="0.4" d="M444.244 521.097H297.244L368.244 474.357" stroke="white"/>
        <path opacity="0.4" d="M292.931 605.89H437.023L367.863 646.443" stroke="white"/>
        <path d="M366.831 473.171L445.214 519.603L368.389 649.294L290.744 605.858L366.831 473.171Z" fill="url(#paint41_linear_2594_237667)"/>
        <path opacity="0.5" d="M368.208 648.619L291.43 605.668L367.014 473.86L444.53 519.778L368.208 648.619Z" stroke="white"/>
        <path opacity="0.4" d="M512.599 433.857V605.286" stroke="white" stroke-dasharray="3 3"/>
        <path opacity="0.4" d="M585.866 475.857H442.866L514.366 429.857" stroke="white" stroke-dasharray="3 3"/>
        <path opacity="0.4" d="M434.866 559.857H582.866L509.803 603.857" stroke="white" stroke-dasharray="3 3"/>
        <rect opacity="0.4" x="511.628" y="430.856" width="89" height="149.738" transform="rotate(30.6412 511.628 430.856)" stroke="white" stroke-dasharray="3 3"/>
        <path opacity="0.4" d="M512.599 476.857V648.286" stroke="white"/>
        <path d="M441.366 521.357H485.366L497.366 498.357L509.866 475.357L441.366 521.357Z" fill="url(#paint42_linear_2594_237667)"/>
        <path d="M538.366 605.857L514.366 646.357L542.866 628.857L581.366 605.857H538.366Z" fill="url(#paint43_linear_2594_237667)"/>
        <path opacity="0.4" d="M588.866 521.097H441.866L512.866 474.357" stroke="white"/>
        <path opacity="0.4" d="M437.553 605.89H581.645L512.485 646.443" stroke="white"/>
        <path d="M511.453 473.171L589.836 519.603L513.011 649.294L435.366 605.858L511.453 473.171Z" fill="url(#paint44_linear_2594_237667)"/>
        <path opacity="0.5" d="M512.829 648.619L436.051 605.668L511.635 473.86L589.151 519.778L512.829 648.619Z" stroke="white"/>
        <path opacity="0.4" d="M657.221 433.857V605.286" stroke="white" stroke-dasharray="3 3"/>
        <path opacity="0.4" d="M730.488 475.857H587.488L658.988 429.857" stroke="white" stroke-dasharray="3 3"/>
        <path opacity="0.4" d="M579.488 559.857H727.488L654.425 603.857" stroke="white" stroke-dasharray="3 3"/>
        <rect opacity="0.4" x="656.251" y="430.856" width="89" height="149.738" transform="rotate(30.6412 656.251 430.856)" stroke="white" stroke-dasharray="3 3"/>
        <path opacity="0.4" d="M657.221 476.857V648.286" stroke="white"/>
        <path d="M585.988 521.357H629.988L641.988 498.357L654.488 475.357L585.988 521.357Z" fill="url(#paint45_linear_2594_237667)"/>
        <path d="M682.988 605.857L658.988 646.357L687.488 628.857L725.988 605.857H682.988Z" fill="url(#paint46_linear_2594_237667)"/>
        <path opacity="0.4" d="M733.488 521.097H586.488L657.488 474.357" stroke="white"/>
        <path opacity="0.4" d="M582.175 605.89H726.267L657.108 646.443" stroke="white"/>
        <path d="M656.075 473.171L734.458 519.603L657.633 649.294L579.988 605.858L656.075 473.171Z" fill="url(#paint47_linear_2594_237667)"/>
        <path opacity="0.5" d="M657.452 648.619L580.674 605.668L656.258 473.86L733.774 519.778L657.452 648.619Z" stroke="white"/>
        <path opacity="0.4" d="M801.843 433.857V605.286" stroke="white" stroke-dasharray="3 3"/>
        <path opacity="0.4" d="M875.11 475.857H732.11L803.61 429.857" stroke="white" stroke-dasharray="3 3"/>
        <path opacity="0.4" d="M724.11 559.857H872.11L799.047 603.857" stroke="white" stroke-dasharray="3 3"/>
        <rect opacity="0.4" x="800.873" y="430.856" width="89" height="149.738" transform="rotate(30.6412 800.873 430.856)" stroke="white" stroke-dasharray="3 3"/>
        <path opacity="0.4" d="M801.843 476.857V648.286" stroke="white"/>
        <path d="M730.61 521.357H774.61L786.61 498.357L799.11 475.357L730.61 521.357Z" fill="url(#paint48_linear_2594_237667)"/>
        <path d="M827.61 605.857L803.61 646.357L832.11 628.857L870.61 605.857H827.61Z" fill="url(#paint49_linear_2594_237667)"/>
        <path opacity="0.4" d="M878.11 521.097H731.11L802.11 474.357" stroke="white"/>
        <path opacity="0.4" d="M726.797 605.89H870.889L801.73 646.443" stroke="white"/>
        <path d="M800.697 473.171L879.08 519.603L802.255 649.294L724.61 605.858L800.697 473.171Z" fill="url(#paint50_linear_2594_237667)"/>
        <path opacity="0.5" d="M802.074 648.619L725.295 605.668L800.879 473.86L878.395 519.778L802.074 648.619Z" stroke="white"/>
        <path opacity="0.4" d="M946.465 433.857V605.286" stroke="white" stroke-dasharray="3 3"/>
        <path opacity="0.4" d="M1019.73 475.857H876.732L948.232 429.857" stroke="white" stroke-dasharray="3 3"/>
        <path opacity="0.4" d="M868.732 559.857H1016.73L943.669 603.857" stroke="white" stroke-dasharray="3 3"/>
        <rect opacity="0.4" x="945.495" y="430.856" width="89" height="149.738" transform="rotate(30.6412 945.495 430.856)" stroke="white" stroke-dasharray="3 3"/>
        <path opacity="0.4" d="M946.465 476.857V648.286" stroke="white"/>
        <path d="M875.232 521.357H919.232L931.232 498.357L943.732 475.357L875.232 521.357Z" fill="url(#paint51_linear_2594_237667)"/>
        <path d="M972.232 605.857L948.232 646.357L976.732 628.857L1015.23 605.857H972.232Z" fill="url(#paint52_linear_2594_237667)"/>
        <path opacity="0.4" d="M1022.73 521.097H875.732L946.732 474.357" stroke="white"/>
        <path opacity="0.4" d="M871.419 605.89H1015.51L946.352 646.443" stroke="white"/>
        <path d="M945.319 473.171L1023.7 519.603L946.877 649.294L869.232 605.858L945.319 473.171Z" fill="url(#paint53_linear_2594_237667)"/>
        <path opacity="0.5" d="M946.697 648.619L869.918 605.668L945.502 473.86L1023.02 519.778L946.697 648.619Z" stroke="white"/>
    </g>
    <defs>
        <linearGradient id="paint0_linear_2594_237667" x1="301.744" y1="92" x2="351.244" y2="72" gradientUnits="userSpaceOnUse">
            <stop stop-color="#E9EAFB"/>
            <stop offset="1" stop-color="#E6E6FB"/>
        </linearGradient>
        <linearGradient id="paint1_linear_2594_237667" x1="385.744" y1="193" x2="429.244" y2="178.5" gradientUnits="userSpaceOnUse">
            <stop stop-color="#E9E9FB"/>
            <stop offset="1" stop-color="#EBEBFB"/>
        </linearGradient>
        <linearGradient id="paint2_linear_2594_237667" x1="370.244" y1="55.0001" x2="364.744" y2="215.5" gradientUnits="userSpaceOnUse">
            <stop stop-color="#EBEBFB"/>
            <stop offset="1" stop-color="#EAE7FB"/>
        </linearGradient>
        <linearGradient id="paint3_linear_2594_237667" x1="446.366" y1="92" x2="495.866" y2="72" gradientUnits="userSpaceOnUse">
            <stop stop-color="#E9EAFB"/>
            <stop offset="1" stop-color="#E6E6FB"/>
        </linearGradient>
        <linearGradient id="paint4_linear_2594_237667" x1="530.366" y1="193" x2="573.866" y2="178.5" gradientUnits="userSpaceOnUse">
            <stop stop-color="#E9E9FB"/>
            <stop offset="1" stop-color="#EBEBFB"/>
        </linearGradient>
        <linearGradient id="paint5_linear_2594_237667" x1="514.866" y1="55.0001" x2="509.366" y2="215.5" gradientUnits="userSpaceOnUse">
            <stop stop-color="#EBEBFB"/>
            <stop offset="1" stop-color="#EAE7FB"/>
        </linearGradient>
        <linearGradient id="paint6_linear_2594_237667" x1="590.988" y1="92" x2="640.488" y2="72" gradientUnits="userSpaceOnUse">
            <stop stop-color="#E9EAFB"/>
            <stop offset="1" stop-color="#E6E6FB"/>
        </linearGradient>
        <linearGradient id="paint7_linear_2594_237667" x1="674.988" y1="193" x2="718.488" y2="178.5" gradientUnits="userSpaceOnUse">
            <stop stop-color="#E9E9FB"/>
            <stop offset="1" stop-color="#EBEBFB"/>
        </linearGradient>
        <linearGradient id="paint8_linear_2594_237667" x1="659.488" y1="55.0001" x2="653.988" y2="215.5" gradientUnits="userSpaceOnUse">
            <stop stop-color="#EBEBFB"/>
            <stop offset="1" stop-color="#EAE7FB"/>
        </linearGradient>
        <linearGradient id="paint9_linear_2594_237667" x1="735.61" y1="92" x2="785.11" y2="72" gradientUnits="userSpaceOnUse">
            <stop stop-color="#E9EAFB"/>
            <stop offset="1" stop-color="#E6E6FB"/>
        </linearGradient>
        <linearGradient id="paint10_linear_2594_237667" x1="819.61" y1="193" x2="863.11" y2="178.5" gradientUnits="userSpaceOnUse">
            <stop stop-color="#E9E9FB"/>
            <stop offset="1" stop-color="#EBEBFB"/>
        </linearGradient>
        <linearGradient id="paint11_linear_2594_237667" x1="804.11" y1="55.0001" x2="798.61" y2="215.5" gradientUnits="userSpaceOnUse">
            <stop stop-color="#EBEBFB"/>
            <stop offset="1" stop-color="#EAE7FB"/>
        </linearGradient>
        <linearGradient id="paint12_linear_2594_237667" x1="880.232" y1="92" x2="929.732" y2="72" gradientUnits="userSpaceOnUse">
            <stop stop-color="#E9EAFB"/>
            <stop offset="1" stop-color="#E6E6FB"/>
        </linearGradient>
        <linearGradient id="paint13_linear_2594_237667" x1="964.232" y1="193" x2="1007.73" y2="178.5" gradientUnits="userSpaceOnUse">
            <stop stop-color="#E9E9FB"/>
            <stop offset="1" stop-color="#EBEBFB"/>
        </linearGradient>
        <linearGradient id="paint14_linear_2594_237667" x1="948.732" y1="55.0001" x2="943.232" y2="215.5" gradientUnits="userSpaceOnUse">
            <stop stop-color="#EBEBFB"/>
            <stop offset="1" stop-color="#EAE7FB"/>
        </linearGradient>
        <linearGradient id="paint15_linear_2594_237667" x1="157.122" y1="306.429" x2="206.622" y2="286.429" gradientUnits="userSpaceOnUse">
            <stop stop-color="#E9EAFB"/>
            <stop offset="1" stop-color="#E6E6FB"/>
        </linearGradient>
        <linearGradient id="paint16_linear_2594_237667" x1="241.122" y1="407.429" x2="284.622" y2="392.929" gradientUnits="userSpaceOnUse">
            <stop stop-color="#E9E9FB"/>
            <stop offset="1" stop-color="#EBEBFB"/>
        </linearGradient>
        <linearGradient id="paint17_linear_2594_237667" x1="225.622" y1="269.429" x2="220.122" y2="429.929" gradientUnits="userSpaceOnUse">
            <stop stop-color="#EBEBFB"/>
            <stop offset="1" stop-color="#EAE7FB"/>
        </linearGradient>
        <linearGradient id="paint18_linear_2594_237667" x1="301.744" y1="306.429" x2="351.244" y2="286.429" gradientUnits="userSpaceOnUse">
            <stop stop-color="#E9EAFB"/>
            <stop offset="1" stop-color="#E6E6FB"/>
        </linearGradient>
        <linearGradient id="paint19_linear_2594_237667" x1="385.744" y1="407.429" x2="429.244" y2="392.929" gradientUnits="userSpaceOnUse">
            <stop stop-color="#E9E9FB"/>
            <stop offset="1" stop-color="#EBEBFB"/>
        </linearGradient>
        <linearGradient id="paint20_linear_2594_237667" x1="370.244" y1="269.429" x2="364.744" y2="429.929" gradientUnits="userSpaceOnUse">
            <stop stop-color="#EBEBFB"/>
            <stop offset="1" stop-color="#EAE7FB"/>
        </linearGradient>
        <linearGradient id="paint21_linear_2594_237667" x1="446.366" y1="306.429" x2="495.866" y2="286.429" gradientUnits="userSpaceOnUse">
            <stop stop-color="#E9EAFB"/>
            <stop offset="1" stop-color="#E6E6FB"/>
        </linearGradient>
        <linearGradient id="paint22_linear_2594_237667" x1="530.366" y1="407.429" x2="573.866" y2="392.929" gradientUnits="userSpaceOnUse">
            <stop stop-color="#E9E9FB"/>
            <stop offset="1" stop-color="#EBEBFB"/>
        </linearGradient>
        <linearGradient id="paint23_linear_2594_237667" x1="514.866" y1="269.429" x2="509.366" y2="429.929" gradientUnits="userSpaceOnUse">
            <stop stop-color="#EBEBFB"/>
            <stop offset="1" stop-color="#EAE7FB"/>
        </linearGradient>
        <linearGradient id="paint24_linear_2594_237667" x1="590.988" y1="306.429" x2="640.488" y2="286.429" gradientUnits="userSpaceOnUse">
            <stop stop-color="#E9EAFB"/>
            <stop offset="1" stop-color="#E6E6FB"/>
        </linearGradient>
        <linearGradient id="paint25_linear_2594_237667" x1="674.988" y1="407.429" x2="718.488" y2="392.929" gradientUnits="userSpaceOnUse">
            <stop stop-color="#E9E9FB"/>
            <stop offset="1" stop-color="#EBEBFB"/>
        </linearGradient>
        <linearGradient id="paint26_linear_2594_237667" x1="659.488" y1="269.429" x2="653.988" y2="429.929" gradientUnits="userSpaceOnUse">
            <stop stop-color="#EBEBFB"/>
            <stop offset="1" stop-color="#EAE7FB"/>
        </linearGradient>
        <linearGradient id="paint27_linear_2594_237667" x1="735.61" y1="306.429" x2="785.11" y2="286.429" gradientUnits="userSpaceOnUse">
            <stop stop-color="#E9EAFB"/>
            <stop offset="1" stop-color="#E6E6FB"/>
        </linearGradient>
        <linearGradient id="paint28_linear_2594_237667" x1="819.61" y1="407.429" x2="863.11" y2="392.929" gradientUnits="userSpaceOnUse">
            <stop stop-color="#E9E9FB"/>
            <stop offset="1" stop-color="#EBEBFB"/>
        </linearGradient>
        <linearGradient id="paint29_linear_2594_237667" x1="804.11" y1="269.429" x2="798.61" y2="429.929" gradientUnits="userSpaceOnUse">
            <stop stop-color="#EBEBFB"/>
            <stop offset="1" stop-color="#EAE7FB"/>
        </linearGradient>
        <linearGradient id="paint30_linear_2594_237667" x1="880.232" y1="306.429" x2="929.732" y2="286.429" gradientUnits="userSpaceOnUse">
            <stop stop-color="#E9EAFB"/>
            <stop offset="1" stop-color="#E6E6FB"/>
        </linearGradient>
        <linearGradient id="paint31_linear_2594_237667" x1="964.232" y1="407.429" x2="1007.73" y2="392.929" gradientUnits="userSpaceOnUse">
            <stop stop-color="#E9E9FB"/>
            <stop offset="1" stop-color="#EBEBFB"/>
        </linearGradient>
        <linearGradient id="paint32_linear_2594_237667" x1="948.732" y1="269.429" x2="943.232" y2="429.929" gradientUnits="userSpaceOnUse">
            <stop stop-color="#EBEBFB"/>
            <stop offset="1" stop-color="#EAE7FB"/>
        </linearGradient>
        <linearGradient id="paint33_linear_2594_237667" x1="12.5" y1="520.857" x2="62" y2="500.857" gradientUnits="userSpaceOnUse">
            <stop stop-color="#E9EAFB"/>
            <stop offset="1" stop-color="#E6E6FB"/>
        </linearGradient>
        <linearGradient id="paint34_linear_2594_237667" x1="96.5" y1="621.857" x2="140" y2="607.357" gradientUnits="userSpaceOnUse">
            <stop stop-color="#E9E9FB"/>
            <stop offset="1" stop-color="#EBEBFB"/>
        </linearGradient>
        <linearGradient id="paint35_linear_2594_237667" x1="80.9995" y1="483.858" x2="75.4995" y2="644.358" gradientUnits="userSpaceOnUse">
            <stop stop-color="#EBEBFB"/>
            <stop offset="1" stop-color="#EAE7FB"/>
        </linearGradient>
        <linearGradient id="paint36_linear_2594_237667" x1="157.122" y1="520.857" x2="206.622" y2="500.857" gradientUnits="userSpaceOnUse">
            <stop stop-color="#E9EAFB"/>
            <stop offset="1" stop-color="#E6E6FB"/>
        </linearGradient>
        <linearGradient id="paint37_linear_2594_237667" x1="241.122" y1="621.857" x2="284.622" y2="607.357" gradientUnits="userSpaceOnUse">
            <stop stop-color="#E9E9FB"/>
            <stop offset="1" stop-color="#EBEBFB"/>
        </linearGradient>
        <linearGradient id="paint38_linear_2594_237667" x1="225.622" y1="483.858" x2="220.122" y2="644.358" gradientUnits="userSpaceOnUse">
            <stop stop-color="#EBEBFB"/>
            <stop offset="1" stop-color="#EAE7FB"/>
        </linearGradient>
        <linearGradient id="paint39_linear_2594_237667" x1="301.744" y1="520.857" x2="351.244" y2="500.857" gradientUnits="userSpaceOnUse">
            <stop stop-color="#E9EAFB"/>
            <stop offset="1" stop-color="#E6E6FB"/>
        </linearGradient>
        <linearGradient id="paint40_linear_2594_237667" x1="385.744" y1="621.857" x2="429.244" y2="607.357" gradientUnits="userSpaceOnUse">
            <stop stop-color="#E9E9FB"/>
            <stop offset="1" stop-color="#EBEBFB"/>
        </linearGradient>
        <linearGradient id="paint41_linear_2594_237667" x1="370.244" y1="483.858" x2="364.744" y2="644.358" gradientUnits="userSpaceOnUse">
            <stop stop-color="#EBEBFB"/>
            <stop offset="1" stop-color="#EAE7FB"/>
        </linearGradient>
        <linearGradient id="paint42_linear_2594_237667" x1="446.366" y1="520.857" x2="495.866" y2="500.857" gradientUnits="userSpaceOnUse">
            <stop stop-color="#E9EAFB"/>
            <stop offset="1" stop-color="#E6E6FB"/>
        </linearGradient>
        <linearGradient id="paint43_linear_2594_237667" x1="530.366" y1="621.857" x2="573.866" y2="607.357" gradientUnits="userSpaceOnUse">
            <stop stop-color="#E9E9FB"/>
            <stop offset="1" stop-color="#EBEBFB"/>
        </linearGradient>
        <linearGradient id="paint44_linear_2594_237667" x1="514.866" y1="483.858" x2="509.366" y2="644.358" gradientUnits="userSpaceOnUse">
            <stop stop-color="#EBEBFB"/>
            <stop offset="1" stop-color="#EAE7FB"/>
        </linearGradient>
        <linearGradient id="paint45_linear_2594_237667" x1="590.988" y1="520.857" x2="640.488" y2="500.857" gradientUnits="userSpaceOnUse">
            <stop stop-color="#E9EAFB"/>
            <stop offset="1" stop-color="#E6E6FB"/>
        </linearGradient>
        <linearGradient id="paint46_linear_2594_237667" x1="674.988" y1="621.857" x2="718.488" y2="607.357" gradientUnits="userSpaceOnUse">
            <stop stop-color="#E9E9FB"/>
            <stop offset="1" stop-color="#EBEBFB"/>
        </linearGradient>
        <linearGradient id="paint47_linear_2594_237667" x1="659.488" y1="483.858" x2="653.988" y2="644.358" gradientUnits="userSpaceOnUse">
            <stop stop-color="#EBEBFB"/>
            <stop offset="1" stop-color="#EAE7FB"/>
        </linearGradient>
        <linearGradient id="paint48_linear_2594_237667" x1="735.61" y1="520.857" x2="785.11" y2="500.857" gradientUnits="userSpaceOnUse">
            <stop stop-color="#E9EAFB"/>
            <stop offset="1" stop-color="#E6E6FB"/>
        </linearGradient>
        <linearGradient id="paint49_linear_2594_237667" x1="819.61" y1="621.857" x2="863.11" y2="607.357" gradientUnits="userSpaceOnUse">
            <stop stop-color="#E9E9FB"/>
            <stop offset="1" stop-color="#EBEBFB"/>
        </linearGradient>
        <linearGradient id="paint50_linear_2594_237667" x1="804.11" y1="483.858" x2="798.61" y2="644.358" gradientUnits="userSpaceOnUse">
            <stop stop-color="#EBEBFB"/>
            <stop offset="1" stop-color="#EAE7FB"/>
        </linearGradient>
        <linearGradient id="paint51_linear_2594_237667" x1="880.232" y1="520.857" x2="929.732" y2="500.857" gradientUnits="userSpaceOnUse">
            <stop stop-color="#E9EAFB"/>
            <stop offset="1" stop-color="#E6E6FB"/>
        </linearGradient>
        <linearGradient id="paint52_linear_2594_237667" x1="964.232" y1="621.857" x2="1007.73" y2="607.357" gradientUnits="userSpaceOnUse">
            <stop stop-color="#E9E9FB"/>
            <stop offset="1" stop-color="#EBEBFB"/>
        </linearGradient>
        <linearGradient id="paint53_linear_2594_237667" x1="948.732" y1="483.858" x2="943.232" y2="644.358" gradientUnits="userSpaceOnUse">
            <stop stop-color="#EBEBFB"/>
            <stop offset="1" stop-color="#EAE7FB"/>
        </linearGradient>
    </defs>
</svg>
