<svg width="780" height="202" viewBox="0 0 780 202" fill="none" xmlns="http://www.w3.org/2000/svg">
<g clip-path="url(#clip0_4306_634877)">
<g opacity="0.7">
<g opacity="0.8">
<path opacity="0.1" d="M105 1L-30 101V201L105 151V1Z" fill="#C6C7E2"/>
<path opacity="0.4" d="M105 1L240 51V201L105 151V1Z" fill="#C6C7E2"/>
<path opacity="0.4" d="M105 51L240 101V151L105 51Z" fill="#C6C7E2"/>
<path opacity="0.4" d="M105 101V150.999L-30 200.999L105 101Z" fill="#C6C7E2"/>
<path opacity="0.2" fill-rule="evenodd" clip-rule="evenodd" d="M105.174 0.531498L104.92 0.4375L104.702 0.598594L37.335 50.5004H-30H-30.5V51.0004V100.5V100.749V101V101.5V151V151.5V201H-30.0798L-29.8263 201.469L105.001 151.533L239.826 201.469L240.499 201H240.5V51.0004V50.6524L240.5 50.5004H240.09L105.174 0.531498ZM237.21 50.5004L105.08 1.56324L39.0151 50.5004H104.5H105H105.5H237.21ZM35.985 51.5004H-29.5V100.008L35.985 51.5004ZM-28.485 100.5L37.6651 51.5004H104.5V100.5H-28.485ZM-29.5 101.5V150.5H37.3346L103.485 101.5H-29.5ZM-29.5 151.5V200.007L35.9846 151.5H-29.5ZM105.5 150.499L238.484 150.5L172.335 101.5H105.5V150.499ZM239.5 200.282L107.792 151.5H239.5V200.282ZM104.5 150.5V101.993L39.0147 150.5H104.5ZM37.6647 151.5H102.209L-26.8803 199.311L37.6647 151.5ZM105.5 100.008V100.5H170.985L105.5 51.993V100.008ZM239.5 101.5V150.008L174.015 101.5H239.5ZM237.21 100.5H172.665L108.12 52.689L237.21 100.5ZM239.5 51.5004V100.282L107.79 51.5004H239.5Z" fill="#898BC2"/>
</g>
<g opacity="0.9">
<path opacity="0.1" d="M375 1L240 101V201L375 151V1Z" fill="#C6C7E2"/>
<path opacity="0.4" d="M375 1L510 51V201L375 151V1Z" fill="#C6C7E2"/>
<path opacity="0.4" d="M375 51L510 101V151L375 51Z" fill="#C6C7E2"/>
<path opacity="0.4" d="M375 101V150.999L240 200.999L375 101Z" fill="#C6C7E2"/>
<path opacity="0.2" fill-rule="evenodd" clip-rule="evenodd" d="M375.174 0.531498L374.92 0.4375L374.702 0.598594L307.335 50.5004H240H239.5V51.0004V100.5V100.749V101V101.5V151V151.5V201H239.92L240.174 201.469L375.001 151.533L509.826 201.469L510.499 201H510.5V51.0004V50.6524L510.5 50.5004H510.09L375.174 0.531498ZM507.21 50.5004L375.08 1.56324L309.015 50.5004H374.5H375H375.5H507.21ZM305.985 51.5004H240.5V100.008L305.985 51.5004ZM241.515 100.5L307.665 51.5004H374.5V100.5H241.515ZM240.5 101.5V150.5H307.335L373.485 101.5H240.5ZM240.5 151.5V200.007L305.985 151.5H240.5ZM375.5 150.499L508.484 150.5L442.335 101.5H375.5V150.499ZM509.5 200.282L377.792 151.5H509.5V200.282ZM374.5 150.5V101.993L309.015 150.5H374.5ZM307.665 151.5H372.209L243.12 199.311L307.665 151.5ZM375.5 100.008V100.5H440.985L375.5 51.993V100.008ZM509.5 101.5V150.008L444.015 101.5H509.5ZM507.21 100.5H442.665L378.12 52.689L507.21 100.5ZM509.5 51.5004V100.282L377.79 51.5004H509.5Z" fill="#898BC2"/>
</g>
<path opacity="0.1" d="M645 1L510 101V201L645 151V1Z" fill="#C6C7E2"/>
<path opacity="0.4" d="M645 1L780 51V201L645 151V1Z" fill="#C6C7E2"/>
<path opacity="0.4" d="M645 51L780 101V151L645 51Z" fill="#C6C7E2"/>
<path opacity="0.4" d="M645 101V150.999L510 200.999L645 101Z" fill="#C6C7E2"/>
<path opacity="0.2" fill-rule="evenodd" clip-rule="evenodd" d="M645.174 0.531498L644.92 0.4375L644.702 0.598594L577.335 50.5004H510H509.5V51.0004V100.5V100.749V101V101.5V151V151.5V201H509.92L510.174 201.469L645.001 151.533L779.826 201.469L780.499 201H780.5V51.0004V50.6524L780.5 50.5004H780.09L645.174 0.531498ZM777.21 50.5004L645.08 1.56324L579.015 50.5004H644.5H645H645.5H777.21ZM575.985 51.5004H510.5V100.008L575.985 51.5004ZM511.515 100.5L577.665 51.5004H644.5V100.5H511.515ZM510.5 101.5V150.5H577.335L643.485 101.5H510.5ZM510.5 151.5V200.007L575.985 151.5H510.5ZM645.5 150.499L778.484 150.5L712.335 101.5H645.5V150.499ZM779.5 200.282L647.792 151.5H779.5V200.282ZM644.5 150.5V101.993L579.015 150.5H644.5ZM577.665 151.5H642.209L513.12 199.311L577.665 151.5ZM645.5 100.008V100.5H710.985L645.5 51.993V100.008ZM779.5 101.5V150.008L714.015 101.5H779.5ZM777.21 100.5H712.665L648.12 52.689L777.21 100.5ZM779.5 51.5004V100.282L647.79 51.5004H779.5Z" fill="#898BC2"/>
</g>
</g>
<defs>
<clipPath id="clip0_4306_634877">
<rect width="1640" height="202" fill="white" transform="translate(-860)"/>
</clipPath>
</defs>
</svg>
