<svg width="2178" height="1388" viewBox="0 0 2178 1388" fill="none" xmlns="http://www.w3.org/2000/svg">
<g opacity="0.5">
<g opacity="0.5">
<path opacity="0.4" d="M1497.38 421.713V573.269L1632.66 622.932V471.375L1497.38 421.713Z" fill="#CBCCE4"/>
<path opacity="0.1" d="M1498.23 421.713V572.624L1361.23 622.075V523.607L1498.23 421.713Z" fill="#CBCCE4"/>
<path opacity="0.5" d="M1496.52 574.125V522.75L1361.23 622.931L1496.52 574.125Z" fill="#CBCCE4"/>
<path opacity="0.5" d="M1632.66 523.607V573.27L1496.52 470.52L1632.66 523.607Z" fill="#CBCCE4"/>
<path d="M1632.66 471.375L1497.38 421.713L1361.23 523.607H1632.66M1632.66 471.375V523.607M1632.66 471.375H1496.95M1632.66 523.607V573.269M1361.23 573.269H1496.95M1632.66 573.269V622.932L1496.95 573.269M1632.66 573.269H1496.95M1496.95 573.269V471.375M1496.95 471.375H1361.23V622.932" stroke="#CBCCE4" stroke-width="0.85625"/>
<path d="M1496.52 523.607L1361.23 622.076L1496.52 573.27M1631.81 523.607L1496.52 470.52L1631.81 573.27" stroke="#CBCCE4" stroke-width="0.85625"/>
</g>
<g opacity="0.5">
<path opacity="0.4" d="M1769.38 421.713V573.269L1904.66 622.932V471.375L1769.38 421.713Z" fill="#CBCCE4"/>
<path opacity="0.1" d="M1770.23 421.713V572.624L1633.23 622.075V523.607L1770.23 421.713Z" fill="#CBCCE4"/>
<path opacity="0.5" d="M1768.52 574.125V522.75L1633.23 622.931L1768.52 574.125Z" fill="#CBCCE4"/>
<path opacity="0.5" d="M1904.66 523.607V573.27L1768.52 470.52L1904.66 523.607Z" fill="#CBCCE4"/>
<path d="M1904.66 471.375L1769.38 421.713L1633.23 523.607H1904.66M1904.66 471.375V523.607M1904.66 471.375H1768.95M1904.66 523.607V573.269M1633.23 573.269H1768.95M1904.66 573.269V622.932L1768.95 573.269M1904.66 573.269H1768.95M1768.95 573.269V471.375M1768.95 471.375H1633.23V622.932" stroke="#CBCCE4" stroke-width="0.85625"/>
<path d="M1768.52 523.607L1633.23 622.076L1768.52 573.27M1903.81 523.607L1768.52 470.52L1903.81 573.27" stroke="#CBCCE4" stroke-width="0.85625"/>
</g>
<g opacity="0.5">
<path opacity="0.4" d="M2041.38 421.713V573.269L2176.66 622.932V471.375L2041.38 421.713Z" fill="#CBCCE4"/>
<path opacity="0.1" d="M2042.23 421.713V572.624L1905.23 622.075V523.607L2042.23 421.713Z" fill="#CBCCE4"/>
<path opacity="0.5" d="M2040.52 574.125V522.75L1905.23 622.931L2040.52 574.125Z" fill="#CBCCE4"/>
<path opacity="0.5" d="M2176.66 523.607V573.27L2040.52 470.52L2176.66 523.607Z" fill="#CBCCE4"/>
<path d="M2176.66 471.375L2041.38 421.713L1905.23 523.607H2176.66M2176.66 471.375V523.607M2176.66 471.375H2040.95M2176.66 523.607V573.269M1905.23 573.269H2040.95M2176.66 573.269V622.932L2040.95 573.269M2176.66 573.269H2040.95M2040.95 573.269V471.375M2040.95 471.375H1905.23V622.932" stroke="#CBCCE4" stroke-width="0.85625"/>
<path d="M2040.52 523.607L1905.23 622.076L2040.52 573.27M2175.81 523.607L2040.52 470.52L2175.81 573.27" stroke="#CBCCE4" stroke-width="0.85625"/>
</g>
</g>
<g opacity="0.5">
<g opacity="0.5">
<path opacity="0.4" d="M1497.38 574.713V726.269L1632.66 775.932V624.375L1497.38 574.713Z" fill="#CBCCE4"/>
<path opacity="0.1" d="M1498.23 574.713V725.624L1361.23 775.075V676.607L1498.23 574.713Z" fill="#CBCCE4"/>
<path opacity="0.5" d="M1496.52 727.125V675.75L1361.23 775.931L1496.52 727.125Z" fill="#CBCCE4"/>
<path opacity="0.5" d="M1632.66 676.607V726.27L1496.52 623.52L1632.66 676.607Z" fill="#CBCCE4"/>
<path d="M1632.66 624.375L1497.38 574.713L1361.23 676.607H1632.66M1632.66 624.375V676.607M1632.66 624.375H1496.95M1632.66 676.607V726.269M1361.23 726.269H1496.95M1632.66 726.269V775.932L1496.95 726.269M1632.66 726.269H1496.95M1496.95 726.269V624.375M1496.95 624.375H1361.23V775.932" stroke="#CBCCE4" stroke-width="0.85625"/>
<path d="M1496.52 676.607L1361.23 775.076L1496.52 726.27M1631.81 676.607L1496.52 623.52L1631.81 726.27" stroke="#CBCCE4" stroke-width="0.85625"/>
</g>
<g opacity="0.5">
<path opacity="0.4" d="M1769.38 574.713V726.269L1904.66 775.932V624.375L1769.38 574.713Z" fill="#CBCCE4"/>
<path opacity="0.1" d="M1770.23 574.713V725.624L1633.23 775.075V676.607L1770.23 574.713Z" fill="#CBCCE4"/>
<path opacity="0.5" d="M1768.52 727.125V675.75L1633.23 775.931L1768.52 727.125Z" fill="#CBCCE4"/>
<path opacity="0.5" d="M1904.66 676.607V726.27L1768.52 623.52L1904.66 676.607Z" fill="#CBCCE4"/>
<path d="M1904.66 624.375L1769.38 574.713L1633.23 676.607H1904.66M1904.66 624.375V676.607M1904.66 624.375H1768.95M1904.66 676.607V726.269M1633.23 726.269H1768.95M1904.66 726.269V775.932L1768.95 726.269M1904.66 726.269H1768.95M1768.95 726.269V624.375M1768.95 624.375H1633.23V775.932" stroke="#CBCCE4" stroke-width="0.85625"/>
<path d="M1768.52 676.607L1633.23 775.076L1768.52 726.27M1903.81 676.607L1768.52 623.52L1903.81 726.27" stroke="#CBCCE4" stroke-width="0.85625"/>
</g>
<g opacity="0.5">
<path opacity="0.4" d="M2041.38 574.713V726.269L2176.66 775.932V624.375L2041.38 574.713Z" fill="#CBCCE4"/>
<path opacity="0.1" d="M2042.23 574.713V725.624L1905.23 775.075V676.607L2042.23 574.713Z" fill="#CBCCE4"/>
<path opacity="0.5" d="M2040.52 727.125V675.75L1905.23 775.931L2040.52 727.125Z" fill="#CBCCE4"/>
<path opacity="0.5" d="M2176.66 676.607V726.27L2040.52 623.52L2176.66 676.607Z" fill="#CBCCE4"/>
<path d="M2176.66 624.375L2041.38 574.713L1905.23 676.607H2176.66M2176.66 624.375V676.607M2176.66 624.375H2040.95M2176.66 676.607V726.269M1905.23 726.269H2040.95M2176.66 726.269V775.932L2040.95 726.269M2176.66 726.269H2040.95M2040.95 726.269V624.375M2040.95 624.375H1905.23V775.932" stroke="#CBCCE4" stroke-width="0.85625"/>
<path d="M2040.52 676.607L1905.23 775.076L2040.52 726.27M2175.81 676.607L2040.52 623.52L2175.81 726.27" stroke="#CBCCE4" stroke-width="0.85625"/>
</g>
</g>
<g opacity="0.5">
<g opacity="0.5">
<path opacity="0.4" d="M1225.38 727.713V879.269L1360.66 928.932V777.375L1225.38 727.713Z" fill="#CBCCE4"/>
<path opacity="0.1" d="M1226.23 727.713V878.624L1089.23 928.075V829.607L1226.23 727.713Z" fill="#CBCCE4"/>
<path opacity="0.5" d="M1224.52 880.125V828.75L1089.23 928.931L1224.52 880.125Z" fill="#CBCCE4"/>
<path opacity="0.5" d="M1360.66 829.607V879.27L1224.52 776.52L1360.66 829.607Z" fill="#CBCCE4"/>
<path d="M1360.66 777.375L1225.38 727.713L1089.23 829.607H1360.66M1360.66 777.375V829.607M1360.66 777.375H1224.95M1360.66 829.607V879.269M1089.23 879.269H1224.95M1360.66 879.269V928.932L1224.95 879.269M1360.66 879.269H1224.95M1224.95 879.269V777.375M1224.95 777.375H1089.23V928.932" stroke="#CBCCE4" stroke-width="0.85625"/>
<path d="M1224.52 829.607L1089.23 928.076L1224.52 879.27M1359.81 829.607L1224.52 776.52L1359.81 879.27" stroke="#CBCCE4" stroke-width="0.85625"/>
</g>
<g opacity="0.5">
<path opacity="0.4" d="M1497.38 727.713V879.269L1632.66 928.932V777.375L1497.38 727.713Z" fill="#CBCCE4"/>
<path opacity="0.1" d="M1498.23 727.713V878.624L1361.23 928.075V829.607L1498.23 727.713Z" fill="#CBCCE4"/>
<path opacity="0.5" d="M1496.52 880.125V828.75L1361.23 928.931L1496.52 880.125Z" fill="#CBCCE4"/>
<path opacity="0.5" d="M1632.66 829.607V879.27L1496.52 776.52L1632.66 829.607Z" fill="#CBCCE4"/>
<path d="M1632.66 777.375L1497.38 727.713L1361.23 829.607H1632.66M1632.66 777.375V829.607M1632.66 777.375H1496.95M1632.66 829.607V879.269M1361.23 879.269H1496.95M1632.66 879.269V928.932L1496.95 879.269M1632.66 879.269H1496.95M1496.95 879.269V777.375M1496.95 777.375H1361.23V928.932" stroke="#CBCCE4" stroke-width="0.85625"/>
<path d="M1496.52 829.607L1361.23 928.076L1496.52 879.27M1631.81 829.607L1496.52 776.52L1631.81 879.27" stroke="#CBCCE4" stroke-width="0.85625"/>
</g>
<g opacity="0.5">
<path opacity="0.4" d="M1769.38 727.713V879.269L1904.66 928.932V777.375L1769.38 727.713Z" fill="#CBCCE4"/>
<path opacity="0.1" d="M1770.23 727.713V878.624L1633.23 928.075V829.607L1770.23 727.713Z" fill="#CBCCE4"/>
<path opacity="0.5" d="M1768.52 880.125V828.75L1633.23 928.931L1768.52 880.125Z" fill="#CBCCE4"/>
<path opacity="0.5" d="M1904.66 829.607V879.27L1768.52 776.52L1904.66 829.607Z" fill="#CBCCE4"/>
<path d="M1904.66 777.375L1769.38 727.713L1633.23 829.607H1904.66M1904.66 777.375V829.607M1904.66 777.375H1768.95M1904.66 829.607V879.269M1633.23 879.269H1768.95M1904.66 879.269V928.932L1768.95 879.269M1904.66 879.269H1768.95M1768.95 879.269V777.375M1768.95 777.375H1633.23V928.932" stroke="#CBCCE4" stroke-width="0.85625"/>
<path d="M1768.52 829.607L1633.23 928.076L1768.52 879.27M1903.81 829.607L1768.52 776.52L1903.81 879.27" stroke="#CBCCE4" stroke-width="0.85625"/>
</g>
<g opacity="0.5">
<path opacity="0.4" d="M2041.38 727.713V879.269L2176.66 928.932V777.375L2041.38 727.713Z" fill="#CBCCE4"/>
<path opacity="0.1" d="M2042.23 727.713V878.624L1905.23 928.075V829.607L2042.23 727.713Z" fill="#CBCCE4"/>
<path opacity="0.5" d="M2040.52 880.125V828.75L1905.23 928.931L2040.52 880.125Z" fill="#CBCCE4"/>
<path opacity="0.5" d="M2176.66 829.607V879.27L2040.52 776.52L2176.66 829.607Z" fill="#CBCCE4"/>
<path d="M2176.66 777.375L2041.38 727.713L1905.23 829.607H2176.66M2176.66 777.375V829.607M2176.66 777.375H2040.95M2176.66 829.607V879.269M1905.23 879.269H2040.95M2176.66 879.269V928.932L2040.95 879.269M2176.66 879.269H2040.95M2040.95 879.269V777.375M2040.95 777.375H1905.23V928.932" stroke="#CBCCE4" stroke-width="0.85625"/>
<path d="M2040.52 829.607L1905.23 928.076L2040.52 879.27M2175.81 829.607L2040.52 776.52L2175.81 879.27" stroke="#CBCCE4" stroke-width="0.85625"/>
</g>
</g>
<g opacity="0.5">
<g opacity="0.5">
<path opacity="0.4" d="M953.376 880.713V1032.27L1088.66 1081.93V930.375L953.376 880.713Z" fill="#CBCCE4"/>
<path opacity="0.1" d="M954.232 880.713V1031.62L817.232 1081.08V982.607L954.232 880.713Z" fill="#CBCCE4"/>
<path opacity="0.5" d="M952.519 1033.12V981.75L817.232 1081.93L952.519 1033.12Z" fill="#CBCCE4"/>
<path opacity="0.5" d="M1088.66 982.607V1032.27L952.52 929.52L1088.66 982.607Z" fill="#CBCCE4"/>
<path d="M1088.66 930.375L953.376 880.713L817.232 982.607H1088.66M1088.66 930.375V982.607M1088.66 930.375H952.948M1088.66 982.607V1032.27M817.232 1032.27H952.948M1088.66 1032.27V1081.93L952.948 1032.27M1088.66 1032.27H952.948M952.948 1032.27V930.375M952.948 930.375H817.232V1081.93" stroke="#CBCCE4" stroke-width="0.85625"/>
<path d="M952.519 982.607L817.232 1081.08L952.519 1032.27M1087.81 982.607L952.519 929.52L1087.81 1032.27" stroke="#CBCCE4" stroke-width="0.85625"/>
</g>
<g opacity="0.5">
<path opacity="0.4" d="M1225.38 880.713V1032.27L1360.66 1081.93V930.375L1225.38 880.713Z" fill="#CBCCE4"/>
<path opacity="0.1" d="M1226.23 880.713V1031.62L1089.23 1081.08V982.607L1226.23 880.713Z" fill="#CBCCE4"/>
<path opacity="0.5" d="M1224.52 1033.12V981.75L1089.23 1081.93L1224.52 1033.12Z" fill="#CBCCE4"/>
<path opacity="0.5" d="M1360.66 982.607V1032.27L1224.52 929.52L1360.66 982.607Z" fill="#CBCCE4"/>
<path d="M1360.66 930.375L1225.38 880.713L1089.23 982.607H1360.66M1360.66 930.375V982.607M1360.66 930.375H1224.95M1360.66 982.607V1032.27M1089.23 1032.27H1224.95M1360.66 1032.27V1081.93L1224.95 1032.27M1360.66 1032.27H1224.95M1224.95 1032.27V930.375M1224.95 930.375H1089.23V1081.93" stroke="#CBCCE4" stroke-width="0.85625"/>
<path d="M1224.52 982.607L1089.23 1081.08L1224.52 1032.27M1359.81 982.607L1224.52 929.52L1359.81 1032.27" stroke="#CBCCE4" stroke-width="0.85625"/>
</g>
<g opacity="0.5">
<path opacity="0.4" d="M1497.38 880.713V1032.27L1632.66 1081.93V930.375L1497.38 880.713Z" fill="#CBCCE4"/>
<path opacity="0.1" d="M1498.23 880.713V1031.62L1361.23 1081.08V982.607L1498.23 880.713Z" fill="#CBCCE4"/>
<path opacity="0.5" d="M1496.52 1033.12V981.75L1361.23 1081.93L1496.52 1033.12Z" fill="#CBCCE4"/>
<path opacity="0.5" d="M1632.66 982.607V1032.27L1496.52 929.52L1632.66 982.607Z" fill="#CBCCE4"/>
<path d="M1632.66 930.375L1497.38 880.713L1361.23 982.607H1632.66M1632.66 930.375V982.607M1632.66 930.375H1496.95M1632.66 982.607V1032.27M1361.23 1032.27H1496.95M1632.66 1032.27V1081.93L1496.95 1032.27M1632.66 1032.27H1496.95M1496.95 1032.27V930.375M1496.95 930.375H1361.23V1081.93" stroke="#CBCCE4" stroke-width="0.85625"/>
<path d="M1496.52 982.607L1361.23 1081.08L1496.52 1032.27M1631.81 982.607L1496.52 929.52L1631.81 1032.27" stroke="#CBCCE4" stroke-width="0.85625"/>
</g>
<g opacity="0.5">
<path opacity="0.4" d="M1769.38 880.713V1032.27L1904.66 1081.93V930.375L1769.38 880.713Z" fill="#CBCCE4"/>
<path opacity="0.1" d="M1770.23 880.713V1031.62L1633.23 1081.08V982.607L1770.23 880.713Z" fill="#CBCCE4"/>
<path opacity="0.5" d="M1768.52 1033.12V981.75L1633.23 1081.93L1768.52 1033.12Z" fill="#CBCCE4"/>
<path opacity="0.5" d="M1904.66 982.607V1032.27L1768.52 929.52L1904.66 982.607Z" fill="#CBCCE4"/>
<path d="M1904.66 930.375L1769.38 880.713L1633.23 982.607H1904.66M1904.66 930.375V982.607M1904.66 930.375H1768.95M1904.66 982.607V1032.27M1633.23 1032.27H1768.95M1904.66 1032.27V1081.93L1768.95 1032.27M1904.66 1032.27H1768.95M1768.95 1032.27V930.375M1768.95 930.375H1633.23V1081.93" stroke="#CBCCE4" stroke-width="0.85625"/>
<path d="M1768.52 982.607L1633.23 1081.08L1768.52 1032.27M1903.81 982.607L1768.52 929.52L1903.81 1032.27" stroke="#CBCCE4" stroke-width="0.85625"/>
</g>
<g opacity="0.5">
<path opacity="0.4" d="M2041.38 880.713V1032.27L2176.66 1081.93V930.375L2041.38 880.713Z" fill="#CBCCE4"/>
<path opacity="0.1" d="M2042.23 880.713V1031.62L1905.23 1081.08V982.607L2042.23 880.713Z" fill="#CBCCE4"/>
<path opacity="0.5" d="M2040.52 1033.12V981.75L1905.23 1081.93L2040.52 1033.12Z" fill="#CBCCE4"/>
<path opacity="0.5" d="M2176.66 982.607V1032.27L2040.52 929.52L2176.66 982.607Z" fill="#CBCCE4"/>
<path d="M2176.66 930.375L2041.38 880.713L1905.23 982.607H2176.66M2176.66 930.375V982.607M2176.66 930.375H2040.95M2176.66 982.607V1032.27M1905.23 1032.27H2040.95M2176.66 1032.27V1081.93L2040.95 1032.27M2176.66 1032.27H2040.95M2040.95 1032.27V930.375M2040.95 930.375H1905.23V1081.93" stroke="#CBCCE4" stroke-width="0.85625"/>
<path d="M2040.52 982.607L1905.23 1081.08L2040.52 1032.27M2175.81 982.607L2040.52 929.52L2175.81 1032.27" stroke="#CBCCE4" stroke-width="0.85625"/>
</g>
</g>
<g opacity="0.5">
<g opacity="0.5">
<path opacity="0.4" d="M681.376 1033.71V1185.27L816.663 1234.93V1083.38L681.376 1033.71Z" fill="#CBCCE4"/>
<path opacity="0.1" d="M682.232 1033.71V1184.62L545.232 1234.08V1135.61L682.232 1033.71Z" fill="#CBCCE4"/>
<path opacity="0.5" d="M680.519 1186.12V1134.75L545.232 1234.93L680.519 1186.12Z" fill="#CBCCE4"/>
<path opacity="0.5" d="M816.663 1135.61V1185.27L680.52 1082.52L816.663 1135.61Z" fill="#CBCCE4"/>
<path d="M816.663 1083.38L681.376 1033.71L545.232 1135.61H816.663M816.663 1083.38V1135.61M816.663 1083.38H680.948M816.663 1135.61V1185.27M545.232 1185.27H680.948M816.663 1185.27V1234.93L680.948 1185.27M816.663 1185.27H680.948M680.948 1185.27V1083.38M680.948 1083.38H545.232V1234.93" stroke="#CBCCE4" stroke-width="0.85625"/>
<path d="M680.519 1135.61L545.232 1234.08L680.519 1185.27M815.807 1135.61L680.519 1082.52L815.807 1185.27" stroke="#CBCCE4" stroke-width="0.85625"/>
</g>
<g opacity="0.5">
<path opacity="0.4" d="M953.376 1033.71V1185.27L1088.66 1234.93V1083.38L953.376 1033.71Z" fill="#CBCCE4"/>
<path opacity="0.1" d="M954.232 1033.71V1184.62L817.232 1234.08V1135.61L954.232 1033.71Z" fill="#CBCCE4"/>
<path opacity="0.5" d="M952.519 1186.12V1134.75L817.232 1234.93L952.519 1186.12Z" fill="#CBCCE4"/>
<path opacity="0.5" d="M1088.66 1135.61V1185.27L952.52 1082.52L1088.66 1135.61Z" fill="#CBCCE4"/>
<path d="M1088.66 1083.38L953.376 1033.71L817.232 1135.61H1088.66M1088.66 1083.38V1135.61M1088.66 1083.38H952.948M1088.66 1135.61V1185.27M817.232 1185.27H952.948M1088.66 1185.27V1234.93L952.948 1185.27M1088.66 1185.27H952.948M952.948 1185.27V1083.38M952.948 1083.38H817.232V1234.93" stroke="#CBCCE4" stroke-width="0.85625"/>
<path d="M952.519 1135.61L817.232 1234.08L952.519 1185.27M1087.81 1135.61L952.519 1082.52L1087.81 1185.27" stroke="#CBCCE4" stroke-width="0.85625"/>
</g>
<g opacity="0.5">
<path opacity="0.4" d="M1225.38 1033.71V1185.27L1360.66 1234.93V1083.38L1225.38 1033.71Z" fill="#CBCCE4"/>
<path opacity="0.1" d="M1226.23 1033.71V1184.62L1089.23 1234.08V1135.61L1226.23 1033.71Z" fill="#CBCCE4"/>
<path opacity="0.5" d="M1224.52 1186.12V1134.75L1089.23 1234.93L1224.52 1186.12Z" fill="#CBCCE4"/>
<path opacity="0.5" d="M1360.66 1135.61V1185.27L1224.52 1082.52L1360.66 1135.61Z" fill="#CBCCE4"/>
<path d="M1360.66 1083.38L1225.38 1033.71L1089.23 1135.61H1360.66M1360.66 1083.38V1135.61M1360.66 1083.38H1224.95M1360.66 1135.61V1185.27M1089.23 1185.27H1224.95M1360.66 1185.27V1234.93L1224.95 1185.27M1360.66 1185.27H1224.95M1224.95 1185.27V1083.38M1224.95 1083.38H1089.23V1234.93" stroke="#CBCCE4" stroke-width="0.85625"/>
<path d="M1224.52 1135.61L1089.23 1234.08L1224.52 1185.27M1359.81 1135.61L1224.52 1082.52L1359.81 1185.27" stroke="#CBCCE4" stroke-width="0.85625"/>
</g>
<g opacity="0.5">
<path opacity="0.4" d="M1497.38 1033.71V1185.27L1632.66 1234.93V1083.38L1497.38 1033.71Z" fill="#CBCCE4"/>
<path opacity="0.1" d="M1498.23 1033.71V1184.62L1361.23 1234.08V1135.61L1498.23 1033.71Z" fill="#CBCCE4"/>
<path opacity="0.5" d="M1496.52 1186.12V1134.75L1361.23 1234.93L1496.52 1186.12Z" fill="#CBCCE4"/>
<path opacity="0.5" d="M1632.66 1135.61V1185.27L1496.52 1082.52L1632.66 1135.61Z" fill="#CBCCE4"/>
<path d="M1632.66 1083.38L1497.38 1033.71L1361.23 1135.61H1632.66M1632.66 1083.38V1135.61M1632.66 1083.38H1496.95M1632.66 1135.61V1185.27M1361.23 1185.27H1496.95M1632.66 1185.27V1234.93L1496.95 1185.27M1632.66 1185.27H1496.95M1496.95 1185.27V1083.38M1496.95 1083.38H1361.23V1234.93" stroke="#CBCCE4" stroke-width="0.85625"/>
<path d="M1496.52 1135.61L1361.23 1234.08L1496.52 1185.27M1631.81 1135.61L1496.52 1082.52L1631.81 1185.27" stroke="#CBCCE4" stroke-width="0.85625"/>
</g>
<g opacity="0.5">
<path opacity="0.4" d="M1769.38 1033.71V1185.27L1904.66 1234.93V1083.38L1769.38 1033.71Z" fill="#CBCCE4"/>
<path opacity="0.1" d="M1770.23 1033.71V1184.62L1633.23 1234.08V1135.61L1770.23 1033.71Z" fill="#CBCCE4"/>
<path opacity="0.5" d="M1768.52 1186.12V1134.75L1633.23 1234.93L1768.52 1186.12Z" fill="#CBCCE4"/>
<path opacity="0.5" d="M1904.66 1135.61V1185.27L1768.52 1082.52L1904.66 1135.61Z" fill="#CBCCE4"/>
<path d="M1904.66 1083.38L1769.38 1033.71L1633.23 1135.61H1904.66M1904.66 1083.38V1135.61M1904.66 1083.38H1768.95M1904.66 1135.61V1185.27M1633.23 1185.27H1768.95M1904.66 1185.27V1234.93L1768.95 1185.27M1904.66 1185.27H1768.95M1768.95 1185.27V1083.38M1768.95 1083.38H1633.23V1234.93" stroke="#CBCCE4" stroke-width="0.85625"/>
<path d="M1768.52 1135.61L1633.23 1234.08L1768.52 1185.27M1903.81 1135.61L1768.52 1082.52L1903.81 1185.27" stroke="#CBCCE4" stroke-width="0.85625"/>
</g>
<g opacity="0.5">
<path opacity="0.4" d="M2041.38 1033.71V1185.27L2176.66 1234.93V1083.38L2041.38 1033.71Z" fill="#CBCCE4"/>
<path opacity="0.1" d="M2042.23 1033.71V1184.62L1905.23 1234.08V1135.61L2042.23 1033.71Z" fill="#CBCCE4"/>
<path opacity="0.5" d="M2040.52 1186.12V1134.75L1905.23 1234.93L2040.52 1186.12Z" fill="#CBCCE4"/>
<path opacity="0.5" d="M2176.66 1135.61V1185.27L2040.52 1082.52L2176.66 1135.61Z" fill="#CBCCE4"/>
<path d="M2176.66 1083.38L2041.38 1033.71L1905.23 1135.61H2176.66M2176.66 1083.38V1135.61M2176.66 1083.38H2040.95M2176.66 1135.61V1185.27M1905.23 1185.27H2040.95M2176.66 1185.27V1234.93L2040.95 1185.27M2176.66 1185.27H2040.95M2040.95 1185.27V1083.38M2040.95 1083.38H1905.23V1234.93" stroke="#CBCCE4" stroke-width="0.85625"/>
<path d="M2040.52 1135.61L1905.23 1234.08L2040.52 1185.27M2175.81 1135.61L2040.52 1082.52L2175.81 1185.27" stroke="#CBCCE4" stroke-width="0.85625"/>
</g>
</g>
<g opacity="0.5">
<g opacity="0.5">
<path opacity="0.4" d="M137.856 1185.71V1337.27L273.144 1386.93V1235.38L137.856 1185.71Z" fill="#CBCCE4"/>
<path opacity="0.1" d="M138.712 1185.71V1336.62L1.7124 1386.08V1287.61L138.712 1185.71Z" fill="#CBCCE4"/>
<path opacity="0.5" d="M137 1338.12V1286.75L1.7124 1386.93L137 1338.12Z" fill="#CBCCE4"/>
<path opacity="0.5" d="M273.144 1287.61V1337.27L137 1234.52L273.144 1287.61Z" fill="#CBCCE4"/>
<path d="M273.144 1235.38L137.856 1185.71L1.7124 1287.61H273.144M273.144 1235.38V1287.61M273.144 1235.38H137.428M273.144 1287.61V1337.27M1.7124 1337.27H137.428M273.144 1337.27V1386.93L137.428 1337.27M273.144 1337.27H137.428M137.428 1337.27V1235.38M137.428 1235.38H1.7124L1.7124 1386.93" stroke="#CBCCE4" stroke-width="0.85625"/>
<path d="M137 1287.61L1.7124 1386.08L137 1337.27M272.287 1287.61L137 1234.52L272.287 1337.27" stroke="#CBCCE4" stroke-width="0.85625"/>
</g>
<g opacity="0.5">
<path opacity="0.4" d="M409.856 1185.71V1337.27L545.144 1386.93V1235.38L409.856 1185.71Z" fill="#CBCCE4"/>
<path opacity="0.1" d="M410.712 1185.71V1336.62L273.712 1386.08V1287.61L410.712 1185.71Z" fill="#CBCCE4"/>
<path opacity="0.5" d="M409 1338.12V1286.75L273.712 1386.93L409 1338.12Z" fill="#CBCCE4"/>
<path opacity="0.5" d="M545.144 1287.61V1337.27L409 1234.52L545.144 1287.61Z" fill="#CBCCE4"/>
<path d="M545.144 1235.38L409.856 1185.71L273.712 1287.61H545.144M545.144 1235.38V1287.61M545.144 1235.38H409.428M545.144 1287.61V1337.27M273.712 1337.27H409.428M545.144 1337.27V1386.93L409.428 1337.27M545.144 1337.27H409.428M409.428 1337.27V1235.38M409.428 1235.38H273.712V1386.93" stroke="#CBCCE4" stroke-width="0.85625"/>
<path d="M409 1287.61L273.712 1386.08L409 1337.27M544.287 1287.61L409 1234.52L544.287 1337.27" stroke="#CBCCE4" stroke-width="0.85625"/>
</g>
<g opacity="0.5">
<path opacity="0.4" d="M681.856 1185.71V1337.27L817.144 1386.93V1235.38L681.856 1185.71Z" fill="#CBCCE4"/>
<path opacity="0.1" d="M682.712 1185.71V1336.62L545.712 1386.08V1287.61L682.712 1185.71Z" fill="#CBCCE4"/>
<path opacity="0.5" d="M681 1338.12V1286.75L545.712 1386.93L681 1338.12Z" fill="#CBCCE4"/>
<path opacity="0.5" d="M817.144 1287.61V1337.27L681 1234.52L817.144 1287.61Z" fill="#CBCCE4"/>
<path d="M817.144 1235.38L681.856 1185.71L545.712 1287.61H817.144M817.144 1235.38V1287.61M817.144 1235.38H681.428M817.144 1287.61V1337.27M545.712 1337.27H681.428M817.144 1337.27V1386.93L681.428 1337.27M817.144 1337.27H681.428M681.428 1337.27V1235.38M681.428 1235.38H545.712V1386.93" stroke="#CBCCE4" stroke-width="0.85625"/>
<path d="M681 1287.61L545.712 1386.08L681 1337.27M816.287 1287.61L681 1234.52L816.287 1337.27" stroke="#CBCCE4" stroke-width="0.85625"/>
</g>
<g opacity="0.5">
<path opacity="0.4" d="M953.856 1185.71V1337.27L1089.14 1386.93V1235.38L953.856 1185.71Z" fill="#CBCCE4"/>
<path opacity="0.1" d="M954.712 1185.71V1336.62L817.712 1386.08V1287.61L954.712 1185.71Z" fill="#CBCCE4"/>
<path opacity="0.5" d="M953 1338.12V1286.75L817.712 1386.93L953 1338.12Z" fill="#CBCCE4"/>
<path opacity="0.5" d="M1089.14 1287.61V1337.27L953 1234.52L1089.14 1287.61Z" fill="#CBCCE4"/>
<path d="M1089.14 1235.38L953.856 1185.71L817.712 1287.61H1089.14M1089.14 1235.38V1287.61M1089.14 1235.38H953.428M1089.14 1287.61V1337.27M817.712 1337.27H953.428M1089.14 1337.27V1386.93L953.428 1337.27M1089.14 1337.27H953.428M953.428 1337.27V1235.38M953.428 1235.38H817.712V1386.93" stroke="#CBCCE4" stroke-width="0.85625"/>
<path d="M953 1287.61L817.712 1386.08L953 1337.27M1088.29 1287.61L953 1234.52L1088.29 1337.27" stroke="#CBCCE4" stroke-width="0.85625"/>
</g>
<g opacity="0.5">
<path opacity="0.4" d="M1225.86 1185.71V1337.27L1361.14 1386.93V1235.38L1225.86 1185.71Z" fill="#CBCCE4"/>
<path opacity="0.1" d="M1226.71 1185.71V1336.62L1089.71 1386.08V1287.61L1226.71 1185.71Z" fill="#CBCCE4"/>
<path opacity="0.5" d="M1225 1338.12V1286.75L1089.71 1386.93L1225 1338.12Z" fill="#CBCCE4"/>
<path opacity="0.5" d="M1361.14 1287.61V1337.27L1225 1234.52L1361.14 1287.61Z" fill="#CBCCE4"/>
<path d="M1361.14 1235.38L1225.86 1185.71L1089.71 1287.61H1361.14M1361.14 1235.38V1287.61M1361.14 1235.38H1225.43M1361.14 1287.61V1337.27M1089.71 1337.27H1225.43M1361.14 1337.27V1386.93L1225.43 1337.27M1361.14 1337.27H1225.43M1225.43 1337.27V1235.38M1225.43 1235.38H1089.71V1386.93" stroke="#CBCCE4" stroke-width="0.85625"/>
<path d="M1225 1287.61L1089.71 1386.08L1225 1337.27M1360.29 1287.61L1225 1234.52L1360.29 1337.27" stroke="#CBCCE4" stroke-width="0.85625"/>
</g>
<g opacity="0.5">
<path opacity="0.4" d="M1497.86 1185.71V1337.27L1633.14 1386.93V1235.38L1497.86 1185.71Z" fill="#CBCCE4"/>
<path opacity="0.1" d="M1498.71 1185.71V1336.62L1361.71 1386.08V1287.61L1498.71 1185.71Z" fill="#CBCCE4"/>
<path opacity="0.5" d="M1497 1338.12V1286.75L1361.71 1386.93L1497 1338.12Z" fill="#CBCCE4"/>
<path opacity="0.5" d="M1633.14 1287.61V1337.27L1497 1234.52L1633.14 1287.61Z" fill="#CBCCE4"/>
<path d="M1633.14 1235.38L1497.86 1185.71L1361.71 1287.61H1633.14M1633.14 1235.38V1287.61M1633.14 1235.38H1497.43M1633.14 1287.61V1337.27M1361.71 1337.27H1497.43M1633.14 1337.27V1386.93L1497.43 1337.27M1633.14 1337.27H1497.43M1497.43 1337.27V1235.38M1497.43 1235.38H1361.71V1386.93" stroke="#CBCCE4" stroke-width="0.85625"/>
<path d="M1497 1287.61L1361.71 1386.08L1497 1337.27M1632.29 1287.61L1497 1234.52L1632.29 1337.27" stroke="#CBCCE4" stroke-width="0.85625"/>
</g>
<g opacity="0.5">
<path opacity="0.4" d="M1769.86 1185.71V1337.27L1905.14 1386.93V1235.38L1769.86 1185.71Z" fill="#CBCCE4"/>
<path opacity="0.1" d="M1770.71 1185.71V1336.62L1633.71 1386.08V1287.61L1770.71 1185.71Z" fill="#CBCCE4"/>
<path opacity="0.5" d="M1769 1338.12V1286.75L1633.71 1386.93L1769 1338.12Z" fill="#CBCCE4"/>
<path opacity="0.5" d="M1905.14 1287.61V1337.27L1769 1234.52L1905.14 1287.61Z" fill="#CBCCE4"/>
<path d="M1905.14 1235.38L1769.86 1185.71L1633.71 1287.61H1905.14M1905.14 1235.38V1287.61M1905.14 1235.38H1769.43M1905.14 1287.61V1337.27M1633.71 1337.27H1769.43M1905.14 1337.27V1386.93L1769.43 1337.27M1905.14 1337.27H1769.43M1769.43 1337.27V1235.38M1769.43 1235.38H1633.71V1386.93" stroke="#CBCCE4" stroke-width="0.85625"/>
<path d="M1769 1287.61L1633.71 1386.08L1769 1337.27M1904.29 1287.61L1769 1234.52L1904.29 1337.27" stroke="#CBCCE4" stroke-width="0.85625"/>
</g>
<g opacity="0.5">
<path opacity="0.4" d="M2041.86 1185.71V1337.27L2177.14 1386.93V1235.38L2041.86 1185.71Z" fill="#CBCCE4"/>
<path opacity="0.1" d="M2042.71 1185.71V1336.62L1905.71 1386.08V1287.61L2042.71 1185.71Z" fill="#CBCCE4"/>
<path opacity="0.5" d="M2041 1338.12V1286.75L1905.71 1386.93L2041 1338.12Z" fill="#CBCCE4"/>
<path opacity="0.5" d="M2177.14 1287.61V1337.27L2041 1234.52L2177.14 1287.61Z" fill="#CBCCE4"/>
<path d="M2177.14 1235.38L2041.86 1185.71L1905.71 1287.61H2177.14M2177.14 1235.38V1287.61M2177.14 1235.38H2041.43M2177.14 1287.61V1337.27M1905.71 1337.27H2041.43M2177.14 1337.27V1386.93L2041.43 1337.27M2177.14 1337.27H2041.43M2041.43 1337.27V1235.38M2041.43 1235.38H1905.71V1386.93" stroke="#CBCCE4" stroke-width="0.85625"/>
<path d="M2041 1287.61L1905.71 1386.08L2041 1337.27M2176.29 1287.61L2041 1234.52L2176.29 1337.27" stroke="#CBCCE4" stroke-width="0.85625"/>
</g>
</g>
</svg>
