<svg width="1362" height="509" viewBox="0 0 1362 509" fill="none" xmlns="http://www.w3.org/2000/svg">
<g opacity="0.5">
<path opacity="0.4" d="M681.376 3.71289V155.269L816.663 204.932V53.3754L681.376 3.71289Z" fill="#9B9EDE"/>
<path opacity="0.1" d="M682.232 3.71289V154.624L545.232 204.075V105.607L682.232 3.71289Z" fill="#9B9EDE"/>
<path opacity="0.5" d="M680.52 156.125V104.75L545.232 204.931L680.52 156.125Z" fill="#7275B6" fill-opacity="0.9"/>
<path opacity="0.5" d="M816.663 105.606V155.269L680.52 52.5186L816.663 105.606Z" fill="#9B9EDE"/>
<path d="M816.663 53.3754L681.376 3.71289L545.232 105.607L816.663 105.607M816.663 53.3754V105.607M816.663 53.3754H680.948M816.663 105.607V155.269M545.232 155.269H680.948M816.663 155.269V204.932L680.948 155.269M816.663 155.269H680.948M680.948 155.269V53.3754M680.948 53.3754L545.232 53.3754V204.932" stroke="#9B9EDE" stroke-width="0.85625"/>
<path d="M680.52 105.606L545.232 204.075L680.52 155.269M815.807 105.606L680.52 52.5186L815.807 155.269" stroke="#9B9EDE" stroke-width="0.85625"/>
</g>
<g opacity="0.5">
<path opacity="0.4" d="M953.376 3.71289V155.269L1088.66 204.932V53.3754L953.376 3.71289Z" fill="#9B9EDE"/>
<path opacity="0.1" d="M954.232 3.71289V154.624L817.232 204.075V105.607L954.232 3.71289Z" fill="#9B9EDE"/>
<path opacity="0.5" d="M952.52 156.125V104.75L817.232 204.931L952.52 156.125Z" fill="#7275B6" fill-opacity="0.9"/>
<path opacity="0.5" d="M1088.66 105.606V155.269L952.52 52.5186L1088.66 105.606Z" fill="#9B9EDE"/>
<path d="M1088.66 53.3754L953.376 3.71289L817.232 105.607L1088.66 105.607M1088.66 53.3754V105.607M1088.66 53.3754H952.948M1088.66 105.607V155.269M817.232 155.269H952.948M1088.66 155.269V204.932L952.948 155.269M1088.66 155.269H952.948M952.948 155.269V53.3754M952.948 53.3754L817.232 53.3754V204.932" stroke="#9B9EDE" stroke-width="0.85625"/>
<path d="M952.52 105.606L817.232 204.075L952.52 155.269M1087.81 105.606L952.52 52.5186L1087.81 155.269" stroke="#9B9EDE" stroke-width="0.85625"/>
</g>
<path opacity="0.4" d="M1225.38 3.71289V155.269L1360.66 204.932V53.3754L1225.38 3.71289Z" fill="#9B9EDE"/>
<path opacity="0.1" d="M1226.23 3.71289V154.624L1089.23 204.075V105.607L1226.23 3.71289Z" fill="#9B9EDE"/>
<path opacity="0.5" d="M1224.52 156.125V104.75L1089.23 204.931L1224.52 156.125Z" fill="#7275B6" fill-opacity="0.9"/>
<path opacity="0.5" d="M1360.66 105.606V155.269L1224.52 52.5186L1360.66 105.606Z" fill="#9B9EDE"/>
<path d="M1360.66 53.3754L1225.38 3.71289L1089.23 105.607L1360.66 105.607M1360.66 53.3754V105.607M1360.66 53.3754H1224.95M1360.66 105.607V155.269M1089.23 155.269H1224.95M1360.66 155.269V204.932L1224.95 155.269M1360.66 155.269H1224.95M1224.95 155.269V53.3754M1224.95 53.3754L1089.23 53.3754V204.932" stroke="#9B9EDE" stroke-width="0.85625"/>
<path d="M1224.52 105.606L1089.23 204.075L1224.52 155.269M1359.81 105.606L1224.52 52.5186L1359.81 155.269" stroke="#9B9EDE" stroke-width="0.85625"/>
<g opacity="0.5">
<g opacity="0.5">
<path opacity="0.4" d="M409.376 154.713V306.269L544.663 355.932V204.375L409.376 154.713Z" fill="#9B9EDE"/>
<path opacity="0.1" d="M410.232 154.713V305.624L273.232 355.075V256.607L410.232 154.713Z" fill="#9B9EDE"/>
<path opacity="0.5" d="M408.52 307.125V255.75L273.232 355.931L408.52 307.125Z" fill="#7275B6"/>
<path opacity="0.5" d="M544.663 256.606V306.269L408.52 203.519L544.663 256.606Z" fill="#9B9EDE"/>
<path d="M544.663 204.375L409.376 154.713L273.232 256.607H544.663M544.663 204.375V256.607M544.663 204.375H408.948M544.663 256.607V306.269M273.232 306.269H408.948M544.663 306.269V355.932L408.948 306.269M544.663 306.269H408.948M408.948 306.269V204.375M408.948 204.375H273.232V355.932" stroke="#9B9EDE" stroke-width="0.85625"/>
<path d="M408.52 256.606L273.232 355.075L408.52 306.269M543.807 256.606L408.52 203.519L543.807 306.269" stroke="#9B9EDE" stroke-width="0.85625"/>
</g>
<path opacity="0.4" d="M681.376 154.713V306.269L816.663 355.932V204.375L681.376 154.713Z" fill="#9B9EDE"/>
<path opacity="0.1" d="M682.232 154.713V305.624L545.232 355.075V256.607L682.232 154.713Z" fill="#9B9EDE"/>
<path opacity="0.5" d="M680.52 307.125V255.75L545.232 355.931L680.52 307.125Z" fill="#7275B6"/>
<path opacity="0.5" d="M816.663 256.606V306.269L680.52 203.519L816.663 256.606Z" fill="#9B9EDE"/>
<path d="M816.663 204.375L681.376 154.713L545.232 256.607H816.663M816.663 204.375V256.607M816.663 204.375H680.948M816.663 256.607V306.269M545.232 306.269H680.948M816.663 306.269V355.932L680.948 306.269M816.663 306.269H680.948M680.948 306.269V204.375M680.948 204.375H545.232V355.932" stroke="#9B9EDE" stroke-width="0.85625"/>
<path d="M680.52 256.606L545.232 355.075L680.52 306.269M815.807 256.606L680.52 203.519L815.807 306.269" stroke="#9B9EDE" stroke-width="0.85625"/>
<path opacity="0.4" d="M953.376 154.713V306.269L1088.66 355.932V204.375L953.376 154.713Z" fill="#9B9EDE"/>
<path opacity="0.1" d="M954.232 154.713V305.624L817.232 355.075V256.607L954.232 154.713Z" fill="#9B9EDE"/>
<path opacity="0.5" d="M952.52 307.125V255.75L817.232 355.931L952.52 307.125Z" fill="#7275B6"/>
<path opacity="0.5" d="M1088.66 256.606V306.269L952.52 203.519L1088.66 256.606Z" fill="#9B9EDE"/>
<path d="M1088.66 204.375L953.376 154.713L817.232 256.607H1088.66M1088.66 204.375V256.607M1088.66 204.375H952.948M1088.66 256.607V306.269M817.232 306.269H952.948M1088.66 306.269V355.932L952.948 306.269M1088.66 306.269H952.948M952.948 306.269V204.375M952.948 204.375H817.232V355.932" stroke="#9B9EDE" stroke-width="0.85625"/>
<path d="M952.52 256.606L817.232 355.075L952.52 306.269M1087.81 256.606L952.52 203.519L1087.81 306.269" stroke="#9B9EDE" stroke-width="0.85625"/>
<path opacity="0.4" d="M1225.38 154.713V306.269L1360.66 355.932V204.375L1225.38 154.713Z" fill="#9B9EDE"/>
<path opacity="0.1" d="M1226.23 154.713V305.624L1089.23 355.075V256.607L1226.23 154.713Z" fill="#9B9EDE"/>
<path opacity="0.5" d="M1224.52 307.125V255.75L1089.23 355.931L1224.52 307.125Z" fill="#7275B6" fill-opacity="0.9"/>
<path opacity="0.5" d="M1360.66 256.606V306.269L1224.52 203.519L1360.66 256.606Z" fill="#9B9EDE"/>
<path d="M1360.66 204.375L1225.38 154.713L1089.23 256.607H1360.66M1360.66 204.375V256.607M1360.66 204.375H1224.95M1360.66 256.607V306.269M1089.23 306.269H1224.95M1360.66 306.269V355.932L1224.95 306.269M1360.66 306.269H1224.95M1224.95 306.269V204.375M1224.95 204.375H1089.23V355.932" stroke="#9B9EDE" stroke-width="0.85625"/>
<path d="M1224.52 256.606L1089.23 355.075L1224.52 306.269M1359.81 256.606L1224.52 203.519L1359.81 306.269" stroke="#9B9EDE" stroke-width="0.85625"/>
</g>
<g opacity="0.5">
<path opacity="0.4" d="M137.856 306.713V458.269L273.144 507.932V356.375L137.856 306.713Z" fill="#9B9EDE"/>
<path opacity="0.1" d="M138.713 306.713V457.624L1.71252 507.075V408.607L138.713 306.713Z" fill="#9B9EDE"/>
<path opacity="0.5" d="M137 459.125V407.75L1.71249 507.931L137 459.125Z" fill="#7275B6"/>
<path opacity="0.5" d="M273.144 408.606V458.269L137 355.519L273.144 408.606Z" fill="#9B9EDE"/>
<path d="M273.144 356.375L137.856 306.713L1.71249 408.607H273.144M273.144 356.375V408.607M273.144 356.375H137.428M273.144 408.607V458.269M1.71249 458.269H137.428M273.144 458.269V507.932L137.428 458.269M273.144 458.269H137.428M137.428 458.269V356.375M137.428 356.375H1.71249L1.71249 507.932" stroke="#9B9EDE" stroke-width="0.85625"/>
<path d="M137 408.606L1.71249 507.075L137 458.269M272.287 408.606L137 355.519L272.287 458.269" stroke="#9B9EDE" stroke-width="0.85625"/>
<path opacity="0.4" d="M409.856 306.713V458.269L545.144 507.932V356.375L409.856 306.713Z" fill="#9B9EDE"/>
<path opacity="0.1" d="M410.713 306.713V457.624L273.713 507.075V408.607L410.713 306.713Z" fill="#9B9EDE"/>
<path opacity="0.5" d="M409 459.125V407.75L273.713 507.931L409 459.125Z" fill="#7275B6"/>
<path opacity="0.5" d="M545.144 408.606V458.269L409 355.519L545.144 408.606Z" fill="#9B9EDE"/>
<path d="M545.144 356.375L409.856 306.713L273.713 408.607H545.144M545.144 356.375V408.607M545.144 356.375H409.428M545.144 408.607V458.269M273.713 458.269H409.428M545.144 458.269V507.932L409.428 458.269M545.144 458.269H409.428M409.428 458.269V356.375M409.428 356.375H273.713V507.932" stroke="#9B9EDE" stroke-width="0.85625"/>
<path d="M409 408.606L273.713 507.075L409 458.269M544.288 408.606L409 355.519L544.288 458.269" stroke="#9B9EDE" stroke-width="0.85625"/>
<path opacity="0.4" d="M681.856 306.713V458.269L817.144 507.932V356.375L681.856 306.713Z" fill="#9B9EDE"/>
<path opacity="0.1" d="M682.713 306.713V457.624L545.713 507.075V408.607L682.713 306.713Z" fill="#9B9EDE"/>
<path opacity="0.5" d="M681 459.125V407.75L545.713 507.931L681 459.125Z" fill="#7275B6"/>
<path opacity="0.5" d="M817.144 408.606V458.269L681 355.519L817.144 408.606Z" fill="#9B9EDE"/>
<path d="M817.144 356.375L681.856 306.713L545.713 408.607H817.144M817.144 356.375V408.607M817.144 356.375H681.428M817.144 408.607V458.269M545.713 458.269H681.428M817.144 458.269V507.932L681.428 458.269M817.144 458.269H681.428M681.428 458.269V356.375M681.428 356.375H545.713V507.932" stroke="#9B9EDE" stroke-width="0.85625"/>
<path d="M681 408.606L545.713 507.075L681 458.269M816.288 408.606L681 355.519L816.288 458.269" stroke="#9B9EDE" stroke-width="0.85625"/>
<path opacity="0.4" d="M953.856 306.713V458.269L1089.14 507.932V356.375L953.856 306.713Z" fill="#9B9EDE"/>
<path opacity="0.1" d="M954.713 306.713V457.624L817.713 507.075V408.607L954.713 306.713Z" fill="#9B9EDE"/>
<path opacity="0.5" d="M953 459.125V407.75L817.713 507.931L953 459.125Z" fill="#7275B6"/>
<path opacity="0.5" d="M1089.14 408.606V458.269L953 355.519L1089.14 408.606Z" fill="#9B9EDE"/>
<path d="M1089.14 356.375L953.856 306.713L817.713 408.607H1089.14M1089.14 356.375V408.607M1089.14 356.375H953.428M1089.14 408.607V458.269M817.713 458.269H953.428M1089.14 458.269V507.932L953.428 458.269M1089.14 458.269H953.428M953.428 458.269V356.375M953.428 356.375H817.713V507.932" stroke="#9B9EDE" stroke-width="0.85625"/>
<path d="M953 408.606L817.713 507.075L953 458.269M1088.29 408.606L953 355.519L1088.29 458.269" stroke="#9B9EDE" stroke-width="0.85625"/>
<path opacity="0.4" d="M1225.86 306.713V458.269L1361.14 507.932V356.375L1225.86 306.713Z" fill="#9B9EDE"/>
<path opacity="0.1" d="M1226.71 306.713V457.624L1089.71 507.075V408.607L1226.71 306.713Z" fill="#9B9EDE"/>
<path opacity="0.5" d="M1225 459.125V407.75L1089.71 507.931L1225 459.125Z" fill="#7275B6"/>
<path opacity="0.5" d="M1361.14 408.606V458.269L1225 355.519L1361.14 408.606Z" fill="#9B9EDE"/>
<path d="M1361.14 356.375L1225.86 306.713L1089.71 408.607H1361.14M1361.14 356.375V408.607M1361.14 356.375H1225.43M1361.14 408.607V458.269M1089.71 458.269H1225.43M1361.14 458.269V507.932L1225.43 458.269M1361.14 458.269H1225.43M1225.43 458.269V356.375M1225.43 356.375H1089.71V507.932" stroke="#9B9EDE" stroke-width="0.85625"/>
<path d="M1225 408.606L1089.71 507.075L1225 458.269M1360.29 408.606L1225 355.519L1360.29 458.269" stroke="#9B9EDE" stroke-width="0.85625"/>
</g>
</svg>
