<svg width="525" height="540" viewBox="0 0 525 540" fill="none" xmlns="http://www.w3.org/2000/svg">
    <g opacity="0.2">
        <path d="M266.507 14V218.523" stroke="#7275B6" stroke-width="1.19305" stroke-dasharray="3.58 3.58"/>
        <path d="M353.919 64.1087H183.313L268.616 9.22852" stroke="#7275B6" stroke-width="1.19305" stroke-dasharray="3.58 3.58"/>
        <path d="M173.769 164.324H350.34L263.172 216.818" stroke="#7275B6" stroke-width="1.19305" stroke-dasharray="3.58 3.58"/>
        <rect x="265.35" y="10.4188" width="106.181" height="178.645" transform="rotate(30.6412 265.35 10.4188)" stroke="#7275B6" stroke-width="1.19305" stroke-dasharray="3.58 3.58"/>
        <path d="M266.507 65.3008V269.823" stroke="#7275B6" stroke-width="1.19305"/>
        <path opacity="0.2" d="M181.523 118.392H234.018L248.334 90.9518L263.247 63.5117L181.523 118.392Z" fill="url(#paint0_linear_3367_79416)"/>
        <path opacity="0.4" d="M297.249 219.205L268.616 267.524L302.618 246.645L348.55 219.205H297.249Z" fill="url(#paint1_linear_3367_79416)"/>
        <path d="M357.498 118.081H182.12L266.827 62.3184" stroke="#7275B6" stroke-width="1.19305"/>
        <path d="M176.974 219.242H348.883L266.373 267.624" stroke="#7275B6" stroke-width="1.19305"/>
        <path opacity="0.2" d="M265.141 60.9023L358.655 116.298L266.999 271.026L174.365 219.204L265.141 60.9023Z" fill="url(#paint2_linear_3367_79416)"/>
        <path d="M266.784 270.221L175.184 218.978L265.359 61.7239L357.84 116.507L266.784 270.221Z" stroke="#E3E3F9" stroke-width="1.19305"/>
        <path d="M439.048 14V218.523" stroke="#7275B6" stroke-width="1.19305" stroke-dasharray="3.58 3.58"/>
        <path d="M526.46 64.1087H355.854L441.157 9.22852" stroke="#7275B6" stroke-width="1.19305" stroke-dasharray="3.58 3.58"/>
        <path d="M346.31 164.324H522.881L435.713 216.818" stroke="#7275B6" stroke-width="1.19305" stroke-dasharray="3.58 3.58"/>
        <rect x="437.891" y="10.4188" width="106.181" height="178.645" transform="rotate(30.6412 437.891 10.4188)" stroke="#7275B6" stroke-width="1.19305" stroke-dasharray="3.58 3.58"/>
        <path d="M439.048 65.3008V269.823" stroke="#7275B6" stroke-width="1.19305"/>
        <path opacity="0.2" d="M354.064 118.392H406.559L420.875 90.9518L435.788 63.5117L354.064 118.392Z" fill="url(#paint3_linear_3367_79416)"/>
        <path opacity="0.4" d="M469.79 219.205L441.157 267.524L475.159 246.645L521.091 219.205H469.79Z" fill="url(#paint4_linear_3367_79416)"/>
        <path d="M530.039 118.081H354.661L439.368 62.3184" stroke="#7275B6" stroke-width="1.19305"/>
        <path d="M349.515 219.242H521.424L438.914 267.624" stroke="#7275B6" stroke-width="1.19305"/>
        <path opacity="0.2" d="M437.682 60.9023L531.196 116.298L439.54 271.026L346.906 219.204L437.682 60.9023Z" fill="url(#paint5_linear_3367_79416)"/>
        <path d="M439.325 270.221L347.725 218.978L437.9 61.7239L530.381 116.507L439.325 270.221Z" stroke="#E3E3F9" stroke-width="1.19305"/>
        <path d="M93.9663 269.824V474.347" stroke="#7275B6" stroke-width="1.19305" stroke-dasharray="3.58 3.58"/>
        <path d="M181.378 319.933H10.772L96.0749 265.053" stroke="#7275B6" stroke-width="1.19305" stroke-dasharray="3.58 3.58"/>
        <path d="M1.22803 420.148H177.799L90.6311 472.643" stroke="#7275B6" stroke-width="1.19305" stroke-dasharray="3.58 3.58"/>
        <rect x="92.8088" y="266.243" width="106.181" height="178.645" transform="rotate(30.6412 92.8088 266.243)" stroke="#7275B6" stroke-width="1.19305" stroke-dasharray="3.58 3.58"/>
        <path d="M93.9663 321.125V525.648" stroke="#7275B6" stroke-width="1.19305"/>
        <path opacity="0.2" d="M8.98242 374.216H61.4766L75.7931 346.776L90.7062 319.336L8.98242 374.216Z" fill="url(#paint6_linear_3367_79416)"/>
        <path opacity="0.4" d="M124.708 475.029L96.0752 523.348L130.077 502.469L176.009 475.029H124.708Z" fill="url(#paint7_linear_3367_79416)"/>
        <path d="M184.957 373.905H9.5791L94.2855 318.143" stroke="#7275B6" stroke-width="1.19305"/>
        <path d="M4.43311 475.068H176.342L93.8315 523.45" stroke="#7275B6" stroke-width="1.19305"/>
        <path opacity="0.2" d="M92.5996 316.727L186.114 372.122L94.4583 526.85L1.82366 475.028L92.5996 316.727Z" fill="url(#paint8_linear_3367_79416)"/>
        <path d="M94.2416 526.045L2.64104 474.802L92.8161 317.548L185.297 372.331L94.2416 526.045Z" stroke="#E3E3F9" stroke-width="1.19305"/>
        <path d="M266.507 269.824V474.347" stroke="#7275B6" stroke-width="1.19305" stroke-dasharray="3.58 3.58"/>
        <path d="M353.919 319.933H183.313L268.616 265.053" stroke="#7275B6" stroke-width="1.19305" stroke-dasharray="3.58 3.58"/>
        <path d="M173.769 420.148H350.34L263.172 472.643" stroke="#7275B6" stroke-width="1.19305" stroke-dasharray="3.58 3.58"/>
        <rect x="265.35" y="266.243" width="106.181" height="178.645" transform="rotate(30.6412 265.35 266.243)" stroke="#7275B6" stroke-width="1.19305" stroke-dasharray="3.58 3.58"/>
        <path d="M266.507 321.125V525.648" stroke="#7275B6" stroke-width="1.19305"/>
        <path opacity="0.2" d="M181.523 374.216H234.018L248.334 346.776L263.247 319.336L181.523 374.216Z" fill="url(#paint9_linear_3367_79416)"/>
        <path opacity="0.4" d="M297.249 475.029L268.616 523.348L302.618 502.469L348.55 475.029H297.249Z" fill="url(#paint10_linear_3367_79416)"/>
        <path d="M357.498 373.905H182.12L266.827 318.143" stroke="#7275B6" stroke-width="1.19305"/>
        <path d="M176.974 475.068H348.883L266.373 523.45" stroke="#7275B6" stroke-width="1.19305"/>
        <path opacity="0.2" d="M265.141 316.727L358.655 372.122L266.999 526.85L174.365 475.028L265.141 316.727Z" fill="url(#paint11_linear_3367_79416)"/>
        <path d="M266.784 526.045L175.184 474.802L265.359 317.548L357.84 372.331L266.784 526.045Z" stroke="#E3E3F9" stroke-width="1.19305"/>
        <path d="M439.049 269.824V474.347" stroke="#7275B6" stroke-width="1.19305" stroke-dasharray="3.58 3.58"/>
        <path d="M526.46 319.933H355.854L441.157 265.053" stroke="#7275B6" stroke-width="1.19305" stroke-dasharray="3.58 3.58"/>
        <path d="M346.311 420.148H522.882L435.714 472.643" stroke="#7275B6" stroke-width="1.19305" stroke-dasharray="3.58 3.58"/>
        <rect x="437.891" y="266.243" width="106.181" height="178.645" transform="rotate(30.6412 437.891 266.243)" stroke="#7275B6" stroke-width="1.19305" stroke-dasharray="3.58 3.58"/>
        <path d="M439.049 321.125V525.648" stroke="#7275B6" stroke-width="1.19305"/>
        <path opacity="0.2" d="M354.065 374.216H406.559L420.876 346.776L435.789 319.336L354.065 374.216Z" fill="url(#paint12_linear_3367_79416)"/>
        <path opacity="0.4" d="M469.791 475.029L441.158 523.348L475.16 502.469L521.092 475.029H469.791Z" fill="url(#paint13_linear_3367_79416)"/>
        <path d="M530.04 373.905H354.662L439.368 318.143" stroke="#7275B6" stroke-width="1.19305"/>
        <path d="M349.516 475.068H521.425L438.914 523.45" stroke="#7275B6" stroke-width="1.19305"/>
        <path opacity="0.2" d="M437.682 316.727L531.197 372.122L439.541 526.85L346.906 475.028L437.682 316.727Z" fill="url(#paint14_linear_3367_79416)"/>
        <path d="M439.324 526.045L347.724 474.802L437.899 317.548L530.38 372.331L439.324 526.045Z" stroke="#E3E3F9" stroke-width="1.19305"/>
    </g>
    <defs>
        <linearGradient id="paint0_linear_3367_79416" x1="187.489" y1="117.795" x2="246.545" y2="93.9345" gradientUnits="userSpaceOnUse">
            <stop stop-color="#7275B6"/>
            <stop offset="1" stop-color="#323350"/>
        </linearGradient>
        <linearGradient id="paint1_linear_3367_79416" x1="287.705" y1="238.294" x2="339.603" y2="220.995" gradientUnits="userSpaceOnUse">
            <stop stop-color="#323350"/>
            <stop offset="1" stop-color="#7275B6"/>
        </linearGradient>
        <linearGradient id="paint2_linear_3367_79416" x1="269.212" y1="73.652" x2="262.65" y2="265.136" gradientUnits="userSpaceOnUse">
            <stop stop-color="#B19ABA"/>
            <stop offset="1" stop-color="#775088"/>
        </linearGradient>
        <linearGradient id="paint3_linear_3367_79416" x1="360.03" y1="117.795" x2="419.086" y2="93.9345" gradientUnits="userSpaceOnUse">
            <stop stop-color="#7275B6"/>
            <stop offset="1" stop-color="#323350"/>
        </linearGradient>
        <linearGradient id="paint4_linear_3367_79416" x1="460.246" y1="238.294" x2="512.144" y2="220.995" gradientUnits="userSpaceOnUse">
            <stop stop-color="#323350"/>
            <stop offset="1" stop-color="#7275B6"/>
        </linearGradient>
        <linearGradient id="paint5_linear_3367_79416" x1="441.753" y1="73.652" x2="435.191" y2="265.136" gradientUnits="userSpaceOnUse">
            <stop stop-color="#B19ABA"/>
            <stop offset="1" stop-color="#775088"/>
        </linearGradient>
        <linearGradient id="paint6_linear_3367_79416" x1="14.9477" y1="373.62" x2="74.0036" y2="349.759" gradientUnits="userSpaceOnUse">
            <stop stop-color="#7275B6"/>
            <stop offset="1" stop-color="#323350"/>
        </linearGradient>
        <linearGradient id="paint7_linear_3367_79416" x1="115.164" y1="494.118" x2="167.062" y2="476.819" gradientUnits="userSpaceOnUse">
            <stop stop-color="#323350"/>
            <stop offset="1" stop-color="#7275B6"/>
        </linearGradient>
        <linearGradient id="paint8_linear_3367_79416" x1="96.671" y1="329.476" x2="90.1092" y2="520.961" gradientUnits="userSpaceOnUse">
            <stop stop-color="#B19ABA"/>
            <stop offset="1" stop-color="#775088"/>
        </linearGradient>
        <linearGradient id="paint9_linear_3367_79416" x1="187.489" y1="373.62" x2="246.545" y2="349.759" gradientUnits="userSpaceOnUse">
            <stop stop-color="#7275B6"/>
            <stop offset="1" stop-color="#323350"/>
        </linearGradient>
        <linearGradient id="paint10_linear_3367_79416" x1="287.705" y1="494.118" x2="339.603" y2="476.819" gradientUnits="userSpaceOnUse">
            <stop stop-color="#323350"/>
            <stop offset="1" stop-color="#7275B6"/>
        </linearGradient>
        <linearGradient id="paint11_linear_3367_79416" x1="269.212" y1="329.476" x2="262.65" y2="520.961" gradientUnits="userSpaceOnUse">
            <stop stop-color="#B19ABA"/>
            <stop offset="1" stop-color="#775088"/>
        </linearGradient>
        <linearGradient id="paint12_linear_3367_79416" x1="360.03" y1="373.62" x2="419.086" y2="349.759" gradientUnits="userSpaceOnUse">
            <stop stop-color="#7275B6"/>
            <stop offset="1" stop-color="#323350"/>
        </linearGradient>
        <linearGradient id="paint13_linear_3367_79416" x1="460.246" y1="494.118" x2="512.144" y2="476.819" gradientUnits="userSpaceOnUse">
            <stop stop-color="#323350"/>
            <stop offset="1" stop-color="#7275B6"/>
        </linearGradient>
        <linearGradient id="paint14_linear_3367_79416" x1="441.754" y1="329.476" x2="435.192" y2="520.961" gradientUnits="userSpaceOnUse">
            <stop stop-color="#B19ABA"/>
            <stop offset="1" stop-color="#775088"/>
        </linearGradient>
    </defs>
</svg>
