<svg width="2178" height="790" viewBox="0 0 2178 790" fill="none" xmlns="http://www.w3.org/2000/svg">
<g opacity="0.5">
<g opacity="0.5">
<path opacity="0.4" d="M1497.38 1.7124V153.269L1632.66 202.931V51.3749L1497.38 1.7124Z" fill="#CBCCE4"/>
<path opacity="0.1" d="M1498.23 1.7124V152.624L1361.23 202.075V103.606L1498.23 1.7124Z" fill="#CBCCE4"/>
<path opacity="0.5" d="M1496.52 154.125V102.75L1361.23 202.931L1496.52 154.125Z" fill="#CBCCE4"/>
<path opacity="0.5" d="M1632.66 103.606V153.269L1496.52 50.5186L1632.66 103.606Z" fill="#CBCCE4"/>
<path d="M1632.66 51.3749L1497.38 1.7124L1361.23 103.606L1632.66 103.606M1632.66 51.3749V103.606M1632.66 51.3749H1496.95M1632.66 103.606V153.269M1361.23 153.269H1496.95M1632.66 153.269V202.931L1496.95 153.269M1632.66 153.269H1496.95M1496.95 153.269V51.3749M1496.95 51.3749L1361.23 51.3749V202.931" stroke="#CBCCE4" stroke-width="0.85625"/>
<path d="M1496.52 103.606L1361.23 202.075L1496.52 153.269M1631.81 103.606L1496.52 50.5186L1631.81 153.269" stroke="#CBCCE4" stroke-width="0.85625"/>
</g>
<g opacity="0.5">
<path opacity="0.4" d="M1769.38 1.7124V153.269L1904.66 202.931V51.3749L1769.38 1.7124Z" fill="#CBCCE4"/>
<path opacity="0.1" d="M1770.23 1.7124V152.624L1633.23 202.075V103.606L1770.23 1.7124Z" fill="#CBCCE4"/>
<path opacity="0.5" d="M1768.52 154.125V102.75L1633.23 202.931L1768.52 154.125Z" fill="#CBCCE4"/>
<path opacity="0.5" d="M1904.66 103.606V153.269L1768.52 50.5186L1904.66 103.606Z" fill="#CBCCE4"/>
<path d="M1904.66 51.3749L1769.38 1.7124L1633.23 103.606L1904.66 103.606M1904.66 51.3749V103.606M1904.66 51.3749H1768.95M1904.66 103.606V153.269M1633.23 153.269H1768.95M1904.66 153.269V202.931L1768.95 153.269M1904.66 153.269H1768.95M1768.95 153.269V51.3749M1768.95 51.3749L1633.23 51.3749V202.931" stroke="#CBCCE4" stroke-width="0.85625"/>
<path d="M1768.52 103.606L1633.23 202.075L1768.52 153.269M1903.81 103.606L1768.52 50.5186L1903.81 153.269" stroke="#CBCCE4" stroke-width="0.85625"/>
</g>
<g opacity="0.5">
<path opacity="0.4" d="M2041.38 1.7124V153.269L2176.66 202.931V51.3749L2041.38 1.7124Z" fill="#CBCCE4"/>
<path opacity="0.1" d="M2042.23 1.7124V152.624L1905.23 202.075V103.606L2042.23 1.7124Z" fill="#CBCCE4"/>
<path opacity="0.5" d="M2040.52 154.125V102.75L1905.23 202.931L2040.52 154.125Z" fill="#CBCCE4"/>
<path opacity="0.5" d="M2176.66 103.606V153.269L2040.52 50.5186L2176.66 103.606Z" fill="#CBCCE4"/>
<path d="M2176.66 51.3749L2041.38 1.7124L1905.23 103.606L2176.66 103.606M2176.66 51.3749V103.606M2176.66 51.3749H2040.95M2176.66 103.606V153.269M1905.23 153.269H2040.95M2176.66 153.269V202.931L2040.95 153.269M2176.66 153.269H2040.95M2040.95 153.269V51.3749M2040.95 51.3749L1905.23 51.3749V202.931" stroke="#CBCCE4" stroke-width="0.85625"/>
<path d="M2040.52 103.606L1905.23 202.075L2040.52 153.269M2175.81 103.606L2040.52 50.5186L2175.81 153.269" stroke="#CBCCE4" stroke-width="0.85625"/>
</g>
</g>
<g opacity="0.5">
<g opacity="0.5">
<path opacity="0.4" d="M1225.38 148.312V299.869L1360.66 349.531V197.975L1225.38 148.312Z" fill="#CBCCE4"/>
<path opacity="0.1" d="M1226.23 148.312V299.224L1089.23 348.675V250.206L1226.23 148.312Z" fill="#CBCCE4"/>
<path opacity="0.5" d="M1224.52 300.725V249.35L1089.23 349.531L1224.52 300.725Z" fill="#CBCCE4"/>
<path opacity="0.5" d="M1360.66 250.206V299.869L1224.52 197.119L1360.66 250.206Z" fill="#CBCCE4"/>
<path d="M1360.66 197.975L1225.38 148.312L1089.23 250.206H1360.66M1360.66 197.975V250.206M1360.66 197.975H1224.95M1360.66 250.206V299.869M1089.23 299.869H1224.95M1360.66 299.869V349.531L1224.95 299.869M1360.66 299.869H1224.95M1224.95 299.869V197.975M1224.95 197.975H1089.23V349.531" stroke="#CBCCE4" stroke-width="0.85625"/>
<path d="M1224.52 250.206L1089.23 348.675L1224.52 299.869M1359.81 250.206L1224.52 197.119L1359.81 299.869" stroke="#CBCCE4" stroke-width="0.85625"/>
</g>
<g opacity="0.5">
<path opacity="0.4" d="M1497.38 148.312V299.869L1632.66 349.531V197.975L1497.38 148.312Z" fill="#CBCCE4"/>
<path opacity="0.1" d="M1498.23 148.312V299.224L1361.23 348.675V250.206L1498.23 148.312Z" fill="#CBCCE4"/>
<path opacity="0.5" d="M1496.52 300.725V249.35L1361.23 349.531L1496.52 300.725Z" fill="#CBCCE4"/>
<path opacity="0.5" d="M1632.66 250.206V299.869L1496.52 197.119L1632.66 250.206Z" fill="#CBCCE4"/>
<path d="M1632.66 197.975L1497.38 148.312L1361.23 250.206H1632.66M1632.66 197.975V250.206M1632.66 197.975H1496.95M1632.66 250.206V299.869M1361.23 299.869H1496.95M1632.66 299.869V349.531L1496.95 299.869M1632.66 299.869H1496.95M1496.95 299.869V197.975M1496.95 197.975H1361.23V349.531" stroke="#CBCCE4" stroke-width="0.85625"/>
<path d="M1496.52 250.206L1361.23 348.675L1496.52 299.869M1631.81 250.206L1496.52 197.119L1631.81 299.869" stroke="#CBCCE4" stroke-width="0.85625"/>
</g>
<g opacity="0.5">
<path opacity="0.4" d="M1769.38 148.312V299.869L1904.66 349.531V197.975L1769.38 148.312Z" fill="#CBCCE4"/>
<path opacity="0.1" d="M1770.23 148.312V299.224L1633.23 348.675V250.206L1770.23 148.312Z" fill="#CBCCE4"/>
<path opacity="0.5" d="M1768.52 300.725V249.35L1633.23 349.531L1768.52 300.725Z" fill="#CBCCE4"/>
<path opacity="0.5" d="M1904.66 250.206V299.869L1768.52 197.119L1904.66 250.206Z" fill="#CBCCE4"/>
<path d="M1904.66 197.975L1769.38 148.312L1633.23 250.206H1904.66M1904.66 197.975V250.206M1904.66 197.975H1768.95M1904.66 250.206V299.869M1633.23 299.869H1768.95M1904.66 299.869V349.531L1768.95 299.869M1904.66 299.869H1768.95M1768.95 299.869V197.975M1768.95 197.975H1633.23V349.531" stroke="#CBCCE4" stroke-width="0.85625"/>
<path d="M1768.52 250.206L1633.23 348.675L1768.52 299.869M1903.81 250.206L1768.52 197.119L1903.81 299.869" stroke="#CBCCE4" stroke-width="0.85625"/>
</g>
<g opacity="0.5">
<path opacity="0.4" d="M2041.38 148.312V299.869L2176.66 349.531V197.975L2041.38 148.312Z" fill="#CBCCE4"/>
<path opacity="0.1" d="M2042.23 148.312V299.224L1905.23 348.675V250.206L2042.23 148.312Z" fill="#CBCCE4"/>
<path opacity="0.5" d="M2040.52 300.725V249.35L1905.23 349.531L2040.52 300.725Z" fill="#CBCCE4"/>
<path opacity="0.5" d="M2176.66 250.206V299.869L2040.52 197.119L2176.66 250.206Z" fill="#CBCCE4"/>
<path d="M2176.66 197.975L2041.38 148.312L1905.23 250.206H2176.66M2176.66 197.975V250.206M2176.66 197.975H2040.95M2176.66 250.206V299.869M1905.23 299.869H2040.95M2176.66 299.869V349.531L2040.95 299.869M2176.66 299.869H2040.95M2040.95 299.869V197.975M2040.95 197.975H1905.23V349.531" stroke="#CBCCE4" stroke-width="0.85625"/>
<path d="M2040.52 250.206L1905.23 348.675L2040.52 299.869M2175.81 250.206L2040.52 197.119L2175.81 299.869" stroke="#CBCCE4" stroke-width="0.85625"/>
</g>
</g>
<g opacity="0.5">
<g opacity="0.5">
<path opacity="0.4" d="M953.376 294.913V446.469L1088.66 496.131V344.575L953.376 294.913Z" fill="#CBCCE4"/>
<path opacity="0.1" d="M954.232 294.913V445.824L817.232 495.275V396.806L954.232 294.913Z" fill="#CBCCE4"/>
<path opacity="0.5" d="M952.519 447.325V395.95L817.232 496.131L952.519 447.325Z" fill="#CBCCE4"/>
<path opacity="0.5" d="M1088.66 396.806V446.469L952.52 343.719L1088.66 396.806Z" fill="#CBCCE4"/>
<path d="M1088.66 344.575L953.376 294.913L817.232 396.806H1088.66M1088.66 344.575V396.806M1088.66 344.575H952.948M1088.66 396.806V446.469M817.232 446.469H952.948M1088.66 446.469V496.131L952.948 446.469M1088.66 446.469H952.948M952.948 446.469V344.575M952.948 344.575H817.232V496.131" stroke="#CBCCE4" stroke-width="0.85625"/>
<path d="M952.519 396.806L817.232 495.275L952.519 446.469M1087.81 396.806L952.519 343.719L1087.81 446.469" stroke="#CBCCE4" stroke-width="0.85625"/>
</g>
<g opacity="0.5">
<path opacity="0.4" d="M1225.38 294.913V446.469L1360.66 496.131V344.575L1225.38 294.913Z" fill="#CBCCE4"/>
<path opacity="0.1" d="M1226.23 294.913V445.824L1089.23 495.275V396.806L1226.23 294.913Z" fill="#CBCCE4"/>
<path opacity="0.5" d="M1224.52 447.325V395.95L1089.23 496.131L1224.52 447.325Z" fill="#CBCCE4"/>
<path opacity="0.5" d="M1360.66 396.806V446.469L1224.52 343.719L1360.66 396.806Z" fill="#CBCCE4"/>
<path d="M1360.66 344.575L1225.38 294.913L1089.23 396.806H1360.66M1360.66 344.575V396.806M1360.66 344.575H1224.95M1360.66 396.806V446.469M1089.23 446.469H1224.95M1360.66 446.469V496.131L1224.95 446.469M1360.66 446.469H1224.95M1224.95 446.469V344.575M1224.95 344.575H1089.23V496.131" stroke="#CBCCE4" stroke-width="0.85625"/>
<path d="M1224.52 396.806L1089.23 495.275L1224.52 446.469M1359.81 396.806L1224.52 343.719L1359.81 446.469" stroke="#CBCCE4" stroke-width="0.85625"/>
</g>
<g opacity="0.5">
<path opacity="0.4" d="M1497.38 294.913V446.469L1632.66 496.131V344.575L1497.38 294.913Z" fill="#CBCCE4"/>
<path opacity="0.1" d="M1498.23 294.913V445.824L1361.23 495.275V396.806L1498.23 294.913Z" fill="#CBCCE4"/>
<path opacity="0.5" d="M1496.52 447.325V395.95L1361.23 496.131L1496.52 447.325Z" fill="#CBCCE4"/>
<path opacity="0.5" d="M1632.66 396.806V446.469L1496.52 343.719L1632.66 396.806Z" fill="#CBCCE4"/>
<path d="M1632.66 344.575L1497.38 294.913L1361.23 396.806H1632.66M1632.66 344.575V396.806M1632.66 344.575H1496.95M1632.66 396.806V446.469M1361.23 446.469H1496.95M1632.66 446.469V496.131L1496.95 446.469M1632.66 446.469H1496.95M1496.95 446.469V344.575M1496.95 344.575H1361.23V496.131" stroke="#CBCCE4" stroke-width="0.85625"/>
<path d="M1496.52 396.806L1361.23 495.275L1496.52 446.469M1631.81 396.806L1496.52 343.719L1631.81 446.469" stroke="#CBCCE4" stroke-width="0.85625"/>
</g>
<g opacity="0.5">
<path opacity="0.4" d="M1769.38 294.913V446.469L1904.66 496.131V344.575L1769.38 294.913Z" fill="#CBCCE4"/>
<path opacity="0.1" d="M1770.23 294.913V445.824L1633.23 495.275V396.806L1770.23 294.913Z" fill="#CBCCE4"/>
<path opacity="0.5" d="M1768.52 447.325V395.95L1633.23 496.131L1768.52 447.325Z" fill="#CBCCE4"/>
<path opacity="0.5" d="M1904.66 396.806V446.469L1768.52 343.719L1904.66 396.806Z" fill="#CBCCE4"/>
<path d="M1904.66 344.575L1769.38 294.913L1633.23 396.806H1904.66M1904.66 344.575V396.806M1904.66 344.575H1768.95M1904.66 396.806V446.469M1633.23 446.469H1768.95M1904.66 446.469V496.131L1768.95 446.469M1904.66 446.469H1768.95M1768.95 446.469V344.575M1768.95 344.575H1633.23V496.131" stroke="#CBCCE4" stroke-width="0.85625"/>
<path d="M1768.52 396.806L1633.23 495.275L1768.52 446.469M1903.81 396.806L1768.52 343.719L1903.81 446.469" stroke="#CBCCE4" stroke-width="0.85625"/>
</g>
<g opacity="0.5">
<path opacity="0.4" d="M2041.38 294.913V446.469L2176.66 496.131V344.575L2041.38 294.913Z" fill="#CBCCE4"/>
<path opacity="0.1" d="M2042.23 294.913V445.824L1905.23 495.275V396.806L2042.23 294.913Z" fill="#CBCCE4"/>
<path opacity="0.5" d="M2040.52 447.325V395.95L1905.23 496.131L2040.52 447.325Z" fill="#CBCCE4"/>
<path opacity="0.5" d="M2176.66 396.806V446.469L2040.52 343.719L2176.66 396.806Z" fill="#CBCCE4"/>
<path d="M2176.66 344.575L2041.38 294.913L1905.23 396.806H2176.66M2176.66 344.575V396.806M2176.66 344.575H2040.95M2176.66 396.806V446.469M1905.23 446.469H2040.95M2176.66 446.469V496.131L2040.95 446.469M2176.66 446.469H2040.95M2040.95 446.469V344.575M2040.95 344.575H1905.23V496.131" stroke="#CBCCE4" stroke-width="0.85625"/>
<path d="M2040.52 396.806L1905.23 495.275L2040.52 446.469M2175.81 396.806L2040.52 343.719L2175.81 446.469" stroke="#CBCCE4" stroke-width="0.85625"/>
</g>
</g>
<g opacity="0.5">
<g opacity="0.5">
<path opacity="0.4" d="M681.376 441.512V593.068L816.663 642.731V491.175L681.376 441.512Z" fill="#CBCCE4"/>
<path opacity="0.1" d="M682.232 441.512V592.424L545.232 641.875V543.406L682.232 441.512Z" fill="#CBCCE4"/>
<path opacity="0.5" d="M680.519 593.925V542.55L545.232 642.731L680.519 593.925Z" fill="#CBCCE4"/>
<path opacity="0.5" d="M816.663 543.406V593.068L680.52 490.318L816.663 543.406Z" fill="#CBCCE4"/>
<path d="M816.663 491.175L681.376 441.512L545.232 543.406H816.663M816.663 491.175V543.406M816.663 491.175H680.948M816.663 543.406V593.068M545.232 593.068H680.948M816.663 593.068V642.731L680.948 593.068M816.663 593.068H680.948M680.948 593.068V491.175M680.948 491.175H545.232V642.731" stroke="#CBCCE4" stroke-width="0.85625"/>
<path d="M680.519 543.406L545.232 641.875L680.519 593.068M815.807 543.406L680.519 490.318L815.807 593.068" stroke="#CBCCE4" stroke-width="0.85625"/>
</g>
<g opacity="0.5">
<path opacity="0.4" d="M953.376 441.512V593.068L1088.66 642.731V491.175L953.376 441.512Z" fill="#CBCCE4"/>
<path opacity="0.1" d="M954.232 441.512V592.424L817.232 641.875V543.406L954.232 441.512Z" fill="#CBCCE4"/>
<path opacity="0.5" d="M952.519 593.925V542.55L817.232 642.731L952.519 593.925Z" fill="#CBCCE4"/>
<path opacity="0.5" d="M1088.66 543.406V593.068L952.52 490.318L1088.66 543.406Z" fill="#CBCCE4"/>
<path d="M1088.66 491.175L953.376 441.512L817.232 543.406H1088.66M1088.66 491.175V543.406M1088.66 491.175H952.948M1088.66 543.406V593.068M817.232 593.068H952.948M1088.66 593.068V642.731L952.948 593.068M1088.66 593.068H952.948M952.948 593.068V491.175M952.948 491.175H817.232V642.731" stroke="#CBCCE4" stroke-width="0.85625"/>
<path d="M952.519 543.406L817.232 641.875L952.519 593.068M1087.81 543.406L952.519 490.318L1087.81 593.068" stroke="#CBCCE4" stroke-width="0.85625"/>
</g>
<g opacity="0.5">
<path opacity="0.4" d="M1225.38 441.512V593.068L1360.66 642.731V491.175L1225.38 441.512Z" fill="#CBCCE4"/>
<path opacity="0.1" d="M1226.23 441.512V592.424L1089.23 641.875V543.406L1226.23 441.512Z" fill="#CBCCE4"/>
<path opacity="0.5" d="M1224.52 593.925V542.55L1089.23 642.731L1224.52 593.925Z" fill="#CBCCE4"/>
<path opacity="0.5" d="M1360.66 543.406V593.068L1224.52 490.318L1360.66 543.406Z" fill="#CBCCE4"/>
<path d="M1360.66 491.175L1225.38 441.512L1089.23 543.406H1360.66M1360.66 491.175V543.406M1360.66 491.175H1224.95M1360.66 543.406V593.068M1089.23 593.068H1224.95M1360.66 593.068V642.731L1224.95 593.068M1360.66 593.068H1224.95M1224.95 593.068V491.175M1224.95 491.175H1089.23V642.731" stroke="#CBCCE4" stroke-width="0.85625"/>
<path d="M1224.52 543.406L1089.23 641.875L1224.52 593.068M1359.81 543.406L1224.52 490.318L1359.81 593.068" stroke="#CBCCE4" stroke-width="0.85625"/>
</g>
<g opacity="0.5">
<path opacity="0.4" d="M1497.38 441.512V593.068L1632.66 642.731V491.175L1497.38 441.512Z" fill="#CBCCE4"/>
<path opacity="0.1" d="M1498.23 441.512V592.424L1361.23 641.875V543.406L1498.23 441.512Z" fill="#CBCCE4"/>
<path opacity="0.5" d="M1496.52 593.925V542.55L1361.23 642.731L1496.52 593.925Z" fill="#CBCCE4"/>
<path opacity="0.5" d="M1632.66 543.406V593.068L1496.52 490.318L1632.66 543.406Z" fill="#CBCCE4"/>
<path d="M1632.66 491.175L1497.38 441.512L1361.23 543.406H1632.66M1632.66 491.175V543.406M1632.66 491.175H1496.95M1632.66 543.406V593.068M1361.23 593.068H1496.95M1632.66 593.068V642.731L1496.95 593.068M1632.66 593.068H1496.95M1496.95 593.068V491.175M1496.95 491.175H1361.23V642.731" stroke="#CBCCE4" stroke-width="0.85625"/>
<path d="M1496.52 543.406L1361.23 641.875L1496.52 593.068M1631.81 543.406L1496.52 490.318L1631.81 593.068" stroke="#CBCCE4" stroke-width="0.85625"/>
</g>
<g opacity="0.5">
<path opacity="0.4" d="M1769.38 441.512V593.068L1904.66 642.731V491.175L1769.38 441.512Z" fill="#CBCCE4"/>
<path opacity="0.1" d="M1770.23 441.512V592.424L1633.23 641.875V543.406L1770.23 441.512Z" fill="#CBCCE4"/>
<path opacity="0.5" d="M1768.52 593.925V542.55L1633.23 642.731L1768.52 593.925Z" fill="#CBCCE4"/>
<path opacity="0.5" d="M1904.66 543.406V593.068L1768.52 490.318L1904.66 543.406Z" fill="#CBCCE4"/>
<path d="M1904.66 491.175L1769.38 441.512L1633.23 543.406H1904.66M1904.66 491.175V543.406M1904.66 491.175H1768.95M1904.66 543.406V593.068M1633.23 593.068H1768.95M1904.66 593.068V642.731L1768.95 593.068M1904.66 593.068H1768.95M1768.95 593.068V491.175M1768.95 491.175H1633.23V642.731" stroke="#CBCCE4" stroke-width="0.85625"/>
<path d="M1768.52 543.406L1633.23 641.875L1768.52 593.068M1903.81 543.406L1768.52 490.318L1903.81 593.068" stroke="#CBCCE4" stroke-width="0.85625"/>
</g>
<g opacity="0.5">
<path opacity="0.4" d="M2041.38 441.512V593.068L2176.66 642.731V491.175L2041.38 441.512Z" fill="#CBCCE4"/>
<path opacity="0.1" d="M2042.23 441.512V592.424L1905.23 641.875V543.406L2042.23 441.512Z" fill="#CBCCE4"/>
<path opacity="0.5" d="M2040.52 593.925V542.55L1905.23 642.731L2040.52 593.925Z" fill="#CBCCE4"/>
<path opacity="0.5" d="M2176.66 543.406V593.068L2040.52 490.318L2176.66 543.406Z" fill="#CBCCE4"/>
<path d="M2176.66 491.175L2041.38 441.512L1905.23 543.406H2176.66M2176.66 491.175V543.406M2176.66 491.175H2040.95M2176.66 543.406V593.068M1905.23 593.068H2040.95M2176.66 593.068V642.731L2040.95 593.068M2176.66 593.068H2040.95M2040.95 593.068V491.175M2040.95 491.175H1905.23V642.731" stroke="#CBCCE4" stroke-width="0.85625"/>
<path d="M2040.52 543.406L1905.23 641.875L2040.52 593.068M2175.81 543.406L2040.52 490.318L2175.81 593.068" stroke="#CBCCE4" stroke-width="0.85625"/>
</g>
</g>
<g opacity="0.5">
<g opacity="0.5">
<path opacity="0.4" d="M137.856 587.112V738.669L273.144 788.331V636.775L137.856 587.112Z" fill="#CBCCE4"/>
<path opacity="0.1" d="M138.712 587.112V738.024L1.7124 787.475V689.006L138.712 587.112Z" fill="#CBCCE4"/>
<path opacity="0.5" d="M137 739.525V688.15L1.7124 788.331L137 739.525Z" fill="#CBCCE4"/>
<path opacity="0.5" d="M273.144 689.006V738.668L137 635.918L273.144 689.006Z" fill="#CBCCE4"/>
<path d="M273.144 636.775L137.856 587.112L1.7124 689.006H273.144M273.144 636.775V689.006M273.144 636.775H137.428M273.144 689.006V738.669M1.7124 738.669H137.428M273.144 738.669V788.331L137.428 738.669M273.144 738.669H137.428M137.428 738.669V636.775M137.428 636.775H1.7124L1.7124 788.331" stroke="#CBCCE4" stroke-width="0.85625"/>
<path d="M137 689.006L1.7124 787.475L137 738.668M272.287 689.006L137 635.918L272.287 738.668" stroke="#CBCCE4" stroke-width="0.85625"/>
</g>
<g opacity="0.5">
<path opacity="0.4" d="M409.856 587.112V738.669L545.144 788.331V636.775L409.856 587.112Z" fill="#CBCCE4"/>
<path opacity="0.1" d="M410.712 587.112V738.024L273.712 787.475V689.006L410.712 587.112Z" fill="#CBCCE4"/>
<path opacity="0.5" d="M409 739.525V688.15L273.712 788.331L409 739.525Z" fill="#CBCCE4"/>
<path opacity="0.5" d="M545.144 689.006V738.668L409 635.918L545.144 689.006Z" fill="#CBCCE4"/>
<path d="M545.144 636.775L409.856 587.112L273.712 689.006H545.144M545.144 636.775V689.006M545.144 636.775H409.428M545.144 689.006V738.669M273.712 738.669H409.428M545.144 738.669V788.331L409.428 738.669M545.144 738.669H409.428M409.428 738.669V636.775M409.428 636.775H273.712V788.331" stroke="#CBCCE4" stroke-width="0.85625"/>
<path d="M409 689.006L273.712 787.475L409 738.668M544.287 689.006L409 635.918L544.287 738.668" stroke="#CBCCE4" stroke-width="0.85625"/>
</g>
<g opacity="0.5">
<path opacity="0.4" d="M681.856 587.112V738.669L817.144 788.331V636.775L681.856 587.112Z" fill="#CBCCE4"/>
<path opacity="0.1" d="M682.712 587.112V738.024L545.712 787.475V689.006L682.712 587.112Z" fill="#CBCCE4"/>
<path opacity="0.5" d="M681 739.525V688.15L545.712 788.331L681 739.525Z" fill="#CBCCE4"/>
<path opacity="0.5" d="M817.144 689.006V738.668L681 635.918L817.144 689.006Z" fill="#CBCCE4"/>
<path d="M817.144 636.775L681.856 587.112L545.712 689.006H817.144M817.144 636.775V689.006M817.144 636.775H681.428M817.144 689.006V738.669M545.712 738.669H681.428M817.144 738.669V788.331L681.428 738.669M817.144 738.669H681.428M681.428 738.669V636.775M681.428 636.775H545.712V788.331" stroke="#CBCCE4" stroke-width="0.85625"/>
<path d="M681 689.006L545.712 787.475L681 738.668M816.287 689.006L681 635.918L816.287 738.668" stroke="#CBCCE4" stroke-width="0.85625"/>
</g>
<g opacity="0.5">
<path opacity="0.4" d="M953.856 587.112V738.669L1089.14 788.331V636.775L953.856 587.112Z" fill="#CBCCE4"/>
<path opacity="0.1" d="M954.712 587.112V738.024L817.712 787.475V689.006L954.712 587.112Z" fill="#CBCCE4"/>
<path opacity="0.5" d="M953 739.525V688.15L817.712 788.331L953 739.525Z" fill="#CBCCE4"/>
<path opacity="0.5" d="M1089.14 689.006V738.668L953 635.918L1089.14 689.006Z" fill="#CBCCE4"/>
<path d="M1089.14 636.775L953.856 587.112L817.712 689.006H1089.14M1089.14 636.775V689.006M1089.14 636.775H953.428M1089.14 689.006V738.669M817.712 738.669H953.428M1089.14 738.669V788.331L953.428 738.669M1089.14 738.669H953.428M953.428 738.669V636.775M953.428 636.775H817.712V788.331" stroke="#CBCCE4" stroke-width="0.85625"/>
<path d="M953 689.006L817.712 787.475L953 738.668M1088.29 689.006L953 635.918L1088.29 738.668" stroke="#CBCCE4" stroke-width="0.85625"/>
</g>
<g opacity="0.5">
<path opacity="0.4" d="M1225.86 587.112V738.669L1361.14 788.331V636.775L1225.86 587.112Z" fill="#CBCCE4"/>
<path opacity="0.1" d="M1226.71 587.112V738.024L1089.71 787.475V689.006L1226.71 587.112Z" fill="#CBCCE4"/>
<path opacity="0.5" d="M1225 739.525V688.15L1089.71 788.331L1225 739.525Z" fill="#CBCCE4"/>
<path opacity="0.5" d="M1361.14 689.006V738.668L1225 635.918L1361.14 689.006Z" fill="#CBCCE4"/>
<path d="M1361.14 636.775L1225.86 587.112L1089.71 689.006H1361.14M1361.14 636.775V689.006M1361.14 636.775H1225.43M1361.14 689.006V738.669M1089.71 738.669H1225.43M1361.14 738.669V788.331L1225.43 738.669M1361.14 738.669H1225.43M1225.43 738.669V636.775M1225.43 636.775H1089.71V788.331" stroke="#CBCCE4" stroke-width="0.85625"/>
<path d="M1225 689.006L1089.71 787.475L1225 738.668M1360.29 689.006L1225 635.918L1360.29 738.668" stroke="#CBCCE4" stroke-width="0.85625"/>
</g>
<g opacity="0.5">
<path opacity="0.4" d="M1497.86 587.112V738.669L1633.14 788.331V636.775L1497.86 587.112Z" fill="#CBCCE4"/>
<path opacity="0.1" d="M1498.71 587.112V738.024L1361.71 787.475V689.006L1498.71 587.112Z" fill="#CBCCE4"/>
<path opacity="0.5" d="M1497 739.525V688.15L1361.71 788.331L1497 739.525Z" fill="#CBCCE4"/>
<path opacity="0.5" d="M1633.14 689.006V738.668L1497 635.918L1633.14 689.006Z" fill="#CBCCE4"/>
<path d="M1633.14 636.775L1497.86 587.112L1361.71 689.006H1633.14M1633.14 636.775V689.006M1633.14 636.775H1497.43M1633.14 689.006V738.669M1361.71 738.669H1497.43M1633.14 738.669V788.331L1497.43 738.669M1633.14 738.669H1497.43M1497.43 738.669V636.775M1497.43 636.775H1361.71V788.331" stroke="#CBCCE4" stroke-width="0.85625"/>
<path d="M1497 689.006L1361.71 787.475L1497 738.668M1632.29 689.006L1497 635.918L1632.29 738.668" stroke="#CBCCE4" stroke-width="0.85625"/>
</g>
<g opacity="0.5">
<path opacity="0.4" d="M1769.86 587.112V738.669L1905.14 788.331V636.775L1769.86 587.112Z" fill="#CBCCE4"/>
<path opacity="0.1" d="M1770.71 587.112V738.024L1633.71 787.475V689.006L1770.71 587.112Z" fill="#CBCCE4"/>
<path opacity="0.5" d="M1769 739.525V688.15L1633.71 788.331L1769 739.525Z" fill="#CBCCE4"/>
<path opacity="0.5" d="M1905.14 689.006V738.668L1769 635.918L1905.14 689.006Z" fill="#CBCCE4"/>
<path d="M1905.14 636.775L1769.86 587.112L1633.71 689.006H1905.14M1905.14 636.775V689.006M1905.14 636.775H1769.43M1905.14 689.006V738.669M1633.71 738.669H1769.43M1905.14 738.669V788.331L1769.43 738.669M1905.14 738.669H1769.43M1769.43 738.669V636.775M1769.43 636.775H1633.71V788.331" stroke="#CBCCE4" stroke-width="0.85625"/>
<path d="M1769 689.006L1633.71 787.475L1769 738.668M1904.29 689.006L1769 635.918L1904.29 738.668" stroke="#CBCCE4" stroke-width="0.85625"/>
</g>
<g opacity="0.5">
<path opacity="0.4" d="M2041.86 587.112V738.669L2177.14 788.331V636.775L2041.86 587.112Z" fill="#CBCCE4"/>
<path opacity="0.1" d="M2042.71 587.112V738.024L1905.71 787.475V689.006L2042.71 587.112Z" fill="#CBCCE4"/>
<path opacity="0.5" d="M2041 739.525V688.15L1905.71 788.331L2041 739.525Z" fill="#CBCCE4"/>
<path opacity="0.5" d="M2177.14 689.006V738.668L2041 635.918L2177.14 689.006Z" fill="#CBCCE4"/>
<path d="M2177.14 636.775L2041.86 587.112L1905.71 689.006H2177.14M2177.14 636.775V689.006M2177.14 636.775H2041.43M2177.14 689.006V738.669M1905.71 738.669H2041.43M2177.14 738.669V788.331L2041.43 738.669M2177.14 738.669H2041.43M2041.43 738.669V636.775M2041.43 636.775H1905.71V788.331" stroke="#CBCCE4" stroke-width="0.85625"/>
<path d="M2041 689.006L1905.71 787.475L2041 738.668M2176.29 689.006L2041 635.918L2176.29 738.668" stroke="#CBCCE4" stroke-width="0.85625"/>
</g>
</g>
</svg>
