<svg width="1108" height="540" viewBox="0 0 1108 540" fill="none" xmlns="http://www.w3.org/2000/svg">
<g opacity="0.2">
<path d="M480.7 6V230.193" stroke="#7275B6" stroke-width="1.30779" stroke-dasharray="3.92 3.92"/>
<path d="M576.518 60.9274H389.503L483.011 0.768799" stroke="#7275B6" stroke-width="1.30779" stroke-dasharray="3.92 3.92"/>
<path d="M379.041 170.782H572.595L477.043 228.325" stroke="#7275B6" stroke-width="1.30779" stroke-dasharray="3.92 3.92"/>
<rect x="479.431" y="2.0747" width="116.394" height="195.827" transform="rotate(30.6412 479.431 2.0747)" stroke="#7275B6" stroke-width="1.30779" stroke-dasharray="3.92 3.92"/>
<path d="M480.7 62.2351V286.429" stroke="#7275B6" stroke-width="1.30779"/>
<path opacity="0.2" d="M387.542 120.432H445.085L460.778 90.3526L477.126 60.2733L387.542 120.432Z" fill="url(#paint0_linear_4145_85608)"/>
<path opacity="0.4" d="M514.398 230.941L483.011 283.906L520.283 261.02L570.633 230.941H514.398Z" fill="url(#paint1_linear_4145_85608)"/>
<path d="M580.441 120.091H388.196L481.049 58.9656" stroke="#7275B6" stroke-width="1.30779"/>
<path d="M382.554 230.983H570.997L480.551 284.018" stroke="#7275B6" stroke-width="1.30779"/>
<path opacity="0.2" d="M479.202 57.4138L581.711 118.137L481.239 287.747L379.695 230.941L479.202 57.4138Z" fill="url(#paint2_linear_4145_85608)"/>
<path d="M481.002 286.864L380.591 230.693L479.439 58.3144L580.815 118.366L481.002 286.864Z" stroke="#E3E3F9" stroke-width="1.30779"/>
<path d="M669.835 6V230.193" stroke="#7275B6" stroke-width="1.30779" stroke-dasharray="3.92 3.92"/>
<path d="M765.654 60.9274H578.639L672.147 0.768799" stroke="#7275B6" stroke-width="1.30779" stroke-dasharray="3.92 3.92"/>
<path d="M568.177 170.782H761.731L666.179 228.325" stroke="#7275B6" stroke-width="1.30779" stroke-dasharray="3.92 3.92"/>
<rect x="668.567" y="2.0747" width="116.394" height="195.827" transform="rotate(30.6412 668.567 2.0747)" stroke="#7275B6" stroke-width="1.30779" stroke-dasharray="3.92 3.92"/>
<path d="M669.835 62.2351V286.429" stroke="#7275B6" stroke-width="1.30779"/>
<path opacity="0.2" d="M576.678 120.432H634.221L649.914 90.3526L666.262 60.2733L576.678 120.432Z" fill="url(#paint3_linear_4145_85608)"/>
<path opacity="0.4" d="M703.534 230.941L672.147 283.906L709.419 261.02L759.769 230.941H703.534Z" fill="url(#paint4_linear_4145_85608)"/>
<path d="M769.577 120.091H577.332L670.185 58.9656" stroke="#7275B6" stroke-width="1.30779"/>
<path d="M571.69 230.983H760.133L669.687 284.018" stroke="#7275B6" stroke-width="1.30779"/>
<path opacity="0.2" d="M668.338 57.4138L770.847 118.137L670.375 287.747L568.831 230.941L668.338 57.4138Z" fill="url(#paint5_linear_4145_85608)"/>
<path d="M670.138 286.864L569.727 230.693L668.575 58.3144L769.951 118.366L670.138 286.864Z" stroke="#E3E3F9" stroke-width="1.30779"/>
<path d="M858.972 6V230.193" stroke="#7275B6" stroke-width="1.30779" stroke-dasharray="3.92 3.92"/>
<path d="M954.79 60.9274H767.776L861.283 0.768799" stroke="#7275B6" stroke-width="1.30779" stroke-dasharray="3.92 3.92"/>
<path d="M757.313 170.782H950.867L855.315 228.325" stroke="#7275B6" stroke-width="1.30779" stroke-dasharray="3.92 3.92"/>
<rect x="857.703" y="2.0747" width="116.394" height="195.827" transform="rotate(30.6412 857.703 2.0747)" stroke="#7275B6" stroke-width="1.30779" stroke-dasharray="3.92 3.92"/>
<path d="M858.972 62.2351V286.429" stroke="#7275B6" stroke-width="1.30779"/>
<path opacity="0.2" d="M765.814 120.432H823.357L839.05 90.3526L855.398 60.2733L765.814 120.432Z" fill="url(#paint6_linear_4145_85608)"/>
<path opacity="0.4" d="M892.67 230.941L861.283 283.906L898.555 261.02L948.905 230.941H892.67Z" fill="url(#paint7_linear_4145_85608)"/>
<path d="M958.713 120.091H766.468L859.321 58.9656" stroke="#7275B6" stroke-width="1.30779"/>
<path d="M760.827 230.983H949.27L858.823 284.018" stroke="#7275B6" stroke-width="1.30779"/>
<path opacity="0.2" d="M857.474 57.4138L959.983 118.137L859.511 287.747L757.967 230.941L857.474 57.4138Z" fill="url(#paint8_linear_4145_85608)"/>
<path d="M859.274 286.864L758.863 230.693L857.711 58.3144L959.087 118.366L859.274 286.864Z" stroke="#E3E3F9" stroke-width="1.30779"/>
<path d="M1048.11 6V230.193" stroke="#7275B6" stroke-width="1.30779" stroke-dasharray="3.92 3.92"/>
<path d="M1143.93 60.9274H956.912L1050.42 0.768799" stroke="#7275B6" stroke-width="1.30779" stroke-dasharray="3.92 3.92"/>
<path d="M946.449 170.782H1140L1044.45 228.325" stroke="#7275B6" stroke-width="1.30779" stroke-dasharray="3.92 3.92"/>
<rect x="1046.84" y="2.0747" width="116.394" height="195.827" transform="rotate(30.6412 1046.84 2.0747)" stroke="#7275B6" stroke-width="1.30779" stroke-dasharray="3.92 3.92"/>
<path d="M1048.11 62.2351V286.429" stroke="#7275B6" stroke-width="1.30779"/>
<path opacity="0.2" d="M954.95 120.432H1012.49L1028.19 90.3526L1044.53 60.2733L954.95 120.432Z" fill="url(#paint9_linear_4145_85608)"/>
<path opacity="0.4" d="M1081.81 230.941L1050.42 283.906L1087.69 261.02L1138.04 230.941H1081.81Z" fill="url(#paint10_linear_4145_85608)"/>
<path d="M1147.85 120.091H955.604L1048.46 58.9656" stroke="#7275B6" stroke-width="1.30779"/>
<path d="M949.963 230.983H1138.41L1047.96 284.018" stroke="#7275B6" stroke-width="1.30779"/>
<path opacity="0.2" d="M1046.61 57.4138L1149.12 118.137L1048.65 287.747L947.103 230.941L1046.61 57.4138Z" fill="url(#paint11_linear_4145_85608)"/>
<path d="M1048.41 286.864L947.999 230.693L1046.85 58.3144L1148.22 118.366L1048.41 286.864Z" stroke="#E3E3F9" stroke-width="1.30779"/>
<path d="M291.564 286.429V510.622" stroke="#7275B6" stroke-width="1.30779" stroke-dasharray="3.92 3.92"/>
<path d="M387.382 341.356H200.367L293.875 281.198" stroke="#7275B6" stroke-width="1.30779" stroke-dasharray="3.92 3.92"/>
<path d="M189.905 451.211H383.459L287.907 508.754" stroke="#7275B6" stroke-width="1.30779" stroke-dasharray="3.92 3.92"/>
<rect x="290.295" y="282.503" width="116.394" height="195.827" transform="rotate(30.6412 290.295 282.503)" stroke="#7275B6" stroke-width="1.30779" stroke-dasharray="3.92 3.92"/>
<path d="M291.564 342.664V566.857" stroke="#7275B6" stroke-width="1.30779"/>
<path opacity="0.2" d="M198.406 400.86H255.949L271.642 370.781L287.99 340.702L198.406 400.86Z" fill="url(#paint12_linear_4145_85608)"/>
<path opacity="0.4" d="M325.262 511.369L293.875 564.335L331.147 541.448L381.497 511.369H325.262Z" fill="url(#paint13_linear_4145_85608)"/>
<path d="M391.305 400.52H199.059L291.913 339.394" stroke="#7275B6" stroke-width="1.30779"/>
<path d="M193.418 511.411H381.861L291.415 564.446" stroke="#7275B6" stroke-width="1.30779"/>
<path opacity="0.2" d="M290.066 337.843L392.574 398.566L292.103 568.175L190.559 511.369L290.066 337.843Z" fill="url(#paint14_linear_4145_85608)"/>
<path d="M291.866 567.293L191.455 511.121L290.303 338.743L391.679 398.795L291.866 567.293Z" stroke="#E3E3F9" stroke-width="1.30779"/>
<path d="M480.7 286.429V510.622" stroke="#7275B6" stroke-width="1.30779" stroke-dasharray="3.92 3.92"/>
<path d="M576.518 341.356H389.503L483.011 281.198" stroke="#7275B6" stroke-width="1.30779" stroke-dasharray="3.92 3.92"/>
<path d="M379.041 451.211H572.595L477.043 508.754" stroke="#7275B6" stroke-width="1.30779" stroke-dasharray="3.92 3.92"/>
<rect x="479.431" y="282.503" width="116.394" height="195.827" transform="rotate(30.6412 479.431 282.503)" stroke="#7275B6" stroke-width="1.30779" stroke-dasharray="3.92 3.92"/>
<path d="M480.7 342.664V566.857" stroke="#7275B6" stroke-width="1.30779"/>
<path opacity="0.2" d="M387.542 400.86H445.085L460.778 370.781L477.126 340.702L387.542 400.86Z" fill="url(#paint15_linear_4145_85608)"/>
<path opacity="0.4" d="M514.398 511.369L483.011 564.335L520.283 541.448L570.633 511.369H514.398Z" fill="url(#paint16_linear_4145_85608)"/>
<path d="M580.441 400.52H388.196L481.049 339.394" stroke="#7275B6" stroke-width="1.30779"/>
<path d="M382.554 511.411H570.997L480.551 564.446" stroke="#7275B6" stroke-width="1.30779"/>
<path opacity="0.2" d="M479.202 337.843L581.711 398.566L481.239 568.175L379.695 511.369L479.202 337.843Z" fill="url(#paint17_linear_4145_85608)"/>
<path d="M481.002 567.293L380.591 511.121L479.439 338.743L580.815 398.795L481.002 567.293Z" stroke="#E3E3F9" stroke-width="1.30779"/>
<path d="M669.835 286.429V510.622" stroke="#7275B6" stroke-width="1.30779" stroke-dasharray="3.92 3.92"/>
<path d="M765.654 341.356H578.639L672.147 281.198" stroke="#7275B6" stroke-width="1.30779" stroke-dasharray="3.92 3.92"/>
<path d="M568.177 451.211H761.731L666.179 508.754" stroke="#7275B6" stroke-width="1.30779" stroke-dasharray="3.92 3.92"/>
<rect x="668.567" y="282.503" width="116.394" height="195.827" transform="rotate(30.6412 668.567 282.503)" stroke="#7275B6" stroke-width="1.30779" stroke-dasharray="3.92 3.92"/>
<path d="M669.835 342.664V566.857" stroke="#7275B6" stroke-width="1.30779"/>
<path opacity="0.2" d="M576.678 400.86H634.221L649.914 370.781L666.262 340.702L576.678 400.86Z" fill="url(#paint18_linear_4145_85608)"/>
<path opacity="0.4" d="M703.534 511.369L672.147 564.335L709.419 541.448L759.769 511.369H703.534Z" fill="url(#paint19_linear_4145_85608)"/>
<path d="M769.577 400.52H577.332L670.185 339.394" stroke="#7275B6" stroke-width="1.30779"/>
<path d="M571.69 511.411H760.133L669.687 564.446" stroke="#7275B6" stroke-width="1.30779"/>
<path opacity="0.2" d="M668.338 337.843L770.847 398.566L670.375 568.175L568.831 511.369L668.338 337.843Z" fill="url(#paint20_linear_4145_85608)"/>
<path d="M670.138 567.293L569.727 511.121L668.575 338.743L769.951 398.795L670.138 567.293Z" stroke="#E3E3F9" stroke-width="1.30779"/>
<path d="M858.971 286.429V510.622" stroke="#7275B6" stroke-width="1.30779" stroke-dasharray="3.92 3.92"/>
<path d="M954.79 341.356H767.775L861.283 281.198" stroke="#7275B6" stroke-width="1.30779" stroke-dasharray="3.92 3.92"/>
<path d="M757.313 451.211H950.867L855.315 508.754" stroke="#7275B6" stroke-width="1.30779" stroke-dasharray="3.92 3.92"/>
<rect x="857.703" y="282.503" width="116.394" height="195.827" transform="rotate(30.6412 857.703 282.503)" stroke="#7275B6" stroke-width="1.30779" stroke-dasharray="3.92 3.92"/>
<path d="M858.971 342.664V566.857" stroke="#7275B6" stroke-width="1.30779"/>
<path opacity="0.2" d="M765.814 400.86H823.357L839.05 370.781L855.398 340.702L765.814 400.86Z" fill="url(#paint21_linear_4145_85608)"/>
<path opacity="0.4" d="M892.67 511.369L861.283 564.335L898.555 541.448L948.905 511.369H892.67Z" fill="url(#paint22_linear_4145_85608)"/>
<path d="M958.713 400.52H766.468L859.321 339.394" stroke="#7275B6" stroke-width="1.30779"/>
<path d="M760.826 511.411H949.269L858.823 564.446" stroke="#7275B6" stroke-width="1.30779"/>
<path opacity="0.2" d="M857.474 337.843L959.983 398.566L859.511 568.175L757.967 511.369L857.474 337.843Z" fill="url(#paint23_linear_4145_85608)"/>
<path d="M859.274 567.293L758.863 511.121L857.711 338.743L959.087 398.795L859.274 567.293Z" stroke="#E3E3F9" stroke-width="1.30779"/>
<path d="M1048.11 286.429V510.622" stroke="#7275B6" stroke-width="1.30779" stroke-dasharray="3.92 3.92"/>
<path d="M1143.93 341.356H956.911L1050.42 281.198" stroke="#7275B6" stroke-width="1.30779" stroke-dasharray="3.92 3.92"/>
<path d="M946.449 451.211H1140L1044.45 508.754" stroke="#7275B6" stroke-width="1.30779" stroke-dasharray="3.92 3.92"/>
<rect x="1046.84" y="282.503" width="116.394" height="195.827" transform="rotate(30.6412 1046.84 282.503)" stroke="#7275B6" stroke-width="1.30779" stroke-dasharray="3.92 3.92"/>
<path d="M1048.11 342.664V566.857" stroke="#7275B6" stroke-width="1.30779"/>
<path opacity="0.2" d="M954.95 400.86H1012.49L1028.19 370.781L1044.53 340.702L954.95 400.86Z" fill="url(#paint24_linear_4145_85608)"/>
<path opacity="0.4" d="M1081.81 511.369L1050.42 564.335L1087.69 541.448L1138.04 511.369H1081.81Z" fill="url(#paint25_linear_4145_85608)"/>
<path d="M1147.85 400.52H955.604L1048.46 339.394" stroke="#7275B6" stroke-width="1.30779"/>
<path d="M949.963 511.411H1138.41L1047.96 564.446" stroke="#7275B6" stroke-width="1.30779"/>
<path opacity="0.2" d="M1046.61 337.843L1149.12 398.566L1048.65 568.175L947.103 511.369L1046.61 337.843Z" fill="url(#paint26_linear_4145_85608)"/>
<path d="M1048.41 567.293L947.999 511.121L1046.85 338.743L1148.22 398.795L1048.41 567.293Z" stroke="#E3E3F9" stroke-width="1.30779"/>
</g>
<defs>
<linearGradient id="paint0_linear_4145_85608" x1="394.081" y1="119.778" x2="458.817" y2="93.6221" gradientUnits="userSpaceOnUse">
<stop stop-color="#7275B6"/>
<stop offset="1" stop-color="#323350"/>
</linearGradient>
<linearGradient id="paint1_linear_4145_85608" x1="503.935" y1="251.865" x2="560.825" y2="232.902" gradientUnits="userSpaceOnUse">
<stop stop-color="#323350"/>
<stop offset="1" stop-color="#7275B6"/>
</linearGradient>
<linearGradient id="paint2_linear_4145_85608" x1="483.665" y1="71.3898" x2="476.472" y2="281.291" gradientUnits="userSpaceOnUse">
<stop stop-color="#B19ABA"/>
<stop offset="1" stop-color="#775088"/>
</linearGradient>
<linearGradient id="paint3_linear_4145_85608" x1="583.217" y1="119.778" x2="647.953" y2="93.6221" gradientUnits="userSpaceOnUse">
<stop stop-color="#7275B6"/>
<stop offset="1" stop-color="#323350"/>
</linearGradient>
<linearGradient id="paint4_linear_4145_85608" x1="693.071" y1="251.865" x2="749.961" y2="232.902" gradientUnits="userSpaceOnUse">
<stop stop-color="#323350"/>
<stop offset="1" stop-color="#7275B6"/>
</linearGradient>
<linearGradient id="paint5_linear_4145_85608" x1="672.801" y1="71.3898" x2="665.608" y2="281.291" gradientUnits="userSpaceOnUse">
<stop stop-color="#B19ABA"/>
<stop offset="1" stop-color="#775088"/>
</linearGradient>
<linearGradient id="paint6_linear_4145_85608" x1="772.353" y1="119.778" x2="837.089" y2="93.6221" gradientUnits="userSpaceOnUse">
<stop stop-color="#7275B6"/>
<stop offset="1" stop-color="#323350"/>
</linearGradient>
<linearGradient id="paint7_linear_4145_85608" x1="882.208" y1="251.865" x2="939.097" y2="232.902" gradientUnits="userSpaceOnUse">
<stop stop-color="#323350"/>
<stop offset="1" stop-color="#7275B6"/>
</linearGradient>
<linearGradient id="paint8_linear_4145_85608" x1="861.937" y1="71.3898" x2="854.744" y2="281.291" gradientUnits="userSpaceOnUse">
<stop stop-color="#B19ABA"/>
<stop offset="1" stop-color="#775088"/>
</linearGradient>
<linearGradient id="paint9_linear_4145_85608" x1="961.489" y1="119.778" x2="1026.22" y2="93.6221" gradientUnits="userSpaceOnUse">
<stop stop-color="#7275B6"/>
<stop offset="1" stop-color="#323350"/>
</linearGradient>
<linearGradient id="paint10_linear_4145_85608" x1="1071.34" y1="251.865" x2="1128.23" y2="232.902" gradientUnits="userSpaceOnUse">
<stop stop-color="#323350"/>
<stop offset="1" stop-color="#7275B6"/>
</linearGradient>
<linearGradient id="paint11_linear_4145_85608" x1="1051.07" y1="71.3898" x2="1043.88" y2="281.291" gradientUnits="userSpaceOnUse">
<stop stop-color="#B19ABA"/>
<stop offset="1" stop-color="#775088"/>
</linearGradient>
<linearGradient id="paint12_linear_4145_85608" x1="204.945" y1="400.207" x2="269.68" y2="374.051" gradientUnits="userSpaceOnUse">
<stop stop-color="#7275B6"/>
<stop offset="1" stop-color="#323350"/>
</linearGradient>
<linearGradient id="paint13_linear_4145_85608" x1="314.799" y1="532.294" x2="371.688" y2="513.331" gradientUnits="userSpaceOnUse">
<stop stop-color="#323350"/>
<stop offset="1" stop-color="#7275B6"/>
</linearGradient>
<linearGradient id="paint14_linear_4145_85608" x1="294.529" y1="351.818" x2="287.336" y2="561.72" gradientUnits="userSpaceOnUse">
<stop stop-color="#B19ABA"/>
<stop offset="1" stop-color="#775088"/>
</linearGradient>
<linearGradient id="paint15_linear_4145_85608" x1="394.081" y1="400.207" x2="458.817" y2="374.051" gradientUnits="userSpaceOnUse">
<stop stop-color="#7275B6"/>
<stop offset="1" stop-color="#323350"/>
</linearGradient>
<linearGradient id="paint16_linear_4145_85608" x1="503.935" y1="532.294" x2="560.825" y2="513.331" gradientUnits="userSpaceOnUse">
<stop stop-color="#323350"/>
<stop offset="1" stop-color="#7275B6"/>
</linearGradient>
<linearGradient id="paint17_linear_4145_85608" x1="483.665" y1="351.818" x2="476.472" y2="561.72" gradientUnits="userSpaceOnUse">
<stop stop-color="#B19ABA"/>
<stop offset="1" stop-color="#775088"/>
</linearGradient>
<linearGradient id="paint18_linear_4145_85608" x1="583.217" y1="400.207" x2="647.953" y2="374.051" gradientUnits="userSpaceOnUse">
<stop stop-color="#7275B6"/>
<stop offset="1" stop-color="#323350"/>
</linearGradient>
<linearGradient id="paint19_linear_4145_85608" x1="693.071" y1="532.294" x2="749.961" y2="513.331" gradientUnits="userSpaceOnUse">
<stop stop-color="#323350"/>
<stop offset="1" stop-color="#7275B6"/>
</linearGradient>
<linearGradient id="paint20_linear_4145_85608" x1="672.801" y1="351.818" x2="665.608" y2="561.72" gradientUnits="userSpaceOnUse">
<stop stop-color="#B19ABA"/>
<stop offset="1" stop-color="#775088"/>
</linearGradient>
<linearGradient id="paint21_linear_4145_85608" x1="772.353" y1="400.207" x2="837.089" y2="374.051" gradientUnits="userSpaceOnUse">
<stop stop-color="#7275B6"/>
<stop offset="1" stop-color="#323350"/>
</linearGradient>
<linearGradient id="paint22_linear_4145_85608" x1="882.207" y1="532.294" x2="939.097" y2="513.331" gradientUnits="userSpaceOnUse">
<stop stop-color="#323350"/>
<stop offset="1" stop-color="#7275B6"/>
</linearGradient>
<linearGradient id="paint23_linear_4145_85608" x1="861.937" y1="351.818" x2="854.744" y2="561.72" gradientUnits="userSpaceOnUse">
<stop stop-color="#B19ABA"/>
<stop offset="1" stop-color="#775088"/>
</linearGradient>
<linearGradient id="paint24_linear_4145_85608" x1="961.489" y1="400.207" x2="1026.22" y2="374.051" gradientUnits="userSpaceOnUse">
<stop stop-color="#7275B6"/>
<stop offset="1" stop-color="#323350"/>
</linearGradient>
<linearGradient id="paint25_linear_4145_85608" x1="1071.34" y1="532.294" x2="1128.23" y2="513.331" gradientUnits="userSpaceOnUse">
<stop stop-color="#323350"/>
<stop offset="1" stop-color="#7275B6"/>
</linearGradient>
<linearGradient id="paint26_linear_4145_85608" x1="1051.07" y1="351.818" x2="1043.88" y2="561.72" gradientUnits="userSpaceOnUse">
<stop stop-color="#B19ABA"/>
<stop offset="1" stop-color="#775088"/>
</linearGradient>
</defs>
</svg>
