<svg width="1316" height="202" viewBox="0 0 1316 202" fill="none" xmlns="http://www.w3.org/2000/svg">
    <g opacity="0.2" clip-path="url(#clip0_3306_57662)">
        <path opacity="0.4" d="M136.85 1.40039V151.85L271.15 201.15V50.7004L136.85 1.40039Z" fill="#212245"/>
        <path opacity="0.1" d="M137.7 1.40039V151.21L1.70001 200.3V102.55L137.7 1.40039Z" fill="#8571AA"/>
        <path opacity="0.5" d="M136 152.7V101.7L1.70001 201.15L136 152.7Z" fill="url(#paint0_linear_3306_57662)"/>
        <path opacity="0.5" d="M271.15 102.551V151.851L136 49.8506L271.15 102.551Z" fill="url(#paint1_linear_3306_57662)"/>
        <path d="M271.15 50.7004L136.85 1.40039L1.70001 102.55H271.15M271.15 50.7004V102.55M271.15 50.7004H136.425M271.15 102.55V151.85M1.70001 151.85H136.425M271.15 151.85V201.15L136.425 151.85M271.15 151.85H136.425M136.425 151.85V50.7004M136.425 50.7004H1.70001V201.15" stroke="#8571AA" stroke-width="0.85"/>
        <path d="M136 102.551L1.70001 200.301L136 151.851M270.3 102.551L136 49.8506L270.3 151.851" stroke="#8571AA" stroke-width="0.85"/>
        <path opacity="0.4" d="M406.85 1.40039V151.85L541.15 201.15V50.7004L406.85 1.40039Z" fill="#212245"/>
        <path opacity="0.1" d="M407.7 1.40039V151.21L271.7 200.3V102.55L407.7 1.40039Z" fill="#8571AA"/>
        <path opacity="0.5" d="M406 152.7V101.7L271.7 201.15L406 152.7Z" fill="url(#paint2_linear_3306_57662)"/>
        <path opacity="0.5" d="M541.15 102.551V151.851L406 49.8506L541.15 102.551Z" fill="url(#paint3_linear_3306_57662)"/>
        <path d="M541.15 50.7004L406.85 1.40039L271.7 102.55H541.15M541.15 50.7004V102.55M541.15 50.7004H406.425M541.15 102.55V151.85M271.7 151.85H406.425M541.15 151.85V201.15L406.425 151.85M541.15 151.85H406.425M406.425 151.85V50.7004M406.425 50.7004H271.7V201.15" stroke="#8571AA" stroke-width="0.85"/>
        <path d="M406 102.551L271.7 200.301L406 151.851M540.3 102.551L406 49.8506L540.3 151.851" stroke="#8571AA" stroke-width="0.85"/>
        <path opacity="0.4" d="M676.85 1.40039V151.85L811.15 201.15V50.7004L676.85 1.40039Z" fill="#212245"/>
        <path opacity="0.1" d="M677.7 1.40039V151.21L541.7 200.3V102.55L677.7 1.40039Z" fill="#8571AA"/>
        <path opacity="0.5" d="M676 152.7V101.7L541.7 201.15L676 152.7Z" fill="url(#paint4_linear_3306_57662)"/>
        <path opacity="0.5" d="M811.15 102.551V151.851L676 49.8506L811.15 102.551Z" fill="url(#paint5_linear_3306_57662)"/>
        <path d="M811.15 50.7004L676.85 1.40039L541.7 102.55H811.15M811.15 50.7004V102.55M811.15 50.7004H676.425M811.15 102.55V151.85M541.7 151.85H676.425M811.15 151.85V201.15L676.425 151.85M811.15 151.85H676.425M676.425 151.85V50.7004M676.425 50.7004H541.7V201.15" stroke="#8571AA" stroke-width="0.85"/>
        <path d="M676 102.551L541.7 200.301L676 151.851M810.3 102.551L676 49.8506L810.3 151.851" stroke="#8571AA" stroke-width="0.85"/>
        <path opacity="0.4" d="M946.85 1.40039V151.85L1081.15 201.15V50.7004L946.85 1.40039Z" fill="#212245"/>
        <path opacity="0.1" d="M947.7 1.40039V151.21L811.7 200.3V102.55L947.7 1.40039Z" fill="#8571AA"/>
        <path opacity="0.5" d="M946 152.7V101.7L811.7 201.15L946 152.7Z" fill="url(#paint6_linear_3306_57662)"/>
        <path opacity="0.5" d="M1081.15 102.551V151.851L946 49.8506L1081.15 102.551Z" fill="url(#paint7_linear_3306_57662)"/>
        <path d="M1081.15 50.7004L946.85 1.40039L811.7 102.55H1081.15M1081.15 50.7004V102.55M1081.15 50.7004H946.425M1081.15 102.55V151.85M811.7 151.85H946.425M1081.15 151.85V201.15L946.425 151.85M1081.15 151.85H946.425M946.425 151.85V50.7004M946.425 50.7004H811.7V201.15" stroke="#8571AA" stroke-width="0.85"/>
        <path d="M946 102.551L811.7 200.301L946 151.851M1080.3 102.551L946 49.8506L1080.3 151.851" stroke="#8571AA" stroke-width="0.85"/>
        <path opacity="0.4" d="M1216.85 1.40039V151.85L1351.15 201.15V50.7004L1216.85 1.40039Z" fill="#212245"/>
        <path opacity="0.1" d="M1217.7 1.40039V151.21L1081.7 200.3V102.55L1217.7 1.40039Z" fill="#8571AA"/>
        <path opacity="0.5" d="M1216 152.7V101.7L1081.7 201.15L1216 152.7Z" fill="url(#paint8_linear_3306_57662)"/>
        <path opacity="0.5" d="M1351.15 102.551V151.851L1216 49.8506L1351.15 102.551Z" fill="url(#paint9_linear_3306_57662)"/>
        <path d="M1351.15 50.7004L1216.85 1.40039L1081.7 102.55H1351.15M1351.15 50.7004V102.55M1351.15 50.7004H1216.42M1351.15 102.55V151.85M1081.7 151.85H1216.42M1351.15 151.85V201.15L1216.42 151.85M1351.15 151.85H1216.42M1216.42 151.85V50.7004M1216.42 50.7004H1081.7V201.15" stroke="#8571AA" stroke-width="0.85"/>
        <path d="M1216 102.551L1081.7 200.301L1216 151.851M1350.3 102.551L1216 49.8506L1350.3 151.851" stroke="#8571AA" stroke-width="0.85"/>
    </g>
    <defs>
        <linearGradient id="paint0_linear_3306_57662" x1="68.85" y1="101.7" x2="68.85" y2="201.15" gradientUnits="userSpaceOnUse">
            <stop stop-color="#7275B6"/>
            <stop offset="1" stop-color="#323350"/>
        </linearGradient>
        <linearGradient id="paint1_linear_3306_57662" x1="204.85" y1="52.4006" x2="204.85" y2="151.001" gradientUnits="userSpaceOnUse">
            <stop stop-color="#7275B6"/>
            <stop offset="1" stop-color="#323350"/>
        </linearGradient>
        <linearGradient id="paint2_linear_3306_57662" x1="338.85" y1="101.7" x2="338.85" y2="201.15" gradientUnits="userSpaceOnUse">
            <stop stop-color="#7275B6"/>
            <stop offset="1" stop-color="#323350"/>
        </linearGradient>
        <linearGradient id="paint3_linear_3306_57662" x1="474.85" y1="52.4006" x2="474.85" y2="151.001" gradientUnits="userSpaceOnUse">
            <stop stop-color="#7275B6"/>
            <stop offset="1" stop-color="#323350"/>
        </linearGradient>
        <linearGradient id="paint4_linear_3306_57662" x1="608.85" y1="101.7" x2="608.85" y2="201.15" gradientUnits="userSpaceOnUse">
            <stop stop-color="#7275B6"/>
            <stop offset="1" stop-color="#323350"/>
        </linearGradient>
        <linearGradient id="paint5_linear_3306_57662" x1="744.85" y1="52.4006" x2="744.85" y2="151.001" gradientUnits="userSpaceOnUse">
            <stop stop-color="#7275B6"/>
            <stop offset="1" stop-color="#323350"/>
        </linearGradient>
        <linearGradient id="paint6_linear_3306_57662" x1="878.85" y1="101.7" x2="878.85" y2="201.15" gradientUnits="userSpaceOnUse">
            <stop stop-color="#7275B6"/>
            <stop offset="1" stop-color="#323350"/>
        </linearGradient>
        <linearGradient id="paint7_linear_3306_57662" x1="1014.85" y1="52.4006" x2="1014.85" y2="151.001" gradientUnits="userSpaceOnUse">
            <stop stop-color="#7275B6"/>
            <stop offset="1" stop-color="#323350"/>
        </linearGradient>
        <linearGradient id="paint8_linear_3306_57662" x1="1148.85" y1="101.7" x2="1148.85" y2="201.15" gradientUnits="userSpaceOnUse">
            <stop stop-color="#7275B6"/>
            <stop offset="1" stop-color="#323350"/>
        </linearGradient>
        <linearGradient id="paint9_linear_3306_57662" x1="1284.85" y1="52.4006" x2="1284.85" y2="151.001" gradientUnits="userSpaceOnUse">
            <stop stop-color="#7275B6"/>
            <stop offset="1" stop-color="#323350"/>
        </linearGradient>
        <clipPath id="clip0_3306_57662">
            <rect width="1316" height="202" fill="white"/>
        </clipPath>
    </defs>
</svg>
