<svg width="810" height="410" viewBox="0 0 810 410" fill="none" xmlns="http://www.w3.org/2000/svg">
<g clip-path="url(#clip0_3305_55375)">
<g clip-path="url(#clip1_3305_55375)">
<path opacity="0.4" d="M132.376 156.713V308.269L267.663 357.932V206.375L132.376 156.713Z" fill="#212245"/>
<path opacity="0.1" d="M133.232 156.713V307.624L-3.76794 357.075V258.607L133.232 156.713Z" fill="#775088"/>
<path opacity="0.5" d="M131.52 309.125V257.75L-3.76794 357.931L131.52 309.125Z" fill="url(#paint0_linear_3305_55375)"/>
<path opacity="0.5" d="M267.663 258.606V308.269L131.52 205.519L267.663 258.606Z" fill="url(#paint1_linear_3305_55375)"/>
<path d="M267.663 206.375L132.376 156.713L-3.76794 258.607H267.663M267.663 206.375V258.607M267.663 206.375H131.948M267.663 258.607V308.269M-3.76794 308.269H131.948M267.663 308.269V357.932L131.948 308.269M267.663 308.269H131.948M131.948 308.269V206.375M131.948 206.375H-3.76794V357.932" stroke="#775088" stroke-width="0.85625"/>
<path d="M131.52 258.606L-3.76794 357.075L131.52 308.269M266.807 258.606L131.52 205.519L266.807 308.269" stroke="#775088" stroke-width="0.85625"/>
<path opacity="0.4" d="M404.376 156.713V308.269L539.663 357.932V206.375L404.376 156.713Z" fill="#212245"/>
<path opacity="0.1" d="M405.232 156.713V307.624L268.232 357.075V258.607L405.232 156.713Z" fill="#775088"/>
<path opacity="0.5" d="M403.52 309.125V257.75L268.232 357.931L403.52 309.125Z" fill="url(#paint2_linear_3305_55375)"/>
<path opacity="0.5" d="M539.663 258.606V308.269L403.52 205.519L539.663 258.606Z" fill="url(#paint3_linear_3305_55375)"/>
<path d="M539.663 206.375L404.376 156.713L268.232 258.607H539.663M539.663 206.375V258.607M539.663 206.375H403.948M539.663 258.607V308.269M268.232 308.269H403.948M539.663 308.269V357.932L403.948 308.269M539.663 308.269H403.948M403.948 308.269V206.375M403.948 206.375H268.232V357.932" stroke="#775088" stroke-width="0.85625"/>
<path d="M403.52 258.606L268.232 357.075L403.52 308.269M538.807 258.606L403.52 205.519L538.807 308.269" stroke="#775088" stroke-width="0.85625"/>
<path opacity="0.4" d="M676.376 156.713V308.269L811.663 357.932V206.375L676.376 156.713Z" fill="#212245"/>
<path opacity="0.1" d="M677.232 156.713V307.624L540.232 357.075V258.607L677.232 156.713Z" fill="#775088"/>
<path opacity="0.5" d="M675.52 309.125V257.75L540.232 357.931L675.52 309.125Z" fill="url(#paint4_linear_3305_55375)"/>
<path opacity="0.5" d="M811.663 258.606V308.269L675.52 205.519L811.663 258.606Z" fill="url(#paint5_linear_3305_55375)"/>
<path d="M811.663 206.375L676.376 156.713L540.232 258.607H811.663M811.663 206.375V258.607M811.663 206.375H675.948M811.663 258.607V308.269M540.232 308.269H675.948M811.663 308.269V357.932L675.948 308.269M811.663 308.269H675.948M675.948 308.269V206.375M675.948 206.375H540.232V357.932" stroke="#775088" stroke-width="0.85625"/>
<path d="M675.52 258.606L540.232 357.075L675.52 308.269M810.807 258.606L675.52 205.519L810.807 308.269" stroke="#775088" stroke-width="0.85625"/>
</g>
<g opacity="0.5">
<g clip-path="url(#clip2_3305_55375)">
<path opacity="0.4" d="M132.376 308.713V460.269L267.663 509.932V358.375L132.376 308.713Z" fill="#212245"/>
<path opacity="0.1" d="M133.232 308.713V459.624L-3.76794 509.075V410.607L133.232 308.713Z" fill="#775088"/>
<path opacity="0.5" d="M131.52 461.125V409.75L-3.76794 509.931L131.52 461.125Z" fill="url(#paint6_linear_3305_55375)"/>
<path opacity="0.5" d="M267.663 410.606V460.269L131.52 357.519L267.663 410.606Z" fill="url(#paint7_linear_3305_55375)"/>
<path d="M267.663 358.375L132.376 308.713L-3.76794 410.607H267.663M267.663 358.375V410.607M267.663 358.375H131.948M267.663 410.607V460.269M-3.76794 460.269H131.948M267.663 460.269V509.932L131.948 460.269M267.663 460.269H131.948M131.948 460.269V358.375M131.948 358.375H-3.76794V509.932" stroke="#775088" stroke-width="0.85625"/>
<path d="M131.52 410.606L-3.76794 509.075L131.52 460.269M266.807 410.606L131.52 357.519L266.807 460.269" stroke="#775088" stroke-width="0.85625"/>
<path opacity="0.4" d="M404.376 308.713V460.269L539.663 509.932V358.375L404.376 308.713Z" fill="#212245"/>
<path opacity="0.1" d="M405.232 308.713V459.624L268.232 509.075V410.607L405.232 308.713Z" fill="#775088"/>
<path opacity="0.5" d="M403.52 461.125V409.75L268.232 509.931L403.52 461.125Z" fill="url(#paint8_linear_3305_55375)"/>
<path opacity="0.5" d="M539.663 410.606V460.269L403.52 357.519L539.663 410.606Z" fill="url(#paint9_linear_3305_55375)"/>
<path d="M539.663 358.375L404.376 308.713L268.232 410.607H539.663M539.663 358.375V410.607M539.663 358.375H403.948M539.663 410.607V460.269M268.232 460.269H403.948M539.663 460.269V509.932L403.948 460.269M539.663 460.269H403.948M403.948 460.269V358.375M403.948 358.375H268.232V509.932" stroke="#775088" stroke-width="0.85625"/>
<path d="M403.52 410.606L268.232 509.075L403.52 460.269M538.807 410.606L403.52 357.519L538.807 460.269" stroke="#775088" stroke-width="0.85625"/>
<path opacity="0.4" d="M676.376 308.713V460.269L811.663 509.932V358.375L676.376 308.713Z" fill="#212245"/>
<path opacity="0.1" d="M677.232 308.713V459.624L540.232 509.075V410.607L677.232 308.713Z" fill="#775088"/>
<path opacity="0.5" d="M675.52 461.125V409.75L540.232 509.931L675.52 461.125Z" fill="url(#paint10_linear_3305_55375)"/>
<path opacity="0.5" d="M811.663 410.606V460.269L675.52 357.519L811.663 410.606Z" fill="url(#paint11_linear_3305_55375)"/>
<path d="M811.663 358.375L676.376 308.713L540.232 410.607H811.663M811.663 358.375V410.607M811.663 358.375H675.948M811.663 410.607V460.269M540.232 460.269H675.948M811.663 460.269V509.932L675.948 460.269M811.663 460.269H675.948M675.948 460.269V358.375M675.948 358.375H540.232V509.932" stroke="#775088" stroke-width="0.85625"/>
<path d="M675.52 410.606L540.232 509.075L675.52 460.269M810.807 410.606L675.52 357.519L810.807 460.269" stroke="#775088" stroke-width="0.85625"/>
</g>
</g>
<g opacity="0.5">
<g clip-path="url(#clip3_3305_55375)">
<path opacity="0.4" d="M676.376 5.71289V157.269L811.663 206.932V55.3754L676.376 5.71289Z" fill="#212245"/>
<path opacity="0.1" d="M677.232 5.71289V156.624L540.232 206.075V107.607L677.232 5.71289Z" fill="#775088"/>
<path opacity="0.5" d="M675.52 158.125V106.75L540.232 206.931L675.52 158.125Z" fill="url(#paint12_linear_3305_55375)"/>
<path opacity="0.5" d="M811.663 107.606V157.269L675.52 54.5186L811.663 107.606Z" fill="url(#paint13_linear_3305_55375)"/>
<path d="M811.663 55.3754L676.376 5.71289L540.232 107.607H811.663M811.663 55.3754V107.607M811.663 55.3754H675.948M811.663 107.607V157.269M540.232 157.269H675.948M811.663 157.269V206.932L675.948 157.269M811.663 157.269H675.948M675.948 157.269V55.3754M675.948 55.3754H540.232V206.932" stroke="#775088" stroke-width="0.85625"/>
<path d="M675.52 107.606L540.232 206.075L675.52 157.269M810.807 107.606L675.52 54.5186L810.807 157.269" stroke="#775088" stroke-width="0.85625"/>
</g>
</g>
</g>
<defs>
<linearGradient id="paint0_linear_3305_55375" x1="63.8758" y1="257.75" x2="63.8758" y2="357.931" gradientUnits="userSpaceOnUse">
<stop stop-color="#4D2D6C"/>
<stop offset="1" stop-color="#323350"/>
</linearGradient>
<linearGradient id="paint1_linear_3305_55375" x1="200.876" y1="208.087" x2="200.876" y2="307.412" gradientUnits="userSpaceOnUse">
<stop stop-color="#653787"/>
<stop offset="1" stop-color="#323350"/>
</linearGradient>
<linearGradient id="paint2_linear_3305_55375" x1="335.876" y1="257.75" x2="335.876" y2="357.931" gradientUnits="userSpaceOnUse">
<stop stop-color="#4D2D6C"/>
<stop offset="1" stop-color="#323350"/>
</linearGradient>
<linearGradient id="paint3_linear_3305_55375" x1="472.876" y1="208.087" x2="472.876" y2="307.412" gradientUnits="userSpaceOnUse">
<stop stop-color="#653787"/>
<stop offset="1" stop-color="#323350"/>
</linearGradient>
<linearGradient id="paint4_linear_3305_55375" x1="607.876" y1="257.75" x2="607.876" y2="357.931" gradientUnits="userSpaceOnUse">
<stop stop-color="#4D2D6C"/>
<stop offset="1" stop-color="#323350"/>
</linearGradient>
<linearGradient id="paint5_linear_3305_55375" x1="744.876" y1="208.087" x2="744.876" y2="307.412" gradientUnits="userSpaceOnUse">
<stop stop-color="#653787"/>
<stop offset="1" stop-color="#323350"/>
</linearGradient>
<linearGradient id="paint6_linear_3305_55375" x1="63.8758" y1="409.75" x2="63.8758" y2="509.931" gradientUnits="userSpaceOnUse">
<stop stop-color="#4D2D6C"/>
<stop offset="1" stop-color="#323350"/>
</linearGradient>
<linearGradient id="paint7_linear_3305_55375" x1="200.876" y1="360.087" x2="200.876" y2="459.412" gradientUnits="userSpaceOnUse">
<stop stop-color="#653787"/>
<stop offset="1" stop-color="#323350"/>
</linearGradient>
<linearGradient id="paint8_linear_3305_55375" x1="335.876" y1="409.75" x2="335.876" y2="509.931" gradientUnits="userSpaceOnUse">
<stop stop-color="#4D2D6C"/>
<stop offset="1" stop-color="#323350"/>
</linearGradient>
<linearGradient id="paint9_linear_3305_55375" x1="472.876" y1="360.087" x2="472.876" y2="459.412" gradientUnits="userSpaceOnUse">
<stop stop-color="#653787"/>
<stop offset="1" stop-color="#323350"/>
</linearGradient>
<linearGradient id="paint10_linear_3305_55375" x1="607.876" y1="409.75" x2="607.876" y2="509.931" gradientUnits="userSpaceOnUse">
<stop stop-color="#4D2D6C"/>
<stop offset="1" stop-color="#323350"/>
</linearGradient>
<linearGradient id="paint11_linear_3305_55375" x1="744.876" y1="360.087" x2="744.876" y2="459.412" gradientUnits="userSpaceOnUse">
<stop stop-color="#653787"/>
<stop offset="1" stop-color="#323350"/>
</linearGradient>
<linearGradient id="paint12_linear_3305_55375" x1="607.876" y1="106.75" x2="607.876" y2="206.931" gradientUnits="userSpaceOnUse">
<stop stop-color="#4D2D6C"/>
<stop offset="1" stop-color="#323350"/>
</linearGradient>
<linearGradient id="paint13_linear_3305_55375" x1="744.876" y1="57.0873" x2="744.876" y2="156.412" gradientUnits="userSpaceOnUse">
<stop stop-color="#653787"/>
<stop offset="1" stop-color="#323350"/>
</linearGradient>
<clipPath id="clip0_3305_55375">
<path d="M0 0H810V398C810 404.627 804.627 410 798 410H12C5.37257 410 0 404.627 0 398V0Z" fill="white"/>
</clipPath>
<clipPath id="clip1_3305_55375">
<path d="M0 155H810V341C810 349.837 802.837 357 794 357H16C7.16345 357 0 349.837 0 341V155Z" fill="white"/>
</clipPath>
<clipPath id="clip2_3305_55375">
<path d="M0 307H810V461C810 469.837 802.837 477 794 477H16C7.16345 477 0 469.837 0 461V307Z" fill="white"/>
</clipPath>
<clipPath id="clip3_3305_55375">
<path d="M0 4H810V239C810 247.837 802.837 255 794 255H16C7.16345 255 0 247.837 0 239V4Z" fill="white"/>
</clipPath>
</defs>
</svg>
