<svg width="2178" height="815" viewBox="0 0 2178 815" fill="none" xmlns="http://www.w3.org/2000/svg">
    <g opacity="0.25" clip-path="url(#clip0_5308_169891)">
        <g opacity="0.4">
            <path opacity="0.4" d="M1497.38 1.71094V153.267L1632.66 202.93V51.3734L1497.38 1.71094Z" fill="#C6C7E2"/>
            <path opacity="0.1" d="M1498.23 1.71094V152.622L1361.23 202.073V103.605L1498.23 1.71094Z" fill="#C6C7E2"/>
            <path opacity="0.5" d="M1496.52 154.125V102.75L1361.23 202.931L1496.52 154.125Z" fill="#C6C7E2"/>
            <path opacity="0.5" d="M1632.66 103.607V153.27L1496.52 50.5195L1632.66 103.607Z" fill="#C6C7E2"/>
            <path d="M1632.66 51.3734L1497.38 1.71094L1361.23 103.605L1632.66 103.605M1632.66 51.3734V103.605M1632.66 51.3734H1496.95M1632.66 103.605V153.267M1361.23 153.267H1496.95M1632.66 153.267V202.93L1496.95 153.267M1632.66 153.267H1496.95M1496.95 153.267V51.3734M1496.95 51.3734L1361.23 51.3734V202.93" stroke="#C6C7E2" stroke-width="0.85625"/>
            <path d="M1496.52 103.607L1361.23 202.076L1496.52 153.27M1631.81 103.607L1496.52 50.5195L1631.81 153.27" stroke="#C6C7E2" stroke-width="0.85625"/>
        </g>
        <path opacity="0.4" d="M1769.38 1.71094V153.267L1904.66 202.93V51.3734L1769.38 1.71094Z" fill="#C6C7E2"/>
        <path opacity="0.1" d="M1770.23 1.71094V152.622L1633.23 202.073V103.605L1770.23 1.71094Z" fill="#C6C7E2"/>
        <path opacity="0.5" d="M1768.52 154.125V102.75L1633.23 202.931L1768.52 154.125Z" fill="#C6C7E2"/>
        <path opacity="0.5" d="M1904.66 103.607V153.27L1768.52 50.5195L1904.66 103.607Z" fill="#C6C7E2"/>
        <path d="M1904.66 51.3734L1769.38 1.71094L1633.23 103.605L1904.66 103.605M1904.66 51.3734V103.605M1904.66 51.3734H1768.95M1904.66 103.605V153.267M1633.23 153.267H1768.95M1904.66 153.267V202.93L1768.95 153.267M1904.66 153.267H1768.95M1768.95 153.267V51.3734M1768.95 51.3734L1633.23 51.3734V202.93" stroke="#C6C7E2" stroke-width="0.85625"/>
        <path d="M1768.52 103.607L1633.23 202.076L1768.52 153.27M1903.81 103.607L1768.52 50.5195L1903.81 153.27" stroke="#C6C7E2" stroke-width="0.85625"/>
        <g opacity="0.5">
            <path opacity="0.4" d="M2041.38 1.71094V153.267L2176.66 202.93V51.3734L2041.38 1.71094Z" fill="#C6C7E2"/>
            <path opacity="0.1" d="M2042.23 1.71094V152.622L1905.23 202.073V103.605L2042.23 1.71094Z" fill="#C6C7E2"/>
            <path opacity="0.5" d="M2040.52 154.125V102.75L1905.23 202.931L2040.52 154.125Z" fill="#C6C7E2"/>
            <path opacity="0.5" d="M2176.66 103.607V153.27L2040.52 50.5195L2176.66 103.607Z" fill="#C6C7E2"/>
            <path d="M2176.66 51.3734L2041.38 1.71094L1905.23 103.605L2176.66 103.605M2176.66 51.3734V103.605M2176.66 51.3734H2040.95M2176.66 103.605V153.267M1905.23 153.267H2040.95M2176.66 153.267V202.93L2040.95 153.267M2176.66 153.267H2040.95M2040.95 153.267V51.3734M2040.95 51.3734L1905.23 51.3734V202.93" stroke="#C6C7E2" stroke-width="0.85625"/>
            <path d="M2040.52 103.607L1905.23 202.076L2040.52 153.27M2175.81 103.607L2040.52 50.5195L2175.81 153.27" stroke="#C6C7E2" stroke-width="0.85625"/>
        </g>
        <g opacity="0.4">
            <path opacity="0.4" d="M1225.38 154.711V306.267L1360.66 355.93V204.373L1225.38 154.711Z" fill="#C6C7E2"/>
            <path opacity="0.1" d="M1226.23 154.711V305.622L1089.23 355.073V256.605L1226.23 154.711Z" fill="#C6C7E2"/>
            <path opacity="0.5" d="M1224.52 307.125V255.75L1089.23 355.931L1224.52 307.125Z" fill="#C6C7E2"/>
            <path opacity="0.5" d="M1360.66 256.607V306.27L1224.52 203.52L1360.66 256.607Z" fill="#C6C7E2"/>
            <path d="M1360.66 204.373L1225.38 154.711L1089.23 256.605H1360.66M1360.66 204.373V256.605M1360.66 204.373H1224.95M1360.66 256.605V306.267M1089.23 306.267H1224.95M1360.66 306.267V355.93L1224.95 306.267M1360.66 306.267H1224.95M1224.95 306.267V204.373M1224.95 204.373H1089.23V355.93" stroke="#C6C7E2" stroke-width="0.85625"/>
            <path d="M1224.52 256.607L1089.23 355.076L1224.52 306.27M1359.81 256.607L1224.52 203.52L1359.81 306.27" stroke="#C6C7E2" stroke-width="0.85625"/>
        </g>
        <path opacity="0.4" d="M1497.38 154.711V306.267L1632.66 355.93V204.373L1497.38 154.711Z" fill="#C6C7E2"/>
        <path opacity="0.1" d="M1498.23 154.711V305.622L1361.23 355.073V256.605L1498.23 154.711Z" fill="#C6C7E2"/>
        <path opacity="0.5" d="M1496.52 307.125V255.75L1361.23 355.931L1496.52 307.125Z" fill="#C6C7E2"/>
        <path opacity="0.5" d="M1632.66 256.607V306.27L1496.52 203.52L1632.66 256.607Z" fill="#C6C7E2"/>
        <path d="M1632.66 204.373L1497.38 154.711L1361.23 256.605H1632.66M1632.66 204.373V256.605M1632.66 204.373H1496.95M1632.66 256.605V306.267M1361.23 306.267H1496.95M1632.66 306.267V355.93L1496.95 306.267M1632.66 306.267H1496.95M1496.95 306.267V204.373M1496.95 204.373H1361.23V355.93" stroke="#C6C7E2" stroke-width="0.85625"/>
        <path d="M1496.52 256.607L1361.23 355.076L1496.52 306.27M1631.81 256.607L1496.52 203.52L1631.81 306.27" stroke="#C6C7E2" stroke-width="0.85625"/>
        <g opacity="0.4">
            <path opacity="0.4" d="M1769.38 154.711V306.267L1904.66 355.93V204.373L1769.38 154.711Z" fill="#C6C7E2"/>
            <path opacity="0.1" d="M1770.23 154.711V305.622L1633.23 355.073V256.605L1770.23 154.711Z" fill="#C6C7E2"/>
            <path opacity="0.5" d="M1768.52 307.125V255.75L1633.23 355.931L1768.52 307.125Z" fill="#C6C7E2"/>
            <path opacity="0.5" d="M1904.66 256.607V306.27L1768.52 203.52L1904.66 256.607Z" fill="#C6C7E2"/>
            <path d="M1904.66 204.373L1769.38 154.711L1633.23 256.605H1904.66M1904.66 204.373V256.605M1904.66 204.373H1768.95M1904.66 256.605V306.267M1633.23 306.267H1768.95M1904.66 306.267V355.93L1768.95 306.267M1904.66 306.267H1768.95M1768.95 306.267V204.373M1768.95 204.373H1633.23V355.93" stroke="#C6C7E2" stroke-width="0.85625"/>
            <path d="M1768.52 256.607L1633.23 355.076L1768.52 306.27M1903.81 256.607L1768.52 203.52L1903.81 306.27" stroke="#C6C7E2" stroke-width="0.85625"/>
        </g>
        <g opacity="0.5">
            <path opacity="0.4" d="M2041.38 154.711V306.267L2176.66 355.93V204.373L2041.38 154.711Z" fill="#C6C7E2"/>
            <path opacity="0.1" d="M2042.23 154.711V305.622L1905.23 355.073V256.605L2042.23 154.711Z" fill="#C6C7E2"/>
            <path opacity="0.5" d="M2040.52 307.125V255.75L1905.23 355.931L2040.52 307.125Z" fill="#C6C7E2"/>
            <path opacity="0.5" d="M2176.66 256.607V306.27L2040.52 203.52L2176.66 256.607Z" fill="#C6C7E2"/>
            <path d="M2176.66 204.373L2041.38 154.711L1905.23 256.605H2176.66M2176.66 204.373V256.605M2176.66 204.373H2040.95M2176.66 256.605V306.267M1905.23 306.267H2040.95M2176.66 306.267V355.93L2040.95 306.267M2176.66 306.267H2040.95M2040.95 306.267V204.373M2040.95 204.373H1905.23V355.93" stroke="#C6C7E2" stroke-width="0.85625"/>
            <path d="M2040.52 256.607L1905.23 355.076L2040.52 306.27M2175.81 256.607L2040.52 203.52L2175.81 306.27" stroke="#C6C7E2" stroke-width="0.85625"/>
        </g>
        <g opacity="0.4">
            <path opacity="0.4" d="M953.376 307.711V459.267L1088.66 508.93V357.373L953.376 307.711Z" fill="#C6C7E2"/>
            <path opacity="0.1" d="M954.233 307.711V458.622L817.233 508.073V409.605L954.233 307.711Z" fill="#C6C7E2"/>
            <path opacity="0.5" d="M952.52 460.125V408.75L817.233 508.931L952.52 460.125Z" fill="#C6C7E2"/>
            <path opacity="0.5" d="M1088.66 409.607V459.27L952.52 356.52L1088.66 409.607Z" fill="#C6C7E2"/>
            <path d="M1088.66 357.373L953.376 307.711L817.233 409.605H1088.66M1088.66 357.373V409.605M1088.66 357.373H952.948M1088.66 409.605V459.267M817.233 459.267H952.948M1088.66 459.267V508.93L952.948 459.267M1088.66 459.267H952.948M952.948 459.267V357.373M952.948 357.373H817.233V508.93" stroke="#C6C7E2" stroke-width="0.85625"/>
            <path d="M952.52 409.607L817.233 508.076L952.52 459.27M1087.81 409.607L952.52 356.52L1087.81 459.27" stroke="#C6C7E2" stroke-width="0.85625"/>
        </g>
        <g opacity="0.4">
            <path opacity="0.4" d="M1225.38 307.711V459.267L1360.66 508.93V357.373L1225.38 307.711Z" fill="#C6C7E2"/>
            <path opacity="0.1" d="M1226.23 307.711V458.622L1089.23 508.073V409.605L1226.23 307.711Z" fill="#C6C7E2"/>
            <path opacity="0.5" d="M1224.52 460.125V408.75L1089.23 508.931L1224.52 460.125Z" fill="#C6C7E2"/>
            <path opacity="0.5" d="M1360.66 409.607V459.27L1224.52 356.52L1360.66 409.607Z" fill="#C6C7E2"/>
            <path d="M1360.66 357.373L1225.38 307.711L1089.23 409.605H1360.66M1360.66 357.373V409.605M1360.66 357.373H1224.95M1360.66 409.605V459.267M1089.23 459.267H1224.95M1360.66 459.267V508.93L1224.95 459.267M1360.66 459.267H1224.95M1224.95 459.267V357.373M1224.95 357.373H1089.23V508.93" stroke="#C6C7E2" stroke-width="0.85625"/>
            <path d="M1224.52 409.607L1089.23 508.076L1224.52 459.27M1359.81 409.607L1224.52 356.52L1359.81 459.27" stroke="#C6C7E2" stroke-width="0.85625"/>
        </g>
        <g opacity="0.4">
            <path opacity="0.4" d="M1497.38 307.711V459.267L1632.66 508.93V357.373L1497.38 307.711Z" fill="#C6C7E2"/>
            <path opacity="0.1" d="M1498.23 307.711V458.622L1361.23 508.073V409.605L1498.23 307.711Z" fill="#C6C7E2"/>
            <path opacity="0.5" d="M1496.52 460.125V408.75L1361.23 508.931L1496.52 460.125Z" fill="#C6C7E2"/>
            <path opacity="0.5" d="M1632.66 409.607V459.27L1496.52 356.52L1632.66 409.607Z" fill="#C6C7E2"/>
            <path d="M1632.66 357.373L1497.38 307.711L1361.23 409.605H1632.66M1632.66 357.373V409.605M1632.66 357.373H1496.95M1632.66 409.605V459.267M1361.23 459.267H1496.95M1632.66 459.267V508.93L1496.95 459.267M1632.66 459.267H1496.95M1496.95 459.267V357.373M1496.95 357.373H1361.23V508.93" stroke="#C6C7E2" stroke-width="0.85625"/>
            <path d="M1496.52 409.607L1361.23 508.076L1496.52 459.27M1631.81 409.607L1496.52 356.52L1631.81 459.27" stroke="#C6C7E2" stroke-width="0.85625"/>
        </g>
        <path opacity="0.4" d="M1769.38 307.711V459.267L1904.66 508.93V357.373L1769.38 307.711Z" fill="#C6C7E2"/>
        <path opacity="0.1" d="M1770.23 307.711V458.622L1633.23 508.073V409.605L1770.23 307.711Z" fill="#C6C7E2"/>
        <path opacity="0.5" d="M1768.52 460.125V408.75L1633.23 508.931L1768.52 460.125Z" fill="#C6C7E2"/>
        <path opacity="0.5" d="M1904.66 409.607V459.27L1768.52 356.52L1904.66 409.607Z" fill="#C6C7E2"/>
        <path d="M1904.66 357.373L1769.38 307.711L1633.23 409.605H1904.66M1904.66 357.373V409.605M1904.66 357.373H1768.95M1904.66 409.605V459.267M1633.23 459.267H1768.95M1904.66 459.267V508.93L1768.95 459.267M1904.66 459.267H1768.95M1768.95 459.267V357.373M1768.95 357.373H1633.23V508.93" stroke="#C6C7E2" stroke-width="0.85625"/>
        <path d="M1768.52 409.607L1633.23 508.076L1768.52 459.27M1903.81 409.607L1768.52 356.52L1903.81 459.27" stroke="#C6C7E2" stroke-width="0.85625"/>
        <g opacity="0.5">
            <path opacity="0.4" d="M2041.38 307.711V459.267L2176.66 508.93V357.373L2041.38 307.711Z" fill="#C6C7E2"/>
            <path opacity="0.1" d="M2042.23 307.711V458.622L1905.23 508.073V409.605L2042.23 307.711Z" fill="#C6C7E2"/>
            <path opacity="0.5" d="M2040.52 460.125V408.75L1905.23 508.931L2040.52 460.125Z" fill="#C6C7E2"/>
            <path opacity="0.5" d="M2176.66 409.607V459.27L2040.52 356.52L2176.66 409.607Z" fill="#C6C7E2"/>
            <path d="M2176.66 357.373L2041.38 307.711L1905.23 409.605H2176.66M2176.66 357.373V409.605M2176.66 357.373H2040.95M2176.66 409.605V459.267M1905.23 459.267H2040.95M2176.66 459.267V508.93L2040.95 459.267M2176.66 459.267H2040.95M2040.95 459.267V357.373M2040.95 357.373H1905.23V508.93" stroke="#C6C7E2" stroke-width="0.85625"/>
            <path d="M2040.52 409.607L1905.23 508.076L2040.52 459.27M2175.81 409.607L2040.52 356.52L2175.81 459.27" stroke="#C6C7E2" stroke-width="0.85625"/>
        </g>
        <g opacity="0.4">
            <path opacity="0.4" d="M681.376 460.711V612.267L816.664 661.93V510.373L681.376 460.711Z" fill="#C6C7E2"/>
            <path opacity="0.1" d="M682.233 460.711V611.622L545.233 661.073V562.605L682.233 460.711Z" fill="#C6C7E2"/>
            <path opacity="0.5" d="M680.52 613.125V561.75L545.233 661.931L680.52 613.125Z" fill="#C6C7E2"/>
            <path opacity="0.5" d="M816.664 562.607V612.27L680.52 509.52L816.664 562.607Z" fill="#C6C7E2"/>
            <path d="M816.664 510.373L681.376 460.711L545.233 562.605H816.664M816.664 510.373V562.605M816.664 510.373H680.948M816.664 562.605V612.267M545.233 612.267H680.948M816.664 612.267V661.93L680.948 612.267M816.664 612.267H680.948M680.948 612.267V510.373M680.948 510.373H545.233V661.93" stroke="#C6C7E2" stroke-width="0.85625"/>
            <path d="M680.52 562.607L545.233 661.076L680.52 612.27M815.808 562.607L680.52 509.52L815.808 612.27" stroke="#C6C7E2" stroke-width="0.85625"/>
        </g>
        <g opacity="0.4">
            <path opacity="0.4" d="M953.376 460.711V612.267L1088.66 661.93V510.373L953.376 460.711Z" fill="#C6C7E2"/>
            <path opacity="0.1" d="M954.233 460.711V611.622L817.233 661.073V562.605L954.233 460.711Z" fill="#C6C7E2"/>
            <path opacity="0.5" d="M952.52 613.125V561.75L817.233 661.931L952.52 613.125Z" fill="#C6C7E2"/>
            <path opacity="0.5" d="M1088.66 562.607V612.27L952.52 509.52L1088.66 562.607Z" fill="#C6C7E2"/>
            <path d="M1088.66 510.373L953.376 460.711L817.233 562.605H1088.66M1088.66 510.373V562.605M1088.66 510.373H952.948M1088.66 562.605V612.267M817.233 612.267H952.948M1088.66 612.267V661.93L952.948 612.267M1088.66 612.267H952.948M952.948 612.267V510.373M952.948 510.373H817.233V661.93" stroke="#C6C7E2" stroke-width="0.85625"/>
            <path d="M952.52 562.607L817.233 661.076L952.52 612.27M1087.81 562.607L952.52 509.52L1087.81 612.27" stroke="#C6C7E2" stroke-width="0.85625"/>
        </g>
        <g opacity="0.4">
            <path opacity="0.4" d="M1225.38 460.711V612.267L1360.66 661.93V510.373L1225.38 460.711Z" fill="#C6C7E2"/>
            <path opacity="0.1" d="M1226.23 460.711V611.622L1089.23 661.073V562.605L1226.23 460.711Z" fill="#C6C7E2"/>
            <path opacity="0.5" d="M1224.52 613.125V561.75L1089.23 661.931L1224.52 613.125Z" fill="#C6C7E2"/>
            <path opacity="0.5" d="M1360.66 562.607V612.27L1224.52 509.52L1360.66 562.607Z" fill="#C6C7E2"/>
            <path d="M1360.66 510.373L1225.38 460.711L1089.23 562.605H1360.66M1360.66 510.373V562.605M1360.66 510.373H1224.95M1360.66 562.605V612.267M1089.23 612.267H1224.95M1360.66 612.267V661.93L1224.95 612.267M1360.66 612.267H1224.95M1224.95 612.267V510.373M1224.95 510.373H1089.23V661.93" stroke="#C6C7E2" stroke-width="0.85625"/>
            <path d="M1224.52 562.607L1089.23 661.076L1224.52 612.27M1359.81 562.607L1224.52 509.52L1359.81 612.27" stroke="#C6C7E2" stroke-width="0.85625"/>
        </g>
        <path opacity="0.4" d="M1497.38 460.711V612.267L1632.66 661.93V510.373L1497.38 460.711Z" fill="#C6C7E2"/>
        <path opacity="0.1" d="M1498.23 460.711V611.622L1361.23 661.073V562.605L1498.23 460.711Z" fill="#C6C7E2"/>
        <path opacity="0.5" d="M1496.52 613.125V561.75L1361.23 661.931L1496.52 613.125Z" fill="#C6C7E2"/>
        <path opacity="0.5" d="M1632.66 562.607V612.27L1496.52 509.52L1632.66 562.607Z" fill="#C6C7E2"/>
        <path d="M1632.66 510.373L1497.38 460.711L1361.23 562.605H1632.66M1632.66 510.373V562.605M1632.66 510.373H1496.95M1632.66 562.605V612.267M1361.23 612.267H1496.95M1632.66 612.267V661.93L1496.95 612.267M1632.66 612.267H1496.95M1496.95 612.267V510.373M1496.95 510.373H1361.23V661.93" stroke="#C6C7E2" stroke-width="0.85625"/>
        <path d="M1496.52 562.607L1361.23 661.076L1496.52 612.27M1631.81 562.607L1496.52 509.52L1631.81 612.27" stroke="#C6C7E2" stroke-width="0.85625"/>
        <g opacity="0.4">
            <path opacity="0.4" d="M1769.38 460.711V612.267L1904.66 661.93V510.373L1769.38 460.711Z" fill="#C6C7E2"/>
            <path opacity="0.1" d="M1770.23 460.711V611.622L1633.23 661.073V562.605L1770.23 460.711Z" fill="#C6C7E2"/>
            <path opacity="0.5" d="M1768.52 613.125V561.75L1633.23 661.931L1768.52 613.125Z" fill="#C6C7E2"/>
            <path opacity="0.5" d="M1904.66 562.607V612.27L1768.52 509.52L1904.66 562.607Z" fill="#C6C7E2"/>
            <path d="M1904.66 510.373L1769.38 460.711L1633.23 562.605H1904.66M1904.66 510.373V562.605M1904.66 510.373H1768.95M1904.66 562.605V612.267M1633.23 612.267H1768.95M1904.66 612.267V661.93L1768.95 612.267M1904.66 612.267H1768.95M1768.95 612.267V510.373M1768.95 510.373H1633.23V661.93" stroke="#C6C7E2" stroke-width="0.85625"/>
            <path d="M1768.52 562.607L1633.23 661.076L1768.52 612.27M1903.81 562.607L1768.52 509.52L1903.81 612.27" stroke="#C6C7E2" stroke-width="0.85625"/>
        </g>
        <g opacity="0.5">
            <path opacity="0.4" d="M2041.38 460.711V612.267L2176.66 661.93V510.373L2041.38 460.711Z" fill="#C6C7E2"/>
            <path opacity="0.1" d="M2042.23 460.711V611.622L1905.23 661.073V562.605L2042.23 460.711Z" fill="#C6C7E2"/>
            <path opacity="0.5" d="M2040.52 613.125V561.75L1905.23 661.931L2040.52 613.125Z" fill="#C6C7E2"/>
            <path opacity="0.5" d="M2176.66 562.607V612.27L2040.52 509.52L2176.66 562.607Z" fill="#C6C7E2"/>
            <path d="M2176.66 510.373L2041.38 460.711L1905.23 562.605H2176.66M2176.66 510.373V562.605M2176.66 510.373H2040.95M2176.66 562.605V612.267M1905.23 612.267H2040.95M2176.66 612.267V661.93L2040.95 612.267M2176.66 612.267H2040.95M2040.95 612.267V510.373M2040.95 510.373H1905.23V661.93" stroke="#C6C7E2" stroke-width="0.85625"/>
            <path d="M2040.52 562.607L1905.23 661.076L2040.52 612.27M2175.81 562.607L2040.52 509.52L2175.81 612.27" stroke="#C6C7E2" stroke-width="0.85625"/>
        </g>
        <g opacity="0.5">
            <g opacity="0.5">
                <path opacity="0.4" d="M137.856 612.711V764.267L273.144 813.93V662.373L137.856 612.711Z" fill="#C6C7E2"/>
                <path opacity="0.1" d="M138.712 612.711V763.622L1.7124 813.073V714.605L138.712 612.711Z" fill="#C6C7E2"/>
                <path opacity="0.5" d="M137 765.125V713.75L1.7124 813.931L137 765.125Z" fill="#C6C7E2"/>
                <path opacity="0.5" d="M273.144 714.607V764.27L137 661.52L273.144 714.607Z" fill="#C6C7E2"/>
                <path d="M273.144 662.373L137.856 612.711L1.7124 714.605H273.144M273.144 662.373V714.605M273.144 662.373H137.428M273.144 714.605V764.267M1.7124 764.267H137.428M273.144 764.267V813.93L137.428 764.267M273.144 764.267H137.428M137.428 764.267V662.373M137.428 662.373H1.7124L1.7124 813.93" stroke="#C6C7E2" stroke-width="0.85625"/>
                <path d="M137 714.607L1.7124 813.076L137 764.27M272.287 714.607L137 661.52L272.287 764.27" stroke="#C6C7E2" stroke-width="0.85625"/>
            </g>
            <g opacity="0.5">
                <path opacity="0.4" d="M409.856 612.711V764.267L545.144 813.93V662.373L409.856 612.711Z" fill="#C6C7E2"/>
                <path opacity="0.1" d="M410.712 612.711V763.622L273.712 813.073V714.605L410.712 612.711Z" fill="#C6C7E2"/>
                <path opacity="0.5" d="M409 765.125V713.75L273.712 813.931L409 765.125Z" fill="#C6C7E2"/>
                <path opacity="0.5" d="M545.144 714.607V764.27L409 661.52L545.144 714.607Z" fill="#C6C7E2"/>
                <path d="M545.144 662.373L409.856 612.711L273.712 714.605H545.144M545.144 662.373V714.605M545.144 662.373H409.428M545.144 714.605V764.267M273.712 764.267H409.428M545.144 764.267V813.93L409.428 764.267M545.144 764.267H409.428M409.428 764.267V662.373M409.428 662.373H273.712V813.93" stroke="#C6C7E2" stroke-width="0.85625"/>
                <path d="M409 714.607L273.712 813.076L409 764.27M544.287 714.607L409 661.52L544.287 764.27" stroke="#C6C7E2" stroke-width="0.85625"/>
            </g>
            <g opacity="0.5">
                <path opacity="0.4" d="M681.856 612.711V764.267L817.144 813.93V662.373L681.856 612.711Z" fill="#C6C7E2"/>
                <path opacity="0.1" d="M682.713 612.711V763.622L545.713 813.073V714.605L682.713 612.711Z" fill="#C6C7E2"/>
                <path opacity="0.5" d="M681 765.125V713.75L545.713 813.931L681 765.125Z" fill="#C6C7E2"/>
                <path opacity="0.5" d="M817.144 714.607V764.27L681 661.52L817.144 714.607Z" fill="#C6C7E2"/>
                <path d="M817.144 662.373L681.856 612.711L545.713 714.605H817.144M817.144 662.373V714.605M817.144 662.373H681.428M817.144 714.605V764.267M545.713 764.267H681.428M817.144 764.267V813.93L681.428 764.267M817.144 764.267H681.428M681.428 764.267V662.373M681.428 662.373H545.713V813.93" stroke="#C6C7E2" stroke-width="0.85625"/>
                <path d="M681 714.607L545.713 813.076L681 764.27M816.288 714.607L681 661.52L816.288 764.27" stroke="#C6C7E2" stroke-width="0.85625"/>
            </g>
            <g opacity="0.5">
                <path opacity="0.4" d="M953.856 612.711V764.267L1089.14 813.93V662.373L953.856 612.711Z" fill="#C6C7E2"/>
                <path opacity="0.1" d="M954.713 612.711V763.622L817.713 813.073V714.605L954.713 612.711Z" fill="#C6C7E2"/>
                <path opacity="0.5" d="M953 765.125V713.75L817.713 813.931L953 765.125Z" fill="#C6C7E2"/>
                <path opacity="0.5" d="M1089.14 714.607V764.27L953 661.52L1089.14 714.607Z" fill="#C6C7E2"/>
                <path d="M1089.14 662.373L953.856 612.711L817.713 714.605H1089.14M1089.14 662.373V714.605M1089.14 662.373H953.428M1089.14 714.605V764.267M817.713 764.267H953.428M1089.14 764.267V813.93L953.428 764.267M1089.14 764.267H953.428M953.428 764.267V662.373M953.428 662.373H817.713V813.93" stroke="#C6C7E2" stroke-width="0.85625"/>
                <path d="M953 714.607L817.713 813.076L953 764.27M1088.29 714.607L953 661.52L1088.29 764.27" stroke="#C6C7E2" stroke-width="0.85625"/>
            </g>
            <g opacity="0.5">
                <path opacity="0.4" d="M1225.86 612.711V764.267L1361.14 813.93V662.373L1225.86 612.711Z" fill="#C6C7E2"/>
                <path opacity="0.1" d="M1226.71 612.711V763.622L1089.71 813.073V714.605L1226.71 612.711Z" fill="#C6C7E2"/>
                <path opacity="0.5" d="M1225 765.125V713.75L1089.71 813.931L1225 765.125Z" fill="#C6C7E2"/>
                <path opacity="0.5" d="M1361.14 714.607V764.27L1225 661.52L1361.14 714.607Z" fill="#C6C7E2"/>
                <path d="M1361.14 662.373L1225.86 612.711L1089.71 714.605H1361.14M1361.14 662.373V714.605M1361.14 662.373H1225.43M1361.14 714.605V764.267M1089.71 764.267H1225.43M1361.14 764.267V813.93L1225.43 764.267M1361.14 764.267H1225.43M1225.43 764.267V662.373M1225.43 662.373H1089.71V813.93" stroke="#C6C7E2" stroke-width="0.85625"/>
                <path d="M1225 714.607L1089.71 813.076L1225 764.27M1360.29 714.607L1225 661.52L1360.29 764.27" stroke="#C6C7E2" stroke-width="0.85625"/>
            </g>
            <g opacity="0.5">
                <path opacity="0.4" d="M1497.86 612.711V764.267L1633.14 813.93V662.373L1497.86 612.711Z" fill="#C6C7E2"/>
                <path opacity="0.1" d="M1498.71 612.711V763.622L1361.71 813.073V714.605L1498.71 612.711Z" fill="#C6C7E2"/>
                <path opacity="0.5" d="M1497 765.125V713.75L1361.71 813.931L1497 765.125Z" fill="#C6C7E2"/>
                <path opacity="0.5" d="M1633.14 714.607V764.27L1497 661.52L1633.14 714.607Z" fill="#C6C7E2"/>
                <path d="M1633.14 662.373L1497.86 612.711L1361.71 714.605H1633.14M1633.14 662.373V714.605M1633.14 662.373H1497.43M1633.14 714.605V764.267M1361.71 764.267H1497.43M1633.14 764.267V813.93L1497.43 764.267M1633.14 764.267H1497.43M1497.43 764.267V662.373M1497.43 662.373H1361.71V813.93" stroke="#C6C7E2" stroke-width="0.85625"/>
                <path d="M1497 714.607L1361.71 813.076L1497 764.27M1632.29 714.607L1497 661.52L1632.29 764.27" stroke="#C6C7E2" stroke-width="0.85625"/>
            </g>
            <g opacity="0.5">
                <path opacity="0.4" d="M1769.86 612.711V764.267L1905.14 813.93V662.373L1769.86 612.711Z" fill="#C6C7E2"/>
                <path opacity="0.1" d="M1770.71 612.711V763.622L1633.71 813.073V714.605L1770.71 612.711Z" fill="#C6C7E2"/>
                <path opacity="0.5" d="M1769 765.125V713.75L1633.71 813.931L1769 765.125Z" fill="#C6C7E2"/>
                <path opacity="0.5" d="M1905.14 714.607V764.27L1769 661.52L1905.14 714.607Z" fill="#C6C7E2"/>
                <path d="M1905.14 662.373L1769.86 612.711L1633.71 714.605H1905.14M1905.14 662.373V714.605M1905.14 662.373H1769.43M1905.14 714.605V764.267M1633.71 764.267H1769.43M1905.14 764.267V813.93L1769.43 764.267M1905.14 764.267H1769.43M1769.43 764.267V662.373M1769.43 662.373H1633.71V813.93" stroke="#C6C7E2" stroke-width="0.85625"/>
                <path d="M1769 714.607L1633.71 813.076L1769 764.27M1904.29 714.607L1769 661.52L1904.29 764.27" stroke="#C6C7E2" stroke-width="0.85625"/>
            </g>
            <g opacity="0.5">
                <path opacity="0.4" d="M2041.86 612.711V764.267L2177.14 813.93V662.373L2041.86 612.711Z" fill="#C6C7E2"/>
                <path opacity="0.1" d="M2042.71 612.711V763.622L1905.71 813.073V714.605L2042.71 612.711Z" fill="#C6C7E2"/>
                <path opacity="0.5" d="M2041 765.125V713.75L1905.71 813.931L2041 765.125Z" fill="#C6C7E2"/>
                <path opacity="0.5" d="M2177.14 714.607V764.27L2041 661.52L2177.14 714.607Z" fill="#C6C7E2"/>
                <path d="M2177.14 662.373L2041.86 612.711L1905.71 714.605H2177.14M2177.14 662.373V714.605M2177.14 662.373H2041.43M2177.14 714.605V764.267M1905.71 764.267H2041.43M2177.14 764.267V813.93L2041.43 764.267M2177.14 764.267H2041.43M2041.43 764.267V662.373M2041.43 662.373H1905.71V813.93" stroke="#C6C7E2" stroke-width="0.85625"/>
                <path d="M2041 714.607L1905.71 813.076L2041 764.27M2176.29 714.607L2041 661.52L2176.29 764.27" stroke="#C6C7E2" stroke-width="0.85625"/>
            </g>
        </g>
    </g>
    <defs>
        <clipPath id="clip0_5308_169891">
            <rect width="2178" height="815" fill="white"/>
        </clipPath>
    </defs>
</svg>
