<svg width="680" height="100" viewBox="0 0 680 100" fill="none" xmlns="http://www.w3.org/2000/svg">
<g clip-path="url(#clip0_4306_611566)">
<g opacity="0.7">
<g opacity="0.5">
<path opacity="0.1" d="M96 2L30 50.5V99L96 74.75V2Z" fill="#ECE9F1"/>
<path opacity="0.3" d="M95 2L160 26.25V99L95 74.75V2Z" fill="#2E1B52"/>
<path opacity="0.2" d="M95 26L160 49.6757V74L95 26Z" fill="#806EA2"/>
<path opacity="0.2" d="M95 50V74.5L30 99L95 50Z" fill="#2E1B52"/>
<path opacity="0.2" fill-rule="evenodd" clip-rule="evenodd" d="M95.0874 1.76565L94.9597 1.71802L94.8505 1.79951L62.417 25.9999H30H29.75V26.2499V50.2499V50.3745V50.4999V50.7499V74.7499V74.9999V98.9999H29.9599L30.0874 99.2338L95.0003 75.0163L159.913 99.2339L160.25 98.9999H160.25V26.2499V26.0763L160.25 25.9999H160.045L95.0874 1.76565ZM158.615 25.9999L95.0403 2.28174L63.2531 25.9999H94.75H95H95.25H158.615ZM61.7469 26.4999H30.25V50.0014L61.7469 26.4999ZM30.7531 50.2499L62.583 26.4999H94.75V50.2499H30.7531ZM30.25 50.7499V74.4999H62.4168L94.2469 50.7499H30.25ZM30.25 74.9999V98.5012L61.7467 74.9999H30.25ZM95.25 74.4994L159.246 74.4996L127.417 50.7499H95.25V74.4994ZM159.75 98.6396L96.3866 74.9999H159.75V98.6396ZM94.75 74.4999V50.9983L63.2529 74.4999H94.75ZM62.5828 74.9999H93.614L31.5513 98.154L62.5828 74.9999ZM95.25 50.0014V50.2499H126.747L95.25 26.7483V50.0014ZM159.75 50.7499V74.2514L128.253 50.7499H159.75ZM158.615 50.2499H127.583L96.5513 27.0955L158.615 50.2499ZM159.75 26.4999V50.1398L96.3853 26.4999H159.75Z" fill="#C4BCD4"/>
</g>
<g opacity="0.7">
<path opacity="0.1" d="M226 2L160 50.5V99L226 74.75V2Z" fill="#ECE9F1"/>
<path opacity="0.3" d="M225 2L290 26.25V99L225 74.75V2Z" fill="#2E1B52"/>
<path opacity="0.2" d="M225 26L290 49.6757V74L225 26Z" fill="#806EA2"/>
<path opacity="0.2" d="M225 50V74.5L160 99L225 50Z" fill="#2E1B52"/>
<path opacity="0.2" fill-rule="evenodd" clip-rule="evenodd" d="M225.087 1.76565L224.96 1.71802L224.851 1.79951L192.417 25.9999H160H159.75V26.2499V50.2499V50.3745V50.4999V50.7499V74.7499V74.9999V98.9999H159.96L160.087 99.2338L225 75.0163L289.913 99.2339L290.25 98.9999H290.25V26.2499V26.0763L290.25 25.9999H290.045L225.087 1.76565ZM288.615 25.9999L225.04 2.28174L193.253 25.9999H224.75H225H225.25H288.615ZM191.747 26.4999H160.25V50.0014L191.747 26.4999ZM160.753 50.2499L192.583 26.4999H224.75V50.2499H160.753ZM160.25 50.7499V74.4999H192.417L224.247 50.7499H160.25ZM160.25 74.9999V98.5012L191.747 74.9999H160.25ZM225.25 74.4994L289.246 74.4996L257.417 50.7499H225.25V74.4994ZM289.75 98.6396L226.387 74.9999H289.75V98.6396ZM224.75 74.4999V50.9983L193.253 74.4999H224.75ZM192.583 74.9999H223.614L161.551 98.154L192.583 74.9999ZM225.25 50.0014V50.2499H256.747L225.25 26.7483V50.0014ZM289.75 50.7499V74.2514L258.253 50.7499H289.75ZM288.615 50.2499H257.583L226.551 27.0955L288.615 50.2499ZM289.75 26.4999V50.1398L226.385 26.4999H289.75Z" fill="#C4BCD4"/>
</g>
<g opacity="0.8">
<path opacity="0.1" d="M356 2L290 50.5V99L356 74.75V2Z" fill="#ECE9F1"/>
<path opacity="0.3" d="M355 2L420 26.25V99L355 74.75V2Z" fill="#2E1B52"/>
<path opacity="0.2" d="M355 26L420 49.6757V74L355 26Z" fill="#806EA2"/>
<path opacity="0.2" d="M355 50V74.5L290 99L355 50Z" fill="#2E1B52"/>
<path opacity="0.2" fill-rule="evenodd" clip-rule="evenodd" d="M355.087 1.76565L354.96 1.71802L354.851 1.79951L322.417 25.9999H290H289.75V26.2499V50.2499V50.3745V50.4999V50.7499V74.7499V74.9999V98.9999H289.96L290.087 99.2338L355 75.0163L419.913 99.2339L420.25 98.9999H420.25V26.2499V26.0763L420.25 25.9999H420.045L355.087 1.76565ZM418.615 25.9999L355.04 2.28174L323.253 25.9999H354.75H355H355.25H418.615ZM321.747 26.4999H290.25V50.0014L321.747 26.4999ZM290.753 50.2499L322.583 26.4999H354.75V50.2499H290.753ZM290.25 50.7499V74.4999H322.417L354.247 50.7499H290.25ZM290.25 74.9999V98.5012L321.747 74.9999H290.25ZM355.25 74.4994L419.246 74.4996L387.417 50.7499H355.25V74.4994ZM419.75 98.6396L356.387 74.9999H419.75V98.6396ZM354.75 74.4999V50.9983L323.253 74.4999H354.75ZM322.583 74.9999H353.614L291.551 98.154L322.583 74.9999ZM355.25 50.0014V50.2499H386.747L355.25 26.7483V50.0014ZM419.75 50.7499V74.2514L388.253 50.7499H419.75ZM418.615 50.2499H387.583L356.551 27.0955L418.615 50.2499ZM419.75 26.4999V50.1398L356.385 26.4999H419.75Z" fill="#C4BCD4"/>
</g>
<g opacity="0.9">
<path opacity="0.1" d="M486 2L420 50.5V99L486 74.75V2Z" fill="#ECE9F1"/>
<path opacity="0.3" d="M485 2L550 26.25V99L485 74.75V2Z" fill="#2E1B52"/>
<path opacity="0.2" d="M485 26L550 49.6757V74L485 26Z" fill="#806EA2"/>
<path opacity="0.2" d="M485 50V74.5L420 99L485 50Z" fill="#2E1B52"/>
<path opacity="0.2" fill-rule="evenodd" clip-rule="evenodd" d="M485.087 1.76565L484.96 1.71802L484.851 1.79951L452.417 25.9999H420H419.75V26.2499V50.2499V50.3745V50.4999V50.7499V74.7499V74.9999V98.9999H419.96L420.087 99.2338L485 75.0163L549.913 99.2339L550.25 98.9999H550.25V26.2499V26.0763L550.25 25.9999H550.045L485.087 1.76565ZM548.615 25.9999L485.04 2.28174L453.253 25.9999H484.75H485H485.25H548.615ZM451.747 26.4999H420.25V50.0014L451.747 26.4999ZM420.753 50.2499L452.583 26.4999H484.75V50.2499H420.753ZM420.25 50.7499V74.4999H452.417L484.247 50.7499H420.25ZM420.25 74.9999V98.5012L451.747 74.9999H420.25ZM485.25 74.4994L549.246 74.4996L517.417 50.7499H485.25V74.4994ZM549.75 98.6396L486.387 74.9999H549.75V98.6396ZM484.75 74.4999V50.9983L453.253 74.4999H484.75ZM452.583 74.9999H483.614L421.551 98.154L452.583 74.9999ZM485.25 50.0014V50.2499H516.747L485.25 26.7483V50.0014ZM549.75 50.7499V74.2514L518.253 50.7499H549.75ZM548.615 50.2499H517.583L486.551 27.0955L548.615 50.2499ZM549.75 26.4999V50.1398L486.385 26.4999H549.75Z" fill="#C4BCD4"/>
</g>
<path opacity="0.1" d="M616 2L550 50.5V99L616 74.75V2Z" fill="#ECE9F1"/>
<path opacity="0.3" d="M615 2L680 26.25V99L615 74.75V2Z" fill="#2E1B52"/>
<path opacity="0.2" d="M615 26L680 49.6757V74L615 26Z" fill="#806EA2"/>
<path opacity="0.2" d="M615 50V74.5L550 99L615 50Z" fill="#2E1B52"/>
<path opacity="0.2" fill-rule="evenodd" clip-rule="evenodd" d="M615.087 1.76565L614.96 1.71802L614.851 1.79951L582.417 25.9999H550H549.75V26.2499V50.2499V50.3745V50.4999V50.7499V74.7499V74.9999V98.9999H549.96L550.087 99.2338L615 75.0163L679.913 99.2339L680.25 98.9999H680.25V26.2499V26.0763L680.25 25.9999H680.045L615.087 1.76565ZM678.615 25.9999L615.04 2.28174L583.253 25.9999H614.75H615H615.25H678.615ZM581.747 26.4999H550.25V50.0014L581.747 26.4999ZM550.753 50.2499L582.583 26.4999H614.75V50.2499H550.753ZM550.25 50.7499V74.4999H582.417L614.247 50.7499H550.25ZM550.25 74.9999V98.5012L581.747 74.9999H550.25ZM615.25 74.4994L679.246 74.4996L647.417 50.7499H615.25V74.4994ZM679.75 98.6396L616.387 74.9999H679.75V98.6396ZM614.75 74.4999V50.9983L583.253 74.4999H614.75ZM582.583 74.9999H613.614L551.551 98.154L582.583 74.9999ZM615.25 50.0014V50.2499H646.747L615.25 26.7483V50.0014ZM679.75 50.7499V74.2514L648.253 50.7499H679.75ZM678.615 50.2499H647.583L616.551 27.0955L678.615 50.2499ZM679.75 26.4999V50.1398L616.385 26.4999H679.75Z" fill="#C4BCD4"/>
</g>
</g>
<defs>
<clipPath id="clip0_4306_611566">
<rect width="680" height="100" fill="white"/>
</clipPath>
</defs>
</svg>
