<svg width="680" height="100" viewBox="0 0 680 100" fill="none" xmlns="http://www.w3.org/2000/svg">
<g clip-path="url(#clip0_4287_561585)">
<g opacity="0.7">
<g opacity="0.5">
<path opacity="0.1" d="M95 2L30 50.5V99L95 74.75V2Z" fill="#C6C7E2"/>
<path opacity="0.4" d="M95 2L160 26.25V99L95 74.75V2Z" fill="#C6C7E2"/>
<path opacity="0.4" d="M94 26L160 50V74L94 26Z" fill="#C6C7E2"/>
<path opacity="0.4" d="M95 50V74.3377L30 99L95 50Z" fill="#C6C7E2"/>
<path opacity="0.2" fill-rule="evenodd" clip-rule="evenodd" d="M95.0874 1.76589L94.9597 1.71826L94.8505 1.79975L62.417 26.0001H30H29.75V26.2501V50.2501V50.3747V50.5001V50.7501V74.7501V75.0001V99.0001H29.9599L30.0874 99.2341L95.0003 75.0166L159.913 99.2342L160.25 99.0001H160.25V26.2501V26.0766L160.25 26.0001H160.045L95.0874 1.76589ZM158.615 26.0001L95.0403 2.28199L63.2531 26.0001H94.75H95H95.25H158.615ZM61.7469 26.5001H30.25V50.0017L61.7469 26.5001ZM30.7531 50.2501L62.583 26.5001H94.75V50.2501H30.7531ZM30.25 50.7501V74.5001H62.4168L94.2469 50.7501H30.25ZM30.25 75.0001V98.5014L61.7467 75.0001H30.25ZM95.25 74.4997L159.247 74.4999L127.417 50.7501H95.25V74.4997ZM159.75 98.6398L96.3866 75.0001H159.75V98.6398ZM94.75 74.5001V50.9986L63.2529 74.5001H94.75ZM62.5828 75.0001H93.6139L31.5513 98.1543L62.5828 75.0001ZM95.25 50.0017V50.2501H126.747L95.25 26.7486V50.0017ZM159.75 50.7501V74.2517L128.253 50.7501H159.75ZM158.615 50.2501H127.583L96.5513 27.0957L158.615 50.2501ZM159.75 26.5001V50.14L96.3853 26.5001H159.75Z" fill="#898BC2"/>
</g>
<g opacity="0.7">
<path opacity="0.1" d="M225 2L160 50.5V99L225 74.75V2Z" fill="#C6C7E2"/>
<path opacity="0.4" d="M225 2L290 26.25V99L225 74.75V2Z" fill="#C6C7E2"/>
<path opacity="0.4" d="M224 26L290 50V74L224 26Z" fill="#C6C7E2"/>
<path opacity="0.4" d="M225 50V74.3377L160 99L225 50Z" fill="#C6C7E2"/>
<path opacity="0.2" fill-rule="evenodd" clip-rule="evenodd" d="M225.087 1.76589L224.96 1.71826L224.851 1.79975L192.417 26.0001H160H159.75V26.2501V50.2501V50.3747V50.5001V50.7501V74.7501V75.0001V99.0001H159.96L160.087 99.2341L225 75.0166L289.913 99.2342L290.25 99.0001H290.25V26.2501V26.0766L290.25 26.0001H290.045L225.087 1.76589ZM288.615 26.0001L225.04 2.28199L193.253 26.0001H224.75H225H225.25H288.615ZM191.747 26.5001H160.25V50.0017L191.747 26.5001ZM160.753 50.2501L192.583 26.5001H224.75V50.2501H160.753ZM160.25 50.7501V74.5001H192.417L224.247 50.7501H160.25ZM160.25 75.0001V98.5014L191.747 75.0001H160.25ZM225.25 74.4997L289.247 74.4999L257.417 50.7501H225.25V74.4997ZM289.75 98.6398L226.387 75.0001H289.75V98.6398ZM224.75 74.5001V50.9986L193.253 74.5001H224.75ZM192.583 75.0001H223.614L161.551 98.1543L192.583 75.0001ZM225.25 50.0017V50.2501H256.747L225.25 26.7486V50.0017ZM289.75 50.7501V74.2517L258.253 50.7501H289.75ZM288.615 50.2501H257.583L226.551 27.0957L288.615 50.2501ZM289.75 26.5001V50.14L226.385 26.5001H289.75Z" fill="#898BC2"/>
</g>
<g opacity="0.8">
<path opacity="0.1" d="M355 2L290 50.5V99L355 74.75V2Z" fill="#C6C7E2"/>
<path opacity="0.4" d="M355 2L420 26.25V99L355 74.75V2Z" fill="#C6C7E2"/>
<path opacity="0.4" d="M354 26L420 50V74L354 26Z" fill="#C6C7E2"/>
<path opacity="0.4" d="M355 50V74.3377L290 99L355 50Z" fill="#C6C7E2"/>
<path opacity="0.2" fill-rule="evenodd" clip-rule="evenodd" d="M355.087 1.76589L354.96 1.71826L354.851 1.79975L322.417 26.0001H290H289.75V26.2501V50.2501V50.3747V50.5001V50.7501V74.7501V75.0001V99.0001H289.96L290.087 99.2341L355 75.0166L419.913 99.2342L420.25 99.0001H420.25V26.2501V26.0766L420.25 26.0001H420.045L355.087 1.76589ZM418.615 26.0001L355.04 2.28199L323.253 26.0001H354.75H355H355.25H418.615ZM321.747 26.5001H290.25V50.0017L321.747 26.5001ZM290.753 50.2501L322.583 26.5001H354.75V50.2501H290.753ZM290.25 50.7501V74.5001H322.417L354.247 50.7501H290.25ZM290.25 75.0001V98.5014L321.747 75.0001H290.25ZM355.25 74.4997L419.247 74.4999L387.417 50.7501H355.25V74.4997ZM419.75 98.6398L356.387 75.0001H419.75V98.6398ZM354.75 74.5001V50.9986L323.253 74.5001H354.75ZM322.583 75.0001H353.614L291.551 98.1543L322.583 75.0001ZM355.25 50.0017V50.2501H386.747L355.25 26.7486V50.0017ZM419.75 50.7501V74.2517L388.253 50.7501H419.75ZM418.615 50.2501H387.583L356.551 27.0957L418.615 50.2501ZM419.75 26.5001V50.14L356.385 26.5001H419.75Z" fill="#898BC2"/>
</g>
<g opacity="0.9">
<path opacity="0.1" d="M485 2L420 50.5V99L485 74.75V2Z" fill="#C6C7E2"/>
<path opacity="0.4" d="M485 2L550 26.25V99L485 74.75V2Z" fill="#C6C7E2"/>
<path opacity="0.4" d="M484 26L550 50V74L484 26Z" fill="#C6C7E2"/>
<path opacity="0.4" d="M485 50V74.3377L420 99L485 50Z" fill="#C6C7E2"/>
<path opacity="0.2" fill-rule="evenodd" clip-rule="evenodd" d="M485.087 1.76589L484.96 1.71826L484.851 1.79975L452.417 26.0001H420H419.75V26.2501V50.2501V50.3747V50.5001V50.7501V74.7501V75.0001V99.0001H419.96L420.087 99.2341L485 75.0166L549.913 99.2342L550.25 99.0001H550.25V26.2501V26.0766L550.25 26.0001H550.045L485.087 1.76589ZM548.615 26.0001L485.04 2.28199L453.253 26.0001H484.75H485H485.25H548.615ZM451.747 26.5001H420.25V50.0017L451.747 26.5001ZM420.753 50.2501L452.583 26.5001H484.75V50.2501H420.753ZM420.25 50.7501V74.5001H452.417L484.247 50.7501H420.25ZM420.25 75.0001V98.5014L451.747 75.0001H420.25ZM485.25 74.4997L549.247 74.4999L517.417 50.7501H485.25V74.4997ZM549.75 98.6398L486.387 75.0001H549.75V98.6398ZM484.75 74.5001V50.9986L453.253 74.5001H484.75ZM452.583 75.0001H483.614L421.551 98.1543L452.583 75.0001ZM485.25 50.0017V50.2501H516.747L485.25 26.7486V50.0017ZM549.75 50.7501V74.2517L518.253 50.7501H549.75ZM548.615 50.2501H517.583L486.551 27.0957L548.615 50.2501ZM549.75 26.5001V50.14L486.385 26.5001H549.75Z" fill="#898BC2"/>
</g>
<path opacity="0.1" d="M615 2L550 50.5V99L615 74.75V2Z" fill="#C6C7E2"/>
<path opacity="0.4" d="M615 2L680 26.25V99L615 74.75V2Z" fill="#C6C7E2"/>
<path opacity="0.4" d="M614 26L680 50V74L614 26Z" fill="#C6C7E2"/>
<path opacity="0.4" d="M615 50V74.3377L550 99L615 50Z" fill="#C6C7E2"/>
<path opacity="0.2" fill-rule="evenodd" clip-rule="evenodd" d="M615.087 1.76589L614.96 1.71826L614.851 1.79975L582.417 26.0001H550H549.75V26.2501V50.2501V50.3747V50.5001V50.7501V74.7501V75.0001V99.0001H549.96L550.087 99.2341L615 75.0166L679.913 99.2342L680.25 99.0001H680.25V26.2501V26.0766L680.25 26.0001H680.045L615.087 1.76589ZM678.615 26.0001L615.04 2.28199L583.253 26.0001H614.75H615H615.25H678.615ZM581.747 26.5001H550.25V50.0017L581.747 26.5001ZM550.753 50.2501L582.583 26.5001H614.75V50.2501H550.753ZM550.25 50.7501V74.5001H582.417L614.247 50.7501H550.25ZM550.25 75.0001V98.5014L581.747 75.0001H550.25ZM615.25 74.4997L679.247 74.4999L647.417 50.7501H615.25V74.4997ZM679.75 98.6398L616.387 75.0001H679.75V98.6398ZM614.75 74.5001V50.9986L583.253 74.5001H614.75ZM582.583 75.0001H613.614L551.551 98.1543L582.583 75.0001ZM615.25 50.0017V50.2501H646.747L615.25 26.7486V50.0017ZM679.75 50.7501V74.2517L648.253 50.7501H679.75ZM678.615 50.2501H647.583L616.551 27.0957L678.615 50.2501ZM679.75 26.5001V50.14L616.385 26.5001H679.75Z" fill="#898BC2"/>
</g>
</g>
<defs>
<clipPath id="clip0_4287_561585">
<rect width="680" height="100" fill="white"/>
</clipPath>
</defs>
</svg>
