<svg width="1200" height="152" viewBox="0 0 1200 152" fill="none" xmlns="http://www.w3.org/2000/svg">
<g clip-path="url(#clip0_4287_561378)">
<g opacity="0.7">
<g opacity="0.5">
<path opacity="0.1" d="M291 1L190 76V151L291 113.5V1Z" fill="#C6C7E2"/>
<path opacity="0.4" d="M291 1L392 38.5V151L291 113.5V1Z" fill="#C6C7E2"/>
<path opacity="0.4" d="M290 38L392 75.5V113L290 38Z" fill="#C6C7E2"/>
<path opacity="0.4" d="M291 75.5V113L190 151L291 75.5Z" fill="#C6C7E2"/>
<path opacity="0.2" fill-rule="evenodd" clip-rule="evenodd" d="M291.174 0.531438L290.92 0.437012L290.702 0.598746L240.335 38.0002H190H189.5V38.5002V75.5002V75.7487V76.0002V76.5002V113.5V114V151H189.92L190.174 151.469L291 114.033L391.826 151.469L392.499 151H392.5V38.5002V38.1525L392.5 38.0002H392.09L291.174 0.531438ZM389.217 38.0002L291.08 1.56333L242.012 38.0002H290.5H291H291.5H389.217ZM238.988 39.0002H190.5V75.0061L238.988 39.0002ZM191.512 75.5002L240.665 39.0002H290.5V75.5002H191.512ZM190.5 76.5002V113H240.334L289.488 76.5002H190.5ZM190.5 114V150.006L238.988 114H190.5ZM291.5 112.999L390.487 113L341.335 76.5002H291.5V112.999ZM391.5 150.281L293.785 114H391.5V150.281ZM290.5 113V76.9942L242.012 113H290.5ZM240.665 114H288.216L193.114 149.31L240.665 114ZM291.5 75.0061V75.5002H339.988L291.5 39.4942V75.0061ZM391.5 76.5002V112.506L343.012 76.5002H391.5ZM389.217 75.5002H341.665L294.114 40.1897L389.217 75.5002ZM391.5 39.0002V75.2812L293.783 39.0002H391.5Z" fill="#898BC2"/>
</g>
<g opacity="0.7">
<path opacity="0.1" d="M493 1L392 76V151L493 113.5V1Z" fill="#C6C7E2"/>
<path opacity="0.4" d="M493 1L594 38.5V151L493 113.5V1Z" fill="#C6C7E2"/>
<path opacity="0.4" d="M492 38L594 75.5V113L492 38Z" fill="#C6C7E2"/>
<path opacity="0.4" d="M493 75.5V113L392 151L493 75.5Z" fill="#C6C7E2"/>
<path opacity="0.2" fill-rule="evenodd" clip-rule="evenodd" d="M493.174 0.531438L492.92 0.437012L492.702 0.598746L442.335 38.0002H392H391.5V38.5002V75.5002V75.7487V76.0002V76.5002V113.5V114V151H391.92L392.174 151.469L493 114.033L593.826 151.469L594.499 151H594.5V38.5002V38.1525L594.5 38.0002H594.09L493.174 0.531438ZM591.217 38.0002L493.08 1.56333L444.012 38.0002H492.5H493H493.5H591.217ZM440.988 39.0002H392.5V75.0061L440.988 39.0002ZM393.512 75.5002L442.665 39.0002H492.5V75.5002H393.512ZM392.5 76.5002V113H442.334L491.488 76.5002H392.5ZM392.5 114V150.006L440.988 114H392.5ZM493.5 112.999L592.487 113L543.335 76.5002H493.5V112.999ZM593.5 150.281L495.785 114H593.5V150.281ZM492.5 113V76.9942L444.012 113H492.5ZM442.665 114H490.216L395.114 149.31L442.665 114ZM493.5 75.0061V75.5002H541.988L493.5 39.4942V75.0061ZM593.5 76.5002V112.506L545.012 76.5002H593.5ZM591.217 75.5002H543.665L496.114 40.1897L591.217 75.5002ZM593.5 39.0002V75.2812L495.783 39.0002H593.5Z" fill="#898BC2"/>
</g>
<g opacity="0.8">
<path opacity="0.1" d="M695 1L594 76V151L695 113.5V1Z" fill="#C6C7E2"/>
<path opacity="0.4" d="M695 1L796 38.5V151L695 113.5V1Z" fill="#C6C7E2"/>
<path opacity="0.4" d="M694 38L796 75.5V113L694 38Z" fill="#C6C7E2"/>
<path opacity="0.4" d="M695 75.5V113L594 151L695 75.5Z" fill="#C6C7E2"/>
<path opacity="0.2" fill-rule="evenodd" clip-rule="evenodd" d="M695.174 0.531438L694.92 0.437012L694.702 0.598746L644.335 38.0002H594H593.5V38.5002V75.5002V75.7487V76.0002V76.5002V113.5V114V151H593.92L594.174 151.469L695 114.033L795.826 151.469L796.499 151H796.5V38.5002V38.1525L796.5 38.0002H796.09L695.174 0.531438ZM793.217 38.0002L695.08 1.56333L646.012 38.0002H694.5H695H695.5H793.217ZM642.988 39.0002H594.5V75.0061L642.988 39.0002ZM595.512 75.5002L644.665 39.0002H694.5V75.5002H595.512ZM594.5 76.5002V113H644.334L693.488 76.5002H594.5ZM594.5 114V150.006L642.988 114H594.5ZM695.5 112.999L794.487 113L745.335 76.5002H695.5V112.999ZM795.5 150.281L697.785 114H795.5V150.281ZM694.5 113V76.9942L646.012 113H694.5ZM644.665 114H692.216L597.114 149.31L644.665 114ZM695.5 75.0061V75.5002H743.988L695.5 39.4942V75.0061ZM795.5 76.5002V112.506L747.012 76.5002H795.5ZM793.217 75.5002H745.665L698.114 40.1897L793.217 75.5002ZM795.5 39.0002V75.2812L697.783 39.0002H795.5Z" fill="#898BC2"/>
</g>
<g opacity="0.9">
<path opacity="0.1" d="M897 1L796 76V151L897 113.5V1Z" fill="#C6C7E2"/>
<path opacity="0.4" d="M897 1L998 38.5V151L897 113.5V1Z" fill="#C6C7E2"/>
<path opacity="0.4" d="M896 38L998 75.5V113L896 38Z" fill="#C6C7E2"/>
<path opacity="0.4" d="M897 75.5V113L796 151L897 75.5Z" fill="#C6C7E2"/>
<path opacity="0.2" fill-rule="evenodd" clip-rule="evenodd" d="M897.174 0.531438L896.92 0.437012L896.702 0.598746L846.335 38.0002H796H795.5V38.5002V75.5002V75.7487V76.0002V76.5002V113.5V114V151H795.92L796.174 151.469L897 114.033L997.826 151.469L998.499 151H998.5V38.5002V38.1525L998.5 38.0002H998.09L897.174 0.531438ZM995.217 38.0002L897.08 1.56333L848.012 38.0002H896.5H897H897.5H995.217ZM844.988 39.0002H796.5V75.0061L844.988 39.0002ZM797.512 75.5002L846.665 39.0002H896.5V75.5002H797.512ZM796.5 76.5002V113H846.334L895.488 76.5002H796.5ZM796.5 114V150.006L844.988 114H796.5ZM897.5 112.999L996.487 113L947.335 76.5002H897.5V112.999ZM997.5 150.281L899.785 114H997.5V150.281ZM896.5 113V76.9942L848.012 113H896.5ZM846.665 114H894.216L799.114 149.31L846.665 114ZM897.5 75.0061V75.5002H945.988L897.5 39.4942V75.0061ZM997.5 76.5002V112.506L949.012 76.5002H997.5ZM995.217 75.5002H947.665L900.114 40.1897L995.217 75.5002ZM997.5 39.0002V75.2812L899.783 39.0002H997.5Z" fill="#898BC2"/>
</g>
<path opacity="0.1" d="M1099 1L998 76V151L1099 113.5V1Z" fill="#C6C7E2"/>
<path opacity="0.4" d="M1099 1L1200 38.5V151L1099 113.5V1Z" fill="#C6C7E2"/>
<path opacity="0.4" d="M1098 38L1200 75.5V113L1098 38Z" fill="#C6C7E2"/>
<path opacity="0.4" d="M1099 75.5V113L998 151L1099 75.5Z" fill="#C6C7E2"/>
<path opacity="0.2" fill-rule="evenodd" clip-rule="evenodd" d="M1099.17 0.531438L1098.92 0.437012L1098.7 0.598746L1048.33 38.0002H998H997.5V38.5002V75.5002V75.7487V76.0002V76.5002V113.5V114V151H997.92L998.174 151.469L1099 114.033L1199.83 151.469L1200.5 151H1200.5V38.5002V38.1525L1200.5 38.0002H1200.09L1099.17 0.531438ZM1197.22 38.0002L1099.08 1.56333L1050.01 38.0002H1098.5H1099H1099.5H1197.22ZM1046.99 39.0002H998.5V75.0061L1046.99 39.0002ZM999.512 75.5002L1048.67 39.0002H1098.5V75.5002H999.512ZM998.5 76.5002V113H1048.33L1097.49 76.5002H998.5ZM998.5 114V150.006L1046.99 114H998.5ZM1099.5 112.999L1198.49 113L1149.33 76.5002H1099.5V112.999ZM1199.5 150.281L1101.79 114H1199.5V150.281ZM1098.5 113V76.9942L1050.01 113H1098.5ZM1048.67 114H1096.22L1001.11 149.31L1048.67 114ZM1099.5 75.0061V75.5002H1147.99L1099.5 39.4942V75.0061ZM1199.5 76.5002V112.506L1151.01 76.5002H1199.5ZM1197.22 75.5002H1149.67L1102.11 40.1897L1197.22 75.5002ZM1199.5 39.0002V75.2812L1101.78 39.0002H1199.5Z" fill="#898BC2"/>
</g>
</g>
<defs>
<clipPath id="clip0_4287_561378">
<rect width="1200" height="152" fill="white"/>
</clipPath>
</defs>
</svg>
