<svg width="1640" height="802" viewBox="0 0 1640 802" fill="none" xmlns="http://www.w3.org/2000/svg">
<g clip-path="url(#clip0_4266_390309)">
<g opacity="0.4">
<path opacity="0.1" d="M1505 1L1370 101V201L1505 151V1Z" fill="#C6C7E2"/>
<path opacity="0.4" d="M1505 1L1640 51V201L1505 151V1Z" fill="#C6C7E2"/>
<path opacity="0.4" d="M1505 51L1640 101V151L1505 51Z" fill="#C6C7E2"/>
<path opacity="0.4" d="M1505 101V150.999L1370 200.999L1505 101Z" fill="#C6C7E2"/>
<path opacity="0.2" fill-rule="evenodd" clip-rule="evenodd" d="M1505.17 0.531132L1504.92 0.437134L1504.7 0.598227L1437.34 50.5H1370H1369.5V51V100.5V100.748V101V101.5V151V151.5V201H1369.92L1370.17 201.468L1505 151.532L1639.83 201.468L1640.5 201H1640.5V51V50.652L1640.5 50.5H1640.09L1505.17 0.531132ZM1637.21 50.5L1505.08 1.56288L1439.02 50.5H1504.5H1505H1505.5H1637.21ZM1435.99 51.5H1370.5V100.007L1435.99 51.5ZM1371.52 100.5L1437.67 51.5H1504.5V100.5H1371.52ZM1370.5 101.5V150.5H1437.33L1503.48 101.5H1370.5ZM1370.5 151.5V200.007L1435.98 151.5H1370.5ZM1505.5 150.499L1638.48 150.499L1572.33 101.5H1505.5V150.499ZM1639.5 200.281L1507.79 151.5H1639.5V200.281ZM1504.5 150.5V101.993L1439.01 150.5H1504.5ZM1437.66 151.5H1502.21L1373.12 199.311L1437.66 151.5ZM1505.5 100.007V100.5H1570.98L1505.5 51.9926V100.007ZM1639.5 101.5V150.007L1574.01 101.5H1639.5ZM1637.21 100.5H1572.67L1508.12 52.6886L1637.21 100.5ZM1639.5 51.5V100.282L1507.79 51.5H1639.5Z" fill="#898BC2"/>
</g>
<g opacity="0.35">
<path opacity="0.1" d="M1235 151L1100 251V351L1235 301V151Z" fill="#C6C7E2"/>
<path opacity="0.4" d="M1235 151L1370 201V351L1235 301V151Z" fill="#C6C7E2"/>
<path opacity="0.4" d="M1235 201L1370 251V301L1235 201Z" fill="#C6C7E2"/>
<path opacity="0.4" d="M1235 251V300.999L1100 350.999L1235 251Z" fill="#C6C7E2"/>
<path opacity="0.2" fill-rule="evenodd" clip-rule="evenodd" d="M1235.17 150.531L1234.92 150.437L1234.7 150.598L1167.34 200.5H1100H1099.5V201V250.5V250.748V251V251.5V301V301.5V351H1099.92L1100.17 351.468L1235 301.532L1369.83 351.468L1370.5 351H1370.5V201V200.652L1370.5 200.5H1370.09L1235.17 150.531ZM1367.21 200.5L1235.08 151.563L1169.02 200.5H1234.5H1235H1235.5H1367.21ZM1165.99 201.5H1100.5V250.007L1165.99 201.5ZM1101.52 250.5L1167.67 201.5H1234.5V250.5H1101.52ZM1100.5 251.5V300.5H1167.33L1233.48 251.5H1100.5ZM1100.5 301.5V350.007L1165.98 301.5H1100.5ZM1235.5 300.499L1368.48 300.499L1302.33 251.5H1235.5V300.499ZM1369.5 350.281L1237.79 301.5H1369.5V350.281ZM1234.5 300.5V251.993L1169.01 300.5H1234.5ZM1167.66 301.5H1232.21L1103.12 349.311L1167.66 301.5ZM1235.5 250.007V250.5H1300.98L1235.5 201.993V250.007ZM1369.5 251.5V300.007L1304.01 251.5H1369.5ZM1367.21 250.5H1302.67L1238.12 202.689L1367.21 250.5ZM1369.5 201.5V250.282L1237.79 201.5H1369.5Z" fill="#898BC2"/>
<path opacity="0.1" d="M1505 151L1370 251V351L1505 301V151Z" fill="#C6C7E2"/>
<path opacity="0.4" d="M1505 151L1640 201V351L1505 301V151Z" fill="#C6C7E2"/>
<path opacity="0.4" d="M1505 201L1640 251V301L1505 201Z" fill="#C6C7E2"/>
<path opacity="0.4" d="M1505 251V300.999L1370 350.999L1505 251Z" fill="#C6C7E2"/>
<path opacity="0.2" fill-rule="evenodd" clip-rule="evenodd" d="M1505.17 150.531L1504.92 150.437L1504.7 150.598L1437.34 200.5H1370H1369.5V201V250.5V250.748V251V251.5V301V301.5V351H1369.92L1370.17 351.468L1505 301.532L1639.83 351.468L1640.5 351H1640.5V201V200.652L1640.5 200.5H1640.09L1505.17 150.531ZM1637.21 200.5L1505.08 151.563L1439.02 200.5H1504.5H1505H1505.5H1637.21ZM1435.99 201.5H1370.5V250.007L1435.99 201.5ZM1371.52 250.5L1437.67 201.5H1504.5V250.5H1371.52ZM1370.5 251.5V300.5H1437.33L1503.48 251.5H1370.5ZM1370.5 301.5V350.007L1435.98 301.5H1370.5ZM1505.5 300.499L1638.48 300.499L1572.33 251.5H1505.5V300.499ZM1639.5 350.281L1507.79 301.5H1639.5V350.281ZM1504.5 300.5V251.993L1439.01 300.5H1504.5ZM1437.66 301.5H1502.21L1373.12 349.311L1437.66 301.5ZM1505.5 250.007V250.5H1570.98L1505.5 201.993V250.007ZM1639.5 251.5V300.007L1574.01 251.5H1639.5ZM1637.21 250.5H1572.67L1508.12 202.689L1637.21 250.5ZM1639.5 201.5V250.282L1507.79 201.5H1639.5Z" fill="#898BC2"/>
</g>
<g opacity="0.3">
<path opacity="0.1" d="M965 301L830 401V501L965 451V301Z" fill="#C6C7E2"/>
<path opacity="0.4" d="M965 301L1100 351V501L965 451V301Z" fill="#C6C7E2"/>
<path opacity="0.1" d="M965 351L1100 401V451L965 351Z" fill="#C6C7E2"/>
<path opacity="0.2" d="M965 401V450.999L830 500.999L965 401Z" fill="#C6C7E2"/>
<path opacity="0.2" fill-rule="evenodd" clip-rule="evenodd" d="M965.174 300.531L964.92 300.437L964.702 300.598L897.335 350.5H830H829.5V351V400.5V400.748V401V401.5V451V451.5V501H829.92L830.174 501.468L965.001 451.532L1099.83 501.468L1100.5 501H1100.5V351V350.652L1100.5 350.5H1100.09L965.174 300.531ZM1097.21 350.5L965.08 301.563L899.015 350.5H964.5H965H965.5H1097.21ZM895.985 351.5H830.5V400.007L895.985 351.5ZM831.515 400.5L897.665 351.5H964.5V400.5H831.515ZM830.5 401.5V450.5H897.335L963.485 401.5H830.5ZM830.5 451.5V500.007L895.985 451.5H830.5ZM965.5 450.499L1098.48 450.499L1032.33 401.5H965.5V450.499ZM1099.5 500.281L967.792 451.5H1099.5V500.281ZM964.5 450.5V401.993L899.015 450.5H964.5ZM897.665 451.5H962.209L833.12 499.311L897.665 451.5ZM965.5 400.007V400.5H1030.98L965.5 351.993V400.007ZM1099.5 401.5V450.007L1034.01 401.5H1099.5ZM1097.21 400.5H1032.67L968.12 352.689L1097.21 400.5ZM1099.5 351.5V400.282L967.79 351.5H1099.5Z" fill="#898BC2"/>
<path opacity="0.1" d="M1235 301L1100 401V501L1235 451V301Z" fill="#C6C7E2"/>
<path opacity="0.4" d="M1235 301L1370 351V501L1235 451V301Z" fill="#C6C7E2"/>
<path opacity="0.4" d="M1235 351L1370 401V451L1235 351Z" fill="#C6C7E2"/>
<path opacity="0.4" d="M1235 401V450.999L1100 500.999L1235 401Z" fill="#C6C7E2"/>
<path opacity="0.2" fill-rule="evenodd" clip-rule="evenodd" d="M1235.17 300.531L1234.92 300.437L1234.7 300.598L1167.34 350.5H1100H1099.5V351V400.5V400.748V401V401.5V451V451.5V501H1099.92L1100.17 501.468L1235 451.532L1369.83 501.468L1370.5 501H1370.5V351V350.652L1370.5 350.5H1370.09L1235.17 300.531ZM1367.21 350.5L1235.08 301.563L1169.02 350.5H1234.5H1235H1235.5H1367.21ZM1165.99 351.5H1100.5V400.007L1165.99 351.5ZM1101.52 400.5L1167.67 351.5H1234.5V400.5H1101.52ZM1100.5 401.5V450.5H1167.33L1233.48 401.5H1100.5ZM1100.5 451.5V500.007L1165.98 451.5H1100.5ZM1235.5 450.499L1368.48 450.499L1302.33 401.5H1235.5V450.499ZM1369.5 500.281L1237.79 451.5H1369.5V500.281ZM1234.5 450.5V401.993L1169.01 450.5H1234.5ZM1167.66 451.5H1232.21L1103.12 499.311L1167.66 451.5ZM1235.5 400.007V400.5H1300.98L1235.5 351.993V400.007ZM1369.5 401.5V450.007L1304.01 401.5H1369.5ZM1367.21 400.5H1302.67L1238.12 352.689L1367.21 400.5ZM1369.5 351.5V400.282L1237.79 351.5H1369.5Z" fill="#898BC2"/>
<path opacity="0.1" d="M1505 301L1370 401V501L1505 451V301Z" fill="#C6C7E2"/>
<path opacity="0.4" d="M1505 301L1640 351V501L1505 451V301Z" fill="#C6C7E2"/>
<path opacity="0.4" d="M1505 351L1640 401V451L1505 351Z" fill="#C6C7E2"/>
<path opacity="0.4" d="M1505 401V450.999L1370 500.999L1505 401Z" fill="#C6C7E2"/>
<path opacity="0.2" fill-rule="evenodd" clip-rule="evenodd" d="M1505.17 300.531L1504.92 300.437L1504.7 300.598L1437.34 350.5H1370H1369.5V351V400.5V400.748V401V401.5V451V451.5V501H1369.92L1370.17 501.468L1505 451.532L1639.83 501.468L1640.5 501H1640.5V351V350.652L1640.5 350.5H1640.09L1505.17 300.531ZM1637.21 350.5L1505.08 301.563L1439.02 350.5H1504.5H1505H1505.5H1637.21ZM1435.99 351.5H1370.5V400.007L1435.99 351.5ZM1371.52 400.5L1437.67 351.5H1504.5V400.5H1371.52ZM1370.5 401.5V450.5H1437.33L1503.48 401.5H1370.5ZM1370.5 451.5V500.007L1435.98 451.5H1370.5ZM1505.5 450.499L1638.48 450.499L1572.33 401.5H1505.5V450.499ZM1639.5 500.281L1507.79 451.5H1639.5V500.281ZM1504.5 450.5V401.993L1439.01 450.5H1504.5ZM1437.66 451.5H1502.21L1373.12 499.311L1437.66 451.5ZM1505.5 400.007V400.5H1570.98L1505.5 351.993V400.007ZM1639.5 401.5V450.007L1574.01 401.5H1639.5ZM1637.21 400.5H1572.67L1508.12 352.689L1637.21 400.5ZM1639.5 351.5V400.282L1507.79 351.5H1639.5Z" fill="#898BC2"/>
</g>
<g opacity="0.3">
<g opacity="0.8">
<path opacity="0.1" d="M425 451L290 551V651L425 601V451Z" fill="#C6C7E2"/>
<path opacity="0.4" d="M425 451L560 501V651L425 601V451Z" fill="#C6C7E2"/>
<path opacity="0.4" d="M425 501L560 551V601L425 501Z" fill="#C6C7E2"/>
<path opacity="0.4" d="M425 551V600.999L290 650.999L425 551Z" fill="#C6C7E2"/>
<path opacity="0.2" fill-rule="evenodd" clip-rule="evenodd" d="M425.174 450.531L424.92 450.437L424.702 450.598L357.335 500.5H290H289.5V501V550.5V550.748V551V551.5V601V601.5V651H289.92L290.174 651.468L425.001 601.532L559.826 651.468L560.499 651H560.5V501V500.652L560.5 500.5H560.09L425.174 450.531ZM557.21 500.5L425.08 451.563L359.015 500.5H424.5H425H425.5H557.21ZM355.985 501.5H290.5V550.007L355.985 501.5ZM291.515 550.5L357.665 501.5H424.5V550.5H291.515ZM290.5 551.5V600.5H357.335L423.485 551.5H290.5ZM290.5 601.5V650.007L355.985 601.5H290.5ZM425.5 600.499L558.484 600.499L492.335 551.5H425.5V600.499ZM559.5 650.281L427.792 601.5H559.5V650.281ZM424.5 600.5V551.993L359.015 600.5H424.5ZM357.665 601.5H422.209L293.12 649.311L357.665 601.5ZM425.5 550.007V550.5H490.985L425.5 501.993V550.007ZM559.5 551.5V600.007L494.015 551.5H559.5ZM557.21 550.5H492.665L428.12 502.689L557.21 550.5ZM559.5 501.5V550.282L427.79 501.5H559.5Z" fill="#898BC2"/>
</g>
<path opacity="0.1" d="M695 451L560 551V651L695 601V451Z" fill="#C6C7E2"/>
<path opacity="0.4" d="M695 451L830 501V651L695 601V451Z" fill="#C6C7E2"/>
<path opacity="0.4" d="M695 501L830 551V601L695 501Z" fill="#C6C7E2"/>
<path opacity="0.4" d="M695 551V600.999L560 650.999L695 551Z" fill="#C6C7E2"/>
<path opacity="0.2" fill-rule="evenodd" clip-rule="evenodd" d="M695.174 450.531L694.92 450.437L694.702 450.598L627.335 500.5H560H559.5V501V550.5V550.748V551V551.5V601V601.5V651H559.92L560.174 651.468L695.001 601.532L829.826 651.468L830.499 651H830.5V501V500.652L830.5 500.5H830.09L695.174 450.531ZM827.21 500.5L695.08 451.563L629.015 500.5H694.5H695H695.5H827.21ZM625.985 501.5H560.5V550.007L625.985 501.5ZM561.515 550.5L627.665 501.5H694.5V550.5H561.515ZM560.5 551.5V600.5H627.335L693.485 551.5H560.5ZM560.5 601.5V650.007L625.985 601.5H560.5ZM695.5 600.499L828.484 600.499L762.335 551.5H695.5V600.499ZM829.5 650.281L697.792 601.5H829.5V650.281ZM694.5 600.5V551.993L629.015 600.5H694.5ZM627.665 601.5H692.209L563.12 649.311L627.665 601.5ZM695.5 550.007V550.5H760.985L695.5 501.993V550.007ZM829.5 551.5V600.007L764.015 551.5H829.5ZM827.21 550.5H762.665L698.12 502.689L827.21 550.5ZM829.5 501.5V550.282L697.79 501.5H829.5Z" fill="#898BC2"/>
<path opacity="0.1" d="M965 451L830 551V651L965 601V451Z" fill="#C6C7E2"/>
<path opacity="0.4" d="M965 451L1100 501V651L965 601V451Z" fill="#C6C7E2"/>
<path opacity="0.4" d="M965 501L1100 551V601L965 501Z" fill="#C6C7E2"/>
<path opacity="0.4" d="M965 551V600.999L830 650.999L965 551Z" fill="#C6C7E2"/>
<path opacity="0.2" fill-rule="evenodd" clip-rule="evenodd" d="M965.174 450.531L964.92 450.437L964.702 450.598L897.335 500.5H830H829.5V501V550.5V550.748V551V551.5V601V601.5V651H829.92L830.174 651.468L965.001 601.532L1099.83 651.468L1100.5 651H1100.5V501V500.652L1100.5 500.5H1100.09L965.174 450.531ZM1097.21 500.5L965.08 451.563L899.015 500.5H964.5H965H965.5H1097.21ZM895.985 501.5H830.5V550.007L895.985 501.5ZM831.515 550.5L897.665 501.5H964.5V550.5H831.515ZM830.5 551.5V600.5H897.335L963.485 551.5H830.5ZM830.5 601.5V650.007L895.985 601.5H830.5ZM965.5 600.499L1098.48 600.499L1032.33 551.5H965.5V600.499ZM1099.5 650.281L967.792 601.5H1099.5V650.281ZM964.5 600.5V551.993L899.015 600.5H964.5ZM897.665 601.5H962.209L833.12 649.311L897.665 601.5ZM965.5 550.007V550.5H1030.98L965.5 501.993V550.007ZM1099.5 551.5V600.007L1034.01 551.5H1099.5ZM1097.21 550.5H1032.67L968.12 502.689L1097.21 550.5ZM1099.5 501.5V550.282L967.79 501.5H1099.5Z" fill="#898BC2"/>
<path opacity="0.1" d="M1235 451L1100 551V651L1235 601V451Z" fill="#C6C7E2"/>
<path opacity="0.4" d="M1235 451L1370 501V651L1235 601V451Z" fill="#C6C7E2"/>
<path opacity="0.4" d="M1235 501L1370 551V601L1235 501Z" fill="#C6C7E2"/>
<path opacity="0.4" d="M1235 551V600.999L1100 650.999L1235 551Z" fill="#C6C7E2"/>
<path opacity="0.2" fill-rule="evenodd" clip-rule="evenodd" d="M1235.17 450.531L1234.92 450.437L1234.7 450.598L1167.34 500.5H1100H1099.5V501V550.5V550.748V551V551.5V601V601.5V651H1099.92L1100.17 651.468L1235 601.532L1369.83 651.468L1370.5 651H1370.5V501V500.652L1370.5 500.5H1370.09L1235.17 450.531ZM1367.21 500.5L1235.08 451.563L1169.02 500.5H1234.5H1235H1235.5H1367.21ZM1165.99 501.5H1100.5V550.007L1165.99 501.5ZM1101.52 550.5L1167.67 501.5H1234.5V550.5H1101.52ZM1100.5 551.5V600.5H1167.33L1233.48 551.5H1100.5ZM1100.5 601.5V650.007L1165.98 601.5H1100.5ZM1235.5 600.499L1368.48 600.499L1302.33 551.5H1235.5V600.499ZM1369.5 650.281L1237.79 601.5H1369.5V650.281ZM1234.5 600.5V551.993L1169.01 600.5H1234.5ZM1167.66 601.5H1232.21L1103.12 649.311L1167.66 601.5ZM1235.5 550.007V550.5H1300.98L1235.5 501.993V550.007ZM1369.5 551.5V600.007L1304.01 551.5H1369.5ZM1367.21 550.5H1302.67L1238.12 502.689L1367.21 550.5ZM1369.5 501.5V550.282L1237.79 501.5H1369.5Z" fill="#898BC2"/>
<path opacity="0.1" d="M1505 451L1370 551V651L1505 601V451Z" fill="#C6C7E2"/>
<path opacity="0.4" d="M1505 451L1640 501V651L1505 601V451Z" fill="#C6C7E2"/>
<path opacity="0.4" d="M1505 501L1640 551V601L1505 501Z" fill="#C6C7E2"/>
<path opacity="0.4" d="M1505 551V600.999L1370 650.999L1505 551Z" fill="#C6C7E2"/>
<path opacity="0.2" fill-rule="evenodd" clip-rule="evenodd" d="M1505.17 450.531L1504.92 450.437L1504.7 450.598L1437.34 500.5H1370H1369.5V501V550.5V550.748V551V551.5V601V601.5V651H1369.92L1370.17 651.468L1505 601.532L1639.83 651.468L1640.5 651H1640.5V501V500.652L1640.5 500.5H1640.09L1505.17 450.531ZM1637.21 500.5L1505.08 451.563L1439.02 500.5H1504.5H1505H1505.5H1637.21ZM1435.99 501.5H1370.5V550.007L1435.99 501.5ZM1371.52 550.5L1437.67 501.5H1504.5V550.5H1371.52ZM1370.5 551.5V600.5H1437.33L1503.48 551.5H1370.5ZM1370.5 601.5V650.007L1435.98 601.5H1370.5ZM1505.5 600.499L1638.48 600.499L1572.33 551.5H1505.5V600.499ZM1639.5 650.281L1507.79 601.5H1639.5V650.281ZM1504.5 600.5V551.993L1439.01 600.5H1504.5ZM1437.66 601.5H1502.21L1373.12 649.311L1437.66 601.5ZM1505.5 550.007V550.5H1570.98L1505.5 501.993V550.007ZM1639.5 551.5V600.007L1574.01 551.5H1639.5ZM1637.21 550.5H1572.67L1508.12 502.689L1637.21 550.5ZM1639.5 501.5V550.282L1507.79 501.5H1639.5Z" fill="#898BC2"/>
</g>
<g opacity="0.25">
<g opacity="0.7">
<path opacity="0.1" d="M155 601L20 701V801L155 751V601Z" fill="#C6C7E2"/>
<path opacity="0.4" d="M155 601L290 651V801L155 751V601Z" fill="#C6C7E2"/>
<path opacity="0.4" d="M155 651L290 701V751L155 651Z" fill="#C6C7E2"/>
<path opacity="0.4" d="M155 701V750.999L20 800.999L155 701Z" fill="#C6C7E2"/>
<path opacity="0.2" fill-rule="evenodd" clip-rule="evenodd" d="M155.174 600.531L154.92 600.437L154.702 600.598L87.335 650.5H20H19.5V651V700.5V700.748V701V701.5V751V751.5V801H19.9202L20.1737 801.468L155.001 751.532L289.826 801.468L290.499 801H290.5V651V650.652L290.5 650.5H290.09L155.174 600.531ZM287.21 650.5L155.08 601.563L89.0151 650.5H154.5H155H155.5H287.21ZM85.985 651.5H20.5V700.007L85.985 651.5ZM21.515 700.5L87.6651 651.5H154.5V700.5H21.515ZM20.5 701.5V750.5H87.3346L153.485 701.5H20.5ZM20.5 751.5V800.007L85.9846 751.5H20.5ZM155.5 750.499L288.484 750.499L222.335 701.5H155.5V750.499ZM289.5 800.281L157.792 751.5H289.5V800.281ZM154.5 750.5V701.993L89.0147 750.5H154.5ZM87.6647 751.5H152.209L23.1197 799.311L87.6647 751.5ZM155.5 700.007V700.5H220.985L155.5 651.993V700.007ZM289.5 701.5V750.007L224.015 701.5H289.5ZM287.21 700.5H222.665L158.12 652.689L287.21 700.5ZM289.5 651.5V700.282L157.79 651.5H289.5Z" fill="#898BC2"/>
</g>
<g opacity="0.9">
<path opacity="0.1" d="M425 601L290 701V801L425 751V601Z" fill="#C6C7E2"/>
<path opacity="0.4" d="M425 601L560 651V801L425 751V601Z" fill="#C6C7E2"/>
<path opacity="0.4" d="M425 651L560 701V751L425 651Z" fill="#C6C7E2"/>
<path opacity="0.4" d="M425 701V750.999L290 800.999L425 701Z" fill="#C6C7E2"/>
<path opacity="0.2" fill-rule="evenodd" clip-rule="evenodd" d="M425.174 600.531L424.92 600.437L424.702 600.598L357.335 650.5H290H289.5V651V700.5V700.748V701V701.5V751V751.5V801H289.92L290.174 801.468L425.001 751.532L559.826 801.468L560.499 801H560.5V651V650.652L560.5 650.5H560.09L425.174 600.531ZM557.21 650.5L425.08 601.563L359.015 650.5H424.5H425H425.5H557.21ZM355.985 651.5H290.5V700.007L355.985 651.5ZM291.515 700.5L357.665 651.5H424.5V700.5H291.515ZM290.5 701.5V750.5H357.335L423.485 701.5H290.5ZM290.5 751.5V800.007L355.985 751.5H290.5ZM425.5 750.499L558.484 750.499L492.335 701.5H425.5V750.499ZM559.5 800.281L427.792 751.5H559.5V800.281ZM424.5 750.5V701.993L359.015 750.5H424.5ZM357.665 751.5H422.209L293.12 799.311L357.665 751.5ZM425.5 700.007V700.5H490.985L425.5 651.993V700.007ZM559.5 701.5V750.007L494.015 701.5H559.5ZM557.21 700.5H492.665L428.12 652.689L557.21 700.5ZM559.5 651.5V700.282L427.79 651.5H559.5Z" fill="#898BC2"/>
</g>
<path opacity="0.1" d="M695 601L560 701V801L695 751V601Z" fill="#C6C7E2"/>
<path opacity="0.4" d="M695 601L830 651V801L695 751V601Z" fill="#C6C7E2"/>
<path opacity="0.4" d="M695 651L830 701V751L695 651Z" fill="#C6C7E2"/>
<path opacity="0.4" d="M695 701V750.999L560 800.999L695 701Z" fill="#C6C7E2"/>
<path opacity="0.2" fill-rule="evenodd" clip-rule="evenodd" d="M695.174 600.531L694.92 600.437L694.702 600.598L627.335 650.5H560H559.5V651V700.5V700.748V701V701.5V751V751.5V801H559.92L560.174 801.468L695.001 751.532L829.826 801.468L830.499 801H830.5V651V650.652L830.5 650.5H830.09L695.174 600.531ZM827.21 650.5L695.08 601.563L629.015 650.5H694.5H695H695.5H827.21ZM625.985 651.5H560.5V700.007L625.985 651.5ZM561.515 700.5L627.665 651.5H694.5V700.5H561.515ZM560.5 701.5V750.5H627.335L693.485 701.5H560.5ZM560.5 751.5V800.007L625.985 751.5H560.5ZM695.5 750.499L828.484 750.499L762.335 701.5H695.5V750.499ZM829.5 800.281L697.792 751.5H829.5V800.281ZM694.5 750.5V701.993L629.015 750.5H694.5ZM627.665 751.5H692.209L563.12 799.311L627.665 751.5ZM695.5 700.007V700.5H760.985L695.5 651.993V700.007ZM829.5 701.5V750.007L764.015 701.5H829.5ZM827.21 700.5H762.665L698.12 652.689L827.21 700.5ZM829.5 651.5V700.282L697.79 651.5H829.5Z" fill="#898BC2"/>
<path opacity="0.1" d="M965 601L830 701V801L965 751V601Z" fill="#C6C7E2"/>
<path opacity="0.4" d="M965 601L1100 651V801L965 751V601Z" fill="#C6C7E2"/>
<path opacity="0.4" d="M965 651L1100 701V751L965 651Z" fill="#C6C7E2"/>
<path opacity="0.4" d="M965 701V750.999L830 800.999L965 701Z" fill="#C6C7E2"/>
<path opacity="0.2" fill-rule="evenodd" clip-rule="evenodd" d="M965.174 600.531L964.92 600.437L964.702 600.598L897.335 650.5H830H829.5V651V700.5V700.748V701V701.5V751V751.5V801H829.92L830.174 801.468L965.001 751.532L1099.83 801.468L1100.5 801H1100.5V651V650.652L1100.5 650.5H1100.09L965.174 600.531ZM1097.21 650.5L965.08 601.563L899.015 650.5H964.5H965H965.5H1097.21ZM895.985 651.5H830.5V700.007L895.985 651.5ZM831.515 700.5L897.665 651.5H964.5V700.5H831.515ZM830.5 701.5V750.5H897.335L963.485 701.5H830.5ZM830.5 751.5V800.007L895.985 751.5H830.5ZM965.5 750.499L1098.48 750.499L1032.33 701.5H965.5V750.499ZM1099.5 800.281L967.792 751.5H1099.5V800.281ZM964.5 750.5V701.993L899.015 750.5H964.5ZM897.665 751.5H962.209L833.12 799.311L897.665 751.5ZM965.5 700.007V700.5H1030.98L965.5 651.993V700.007ZM1099.5 701.5V750.007L1034.01 701.5H1099.5ZM1097.21 700.5H1032.67L968.12 652.689L1097.21 700.5ZM1099.5 651.5V700.282L967.79 651.5H1099.5Z" fill="#898BC2"/>
<path opacity="0.1" d="M1235 601L1100 701V801L1235 751V601Z" fill="#C6C7E2"/>
<path opacity="0.4" d="M1235 601L1370 651V801L1235 751V601Z" fill="#C6C7E2"/>
<path opacity="0.4" d="M1235 651L1370 701V751L1235 651Z" fill="#C6C7E2"/>
<path opacity="0.4" d="M1235 701V750.999L1100 800.999L1235 701Z" fill="#C6C7E2"/>
<path opacity="0.2" fill-rule="evenodd" clip-rule="evenodd" d="M1235.17 600.531L1234.92 600.437L1234.7 600.598L1167.34 650.5H1100H1099.5V651V700.5V700.748V701V701.5V751V751.5V801H1099.92L1100.17 801.468L1235 751.532L1369.83 801.468L1370.5 801H1370.5V651V650.652L1370.5 650.5H1370.09L1235.17 600.531ZM1367.21 650.5L1235.08 601.563L1169.02 650.5H1234.5H1235H1235.5H1367.21ZM1165.99 651.5H1100.5V700.007L1165.99 651.5ZM1101.52 700.5L1167.67 651.5H1234.5V700.5H1101.52ZM1100.5 701.5V750.5H1167.33L1233.48 701.5H1100.5ZM1100.5 751.5V800.007L1165.98 751.5H1100.5ZM1235.5 750.499L1368.48 750.499L1302.33 701.5H1235.5V750.499ZM1369.5 800.281L1237.79 751.5H1369.5V800.281ZM1234.5 750.5V701.993L1169.01 750.5H1234.5ZM1167.66 751.5H1232.21L1103.12 799.311L1167.66 751.5ZM1235.5 700.007V700.5H1300.98L1235.5 651.993V700.007ZM1369.5 701.5V750.007L1304.01 701.5H1369.5ZM1367.21 700.5H1302.67L1238.12 652.689L1367.21 700.5ZM1369.5 651.5V700.282L1237.79 651.5H1369.5Z" fill="#898BC2"/>
<path opacity="0.1" d="M1505 601L1370 701V801L1505 751V601Z" fill="#C6C7E2"/>
<path opacity="0.4" d="M1505 601L1640 651V801L1505 751V601Z" fill="#C6C7E2"/>
<path opacity="0.4" d="M1505 651L1640 701V751L1505 651Z" fill="#C6C7E2"/>
<path opacity="0.4" d="M1505 701V750.999L1370 800.999L1505 701Z" fill="#C6C7E2"/>
<path opacity="0.2" fill-rule="evenodd" clip-rule="evenodd" d="M1505.17 600.531L1504.92 600.437L1504.7 600.598L1437.34 650.5H1370H1369.5V651V700.5V700.748V701V701.5V751V751.5V801H1369.92L1370.17 801.468L1505 751.532L1639.83 801.468L1640.5 801H1640.5V651V650.652L1640.5 650.5H1640.09L1505.17 600.531ZM1637.21 650.5L1505.08 601.563L1439.02 650.5H1504.5H1505H1505.5H1637.21ZM1435.99 651.5H1370.5V700.007L1435.99 651.5ZM1371.52 700.5L1437.67 651.5H1504.5V700.5H1371.52ZM1370.5 701.5V750.5H1437.33L1503.48 701.5H1370.5ZM1370.5 751.5V800.007L1435.98 751.5H1370.5ZM1505.5 750.499L1638.48 750.499L1572.33 701.5H1505.5V750.499ZM1639.5 800.281L1507.79 751.5H1639.5V800.281ZM1504.5 750.5V701.993L1439.01 750.5H1504.5ZM1437.66 751.5H1502.21L1373.12 799.311L1437.66 751.5ZM1505.5 700.007V700.5H1570.98L1505.5 651.993V700.007ZM1639.5 701.5V750.007L1574.01 701.5H1639.5ZM1637.21 700.5H1572.67L1508.12 652.689L1637.21 700.5ZM1639.5 651.5V700.282L1507.79 651.5H1639.5Z" fill="#898BC2"/>
</g>
</g>
<defs>
<clipPath id="clip0_4266_390309">
<rect width="1640" height="802" fill="white"/>
</clipPath>
</defs>
</svg>
