<svg width="56" height="48" viewBox="0 0 56 48" fill="none" xmlns="http://www.w3.org/2000/svg">
<path fill-rule="evenodd" clip-rule="evenodd" d="M3 0C1.34315 0 0 1.34315 0 3V37C0 38.6569 1.34314 40 3 40H22V42H21C18.7909 42 17 43.7909 17 46V47C17 47.5523 17.4477 48 18 48H38C38.5523 48 39 47.5523 39 47V46C39 43.7909 37.2091 42 35 42H34V40H53C54.6569 40 56 38.6569 56 37V3C56 1.34315 54.6569 0 53 0H3ZM32 42V40H24V42H32ZM23 44H21C19.8954 44 19 44.8954 19 46H37C37 44.8954 36.1046 44 35 44H33H23ZM53 38H33H23H3C2.44772 38 2 37.5523 2 37V3C2 2.44772 2.44772 2 3 2H53C53.5523 2 54 2.44771 54 3V37C54 37.5523 53.5523 38 53 38ZM27.5896 9.08808C27.8506 8.97064 28.1494 8.97064 28.4104 9.08808L40.4104 14.4881C40.7692 14.6496 41 15.0065 41 15.4V19C41 19.5523 40.5523 20 40 20H39V25H40C40.5523 25 41 25.4477 41 26V30C41 30.5523 40.5523 31 40 31H16C15.4477 31 15 30.5523 15 30V26C15 25.4477 15.4477 25 16 25H17V20H16C15.4477 20 15 19.5523 15 19V15.4C15 15.0065 15.2308 14.6496 15.5896 14.4881L27.5896 9.08808ZM35 20H37V25H35V20ZM38 18H34H30H26H22H18H17V16.0466L28 11.0966L39 16.0466V18H38ZM33 20H31V25H33V20ZM27 25V20H29V25H27ZM23 20H25V25H23V20ZM19 20H21V25H19V20ZM34 27H30H26H22H18H17V29H39V27H38H34Z" fill="#76B82A"/>
</svg>
