<svg width="64" height="64" viewBox="0 0 64 64" fill="none" xmlns="http://www.w3.org/2000/svg">
<path d="M10 10C10 7.23858 12.2386 5 15 5H39C41.7614 5 44 7.23858 44 10V14.5C44 15.0523 43.5523 15.5 43 15.5C42.4477 15.5 42 15.0523 42 14.5V10C42 8.34315 40.6569 7 39 7H15C13.3431 7 12 8.34315 12 10V54C12 55.6569 13.3431 57 15 57H39C40.6569 57 42 55.6569 42 54V50C42 49.4477 42.4477 49 43 49C43.5523 49 44 49.4477 44 50V54C44 56.7614 41.7614 59 39 59H15C12.2386 59 10 56.7614 10 54V10Z" fill="#76B82A"/>
<path d="M22 11C22 10.4477 22.4477 10 23 10H31C31.5523 10 32 10.4477 32 11C32 11.5523 31.5523 12 31 12H23C22.4477 12 22 11.5523 22 11Z" fill="#76B82A"/>
<path fill-rule="evenodd" clip-rule="evenodd" d="M27 48C25.3431 48 24 49.3431 24 51C24 52.6569 25.3431 54 27 54C28.6569 54 30 52.6569 30 51C30 49.3431 28.6569 48 27 48ZM26 51C26 50.4477 26.4477 50 27 50C27.5523 50 28 50.4477 28 51C28 51.5523 27.5523 52 27 52C26.4477 52 26 51.5523 26 51Z" fill="#76B82A"/>
<path d="M50.666 28.7459C51.078 28.3781 51.1138 27.746 50.7459 27.334C50.3781 26.922 49.746 26.8862 49.334 27.2541L41.04 34.6594L36.666 30.7541C36.254 30.3862 35.6219 30.422 35.2541 30.834C34.8862 31.246 34.922 31.8781 35.334 32.2459L40.374 36.7459C40.7534 37.0847 41.3266 37.0847 41.706 36.7459L50.666 28.7459Z" fill="#76B82A"/>
<path fill-rule="evenodd" clip-rule="evenodd" d="M29 32C29 24.4043 35.0132 18 42.9023 18C50.7717 18 57 24.3844 57 32C57 39.6156 50.7717 46 42.9023 46C35.2185 46 29 39.6057 29 32ZM42.9023 20C36.1622 20 31 25.4639 31 32C31 38.5261 36.3479 44 42.9023 44C49.6619 44 55 38.5163 55 32C55 25.4837 49.6619 20 42.9023 20Z" fill="#76B82A"/>
</svg>
